<?xml version="1.0" encoding="utf-8"?>
<!-- Generator: Adobe Illustrator 27.4.1, SVG Export Plug-In . SVG Version: 6.00 Build 0)  -->
<svg version="1.1" id="Capa_1" xmlns="http://www.w3.org/2000/svg" xmlns:xlink="http://www.w3.org/1999/xlink" x="0px" y="0px"
	 viewBox="0 0 512 512" style="enable-background:new 0 0 512 512;" xml:space="preserve">
<style type="text/css">
	.svg_base{fill:#363434;}
	.svg_accent{fill:#00BFB2;}
	.st9{fill:#FFFFFF;filter:url(#Adobe_OpacityMaskFilter);}
</style>
<g>
	<g>
		<path class="svg_base" d="M463.3,131.3v99.1c0,12.1-9.8,21.9-21.9,21.9H70.5c-12.1,0-21.8-9.9-21.8-21.9v-99.1
			c0-12.1,9.8-21.9,21.8-21.9h350.2c5,0,9.1,4.1,9.1,9.1c0,5-4.1,9.1-9.1,9.1H70.5c-2,0-3.6,1.6-3.6,3.6v99.1c0,2,1.6,3.6,3.6,3.6
			h10v-8.4c0-15.6,12.7-28.3,28.2-28.3h27.1c5,0,9.1,4.1,9.1,9.1c0,5-4.1,9.1-9.1,9.1h-27.1c-5.5,0-10,4.5-10,10.1v8.4h314.5v-8.4
			c0-5.5-4.5-10.1-10-10.1H231.3c-5,0-9.1-4.1-9.1-9.1c0-5,4.1-9.1,9.1-9.1h171.9c15.6,0,28.2,12.7,28.2,28.3v8.4h10
			c2,0,3.6-1.6,3.6-3.6v-99.1c0-5,4.1-9.1,9.1-9.1C459.2,122.2,463.3,126.3,463.3,131.3z"/>
	</g>
	<g>
		<path class="svg_base" d="M205.4,206.5c0,5-4.1,9.1-9.1,9.1h-25.5c-5,0-9.1-4.1-9.1-9.1c0-5,4.1-9.1,9.1-9.1h25.5
			C201.3,197.4,205.4,201.5,205.4,206.5z"/>
	</g>
	<g>
		<path class="svg_accent" d="M328.8,141.4H183.2c-5,0-9.1,4.1-9.1,9.1v27.2c0,5,4.1,9.1,9.1,9.1h145.7c5,0,9.1-4.1,9.1-9.1v-27.2
			C338,145.5,333.9,141.4,328.8,141.4z M319.7,159.6v8.9H192.3v-8.9H319.7z"/>
	</g>
	<g>
		<path class="svg_base" d="M384.1,164.1c0,5-4.1,9.1-9.1,9.1h-19.9c-5,0-9.1-4.1-9.1-9.1s4.1-9.1,9.1-9.1H375
			C380,155,384.1,159.1,384.1,164.1z"/>
	</g>
	<g>
		<path class="svg_base" d="M431.5,164.1c0,5-4.1,9.1-9.1,9.1h-19.9c-5,0-9.1-4.1-9.1-9.1s4.1-9.1,9.1-9.1h19.9
			C427.4,155,431.5,159.1,431.5,164.1z"/>
	</g>
	<g>
		<path class="svg_accent" d="M265.1,275.2v63.1c0,5-4.1,9.1-9.1,9.1c-5,0-9.1-4.1-9.1-9.1v-63.1c0-5,4.1-9.1,9.1-9.1
			C261,266.1,265.1,270.2,265.1,275.2z"/>
	</g>
	<g>
		<path class="svg_accent" d="M364.2,358.3v8.8c0,19.6-15.9,35.5-35.4,35.5h-4.4c-19.5,0-35.4-16-35.4-35.5v-91.9c0-5,4.1-9.1,9.1-9.1
			c5,0,9.1,4.1,9.1,9.1v91.9c0,9.5,7.7,17.2,17.2,17.2h4.4c9.5,0,17.2-7.7,17.2-17.2v-8.8c0-9.5-7.7-17.2-17.2-17.2
			c-5,0-9.1-4.1-9.1-9.1s4.1-9.1,9.1-9.1h0C348.4,322.8,364.2,338.7,364.2,358.3z"/>
	</g>
	<g>
		<path class="svg_accent" d="M222.9,275.2v91.9c0,19.6-15.9,35.5-35.4,35.5h-4.4c-19.5,0-35.4-16-35.4-35.5v-8.8
			c0-19.6,15.9-35.5,35.4-35.5c5,0,9.1,4.1,9.1,9.1s-4.1,9.1-9.1,9.1c-9.5,0-17.1,7.7-17.1,17.2v8.8c0,9.5,7.7,17.2,17.1,17.2h4.4
			c9.5,0,17.2-7.7,17.2-17.2v-91.9c0-5,4.1-9.1,9.1-9.1C218.8,266.1,222.9,270.2,222.9,275.2z"/>
	</g>
</g>
</svg>
