<?xml version="1.0" encoding="utf-8"?>
<!-- Generator: Adobe Illustrator 27.4.1, SVG Export Plug-In . SVG Version: 6.00 Build 0)  -->
<svg version="1.1" id="Capa_1" xmlns="http://www.w3.org/2000/svg" xmlns:xlink="http://www.w3.org/1999/xlink" x="0px" y="0px"
	 viewBox="0 0 512 512" style="enable-background:new 0 0 512 512;" xml:space="preserve">
<style type="text/css">
	.svg_base{fill:#363434;}
	.svg_accent{fill:#00BFB2;}
	.st9{fill:#FFFFFF;filter:url(#Adobe_OpacityMaskFilter);}
</style>
<g>
	<path class="svg_base" d="M340.1,51.1c-22.6,0-44.6,6.4-63.6,18.6c-17.8,11.4-32.3,27.3-42.1,46.1c-5.9-1.1-11.8-1.6-17.8-1.5
		c-29.7,0.7-56.4,16.6-71.2,42.6l-5.7,9.9c-4.1-1.9-8.7-2.3-13.2-1.1c-5.2,1.4-9.4,4.7-12.1,9.3l-10,17.6
		c-5.4,9.5-2.2,21.7,7.2,27.2l142.8,83.4c4.5,2.6,9.8,3.3,15,2c5.2-1.4,9.4-4.7,12.1-9.3l10-17.6c5.1-9,2.5-20.3-5.7-26.2l5.7-10
		c16-28,14.8-63.1-2.9-90c7.9-22.1,28-36.2,51.6-36.2c30.9,0,55.2,24.5,55.2,55.9v276.2c0,7,5.7,12.7,12.7,12.7h39
		c7,0,12.7-5.7,12.7-12.7V171.9C459.5,105.3,405.9,51.1,340.1,51.1z M397.1,114.3c-15.1-15.3-35.4-23.8-57-23.8
		c-29.6,0-56.2,15.8-70.2,41.6c-1.6-1.2-3.2-2.4-4.9-3.5l-0.1-0.1c-1.6-1.1-3-1.9-4.4-2.7l-0.1,0c-0.2-0.1-0.4-0.2-0.7-0.4l-0.1,0
		c-0.2-0.1-0.5-0.3-0.7-0.4c-0.2-0.1-0.3-0.2-0.5-0.3c16.8-29.7,47.8-48,81.6-48l2.1,0c24.6,0.5,47.7,10.7,65,28.5
		c17.4,17.9,27,41.6,27,66.7v263.5h-13.6V171.9C420.6,150,412.2,129.6,397.1,114.3z M263.7,239.2l-102.2-59.7l5.7-9.9
		c10.3-18.1,28.6-29.2,48.9-29.9l0.1,0.1l1.9,0c0.1,0,0.1,0,0.2,0c5.9,0,11.7,0.9,17.4,2.7c0.5,0.3,1,0.5,1.5,0.7l0.2,0.1
		c3.6,1.2,6.6,2.6,9.3,4c0.3,0.1,0.5,0.3,0.7,0.4l0.1,0c0.2,0.1,0.3,0.2,0.4,0.2l0.1,0.1c1.4,0.8,2.7,1.6,3.8,2.4
		c4.8,3.4,9.1,7.4,12.8,12.1l0.1,0.1c0.2,0.2,0.4,0.5,0.6,0.7c14.5,19.1,16.1,45.1,4.1,66.1L263.7,239.2z M266.6,270.3l-4.5,7.8
		L129,200.4l4.5-7.9L266.6,270.3z"/>
	<path class="svg_accent" d="M136.9,250.4c-1.7-3.9-5.5-6.4-9.8-6.2l-4.9,0.2l0.5,1c-1,0.5-1.8,1.1-2.6,1.9l-20.7,20.6
		c-2,1.9-3.1,4.6-3.1,7.3c0,2.8,1.1,5.3,3,7.3c1.9,1.9,4.5,3,7.3,3c0,0,0,0,0,0c2.7,0,5.4-1.1,7.3-3l20.7-20.6
		C137.7,258.8,138.6,254.3,136.9,250.4z"/>
	<path class="svg_accent" d="M175.4,269.8c-3.7,0-7.2,2-9.1,5.2l-14.7,25.2c-1.4,2.4-1.8,5.2-1.1,7.8c0.7,2.7,2.4,4.9,4.8,6.3
		c1.6,0.9,3.4,1.4,5.1,1.4c0.9,0,1.8-0.1,2.7-0.4c2.6-0.7,4.9-2.5,6.3-4.8l14.7-25.2c1.9-3.1,1.9-7.1,0.1-10.3
		C182.5,271.8,179.1,269.8,175.4,269.8z"/>
	<path class="svg_accent" d="M85.5,287.8l-0.1-0.2l-2.1,0.1c-2.7,0.1-5.2,1.2-7.1,3.1l-20.8,20.6c-2,2-3.1,4.5-3.1,7.3c0,2.7,1.1,5.4,3,7.3
		c1.9,1.9,4.5,3,7.3,3c0,0,0,0,0,0c2.7,0,5.4-1.1,7.3-3l20.7-20.6c3.1-3,4-7.4,2.3-11.4C91.8,290.6,88.9,288.4,85.5,287.8z"/>
	<path class="svg_accent" d="M222,298.1c-4.9-0.2-9.3,3-10.5,7.7l-7.6,28.1c-0.7,2.6-0.3,5.5,1,7.8c1.4,2.4,3.6,4.1,6.3,4.8
		c0.9,0.2,1.8,0.4,2.7,0.4c1.8,0,3.5-0.5,5.1-1.4c2.4-1.4,4.1-3.6,4.8-6.2l7.6-28.1c0.9-3,0.3-6.2-1.6-8.8
		C228.1,299.8,225.2,298.2,222,298.1z"/>
	<path class="svg_accent" d="M144.4,323C144.4,323,144.3,323,144.4,323c-3.8,0-7.2,2-9.1,5.2l-14.6,25.1c-1.4,2.3-1.9,5.2-1.2,7.9
		c0.7,2.7,2.4,4.9,4.8,6.3c1.6,0.9,3.3,1.4,5.1,1.4c0.9,0,1.9-0.1,2.8-0.4c2.7-0.7,4.9-2.5,6.2-4.9l14.7-25.2
		c1.9-3.2,1.9-7.1,0.1-10.3C151.5,325,148.1,323,144.4,323z"/>
	<path class="svg_accent" d="M206,357.4c-4.9-0.2-9.3,3-10.5,7.7l-7.6,28.1c-0.8,2.6-0.4,5.5,1,7.9c1.4,2.4,3.7,4.1,6.3,4.8
		c0.9,0.2,1.8,0.4,2.7,0.4c1.8,0,3.6-0.5,5.2-1.4c2.4-1.4,4.1-3.7,4.8-6.3l7.6-28.1c0.9-3,0.3-6.2-1.6-8.8
		C212,359.1,209.2,357.6,206,357.4z"/>
</g>
</svg>
