<?xml version="1.0" encoding="utf-8"?>
<!-- Generator: Adobe Illustrator 27.5.0, SVG Export Plug-In . SVG Version: 6.00 Build 0)  -->
<svg version="1.1" id="Capa_1" xmlns="http://www.w3.org/2000/svg" xmlns:xlink="http://www.w3.org/1999/xlink" x="0px" y="0px"
	 viewBox="0 0 512 512" style="enable-background:new 0 0 512 512;" xml:space="preserve">
<style type="text/css">
	.st0{fill:#00BFB2;}
	.st1{fill:none;}
	.st2{fill:#FFFFFF;}
	.st3{fill-rule:evenodd;clip-rule:evenodd;fill:#00BFB2;}
	.st4{stroke:#30363B;stroke-width:0.1828;}
	.st5{fill-rule:evenodd;clip-rule:evenodd;}
	.st6{fill:url(#SVGID_1_);}
	.st7{fill:#FBFBFB;}
</style>
<g>
	<g>
		<path d="M215.6,251.6V378c0,3.3,1.4,6.6,3.8,8.9c2.4,2.3,5.6,3.7,9,3.7s6.6-1.3,9-3.7c2.4-2.3,3.8-5.6,3.8-8.9V251.6
			c0-6.9-5.7-12.6-12.7-12.6S215.6,244.7,215.6,251.6z"/>
		<path d="M270.8,251.6V378c0,3.3,1.4,6.6,3.8,8.9c2.4,2.3,5.6,3.7,9,3.7c3.3,0,6.6-1.3,9-3.7c2.4-2.3,3.8-5.6,3.8-8.9V251.6
			c0-6.9-5.7-12.6-12.7-12.6C276.5,239,270.8,244.7,270.8,251.6z"/>
		<path d="M160.3,251.6V378c0,3.3,1.4,6.6,3.8,8.9c2.4,2.4,5.6,3.7,9,3.7c3.3,0,6.6-1.3,9-3.7c2.4-2.3,3.8-5.6,3.8-8.9V251.6
			c0-6.9-5.7-12.6-12.7-12.6C166,239,160.3,244.7,160.3,251.6z"/>
		<path d="M106.5,251.6V378c0,3.3,1.4,6.6,3.8,8.9c2.4,2.3,5.6,3.7,9,3.7s6.6-1.3,9-3.7c2.4-2.3,3.8-5.6,3.8-8.9V251.6
			c0-6.9-5.7-12.6-12.7-12.6C112.2,239,106.5,244.7,106.5,251.6z"/>
		<path d="M324.6,251.6V378c0,3.3,1.4,6.6,3.8,8.9c2.4,2.3,5.6,3.7,9,3.7s6.6-1.3,9-3.7c2.4-2.3,3.8-5.6,3.8-8.9V251.6
			c0-6.9-5.7-12.6-12.7-12.6C330.3,239,324.6,244.7,324.6,251.6z"/>
		<path d="M379.8,251.6V378c0,3.3,1.4,6.6,3.8,8.9c2.4,2.3,5.6,3.7,9,3.7s6.6-1.3,9-3.7c2.4-2.3,3.8-5.6,3.8-8.9V251.6
			c0-6.9-5.7-12.6-12.7-12.6S379.8,244.7,379.8,251.6z"/>
		<path d="M438.9,274.4c2.4,2.3,5.6,3.7,9,3.7c3.3,0,6.6-1.3,9-3.7c2.4-2.3,3.7-5.6,3.7-8.9V219c0-8.9-3.7-17.6-10.1-23.9l-6-5.9
			v1.2c-1.4-0.8-2.8-1.6-4.3-2.3c-4.4-1.9-9-2.9-13.9-2.9H85.5c-9,0-17.8,3.6-24.2,9.9c-6.5,6.4-10.1,14.9-10.1,23.9v173.5
			c0,8.9,3.7,17.6,10.1,23.9c4.7,4.7,10.8,7.9,17.4,9.2v15.2c0,8.2,3.2,15.8,9.1,21.6c5.8,5.8,13.6,8.9,21.9,8.9
			c8.2,0,16-3.2,21.9-8.9c5.9-5.8,9.1-13.4,9.1-21.6v-14.5h230.6v14.5c0,8.2,3.2,15.8,9.1,21.6c5.8,5.8,13.6,8.9,21.9,8.9
			c8.2,0,16-3.2,21.9-8.9c5.9-5.8,9.1-13.4,9.1-21.6v-15.1c6.5-1.3,12.6-4.5,17.4-9.2c6.5-6.4,10.1-14.9,10.1-23.9v-85.2
			c0-6.9-5.7-12.5-12.7-12.5s-12.7,5.6-12.7,12.5v85.2c0,4.8-4,8.7-8.9,8.7H85.7c-4.9,0-8.9-3.9-8.9-8.7V219.1c0-4.8,4-8.7,8.9-8.7
			h340.8c4.9,0,8.9,3.9,8.9,8.7v46.5C435.2,268.8,436.5,272.1,438.9,274.4z M104.1,440.7v-14.5h11.2v14.5c0,3-2.5,5.5-5.6,5.5
			S104.1,443.8,104.1,440.7z M396.6,440.7v-14.5h11.2v14.5c0,3-2.5,5.5-5.6,5.5S396.6,443.8,396.6,440.7z"/>
	</g>
	<path class="st0" d="M177.8,120c3.7,3.8,5.9,9,5.9,14.4s-2.1,10.6-5.9,14.4l-0.3,0.3c-1.3,1.6-2.6,3.3-3.8,5
		c-2.7,3.8-3,8.8-0.9,12.9c2.1,4.2,6.3,6.8,11,6.8l0,0c4.1,0,7.9-2,10.2-5.4c0.8-1.1,1.6-2.2,2.5-3.3l0.3-0.4
		c7.5-8.3,11.6-19.1,11.6-30.4s-4.2-22.2-11.7-30.5l-0.1-0.1c-3.8-3.7-5.9-9-5.9-14.4s2.1-10.6,5.9-14.3l0.2-0.2
		c4.5-5.2,8-11.4,10-18.1c0.9-3.2,0.5-6.7-1.1-9.6s-4.3-5.1-7.5-6s-6.6-0.5-9.5,1.2c-2.9,1.6-4.9,4.3-5.8,7.5
		c-1.1,3.4-2.9,6.4-5.3,9c-7.5,8.3-11.7,19.2-11.7,30.5s4.2,22.1,11.7,30.5L177.8,120z"/>
	<path class="st0" d="M314.2,120c3.9,3.8,6.1,9,6.1,14.4s-2.2,10.6-6.1,14.4l-0.3,0.3c-1.3,1.6-2.7,3.2-3.9,5
		c-2.8,3.9-3.1,8.9-0.9,13c2.2,4.2,6.5,6.7,11.3,6.7l0,0c4.1,0,8-2,10.4-5.3c0.8-1.1,1.6-2.2,2.6-3.3l0.4-0.4
		c7.8-8.3,12.1-19.2,12.1-30.5c0-11.4-4.3-22.2-12.2-30.6l-0.1-0.1c-3.9-3.7-6.1-8.9-6.1-14.3c0-5.3,2.2-10.5,6.1-14.3l0.2-0.2
		c4.7-5.2,8.3-11.4,10.5-18.1c1-3.2,0.5-6.7-1.1-9.6c-1.7-2.9-4.4-5-7.7-6c-3.3-0.9-6.7-0.5-9.7,1.1c-2.9,1.6-5.1,4.3-6,7.5
		c-1.2,3.4-3.1,6.4-5.5,9c-7.9,8.3-12.2,19.2-12.2,30.5s4.3,22.2,12.2,30.5L314.2,120z"/>
	<path class="st0" d="M241.5,120c3.7,3.8,5.9,9,5.9,14.4s-2.1,10.6-5.9,14.4l-0.3,0.3c-1.3,1.6-2.6,3.3-3.8,5
		c-2.7,3.8-3,8.8-0.9,12.9c2.1,4.2,6.3,6.8,11,6.8l0,0c4.1,0,7.9-2,10.2-5.4c0.8-1.1,1.6-2.2,2.4-3.3l0.3-0.4
		c7.5-8.3,11.6-19.1,11.6-30.4s-4.2-22.2-11.7-30.5l-0.1-0.1c-3.8-3.7-5.9-9-5.9-14.4s2.1-10.6,5.9-14.3l0.2-0.2
		c4.5-5.2,8-11.4,10.1-18.1c0.9-3.2,0.5-6.7-1.1-9.6s-4.3-5.1-7.5-6s-6.6-0.5-9.5,1.2c-2.9,1.6-4.9,4.3-5.8,7.5
		c-1.1,3.4-2.9,6.4-5.3,9c-7.5,8.3-11.7,19.2-11.7,30.5s4.2,22.1,11.7,30.5L241.5,120z"/>
</g>
</svg>
