<?xml version="1.0" encoding="utf-8"?>
<!-- Generator: Adobe Illustrator 27.5.0, SVG Export Plug-In . SVG Version: 6.00 Build 0)  -->
<svg version="1.1" id="Capa_1" xmlns="http://www.w3.org/2000/svg" xmlns:xlink="http://www.w3.org/1999/xlink" x="0px" y="0px"
	 viewBox="0 0 512 512" style="enable-background:new 0 0 512 512;" xml:space="preserve">
<style type="text/css">
	.st0{fill:#00BFB2;}
	.st1{fill:none;}
	.st2{fill:#FFFFFF;}
	.st3{fill-rule:evenodd;clip-rule:evenodd;fill:#00BFB2;}
	.st4{stroke:#30363B;stroke-width:0.1828;}
	.st5{fill-rule:evenodd;clip-rule:evenodd;}
	.st6{fill:url(#SVGID_1_);}
	.st7{fill:#FBFBFB;}
</style>
<g>
	<g>
		<path d="M370.8,301.8v0.2l-59.9-16v-6.6c25.7-17.5,41.1-46.2,41.2-76.9v-40.2h13.6c7.6,0,13.7-6,13.7-13.4s-6.1-13.4-13.7-13.4
			h-13.6V82c0-22.2-18.4-40.2-41.2-40.2H201.2C178.5,41.8,160,59.7,160,82v120.5c0,30.6,15.4,59.4,41.2,76.9v6.6l-59.9,16
			c-53.6,14.2-90.9,61.8-90.9,116.1v38.7c0,7.4,6.1,13.4,13.7,13.4h41.2c7.6,0,13.7-6,13.7-13.4s-6.1-13.4-13.7-13.4H77.9v-25.3
			c0-42.2,29-79.3,70.7-90.4l55.7-14.8c4.4,12.8,13.5,23.5,25.6,30l-2.9,2.9c-7.8,7.5-12.1,17.8-12.1,28.3v69.2h-54.8
			c-7.6,0-13.7,6-13.7,13.4s6.1,13.4,13.7,13.4h287.8c7.6,0,13.7-6,13.7-13.4v-38.6C461.7,363.8,424.4,316.2,370.8,301.8z M187.5,82
			c0-7.4,6.1-13.4,13.7-13.4h109.7c7.6,0,13.7,6,13.7,13.4v53.5H187.5V82z M187.5,202.5v-40.2h137.1v40.2
			c0,36.9-30.6,66.9-68.5,66.9C218.2,269.5,187.5,239.5,187.5,202.5z M228.8,296.2v-3.8h-0.1h0.1l0,0c17.8,5.1,36.9,5.1,54.8,0v3.8
			c0,14.7-12.3,26.8-27.4,26.8C241.1,323,228.8,311,228.8,296.2z M434.3,443.5H242.4v-69.2c0-7,2.9-8.4,20-25.2
			c21-2.5,38.8-16.5,45.6-36.1l55.7,14.8c41.8,11.1,70.7,48.2,70.7,90.4L434.3,443.5L434.3,443.5z"/>
	</g>
	<path class="st0" d="M228.6,95.4c0,7.4-6.1,13.4-13.7,13.4h-27.4V82h27.4C222.5,82,228.6,88.1,228.6,95.4z"/>
	<path class="st0" d="M324.6,82v26.8h-54.9c-7.6,0-13.7-6-13.7-13.4S262.1,82,269.7,82H324.6z"/>
	<path class="st0" d="M365.7,416.7h-54.8c-7.6,0-13.7-6-13.7-13.4s6.1-13.4,13.7-13.4h54.8c7.6,0,13.7,6,13.7,13.4
		S373.2,416.7,365.7,416.7z"/>
</g>
</svg>
