<?xml version="1.0" encoding="utf-8"?>
<!-- Generator: Adobe Illustrator 27.5.0, SVG Export Plug-In . SVG Version: 6.00 Build 0)  -->
<svg version="1.1" id="Capa_1" xmlns="http://www.w3.org/2000/svg" xmlns:xlink="http://www.w3.org/1999/xlink" x="0px" y="0px"
	 viewBox="0 0 512 512" style="enable-background:new 0 0 512 512;" xml:space="preserve">
<style type="text/css">
	.st0{fill:#00BFB2;}
	.st1{fill:#3C434A;}
	.st2{fill:none;}
	.st3{fill:#FFFFFF;}
	.st4{fill-rule:evenodd;clip-rule:evenodd;fill:#00BFB2;}
	.st5{fill:#3C434A;stroke:#30363B;stroke-width:0.1828;}
	.st6{fill-rule:evenodd;clip-rule:evenodd;fill:#3C434A;}
	.st7{fill-rule:evenodd;clip-rule:evenodd;fill:#FFFFFF;}
	.st8{fill:#FFFFFF;stroke:#30363B;stroke-width:0.1828;}
</style>
<g>
	<path class="st0" d="M69.5,248.3c2.1,4.6,6.9,7.7,12.4,7.7h53.5c7.4,0,13.3-5.6,13.3-12.4c0-6.8-6-12.4-13.3-12.4h-21.3L252,104
		c5.3-4.9,5.3-12.7,0-17.5c-5.3-4.9-13.7-4.9-19,0L95.2,213.9v-19.6c0-6.8-6-12.4-13.3-12.4c-7.4,0-13.3,5.6-13.3,12.4
		C68.4,247.6,68.4,245.2,69.5,248.3"/>
	<g>
		<path class="st1" d="M456.5,453.8H55c-7.4,0-13.3-5.6-13.3-12.4v-61.8c0-13.6,12-24.7,26.8-24.7H122v-49.4
			c0-13.6,12-24.7,26.8-24.7h53.5v-49.4c0-13.6,12-24.7,26.8-24.7h53.5v-49.6c0-13.6,12-24.7,26.8-24.7H363V83
			c0-13.7,12-24.7,26.8-24.7h66.9c7.4,0,13.3,5.6,13.3,12.4v247.2c0,6.8-6,12.4-13.3,12.4c-7.4,0-13.3-5.6-13.3-12.4v-235h-53.5
			v61.8c0,6.8-6,12.4-13.3,12.4h-66.9v61.8c0,6.8-6,12.4-13.3,12.4h-66.9v61.8c0,6.8-6,12.4-13.3,12.4h-66.9v61.8
			c0,6.8-6,12.4-13.3,12.4H69v49.4h374.7v-61.8c0-6.8,6-12.4,13.3-12.4c7.4,0,13.3,5.6,13.3,12.4v74.2
			C469.9,448.2,463.9,453.8,456.5,453.8z"/>
	</g>
</g>
</svg>
