<?xml version="1.0" encoding="utf-8"?>
<!-- Generator: Adobe Illustrator 27.5.0, SVG Export Plug-In . SVG Version: 6.00 Build 0)  -->
<svg version="1.1" id="Capa_1" xmlns="http://www.w3.org/2000/svg" xmlns:xlink="http://www.w3.org/1999/xlink" x="0px" y="0px"
	 viewBox="0 0 512 512" style="enable-background:new 0 0 512 512;" xml:space="preserve">
<style type="text/css">
	.st0{fill:#00BFB2;}
	.st1{fill:#3C434A;}
	.st2{fill:none;}
	.st3{fill:#FFFFFF;}
	.st4{fill-rule:evenodd;clip-rule:evenodd;fill:#00BFB2;}
	.st5{fill:#3C434A;stroke:#30363B;stroke-width:0.1828;}
	.st6{fill-rule:evenodd;clip-rule:evenodd;fill:#3C434A;}
	.st7{fill-rule:evenodd;clip-rule:evenodd;fill:#FFFFFF;}
	.st8{fill:#FFFFFF;stroke:#30363B;stroke-width:0.1828;}
</style>
<g>
	<g>
		<g>
			<path class="st1" d="M429.6,50H82.4c-22.2,0-40.1,17.3-40.1,38.6v51.5c0,7.1,6,12.9,13.3,12.9s13.3-5.8,13.3-12.9V88.6
				c0-7.1,6-12.9,13.3-12.9h347.2c7.4,0,13.3,5.8,13.3,12.9v347.5H416V165.9c0-7.1-6-12.9-13.3-12.9H109.1
				c-7.4,0-13.3,5.8-13.3,12.9v270.3H69.1V191.5c0-7.1-6-12.9-13.3-12.9s-13.3,5.8-13.3,12.9V449c0,7.1,6,12.9,13.3,12.9h400.6
				c7.4,0,13.3-5.8,13.3-12.9V88.6C469.7,67.2,451.7,50,429.6,50z M122.5,178.7h120.2v257.4H122.5V178.7z M269.4,178.7h120.2v257.4
				H269.4V178.7z"/>
		</g>
	</g>
	<path class="st0" d="M175.9,127.2c-7.4,0-13.3-5.8-13.3-12.9s6-12.9,13.3-12.9s13.3,5.8,13.3,12.9
		C189.3,121.5,183.3,127.2,175.9,127.2z"/>
	<path class="st0" d="M229.3,127.2c-7.4,0-13.3-5.8-13.3-12.9s6-12.9,13.3-12.9s13.3,5.8,13.3,12.9
		C242.6,121.5,236.7,127.2,229.3,127.2z"/>
	<path class="st0" d="M282.7,127.2c-7.4,0-13.3-5.8-13.3-12.9s6-12.9,13.3-12.9s13.3,5.8,13.3,12.9C296,121.5,290,127.2,282.7,127.2
		z"/>
	<path class="st0" d="M336.2,127.2c-7.4,0-13.3-5.8-13.3-12.9s6-12.9,13.3-12.9s13.3,5.8,13.3,12.9
		C349.5,121.5,343.5,127.2,336.2,127.2z"/>
</g>
</svg>
