<?xml version="1.0" encoding="utf-8"?>
<!-- Generator: Adobe Illustrator 27.5.0, SVG Export Plug-In . SVG Version: 6.00 Build 0)  -->
<svg version="1.1" id="Capa_1" xmlns="http://www.w3.org/2000/svg" xmlns:xlink="http://www.w3.org/1999/xlink" x="0px" y="0px"
	 viewBox="0 0 512 512" style="enable-background:new 0 0 512 512;" xml:space="preserve">
<style type="text/css">
	.st0{fill:#00BFB2;}
	.st1{fill:#3C434A;}
	.st2{fill:none;}
	.st3{fill:#FFFFFF;}
	.st4{fill-rule:evenodd;clip-rule:evenodd;fill:#00BFB2;}
	.st5{fill:#3C434A;stroke:#30363B;stroke-width:0.1828;}
	.st6{fill-rule:evenodd;clip-rule:evenodd;fill:#3C434A;}
	.st7{fill-rule:evenodd;clip-rule:evenodd;fill:#FFFFFF;}
	.st8{fill:#FFFFFF;stroke:#30363B;stroke-width:0.1828;}
</style>
<g>
	<g>
		<g>
			<path class="st1" d="M479.2,334.6l-101.4-125c-2.1-2.5-5.3-3.7-8.6-3.3l-16.1,2.1c6-14.8,9-28.7,9-42.5
				c0-49.7-41.2-90.1-92.1-90.5h-0.9c-51.2,0-92.9,40.6-92.9,90.5c0,46.7,33.6,87.5,63.3,123.5c2.6,3.1,5.1,6.1,7.5,9.1l-52.3,10.4
				l-32.4-55.3l12.2-1.7c2.6-0.1,5.1-1.2,6.8-3.2c1.8-2,2.6-4.8,2.3-7.5c-0.3-2.7-1.8-5.1-4.1-6.7c-2.2-1.5-4.9-2-7.5-1.4
				L65.1,247.8c-3.1,0.4-5.8,2.3-7.2,5.1c-1.4,2.8-1.4,6.1,0.1,8.9l83.4,148.7c1.7,3.1,4.9,4.9,8.3,4.9c0.6,0,1.2-0.1,1.8-0.2
				l321.7-65.4c3.3-0.6,6.1-2.9,7.3-6.1C481.9,340.7,481.3,337.1,479.2,334.6z M454.5,334.5l-77.9,15.8l-33-51.8l70.3-14.2
				L454.5,334.5z M185.5,330.1c0.7,0.6,1.5,1.1,2.4,1.5l50.7,22.6l12.7,21.7l-96.5,19.5l-29.7-53.2L185.5,330.1z M344.2,258.9
				c0.4-2.7-0.4-5.4-2-7.4l-7.3-9.3c2.7-4,5.6-8.5,8.3-13.1l23.3-3.2l34,41.9l-59.6,12L344.2,258.9z M269.2,320.5
				c3,0,5.9-1.5,7.7-3.9c1.2-1.6,2.5-3.2,3.7-4.8l0.6-0.8l42.3-8.4l33,51.8l-85.4,17.3l-17.6-30c-1-1.7-2.6-3.1-4.4-3.8l-31.7-14.1
				l42.8-8.6c0.4,0.5,0.8,1,1.1,1.3C263.2,319.1,266.1,320.5,269.2,320.5z M300,287.9c7.9-9.6,15.9-19.4,23.5-29.5l1.2,1.5l-4,23.9
				L300,287.9z M283.9,277c-4.9,6-9.9,12.2-14.8,18.4c-4.8-6.1-9.9-12.3-14.8-18.4c-29.1-35.8-59.2-72.8-59.2-111
				c0-39.5,33.2-71.6,73.9-71.6s73.9,32.1,73.9,71.6C343.1,204.2,313,241.2,283.9,277z M174.8,312.9l-59.5,11.9l-33.6-59.9l60.3-8.3
				L174.8,312.9z"/>
		</g>
	</g>
	<path class="st0" d="M269.2,123c-25,0-45.3,20.3-45.3,45.2s20.3,45.2,45.3,45.2s45.3-20.3,45.3-45.2
		C314.4,143.3,294.1,123,269.2,123z M295.4,168.2c0,14.4-11.8,26.2-26.3,26.2c-14.5,0-26.3-11.8-26.3-26.2s11.8-26.2,26.3-26.2
		C283.6,142,295.4,153.8,295.4,168.2z"/>
</g>
</svg>
