<?xml version="1.0" encoding="utf-8"?>
<!-- Generator: Adobe Illustrator 27.4.1, SVG Export Plug-In . SVG Version: 6.00 Build 0)  -->
<svg version="1.1" id="Capa_1" xmlns="http://www.w3.org/2000/svg" xmlns:xlink="http://www.w3.org/1999/xlink" x="0px" y="0px"
	 viewBox="0 0 512 512" style="enable-background:new 0 0 512 512;" xml:space="preserve">
<style type="text/css">
	.svg_base{fill:#363434;}
	.svg_accent{fill:#00BFB2;}
	.st2{fill:none;}
	.st9{fill:#FFFFFF;filter:url(#Adobe_OpacityMaskFilter);}
</style>
<g>
	<g>
		<path class="svg_accent" d="M204,107.5c-7.2,0-13-5.6-13-12.5c0-6.9,5.8-12.5,13-12.5c7.2,0,13,5.6,13,12.5
			C217,101.9,211.2,107.5,204,107.5z"/>
		<path class="svg_accent" d="M256,107.5c-7.2,0-13-5.6-13-12.5c0-6.9,5.8-12.5,13-12.5c7.2,0,13,5.6,13,12.5
			C269,101.9,263.2,107.5,256,107.5z"/>
		<path class="svg_accent" d="M308,107.5c-7.2,0-13-5.6-13-12.5c0-6.9,5.8-12.5,13-12.5s13,5.6,13,12.5C321,101.9,315.1,107.5,308,107.5z"
			/>
	</g>
	<rect x="268.9" y="145.8" class="st2" width="106.8" height="258.4"/>
	<rect x="136.3" y="430" class="st2" width="239.4" height="12"/>
	<rect x="136.3" y="70" class="st2" width="239.4" height="49.9"/>
	<path class="svg_base" d="M397.8,47.9c-2.4-2.4-5.7-3.8-9.1-3.8H123.4c-7.1,0-12.9,5.8-12.9,12.9v119.5c0.8,6.2,6.3,11.1,12.9,11.1
		c6.7,0,12.2-4.9,12.9-11.2c0.1-0.5,0.1-0.9,0.1-1.4v-29.3h106.7v258.4H136.3V226c0-6.8-5.1-12.7-11.9-13.2c-0.3,0-0.6,0-1,0
		c-7.2,0-13,5.6-13,12.5V455c0,3.4,1.3,6.7,3.8,9.1c2.3,2.4,5.5,3.7,8.9,3.8l265.8,0c3.3-0.1,6.5-1.4,8.8-3.8
		c2.4-2.4,3.8-5.7,3.8-9.1V57.1C401.6,53.6,400.2,50.3,397.8,47.9z M375.7,442H136.3v-12h239.4V442z M375.7,404.1H268.9V145.8h106.8
		V404.1z M375.7,119.9H136.3V70h239.4V119.9z"/>
</g>
</svg>
