<?xml version="1.0" encoding="utf-8"?>
<!-- Generator: Adobe Illustrator 27.4.1, SVG Export Plug-In . SVG Version: 6.00 Build 0)  -->
<svg version="1.1" id="Capa_1" xmlns="http://www.w3.org/2000/svg" xmlns:xlink="http://www.w3.org/1999/xlink" x="0px" y="0px"
	 viewBox="0 0 512 512" style="enable-background:new 0 0 512 512;" xml:space="preserve">
<style type="text/css">
	.svg_base{fill:#363434;}
	.svg_accent{fill:#00BFB2;}
	.st2{fill:none;}
</style>
<rect x="230.2" y="178.9" class="st2" width="51.3" height="25.6"/>
<path class="st2" d="M384.3,409.8c-7.1,0-12.8,5.8-12.8,12.8c0,7.1,5.8,12.8,12.8,12.8s12.8-5.7,12.8-12.8
	C397.2,415.5,391.4,409.8,384.3,409.8z"/>
<path class="st2" d="M384.3,409.8c-7.1,0-12.8,5.8-12.8,12.8c0,7.1,5.8,12.8,12.8,12.8s12.8-5.7,12.8-12.8
	C397.2,415.5,391.4,409.8,384.3,409.8z"/>
<rect x="230.2" y="178.9" class="st2" width="51.3" height="25.6"/>
<path class="st2" d="M384.3,409.8c-7.1,0-12.8,5.8-12.8,12.8c0,7.1,5.8,12.8,12.8,12.8s12.8-5.7,12.8-12.8
	C397.2,415.5,391.4,409.8,384.3,409.8z"/>
<rect x="230.2" y="178.9" class="st2" width="51.3" height="25.6"/>
<path class="st2" d="M127.7,435.5c7.1,0,12.8-5.7,12.8-12.8c0-7.1-5.8-12.8-12.8-12.8s-12.8,5.8-12.8,12.8
	C114.8,429.7,120.6,435.5,127.7,435.5z"/>
<path class="st2" d="M256,101.8c-78,0-141.2,63.3-141.2,141.2v89.8h38.4V230.2c0-14.2,11.5-25.7,25.7-25.7h25.7v-25.6
	c0-14.2,11.5-25.7,25.7-25.7h51.3c14.2,0,25.7,11.5,25.7,25.7v25.6h25.6c14.2,0,25.7,11.5,25.7,25.7v102.6h38.6V243
	C397.2,165,334.1,101.8,256,101.8z"/>
<path class="svg_accent" d="M332.9,204.5h-25.6v-25.6c0-14.2-11.5-25.7-25.7-25.7h-51.3c-14.2,0-25.7,11.5-25.7,25.7v25.6h-25.7
	c-14.2,0-25.7,11.5-25.7,25.7v102.6h25.6V230.2h25.7v102.6h25.7V230.2h51.3v102.6h25.6V230.2h25.7v102.6h25.8V230.2
	C358.6,216,347.1,204.5,332.9,204.5z M281.5,204.5h-51.3v-25.6h51.3V204.5z"/>
<path class="svg_base" d="M435.7,332.8h-12.8V243c0-87.1-67.1-159.5-153.9-166.2V63.3c0-7.1-5.8-12.8-12.8-12.8s-12.8,5.8-12.8,12.8v12.8
	c-87.1,6.7-154.3,79.5-154,166.9v89.8H76.3c-7.1,0-12.8,5.7-12.8,12.8V397c0,7.1,5.8,12.8,12.8,12.8h15.1c-7.2,20,3,42.1,23,49.3
	c20,7.3,42.1-3.1,49.3-23.1c3.1-8.5,3.1-17.8,0-26.2h28c7.1,0,12.8-5.7,12.8-12.8c0-7.1-5.8-12.8-12.8-12.8H89.2v-25.7h75.4h182.7
	h75.6v25.7H243.2c-7.1,0-12.8,5.7-12.8,12.8c0,7.1,5.8,12.8,12.8,12.8h105c-7.2,20,3,42.1,23,49.3c20,7.3,42.1-3.1,49.3-23.1
	c3.1-8.5,3.1-17.8,0-26.2h15.1c7.1,0,12.8-5.7,12.8-12.8v-51.3C448.5,338.6,442.7,332.8,435.7,332.8z M127.7,409.8
	c7.1,0,12.8,5.8,12.8,12.8c0,7.1-5.8,12.8-12.8,12.8s-12.8-5.7-12.8-12.8C114.8,415.5,120.6,409.8,127.7,409.8z M397.2,332.8h-38.6
	h-25.8v0.1h-25.7v-0.1h-25.6v0.1h-51.3v-0.1h-25.7v0.1h-25.7v-0.1h-25.6h-38.4V243c0-77.9,63.2-141.2,141.2-141.2
	S397.2,165,397.2,243V332.8z M384.3,435.5c-7.1,0-12.8-5.7-12.8-12.8c0-7.1,5.8-12.8,12.8-12.8s12.8,5.8,12.8,12.8
	C397.2,429.7,391.4,435.5,384.3,435.5z"/>
</svg>
