<?xml version="1.0" encoding="utf-8"?>
<!-- Generator: Adobe Illustrator 27.4.1, SVG Export Plug-In . SVG Version: 6.00 Build 0)  -->
<svg version="1.1" id="Capa_1" xmlns="http://www.w3.org/2000/svg" xmlns:xlink="http://www.w3.org/1999/xlink" x="0px" y="0px"
	 viewBox="0 0 512 512" style="enable-background:new 0 0 512 512;" xml:space="preserve">
<style type="text/css">
	.svg_base{fill:#363434;}
	.svg_accent{fill:#00BFB2;}
	.st9{fill:#FFFFFF;filter:url(#Adobe_OpacityMaskFilter);}
</style>
<g>
	<path class="svg_accent" d="M256.8,212c-21.4,0-38.7,17.3-38.7,38.7s17.3,38.7,38.7,38.7s38.7-17.3,38.7-38.7S278.1,212,256.8,212z
		 M181.7,250.6c0-41.5,33.6-75.1,75.1-75.1s75.1,33.6,75.1,75.1s-33.6,75.1-75.1,75.1S181.7,292.1,181.7,250.6z"/>
	<g>
		<path class="svg_base" d="M257.5,468.9c-12.9,0-25.6-5.2-34.8-14.4c-9.2-9.2-14.4-21.8-14.4-34.8v-1.5c-0.1-3.4-1.2-6.7-3.2-9.5
			c-2-2.8-4.8-5-8.1-6.2c-0.3-0.1-0.5-0.2-0.8-0.3c-3.2-1.4-6.6-1.8-10-1.2c-3.4,0.6-6.5,2.2-9,4.6l-1,1c-4.5,4.6-9.9,8.1-15.9,10.7
			c-6,2.5-12.3,3.7-18.8,3.7s-12.9-1.3-18.8-3.7c-6-2.5-11.4-6.1-15.9-10.7c-4.6-4.6-8.2-9.9-10.7-15.9c-2.5-6-3.7-12.3-3.7-18.8
			c0-6.5,1.3-12.9,3.7-18.8c2.5-6,6.1-11.4,10.7-15.9l1-1c2.4-2.5,4-5.6,4.6-9c0.6-3.4,0.2-6.9-1.2-10.1c0,0,0-0.1,0-0.1
			c-1.3-3.1-3.5-5.7-6.3-7.6c-2.8-1.8-6.1-2.8-9.5-2.9h-3.1c-12.9,0-25.6-5.2-34.8-14.4c-9.2-9.2-14.4-21.8-14.4-34.8
			c0-13.1,5.1-25.5,14.4-34.8c9.2-9.2,21.8-14.4,34.8-14.4h1.5c3.4-0.1,6.7-1.2,9.5-3.2c2.8-2,4.9-4.8,6.1-8.1
			c0.1-0.3,0.2-0.5,0.3-0.7c1.4-3.2,1.8-6.7,1.2-10.1c-0.6-3.4-2.2-6.5-4.6-8.9l-1-1c-4.6-4.6-8.2-9.9-10.7-15.9
			c-2.5-6-3.7-12.3-3.7-18.8c0-6.5,1.3-12.9,3.7-18.8c2.5-6,6.1-11.4,10.7-15.9c4.6-4.6,10-8.2,16-10.7c6-2.5,12.3-3.8,18.8-3.8
			s12.8,1.3,18.8,3.8c6,2.5,11.4,6.1,16,10.7l1,1c2.5,2.4,5.6,4,9,4.6c3.4,0.6,6.9,0.2,10-1.2c1.1-0.5,2.2-0.8,3.4-1
			c2.3-1.3,4.3-3.2,5.8-5.4c1.9-2.8,2.9-6.1,2.9-9.5v-3.1c0-13.1,5.1-25.5,14.4-34.8c9.2-9.2,21.8-14.4,34.8-14.4
			c13.1,0,25.5,5.1,34.8,14.4c9.3,9.3,14.4,21.6,14.4,34.8v1.6c0,3.3,1,6.6,2.9,9.4c1.9,2.8,4.5,5,7.6,6.4c0,0,0.1,0,0.1,0
			c3.2,1.4,6.7,1.8,10.1,1.2c3.4-0.6,6.5-2.2,8.9-4.6l1-1c4.6-4.6,10-8.2,16-10.7c6-2.5,12.3-3.8,18.8-3.8c6.5,0,12.8,1.3,18.8,3.8
			c6,2.5,11.4,6.1,16,10.7c4.6,4.6,8.2,10,10.6,15.9c2.5,6,3.7,12.3,3.7,18.8c0,6.5-1.3,12.8-3.8,18.8c-2.4,5.9-6,11.3-10.7,15.9
			l-1,1c-2.4,2.5-4,5.6-4.6,9c-0.6,3.4-0.2,6.9,1.2,10.1c0.5,1.1,0.8,2.2,1,3.4c1.3,2.3,3.2,4.3,5.4,5.8c2.8,1.9,6.1,2.9,9.5,2.9
			h3.1c13.1,0,25.5,5.1,34.8,14.4c9.3,9.3,14.4,21.6,14.4,34.8c0,13.1-5.1,25.5-14.4,34.8c-9.3,9.3-21.6,14.4-34.7,14.4h-1.6
			c-3.3,0-6.6,1-9.4,2.9c-2.8,1.9-5,4.5-6.3,7.6c0,0,0,0.1,0,0.1c-1.4,3.2-1.8,6.7-1.2,10.1c0.6,3.4,2.2,6.5,4.6,9l1,1
			c4.6,4.6,8.2,10,10.7,16c2.5,6,3.7,12.3,3.7,18.8c0,6.5-1.3,12.8-3.8,18.8c-2.4,5.9-6,11.3-10.7,15.9c-4.5,4.6-9.9,8.1-15.9,10.7
			c-6,2.5-12.3,3.7-18.8,3.7s-12.9-1.3-18.8-3.7c-6-2.5-11.4-6.1-15.9-10.7l-1-1c-2.4-2.4-5.5-4-8.9-4.6c-3.4-0.6-6.9-0.2-10.1,1.2
			c0,0-0.1,0-0.1,0c-3.1,1.3-5.7,3.5-7.6,6.3c-1.9,2.8-2.9,6.1-2.9,9.5v3c0,13.1-5.1,25.5-14.4,34.8
			C282.9,463.8,270.6,468.9,257.5,468.9z M206.2,378.8c7.9,3,14.7,8.2,19.7,15.1c5,7,7.8,15.3,8,23.9c0,0.1,0,0.2,0,0.3v1.6
			c0,6.2,2.5,12.3,6.9,16.7c4.4,4.4,10.5,6.9,16.7,6.9c6.3,0,12.2-2.5,16.7-6.9c4.5-4.5,6.9-10.4,6.9-16.7v-3.1
			c0.1-8.4,2.5-16.5,7.1-23.5c4.6-6.9,11.1-12.4,18.7-15.7c7.8-3.4,16.4-4.5,24.8-2.9c8.5,1.5,16.2,5.5,22.3,11.5
			c0,0,0.1,0.1,0.1,0.1l1.1,1.1c2.2,2.2,4.8,3.9,7.7,5.1c2.8,1.2,5.9,1.8,9,1.8s6.2-0.6,9-1.8c2.9-1.2,5.5-2.9,7.7-5.1
			c2.3-2.3,4-4.8,5.1-7.7c1.2-2.9,1.8-6,1.8-9.1s-0.6-6.2-1.8-9c-1.2-2.9-2.9-5.5-5.1-7.7l-1.1-1.1c0,0-0.1-0.1-0.1-0.1
			c-6-6.1-10-13.8-11.5-22.2c-1.5-8.4-0.5-17,2.9-24.9c3.3-7.7,8.7-14.2,15.7-18.8c7-4.6,15.1-7.1,23.5-7.1h1.7
			c6.3,0,12.2-2.5,16.7-6.9c4.5-4.5,6.9-10.4,6.9-16.7s-2.5-12.3-6.9-16.7c-4.5-4.5-10.4-6.9-16.7-6.9h-3.1
			c-8.4,0-16.5-2.5-23.5-7.1c-7-4.6-12.4-11.1-15.7-18.8c-0.5-1.2-0.9-2.6-1-3.9c-2.6-7.2-3.3-14.8-1.9-22.3
			c1.5-8.4,5.5-16.1,11.5-22.3c0,0,0.1-0.1,0.1-0.1l1.1-1.1c2.2-2.2,4-4.8,5.1-7.6c1.2-2.9,1.8-6,1.8-9.1c0-3.1-0.6-6.2-1.8-9
			c-1.2-2.9-2.9-5.5-5.1-7.7c-2.2-2.2-4.8-3.9-7.6-5.1c-5.9-2.4-12.4-2.4-18.1,0c-2.9,1.2-5.5,2.9-7.7,5.1l-1.1,1.1
			c0,0-0.1,0.1-0.1,0.1c-6.1,6-13.8,10-22.3,11.5c-8.4,1.5-17,0.5-24.9-2.9c-7.7-3.3-14.2-8.7-18.8-15.7c-4.6-6.9-7.1-15-7.1-23.4
			v-1.7c0-6.3-2.5-12.3-6.9-16.7c-4.5-4.5-10.4-6.9-16.7-6.9c-6.2,0-12.3,2.5-16.7,6.9c-4.5,4.5-6.9,10.4-6.9,16.7v3.1
			c0,8.4-2.5,16.5-7.1,23.5c-4.6,7-11.1,12.4-18.8,15.7c-1.2,0.5-2.6,0.9-3.9,1c-7.1,2.6-14.8,3.3-22.3,1.9
			c-8.4-1.5-16.1-5.5-22.3-11.5c0,0-0.1-0.1-0.1-0.1l-1.1-1.1c-2.2-2.2-4.8-3.9-7.6-5.1c-5.9-2.4-12.4-2.4-18.1,0
			c-2.9,1.2-5.5,2.9-7.7,5.1c-2.2,2.2-3.9,4.8-5.1,7.7c-1.2,2.9-1.8,5.9-1.8,9c0,3.1,0.6,6.2,1.8,9c1.2,2.9,2.9,5.5,5.1,7.7l1.1,1.1
			c0,0,0.1,0.1,0.1,0.1c6,6.1,10,13.8,11.5,22.3c1.5,8.3,0.5,16.8-2.8,24.5c-3,7.9-8.2,14.7-15.1,19.7c-7,5-15.3,7.8-23.9,8
			c-0.1,0-0.2,0-0.3,0h-1.6c-6.2,0-12.3,2.5-16.7,6.9c-4.5,4.5-6.9,10.4-6.9,16.7c0,6.2,2.5,12.3,6.9,16.7
			c4.4,4.4,10.5,6.9,16.7,6.9h3.1c8.4,0,16.5,2.5,23.5,7.1c7,4.6,12.4,11.1,15.7,18.8c3.4,7.8,4.5,16.4,2.9,24.8
			c-1.5,8.5-5.5,16.2-11.5,22.3c0,0-0.1,0.1-0.1,0.1l-1.1,1.1c-2.2,2.2-3.9,4.8-5.1,7.7c-1.2,2.9-1.8,5.9-1.8,9c0,3.1,0.6,6.2,1.8,9
			c1.2,2.9,2.9,5.5,5.1,7.7c2.2,2.2,4.8,3.9,7.7,5.1c2.8,1.2,5.9,1.8,9,1.8s6.2-0.6,9-1.8c2.9-1.2,5.5-2.9,7.7-5.1l1.1-1.1
			c0,0,0.1-0.1,0.1-0.1c6.1-6,13.8-10,22.3-11.5C190,374.5,198.4,375.5,206.2,378.8z M390.7,310.6L390.7,310.6L390.7,310.6z"/>
	</g>
</g>
</svg>
