<?xml version="1.0" encoding="utf-8"?>
<!-- Generator: Adobe Illustrator 27.4.1, SVG Export Plug-In . SVG Version: 6.00 Build 0)  -->
<svg version="1.1" id="Capa_1" xmlns="http://www.w3.org/2000/svg" xmlns:xlink="http://www.w3.org/1999/xlink" x="0px" y="0px"
	 viewBox="0 0 512 512" style="enable-background:new 0 0 512 512;" xml:space="preserve">
<style type="text/css">
	.svg_base{fill:#363434;}
	.svg_accent{fill:#00BFB2;}
	.st9{fill:#FFFFFF;filter:url(#Adobe_OpacityMaskFilter);}
</style>
<g>
	<path class="svg_accent" d="M228.5,95.4c0,7.4-6.1,13.4-13.7,13.4h-27.4V82h27.4C222.4,82,228.5,88,228.5,95.4z"/>
	<path class="svg_accent" d="M324.5,82v26.8h-54.9c-7.6,0-13.7-6-13.7-13.4c0-7.4,6.1-13.4,13.7-13.4H324.5z"/>
	<path class="svg_base" d="M370.7,301.8v0.2l-59.9-16v-6.6c25.7-17.5,41.1-46.2,41.2-76.9v-40.2h13.6c7.6,0,13.7-6,13.7-13.4
		c0-7.4-6.1-13.4-13.7-13.4H352V82c0-22.2-18.4-40.2-41.2-40.2H201.1c-22.7,0-41.2,18-41.2,40.2v120.5c0,30.6,15.4,59.4,41.2,76.9
		v6.6l-59.9,16c-53.6,14.2-90.9,61.8-90.9,116.1v38.7c0,7.4,6.1,13.4,13.7,13.4h41.2c7.6,0,13.7-6,13.7-13.4
		c0-7.4-6.1-13.4-13.7-13.4H77.9v-25.3c0-42.2,29-79.3,70.7-90.4l55.7-14.8c4.4,12.8,13.5,23.5,25.6,30l-2.9,2.9
		c-7.8,7.5-12.1,17.8-12.1,28.3v69.2h-54.8c-7.6,0-13.7,6-13.7,13.4s6.1,13.4,13.7,13.4h287.8c7.6,0,13.7-6,13.7-13.4V418
		C461.6,363.7,424.3,316.1,370.7,301.8z M187.5,82c0-7.4,6.1-13.4,13.7-13.4h109.7c7.6,0,13.7,6,13.7,13.4v53.5H187.5V82z
		 M187.5,202.4v-40.2h137.1v40.2c0,37-30.6,66.9-68.5,66.9C218.1,269.4,187.5,239.4,187.5,202.4z M228.7,296.2v-3.8c0,0-0.1,0-0.1,0
		h0.1v0c17.8,5.1,36.9,5.1,54.8,0v3.8c0,14.7-12.3,26.8-27.4,26.8C241,322.9,228.7,310.9,228.7,296.2z M434.2,443.4H242.3v-69.2
		c0-7,2.9-8.4,20-25.2c21-2.5,38.8-16.5,45.6-36.1l55.7,14.8c41.8,11.1,70.7,48.2,70.7,90.4V443.4z"/>
	<path class="svg_accent" d="M365.6,416.6h-54.8c-7.6,0-13.7-6-13.7-13.4c0-7.4,6.1-13.4,13.7-13.4h54.8c7.6,0,13.7,6,13.7,13.4
		C379.3,410.6,373.2,416.6,365.6,416.6z"/>
</g>
</svg>
