<svg width="52" height="44" viewBox="0 0 52 44" fill="none" xmlns="http://www.w3.org/2000/svg">
<path fill-rule="evenodd" clip-rule="evenodd" d="M38.4126 7.20312C34.5447 7.20312 31.4768 10.3974 31.4768 14.2543C31.4768 18.1113 34.5447 21.3055 38.4126 21.3055C42.2805 21.3055 45.3484 18.1113 45.3484 14.2543C45.3484 10.3974 42.2805 7.20312 38.4126 7.20312ZM33.144 14.2543C33.144 11.2198 35.5402 8.82749 38.4126 8.82749C41.285 8.82749 43.6812 11.2198 43.6812 14.2543C43.6812 17.2888 41.285 19.6812 38.4126 19.6812C35.5402 19.6812 33.144 17.2888 33.144 14.2543Z" fill="#00BFB2"/>
<path d="M32.3106 25.9202C30.4578 25.9202 29.9338 25.6882 28.6365 27.0145C27.3405 28.3395 28.5996 25.6868 28.5996 27.5446L28.5992 27.0145C28.5992 27.4631 28.1392 27.5446 28.5996 27.5446C29.0599 27.5446 29.7209 28.448 29.7209 27.9995C29.7209 27.9995 29.9421 29.2393 29.9421 27.7877C29.9421 26.3361 28.7281 29.0145 29.7209 27.9995C30.7124 26.9857 30.9266 27.5446 32.3106 27.5446H44.515C45.899 27.5446 47.235 28.1063 48.2264 29.1201C49.2192 30.1351 49.7836 31.5199 49.7836 32.9714V36.0909C49.7836 36.5395 50.1568 36.9031 50.6172 36.9031C51.0776 36.9031 51.4508 36.5395 51.4508 36.0909V32.9714C51.4508 31.1136 50.7293 29.3245 49.4334 27.9995C48.1361 26.6731 46.3678 25.9202 44.515 25.9202H32.3106Z" fill="#00BFB2"/>
<path fill-rule="evenodd" clip-rule="evenodd" d="M17.2481 0C12.1751 0 8.15148 4.25902 8.15148 9.40162C8.15148 14.5442 12.1751 18.8032 17.2481 18.8032C22.3211 18.8032 26.3448 14.5442 26.3448 9.40162C26.3448 4.25902 22.3211 0 17.2481 0ZM10.3381 9.40162C10.3381 5.35563 13.4809 2.16582 17.2481 2.16582C21.0154 2.16582 24.1582 5.35563 24.1582 9.40162C24.1582 13.4476 21.0154 16.6374 17.2481 16.6374C13.4809 16.6374 10.3381 13.4476 10.3381 9.40162Z" fill="#30363B"/>
<path d="M9.24508 24.9561C6.81504 24.9561 4.49583 25.96 2.79439 27.7285C1.09466 29.4952 0.148438 31.8807 0.148438 34.3577V38.5171C0.148438 39.1152 0.637921 39.6 1.24173 39.6C1.84554 39.6 2.33502 39.1152 2.33502 38.5171V34.3577C2.33502 32.4223 3.07522 30.576 4.37733 29.2226C5.67773 27.871 7.42989 27.1219 9.24508 27.1219H25.2518C27.067 27.1219 28.8191 27.871 30.1195 29.2226C31.4217 30.576 32.1619 32.4223 32.1619 34.3577V38.5171C32.1619 39.1152 32.6513 39.6 33.2551 39.6C33.859 39.6 34.3484 39.1152 34.3484 38.5171V34.3577C34.3484 31.8807 33.4022 29.4952 31.7025 27.7285C30.001 25.96 27.6818 24.9561 25.2518 24.9561H9.24508Z" fill="#30363B"/>
</svg>
