<?xml version="1.0" encoding="utf-8"?>
<!-- Generator: Adobe Illustrator 27.4.1, SVG Export Plug-In . SVG Version: 6.00 Build 0)  -->
<svg version="1.1" id="Capa_1" xmlns="http://www.w3.org/2000/svg" xmlns:xlink="http://www.w3.org/1999/xlink" x="0px" y="0px"
	 viewBox="0 0 512 512" style="enable-background:new 0 0 512 512;" xml:space="preserve">
<style type="text/css">
	.svg_base{fill:#363434;}
	.svg_accent{fill:#00BFB2;}
	.st9{fill:#FFFFFF;filter:url(#Adobe_OpacityMaskFilter);}
</style>
<g>
	<path class="svg_base" d="M43.8,399.5c1.2,5.5,6.6,8.9,12.1,7.7c32.8-7.2,66.2-9.7,99.2-7.6c33.1,2.1,65.9,8.8,97.5,20.1
		c2.1,0.8,4.5,0.8,6.8,0c31.6-11.3,64.4-18,97.5-20.1c33-2.1,66.3,0.4,99,7.6c0.8,0.2,1.6,0.3,2.4,0.3c5.6,0,10.1-4.5,10.1-10.1
		V109.8c-0.2-4.4-3.4-8.3-7.9-9.3c-34.5-7.6-69.8-10.2-104.8-8c-33.8,2.1-67.3,8.8-99.6,20c-32.3-11.2-65.8-17.9-99.6-20
		c-34.9-2.2-70.1,0.4-104.6,8c-4.7,0.9-8.2,5-8.2,10V136l0,0l0,261.3C43.6,398.1,43.7,398.8,43.8,399.5z M356.9,112.6
		c30.4-1.9,61.1,0.1,91.3,6V385c-30.6-5.7-61.6-7.5-92.5-5.5c-30.3,1.9-60.3,7.5-89.5,16.7V130.4l0,0
		C295.6,120.5,326.2,114.6,356.9,112.6z M63.9,118.6c30.2-5.9,60.9-7.9,91.3-6c30.7,1.9,61.2,7.9,90.7,17.8v265.7l0,0
		c-29.1-9.2-59.2-14.7-89.5-16.7c-30.9-2-61.9-0.1-92.5,5.5V118.6z"/>
	<path class="svg_accent" d="M291.3,177.2L291.3,177.2c21-5.7,42.4-9.6,63.6-11c21.1-1.3,42.3-0.1,63.1,4.5c5.5,1.2,10.9-2.3,12.1-7.7
		c1.2-5.5-2.3-10.9-7.7-12.1c-22.7-5-45.7-6.3-68.8-4.9c-22.9,1.4-45.5,5.6-67.7,11.6c-5.4,1.5-8.6,7-7.1,12.4
		C280.4,175.5,285.9,178.6,291.3,177.2z"/>
	<path class="svg_accent" d="M291.3,234.9L291.3,234.9c21-5.7,42.4-9.6,63.6-11c21.1-1.3,42.3-0.1,63.1,4.5c5.5,1.2,10.9-2.3,12.1-7.7
		c1.2-5.5-2.3-10.9-7.7-12.1c-22.7-5-45.7-6.3-68.8-4.9c-22.9,1.4-45.5,5.6-67.7,11.6c-5.4,1.5-8.6,7-7.1,12.4
		C280.4,233.2,285.9,236.4,291.3,234.9z"/>
	<path class="svg_accent" d="M291.3,292.7L291.3,292.7c21-5.7,42.4-9.6,63.6-11c21.1-1.3,42.3-0.1,63.1,4.5c5.5,1.2,10.9-2.3,12.1-7.7
		c1.2-5.5-2.3-10.9-7.7-12.1c-22.7-5-45.7-6.3-68.8-4.9c-22.9,1.4-45.5,5.6-67.7,11.6c-5.4,1.5-8.6,7-7.1,12.4
		C280.4,291,285.9,294.2,291.3,292.7z"/>
	<path class="svg_accent" d="M291.3,350.5L291.3,350.5c21-5.7,42.4-9.6,63.6-11c21.1-1.3,42.3-0.1,63.1,4.5c5.5,1.2,10.9-2.3,12.1-7.7
		c1.2-5.5-2.3-10.9-7.7-12.1c-22.7-5-45.7-6.3-68.8-4.9c-22.8,1.4-45.5,5.6-67.7,11.6c-5.4,1.5-8.6,7-7.1,12.4
		C280.4,348.7,285.9,351.9,291.3,350.5z"/>
	<path class="svg_accent" d="M93.3,170.7L93.3,170.7c20.8-4.6,42-5.8,63.1-4.5c21.3,1.3,42.7,5.3,63.6,11c5.4,1.5,11-1.7,12.4-7.1
		c1.5-5.4-1.7-11-7.1-12.4c-22.1-6-44.8-10.2-67.7-11.6c-23-1.4-46.1-0.1-68.8,4.9c-5.5,1.2-8.9,6.6-7.7,12.1
		C82.4,168.4,87.8,171.9,93.3,170.7z"/>
	<path class="svg_accent" d="M93.3,228.4L93.3,228.4c20.8-4.6,42-5.8,63.1-4.5c21.3,1.3,42.7,5.3,63.6,11c5.4,1.5,11-1.7,12.4-7.1
		c1.5-5.4-1.7-11-7.1-12.4c-22.1-6-44.8-10.2-67.7-11.6c-23-1.4-46.1-0.1-68.8,4.9c-5.5,1.2-8.9,6.6-7.7,12.1
		C82.4,226.2,87.8,229.6,93.3,228.4z"/>
	<path class="svg_accent" d="M93.3,286.2L93.3,286.2c20.8-4.6,42-5.8,63.1-4.5c21.3,1.3,42.7,5.3,63.6,11c5.4,1.5,11-1.7,12.4-7.1
		c1.5-5.4-1.7-11-7.1-12.4c-22.1-6-44.8-10.2-67.7-11.6c-23-1.4-46.1-0.1-68.8,4.9c-5.5,1.2-8.9,6.6-7.7,12.1
		C82.4,283.9,87.8,287.4,93.3,286.2z"/>
	<path class="svg_accent" d="M93.3,344L93.3,344c20.8-4.6,42-5.8,63.1-4.5c21.3,1.3,42.7,5.3,63.6,11c5.4,1.5,11-1.7,12.4-7.1
		c1.5-5.4-1.7-11-7.1-12.4c-22.1-6-44.8-10.2-67.7-11.6c-23-1.4-46.1-0.1-68.8,4.9c-5.5,1.2-8.9,6.6-7.7,12.1
		C82.4,341.7,87.8,345.2,93.3,344z"/>
</g>
</svg>
