<?xml version="1.0" standalone="no"?>
<!DOCTYPE svg PUBLIC "-//W3C//DTD SVG 1.1//EN" "http://www.w3.org/Graphics/SVG/1.1/DTD/svg11.dtd" >
<svg xmlns="http://www.w3.org/2000/svg">
<metadata>Generated by IcoMoon</metadata>
<defs>
<font id="cotown" horiz-adv-x="1024">
<font-face units-per-em="1024" ascent="960" descent="-64" />
<missing-glyph horiz-adv-x="1024" />
<glyph unicode="&#x20;" horiz-adv-x="512" d="" />
<glyph unicode="&#xe900;" glyph-name="log-in" d="M873.174 960c40.002 0 78.369-15.883 106.656-44.17s44.17-66.654 44.17-106.656v-722.348c0-40.002-15.883-78.369-44.17-106.656s-66.654-44.17-106.656-44.17h-206.395c-26.304 0-47.628 21.324-47.628 47.628s21.324 47.628 47.628 47.628h206.395c14.745 0 28.881 5.852 39.299 16.27s16.27 24.554 16.27 39.299v722.348c0 14.745-5.852 28.881-16.27 39.299s-24.554 16.27-39.299 16.27h-206.395c-26.304 0-47.628 21.324-47.628 47.628s21.324 47.628 47.628 47.628h206.395zM375.124 739.655c18.6 18.6 48.757 18.6 67.357 0l257.976-257.976c18.6-18.6 18.6-48.757 0-67.357l-257.976-257.976c-18.6-18.6-48.757-18.6-67.357 0s-18.6 48.757 0 67.357l224.321 224.298-224.321 224.298c-17.36 17.36-18.517 44.787-3.472 63.49l3.472 3.867zM666.779 495.628c26.304 0 47.628-21.324 47.628-47.628s-21.324-47.628-47.628-47.628h-619.15c-26.304 0-47.628 21.324-47.628 47.628s21.324 47.628 47.628 47.628h619.15z" />
<glyph unicode="&#xe901;" glyph-name="ArrowLeft" d="M495.781 789.388c-2.808-0.661-7.597-2.477-10.603-4.063-3.039-1.586-70.491-69.632-149.9-151.255-79.377-81.623-146.961-149.999-150.132-151.948-8.754-5.417-15.327-20.084-15.327-34.122 0-13.642 6.706-28.936 14.732-33.66 2.808-1.685 64.875-64.479 137.877-139.561 73.034-75.082 138.141-142.039 144.714-148.744 14.039-14.369 23.519-19.786 34.519-19.72 9.381 0.033 14.039 1.751 23.552 8.721 20.018 14.633 25.798 35.972 14.369 52.885-2.51 3.7-55.23 58.83-117.165 122.517l-112.607 115.745 249.129 0.859c200.869 0.694 250.153 1.288 254.282 3.105 13.675 5.979 19.555 17.21 19.588 37.492 0.066 20.579-4.261 29.531-17.87 36.798l-6.838 3.667-497.763 1.718 112.871 116.042c62.068 63.851 114.919 119.511 117.43 123.706 2.869 4.334 4.577 9.655 4.577 15.375 0 0.599-0.019 1.194-0.056 1.784l0.004-0.081c-0.066 11.396-3.402 18.234-14.138 28.903-11.594 11.561-24.014 16.417-35.245 13.841z" />
<glyph unicode="&#xe902;" glyph-name="Arrow-Left" horiz-adv-x="1000" d="M487.302 941.007c-2.731-1.317-6.973-4.145-9.411-6.266-2.438-2.146-101.961-104.741-221.208-227.986-119.223-123.246-219.941-226.548-223.817-229.595-8.387-6.558-16.213-20.114-16.213-28.087 0-7.924 7.241-22.333 13.239-26.356 2.731-1.853 104.082-105.691 225.231-230.766 121.125-125.074 222.501-229.083 225.231-231.107 12.117-8.997 23.503-8.387 35.572 1.95 13.141 11.264 16.116 26.795 7.387 38.571-2.633 3.584-94.232 98.718-203.532 211.432l-198.729 204.922 418.036 0.829c414.306 0.829 418.109 0.853 423.692 4.169 8.192 4.827 11.849 12.776 11.849 25.795 0 12.386-3.291 20.407-10.533 25.722l-4.706 3.462-838.339 1.658 201.045 207.409c110.568 114.078 202.24 209.969 203.727 213.090 1.641 3.235 2.602 7.054 2.602 11.097 0 5.547-1.809 10.671-4.869 14.815l0.048-0.068c-9.752 13.873-25.429 20.48-36.303 15.311z" />
<glyph unicode="&#xe903;" glyph-name="ArrowLeftHover" horiz-adv-x="1000" d="M475.038 955.416c-3.901-2.511-106.423-107.057-227.84-232.326-121.393-125.245-224.475-230.424-229.083-233.74-12.288-8.826-18.115-21.845-18.115-40.594 0-12.069 0.683-15.311 5.071-24.527 3.682-7.753 6.997-11.947 12.239-15.555 3.925-2.706 106.935-107.861 228.913-233.691 124.002-127.927 224.987-230.79 229.108-233.35 6.461-4.047 8.972-4.584 21.187-4.584 12.483 0 14.58 0.488 21.48 4.925 25.746 16.555 35.767 41.082 25.381 62.171-2.901 5.876-52.76 58.319-190.757 200.631-102.766 105.96-187.099 193.292-187.416 194.048-0.293 0.78 176.786 1.39 393.533 1.39 278.577 0 396.556 0.536 402.554 1.829 11.713 2.708 21.267 10.296 26.568 20.455l0.105 0.22c3.682 7.387 4.145 10.386 4.12 26.648-0.049 20.821-2.511 27.794-13.166 37.157-12.605 11.069 17.603 10.313-418.597 10.313-217.454 0-395.386 0.414-395.386 0.902s84.163 87.698 187.002 193.804c138.142 142.482 188.050 194.999 191 200.923 8.704 17.506 5.803 32.963-9.216 49.176-13.922 15.043-20.724 18.359-37.62 18.359-12.386 0-14.75-0.512-21.065-4.584z" />
<glyph unicode="&#xe904;" glyph-name="ArrowRight" d="M490.991 789.091c-17.771-3.997-36.864-25.963-36.996-42.513-0.066-13.774 3.898-18.333 121.922-139.859l113.532-116.901-248.733-0.859c-271.922-0.925-255.042-0.264-264.423-10.471-13.081-14.204-13.081-46.939 0-60.911 9.678-10.372-9.877-9.612 263.796-10.537l249.823-0.859-113.697-116.901c-118.024-121.394-122.252-126.183-122.252-139.958 0-14.997 17.97-36.831 34.287-41.687 10.669-3.171 18.696-1.817 28.606 4.823 4.36 2.907 67.947 67.122 141.378 142.699 73.398 75.545 140.75 144.285 149.669 152.741 23.090 21.834 27.681 35.047 19.555 56.254-2.907 7.597-6.045 11.726-14.765 19.357-6.111 5.351-74.058 74.455-150.99 153.567-82.878 85.223-142.732 145.441-146.927 147.819-8.654 4.955-15.294 6.111-23.783 4.195z" />
<glyph unicode="&#xe905;" glyph-name="Arrow-Right" horiz-adv-x="1000" d="M487.131 940.958c-6.363-2.779-16.335-12.532-19.968-19.578-3.56-6.9-2.292-18.164 2.877-25.429 2.17-3.023 93.16-97.548 202.191-210.018 109.056-112.469 198.51-205.166 198.827-205.97 0.317-0.829-178.932-1.438-415.232-1.438-463.433 0-425.155 1-432.884-11.41-3.048-4.925-3.779-8.485-3.779-18.578 0-15.141 3.365-21.845 13.385-26.697 6.754-3.267 11.727-3.291 422.936-3.291 239.323 0 415.89-0.634 415.573-1.487-0.317-0.805-90.136-93.842-199.656-206.775-109.495-112.908-200.777-208.018-202.825-211.358-5.266-8.533-4.949-17.92 0.853-26.6 9.045-13.458 22.406-19.992 34.328-16.774 8.509 2.292-0.975-7.241 248.271 249.734 115.102 118.662 211.724 218.039 214.747 220.867 5.656 5.291 9.509 14.848 9.509 23.674 0 8.802-5.754 19.090-15.214 27.185-4.901 4.194-107.837 109.69-228.693 234.398-168.619 174.007-221.257 227.377-226.206 229.352-7.778 3.121-12.215 3.17-19.042 0.195z" />
<glyph unicode="&#xe906;" glyph-name="CheckboxOff" d="M788.448 752.514v-580.963h-580.963v580.963h580.963zM788.448 835.509h-580.963c-45.647 0-82.994-37.348-82.994-82.994v-580.963c0-45.646 37.348-82.993 82.994-82.993h580.963c45.646 0 82.993 37.348 82.993 82.993v580.963c0 45.647-37.348 82.994-82.993 82.994z" />
<glyph unicode="&#xe907;" glyph-name="CheckboxOn" d="M788.448 835.509h-580.963c-46.062 0-82.994-37.348-82.994-82.994v-580.963c0-45.646 36.933-82.993 82.994-82.993h580.963c46.059 0 82.993 37.348 82.993 82.993v580.963c0 45.647-36.935 82.994-82.993 82.994zM414.971 254.549l-207.485 207.484 58.511 58.513 148.974-148.561 314.965 314.965 58.513-58.926-373.478-373.474z" />
<glyph unicode="&#xe908;" glyph-name="ArrowRightHover" horiz-adv-x="1000" d="M478.159 956.757c-8.972-4.754-21.26-16.286-26.039-24.454-9.021-15.409-8.485-29.477 1.755-44.763 3.072-4.584 88.82-94.184 190.537-199.095l184.954-190.757-399.262-0.853c-372.492-0.78-399.677-1.024-405.333-3.682-14.702-6.924-22.406-19.188-24.21-38.424-2.146-23.064 5.949-40.936 22.187-48.908l9.752-4.779 796.891-1.658-187.319-193.268c-202.338-208.725-196.291-201.947-196.291-219.941 0-16.043 14.507-36.669 32.061-45.641 5.218-2.658 9.923-3.486 19.919-3.486 11.532 0 13.946 0.561 20.626 4.803 4.267 2.706 99.426 99.645 217.941 222.013 213.187 220.136 230.717 237.982 242.786 247.515 8.777 6.924 16.067 23.82 16.067 37.157-0.024 16.238-9.338 34.572-21.236 41.813-2.731 1.658-105.106 106.325-227.474 232.546-131.657 135.826-225.231 231.058-229.181 233.277-8.826 4.998-30.232 5.315-39.131 0.585z" />
<glyph unicode="&#xe909;" glyph-name="Close" horiz-adv-x="1065" d="M87.204 940.298c-13.517-2.58-23.757-8.847-37.519-22.815-27.116-27.648-31.662-52.756-14.336-79.503 4.669-7.209 65.536-66.847 205.742-201.646 109.486-105.267 199.107-192.102 199.107-192.963s-89.661-87.777-199.27-193.167c-133.12-128.041-201.359-194.888-205.701-201.482-16.261-24.781-12.698-50.012 10.732-75.899 27.197-30.065 55.869-34.816 85.77-14.213 4.178 2.867 97.075 91.259 206.397 196.403 109.322 105.185 199.762 191.611 200.909 192.102 1.188 0.451 85.443-79.299 187.31-177.234 236.093-227.082 218.808-210.944 232.94-217.866 21.586-10.65 42.394-7.291 63.529 10.281 12.124 10.035 20.603 20.726 26.624 33.505 4.628 9.83 5.161 12.698 4.588 23.962-0.86 16.343-5.693 26.46-19.743 41.492-5.816 6.226-97.157 94.577-202.957 196.28-105.841 101.704-192.184 185.549-191.939 186.245 57 55.616 120.746 117.26 184.752 178.635l10.955 10.437c107.397 103.26 198.656 191.693 202.793 196.567 11.182 13.025 15.36 22.774 16.138 37.806 0.614 11.387 0.082 14.090-4.833 24.576-7.496 15.974-26.624 35.676-42.066 43.295-18.227 8.97-36.823 7.578-55.378-4.137-8.397-5.284-1.72 1.065-230.892-219.382-98.017-94.249-179.159-171.581-180.347-171.868s-88.351 82.371-193.741 183.706c-105.39 101.335-197.1 189.235-203.817 195.338-19.415 17.736-38.093 24.945-55.747 21.545z" />
<glyph unicode="&#xe90a;" glyph-name="CorcheteDown" d="M233.637 614.483c-9.447-2.411-16.648-7.366-24.477-16.946-7.234-8.82-11.198-17.771-11.165-25.336 0.033-15.063 0.297-15.36 142.138-153.237 81.259-79.013 136.952-131.898 141.411-134.276 9.447-5.054 21.636-5.219 31.579-0.396 4.955 2.378 49.548 44.594 138.339 130.907 72.076 70.061 133.252 130.114 135.961 133.417 14.237 17.507 12.717 34.651-4.625 52.587-13.147 13.609-29.267 17.804-43.239 11.297-3.601-1.685-15.756-11.991-27.020-22.891l-214.578-208.5-6.21 5.946c-3.402 3.27-55.362 53.743-115.415 112.145-60.086 58.368-111.946 107.949-115.217 110.163-5.397 3.822-12.116 6.109-19.369 6.109-2.881 0-5.677-0.361-8.347-1.040l0.234 0.050z" />
<glyph unicode="&#xe90b;" glyph-name="CorcheteLeft" horiz-adv-x="1057" d="M648.919 746.744c-4.349-1.113-8.164-2.686-11.687-4.71l0.225 0.119c-9.745-5.682-266.636-270.765-270.865-279.519-2.203-4.191-3.496-9.157-3.496-14.426 0-5.394 1.355-10.471 3.743-14.91l-0.083 0.168c2.577-5.351 22.759-27.384 62.2-67.947l127.703-131.336c38.152-39.242 72.605-73.893 76.536-76.965 16.846-13.18 36.104-10.207 52.719 8.192 15.030 16.615 16.615 31.942 4.955 47.765-2.577 3.501-54.239 57.278-114.787 119.544s-110.097 114.193-110.097 115.349c0 1.156 49.846 53.38 110.79 116.042s112.607 116.571 114.787 119.808c10.868 15.988 9.084 30.819-5.649 47.137-11.099 12.288-25.105 18.234-36.996 15.69z" />
<glyph unicode="&#xe90c;" glyph-name="CorcheteRight" d="M366.394 746.446c-17.804-4.063-36.864-25.996-36.963-42.546-0.099-13.675 4.063-18.465 121.096-138.901 61.969-63.785 112.673-116.571 112.673-117.331s-41.984-44.594-93.316-97.379l-113.532-116.769c-20.876-21.504-26.888-30.753-26.888-41.522 0-13.18 13.345-31.711 28.11-39.077 14.006-7.003 28.011-4.79 40.96 6.474 41.707 42.166 84.768 86.158 127.601 130.373l4.495 4.663c133.153 136.886 134.937 138.901 134.937 153.567 0 14.501-1.982 16.747-139.396 157.894-98.007 100.682-132.955 135.564-138.009 137.678-9.381 3.964-14.237 4.625-21.768 2.874z" />
<glyph unicode="&#xe90d;" glyph-name="CorcheteUp" d="M480.95 610.552c-4.625-2.709-64.512-59.59-141.477-134.375-141.444-137.48-141.51-137.546-141.444-152.774 0.033-8.225 5.186-18.828 13.609-27.978 13.411-14.534 29.927-18.663 45.188-11.297 6.474 3.138 119.346 110.988 225.379 215.304l15.426 15.195 116.67-113.367c78.088-75.842 119.147-114.589 124.168-117.099 15.228-7.597 30.819-3.667 45.155 11.396 13.477 14.138 16.747 28.408 9.745 42.81-4.724 9.778-270.072 268.387-280.642 273.507-4.282 2.138-9.328 3.389-14.667 3.389-6.315 0-12.222-1.751-17.26-4.795l0.15 0.084z" />
<glyph unicode="&#xe90e;" glyph-name="meh" horiz-adv-x="1063" d="M503.335 955.234c-38.242-2.836-87.394-13.154-126.188-26.427-77.312-26.466-141.903-67.781-200.31-128.118-74.201-76.682-120.281-169.708-137.019-276.677-4.49-28.633-5.514-100.785-1.89-132.017 21.307-183.847 138.516-339.259 309.918-411.057 111.34-46.631 244.933-50.688 358.912-10.831 125.991 44.032 228.234 133.317 287.665 251.195 66.796 132.569 71.877 290.934 13.706 426.772-36.482 83.57-91.681 153.088-160.577 205.538l-1.255 0.916c-23.171 17.994-49.354 34.267-77.168 47.694l-2.625 1.143c-52.806 27.155-114.486 45.444-179.779 51.109l-1.863 0.13c-13.837 0.957-29.987 1.503-46.264 1.503-12.403 0-24.733-0.317-36.981-0.943l1.718 0.070zM604.357 863.468c30.199-5.305 56.435-12.122 81.82-20.778l-3.799 1.125c103.83-38.016 186.508-112.88 233.796-208.383l1.094-2.442c20.126-41.196 32.059-79.714 39.148-126.7 4.293-28.121 4.254-85.465 0-113.428-13.903-90.821-51.358-168.448-111.813-231.739-121.186-126.976-305.979-164.943-468.086-96.256-117.563 49.822-208.66 156.042-240.089 279.946-16.935 66.836-17.211 142.178-0.748 206.651 30.65 118.666 108.952 214.972 212.762 269.040l2.318 1.099c49.113 25.049 97.831 39.188 155.254 45.135 15.872 1.654 80.502-0.512 98.343-3.269zM383.803 629.563c-17.369-6.42-24.537-18.196-24.615-40.448-0.118-30.641 13.509-44.347 43.993-44.308 16.935 0.039 26.939 3.545 34.462 12.13 6.656 7.601 8.94 15.951 8.98 32.729 0 17.959-5.593 29.735-17.329 36.628-6.774 3.978-10.634 4.844-23.316 5.317-10.201 0.394-17.487-0.276-22.174-2.048zM661.071 629.209c-15.084-5.199-23.040-17.014-24.418-36.194-1.497-20.992 6.971-39.188 20.716-44.505 15.596-5.986 39.306-4.884 51.121 2.402 3.19 1.93 7.956 7.247 10.634 11.815 4.332 7.326 4.884 10.004 4.884 24.182 0 19.889-1.182 24.025-9.137 32.847-10.516 11.658-34.974 15.951-53.799 9.452zM350.011 354.422c-17.487-2.521-28.711-9.649-33.95-21.622-4.057-9.334-4.096-32.61-0.039-43.087 3.82-9.846 12.642-18.196 22.016-20.795 9.334-2.599 397.548-2.599 406.882 0 15.872 4.411 26.033 20.638 26.033 41.511 0 20.086-7.562 33.477-22.882 40.566-8.113 3.742-8.35 3.781-200.428 3.978-105.748 0.118-194.678-0.158-197.632-0.551z" />
<glyph unicode="&#xe90f;" glyph-name="picture" d="M143.36 933.212c-48.333-8.637-87.899-39.835-107.957-82.091l-0.382-0.894c-2.877-6.194-5.852-13.931-8.364-21.874l-0.402-1.473c-3.072-10.65-3.195-25.723-3.686-364.38-0.369-246.088 0.041-356.639 1.311-364.38 7.741-46.776 39.69-88.883 82.289-108.339 14.909-6.799 61.153-17.408 65.823-15.114 1.638 0.778 165.356 1.843 363.889 2.294l360.98 0.86 15.032 4.71c24.926 7.479 46.19 20.813 62.982 38.444l0.055 0.058c17.367 17.981 27.279 34.898 34.898 59.474l4.669 15.073 1.188 106.66c0.655 58.655 1.188 107.807 1.147 109.24l-1.188 253.42c-1.065 236.995-1.27 251.494-4.26 261.98-14.1 49.27-51.527 87.509-99.251 102.482l-1.060 0.287-12.493 3.891-375.48 0.205c-206.52 0.123-377.405-0.123-379.74-0.532zM876.012 842.199c19.415-2.785 34.243-12.78 42.23-28.426l4.219-8.233 0.901-385.27-7.291 6.554c-34.008 32.207-62.687 59.68-91.224 87.298l3.16-3.043c-44.442 42.762-84.296 79.995-88.515 82.739-5.679 3.805-12.666 6.072-20.183 6.072-6.058 0-11.772-1.473-16.803-4.079l0.204 0.096c-7.086-3.482-58.245-51.814-244.449-230.851l-306.217-294.339-6.349 2.662c-10.828 5.015-19.549 13.038-25.292 22.995l-0.144 0.271-5.038 9.175v699.72l4.178 8.233c7.7 15.032 23.060 25.764 40.673 28.344 14.172 2.048 701.604 2.171 715.94 0.082zM329.073 741.437c-24.027-2.658-45.447-12.131-62.747-26.416l0.201 0.161c-29.368-25.068-43.254-53.74-43.418-89.62-0.082-21.586 2.58-33.505 11.878-52.879 13.435-27.935 40.018-50.668 71.352-60.989 11.878-3.932 16.589-4.547 35.84-4.588 33.423-0.123 53.821 6.717 78.193 26.092 29.041 23.060 43.745 53.78 43.827 91.587 0.007 0.449 0.010 0.98 0.010 1.511 0 29.527-11.563 56.352-30.407 76.197l0.045-0.048c-27.812 30.065-64.102 43.54-104.776 38.994zM359.26 646.124c12.329-7.004 16.548-23.142 8.97-34.284-6.717-9.912-12.247-12.82-24.166-12.82-13.926 0-23.224 5.652-27.443 16.753-8.847 23.183 19.62 43.459 42.639 30.351zM821.658 389.55l101.704-97.731-0.451-92.979-0.451-93.020-5.12-9.257c-3.618-6.061-8.001-11.227-13.103-15.575l-0.086-0.072c-16.138-12.78 9.626-11.837-322.15-11.387l-297.697 0.451 216.678 208.527c119.153 114.729 217.17 208.609 217.825 208.65 0.614 0.041 46.899-43.868 102.851-97.608z" />
<glyph unicode="&#xe910;" glyph-name="writte" horiz-adv-x="1147" d="M891.167 946.688c-18.634-5.387-34.849-13.841-48.928-24.891l0.308 0.233c-4.915-4.055-106.004-100.721-224.666-214.835-158.065-152.003-216.556-209.388-218.931-214.794-3.277-7.496-46.408-171.663-48.456-184.443-1.434-9.093 3.686-26.542 10.076-34.12 6.963-8.274 14.172-11.51 25.641-11.51 11.756 0 190.095 42.353 201.687 47.882 8.602 4.096 428.564 406.077 445.686 426.598 19.866 23.798 29.082 50.012 29.164 82.862 0.082 55.542-35.594 104.858-89.58 123.781-14.623 5.161-19.374 5.857-42.271 6.39-21.012 0.492-28.426-0.082-39.731-3.154zM953.262 862.802c8.929-4.547 20.89-17.285 24.658-26.255 4.301-10.363 3.4-27.197-2.048-38.175-3.809-7.619-44.933-48.169-213.279-210.166-57.881-56.001-126.843-122.162-196.052-188.067l-15.711-14.849c-3.768-2.621-99.901-25.969-101.253-24.576-0.532 0.492 4.342 21.094 10.813 45.752s11.756 45.22 11.756 45.67c0 0.737 337.592 325.878 402.719 387.891 11.796 11.223 24.003 21.709 27.156 23.347 13.558 7.004 36.905 6.758 51.241-0.573zM190.71 858.665c-53.207-9.093-97.362-51.282-106.701-101.908-1.188-6.431-1.679-127.099-1.352-331.162l0.492-320.963 5.161-14.131c16.834-44.060 55.313-76.348 102.080-84.108l0.771-0.106c10.609-1.679 99.451-2.089 343.081-1.597 298.271 0.573 329.728 0.901 338.862 3.768 44.81 13.967 77.455 45.507 90.604 87.572l4.465 14.336v336.404l-4.792 8.479c-6.676 11.837-17.572 17.326-34.406 17.326-0.26 0.003-0.566 0.005-0.873 0.005-6.536 0-12.887-0.793-18.961-2.289l0.543 0.113c-8.455-3.241-15.266-9.191-19.522-16.769l-0.097-0.189c-1.556-3.4-2.458-51.2-3.154-169.165l-0.942-164.372-4.26-7.946c-3.141-5.344-6.925-9.91-11.326-13.792l-0.061-0.053c-15.196-12.493 8.233-11.756-348.57-11.223l-323.912 0.532-7.66 4.137c-5.23 3.049-9.746 6.522-13.77 10.493l0.007-0.007c-12.943 13.517-12.042-11.715-12.001 330.793 0.041 295.977 0.205 310.559 3.523 317.85 1.925 4.219 7.004 10.813 11.346 14.705 14.868 13.435 8.888 13.025 191.406 13.025 106.619 0 166.052 0.696 170.68 1.966 17.285 4.833 25.518 19.456 24.044 42.68-1.106 17.080-5.489 25.149-17.203 31.867l-8.233 4.71-170.107 0.287c-93.553 0.164-174.203-0.41-179.159-1.27z" />
<glyph unicode="&#xe911;" glyph-name="CloseRound" horiz-adv-x="1062" d="M511.431 862.137c-235.882 0-423.827-182.455-423.827-403.571s187.945-403.574 423.827-403.574c235.884 0 423.83 182.458 423.83 403.574s-187.946 403.571-423.83 403.571zM2.028 458.566c0 271.918 229.878 489.147 509.403 489.147 279.529 0 509.406-217.229 509.406-489.147s-229.877-489.15-509.406-489.15c-279.526 0-509.403 217.232-509.403 489.15zM682.333 622.046c16.335-17.077 15.735-44.161-1.343-60.496l-107.664-102.988 107.664-102.992c17.078-16.335 17.677-43.418 1.343-60.496-16.335-17.074-43.421-17.677-60.496-1.343l-110.41 105.616-110.406-105.616c-17.078-16.335-44.162-15.732-60.497 1.343-16.335 17.078-15.734 44.161 1.342 60.496l107.662 102.992-107.662 102.988c-17.077 16.335-17.677 43.419-1.342 60.496s43.419 17.677 60.497 1.342l110.406-105.616 110.41 105.616c17.074 16.335 44.161 15.734 60.496-1.342z" />
<glyph unicode="&#xe912;" glyph-name="chat" d="M954.617 896c17.463 0 31.616-14.155 31.616-31.616v-832.705c0-29.193-36.183-42.79-55.408-20.82l-172.261 196.871c-6.001 6.86-14.677 10.796-23.793 10.796h-665.386c-17.461 0-31.616 14.153-31.616 31.616v614.244c0 17.461 14.155 31.616 31.616 31.616zM701.66 453.383h-505.847c-17.461 0-31.616-14.155-31.616-31.616s14.155-31.616 31.616-31.616h505.847c17.461 0 31.616 14.155 31.616 31.616s-14.155 31.616-31.616 31.616zM828.121 579.811h-632.309c-17.461 0-31.616-14.155-31.616-31.616s14.155-31.616 31.616-31.616h632.309c17.461 0 31.616 14.155 31.616 31.616s-14.155 31.616-31.616 31.616zM701.66 706.239h-505.847c-17.461 0-31.616-14.155-31.616-31.616s14.155-31.616 31.616-31.616h505.847c17.461 0 31.616 14.155 31.616 31.616s-14.155 31.616-31.616 31.616z" />
<glyph unicode="&#xe913;" glyph-name="spotify" d="M512 927.999c-265.105 0-480-214.894-480-480 0-265.102 214.895-479.997 480-479.997s480 214.895 480 479.997c0 265.073-214.895 479.967-480 480zM732.136 235.727c-8.616-14.151-27.055-18.572-41.14-9.956-112.704 68.879-254.592 84.436-421.665 46.281-16.115-3.703-32.164 6.385-35.832 22.5-3.701 16.115 6.354 32.166 22.502 35.833 182.828 41.76 339.684 23.781 466.209-53.519 14.085-8.678 18.572-27.052 9.926-41.137zM790.861 366.38c-10.839-17.623-33.899-23.125-51.487-12.315-128.983 79.296-325.701 102.254-478.297 55.941-19.783-5.993-40.68 5.176-46.706 24.927-5.961 19.781 5.208 40.646 24.958 46.672 174.313 52.896 391.042 27.283 539.184-63.772 17.623-10.839 23.191-33.866 12.349-51.453zM795.905 502.502c-154.725 91.872-409.939 100.323-557.657 55.515-23.713-7.206-48.802 6.19-55.975 29.905-7.173 23.712 6.19 48.801 29.936 56.006 169.563 51.456 451.405 41.531 629.518-64.196 21.323-12.675 28.331-40.222 15.689-61.511-12.609-21.353-40.222-28.397-61.511-15.719z" />
<glyph unicode="&#xe914;" glyph-name="star" horiz-adv-x="1081" d="M584.598 897.179l117.658-257.415c2.412-5.605 7.697-9.438 13.778-9.993l281.173-32.355c12.413-1.362 23.808-7.471 31.829-17.046 8.010-9.574 12.009-21.879 11.162-34.336-0.853-12.456-6.48-24.106-15.713-32.507l-208.452-191.425c-4.619-4.028-6.656-10.257-5.302-16.23l56.127-277.407c2.549-12.214 0.273-24.94-6.354-35.521-6.628-10.576-17.101-18.176-29.201-21.202-12.112-3.032-24.923-1.257-35.749 4.949l-246.498 139.099c-5.281 3.072-11.794 3.072-17.075 0l-246.559-139.099c-10.829-6.184-23.63-7.953-35.727-4.921-12.097 3.044-22.556 10.638-29.185 21.197-6.621 10.57-8.912 23.285-6.376 35.499l56.116 277.413c1.355 5.973-0.678 12.203-5.295 16.23l-208.411 191.445c-9.251 8.393-14.892 20.043-15.742 32.506s3.148 24.77 11.167 34.351c8.018 9.575 19.43 15.684 31.852 17.031l281.226 32.356c6.081 0.555 11.369 4.387 13.782 9.993l117.614 257.397c5.115 11.39 14.445 20.353 26.022 25.020 11.585 4.661 24.524 4.661 36.109 0 11.575-4.668 20.905-13.631 26.019-25.020l0.006-0.007z" />
<glyph unicode="&#xe915;" glyph-name="Linkedin" horiz-adv-x="1065" d="M159.917 687.158h1.243c66.725 0 108.267 47.832 108.267 107.621-1.243 61.105-41.542 107.621-106.999 107.621s-108.243-46.516-108.243-107.621c0-59.789 41.517-107.621 105.732-107.621zM54.185 615.411h215.242v-621.811h-215.242v621.811zM1010.816 388.211c0 125.487-101.713 227.2-227.2 227.2-73.014 0-137.801-34.583-179.368-88.105v88.105h-215.241v-621.811h215.241v358.737c0 52.829 42.834 95.663 95.663 95.663s95.663-42.834 95.663-95.663v-358.737h215.242c0 0 0 359.812 0 394.611z" />
<glyph unicode="&#xe916;" glyph-name="FacebookPrimary" horiz-adv-x="544" d="M508.627 395.491l28.24 179.578h-176.579v116.378c0 49.001 24.534 96.889 103.552 96.889h80.16v152.851c0 0-72.742 12.25-142.346 12.25-145.201 0-240.195-86.031-240.195-241.666v-136.703h-161.46v-179.578h161.46v-434.054h198.828v434.054h148.339z" />
<glyph unicode="&#xe917;" glyph-name="FacebookSecondary" horiz-adv-x="544" d="M508.627 395.491l28.24 179.578h-176.579v116.378c0 49.001 24.534 96.889 103.552 96.889h80.16v152.851c0 0-72.742 12.25-142.346 12.25-145.201 0-240.195-86.031-240.195-241.666v-136.703h-161.46v-179.578h161.46v-434.054h198.828v434.054h148.339z" />
<glyph unicode="&#xe918;" glyph-name="InstagramPrimary" horiz-adv-x="992" d="M758.621 776.367c-32.029 0-58.208-26.171-58.208-58.189s26.179-58.189 58.208-58.189c32.026 0 58.205 26.171 58.205 58.189s-26.179 58.189-58.205 58.189zM500.179 701.75c-134.794 0-244.242-109.696-244.242-244.172 0-134.474 109.726-244.17 244.242-244.17 134.512 0 244.24 109.696 244.24 244.17 0 134.477-109.728 244.172-244.24 244.172zM500.179 301.107c-86.336 0-156.515 70.163-156.515 156.47 0 86.31 70.179 156.47 156.515 156.47 86.333 0 156.512-70.16 156.512-156.47 0-86.307-70.179-156.47-156.512-156.47zM694.010-38.563h-396.020c-164.312 0-297.99 133.642-297.99 297.907v395.909c0 164.545 133.678 298.185 297.99 298.185h396.020c164.314 0 297.99-133.64 297.99-297.906v-395.909c0-164.266-133.677-297.907-297.99-297.907v-0.278zM297.99 860.168c-112.79 0-204.694-91.877-204.694-204.636v-395.909c0-112.758 91.903-204.637 204.694-204.637h396.020c112.79 0 204.694 91.878 204.694 204.637v395.909c0 112.759-91.904 204.636-204.694 204.636h-396.020z" />
<glyph unicode="&#xe919;" glyph-name="InstagramSecondary" horiz-adv-x="992" d="M758.621 776.367c-32.029 0-58.208-26.171-58.208-58.189s26.179-58.189 58.208-58.189c32.026 0 58.205 26.171 58.205 58.189s-26.179 58.189-58.205 58.189zM500.179 701.75c-134.794 0-244.242-109.696-244.242-244.172 0-134.474 109.726-244.17 244.242-244.17 134.512 0 244.24 109.696 244.24 244.17 0 134.477-109.728 244.172-244.24 244.172zM500.179 301.107c-86.336 0-156.515 70.163-156.515 156.47 0 86.31 70.179 156.47 156.515 156.47 86.333 0 156.512-70.16 156.512-156.47 0-86.307-70.179-156.47-156.512-156.47zM694.010-38.563h-396.020c-164.312 0-297.99 133.642-297.99 297.907v395.909c0 164.545 133.678 298.185 297.99 298.185h396.020c164.314 0 297.99-133.64 297.99-297.906v-395.909c0-164.266-133.677-297.907-297.99-297.907v-0.278zM297.99 860.168c-112.79 0-204.694-91.877-204.694-204.636v-395.909c0-112.758 91.903-204.637 204.694-204.637h396.020c112.79 0 204.694 91.878 204.694 204.637v395.909c0 112.759-91.904 204.636-204.694 204.636h-396.020z" />
<glyph unicode="&#xe91a;" glyph-name="Loading" horiz-adv-x="983" d="M491.52-31.441c-271.459 0-491.52 220.062-491.52 491.52 0 271.46 220.061 491.521 491.52 491.521s491.52-220.061 491.52-491.521h-122.88c0 203.595-165.044 368.641-368.64 368.641-203.594 0-368.64-165.046-368.64-368.641 0-203.592 165.046-368.64 368.64-368.64v-122.88z" />
<glyph unicode="&#xe91e;" glyph-name="Piso" horiz-adv-x="1092" d="M437.226 960h581.894c40.396 0 73.143-32.747 73.143-73.143s-32.747-73.143-73.143-73.143h-581.894c-40.396 0-73.143 32.747-73.143 73.143s32.747 73.143 73.143 73.143zM73.143 667.434h945.981c40.396 0 73.143-32.747 73.143-73.143s-32.747-73.143-73.143-73.143h-945.981c-40.396 0-73.143 32.747-73.143 73.143s32.747 73.143 73.143 73.143zM437.226 374.85h581.894c40.396 0 73.143-32.747 73.143-73.143s-32.747-73.143-73.143-73.143h-581.894c-40.396 0-73.143 32.747-73.143 73.143s32.747 73.143 73.143 73.143zM73.143 82.282h945.981c40.396 0 73.143-32.747 73.143-73.143s-32.747-73.143-73.143-73.143h-945.981c-40.396 0-73.143 32.747-73.143 73.143s32.747 73.143 73.143 73.143z" />
<glyph unicode="&#xe91f;" glyph-name="Search" d="M92.423 504.889c0-195.666 158.62-354.284 354.287-354.284 95.564 0 182.292 37.835 246.018 99.348 1.262 1.655 2.646 3.248 4.162 4.764 1.511 1.511 3.105 2.9 4.764 4.157 61.506 63.726 99.344 150.454 99.344 246.014 0 195.669-158.622 354.288-354.288 354.288-195.668 0-354.287-158.619-354.287-354.288zM728.224 158.032c-76.829-62.431-174.801-99.848-281.514-99.848-246.712 0-446.71 199.995-446.71 446.706s199.998 446.711 446.71 446.711c246.71 0 446.71-199.998 446.71-446.711 0-106.709-37.417-204.677-99.844-281.506l186.438-186.438c18.047-18.047 18.047-47.305 0-65.352s-47.309-18.047-65.352 0l-186.438 186.438z" />
<glyph unicode="&#xe920;" glyph-name="TiktokPrimary" horiz-adv-x="847" d="M616.791 952.759c16.306-140.3 94.575-223.945 230.658-232.844v-157.799c-78.862-7.712-147.94 18.093-228.285 66.737v-295.132c0-374.925-408.545-492.088-572.792-223.356-105.545 172.929-40.914 476.368 297.662 488.529v-166.404c-25.794-4.152-53.366-10.678-78.566-19.279-75.305-25.508-117.997-73.262-106.138-157.502 22.829-161.361 318.71-209.115 294.102 106.189v590.563h163.36v0.297z" />
<glyph unicode="&#xe921;" glyph-name="TiktokSecondary" horiz-adv-x="847" d="M616.791 952.759c16.306-140.3 94.575-223.945 230.658-232.844v-157.799c-78.862-7.712-147.94 18.093-228.285 66.737v-295.132c0-374.925-408.545-492.088-572.792-223.356-105.545 172.929-40.914 476.368 297.662 488.529v-166.404c-25.794-4.152-53.366-10.678-78.566-19.279-75.305-25.508-117.997-73.262-106.138-157.502 22.829-161.361 318.71-209.115 294.102 106.189v590.563h163.36v0.297z" />
<glyph unicode="&#xe922;" glyph-name="Trash" d="M394 817.579c-8.386-8.097-12.825-18.774-12.825-29.6v-42.553h261.657v42.553c0 10.826-4.442 21.504-12.828 29.6-8.432 8.143-20.159 12.953-32.669 12.953h-170.665c-12.507 0-24.233-4.811-32.669-12.953zM722.506 787.979v-42.553h88.163c0.201 0 0.399-0.002 0.6-0.005h84.731c22.002 0 39.837-17.836 39.837-39.837s-17.835-39.837-39.837-39.837h-45.494v-536.895c0-32.874-13.538-64.109-37.161-86.916-23.573-22.761-55.254-35.31-88.011-35.31h-426.665c-32.755 0-64.437 12.549-88.010 35.31-23.621 22.807-37.16 54.042-37.16 86.916v536.895h-45.498c-22.002 0-39.837 17.836-39.837 39.837s17.836 39.837 39.837 39.837h84.736c0.199 0.003 0.399 0.005 0.599 0.005h88.163v42.553c0 32.877 13.54 64.113 37.16 86.918 23.572 22.76 55.256 35.31 88.010 35.31h170.665c32.757 0 64.438-12.55 88.011-35.31 23.623-22.806 37.161-54.041 37.161-86.918zM253.173 665.746v-536.895c0-10.826 4.441-21.5 12.827-29.597 8.434-8.143 20.16-12.955 32.669-12.955h426.665c12.51 0 24.237 4.813 32.669 12.955 8.386 8.097 12.828 18.771 12.828 29.597v536.895h-517.658z" />
<glyph unicode="&#xe923;" glyph-name="User" horiz-adv-x="901" d="M284.962 705.14c0 86.798 67.208 154.037 146.335 154.037 79.131 0 146.338-67.24 146.338-154.037s-67.207-154.038-146.338-154.038c-79.126 0-146.335 67.24-146.335 154.038zM431.297 951.6c-133.553 0-238.757-112.069-238.757-246.46s105.204-246.462 238.757-246.462c133.554 0 238.76 112.070 238.76 246.462s-105.206 246.46-238.76 246.46zM238.758 350.855c-63.921 0-124.838-26.427-169.462-72.835-44.564-46.346-69.297-108.835-69.297-173.625v-100.127c0-25.522 20.69-46.211 46.211-46.211s46.211 20.689 46.211 46.211v100.127c0 41.423 15.84 80.806 43.495 109.568 27.596 28.697 64.628 44.466 102.841 44.466h385.095c38.212 0 75.244-15.77 102.838-44.466 27.656-28.762 43.495-68.145 43.495-109.568v-100.127c0-25.522 20.689-46.211 46.211-46.211s46.211 20.689 46.211 46.211v100.127c0 64.791-24.732 127.279-69.296 173.625-44.622 46.408-105.542 72.835-169.46 72.835h-385.095z" />
<glyph unicode="&#xe924;" glyph-name="WhatsappPrimary" horiz-adv-x="992" d="M0-38.563l71.176 265.331c-40.473 72.669-61.686 153.965-61.686 236.656 0.279 270.342 220.506 490.014 491.255 490.014s491.254-219.671 491.254-490.014c0-270.342-220.227-490.016-491.254-490.016-81.226 0-161.613 20.605-233.347 59.306l-267.399-71.555v0.278zM280.797 132.387l16.747-10.026c61.685-36.749 132.024-56.24 203.202-56.24 219.667 0 398.307 178.189 398.307 397.302s-178.64 397.3-398.307 397.3c-219.67 0-398.308-178.187-398.308-397.3 0-72.39 20.097-143.664 58.337-206.029l10.327-16.982-39.914-148.118 149.33 39.814 0.279 0.278zM683.574 395.488c-20.099 11.971-46.614 25.616-70.339 15.872-18.144-7.52-29.866-35.917-41.869-50.672-6.141-7.52-13.398-8.634-22.608-5.014-68.666 27.286-121.139 72.947-159.101 135.869-6.419 9.744-5.302 17.539 2.512 26.451 11.443 13.363 25.68 28.675 28.749 46.771 3.072 18.099-5.302 39.258-12.838 55.405-9.491 20.604-20.378 49.838-41.030 61.532-18.982 10.58-44.102 4.733-60.85-8.909-29.308-23.666-43.264-60.974-42.985-97.723 0-10.582 1.396-20.883 3.908-30.906 5.861-24.221 17.306-47.053 29.866-68.49 9.49-16.15 19.818-32.019 31.261-47.331 36.566-49.837 82.342-92.992 135.094-125.29 26.518-16.147 54.71-30.346 84.298-40.090 32.934-10.861 62.522-22.275 98.25-15.594 37.402 6.96 74.246 30.070 89.040 65.987 4.467 10.579 6.698 22.55 4.186 33.686-5.024 23.11-36.563 37.030-55.264 48.166l-0.278 0.278z" />
<glyph unicode="&#xe925;" glyph-name="WhatsappSecondary" horiz-adv-x="992" d="M0-38.563l71.176 265.331c-40.473 72.669-61.686 153.965-61.686 236.656 0.279 270.342 220.506 490.014 491.255 490.014s491.254-219.671 491.254-490.014c0-270.342-220.227-490.016-491.254-490.016-81.226 0-161.613 20.605-233.347 59.306l-267.399-71.555v0.278zM280.797 132.387l16.747-10.026c61.685-36.749 132.024-56.24 203.202-56.24 219.667 0 398.307 178.189 398.307 397.302s-178.64 397.3-398.307 397.3c-219.67 0-398.308-178.187-398.308-397.3 0-72.39 20.097-143.664 58.337-206.029l10.327-16.982-39.914-148.118 149.33 39.814 0.279 0.278zM683.574 395.488c-20.099 11.971-46.614 25.616-70.339 15.872-18.144-7.52-29.866-35.917-41.869-50.672-6.141-7.52-13.398-8.634-22.608-5.014-68.666 27.286-121.139 72.947-159.101 135.869-6.419 9.744-5.302 17.539 2.512 26.451 11.443 13.363 25.68 28.675 28.749 46.771 3.072 18.099-5.302 39.258-12.838 55.405-9.491 20.604-20.378 49.838-41.030 61.532-18.982 10.58-44.102 4.733-60.85-8.909-29.308-23.666-43.264-60.974-42.985-97.723 0-10.582 1.396-20.883 3.908-30.906 5.861-24.221 17.306-47.053 29.866-68.49 9.49-16.15 19.818-32.019 31.261-47.331 36.566-49.837 82.342-92.992 135.094-125.29 26.518-16.147 54.71-30.346 84.298-40.090 32.934-10.861 62.522-22.275 98.25-15.594 37.402 6.96 74.246 30.070 89.040 65.987 4.467 10.579 6.698 22.55 4.186 33.686-5.024 23.11-36.563 37.030-55.264 48.166l-0.278 0.278z" />
<glyph unicode="&#xe927;" glyph-name="air-conditioner" d="M1017.1 751.84v-241.464c0-29.482-23.878-53.36-53.36-53.36h-903.72c-29.482 0-53.118 24.122-53.118 53.36v241.464c0 29.482 23.878 53.36 53.118 53.36h853.284c12.182 0 22.172-9.99 22.172-22.172s-9.99-22.172-22.172-22.172h-853.284c-4.874 0-8.772-3.898-8.772-8.772v-241.464c0-4.874 3.898-8.772 8.772-8.772h24.366v20.468c0 38.010 30.944 68.954 68.712 68.954h66.030c12.182 0 22.172-9.99 22.172-22.172s-9.99-22.172-22.172-22.172h-66.030c-13.402 0-24.366-10.964-24.366-24.61v-20.468h766.298v20.468c0 13.402-10.964 24.61-24.366 24.61h-418.846c-12.182 0-22.172 9.99-22.172 22.172s9.99 22.172 22.172 22.172h418.846c38.010 0 68.712-30.944 68.712-68.954v-20.468h24.366c4.874 0 8.772 3.898 8.772 8.772v241.464c0 12.182 9.99 22.172 22.172 22.172 12.426-0.244 22.416-10.234 22.416-22.416zM388.71 568.61c0-12.182-9.99-22.172-22.172-22.172h-62.132c-12.182 0-22.172 9.99-22.172 22.172s9.99 22.172 22.172 22.172h62.132c12.182 0 22.172-9.99 22.172-22.172zM689.382 727.23h-354.764c-12.182 0-22.172-9.99-22.172-22.172v-66.274c0-12.182 9.99-22.172 22.172-22.172h355.008c12.182 0 22.172 9.99 22.172 22.172v66.274c0 12.182-9.99 22.172-22.416 22.172zM667.208 682.884v-21.686h-310.418v21.686h310.418zM824.124 671.92c0-12.182-9.99-22.172-22.172-22.172h-48.488c-12.182 0-22.172 9.99-22.172 22.172s9.99 22.172 22.172 22.172h48.488c12.182 0 22.172-9.99 22.172-22.172zM939.616 671.92c0-12.182-9.99-22.172-22.172-22.172h-48.488c-12.182 0-22.172 9.99-22.172 22.172s9.99 22.172 22.172 22.172h48.488c12.182 0 22.172-9.99 22.172-22.172zM534.172 401.218v-153.748c0-12.182-9.99-22.172-22.172-22.172s-22.172 9.99-22.172 22.172v153.748c0 12.182 9.99 22.172 22.172 22.172s22.172-9.99 22.172-22.172zM775.636 198.74v-21.442c0-47.756-38.742-86.498-86.254-86.498h-10.72c-47.512 0-86.254 38.984-86.254 86.498v223.92c0 12.182 9.99 22.172 22.172 22.172s22.172-9.99 22.172-22.172v-223.92c0-23.148 18.762-41.908 41.908-41.908h10.72c23.148 0 41.908 18.762 41.908 41.908v21.442c0 23.148-18.762 41.908-41.908 41.908-12.182 0-22.172 9.99-22.172 22.172s9.99 22.172 22.172 22.172v0c47.756 0.244 86.254-38.498 86.254-86.254zM431.35 401.218v-223.92c0-47.756-38.742-86.498-86.254-86.498h-10.72c-47.512 0-86.254 38.984-86.254 86.498v21.442c0 47.756 38.742 86.498 86.254 86.498 12.182 0 22.172-9.99 22.172-22.172s-9.99-22.172-22.172-22.172c-23.148 0-41.666-18.762-41.666-41.908v-21.442c0-23.148 18.762-41.908 41.666-41.908h10.72c23.148 0 41.908 18.762 41.908 41.908v223.92c0 12.182 9.99 22.172 22.172 22.172 12.182-0.244 22.172-10.234 22.172-22.416z" />
<glyph unicode="&#xe92f;" glyph-name="bathroom" d="M706.365 921.596c-52.262 0-103.138-14.8-147.076-43.012-41.162-26.362-74.694-63.132-97.356-106.606-13.644 2.544-27.288 3.7-41.162 3.468-68.682-1.618-130.426-38.388-164.65-98.512l-13.182-22.894c-9.482 4.394-20.118 5.318-30.524 2.544-12.026-3.238-21.738-10.868-27.982-21.506l-23.126-40.7c-12.488-21.968-5.088-50.182 16.65-62.9l330.226-192.862c10.406-6.012 22.662-7.632 34.688-4.626 12.024 3.238 21.738 10.868 27.982 21.506l23.126 40.7c11.794 20.812 5.782 46.944-13.182 60.588l13.182 23.126c37 64.75 34.226 145.918-6.706 208.126 18.268 51.106 64.75 83.712 119.326 83.712 71.456 0 127.65-56.656 127.65-129.268v-638.712c0-16.188 13.182-29.368 29.368-29.368h90.188c16.188 0 29.368 13.182 29.368 29.368v638.482c-0.694 154.012-124.644 279.35-276.806 279.35zM838.177 775.446c-34.918 35.382-81.862 55.038-131.812 55.038-68.45 0-129.962-36.538-162.338-96.2-3.7 2.774-7.4 5.55-11.332 8.094l-0.232 0.232c-3.7 2.544-6.938 4.394-10.174 6.244h-0.232c-0.462 0.232-0.924 0.462-1.618 0.926h-0.232c-0.462 0.232-1.156 0.694-1.618 0.924s-0.694 0.462-1.156 0.694c38.85 68.682 110.538 111 188.7 111h4.856c56.888-1.156 110.306-24.744 150.312-65.906 40.238-41.394 62.438-96.2 62.438-154.244v-609.344h-31.45v609.344c0.232 50.644-19.194 97.818-54.112 133.2zM529.689 486.614l-236.338 138.056 13.182 22.894c23.818 41.856 66.138 67.524 113.082 69.144l0.232-0.232h4.394c0.232 0 0.232 0 0.462 0 13.644 0 27.056-2.082 40.238-6.244 1.156-0.694 2.312-1.156 3.468-1.618l0.462-0.232c8.324-2.774 15.262-6.012 21.506-9.25 0.694-0.232 1.156-0.694 1.618-0.926h0.232c0.462-0.232 0.694-0.462 0.926-0.462l0.232-0.232c3.238-1.85 6.244-3.7 8.788-5.55 11.1-7.862 21.044-17.112 29.6-27.982l0.232-0.232c0.462-0.462 0.924-1.156 1.388-1.618 33.532-44.168 37.232-104.294 9.482-152.856l-13.182-22.662zM536.395 414.696l-10.406-18.038-307.794 179.682 10.406 18.268 307.794-179.912zM236.465 460.714c-3.932 9.018-12.718 14.8-22.662 14.338l-11.332-0.462 1.156-2.312c-2.312-1.156-4.162-2.544-6.012-4.394l-47.868-47.638c-4.626-4.394-7.168-10.638-7.168-16.882 0-6.476 2.544-12.256 6.938-16.882 4.394-4.394 10.406-6.938 16.882-6.938 0 0 0 0 0 0 6.244 0 12.488 2.544 16.882 6.938l47.868 47.638c7.168 7.168 9.25 17.574 5.318 26.594zM325.495 415.852c-8.556 0-16.65-4.626-21.044-12.024l-33.994-58.274c-3.238-5.55-4.162-12.024-2.544-18.038 1.618-6.244 5.55-11.332 11.1-14.568 3.7-2.082 7.862-3.238 11.794-3.238 2.082 0 4.162 0.232 6.244 0.924 6.012 1.618 11.332 5.782 14.568 11.1l33.994 58.274c4.394 7.168 4.394 16.418 0.232 23.818-3.932 7.4-11.794 12.024-20.35 12.024zM117.601 374.226l-0.232 0.462-4.856-0.232c-6.244-0.232-12.024-2.774-16.418-7.168l-48.1-47.638c-4.626-4.626-7.168-10.406-7.168-16.882 0-6.244 2.544-12.488 6.938-16.882s10.406-6.938 16.882-6.938c0 0 0 0 0 0 6.244 0 12.488 2.544 16.882 6.938l47.868 47.638c7.168 6.938 9.25 17.112 5.318 26.362-2.544 7.862-9.25 12.95-17.112 14.338zM433.259 350.408c-11.332 0.462-21.506-6.938-24.282-17.806l-17.574-64.982c-1.618-6.012-0.694-12.718 2.312-18.038 3.238-5.55 8.324-9.482 14.568-11.1 2.082-0.462 4.162-0.924 6.244-0.924 4.162 0 8.094 1.156 11.794 3.238 5.55 3.238 9.482 8.326 11.1 14.338l17.574 64.982c2.082 6.938 0.694 14.338-3.7 20.35-3.932 6.012-10.638 9.712-18.038 9.944zM253.809 292.826c0 0-0.232 0 0 0-8.788 0-16.65-4.626-21.044-12.024l-33.762-58.044c-3.238-5.318-4.394-12.024-2.776-18.268s5.55-11.332 11.1-14.568c3.7-2.082 7.632-3.238 11.794-3.238 2.082 0 4.394 0.232 6.476 0.924 6.244 1.618 11.332 5.782 14.338 11.332l33.994 58.274c4.394 7.4 4.394 16.418 0.232 23.818-3.932 7.168-11.794 11.794-20.35 11.794zM396.259 213.276c-11.332 0.462-21.506-6.938-24.282-17.806l-17.574-64.982c-1.85-6.012-0.926-12.718 2.312-18.268s8.556-9.482 14.568-11.1c2.082-0.462 4.162-0.924 6.244-0.924 4.162 0 8.324 1.156 12.024 3.238 5.55 3.238 9.482 8.556 11.1 14.568l17.574 64.982c2.082 6.938 0.694 14.338-3.7 20.35s-10.868 9.482-18.268 9.944z" />
<glyph unicode="&#xe936;" glyph-name="bed" d="M111.81 842.488h61.676v-94.258c0-9.774 4.654-18.852 12.8-24.438 13.732-9.774 33.048-6.75 42.824 6.75 107.99 148.486 457.792 148.254 565.782 0 5.818-7.914 15.128-12.568 24.67-12.568 16.99 0 30.954 13.498 30.954 30.256v94.258h61.676v-364c23.74 0 45.15-8.844 61.442-23.274v417.296c0 16.758-13.732 30.488-30.722 30.488h-123.118c-16.99 0-30.722-13.732-30.722-30.488v-50.97c-145.228 108.688-409.15 108.222-553.914 0v50.97c0 16.758-13.732 30.488-30.722 30.488h-123.35c-16.758 0-30.722-13.732-30.722-30.488v-417.53c16.292 14.43 37.936 23.274 61.676 23.274v364.232zM234.928 508.278c0 16.758 13.732 30.488 30.722 30.488h123.118c16.99 0 30.722-13.732 30.722-30.488v-30.256h61.442v30.256c0 50.272-41.194 91-92.164 91h-123.118c-50.736 0-92.164-40.728-92.164-91v-30.256h61.442v30.256zM604.048 508.278c0 16.758 13.732 30.488 30.722 30.488h123.118c16.99 0 30.722-13.732 30.722-30.488v-30.256h61.442v30.256c0 50.272-41.194 91-92.164 91h-123.118c-50.736 0-92.164-40.728-92.164-91v-30.256h61.442v30.256zM1004.122 270.888c-2.328 14.43-15.128 25.368-30.488 25.368h-923.266c-16.99 0-30.722-13.498-30.722-30.256v-121.488c0-16.758 13.732-30.488 30.722-30.488h30.954v-60.512c0-33.514 27.696-60.512 61.676-60.512h61.676c33.98 0 61.676 26.998 61.676 60.512v91c0 16.758-13.732 30.488-30.722 30.488h-154.538v60.512h861.358v-60.512h-584.402c-16.99 0-30.722-13.732-30.722-30.488s13.732-30.488 30.722-30.488h400.074v-60.512c0-33.514 27.696-60.512 61.676-60.512h61.676c33.98 0 61.676 26.998 61.676 60.512v60.512h30.722c16.99 0 30.722 13.732 30.722 30.488v121.256c0 1.862-0.232 3.492-0.466 5.12zM142.996 114.256h61.676v-60.512h-61.676v60.512zM881.47 53.744h-61.676v60.512h61.676v-60.512zM50.368 296.256h30.722v91.232c0 15.594 11.87 28.394 27.23 30.256 1.164 0.232 2.328 0.232 3.492 0.232h800.148c1.164 0 2.328 0 3.492-0.232 15.36-1.63 27.23-14.662 27.23-30.256v-91h30.954c15.36 0 27.928-10.938 30.488-25.368v116.368c0 26.998-11.87 51.202-30.488 67.726-16.292 14.43-37.704 23.274-61.442 23.274v-0.232l-800.382 0.232c-23.74 0-45.384-8.844-61.676-23.274-18.852-16.758-30.722-40.728-30.722-67.726v-121.256c0.466 16.524 14.196 30.024 30.954 30.024z" />
<glyph unicode="&#xe93b;" glyph-name="coffee-room" d="M466.362 671.897c7.168-6.212 18.4-5.496 24.612 1.672 6.452 7.168 5.734 18.16-1.672 24.374-6.452 5.974-10.514 14.098-11.47 22.94 0.716 8.124 4.78 15.532 11.47 20.55 14.338 11.23 22.94 28.196 23.418 46.356-0.956 18.638-9.32 36.32-23.418 48.986-7.408 5.734-17.922 5.018-24.134-2.15-6.212-6.93-5.734-17.444 0.956-23.896 6.452-5.974 10.514-14.098 11.47-22.94-0.716-8.124-4.78-15.532-11.47-20.55-14.338-11.23-22.94-28.196-23.418-46.356 1.194-18.878 9.558-36.32 23.656-48.986zM512.958 720.883c0.956-18.638 9.080-36.32 22.7-48.986 6.93-6.212 17.682-5.496 23.896 1.672s5.496 18.16-1.434 24.374c-6.212 5.974-10.274 14.098-11.23 22.94 0.716 8.124 4.78 15.532 11.23 20.55 13.86 11.23 22.222 28.196 22.7 46.356-0.956 18.638-9.080 36.32-22.7 48.986-7.168 5.734-17.444 5.018-23.418-2.15-5.974-6.93-5.496-17.444 0.956-23.896 6.212-5.974 10.274-14.098 11.23-22.94-0.716-8.124-4.78-15.532-11.23-20.55-14.098-11.23-22.462-28.196-22.7-46.356zM653.702 591.847c-4.54 0.478-9.080 0.716-13.62 1.194 1.912-0.238 3.824-0.238 5.496-0.478 2.868-0.238 5.496-0.478 8.124-0.716zM647.012 586.113c-0.478 0-0.716 0-1.194 0-0.956 0-1.672-0.238-2.628-0.238 1.194 0 2.628 0.238 3.824 0.238zM977.721 215.975c-15.054 11.47-36.082 21.028-60.216 29.152-46.356 15.294-105.856 25.568-162.010 32.258 3.346 14.338 5.018 29.152 5.018 43.728v10.992c36.798 2.15 70.492 22.7 89.13 54.96 19.594 34.17 19.594 76.226 0 110.396s-56.154 55.198-95.582 55.198c-13.142 0-23.896-10.752-23.896-23.896s10.752-23.896 23.896-23.896c22.462 0 43.012-11.948 54.242-31.302s11.23-43.25 0-62.606c-10.036-17.444-27.958-28.914-47.79-31.064v79.81c0 13.142-10.752 23.896-23.896 23.896s-23.896-10.752-23.896-23.896v-138.592c0-39.666-15.77-77.42-43.728-105.378s-65.952-43.728-105.378-43.728h-103.706c-39.666 0-77.42 15.77-105.378 43.728s-43.728 65.952-43.728 105.378v27.958h183.753c13.142 0 23.896 10.752 23.896 23.896s-10.752 23.896-23.896 23.896h-183.753v156.514c34.17-8.124 94.626-14.098 201.198-14.098 121.15 0 182.56 7.886 213.864 17.444 15.77 4.78 24.612 10.274 29.63 16.488 5.256 6.452 5.256 12.664 5.256 15.77v0c0 3.346 0 9.32-5.256 15.77-5.018 5.974-14.098 11.47-29.63 16.488-31.302 9.558-92.714 17.444-213.864 17.444s-182.56-7.886-213.864-17.444c-15.77-4.78-24.612-10.274-29.63-16.488s-5.256-12.186-5.256-15.532c-0.238-2.15-0.238-4.062 0-6.212 0-0.956 0-2.15 0-3.106v-258.786c0-52.33 20.788-102.272 57.588-139.070 37.038-36.798 86.978-57.588 139.31-57.588h103.944c37.038 0 73.12 10.514 104.422 30.108 30.108 18.878 54.242 45.402 70.492 76.704 81.96-9.32 136.682-22.222 171.090-34.17 17.444-5.974 29.392-11.948 36.798-16.726 3.824-2.39 6.212-4.54 7.408-5.974 0.716-0.716 0.956-1.194 1.194-1.434 0-0.238-0.238-0.716-0.716-1.194-0.716-0.956-2.15-2.39-4.302-4.302-4.302-3.346-10.992-7.168-20.55-11.47-18.878-8.124-47.312-16.966-85.068-24.852-75.51-15.77-187.578-28.436-332.621-28.436s-257.114 12.664-332.621 28.436c-37.754 7.886-66.19 16.488-85.068 24.852-9.558 4.062-16.248 7.886-20.55 11.47-2.15 1.672-3.346 3.106-4.302 4.302-0.478 0.478-0.478 0.956-0.716 1.194 0 0.238 0.238 0.238 0.238 0.478 0.716 0.956 1.912 2.15 3.824 3.824 4.062 3.106 10.514 7.168 20.072 11.47 19.116 8.602 49.464 18.638 94.148 27.48h0.478c11.47 2.15 19.594 12.186 19.594 23.656 0.238 7.168-3.106 14.098-8.602 18.878-4.302 3.584-9.798 5.496-15.294 5.496-1.672 0-3.346-0.238-5.018-0.478-41.578-8.602-80.288-19.356-108.724-33.454-27.958-13.86-48.508-32.498-48.508-57.11 0-13.142 5.974-24.852 15.77-34.648s23.656-18.4 40.144-25.806c33.214-14.816 78.616-26.284 128.796-34.648 100.6-16.966 222.226-22.7 306.099-22.7s205.5 5.974 306.099 22.7c50.18 8.364 95.82 19.834 128.796 34.648 16.488 7.408 30.348 16.010 40.144 25.806 9.798 10.036 15.77 21.506 15.77 34.648 0 16.966-10.036 31.302-25.090 42.772zM364.090 591.369c1.912 0.238 3.824 0.238 5.496 0.478 2.628 0.238 5.256 0.478 8.124 0.716 1.912 0.238 3.824 0.238 5.734 0.478 2.15 0.238 4.302 0.238 6.452 0.478 4.54 0.478 9.080 0.716 13.86 0.956 1.912 0.238 3.584 0.238 5.496 0.478 6.452 0.478 12.664 0.716 19.116 1.194 0.478 0 0.956 0 1.434 0 5.974 0.238 11.708 0.478 17.682 0.716 2.15 0 4.062 0.238 6.212 0.238 4.302 0.238 8.842 0.238 13.142 0.478 2.15 0 4.54 0 6.69 0.238 4.54 0 8.842 0.238 13.142 0.238 1.912 0 4.062 0 5.974 0 6.452 0 12.664 0 19.116 0s12.664 0 19.116 0c1.912 0 3.824 0 5.974 0 4.54 0 9.080 0 13.382-0.238l6.69-0.238c4.54 0 9.080-0.238 13.382-0.478 1.912 0 3.824 0 5.974-0.238 5.974-0.238 12.186-0.478 18.16-0.716 0.238 0 0.716 0 0.956 0 6.452-0.238 12.904-0.716 19.116-1.194 1.912 0 3.584-0.238 5.496-0.478 4.54-0.238 9.32-0.716 13.86-0.956 2.15-0.238 4.302-0.238 6.452-0.478 1.912-0.238 3.824-0.238 5.496-0.478 2.628-0.238 5.256-0.478 8.124-0.716 1.912-0.238 3.824-0.478 5.734-0.478 6.212-0.716 12.664-1.194 18.878-1.912-6.212-0.716-12.426-1.434-18.878-1.912-1.912-0.238-4.062-0.478-5.974-0.478-2.15-0.238-4.302-0.478-6.452-0.716-0.478 0-0.716 0-1.194 0-0.956 0-1.672-0.238-2.628-0.238s-1.672-0.238-2.628-0.238c-2.39-0.238-4.54-0.478-6.93-0.478-4.302-0.238-8.842-0.716-13.142-0.956-2.15-0.238-4.062-0.238-5.974-0.478-6.212-0.478-12.664-0.716-18.878-1.194-0.716 0-1.194 0-1.912 0-5.734-0.238-11.47-0.478-17.204-0.716-2.15 0-4.062-0.238-6.212-0.238-4.302-0.238-8.842-0.238-13.142-0.478-2.15 0-4.54-0.238-6.69-0.238-4.54 0-8.842-0.238-13.382-0.238-1.912 0-4.062 0-5.974 0-6.452 0-12.664 0-19.116 0s-12.664 0-19.116 0c-2.15 0-4.062 0-6.212 0-4.302 0-8.842 0-13.142 0.238-2.39 0-4.54 0-6.93 0.238-4.302 0-8.602 0.238-13.142 0.238-2.15 0-4.062 0.238-6.212 0.238-5.734 0.238-11.47 0.478-17.204 0.716-0.716 0-1.194 0-1.912 0-6.452 0.238-12.664 0.716-18.878 1.194-1.912 0.238-3.824 0.238-5.974 0.478-4.302 0.238-8.842 0.716-13.142 0.956-2.39 0.238-4.54 0.478-6.93 0.478-1.912 0.238-3.584 0.238-5.256 0.478-2.628 0.238-5.256 0.478-7.646 0.716-1.912 0.238-4.062 0.478-5.974 0.478-6.212 0.716-12.426 1.194-18.878 1.912 5.974 0.956 12.186 1.434 18.4 2.15z" />
<glyph unicode="&#xe940;" glyph-name="common-areas-cleaning" d="M326.166 718.432v0c3.984 0 7.968 1.172 11.482 3.516 113.188 74.99 247.468 114.594 388.776 114.594 88.816 0 174.82-15.702 255.904-46.4 11.482-4.452 24.372 2.11 28.356 14.764s-2.11 26.246-13.592 30.7c-85.77 32.574-176.696 49.212-270.432 49.212-149.278 0-291.758-42.182-411.976-121.624-10.546-7.030-13.826-21.794-7.264-33.042 3.984-7.734 11.248-11.718 18.748-11.718zM996.154 680.704v0c-74.756 24.372-154.198 37.026-235.984 37.73-128.42 0.704-253.56-28.122-361.124-84.13-11.248-5.858-15.232-18.982-8.906-29.528 4.218-7.030 12.186-11.248 20.388-11.248 3.75 0 7.734 0.938 11.248 2.812 98.894 51.556 213.722 78.506 332.066 78.506 1.874 0 3.984 0 5.858 0 76.864-0.704 151.152-12.42 221.22-35.386 12.186-3.984 25.31 2.11 29.528 13.358 4.218 11.482-2.11 23.904-14.294 27.886zM996.39 554.626c-58.586 23.904-120.922 37.026-185.6 38.902-99.128 2.578-198.020-22.732-285.666-72.88-11.248-6.562-16.17-22.732-10.78-36.324 3.984-9.842 12.186-15.466 20.622-15.466 3.28 0 6.562 0.938 9.842 2.578 81.318 46.4 172.712 69.834 265.044 67.492 59.758-1.64 117.64-13.826 171.774-35.854 11.952-4.922 24.84 2.578 28.824 16.872 4.218 14.294-2.11 29.762-14.060 34.682zM651.67 391.054c-11.482-4.452-17.342-18.514-13.124-30.934 3.28-9.842 11.718-15.936 20.856-15.936 2.578 0 5.156 0.468 7.5 1.406 61.866 24.606 128.654 36.088 193.1 32.808 43.12-2.11 84.364-10.546 123.030-24.606 11.718-4.218 24.138 2.578 27.886 15.232s-2.344 26.246-13.826 30.464v0c-42.416 15.466-87.878 24.606-134.982 26.95-70.772 3.75-143.418-8.67-210.44-35.386zM997.326 276.226v0c-64.444 28.59-139.904 33.98-217.94 15.702-11.248-2.578-18.982-17.576-17.108-33.512s12.654-26.48 23.904-23.904c71.71 16.872 140.138 12.186 198.49-13.826 2.11-0.938 4.218-1.406 6.328-1.406 8.906 0 17.108 7.968 19.92 20.388 3.28 15.466-2.578 31.636-13.592 36.558zM661.042 277.398l-236.922 251.452c-8.67 9.14-22.732 9.14-31.402 0s-8.67-24.138 0-33.276l236.922-251.452c6.328-6.796 6.328-17.81 0-24.372l-39.838-42.416c-6.092-6.562-16.872-6.562-22.966 0l-63.508 67.256-334.644 355.032c-0.938 0.938-1.64 2.11-2.344 3.28-1.64 2.812-2.344 5.858-2.344 9.14 0 4.686 1.64 8.906 4.686 12.186l39.838 42.416c6.092 6.562 16.872 6.562 22.966 0l63.508-67.256c8.67-9.14 22.732-9.14 31.402 0s8.67 24.138 0 33.276l-63.508 67.256c-11.482 12.186-26.716 18.982-42.884 18.982s-31.402-6.796-42.884-18.982l-39.838-42.416c-23.668-25.074-23.668-66.086 0-91.16l22.498-23.668 35.152-37.26 11.014-167.79-187.24-198.49c-8.67-9.14-8.67-24.138 0-33.276l82.958-87.878c4.218-4.452 9.842-6.562 15.466-6.562s11.482 2.344 15.702 6.796l187.24 198.49 157.948-11.718 57.648-60.93c11.718-12.654 27.418-18.748 42.884-18.748s31.168 6.328 42.884 18.748l39.838 42.416c23.434 25.074 23.434 65.85-0.234 90.926zM312.574 264.508c-6.562 0.468-12.654-2.11-17.342-6.796l-178.336-189.35-8.67 9.14-42.182 44.76 35.854 38.198 13.826-14.53 11.718-12.42c4.452-4.686 10.076-7.030 15.702-7.030s11.482 2.344 15.702 7.030c8.67 9.14 8.67 24.138 0 33.276l-25.544 26.95 111.080 117.876c4.452 4.922 7.030 11.482 6.562 18.278l-8.202 124.202 187.006-198.49-117.172 8.906z" />
<glyph unicode="&#xe946;" glyph-name="documents" d="M309.304 905.62c0-17.486 14.264-31.75 31.75-31.75h502.024v-685.164h-166.574v-166.574h-495.582v883.488c0 17.486-14.264 31.75-31.75 31.75s-31.75-14.264-31.75-31.75v-947.22h601.646l188.202 187.282v791.918h-565.984c-17.716 0-31.98-14.264-31.98-31.98zM731.722 61.244v72.244h72.704l-72.704-72.244zM277.094 641.724h469.814c17.486 0 31.75 14.264 31.75 31.75s-14.264 31.75-31.75 31.75h-469.814c-17.486 0-31.75-14.264-31.75-31.75s14.264-31.75 31.75-31.75zM277.094 471.008h469.814c17.486 0 31.75 14.264 31.75 31.75s-14.264 31.75-31.75 31.75h-469.814c-17.486 0-31.75-14.264-31.75-31.75s14.264-31.75 31.75-31.75zM277.094 300.062h469.814c17.486 0 31.75 14.264 31.75 31.75s-14.264 31.75-31.75 31.75h-469.814c-17.486 0-31.75-14.264-31.75-31.75s14.264-31.75 31.75-31.75z" />
<glyph unicode="&#xe94a;" glyph-name="downstairs" d="M978.57-11.6h-933.142c-17.194 0-30.904 13.012-30.904 28.812v143.596c0 31.6 27.882 57.392 62.272 57.392h124.31v114.784c0 31.6 27.882 57.392 62.272 57.392h124.31v114.784c0 31.6 27.882 57.392 62.272 57.392h124.31v114.784c0 31.6 27.882 57.392 62.272 57.392h124.078v115.48c0 31.832 27.882 57.392 62.272 57.392h155.446c17.194 0 30.904-13.012 30.904-28.812v-574.384c0-15.8-13.942-28.812-30.904-28.812-17.194 0-30.904 13.012-30.904 28.812v545.804h-124.31v-143.596c0-15.8-13.942-28.812-30.904-28.812h-155.446v-143.596c0-15.8-13.942-28.812-30.904-28.812h-155.446v-143.596c0-15.8-13.942-28.812-30.904-28.812h-155.446v-143.596c0-15.8-13.942-28.812-30.904-28.812h-155.678v-114.784h870.638v143.596c0 15.8 13.942 28.812 30.904 28.812 17.194 0 30.904-13.012 30.904-28.812v-172.408c-0.464-15.568-14.406-28.58-31.368-28.58zM79.12 465.892c4.88-10.688 16.032-17.892 28.812-17.892h124.31c17.194 0 30.904 13.012 30.904 28.812s-13.942 28.812-30.904 28.812h-49.492l320.418 295.556c12.314 11.386 12.314 29.51 0 40.662-12.314 11.386-31.832 11.386-44.148 0l-320.418-296.022v45.542c0 15.8-13.942 28.812-30.904 28.812-17.194 0-30.904-13.012-30.904-28.812-0.232-124.078-0.232-118.27 2.324-125.472z" />
<glyph unicode="&#xe94c;" glyph-name="elevator" d="M339.351 725.402c-15.95 0-28.667 12.501-28.667 27.805s12.932 27.805 28.667 27.805c15.95 0 28.667-12.501 28.667-27.805s-12.717-27.805-28.667-27.805zM454.45 725.402c-15.95 0-28.667 12.501-28.667 27.805s12.932 27.805 28.667 27.805c15.95 0 28.667-12.501 28.667-27.805s-12.932-27.805-28.667-27.805zM569.334 725.402c-15.95 0-28.667 12.501-28.667 27.805s12.932 27.805 28.667 27.805c15.95 0 28.667-12.501 28.667-27.805 0.216-15.303-12.717-27.805-28.667-27.805zM684.649 725.402c-15.95 0-28.667 12.501-28.667 27.805s12.932 27.805 28.667 27.805c15.95 0 28.667-12.501 28.667-27.805s-12.717-27.805-28.667-27.805zM885.965 891.8h-748.145c-47.85 0-86.432-37.289-86.432-83.199v-111.004c0-15.303 12.932-27.805 28.667-27.805 15.95 0 28.667 12.501 28.667 27.805v111.004c0 15.303 12.932 27.805 28.667 27.805h748.36c15.95 0 28.667-12.501 28.667-27.805v-749.007h-57.55v582.609c0 15.303-12.932 27.805-28.667 27.805h-632.83c-15.95 0-28.667-12.501-28.667-27.805v-582.609h-57.55v527.215c0 15.303-12.932 27.805-28.667 27.805-15.95 0-28.667-12.501-28.667-27.805v-554.804c0-15.303 12.932-27.805 28.667-27.805h863.459c15.95 0 28.667 12.501 28.667 27.805v776.596c0 46.126-38.797 83.199-86.648 83.199zM224.037 614.398h259.081v-554.804h-259.081v554.804zM540.667 614.398h259.081v-554.804h-259.081v554.804z" />
<glyph unicode="&#xe951;" glyph-name="extinguisher" d="M828.431 785.94c14.028 3.45 23.916 16.328 23.456 30.586v91.988c-0.23 17.018-13.798 30.586-31.046 30.586h-185.356c-51.054 0-92.678-41.164-92.678-91.988 0-0.46 0-1.15 0-1.61-174.776-15.868-308.85-161.668-308.85-336.216v-184.206c-34.036 0-61.862-27.596-61.862-61.402v-215.022c0-17.018 13.798-30.586 30.816-30.586h123.494c17.018 0 30.816 13.568 30.816 30.586v215.252c0 33.806-27.826 61.402-61.862 61.402v153.39h123.494v-429.814c0-50.824 41.394-91.988 92.678-91.988h246.988c51.054 0 92.678 41.164 92.678 91.988v61.402c0 17.018-13.798 30.586-30.816 30.586h-339.436v337.826h308.85v-245.838c0-17.018 13.798-30.586 30.816-30.586s30.816 13.568 30.816 30.586v307.24c0 83.020-48.294 158.22-123.494 193.634v28.056l100.036 23.916 0.46 0.23zM296.051 79.474h-61.862v184.436h61.862v-184.436zM790.025 79.474v-30.586c0-17.018-13.798-30.586-30.816-30.586h-246.988c-17.018 0-30.816 13.568-30.816 30.586v30.586h308.62zM790.025 840.444l-61.862-15.408c1.84 17.708 0 35.646-5.52 52.664h67.382v-37.256zM297.891 540.102c14.488 128.324 116.134 229.28 245.148 243.998v-49.904c-75.2-35.416-123.264-110.846-123.494-193.634l-121.654-0.46zM790.025 540.102h-308.62c0 84.858 68.99 153.39 154.31 153.39s154.080-68.53 154.31-153.39zM604.439 752.594v94.518c0.23 17.018 14.258 30.356 31.276 30.126 8.048 0 15.868-3.45 21.618-9.198 12.188-11.268 8.968-14.488 8.968-115.674-20.468 3.68-41.394 3.68-61.862 0.23zM635.485 202.278c-51.054 0-92.678 41.164-92.678 91.988 0 43.694 54.502 98.656 71.29 114.524 11.958 11.268 30.586 11.268 42.774 0 16.788-15.868 71.29-70.83 71.29-114.524 0-50.824-41.394-91.988-92.678-91.988zM635.485 342.1c-13.568-13.338-24.146-29.666-30.816-47.604 0-17.018 13.798-30.586 30.816-30.586s30.816 13.568 30.816 30.586c-6.44 17.938-17.018 34.036-30.816 47.604z" />
<glyph unicode="&#xe953;" glyph-name="filters" d="M802.17 360.18c15.88-9.624 34.166-14.436 52.452-14.436 6.736 0 13.474 0.722 19.97 1.924 25.022 5.052 46.918 19.008 62.076 39.46s22.136 45.714 19.488 70.978c-2.406 25.264-14.196 48.602-32.962 65.686-17.082 15.398-38.496 24.542-61.114 26.226v0.24h-7.458c-21.654 0-43.308-7.218-60.872-20.21-15.88-11.79-27.91-27.91-34.888-46.436h-691.738v-71.7h691.978c7.94-21.414 23.098-39.7 43.068-51.73zM853.178 417.444c-7.7 0.482-14.676 3.61-20.21 8.902-5.774 5.774-8.902 13.474-8.902 21.654s3.128 15.88 8.902 21.654c5.774 5.774 13.474 8.902 21.654 8.902 0 0 0 0 0 0 8.18 0 15.88-3.128 21.654-8.902s8.902-13.474 8.902-21.654c0-8.18-3.128-15.88-8.902-21.654s-13.474-8.902-21.654-8.902h-1.444zM230.012 253.11c-17.564 12.992-38.978 19.97-60.872 20.21v0c-25.504 0-49.806-9.384-68.572-26.466s-30.556-40.422-32.962-65.686c-2.406-25.264 4.572-50.526 19.488-70.978 15.158-20.452 37.294-34.406 62.076-39.46 6.736-1.444 13.474-1.924 19.97-1.924 18.286 0 36.332 5.052 52.452 14.436 19.97 12.030 35.128 30.316 43.308 51.97h691.978v71.7h-691.738c-6.978 18.286-19.248 34.648-35.128 46.196zM147.484 192.718c5.774 5.774 13.474 8.902 21.654 8.902 0 0 0 0 0 0 8.18 0 15.88-3.128 21.654-8.902s8.902-13.474 8.902-21.654c0-8.18-3.368-15.88-8.902-21.654-5.774-5.774-13.474-8.902-21.654-8.902s-15.88 3.128-21.654 8.902c-5.774 5.774-8.902 13.714-8.902 21.654 0 8.18 3.128 15.88 8.902 21.654zM265.14 760.786c-8.18 21.654-23.338 39.94-43.308 51.97-21.896 12.992-47.64 17.564-72.422 12.512-25.022-5.052-46.918-19.008-62.076-39.46s-22.136-45.714-19.488-70.978c2.406-25.264 14.196-48.602 32.962-65.686 16.602-15.158 37.774-24.302 60.152-26.226v-0.482h8.422c21.654 0 43.308 7.218 60.872 20.21 15.88 11.79 27.91 27.91 34.888 46.436h691.978v71.7h-691.978zM191.034 703.282c-5.774-5.774-13.474-8.902-21.654-8.902 0 0 0 0 0 0-8.18 0-15.88 3.128-21.654 8.902s-8.902 13.474-8.902 21.654c0 8.18 3.128 15.88 8.902 21.654s13.474 8.902 21.654 8.902c7.94 0 15.88-3.368 21.654-8.902 5.774-5.774 8.902-13.714 8.902-21.654 0-8.18-3.128-15.88-8.902-21.654z" />
<glyph unicode="&#xe954;" glyph-name="fridge" d="M790.86 625.814c17.11 0 30.984 13.18 30.984 29.598v207.41c0 32.604-27.748 59.194-61.968 59.194h-495.75c-34.222 0-61.968-26.592-61.968-59.194v-770.218c0-32.604 27.748-59.194 61.968-59.194v-29.598c0-16.418 13.874-29.598 30.984-29.598s30.984 13.18 30.984 29.598v29.598h371.814v-29.598c0-16.418 13.874-29.598 30.984-29.598s30.984 13.18 30.984 29.598v29.598c34.222 0 61.968 26.592 61.968 59.194v444.418c0 16.418-13.874 29.598-30.984 29.598h-526.736v296.202h495.75v-207.41c0-16.418 13.874-29.598 30.984-29.598zM759.876 92.372h-495.75v415.052h495.75v-415.052zM357.078 655.41c-17.11 0-30.984 13.18-30.984 29.598v88.792c0 16.418 13.874 29.598 30.984 29.598s30.984-13.18 30.984-29.598v-88.792c0-16.418-13.874-29.598-30.984-29.598zM357.078 210.992c-17.11 0-30.984 13.18-30.984 29.598v177.814c0 16.418 13.874 29.598 30.984 29.598s30.984-13.18 30.984-29.598v-177.814c0-16.418-13.874-29.598-30.984-29.598z" />
<glyph unicode="&#xe957;" glyph-name="gym" d="M104.731 398.993v-55.272h-37.147c-25.734 0-46.545 20.811-46.545 46.545v115.244c0 12.308 4.923 24.168 13.65 32.895s20.363 13.65 32.895 13.65c0 0 0 0 0 0h36.923v-55.048h-28.196v-97.789l28.419-0.224zM616.95 552.279v-55.272h-223.103v55.048zM307.694 748.976c-41.398 0-76.307-29.538-84.363-68.699-10.294 4.252-21.482 6.489-32.671 6.489-47.44 0-86.153-38.713-86.153-86.153v-305.899c0-47.44 38.713-86.153 86.153-86.153 11.412 0 22.377 2.238 32.671 6.489 8.056-39.16 42.741-68.475 84.139-68.475 46.769 0 85.482 38.042 86.153 85.034v431.884c-0.224 47.216-38.713 85.482-85.929 85.482zM221.541 295.162c0-17.007-13.874-30.881-30.881-30.881s-30.881 13.874-30.881 30.881v305.675c0 2.014 0.224 4.252 0.671 6.266 0 0.224 0.224 0.671 0.224 0.895 0.224 0.895 0.448 1.79 0.895 2.685 0.448 1.343 1.119 2.685 1.79 4.028 0.224 0.224 0.224 0.671 0.448 0.895 1.343 2.462 2.909 4.475 4.699 6.489 0.224 0.224 0.448 0.448 0.671 0.671s0.448 0.448 0.671 0.671c2.014 1.79 4.028 3.58 6.489 4.699 2.462 1.343 4.923 2.238 7.608 2.909 0.224 0 0.448 0.224 0.895 0.224 2.014 0.448 4.028 0.671 6.266 0.671 17.007 0 30.881-13.874 30.881-30.881v-305.899zM338.575 233.177c0-17.007-13.874-30.881-30.881-30.881s-30.881 13.874-30.881 30.881v429.87c0 17.007 13.874 30.881 30.881 30.881s30.881-13.874 30.881-30.881v-429.87zM616.95 398.993v-55.272h-223.103v-110.544c0-0.224 0-0.671 0-0.895v166.937h223.103zM819.913 686.991c-11.412 0-22.377-2.238-32.671-6.489-8.056 39.16-42.741 68.475-84.363 68.475-47.44 0-86.153-38.489-86.153-86.153v-429.646c0-47.44 38.713-86.153 86.153-86.153 41.398 0 76.083 29.538 84.363 68.475 10.294-4.252 21.259-6.489 32.671-6.489 46.769 0 85.482 38.042 86.153 85.034v307.689c-0.448 46.993-38.937 85.258-86.153 85.258zM733.984 233.177c0-17.007-13.874-30.881-30.881-30.881s-30.881 13.874-30.881 30.881v429.87c0 2.238 0.224 4.252 0.671 6.266 2.909 14.098 15.44 24.615 30.21 24.615 17.007 0 30.881-13.874 30.881-30.881v-429.87zM850.794 295.162c0-17.007-13.874-30.881-30.881-30.881s-30.881 13.874-30.881 30.881v305.675c0 17.007 13.874 30.881 30.881 30.881s30.881-13.874 30.881-30.881v-305.675zM989.534 505.734v-115.244c0-25.51-20.811-46.545-46.545-46.545h-36.923v-48.783c0-0.448 0-0.671 0-0.895v104.95h28.419v97.789h-28.419v55.272h37.147c25.51-0.224 46.321-21.035 46.321-46.545z" />
<glyph unicode="&#xe95d;" glyph-name="heating" d="M332.594 760.642c8.5-8.73 13.554-20.674 13.554-33.078s-4.824-24.35-13.554-33.078l-0.69-0.69c-2.986-3.676-5.972-7.58-8.73-11.486-6.202-8.73-6.892-20.214-2.068-29.634 4.824-9.648 14.472-15.62 25.268-15.62v0c9.418 0 18.148 4.594 23.43 12.404 1.838 2.526 3.676 5.054 5.742 7.58l0.69 0.918c17.228 19.066 26.646 43.876 26.646 69.834s-9.648 50.996-26.876 70.062l-0.23 0.23c-8.73 8.5-13.554 20.674-13.554 33.078s4.824 24.35 13.554 32.85l0.46 0.46c10.338 11.946 18.378 26.188 22.972 41.578 2.068 7.35 1.148 15.39-2.526 22.052s-9.878 11.716-17.228 13.782c-7.35 2.068-15.162 1.148-21.822-2.756-6.662-3.676-11.256-9.878-13.324-17.228-2.526-7.81-6.662-14.702-12.174-20.674-17.228-19.066-26.876-44.106-26.876-70.062s9.648-50.766 26.876-70.062l0.46-0.46zM645.924 760.412c8.958-8.73 14.012-20.674 14.012-33.078s-5.054-24.35-14.012-33.078l-0.69-0.69c-2.986-3.676-6.202-7.35-8.958-11.486-6.432-8.958-7.122-20.444-2.068-29.862 5.054-9.648 14.932-15.39 25.958-15.39v0c9.418 0 18.378 4.594 23.89 12.174 1.838 2.526 3.676 5.054 5.972 7.58l0.918 0.918c17.918 19.066 27.796 44.106 27.796 70.062 0 26.188-9.878 50.996-28.026 70.292l-0.23 0.23c-8.958 8.5-14.012 20.444-14.012 32.85 0 12.174 5.054 24.12 14.012 32.85l0.46 0.46c10.796 11.946 19.066 26.188 24.12 41.578 2.298 7.35 1.148 15.39-2.526 22.052-3.906 6.662-10.108 11.486-17.688 13.782-7.58 2.068-15.39 1.148-22.282-2.526-6.662-3.676-11.716-9.878-13.782-17.228-2.756-7.81-7.122-14.702-12.634-20.674-18.606-19.526-28.484-44.334-28.484-70.522 0-25.958 9.878-50.996 28.026-70.062l0.23-0.23zM478.922 760.642c8.5-8.73 13.554-20.674 13.554-33.078s-4.824-24.35-13.554-33.078l-0.69-0.69c-2.986-3.676-5.972-7.58-8.73-11.486-6.202-8.73-6.892-20.214-2.068-29.634 4.824-9.648 14.472-15.62 25.268-15.62v0c9.418 0 18.148 4.594 23.43 12.404 1.838 2.526 3.676 5.054 5.514 7.58l0.69 0.918c17.228 19.066 26.646 43.876 26.646 69.834s-9.648 50.996-26.876 70.062l-0.23 0.23c-8.73 8.5-13.554 20.674-13.554 33.078s4.824 24.35 13.554 32.85l0.46 0.46c10.338 11.946 18.378 26.188 23.202 41.578 2.068 7.35 1.148 15.39-2.526 22.052s-9.878 11.716-17.228 13.782c-7.35 2.068-15.162 1.148-21.822-2.756-6.662-3.676-11.256-9.878-13.324-17.228-2.526-7.81-6.662-14.702-12.174-20.674-17.228-19.066-26.876-44.106-26.876-70.062s9.648-50.766 26.876-70.062l0.46-0.46zM419.196 458.108v-290.36c0-7.58 3.216-15.162 8.73-20.444s12.864-8.5 20.674-8.5c7.81 0 15.162 2.986 20.674 8.5 5.514 5.284 8.73 12.864 8.73 20.444v290.36c0 15.85-13.094 28.944-29.174 28.944s-29.634-12.864-29.634-28.944zM546.228 458.108v-290.36c0-7.58 3.216-15.162 8.73-20.444s12.864-8.5 20.674-8.5c7.58 0 15.162 2.986 20.674 8.5 5.514 5.284 8.73 12.864 8.73 20.444v290.36c0 15.85-13.094 28.944-29.174 28.944-16.54 0-29.634-12.864-29.634-28.944zM292.394 458.108v-290.36c0-7.58 3.216-15.162 8.73-20.444 5.514-5.514 12.864-8.5 20.674-8.5 7.58 0 15.162 2.986 20.674 8.5 5.514 5.284 8.73 12.864 8.73 20.444v290.36c0 15.85-13.094 28.944-29.174 28.944-16.54 0-29.634-12.864-29.634-28.944zM168.806 458.108v-290.36c0-7.58 3.216-15.162 8.73-20.444s12.864-8.5 20.674-8.5c7.81 0 15.162 2.986 20.674 8.5 5.514 5.284 8.73 12.864 8.73 20.444v290.36c0 15.85-13.094 28.944-29.174 28.944-16.54 0-29.634-12.864-29.634-28.944zM669.814 458.108v-290.36c0-7.58 3.216-15.162 8.73-20.444s12.864-8.5 20.674-8.5c7.81 0 15.162 2.986 20.674 8.5 5.514 5.284 8.73 12.864 8.73 20.444v290.36c0 15.85-13.094 28.944-29.174 28.944-16.54 0-29.634-12.864-29.634-28.944zM796.616 458.108v-290.36c0-7.58 3.216-15.162 8.73-20.444s12.864-8.5 20.674-8.5 15.162 2.986 20.674 8.5c5.514 5.284 8.73 12.864 8.73 20.444v290.36c0 15.85-13.094 28.944-29.174 28.944s-29.634-12.864-29.634-28.944zM932.378 405.732c5.514-5.284 12.864-8.5 20.674-8.5 7.58 0 15.162 2.986 20.674 8.5 5.514 5.284 8.5 12.864 8.5 20.444v106.818c0 20.444-8.5 40.43-23.202 54.902l-13.782 13.554v-2.756c-3.216 1.838-6.432 3.676-9.878 5.284-10.108 4.364-20.674 6.662-31.93 6.662h-782.866c-20.674 0-40.89-8.27-55.59-22.742-14.932-14.702-23.202-34.228-23.202-54.902v-398.554c0-20.444 8.5-40.43 23.202-54.902 10.796-10.796 24.81-18.148 39.97-21.134v-34.916c0-18.836 7.35-36.294 20.904-49.618 13.324-13.324 31.242-20.444 50.308-20.444 18.836 0 36.754 7.35 50.308 20.444 13.554 13.324 20.904 30.782 20.904 49.618v33.308h529.722v-33.308c0-18.836 7.35-36.294 20.904-49.618 13.324-13.324 31.242-20.444 50.308-20.444 18.836 0 36.754 7.35 50.308 20.444 13.554 13.324 20.904 30.782 20.904 49.618v34.686c14.932 2.986 28.944 10.338 39.97 21.134 14.932 14.702 23.202 34.228 23.202 54.902v195.716c0 15.85-13.094 28.714-29.174 28.714s-29.174-12.864-29.174-28.714v-195.716c0-11.026-9.188-19.986-20.444-19.986h-783.326c-11.256 0-20.444 8.958-20.444 19.986v398.784c0 11.026 9.188 19.986 20.444 19.986h782.866c11.256 0 20.444-8.958 20.444-19.986v-106.818c0-7.58 2.986-15.162 8.5-20.444zM163.064 23.718v33.308h25.728v-33.308c0-6.892-5.742-12.634-12.864-12.634-6.892 0-12.864 5.742-12.864 12.634zM835.208 23.718v33.308h25.728v-33.308c0-6.892-5.742-12.634-12.864-12.634s-12.864 5.742-12.864 12.634z" />
<glyph unicode="&#xe967;" glyph-name="keys" d="M908.55 602.018c-15.966-50.478-50.244-95.088-98.844-123.026-104.478-60.34-238.54-25.356-299.35 77.948-5.166 8.922-14.792 15.026-25.356 15.73h-147.914l-52.826-52.826c-12.208-12.208-31.93-12.208-44.14 0l-40.148 40.148-40.148-40.148c-0.94-1.174-2.114-2.114-3.522-2.818-13.852-10.33-33.34-7.278-43.67 6.34l-93.678 123.496c-9.392 12.208-8.218 29.582 2.818 40.382 66.914 66.21 67.852 70.67 84.756 70.67h124.904c17.374 0 31.226-13.852 31.226-30.992s-14.088-30.992-31.226-30.992h-112.226l-34.044-33.808 55.878-73.722 36.862 36.862c12.208 12.208 31.93 12.208 44.14 0l40.148-40.148c40.852 40.852 45.078 49.304 62.452 49.304h160.592c32.87-0.234 63.392-17.608 79.592-45.782 13.618-23.478 33.34-42.966 57.052-56.582 74.896-42.73 170.454-17.374 213.418 56.582 7.982 13.618 13.618 28.174 17.14 42.73 21.366-4.93 40.618-15.26 56.114-29.348zM918.41 671.28c-19.488 11.27-41.322 19.018-64.566 22.774-7.982 42.966-34.278 82.174-75.6 105.652-74.896 42.73-170.454 17.374-213.418-56.582-16.434-28.644-46.956-46.488-80.062-47.192h-129.132c-17.374 0-31.226 13.852-31.226 30.992s14.088 30.992 31.226 30.992h130.304c11.034 0.47 20.896 6.808 26.060 16.434 30.756 50.948 81 87.104 139.462 100.252 117.862 26.296 235.018-46.488 261.784-162.94l0.234 0.234c3.052-13.618 4.46-27.234 4.93-40.618zM574.452 77.746h-250.044c-69.026 0-124.904 55.408-124.904 123.732s55.878 123.732 124.904 123.732h250.044c58.226 0 107.296-39.444 121.148-92.74h63.626c-15.026 87.574-92.036 154.488-184.774 154.488h-250.044c-103.54 0-187.358-83.114-187.358-185.48s84.052-185.48 187.358-185.48h250.044c92.74 0 169.984 66.914 184.774 154.488h-63.626c-13.852-53.296-62.922-92.74-121.148-92.74zM793.27 634.184h22.774c-10.8-18.314-30.992-30.756-54-30.756-34.278 0-62.452 27.704-62.452 61.748s28.174 61.748 62.452 61.748c23.008 0 43.2-12.444 54-30.756h-23.008c-17.374 0-31.226-13.852-31.226-30.992s14.088-30.992 31.462-30.992zM1011.854 510.688v-154.252c0-102.366-84.052-185.48-187.358-185.48v-0.47h-156.366c-17.374 0-31.226 13.852-31.226 30.992s14.088 30.992 31.226 30.992h156.366c69.026 0 124.904 55.408 124.904 123.732v154.488c0 36.156-15.73 68.792-40.852 91.566-15.496 14.088-34.748 24.182-56.114 29.114-9.156 2.114-18.548 3.052-28.174 3.052h-31.226c-17.374 0-31.226 13.852-31.226 30.992s14.088 30.992 31.226 30.992h31.226c10.096 0 19.722-0.704 29.348-2.348 23.244-3.522 44.844-11.504 64.566-22.774 56.114-32.166 93.678-92.036 93.678-160.592z" />
<glyph unicode="&#xe96c;" glyph-name="lift" d="M392.294 789.852c-16.574 0-29.926 12.892-29.926 28.776s13.352 28.776 29.926 28.776c16.574 0 29.926-12.892 29.926-28.776s-13.352-28.776-29.926-28.776zM512 789.852c-16.574 0-29.926 12.892-29.926 28.776s13.352 28.776 29.926 28.776c16.574 0 29.926-12.892 29.926-28.776s-13.352-28.776-29.926-28.776zM631.706 789.852c-16.574 0-29.926 12.892-29.926 28.776s13.352 28.776 29.926 28.776 29.926-12.892 29.926-28.776c0-15.884-13.582-28.776-29.926-28.776zM838.428 927.052c-5.524 5.524-13.122 8.748-20.948 8.748h-610.728c-16.344 0-29.696-13.352-29.696-29.696v-275.092c1.842-14.272 14.502-25.552 29.696-25.552 15.424 0 28.084 11.28 29.696 25.782 0.23 1.152 0.23 2.072 0.23 3.222v67.45h245.626v-594.844h-245.856v409.992c0 15.654-11.74 29.236-27.394 30.386-0.69 0-1.382 0-2.302 0-16.574 0-29.926-12.892-29.926-28.776v-528.776c0-7.826 2.992-15.424 8.748-20.948 5.294-5.524 12.662-8.518 20.488-8.748h611.88c7.596 0.23 14.964 3.222 20.258 8.748 5.524 5.524 8.748 13.122 8.748 20.948v915.978c0.23 8.058-2.992 15.654-8.518 21.178zM787.552 19.822h-551.106v27.624h551.106v-27.624zM787.552 107.070h-245.856v594.614h245.856v-594.614zM787.552 761.306h-551.106v114.872h551.106v-114.872z" />
<glyph unicode="&#xe970;" glyph-name="luggage" d="M689.754 567.042h-59.174v59.174c0 32.824-26.582 59.406-59.406 59.406h-118.58c-32.824 0-59.406-26.582-59.406-59.406v-59.174h-59.406c-32.824 0-59.406-26.582-59.406-59.406v-237.158h59.174v237.158h59.406v-237.158h59.406v237.158h118.58v-237.158h59.174v237.158h59.406v-237.158h59.636v237.158c0 32.824-26.582 59.406-59.406 59.406zM570.942 567.042h-118.58v59.174h118.58v-59.174zM927.374 270.478h-29.588v207.572c0 201.33-155.1 368.682-355.738 384.168v31.206c0 16.412-13.406 29.588-29.588 29.588s-29.588-13.406-29.588-29.588v-29.588c-201.33-15.486-356.662-183.764-355.968-385.786v-207.572h-30.28c-16.412 0-29.588-13.176-29.588-29.588v-118.81c0-16.412 13.406-29.588 29.588-29.588h34.904c-16.642-46.23 6.934-97.314 53.164-113.956 46.23-16.874 97.314 7.166 113.956 53.396 7.166 19.648 7.166 41.144 0 60.56h64.722c16.412 0 29.588 13.176 29.588 29.588s-13.406 29.588-29.588 29.588h-236.928v59.406h771.342v-59.406h-415.374c-16.412 0-29.588-13.176-29.588-29.588s13.406-29.588 29.588-29.588h242.706c-16.642-46.23 6.934-97.314 53.164-113.956 46.23-16.874 97.314 7.166 113.956 53.396 7.166 19.648 7.166 41.144 0 60.56h34.904c16.412 0 29.588 13.176 29.588 29.588v118.58c0.232 16.412-13.176 29.818-29.356 29.818zM215.436 92.494c16.412 0 29.588-13.406 29.588-29.588 0-16.412-13.406-29.588-29.588-29.588s-29.588 13.176-29.588 29.588c-0.232 16.412 13.176 29.588 29.588 29.588zM838.382 270.478h-148.86v-0.232h-59.406v0.232h-59.174v-0.232h-118.58v0.232h-59.406v-0.232h-59.406v0.232h-147.936v207.572c0 180.064 146.086 326.382 326.382 326.382s326.382-146.086 326.382-326.382v-207.572zM808.564 33.088c-16.412 0-29.588 13.176-29.588 29.588s13.406 29.588 29.588 29.588 29.588-13.406 29.588-29.588c0.232-16.18-13.176-29.588-29.588-29.588z" />
<glyph unicode="&#xe972;" glyph-name="maintenance" d="M513.84 549.22c-49.23 0-89.028-39.798-89.028-89.028s39.798-89.028 89.028-89.028 89.028 39.798 89.028 89.028-40.028 89.028-89.028 89.028zM341.076 460.422c0 95.47 77.296 172.766 172.766 172.766s172.766-77.296 172.766-172.766-77.296-172.766-172.766-172.766-172.766 77.296-172.766 172.766zM515.45-41.77c-29.676 0-58.892 11.962-80.056 33.126s-33.126 50.15-33.126 80.056v3.45c-0.23 7.822-2.76 15.414-7.362 21.854s-11.042 11.502-18.634 14.262c-0.69 0.23-1.15 0.46-1.84 0.69-7.362 3.22-15.184 4.14-23.004 2.76s-14.954-5.062-20.704-10.582l-2.3-2.3c-10.352-10.582-22.774-18.634-36.578-24.616-13.802-5.752-28.296-8.512-43.248-8.512s-29.676 2.99-43.248 8.512c-13.802 5.752-26.226 14.032-36.578 24.616-10.582 10.582-18.864 22.774-24.616 36.578s-8.512 28.296-8.512 43.248c0 14.954 2.99 29.676 8.512 43.248 5.752 13.802 14.032 26.226 24.616 36.578l2.3 2.3c5.522 5.752 9.202 12.882 10.582 20.704s0.46 15.874-2.76 23.234c0 0 0 0.23 0 0.23-2.99 7.132-8.052 13.112-14.492 17.484-6.442 4.14-14.032 6.442-21.854 6.672h-7.132c-29.676 0-58.892 11.962-80.056 33.126s-33.126 50.15-33.126 80.056c0 30.136 11.732 58.662 33.126 80.056 21.164 21.164 50.15 33.126 80.056 33.126h3.45c7.822 0.23 15.414 2.76 21.854 7.362s11.272 11.042 14.032 18.634c0.23 0.69 0.46 1.15 0.69 1.61 3.22 7.362 4.14 15.414 2.76 23.234s-5.062 14.954-10.582 20.474l-2.3 2.3c-10.582 10.582-18.864 22.774-24.616 36.578s-8.512 28.296-8.512 43.248c0 14.954 2.99 29.676 8.512 43.248 5.752 13.802 14.032 26.226 24.616 36.578 10.582 10.582 23.004 18.864 36.808 24.616s28.296 8.742 43.248 8.742 29.446-2.99 43.248-8.742c13.802-5.752 26.226-14.032 36.808-24.616l2.3-2.3c5.752-5.522 12.882-9.202 20.704-10.582s15.874-0.46 23.004 2.76c2.53 1.15 5.062 1.84 7.822 2.3 5.292 2.99 9.892 7.362 13.342 12.422 4.37 6.442 6.672 14.032 6.672 21.854v7.132c0 30.136 11.732 58.662 33.126 80.056 21.164 21.164 50.15 33.126 80.056 33.126 30.136 0 58.662-11.732 80.056-33.126s33.126-49.69 33.126-80.056v-3.68c0-7.592 2.3-15.184 6.672-21.624s10.352-11.502 17.484-14.724c0 0 0.23 0 0.23 0 7.362-3.22 15.414-4.14 23.234-2.76s14.954 5.062 20.474 10.582l2.3 2.3c10.582 10.582 23.004 18.864 36.808 24.616s28.296 8.742 43.248 8.742c14.954 0 29.446-2.99 43.248-8.742s26.226-14.032 36.808-24.616c10.582-10.582 18.864-23.004 24.384-36.578 5.752-13.802 8.512-28.296 8.512-43.248s-2.99-29.446-8.742-43.248c-5.522-13.572-13.802-25.996-24.616-36.578l-2.3-2.3c-5.522-5.752-9.202-12.882-10.582-20.704s-0.46-15.874 2.76-23.234c1.15-2.53 1.84-5.062 2.3-7.822 2.99-5.292 7.362-9.892 12.422-13.342 6.442-4.37 14.032-6.672 21.854-6.672h7.132c30.136 0 58.662-11.732 80.056-33.126s33.126-49.69 33.126-80.056c0-30.136-11.732-58.662-33.126-80.056s-49.69-33.126-79.826-33.126h-3.68c-7.592 0-15.184-2.3-21.624-6.672s-11.502-10.352-14.492-17.484c0 0 0-0.23 0-0.23-3.22-7.362-4.14-15.414-2.76-23.234s5.062-14.954 10.582-20.704l2.3-2.3c10.582-10.582 18.864-23.004 24.616-36.808s8.512-28.296 8.512-43.248c0-14.954-2.99-29.446-8.742-43.248-5.522-13.572-13.802-25.996-24.616-36.578-10.352-10.582-22.774-18.634-36.578-24.616-13.802-5.752-28.296-8.512-43.248-8.512s-29.676 2.99-43.248 8.512c-13.802 5.752-26.226 14.032-36.578 24.616l-2.3 2.3c-5.522 5.522-12.652 9.202-20.474 10.582s-15.874 0.46-23.234-2.76c0 0-0.23 0-0.23 0-7.132-2.99-13.112-8.052-17.484-14.492s-6.672-14.032-6.672-21.854v-6.902c0-30.136-11.732-58.662-33.126-80.056-22.544-21.394-50.84-33.126-80.976-33.126zM397.436 165.502c18.174-6.902 33.816-18.864 45.32-34.738 11.502-16.104 17.944-35.198 18.404-54.982 0-0.23 0-0.46 0-0.69v-3.68c0-14.262 5.752-28.296 15.874-38.418s24.154-15.874 38.418-15.874c14.492 0 28.066 5.752 38.418 15.874 10.352 10.352 15.874 23.924 15.874 38.418v7.132c0.23 19.324 5.752 37.958 16.334 54.062 10.582 15.874 25.536 28.526 43.018 36.118 17.944 7.822 37.728 10.352 57.052 6.672 19.554-3.45 37.268-12.652 51.3-26.456 0 0 0.23-0.23 0.23-0.23l2.53-2.53c5.062-5.062 11.042-8.972 17.714-11.732 6.442-2.76 13.572-4.14 20.704-4.14s14.262 1.38 20.704 4.14c6.672 2.76 12.652 6.672 17.714 11.732 5.292 5.292 9.202 11.042 11.732 17.714 2.76 6.672 4.14 13.802 4.14 20.934s-1.38 14.262-4.14 20.704c-2.76 6.672-6.672 12.652-11.732 17.714l-2.53 2.53c0 0-0.23 0.23-0.23 0.23-13.802 14.032-23.004 31.746-26.456 51.070s-1.15 39.108 6.672 57.282c7.592 17.714 20.014 32.666 36.118 43.248s34.738 16.334 54.062 16.334h3.91c14.492 0 28.066 5.752 38.418 15.874 10.352 10.352 15.874 23.924 15.874 38.418s-5.752 28.296-15.874 38.418c-10.352 10.352-23.924 15.874-38.418 15.874h-7.132c-19.324 0-37.958 5.752-54.062 16.334s-28.526 25.536-36.118 43.248c-1.15 2.76-2.070 5.982-2.3 8.972-5.982 16.564-7.592 34.046-4.37 51.3 3.45 19.324 12.652 37.038 26.456 51.3 0 0 0.23 0.23 0.23 0.23l2.53 2.53c5.062 5.062 9.202 11.042 11.732 17.484 2.76 6.672 4.14 13.802 4.14 20.934s-1.38 14.262-4.14 20.704c-2.76 6.672-6.672 12.652-11.732 17.714s-11.042 8.972-17.484 11.732c-13.572 5.522-28.526 5.522-41.638 0-6.672-2.76-12.652-6.672-17.714-11.732l-2.53-2.53c0 0-0.23-0.23-0.23-0.23-14.032-13.802-31.746-23.004-51.3-26.456-19.324-3.45-39.108-1.15-57.282 6.672-17.714 7.592-32.666 20.014-43.248 36.118-10.582 15.874-16.334 34.508-16.334 53.83v3.91c0 14.492-5.752 28.296-15.874 38.418-10.352 10.352-23.924 15.874-38.418 15.874-14.262 0-28.296-5.752-38.418-15.874-10.352-10.352-15.874-23.924-15.874-38.418v-7.132c0-19.324-5.752-37.958-16.334-54.062s-25.536-28.526-43.248-36.118c-2.76-1.15-5.982-2.070-8.972-2.3-16.334-5.982-34.046-7.592-51.3-4.37-19.324 3.45-37.038 12.652-51.3 26.456 0 0-0.23 0.23-0.23 0.23l-2.53 2.53c-5.062 5.062-11.042 8.972-17.484 11.732-13.572 5.522-28.526 5.522-41.638 0-6.672-2.76-12.652-6.672-17.714-11.732s-8.972-11.042-11.732-17.714c-2.76-6.672-4.14-13.572-4.14-20.704s1.38-14.262 4.14-20.704c2.76-6.672 6.672-12.652 11.732-17.714l2.53-2.53c0 0 0.23-0.23 0.23-0.23 13.802-14.032 23.004-31.746 26.456-51.3 3.45-19.094 1.15-38.648-6.442-56.362-6.902-18.174-18.864-33.816-34.738-45.32-16.104-11.502-35.198-17.944-54.982-18.404-0.23 0-0.46 0-0.69 0h-3.68c-14.262 0-28.296-5.752-38.418-15.874-10.352-10.352-15.874-23.924-15.874-38.418 0-14.262 5.752-28.296 15.874-38.418s24.154-15.874 38.418-15.874h7.132c19.324 0 37.958-5.752 54.062-16.334s28.526-25.536 36.118-43.248c7.822-17.944 10.352-37.728 6.672-57.052-3.45-19.554-12.652-37.268-26.456-51.3 0 0-0.23-0.23-0.23-0.23l-2.53-2.53c-5.062-5.062-8.972-11.042-11.732-17.714s-4.14-13.572-4.14-20.704c0-7.132 1.38-14.262 4.14-20.704 2.76-6.672 6.672-12.652 11.732-17.714s11.042-8.972 17.714-11.732c6.442-2.76 13.572-4.14 20.704-4.14s14.262 1.38 20.704 4.14c6.672 2.76 12.652 6.672 17.714 11.732l2.53 2.53c0 0 0.23 0.23 0.23 0.23 14.032 13.802 31.746 23.004 51.3 26.456 19.094 3.45 38.418 1.15 56.362-6.442zM821.874 322.394v0 0z" />
<glyph unicode="&#xe974;" glyph-name="map" d="M1011.012 236.276l-240.952 297.032c-4.99 5.94-12.594 8.792-20.436 7.842l-38.258-4.99c14.258 35.168 21.386 68.198 21.386 100.99 0 118.1-97.902 214.1-218.852 215.050h-2.138c-121.664 0-220.754-96.476-220.754-215.050 0-110.97 79.842-207.922 150.416-293.466 6.178-7.366 12.118-14.496 17.822-21.624l-124.278-24.712-76.99 131.406 28.99 4.040c6.178 0.238 12.118 2.852 16.158 7.604 4.278 4.752 6.178 11.406 5.466 17.822s-4.278 12.118-9.742 15.92c-5.228 3.564-11.644 4.752-17.822 3.326l-253.546-35.406c-7.366-0.95-13.782-5.466-17.108-12.118s-3.326-14.496 0.238-21.148l198.18-353.348c4.040-7.366 11.644-11.644 19.722-11.644 1.426 0 2.852 0.238 4.278 0.476l764.44 155.406c7.842 1.426 14.496 6.892 17.346 14.496s1.426 16.158-3.564 22.1zM952.319 236.514l-185.11-37.544-78.416 123.090 167.050 33.742 96.476-119.288zM312.87 246.97c1.664-1.426 3.564-2.614 5.702-3.564l120.476-53.704 30.178-51.564-229.308-46.336-70.574 126.416 143.526 28.752zM690.218 416.158c0.95 6.416-0.95 12.832-4.752 17.584l-17.346 22.1c6.416 9.504 13.306 20.198 19.722 31.128l55.366 7.604 80.792-99.564-141.624-28.514 7.842 49.664zM511.762 269.782c7.128 0 14.020 3.564 18.298 9.268 2.852 3.802 5.94 7.604 8.792 11.406l1.426 1.9 100.516 19.96 78.416-123.090-202.932-41.11-41.822 71.288c-2.376 4.040-6.178 7.366-10.456 9.030l-75.328 33.506 101.704 20.436c0.95-1.188 1.9-2.376 2.614-3.090 4.752-6.178 11.644-9.504 18.772-9.504zM585.188 347.248c18.772 22.812 37.782 46.1 55.842 70.1l2.852-3.564-9.504-56.792-49.188-9.742zM546.93 373.148c-11.644-14.258-23.524-28.99-35.168-43.722-11.406 14.496-23.524 29.228-35.168 43.722-69.148 85.070-140.674 172.99-140.674 263.764 0 93.862 78.892 170.14 175.604 170.14s175.604-76.278 175.604-170.14c0.476-90.772-71.050-178.694-140.198-263.764zM287.682 287.84l-141.386-28.278-79.842 142.338 143.288 19.722 77.94-133.782zM511.762 739.090c-59.406 0-107.644-48.238-107.644-107.406s48.238-107.406 107.644-107.406 107.644 48.238 107.644 107.406c0 59.168-48.238 107.406-107.644 107.406zM574.258 631.684c0-34.218-28.040-62.258-62.496-62.258s-62.496 28.040-62.496 62.258 28.040 62.258 62.496 62.258c34.456 0 62.496-28.040 62.496-62.258z" />
<glyph unicode="&#xe976;" glyph-name="no-bother" d="M665.558-44.4h-306.888c-51.034 0-92.182 41.378-92.182 92.412v392.632c0 35.172 19.54 67.124 51.034 82.756l239.304 119.766c10.344 5.288 17.012 16.092 16.782 27.586v54.252c0 17.012-13.792 30.804-30.574 30.804h-61.378c-17.012 0-30.574-13.792-30.574-30.804 0-51.034-41.148-92.412-92.182-92.412s-92.182 41.378-92.182 92.412c0 119.078 96.32 215.396 214.936 215.396h61.378c118.618 0 214.706-96.32 214.706-215.396v-492.4c0-17.012-13.792-30.804-30.574-30.804s-30.574 13.792-30.574 30.804v492.4c0 84.826-68.734 153.788-153.558 153.788h-61.378c-84.826 0-153.558-68.964-153.558-153.788 0-17.012 13.792-30.804 30.574-30.804s30.574 13.792 30.574 30.804c0 51.034 41.148 92.412 92.182 92.412h61.378c51.034 0 92.182-41.378 92.182-92.412v-54.252c0-35.172-19.54-67.124-51.034-82.756l-239.304-119.766c-10.344-5.288-17.012-16.092-16.782-27.586v-392.632c0-17.012 13.792-30.804 30.574-30.804h307.118c17.012 0 30.574 13.792 30.574 30.804v61.608c0 17.012 13.792 30.804 30.574 30.804s30.574-13.792 30.574-30.804v-61.608c0.23-51.034-40.918-92.412-91.722-92.412zM604.182 355.588h-122.756c-17.012 0-30.574 13.792-30.574 30.804s13.792 30.804 30.574 30.804h122.756c17.012 0 30.574-13.792 30.574-30.804 0-16.782-13.792-30.804-30.574-30.804zM604.182 232.604h-184.132c-17.012 0-30.574 13.792-30.574 30.804s13.792 30.804 30.574 30.804h184.132c17.012 0 30.574-13.792 30.574-30.804s-13.792-30.804-30.574-30.804zM542.804 109.388h-122.756c-17.012 0-30.574 13.792-30.574 30.804s13.792 30.804 30.574 30.804h122.756c17.012 0 30.574-13.792 30.574-30.804 0-16.782-13.792-30.804-30.574-30.804z" />
<glyph unicode="&#xe97a;" glyph-name="oven" d="M918.346 630.568c17.266 0 31.31 13.584 31.31 30.39v183.258c0 50.42-41.9 91.4-93.702 91.4h-687.91c-51.8 0-93.702-40.98-93.702-91.4v-792.202c0-50.42 42.132-91.4 93.702-91.4h687.91c51.8 0 93.702 40.98 93.702 91.4v487.616c0 16.806-14.044 30.39-31.31 30.39s-31.31-13.584-31.31-30.39v-487.616c0-16.806-14.044-30.39-31.31-30.39h-687.68c-17.266 0-31.31 13.584-31.31 30.39v578.554h781.612zM136.734 844.216c0 16.806 14.044 30.39 31.31 30.39h687.91c17.266 0 31.31-13.584 31.31-30.39v-152.408h-750.532v152.408zM355.678 813.596c-17.266 0-31.31-13.584-31.31-30.39s14.044-30.39 31.31-30.39c17.266 0 31.31 13.584 31.31 30.39 0 16.576-14.044 30.39-31.31 30.39zM230.666 813.596c-17.266 0-31.31-13.584-31.31-30.39s14.044-30.39 31.31-30.39c17.266 0 31.31 13.584 31.31 30.39 0 16.576-14.044 30.39-31.31 30.39zM793.334 813.596c-17.266 0-31.31-13.584-31.31-30.39s14.044-30.39 31.31-30.39c17.266 0 31.31 13.584 31.31 30.39 0.23 16.576-13.814 30.39-31.31 30.39zM668.322 813.596c-17.266 0-31.31-13.584-31.31-30.39s14.044-30.39 31.31-30.39 31.31 13.584 31.31 30.39c0 16.576-14.044 30.39-31.31 30.39zM543.31 813.596h-62.39c-17.266 0-31.31-13.584-31.31-30.39s14.044-30.39 31.31-30.39h62.39c17.266 0 31.31 13.584 31.31 30.39 0 16.576-14.044 30.39-31.31 30.39zM755.348 594.192h-486.694c-46.736 0-84.952-37.988-84.952-84.722v-357.078c0-46.736 37.988-84.722 84.952-84.722h486.694c46.736 0 84.952 37.988 84.952 84.722v357.078c-0.23 46.736-38.218 84.722-84.952 84.722zM246.090 509.47c0 12.432 10.13 22.792 22.792 22.792h486.694c12.432 0 22.792-10.13 22.792-22.792v-357.078c0-12.432-10.13-22.792-22.792-22.792h-486.924c-12.432 0-22.792 10.13-22.792 22.792v357.078z" />
<glyph unicode="&#xe981;" glyph-name="phone" d="M712.41 297.98c-21.96 21.036-53.396 30.050-83.678 24.502l-92.924-17.798c-27.97-5.548-52.010-23.116-64.724-47.386l-34.674-66.342c-93.156 25.426-165.968 95.004-192.090 184.46l68.884 33.056c25.426 12.252 43.92 35.136 49.466 62.18l18.492 88.994c6.472 28.664-2.312 58.944-23.346 79.98l-104.482 98.472c-36.292 34.674-95.236 34.674-131.296 0-3.236-3.006-6.242-6.472-8.784-9.94-162.040-211.274-114.19-508.54 106.33-663.644 14.562-10.17 29.588-19.88 45.306-28.2 14.794-8.322 33.98-3.236 42.532 11.096s3.468 32.362-11.326 40.684c-207.576 114.422-278.772 368.69-159.034 567.484 7.86 13.176 16.412 25.89 25.658 37.91 10.17 13.176 29.588 15.718 43.456 5.778 1.156-0.924 2.312-1.85 3.468-2.774l103.094-100.090c7.166-7.166 10.402-17.106 8.322-26.814l-18.492-88.994c-1.85-9.016-7.86-16.644-16.412-20.804l-91.306-41.608c-12.482-6.010-19.186-19.648-16.412-32.592 26.352-130.834 132.914-233.004 269.294-258.2 13.638-2.774 27.738 3.698 34.21 15.718l45.768 87.608c4.392 8.090 12.252 14.1 21.498 15.718l92.692 17.798c10.17 1.85 20.342-1.156 27.738-8.090l102.864-98.472c12.020-11.558 12.252-30.282 0.232-41.838-1.156-0.924-2.080-2.080-3.468-2.774-106.794-75.356-243.636-99.396-371.464-65.648-16.412 4.392-33.748-4.854-38.372-20.804s5.086-32.13 21.498-36.522c145.628-38.14 301.888-10.634 423.706 75.126 41.146 29.356 49.698 85.064 18.954 124.592-2.774 3.468-5.548 6.934-8.784 9.94l-102.864 98.472h0.462zM698.31 921.404c-138-16.412-242.942-126.672-247.566-259.818-1.618-70.040 24.964-95.004 15.95-148.4l-15.718-88.994c-3.698-16.18 6.934-31.668 23.578-35.366 3.93-0.924 8.090-0.924 12.020-0.232 92.924 14.562 115.114 23.808 166.894 9.94 148.17-39.528 301.888 43.688 343.032 185.848 41.376 142.16-45.538 289.636-193.708 329.164-33.98 8.784-69.346 11.558-104.482 7.86zM945.876 633.154c-12.482-114.19-119.276-196.712-238.32-184.692-12.020 1.156-24.040 3.468-36.060 6.704-49.698 12.944-101.938 12.944-151.174 0l8.552 49.236c10.864 70.502-16.412 92.23-16.412 156.492 3.006 104.25 84.834 190.47 192.782 202.954 118.814 13.406 226.532-68.19 240.4-182.15 2.080-16.18 2.080-32.362 0-48.542zM603.306 622.984c-18.492 0-33.98 14.562-33.98 32.362 0 18.030 15.026 32.362 33.98 32.362 18.724 0 33.98-14.562 33.98-32.362 0-18.030-15.026-32.362-33.98-32.362zM727.666 621.134c-18.492 0-33.98 14.562-33.98 32.362 0 18.030 15.026 32.362 33.98 32.362 18.724 0 33.98-14.562 33.98-32.362 0-18.030-15.026-32.362-33.98-32.362zM854.34 618.822c-18.492 0-33.98 14.562-33.98 32.362 0 18.030 15.026 32.362 33.98 32.362 18.724 0 33.98-14.562 33.98-32.362-0.232-18.030-15.256-32.362-33.98-32.362z" />
<glyph unicode="&#xe986;" glyph-name="porter" d="M448.784 817.186c0-17.012-14.022-30.804-31.494-30.804h-62.986v61.608h62.986c17.47 0 31.494-13.792 31.494-30.804zM669.466 847.988v-61.608h-126.204c-17.47 0-31.494 13.792-31.494 30.804s14.022 30.804 31.494 30.804h126.204zM775.67 342.716v-0.46l-137.698 36.78v15.172c59.078 40.228 94.48 106.204 94.71 176.776v92.412h31.264c17.47 0 31.494 13.792 31.494 30.804s-14.022 30.804-31.494 30.804h-31.264v122.986c0 51.034-42.298 92.412-94.71 92.412h-252.176c-52.182 0-94.71-41.378-94.71-92.412v-277.004c0-70.342 35.402-136.548 94.71-176.776v-15.172l-137.698-36.78c-123.214-32.642-208.96-142.064-208.96-266.89v-88.964c0-17.012 14.022-30.804 31.494-30.804h94.71c17.47 0 31.494 13.792 31.494 30.804s-14.022 30.804-31.494 30.804h-62.756v58.16c0 97.008 66.664 182.294 162.524 207.81l128.042 34.022c10.114-29.424 31.034-54.022 58.848-68.964l-6.666-6.666c-17.93-17.24-27.816-40.918-27.816-65.056v-159.076h-125.974c-17.47 0-31.494-13.792-31.494-30.804s14.022-30.804 31.494-30.804h661.59c17.47 0 31.494 13.792 31.494 30.804v88.964c0 124.824-85.744 234.246-208.96 267.118zM354.534 847.988c0 17.012 14.022 30.804 31.494 30.804h252.176c17.47 0 31.494-13.792 31.494-30.804v-122.986h-315.164v122.986zM354.534 571.214v92.412h315.164v-92.412c0-85.056-70.342-153.788-157.466-153.788-87.354-0.23-157.696 68.734-157.696 153.788zM449.244 355.588v8.736c0 0-0.23 0-0.23 0h0.23c40.918-11.724 84.826-11.724 125.974 0v-8.736c0-33.792-28.276-61.608-62.986-61.608-34.712 0.23-62.986 27.816-62.986 61.608zM921.644 17.208h-441.138v159.076c0 16.092 6.666 19.31 45.976 57.93 48.274 5.746 89.192 37.93 104.824 82.986l128.042-34.022c96.090-25.516 162.524-110.802 162.524-207.81v-58.16zM763.946 78.814h-125.974c-17.47 0-31.494 13.792-31.494 30.804s14.022 30.804 31.494 30.804h125.974c17.47 0 31.494-13.792 31.494-30.804s-14.022-30.804-31.494-30.804z" />
<glyph unicode="&#xe98a;" glyph-name="restaurant" d="M587.666 528.91c-6.493 0-14.235 2.247-18.481 7.491-64.18 66.176-24.971 140.097 4.246 170.563l226 226c9.738 9.738 27.221 9.738 36.959 0s9.738-27.221 0-36.959l-226-227.001c-7.491-8.74-46.7-52.192-4.246-96.645 9.738-10.987 9.738-27.221 0-36.959-5.495-4.246-11.988-6.242-18.481-6.493v0zM176.868-3.253c-20.728 0-41.205 7.491-57.687 28.219-33.714 42.454-15.233 87.902 6.493 107.632l357.357 375.835-71.42 69.424c-7.491 6.493-9.738 17.48-6.493 27.221 0.998 3.245 25.972 86.904-62.931 181.299-47.698 50.943-140.097 127.111-219.507 55.44-18.481-16.231-29.217-43.452-30.466-73.918-0.998-34.712 10.987-90.152 74.916-154.329 96.645-96.645 167.315-60.932 170.563-58.685 9.738 5.495 22.724 4.246 31.464-4.246l41.704-39.457c10.987-9.738 10.987-27.221 0.998-36.959-9.738-10.987-27.221-10.987-36.959-0.998l-30.965 28.718c-35.961-10.987-118.371-20.728-214.015 75.917-77.166 77.166-91.15 146.587-90.152 192.289 0.998 44.45 18.481 84.657 47.698 110.877 80.411 72.669 190.042 49.945 292.179-58.685 86.904-92.399 84.657-181.299 78.164-217.26l79.413-77.166c9.738-9.738 10.987-25.972 0.998-36.959l-376.585-395.314c-6.493-6.493-15.233-20.728-2.247-37.957s37.957-3.245 44.45 0.998l427.029 446.508c8.74 9.738 22.724 10.987 33.714 3.245 22.724-15.233 66.176 9.738 81.409 20.728l224.252 224.252c6.744 6.744 16.482 10.24 25.972 8.241 21.475-4.246 25.721-30.466 12.735-43.452l-219.758-222.256c-4.745-4.745-9.738-8.74-15.233-12.487-20.976-13.485-73.419-42.953-116.62-29.468l-416.042-434.52c-0.998-0.998-2.247-2.247-4.246-3.245-13.485-8.74-36.209-19.479-60.185-19.479v0zM888.585-23.981h-3.245c-33.714 0.998-57.687 28.219-62.931 33.714l-254.219 263.709c-9.738 10.987-9.738 27.221 0.998 36.959 10.987 9.738 27.221 9.738 36.959-0.998l255.967-264.707c4.246-4.246 16.231-15.233 25.972-15.233 2.247 0 6.493 0 14.235 7.491 18.481 18.481 7.491 36.959 2.247 43.452l-262.46 276.695c-9.738 10.987-9.738 27.221 0.998 36.959 10.987 9.738 27.221 9.738 36.959-0.998l262.711-278.942c21.726-24.971 36.959-74.916-4.246-116.121-17.48-17.48-35.961-21.977-49.945-21.977v0zM675.571 637.54c-4.246 0-8.74 2.247-12.986 5.495-6.493 6.493-6.493 18.481 0 24.971l210.767 204.274c6.493 6.493 18.481 6.493 24.971 0s6.493-18.481 0-24.971l-210.767-205.275c-3.245-3.245-7.742-4.494-11.988-4.494v0zM729.759 582.351c-4.246 0-8.74 2.247-12.986 5.495-6.493 6.493-6.493 18.481 0 24.971l213.014 204.274c6.493 6.493 18.481 6.493 24.971 0s6.493-18.481 0-24.971l-211.768-204.274c-3.245-4.494-8.74-5.495-13.234-5.495v0zM285.501 572.362c-57.687 0-107.632 64.18-110.877 67.425-5.495 7.491-4.246 18.481 3.245 24.971 7.491 5.495 18.481 4.246 24.971-3.245 0.998-0.998 60.932-77.166 105.385-46.7 7.491 5.495 18.481 3.245 23.973-4.246s3.245-18.481-4.246-23.973c-14.235-9.738-28.219-14.235-42.454-14.235v0z" />
<glyph unicode="&#xe990;" glyph-name="smart-locker" d="M830 600.206c17.73 0 31.776 13.586 31.776 30.396v213.228c0 50.428-42.6 91.186-95.56 91.186h-508.89c-52.732 0-95.56-40.988-95.56-91.186v-791.428c0-50.428 42.6-91.186 95.56-91.186h509.12c52.5 0 95.56 40.988 95.56 91.186v456.62c0 16.81-14.276 30.396-31.776 30.396s-31.776-13.586-31.776-30.396v-456.62c0-16.81-14.276-30.396-31.776-30.396h-509.12c-17.5 0-31.776 13.586-31.776 30.396v548.036l604.222-0.23zM257.554 874.224h509.12c17.73 0 31.776-13.586 31.776-30.396v-182.602h-572.674v182.602c0 16.81 14.276 30.396 31.776 30.396zM502.79 732.84l9.21 8.75 9.21-8.75c12.434-11.974 32.468-11.974 44.902 0 12.204 11.744 12.204 31.086 0 42.83l-31.776 30.396c-12.434 11.974-32.468 11.974-44.902 0l-31.776-30.396c-12.204-11.744-12.204-31.086 0-42.83 12.664-11.974 32.698-11.974 45.132 0zM543.776 322.044v186.976c0 16.81-14.276 30.396-31.776 30.396h-63.784c-17.5 0-31.776-13.586-31.776-30.396s14.276-30.396 31.776-30.396h31.776v-60.79h-31.776c-17.5 0-31.776-13.586-31.776-30.396s14.276-30.396 31.776-30.396h31.776v-34.77c-67.928-16.81-109.146-83.126-91.416-148.292s87.042-104.312 155.2-87.502c67.928 16.81 109.146 83.126 91.416 148.292-11.514 42.83-46.514 76.218-91.416 87.272zM512 143.818c-35.23 0-63.784 27.172-63.784 60.79s28.554 60.79 63.784 60.79c35.23 0 63.784-27.172 63.784-60.79s-28.554-60.79-63.784-60.79z" />
<glyph unicode="&#xe993;" glyph-name="study-room" d="M4.93 105.094c2.868-13.142 15.772-21.268 28.914-18.4 78.378 17.206 158.19 23.178 237.046 18.16 79.096-5.018 157.474-21.028 232.984-48.030 5.018-1.912 10.754-1.912 16.25 0 75.51 27.002 153.89 43.012 232.984 48.030 78.856 5.018 158.43-0.956 236.57-18.16 1.912-0.478 3.824-0.716 5.736-0.716 13.382 0 24.134 10.754 24.134 24.134v687.244c-0.478 10.514-8.124 19.834-18.878 22.224-82.44 18.16-166.794 24.374-250.428 19.116-80.768-5.018-160.82-21.028-238.002-47.792-77.184 26.764-157.234 42.774-238.002 47.792-83.396 5.258-167.51-0.956-249.95-19.116-11.232-2.15-19.594-11.948-19.594-23.896v-685.334c-0.238-1.912 0-3.584 0.238-5.258zM753.11 790.666c72.644 4.54 146.004-0.238 218.17-14.338v-636.586c-73.122 13.62-147.198 17.922-221.036 13.142-72.404-4.54-144.092-17.922-213.868-39.906v635.152c70.254 23.656 143.376 37.756 216.736 42.534zM52.96 776.33c72.166 14.098 145.526 18.878 218.17 14.338 73.36-4.54 146.242-18.878 216.736-42.534v-634.914c-69.536 21.984-141.464 35.126-213.868 39.906-73.838 4.78-147.916 0.238-221.036-13.142v636.346zM596.352 636.3v0c50.182 13.62 101.318 22.94 151.978 26.286 50.42 3.106 101.080 0.238 150.782-10.754 13.142-2.868 26.046 5.496 28.914 18.4 2.868 13.142-5.496 26.046-18.4 28.914-54.244 11.948-109.204 15.054-164.404 11.708-54.722-3.346-108.726-13.382-161.774-27.72-12.904-3.584-20.55-16.728-16.966-29.63 3.824-13.142 16.966-20.55 29.87-17.206zM596.352 498.42v0c50.182 13.62 101.318 22.94 151.978 26.286 50.42 3.106 101.080 0.238 150.782-10.754 13.142-2.868 26.046 5.496 28.914 18.4 2.868 13.142-5.496 26.046-18.4 28.914-54.244 11.948-109.204 15.054-164.404 11.708-54.722-3.346-108.726-13.382-161.774-27.72-12.904-3.584-20.55-16.728-16.966-29.63 3.824-13.142 16.966-20.79 29.87-17.206zM596.352 360.302v0c50.182 13.62 101.318 22.94 151.978 26.286 50.42 3.106 101.080 0.238 150.782-10.754 13.142-2.868 26.046 5.496 28.914 18.4 2.868 13.142-5.496 26.046-18.4 28.914-54.244 11.948-109.204 15.054-164.404 11.708-54.722-3.346-108.726-13.382-161.774-27.72-12.904-3.584-20.55-16.728-16.966-29.63 3.824-13.142 16.966-20.79 29.87-17.206zM596.352 222.184v0c50.182 13.62 101.318 22.94 151.978 26.286 50.42 3.106 101.080 0.238 150.782-10.754 13.142-2.868 26.046 5.496 28.914 18.4 2.868 13.142-5.496 26.046-18.4 28.914-54.244 11.948-109.204 15.054-164.404 11.708-54.482-3.346-108.726-13.382-161.774-27.72-12.904-3.584-20.55-16.728-16.966-29.63 3.824-12.904 16.966-20.55 29.87-17.206zM123.214 651.832v0c49.704 10.992 100.362 13.86 150.782 10.754 50.898-3.106 102.036-12.664 151.978-26.286 12.904-3.584 26.286 4.062 29.63 16.966 3.584 12.904-4.062 26.286-16.966 29.63-52.81 14.338-107.054 24.374-161.774 27.72-54.96 3.346-110.16 0.238-164.404-11.708-13.142-2.868-21.268-15.772-18.4-28.914 3.106-12.664 16.010-21.028 29.152-18.16zM123.214 513.952v0c49.704 10.992 100.362 13.86 150.782 10.754 50.898-3.106 102.036-12.664 151.978-26.286 12.904-3.584 26.286 4.062 29.63 16.966 3.584 12.904-4.062 26.286-16.966 29.63-52.81 14.338-107.054 24.374-161.774 27.72-54.96 3.346-110.16 0.238-164.404-11.708-13.142-2.868-21.268-15.772-18.4-28.914 3.106-12.904 16.010-21.028 29.152-18.16zM123.214 375.834v0c49.704 10.992 100.362 13.86 150.782 10.754 50.898-3.106 102.036-12.664 151.978-26.286 12.904-3.584 26.286 4.062 29.63 16.966 3.584 12.904-4.062 26.286-16.966 29.63-52.81 14.338-107.054 24.374-161.774 27.72-54.96 3.346-110.16 0.238-164.404-11.708-13.142-2.868-21.268-15.772-18.4-28.914 3.106-12.664 16.010-21.028 29.152-18.16zM123.214 237.716v0c49.704 10.992 100.362 13.86 150.782 10.754 50.898-3.106 102.036-12.664 151.978-26.286 12.904-3.584 26.286 4.062 29.63 16.966 3.584 12.904-4.062 26.286-16.966 29.63-52.81 14.338-107.054 24.374-161.774 27.72-54.96 3.346-110.16 0.238-164.404-11.708-13.142-2.868-21.268-15.772-18.4-28.914 3.106-12.664 16.010-21.028 29.152-18.16z" />
<glyph unicode="&#xe99c;" glyph-name="terrace" d="M1000.34 562.986c-26.282 150.89-131.414 227.392-214.954 265.172-117.334 53.034-238.186 53.738-272.682 52.566h-1.174c-8.918 0.234-18.774 0.234-26.986 0h-3.754c-51.158-1.174-147.37-9.856-241.94-52.566-83.542-37.782-188.672-114.518-214.954-265.408-1.642-8.918 0.938-18.070 6.57-24.874 5.632-7.040 14.080-11.030 23.232-11.030h428.5v-160.512c0-8.214 3.050-15.958 8.682-21.824s13.376-9.152 21.59-9.152c7.978 0 15.958 3.286 21.59 9.152s8.682 13.846 8.682 21.824v160.746h331.818c0.234 0 0.234 0 0.47 0 7.978 0 15.722 3.286 21.354 8.918 5.866 5.866 8.918 13.61 8.918 21.824s-3.286 15.958-8.918 21.824c-5.632 5.866-13.61 8.918-21.59 8.918h-782.378c24.64 82.134 81.898 144.086 170.602 184.214 84.48 38.25 183.51 49.514 248.042 47.402h2.112c64.534 2.112 163.562-9.152 248.042-47.402 47.402-21.354 86.122-48.81 114.986-81.664 33.558-38.016 55.382-84.48 64.768-138.218 1.174-8.214 5.398-15.488 11.968-20.416s15.018-7.040 22.998-5.398c7.978 1.408 15.254 6.102 19.946 13.142 4.458 6.102 6.102 14.55 4.458 22.762zM265.836 155.136h5.866c7.978 0 15.958 3.050 21.59 8.918 5.632 5.632 8.918 13.61 8.918 21.824s-3.286 15.958-8.918 21.824c-5.632 5.866-13.61 9.152-21.59 8.918h-173.888c-7.744 0.234-9.386 2.112-10.56 3.286-2.112 2.346-3.52 6.806-3.99 12.672v166.848c0.234 8.682-3.286 17.13-9.622 23.232s-15.018 8.918-23.702 7.978l-7.274-1.408v-0.938c-11.734-4.458-19.712-15.958-19.478-29.098v-170.134c1.174-20.886 8.214-38.954 20.416-51.862 5.398-5.632 11.498-10.326 18.774-13.846l-37.312-105.13c-3.286-7.744-3.52-16.426-0.234-24.17 3.286-7.978 9.622-14.080 17.6-17.13 7.978-2.816 16.896-2.346 24.406 1.878 7.274 3.99 12.672 10.794 15.018 19.008l41.536 117.568h78.378l41.536-117.568c2.112-8.214 7.51-15.018 15.018-19.008 4.458-2.346 9.386-3.52 14.314-3.52 3.52 0 6.806 0.704 10.090 1.878 7.978 2.816 14.314 9.152 17.6 17.13 3.050 7.744 3.050 16.662-0.234 24.17l-34.262 96.682zM998.698 57.984l-37.312 105.366c7.274 3.52 13.61 8.214 18.774 13.846 12.202 12.906 19.242 30.976 20.416 51.862v169.898c0.234 8.682-3.286 17.13-9.622 23.232-4.224 3.754-9.152 6.336-14.55 7.51v1.408l-9.152-0.938c-15.722-1.642-27.222-15.018-26.752-30.976v-167.082c-0.47-7.51-2.346-11.030-3.99-12.672-1.174-1.174-2.816-3.050-10.326-3.286h-173.888c-7.978 0-15.958-3.050-21.59-8.918-5.632-5.632-8.918-13.61-8.918-21.824s3.286-15.958 8.918-21.824c5.632-5.866 13.61-9.152 21.59-8.918h6.102l-34.262-96.918c-3.286-7.744-3.52-16.426-0.234-24.17 3.286-7.978 9.622-14.080 17.6-17.13 3.286-1.174 6.806-1.878 10.090-1.878 4.928 0 9.856 1.174 14.314 3.52 7.274 3.99 12.672 10.794 15.018 19.008l41.536 117.568h78.378l41.536-117.568c2.112-8.214 7.51-15.018 15.018-19.008s16.426-4.694 24.406-1.878c7.978 2.816 14.314 9.152 17.6 17.13 2.816 8.214 2.816 17.13-0.704 24.64zM719.21 307.67c-5.866 5.866-13.376 8.918-21.59 8.918h-371.008c-0.938 0-1.878 0-2.816 0l-12.672-0.704 1.174-2.346c-3.52-1.642-6.806-4.224-9.386-7.040-5.398-6.102-8.214-13.846-7.744-22.058 0.47-7.978 3.99-15.722 9.856-21.12s13.61-8.448 21.59-7.978h155.35v-177.408h-30.742c-0.938 0-2.112 0-3.050 0-7.978-0.47-15.488-3.99-20.886-10.090-5.162-5.866-7.978-14.080-7.51-22.058s3.99-15.722 9.856-21.12c5.632-5.162 12.906-7.978 20.182-7.978 0.47 0 0.938 0 1.408 0h121.792c0.234 0 0.234 0 0.47 0 7.978 0 15.722 3.286 21.354 8.918s8.918 13.61 8.918 21.824c0 8.214-3.286 15.958-8.918 21.824-5.866 5.866-13.376 8.918-21.59 8.918h-30.976v177.408h155.114c7.978-0.234 15.958 3.050 21.59 8.918 5.866 5.866 8.918 13.61 8.918 21.824 0.234 7.978-3.050 15.722-8.682 21.354z" />
<glyph unicode="&#xe9a0;" glyph-name="tv" d="M853.92 458.968c-9.538-10.252-30.282-6.2-46.734 9.3l-176.922 168.1c-16.214 15.498-21.936 36.242-12.398 46.734 9.538 10.252 30.282 6.2 46.734-9.3l177.16-168.1c16.214-15.498 21.698-36.242 12.16-46.734zM865.366 564.596c-9.538-10.252-25.036-11.206-34.812-1.908l-105.152 99.906c-9.776 9.3-10.014 25.036-0.476 35.288s25.036 11.206 34.812 1.908l105.39-99.906c9.538-9.3 9.776-25.036 0.238-35.288zM949.296 845h-874.592c-40.772 0-73.916-33.382-73.916-74.154v-529.334c0-41.012 33.142-74.154 73.916-74.154h874.592c40.772 0 73.916 33.382 73.916 74.154v529.334c0 41.012-33.142 74.154-73.916 74.154zM61.352 770.846c0 7.392 5.96 13.59 13.352 13.59h874.592c7.392 0 13.352-5.96 13.352-13.59v-529.334c0-7.392-5.96-13.59-13.352-13.59h-874.592c-7.392 0-13.352 5.96-13.352 13.59v529.334zM806.71 111.564h-589.42c-16.69 0-30.282-13.59-30.282-30.282s13.59-30.282 30.282-30.282h589.42c16.69 0 30.282 13.59 30.282 30.282s-13.59 30.282-30.282 30.282z" />
</font>
</defs>
</svg>
