<svg id="Capa_1" data-name="Capa 1" xmlns="http://www.w3.org/2000/svg" viewBox="0 0 711.1 295.1">
  <defs>
    <style>
      .cls-1 {
        fill: #f4f1ee;
        stroke-width: 0px;
      }
    </style>
  </defs>
  <path class="cls-1" d="M231,180.4c0,9.4-4.8,14.4-13.5,14.4s-13.5-5.1-13.5-14.4v-65.8c0-9.4,4.8-14.5,13.5-14.5s13.5,5.1,13.5,14.5v65.8ZM217.5,82.5c-19.1,0-30.9,12.1-30.9,32v66.1c0,19.9,11.7,32,30.9,32,9.5,0,17.2-3,22.6-8.5.5-.5,1-1.1,1.5-1.7,4.4-5.4,6.9-12.8,6.9-21.8v-66.1c-.2-19.9-11.9-32-31-32"/>
  <path class="cls-1" d="M159.7,180.4c0,9.4-4.8,14.4-13.5,14.4s-13.5-5.1-13.5-14.4v-65.8c0-9.4,4.8-14.5,13.5-14.5s13.5,5.1,13.5,14.5v10.4h17.4v-10.5c0-19.9-11.8-32-30.9-32s-30.9,12.1-30.9,32v66.1c0,19.9,11.7,32,30.9,32,9.6,0,17.2-3,22.6-8.5.5-.5,1-1.1,1.5-1.7,4.4-5.4,6.9-12.8,6.9-21.8v-15.1h-17.4v14.9h-.1Z"/>
  <polygon class="cls-1" points="254.3 102.4 274.5 102.4 274.5 210.8 293.5 210.8 293.5 102.4 313.7 102.4 313.7 84.3 254.3 84.3 254.3 102.4"/>
  <path class="cls-1" d="M364.3,180.4c0,9.4-4.8,14.5-13.5,14.5s-13.5-5.1-13.5-14.5v-65.8c0-9.4,4.8-14.5,13.5-14.5s13.5,5.1,13.5,14.5v65.8ZM350.8,82.5c-19.1,0-30.9,12.1-30.9,32v66.1c0,19.9,11.7,32,30.9,32s30.9-12.1,30.9-32v-66.1c0-19.9-11.8-32-30.9-32"/>
  <polygon class="cls-1" points="459.8 168.1 459.5 168.1 448.8 84.3 432 84.3 421.2 168.1 420.9 168.1 410 84.3 390.5 84.3 409.8 210.8 429.1 210.8 440 135.4 440.4 135.4 451.1 210.8 470.4 210.8 489.7 84.3 470.8 84.3 459.8 168.1"/>
  <polygon class="cls-1" points="542 159.6 541.6 159.6 519.3 84.3 498.2 84.3 498.2 210.8 516.1 210.8 516.1 126.9 516.4 126.9 541.3 210.8 559.9 210.8 559.9 84.3 542 84.3 542 159.6"/>
  <rect class="cls-1" x="578" y="192.7" width="17.8" height="18"/>
</svg>