<svg id="Capa_1" data-name="Capa 1" xmlns="http://www.w3.org/2000/svg" viewBox="0 0 711.1 295.1">
  <defs>
    <style>
      .cls-1 {
        fill: #000;
        stroke-width: 0px;
      }
    </style>
  </defs>
  <path class="cls-1" d="M230.95,180.4c0,9.4-4.8,14.4-13.5,14.4s-13.5-5.1-13.5-14.4v-65.8c0-9.4,4.8-14.5,13.5-14.5s13.5,5.1,13.5,14.5v65.8ZM217.45,82.5c-19.1,0-30.9,12.1-30.9,32v66.1c0,19.9,11.7,32,30.9,32,9.5,0,17.2-3,22.6-8.5.5-.5,1-1.1,1.5-1.7,4.4-5.4,6.9-12.8,6.9-21.8v-66.1c-.1-19.9-11.9-32-31-32"/>
  <path class="cls-1" d="M159.65,180.4c0,9.4-4.8,14.4-13.5,14.4s-13.5-5.1-13.5-14.4v-65.8c0-9.4,4.8-14.5,13.5-14.5s13.5,5.1,13.5,14.5v10.4h17.4v-10.5c0-19.9-11.8-32-30.9-32s-30.9,12.1-30.9,32v66.1c0,19.9,11.7,32,30.9,32,9.6,0,17.2-3,22.6-8.5.5-.5,1-1.1,1.5-1.7,4.4-5.4,6.9-12.8,6.9-21.8v-15.1h-17.5v14.9Z"/>
  <polygon class="cls-1" points="254.25 102.4 274.45 102.4 274.45 210.8 293.45 210.8 293.45 102.4 313.65 102.4 313.65 84.3 254.25 84.3 254.25 102.4"/>
  <path class="cls-1" d="M364.25,180.4c0,9.4-4.8,14.5-13.5,14.5s-13.5-5.1-13.5-14.5v-65.8c0-9.4,4.8-14.5,13.5-14.5s13.5,5.1,13.5,14.5v65.8ZM350.75,82.5c-19.1,0-30.9,12.1-30.9,32v66.1c0,19.9,11.7,32,30.9,32s30.9-12.1,30.9-32v-66.1c0-19.9-11.7-32-30.9-32"/>
  <polygon class="cls-1" points="459.85 168.1 459.45 168.1 448.75 84.3 431.95 84.3 421.25 168.1 420.85 168.1 409.95 84.3 390.45 84.3 409.75 210.8 429.05 210.8 439.95 135.4 440.35 135.4 451.05 210.8 470.35 210.8 489.65 84.3 470.75 84.3 459.85 168.1"/>
  <polygon class="cls-1" points="541.95 159.6 541.65 159.6 519.25 84.3 498.15 84.3 498.15 210.8 516.05 210.8 516.05 126.9 516.45 126.9 541.25 210.8 559.85 210.8 559.85 84.3 541.95 84.3 541.95 159.6"/>
  <rect class="cls-1" x="578.05" y="192.7" width="17.8" height="18"/>
</svg>