<svg width="114" height="32" viewBox="0 0 114 32" fill="none" xmlns="http://www.w3.org/2000/svg">
<path class="svg_base" d="M9.9395 19.8031H14.4011V23.7928C14.4011 28.5976 11.9987 31.3432 7.3655 31.3432C2.7323 31.3432 0.3299 28.5976 0.3299 23.7928V8.1772C0.3299 3.3724 2.7323 0.626801 7.3655 0.626801C11.9987 0.626801 14.4011 3.3724 14.4011 8.1772V11.0944H9.9395V7.8769C9.9395 5.7319 8.9957 4.9168 7.4942 4.9168C5.9927 4.9168 5.0489 5.7319 5.0489 7.8769V24.0931C5.0489 26.2381 5.9927 27.0103 7.4942 27.0103C8.9957 27.0103 9.9395 26.2381 9.9395 24.0931V19.8031Z" fill="#00BFB2"/>
<path class="svg_base" d="M21.5972 7.8769V24.0931C21.5972 26.2381 22.541 27.0532 24.0425 27.0532C25.544 27.0532 26.4878 26.2381 26.4878 24.0931V7.8769C26.4878 5.7319 25.544 4.9168 24.0425 4.9168C22.541 4.9168 21.5972 5.7319 21.5972 7.8769ZM16.8782 23.7928V8.1772C16.8782 3.3724 19.4093 0.626801 24.0425 0.626801C28.6757 0.626801 31.2068 3.3724 31.2068 8.1772V23.7928C31.2068 28.5976 28.6757 31.3432 24.0425 31.3432C19.4093 31.3432 16.8782 28.5976 16.8782 23.7928ZM32.9007 5.26V0.97H47.4867V5.26H42.5532V31H37.8342V5.26H32.9007ZM53.8979 7.8769V24.0931C53.8979 26.2381 54.8417 27.0532 56.3432 27.0532C57.8447 27.0532 58.7885 26.2381 58.7885 24.0931V7.8769C58.7885 5.7319 57.8447 4.9168 56.3432 4.9168C54.8417 4.9168 53.8979 5.7319 53.8979 7.8769ZM49.1789 23.7928V8.1772C49.1789 3.3724 51.71 0.626801 56.3432 0.626801C60.9764 0.626801 63.5075 3.3724 63.5075 8.1772V23.7928C63.5075 28.5976 60.9764 31.3432 56.3432 31.3432C51.71 31.3432 49.1789 28.5976 49.1789 23.7928ZM78.7578 31L77.0418 14.9983L75.3258 31H68.8479L65.5017 0.97H70.092L72.6231 24.6508L74.8968 0.97H79.4442L81.8037 24.8224L84.249 0.97H88.3674L85.0212 31H78.7578ZM100.829 31L94.9515 9.2497V31H90.7044V0.97H96.6246L101.472 18.9451V0.97H105.677V31H100.829Z" fill="white"/>
<path class="svg_base" d="M109.055 26.4526H113.603V31H109.055V26.4526Z" fill="#08BDBD"/>
</svg>
