<?xml version="1.0" encoding="utf-8"?>
<!-- Generator: Adobe Illustrator 27.5.0, SVG Export Plug-In . SVG Version: 6.00 Build 0)  -->
<svg version="1.1" id="Capa_1" xmlns="http://www.w3.org/2000/svg" xmlns:xlink="http://www.w3.org/1999/xlink" x="0px" y="0px"
	 viewBox="0 0 512 512" style="enable-background:new 0 0 512 512;" xml:space="preserve">
<style type="text/css">
	.svg_base{fill:#343434;}
	.svg_accent{fill:#00BFB2;}
</style>
<g>
	<path  class="svg_base" d="M207.4,202.3h18.7c2.8,0,4.7-1.9,4.7-4.7V165c0-2.8-1.9-4.7-4.7-4.7h-18.7c-2.8,0-4.7,1.9-4.7,4.7v32.7
		C202.8,200.4,204.6,202.3,207.4,202.3z M212.1,169.6h9.3V193h-9.3V169.6z"/>
	<path  class="svg_base" d="M249.5,202.3h18.7c2.8,0,4.7-1.9,4.7-4.7V165c0-2.8-1.9-4.7-4.7-4.7h-18.7c-2.8,0-4.7,1.9-4.7,4.7v32.7
		C244.8,200.4,246.7,202.3,249.5,202.3z M254.1,169.6h9.3V193h-9.3V169.6z"/>
	<path  class="svg_base" d="M356.9,258.3c0-2.8-1.9-4.7-4.7-4.7h-18.7c-2.8,0-4.7,1.9-4.7,4.7V291c0,2.8,1.9,4.7,4.7,4.7h18.7c2.8,0,4.7-1.9,4.7-4.7
		V258.3z M347.5,286.4h-9.3V263h9.3V286.4z"/>
	<path  class="svg_base" d="M375.5,253.7c-2.8,0-4.7,1.9-4.7,4.7V291c0,2.8,1.9,4.7,4.7,4.7h18.7c2.8,0,4.7-1.9,4.7-4.7v-32.7c0-2.8-1.9-4.7-4.7-4.7
		H375.5z M389.5,286.4h-9.3V263h9.3V286.4z"/>
	<path  class="svg_base" d="M356.9,319c0-2.8-1.9-4.7-4.7-4.7h-18.7c-2.8,0-4.7,1.9-4.7,4.7v32.7c0,2.8,1.9,4.7,4.7,4.7h18.7c2.8,0,4.7-1.9,4.7-4.7
		V319z M347.5,347h-9.3v-23.3h9.3V347z"/>
	<path  class="svg_base" d="M352.2,375.1h-18.7c-2.8,0-4.7,1.9-4.7,4.7v32.7c0,2.8,1.9,4.7,4.7,4.7h18.7c2.8,0,4.7-1.9,4.7-4.7v-32.7
		C356.8,376.9,355,375.1,352.2,375.1z M347.5,407.7h-9.3v-23.3h9.3V407.7z"/>
	<path  class="svg_base" d="M109.4,193H90.7c-2.8,0-4.7,1.9-4.7,4.7v32.7c0,2.8,1.9,4.7,4.7,4.7h18.7c2.8,0,4.7-1.9,4.7-4.7v-32.7
		C114.1,194.8,112.2,193,109.4,193z M104.7,225.6h-9.3v-23.3h9.3V225.6z"/>
	<path  class="svg_base" d="M151.4,193h-18.7c-2.8,0-4.7,1.9-4.7,4.7v32.7c0,2.8,1.9,4.7,4.7,4.7h18.7c2.8,0,4.7-1.9,4.7-4.7v-32.7
		C156.1,194.8,154.2,193,151.4,193z M146.7,225.6h-9.3v-23.3h9.3V225.6z"/>
	<path  class="svg_base" d="M109.4,253.7H90.7c-2.8,0-4.7,1.9-4.7,4.7V291c0,2.8,1.9,4.7,4.7,4.7h18.7c2.8,0,4.7-1.9,4.7-4.7v-32.7
		C114.1,255.5,112.2,253.7,109.4,253.7z M104.7,286.4h-9.3V263h9.3V286.4z"/>
	<path  class="svg_base" d="M151.4,253.7h-18.7c-2.8,0-4.7,1.9-4.7,4.7V291c0,2.8,1.9,4.7,4.7,4.7h18.7c2.8,0,4.7-1.9,4.7-4.7v-32.7
		C156.1,255.5,154.2,253.7,151.4,253.7z M146.7,286.4h-9.3V263h9.3V286.4z"/>
	<path  class="svg_base" d="M109.4,314.4H90.7c-2.8,0-4.7,1.9-4.7,4.7v32.7c0,2.8,1.9,4.7,4.7,4.7h18.7c2.8,0,4.7-1.9,4.7-4.7V319
		C114.1,316.2,112.2,314.4,109.4,314.4z M104.7,347h-9.3v-23.3h9.3V347z"/>
	<path  class="svg_base" d="M151.4,314.4h-18.7c-2.8,0-4.7,1.9-4.7,4.7v32.7c0,2.8,1.9,4.7,4.7,4.7h18.7c2.8,0,4.7-1.9,4.7-4.7V319
		C156.1,316.2,154.2,314.4,151.4,314.4z M146.7,347h-9.3v-23.3h9.3V347z"/>
	<path  class="svg_base" d="M109.4,375.1H90.7c-2.8,0-4.7,1.9-4.7,4.7v32.7c0,2.8,1.9,4.7,4.7,4.7h18.7c2.8,0,4.7-1.9,4.7-4.7v-32.7
		C114.1,376.9,112.2,375.1,109.4,375.1z M104.7,407.7h-9.3v-23.3h9.3V407.7z"/>
	<path  class="svg_base" d="M151.4,375.1h-18.7c-2.8,0-4.7,1.9-4.7,4.7v32.7c0,2.8,1.9,4.7,4.7,4.7h18.7c2.8,0,4.7-1.9,4.7-4.7v-32.7
		C156.1,376.9,154.2,375.1,151.4,375.1z M146.7,407.7h-9.3v-23.3h9.3V407.7z"/>
	<path  class="svg_base" d="M207.4,263h18.7c2.8,0,4.7-1.9,4.7-4.7v-32.7c0-2.8-1.9-4.7-4.7-4.7h-18.7c-2.8,0-4.7,1.9-4.7,4.7v32.7
		C202.8,261.1,204.6,263,207.4,263z M212.1,230.3h9.3v23.3h-9.3V230.3z"/>
	<path  class="svg_base" d="M249.5,263h18.7c2.8,0,4.7-1.9,4.7-4.7v-32.7c0-2.8-1.9-4.7-4.7-4.7h-18.7c-2.8,0-4.7,1.9-4.7,4.7v32.7
		C244.8,261.1,246.7,263,249.5,263z M254.1,230.3h9.3v23.3h-9.3V230.3z"/>
	<path  class="svg_base" d="M207.4,323.7h18.7c2.8,0,4.7-1.9,4.7-4.7v-32.7c0-2.8-1.9-4.7-4.7-4.7h-18.7c-2.8,0-4.7,1.9-4.7,4.7V319
		C202.8,321.8,204.6,323.7,207.4,323.7z M212.1,291h9.3v23.3h-9.3V291z"/>
	<path  class="svg_base" d="M249.5,323.7h18.7c2.8,0,4.7-1.9,4.7-4.7v-32.7c0-2.8-1.9-4.7-4.7-4.7h-18.7c-2.8,0-4.7,1.9-4.7,4.7V319
		C244.8,321.8,246.7,323.7,249.5,323.7z M254.1,291h9.3v23.3h-9.3V291z"/>
	<path  class="svg_base" d="M291.5,202.3h18.7c2.8,0,4.7-1.9,4.7-4.7V165c0-2.8-1.9-4.7-4.7-4.7h-18.7c-2.8,0-4.7,1.9-4.7,4.7v32.7
		C286.8,200.4,288.7,202.3,291.5,202.3z M296.2,169.6h9.3V193h-9.3V169.6z"/>
	<path  class="svg_base" d="M207.4,141.6h18.7c2.8,0,4.7-1.9,4.7-4.7v-32.7c0-2.8-1.9-4.7-4.7-4.7h-18.7c-2.8,0-4.7,1.9-4.7,4.7v32.7
		C202.8,139.7,204.6,141.6,207.4,141.6z M212.1,108.9h9.3v23.3h-9.3V108.9z"/>
	<path  class="svg_base" d="M249.5,141.6h18.7c2.8,0,4.7-1.9,4.7-4.7v-32.7c0-2.8-1.9-4.7-4.7-4.7h-18.7c-2.8,0-4.7,1.9-4.7,4.7v32.7
		C244.8,139.7,246.7,141.6,249.5,141.6z M254.1,108.9h9.3v23.3h-9.3V108.9z"/>
	<path  class="svg_base" d="M291.5,141.6h18.7c2.8,0,4.7-1.9,4.7-4.7v-32.7c0-2.8-1.9-4.7-4.7-4.7h-18.7c-2.8,0-4.7,1.9-4.7,4.7v32.7
		C286.8,139.7,288.7,141.6,291.5,141.6z M296.2,108.9h9.3v23.3h-9.3V108.9z"/>
	<path  class="svg_base" d="M468,368.1c0-26.6-21.5-48.1-48.1-48.1c-26.6,0-48.1,21.5-48.1,48.1c0,24.7,19.1,45.3,43.4,47.6v20.1H310.2V230.3h107.4
		V305c0,2.8,1.9,4.7,4.7,4.7c2.8,0,4.7-1.9,4.7-4.7l0-79.4c0-2.8-1.9-4.7-4.7-4.7h-74.7V71.6c0-2.8-1.9-4.7-4.7-4.7h-9.3v-14
		c0-2.8-1.9-4.7-4.7-4.7l-140.1,0c-2.8,0-4.7,1.9-4.7,4.7v14h-9.3c-2.8,0-4.7,1.9-4.7,4.7V165l-102.7,0c-2.8,0-4.7,1.9-4.7,4.7
		v266.1h-14c-2.8,0-4.7,1.9-4.7,4.7v18.7c0,2.8,1.9,4.7,4.7,4.7h392.2c2.8,0,4.7-1.9,4.7-4.7v-18.7c0-2.8-1.9-4.7-4.7-4.7h-16.3
		v-20.1C448.8,413.3,468,392.8,468,368.1L468,368.1z M381.1,368.1c0-21.5,17.3-38.8,38.8-38.8c21.5,0,38.8,17.3,38.8,38.8
		c0,21.5-17.3,38.8-38.8,38.8C398.4,406.8,381.1,389.5,381.1,368.1z M193.4,57.6h130.7v9.3H193.4V57.6z M179.4,76.2h158.7V221h-32.7
		c-2.8,0-4.7,1.9-4.7,4.7v210.1h-28l0-79.4c0-2.8-1.9-4.7-4.7-4.7l-60.7,0c-2.8,0-4.7,1.9-4.7,4.7v79.4h-23.3L179.4,76.2z
		 M263.5,435.7h-51.4V361h51.4L263.5,435.7z M72,174.3h98v261.5H72V174.3z M436.2,454.4H53.4v-9.3h382.9V454.4z"/>
</g>
</svg>
