<?xml version="1.0" encoding="utf-8"?>
<!-- Generator: Adobe Illustrator 27.5.0, SVG Export Plug-In . SVG Version: 6.00 Build 0)  -->
<svg version="1.1" id="Capa_1" xmlns="http://www.w3.org/2000/svg" xmlns:xlink="http://www.w3.org/1999/xlink" x="0px" y="0px"
	 viewBox="0 0 512 512" style="enable-background:new 0 0 512 512;" xml:space="preserve">
<style type="text/css">
	.st0{fill:#00BFB2;}
	.st1{fill:none;}
	.st2{fill:#FFFFFF;}
	.st3{fill-rule:evenodd;clip-rule:evenodd;fill:#00BFB2;}
	.st4{stroke:#30363B;stroke-width:0.1828;}
	.st5{fill-rule:evenodd;clip-rule:evenodd;}
	.st6{fill:url(#SVGID_1_);}
	.st7{fill:#FBFBFB;}
</style>
<g>
	<path class="st0" d="M270,310.8v-81.2c0-7.3-6.2-13.2-13.8-13.2h-27.7c-7.6,0-13.8,5.9-13.8,13.2s6.2,13.2,13.8,13.2h13.8v26.4
		h-13.8c-7.6,0-13.8,5.9-13.8,13.2s6.2,13.2,13.8,13.2h13.8v15.1c-29.5,7.3-47.4,36.1-39.7,64.4s37.8,45.3,67.4,38
		c29.5-7.3,47.4-36.1,39.7-64.4C304.5,330.1,289.4,315.6,270,310.8z M256.1,388.2c-15.3,0-27.7-11.8-27.7-26.4
		c0-14.6,12.4-26.4,27.7-26.4c15.3,0,27.7,11.8,27.7,26.4C283.7,376.4,271.4,388.2,256.1,388.2z"/>
	<g>
		<path d="M394.1,190c7.7,0,13.8-5.9,13.8-13.2V84.2c0-21.9-18.5-39.6-41.5-39.6h-221c-22.9,0-41.5,17.8-41.5,39.6v343.7
			c0,21.9,18.5,39.6,41.5,39.6h221.1c22.8,0,41.5-17.8,41.5-39.6V229.6c0-7.3-6.2-13.2-13.8-13.2s-13.8,5.9-13.8,13.2v198.3
			c0,7.3-6.2,13.2-13.8,13.2H145.5c-7.6,0-13.8-5.9-13.8-13.2v-238L394.1,190L394.1,190z M145.5,71h221.1c7.7,0,13.8,5.9,13.8,13.2
			v79.3H131.8V84.2C131.7,76.9,138,71,145.5,71z"/>
		<path d="M252,132.4l4-3.8l4,3.8c5.4,5.2,14.1,5.2,19.5,0c5.3-5.1,5.3-13.5,0-18.6l-13.8-13.2c-5.4-5.2-14.1-5.2-19.5,0l-13.8,13.2
			c-5.3,5.1-5.3,13.5,0,18.6C238,137.6,246.6,137.6,252,132.4z"/>
	</g>
</g>
</svg>
