<?xml version="1.0" encoding="utf-8"?>
<!-- Generator: Adobe Illustrator 27.5.0, SVG Export Plug-In . SVG Version: 6.00 Build 0)  -->
<svg version="1.1" id="Capa_1" xmlns="http://www.w3.org/2000/svg" xmlns:xlink="http://www.w3.org/1999/xlink" x="0px" y="0px"
	 viewBox="0 0 512 512" style="enable-background:new 0 0 512 512;" xml:space="preserve">
<style type="text/css">
	.st0{fill:#00BFB2;}
	.st1{fill:none;}
	.st2{fill:#FFFFFF;}
	.st3{fill-rule:evenodd;clip-rule:evenodd;fill:#00BFB2;}
	.st4{stroke:#30363B;stroke-width:0.1828;}
	.st5{fill-rule:evenodd;clip-rule:evenodd;}
	.st6{fill:url(#SVGID_1_);}
	.st7{fill:#FBFBFB;}
</style>
<g>
	<rect x="281.3" y="179" class="st1" width="0.1" height="25.6"/>
	<circle class="st1" cx="127.5" cy="422.7" r="12.8"/>
	<polygon class="st1" points="178.6,230.3 178.6,332.9 178.6,332.9 178.6,333 204.2,333 204.2,332.9 204.3,332.9 204.3,230.3 	"/>
	<polygon class="st1" points="306.9,230.3 306.9,332.9 306.9,332.9 306.9,333 332.6,333 332.6,332.9 332.6,332.9 332.6,230.3 	"/>
	<polygon class="st1" points="230,230.3 230,332.9 229.9,332.9 229.9,333 281.2,333 281.2,332.9 281.3,332.9 281.3,230.3 	"/>
	<path class="st1" d="M255.7,101.9c-78,0-141.2,63.3-141.2,141.2v89.8h38.4h0V230.3c0-14.2,11.5-25.7,25.7-25.7h25.7V179
		c0-14.2,11.5-25.7,25.7-25.7h51.3c14.2,0,25.7,11.5,25.7,25.7v25.6h25.6c14.2,0,25.7,11.5,25.7,25.7v102.6h38.5v-89.8
		C396.9,165.1,333.7,101.9,255.7,101.9z"/>
	<circle class="st1" cx="384.2" cy="422.7" r="12.8"/>
	<path d="M435.5,332.9h-12.8v-89.8c0-87.1-67.1-159.5-153.9-166.2V63.4c0-7.1-5.8-12.8-12.8-12.8c-7.1,0-12.8,5.8-12.8,12.8v12.8
		c-87.1,6.7-154.3,79.5-154,166.9v89.8H76.4c-7.1,0-12.8,5.7-12.8,12.8V397c0,7.1,5.8,12.8,12.8,12.8h15.1c-7.2,20,3,42.1,23,49.3
		c20,7.3,42.1-3.1,49.3-23.1c3.1-8.5,3.1-17.8,0-26.2h28c7.1,0,12.8-5.7,12.8-12.8c0-7.1-5.8-12.8-12.8-12.8H89.2v-25.7h75.4h182.7
		h75.6v25.7H243.2c-7.1,0-12.8,5.7-12.8,12.8c0,7.1,5.8,12.8,12.8,12.8h105c-7.2,20,3,42.1,23,49.3c20,7.3,42.1-3.1,49.3-23.1
		c3.1-8.5,3.1-17.8,0-26.2h15.1c7.1,0,12.8-5.7,12.8-12.8v-51.3C448.2,338.6,442.6,332.9,435.5,332.9z M127.5,409.9
		c7.1,0,12.8,5.8,12.8,12.8c0,7.1-5.8,12.8-12.8,12.8c-7,0-12.8-5.7-12.8-12.8C114.7,415.6,120.5,409.9,127.5,409.9z M396.9,332.9
		h-38.5v0h-25.8v0h0v0.1h-25.7v-0.1h-25.6v0h0v0.1h-51.3v-0.1h-25.7v0h0v0.1h-25.7v-0.1H153v0h0h-38.4v-89.8
		c0-77.9,63.2-141.2,141.2-141.2s141.1,63.2,141.1,141.2V332.9h0.1H396.9z M384.2,435.5c-7.1,0-12.8-5.7-12.8-12.8
		c0-7.1,5.8-12.8,12.8-12.8c7.1,0,12.8,5.8,12.8,12.8C397,429.8,391.2,435.5,384.2,435.5z"/>
	<path class="st0" d="M332.7,204.6h-25.6V179c0-14.2-11.5-25.7-25.7-25.7h-51.3c-14.2,0-25.7,11.5-25.7,25.7v25.6h-25.7
		c-14.2,0-25.7,11.5-25.7,25.7v102.6h25.6v0h0V230.3h25.7v102.6h25.7v0h0V230.3h51.3v102.6h25.6v0h0V230.3h25.7v102.6h25.8h0V230.3
		C358.4,216.1,346.9,204.6,332.7,204.6z M281.4,204.6L281.4,204.6h-51.3H230V179h0.1h51.2h0.1V204.6z"/>
	<rect x="230" y="179" class="st0" width="0.1" height="25.6"/>
	<rect x="281.3" y="332.9" class="st0" width="25.6" height="0"/>
	<rect x="153" y="332.9" class="st0" width="25.6" height="0"/>
	<rect x="204.3" y="332.9" class="st0" width="25.7" height="0"/>
	<polygon class="st0" points="332.6,332.9 332.6,332.9 358.4,332.9 358.4,332.9 358.4,332.9 	"/>
</g>
</svg>
