<?xml version="1.0" encoding="utf-8"?>
<!-- Generator: Adobe Illustrator 27.5.0, SVG Export Plug-In . SVG Version: 6.00 Build 0)  -->
<svg version="1.1" id="Capa_1" xmlns="http://www.w3.org/2000/svg" xmlns:xlink="http://www.w3.org/1999/xlink" x="0px" y="0px"
	 viewBox="0 0 512 512" style="enable-background:new 0 0 512 512;" xml:space="preserve">
<style type="text/css">
	.svg_base{fill:#343434;}
	.svg_accent{fill:#00BFB2;}
</style>
<g>
	<path  class="svg_base" d="M278.8,191h-61.4c-25.4,0-46.1,17.5-46.1,39.1v13H202v-13c0-7.2,6.9-13.1,15.4-13.1h61.4c8.5,0,15.4,5.9,15.4,13.1v13
		h30.7v-13C324.8,208.5,304.2,191,278.8,191z"/>
	<path  class="svg_base" d="M393.9,321.2H118.3c-7.3,0-13.2,5.8-13.2,13v52.2c0,7.2,5.9,13.1,13.2,13.1h13.2v26c0,14.4,11.9,26,26.5,26h26.5
		c14.6,0,26.5-11.6,26.5-26v-39.1c0-7.2-5.9-13.1-13.2-13.1h-66.3v-26h249.2v26H264c-7.3,0-13.2,5.9-13.2,13.1
		c0,7.2,5.9,13.1,13.2,13.1h37.2v26c0,14.4,11.8,26,26.5,26h26.5c14.6,0,26.5-11.6,26.5-26v-26h13.2c7.3,0,13.2-5.9,13.2-13.1
		v-52.2C407.1,327,401.2,321.2,393.9,321.2z M158.1,399.4h26.5v26h-26.5V399.4z M354.2,425.5h-26.5v-26h26.5L354.2,425.5
		L354.2,425.5z"/>
	<path  class="svg_base" d="M393.9,147.5V253c-6.8-6-15.7-9.8-25.5-10c-0.2,0-0.5,0-0.8,0h-0.2v-76.4h-0.1v-80h-26.5V127c0,4.2-2,8.1-5.5,10.5
		c-2.2,1.5-4.7,2.3-7.2,2.4l0,0c-2.8,0.1-34.5-10.9-72.1-12.7c-37.4,1.8-69,12.7-72.1,12.7h-0.1c-2.5-0.1-5-0.9-7.2-2.4
		c-3.4-2.5-5.5-6.3-5.5-10.5V86.6h-26.5V243c-10.2,0-19.5,3.8-26.5,10V73.6c0.1-7.2,6-13.1,13.2-13.1h52.9
		c7.3,0,13.2,5.9,13.2,13.1v35.7c12.2-4.6,32-10.1,56.9-10.1c0.5,0,0.9,0,1.4,0h0.1c25.6-0.2,45.8,5.4,58.3,10.1V73.6
		c0-7.2,5.9-13.1,13.2-13.1h52.9c7.2,0,13.2,5.9,13.2,13.1v73.9H393.9z"/>
	<path class="svg_accent" d="M394,253c-0.1-0.1-0.1-0.1-0.2-0.2v0.2c-1.2-1.1-2.5-2.1-3.9-3c-0.4-0.2-0.7-0.5-1.1-0.7
		c-0.6-0.4-1.2-0.7-1.8-1.1c-0.5-0.3-0.9-0.5-1.4-0.8c-0.4-0.2-0.8-0.4-1.2-0.6c-0.1-0.1-0.3-0.2-0.5-0.2c-0.3-0.1-0.6-0.3-1-0.4
		c-0.2-0.1-0.4-0.2-0.5-0.2c-0.4-0.1-0.7-0.3-1.1-0.4c-0.1-0.1-0.3-0.1-0.4-0.2c-0.4-0.2-0.8-0.3-1.2-0.4h-0.1
		c-0.2-0.1-0.4-0.1-0.7-0.2c-0.3-0.1-0.6-0.2-0.9-0.3c-0.3-0.1-0.6-0.2-0.9-0.2c-0.3-0.1-0.6-0.1-0.9-0.2c-0.3-0.1-0.6-0.1-0.9-0.2
		c-0.5-0.1-1.1-0.2-1.6-0.3c-0.1,0-0.3,0-0.4-0.1c-0.5-0.1-0.9-0.1-1.4-0.2c-0.1,0-0.2,0-0.3,0c-0.5-0.1-1-0.1-1.6-0.1
		c-0.3,0-0.6,0-0.9-0.1c-0.3,0-0.7,0-1,0c-0.2,0-0.5,0-0.8,0l-0.1,0.1H144.7l-0.1-0.1c-10.2,0-19.5,3.8-26.5,10
		c-8.1,7.2-13.2,17.5-13.2,29.1v52.1c0.1-7.2,6-13,13.2-13h13.2v-39.2c0-6.7,5.1-12.2,11.7-13c0.5-0.1,1-0.1,1.5-0.1h222.8
		c0.5,0,1,0,1.5,0.1c6.6,0.7,11.7,6.3,11.7,13v39.1h13.1c7.3,0,13.2,5.8,13.2,13v-52.1C407.2,270.5,402.1,260.1,394,253z"/>
	<path class="svg_accent" d="M393.9,252.8v0.2c-6.8-6-15.7-9.8-25.5-10C378.1,243.1,387,246.8,393.9,252.8z"/>
</g>
</svg>
