<?xml version="1.0" encoding="utf-8"?>
<!-- Generator: Adobe Illustrator 27.5.0, SVG Export Plug-In . SVG Version: 6.00 Build 0)  -->
<svg version="1.1" id="Capa_1" xmlns="http://www.w3.org/2000/svg" xmlns:xlink="http://www.w3.org/1999/xlink" x="0px" y="0px"
	 viewBox="0 0 512 512" style="enable-background:new 0 0 512 512;" xml:space="preserve">
<style type="text/css">
	.st0{fill:#00BFB2;}
	.st1{fill:none;}
	.st2{fill:#FFFFFF;}
	.st3{fill-rule:evenodd;clip-rule:evenodd;fill:#00BFB2;}
	.st4{stroke:#30363B;stroke-width:0.1828;}
	.st5{fill-rule:evenodd;clip-rule:evenodd;}
	.st6{fill:url(#SVGID_1_);}
	.st7{fill:#FBFBFB;}
</style>
<g>
	<path class="st3" d="M357.2,154.9c-31,0-55.7,25.6-55.7,56.6c0,31,24.6,56.6,55.7,56.6s55.7-25.6,55.7-56.6
		C412.9,180.5,388.3,154.9,357.2,154.9z M315,211.5c0-24.4,19.2-43.6,42.3-43.6c23.1,0,42.3,19.2,42.3,43.6
		c0,24.4-19.2,43.6-42.3,43.6C334.2,255,315,235.8,315,211.5z"/>
	<path class="st0" d="M308.3,305.1c-14.9,0-19.1-1.9-29.5,8.8c-10.4,10.6-0.3-10.7-0.3,4.3l0-4.3c0,3.6-3.7,4.3,0,4.3
		c3.7,0,9,7.3,9,3.7c0,0,1.8,10,1.8-1.7c0-11.7-9.7,9.8-1.8,1.7c8-8.1,9.7-3.7,20.8-3.7h98c11.1,0,21.8,4.5,29.8,12.6
		c8,8.1,12.5,19.3,12.5,30.9v25c0,3.6,3,6.5,6.7,6.5c3.7,0,6.7-2.9,6.7-6.5v-25c0-14.9-5.8-29.3-16.2-39.9
		c-10.4-10.6-24.6-16.7-39.5-16.7H308.3z"/>
	<path class="st5" d="M187.4,97.1c-40.7,0-73,34.2-73,75.5c0,41.3,32.3,75.5,73,75.5s73-34.2,73-75.5
		C260.4,131.3,228.1,97.1,187.4,97.1z M131.9,172.5c0-32.5,25.2-58.1,55.5-58.1c30.2,0,55.5,25.6,55.5,58.1s-25.2,58.1-55.5,58.1
		C157.1,230.6,131.9,205,131.9,172.5z"/>
	<path d="M123.1,297.4c-19.5,0-38.1,8.1-51.8,22.3c-13.6,14.2-21.2,33.3-21.2,53.2v33.4c0,4.8,3.9,8.7,8.8,8.7
		c4.8,0,8.8-3.9,8.8-8.7v-33.4c0-15.5,5.9-30.4,16.4-41.2c10.4-10.8,24.5-16.9,39.1-16.9h128.5c14.6,0,28.6,6,39.1,16.9
		c10.5,10.9,16.4,25.7,16.4,41.2v33.4c0,4.8,3.9,8.7,8.8,8.7s8.8-3.9,8.8-8.7v-33.4c0-19.9-7.6-39-21.2-53.2
		c-13.7-14.2-32.3-22.3-51.8-22.3H123.1z"/>
</g>
</svg>
