<?xml version="1.0" encoding="utf-8"?>
<!-- Generator: Adobe Illustrator 27.5.0, SVG Export Plug-In . SVG Version: 6.00 Build 0)  -->
<svg version="1.1" id="Capa_1" xmlns="http://www.w3.org/2000/svg" xmlns:xlink="http://www.w3.org/1999/xlink" x="0px" y="0px"
	 viewBox="0 0 512 512" style="enable-background:new 0 0 512 512;" xml:space="preserve">
<style type="text/css">
	.svg_base{fill:#343434;}
	.svg_accent{fill:#00BFB2;}
</style>
<g>
	<path class="svg_accent" d="M237.2,401.2c0-10.4,8.4-18.8,18.7-18.8h0.2c10.3,0,18.7,8.4,18.7,18.8c0,10.4-8.4,18.8-18.7,18.8h-0.2
		C245.5,420.1,237.2,411.6,237.2,401.2z"/>
	<path class="svg_base" d="M256.5,226.1c-45.5,0-89.5,15.9-124.4,45.1c-7.9,6.6-19.6,5.5-26.2-2.4c-6.6-7.9-5.5-19.6,2.4-26.2
		c41.6-34.7,94-53.7,148.2-53.7s106.6,19,148.2,53.7c7.9,6.6,9,18.3,2.4,26.2s-18.3,9-26.2,2.4C346,241.9,302,226.1,256.5,226.1z"
		/>
	<path class="svg_base" d="M256,129.4c-71,0-139.6,26-192.9,73c-7.7,6.8-19.5,6.1-26.3-1.7c-6.8-7.7-6.1-19.5,1.7-26.3
		C98.6,121.3,175.9,91.9,256,91.9s157.4,29.3,217.5,82.4c7.7,6.8,8.5,18.6,1.7,26.3s-18.6,8.5-26.3,1.7
		C395.6,155.4,327,129.4,256,129.4z"/>
	<path class="svg_base" d="M256,323.1c-20.3,0-40.1,6.4-56.6,18.2c-8.4,6-20,4-26-4.4c-6-8.5-4-20.2,4.4-26.2
		c22.8-16.4,50.1-25.1,78.2-25.1c28,0,55.3,8.8,78.2,25.1c8.4,6,10.3,17.7,4.4,26.2c-6,8.5-17.6,10.4-26,4.4
		C296,329.6,276.2,323.1,256,323.1z"/>
</g>
</svg>
