<?xml version="1.0" encoding="utf-8"?>
<!-- Generator: Adobe Illustrator 27.5.0, SVG Export Plug-In . SVG Version: 6.00 Build 0)  -->
<svg version="1.1" id="Capa_1" xmlns="http://www.w3.org/2000/svg" xmlns:xlink="http://www.w3.org/1999/xlink" x="0px" y="0px"
	 viewBox="0 0 512 512" style="enable-background:new 0 0 512 512;" xml:space="preserve">
<style type="text/css">
	.svg_base{fill:#343434;}
	.svg_accent{fill:#00BFB2;}
</style>
<g>
	<path  class="svg_base" d="M167.8,57.1c0,7.6,6.2,13.8,13.8,13.8h218.2v297.8h-72.4v72.4H112v-384c0-7.6-6.2-13.8-13.8-13.8
		c-7.6,0-13.8,6.2-13.8,13.8v411.7h261.5l81.8-81.4V43.2h-246C174,43.3,167.8,49.5,167.8,57.1z M351.4,424.2v-31.4H383L351.4,424.2
		z"/>
	<path class="svg_accent" d="M153.8,171.8h204.2c7.6,0,13.8-6.2,13.8-13.8c0-7.6-6.2-13.8-13.8-13.8H153.8c-7.6,0-13.8,6.2-13.8,13.8
		C140,165.6,146.2,171.8,153.8,171.8z"/>
	<path class="svg_accent" d="M153.8,246.1h204.2c7.6,0,13.8-6.2,13.8-13.8s-6.2-13.8-13.8-13.8H153.8c-7.6,0-13.8,6.2-13.8,13.8
		S146.2,246.1,153.8,246.1z"/>
	<path class="svg_accent" d="M153.8,320.3h204.2c7.6,0,13.8-6.2,13.8-13.8s-6.2-13.8-13.8-13.8H153.8c-7.6,0-13.8,6.2-13.8,13.8
		C140,314.1,146.2,320.3,153.8,320.3z"/>
</g>
</svg>
