<?xml version="1.0" encoding="utf-8"?>
<!-- Generator: Adobe Illustrator 27.5.0, SVG Export Plug-In . SVG Version: 6.00 Build 0)  -->
<svg version="1.1" id="Capa_1" xmlns="http://www.w3.org/2000/svg" xmlns:xlink="http://www.w3.org/1999/xlink" x="0px" y="0px"
	 viewBox="0 0 512 512" style="enable-background:new 0 0 512 512;" xml:space="preserve">
<style type="text/css">
	.svg_base{fill:#343434;}
	.svg_accent{fill:#00BFB2;}
</style>
<g>
	<path class="svg_accent" d="M295.5,180.4c-8,0-14.7-6.3-14.7-14s6.5-14,14.7-14c8.1,0,14.7,6.3,14.7,14S303.7,180.4,295.5,180.4z"/>
	<path class="svg_accent" d="M349.3,181.2c-8,0-14.7-6.3-14.7-14s6.5-14,14.7-14c8.1,0,14.7,6.3,14.7,14S357.5,181.2,349.3,181.2z"/>
	<path class="svg_accent" d="M404,182.2c-8,0-14.7-6.3-14.7-14s6.5-14,14.7-14c8.1,0,14.7,6.3,14.7,14S412.2,182.2,404,182.2z"/>
	<path  class="svg_base" d="M342.7,321c-9.5-9.1-23.1-13-36.2-10.6l-40.2,7.7c-12.1,2.4-22.5,10-28,20.5l-15,28.7c-40.3-11-71.8-41.1-83.1-79.8
		l29.8-14.3c11-5.3,19-15.2,21.4-26.9l8-38.5c2.8-12.4-1-25.5-10.1-34.6l-45.2-42.6c-15.7-15-41.2-15-56.8,0
		c-1.4,1.3-2.7,2.8-3.8,4.3c-70.1,91.4-49.4,220,46,287.1c6.3,4.4,12.8,8.6,19.6,12.2c6.4,3.6,14.7,1.4,18.4-4.8
		c3.7-6.2,1.5-14-4.9-17.6C72.9,362.3,42,252.3,93.8,166.3c3.4-5.7,7.1-11.2,11.1-16.4c4.4-5.7,12.8-6.8,18.8-2.5
		c0.5,0.4,1,0.8,1.5,1.2l44.6,43.3c3.1,3.1,4.5,7.4,3.6,11.5l-8,38.5c-0.8,3.9-3.4,7.2-7.1,9l-39.5,18c-5.4,2.6-8.3,8.5-7.1,14.1
		c11.4,56.6,57.5,100.8,116.5,111.7c5.9,1.2,12-1.6,14.8-6.8l19.8-37.9c1.9-3.5,5.3-6.1,9.3-6.8l40.1-7.7c4.4-0.8,8.8,0.5,12,3.5
		l44.5,42.6c5.2,5,5.3,13.1,0.1,18.1c-0.5,0.4-0.9,0.9-1.5,1.2c-46.2,32.6-105.4,43-160.7,28.4c-7.1-1.9-14.6,2.1-16.6,9
		s2.2,13.9,9.3,15.8c63,16.5,130.6,4.6,183.3-32.5c17.8-12.7,21.5-36.8,8.2-53.9c-1.2-1.5-2.4-3-3.8-4.3l-44.5-42.6h0.2V321z"/>
	<path  class="svg_base" d="M336.6,51.3c-59.7,7.1-105.1,54.8-107.1,112.4c-0.7,30.3,10.8,41.1,6.9,64.2l-6.8,38.5c-1.6,7,3,13.7,10.2,15.3
		c1.7,0.4,3.5,0.4,5.2,0.1c40.2-6.3,49.8-10.3,72.2-4.3c64.1,17.1,130.6-18.9,148.4-80.4c17.9-61.5-19.7-125.3-83.8-142.4
		C367.1,50.9,351.7,49.7,336.6,51.3 M443.7,176c-5.4,49.4-51.6,85.1-103.1,80c-5.2-0.5-10.4-1.5-15.6-2.9
		c-21.5-5.6-44.1-5.6-65.4,0l3.7-21.3c4.7-30.5-7.1-39.9-7.1-67.7c1.3-45.1,36.7-82.4,83.4-87.8c51.4-5.8,98,29.5,104,78.8
		C444.5,162.1,444.5,169.1,443.7,176"/>
</g>
</svg>
