<?xml version="1.0" encoding="utf-8"?>
<!-- Generator: Adobe Illustrator 27.5.0, SVG Export Plug-In . SVG Version: 6.00 Build 0)  -->
<svg version="1.1" id="Capa_1" xmlns="http://www.w3.org/2000/svg" xmlns:xlink="http://www.w3.org/1999/xlink" x="0px" y="0px"
	 viewBox="0 0 512 512" style="enable-background:new 0 0 512 512;" xml:space="preserve">
<style type="text/css">
	.svg_base{fill:#343434;}
	.svg_accent{fill:#00BFB2;}
</style>
<g>
	<rect x="281.3" y="179" class="svg_base" width="0.1" height="25.6"/>
	<path  class="svg_base" d="M435.5,332.9h-12.8v-89.8c0-87.1-67.1-159.5-153.9-166.2V63.4c0-7.1-5.8-12.8-12.8-12.8c-7.1,0-12.8,5.8-12.8,12.8v12.8
		c-87.1,6.7-154.3,79.5-154,166.9v89.8H76.4c-7.1,0-12.8,5.7-12.8,12.8V397c0,7.1,5.8,12.8,12.8,12.8h15.1c-7.2,20,3,42.1,23,49.3
		c20,7.3,42.1-3.1,49.3-23.1c3.1-8.5,3.1-17.8,0-26.2h28c7.1,0,12.8-5.7,12.8-12.8c0-7.1-5.8-12.8-12.8-12.8H89.2v-25.7h75.4h182.7
		h75.6v25.7H243.2c-7.1,0-12.8,5.7-12.8,12.8c0,7.1,5.8,12.8,12.8,12.8h105c-7.2,20,3,42.1,23,49.3c20,7.3,42.1-3.1,49.3-23.1
		c3.1-8.5,3.1-17.8,0-26.2h15.1c7.1,0,12.8-5.7,12.8-12.8v-51.3C448.2,338.6,442.6,332.9,435.5,332.9z M127.5,409.9
		c7.1,0,12.8,5.8,12.8,12.8c0,7.1-5.8,12.8-12.8,12.8c-7,0-12.8-5.7-12.8-12.8C114.7,415.6,120.5,409.9,127.5,409.9z M396.9,332.9
		h-38.5v0h-25.8v0h0v0.1h-25.7v-0.1h-25.6v0h0v0.1h-51.3v-0.1h-25.7v0h0v0.1h-25.7v-0.1H153v0h0h-38.4v-89.8
		c0-77.9,63.2-141.2,141.2-141.2s141.1,63.2,141.1,141.2V332.9h0.1H396.9z M384.2,435.5c-7.1,0-12.8-5.7-12.8-12.8
		c0-7.1,5.8-12.8,12.8-12.8c7.1,0,12.8,5.8,12.8,12.8C397,429.8,391.2,435.5,384.2,435.5z"/>
	<path class="svg_accent" d="M332.7,204.6h-25.6V179c0-14.2-11.5-25.7-25.7-25.7h-51.3c-14.2,0-25.7,11.5-25.7,25.7v25.6h-25.7
		c-14.2,0-25.7,11.5-25.7,25.7v102.6h25.6v0h0V230.3h25.7v102.6h25.7v0h0V230.3h51.3v102.6h25.6v0h0V230.3h25.7v102.6h25.8h0V230.3
		C358.4,216.1,346.9,204.6,332.7,204.6z M281.4,204.6L281.4,204.6h-51.3H230V179h0.1h51.2h0.1V204.6z"/>
	<rect x="230" y="179" class="svg_accent" width="0.1" height="25.6"/>
	<rect x="281.3" y="332.9" class="svg_accent" width="25.6" height="0"/>
	<rect x="153" y="332.9" class="svg_accent" width="25.6" height="0"/>
	<rect x="204.3" y="332.9" class="svg_accent" width="25.7" height="0"/>
	<polygon class="svg_accent" points="332.6,332.9 332.6,332.9 358.4,332.9 358.4,332.9 358.4,332.9 	"/>
</g>
</svg>
