<?xml version="1.0" encoding="utf-8"?>
<!-- Generator: Adobe Illustrator 27.5.0, SVG Export Plug-In . SVG Version: 6.00 Build 0)  -->
<svg version="1.1" id="Capa_1" xmlns="http://www.w3.org/2000/svg" xmlns:xlink="http://www.w3.org/1999/xlink" x="0px" y="0px"
	 viewBox="0 0 512 512" style="enable-background:new 0 0 512 512;" xml:space="preserve">
<style type="text/css">
	.st0{fill:#00BFB2;}
	.st1{fill:none;}
	.st2{fill:#FFFFFF;}
	.st3{fill-rule:evenodd;clip-rule:evenodd;fill:#00BFB2;}
	.st4{stroke:#30363B;stroke-width:0.1828;}
	.st5{fill-rule:evenodd;clip-rule:evenodd;}
	.st6{fill-rule:evenodd;clip-rule:evenodd;fill:#FFFFFF;}
	.st7{fill:#FFFFFF;stroke:#30363B;stroke-width:0.1828;}
</style>
<g>
	<g>
		<path class="svg_base" d="M134.9,174.1c-7.9-2.1-15.3-4.3-22.8-6c-4-0.9-5.6-3.1-5.6-7.2c0-11.4,0.1-11.8,11.2-10.8c20.4,1.9,40.2,7,59.8,12.5
			c55.5,15.7,109.4,35.6,163,56.8c41.4,16.3,82.4,33.6,123.5,50.5c7.3,3,7.3,3.1,7.3,10.8c0,21.8,0,43.5,0,65.3
			c0,6.7-1.4,8.1-7.9,7.9c-71-2.8-142-5.7-213.1-8.5c-49.5-2-99-4-148.5-5.9c-18.6-0.8-37.1-1.5-55.7-2.4c-4.8-0.2-6.6-2.3-5.5-6.8
			c8.9-35.8,19.5-70.9,37.6-103.3c5.4-9.7,11.8-18.7,20.9-25.4c5.3-3.9,11.1-6.1,17.7-5.9c1.1,0,2.5-0.5,3.2-1.3
			C124.9,188,129.7,181.3,134.9,174.1L134.9,174.1z M398.4,281c-38.4-25.5-78.8-32.6-121.9-19.7c-38.4,11.5-66.4,36.2-85.6,72.3
			c12.2,0.5,23.6,0.9,34.9,1.4c30.9,1.2,61.8,2.5,92.8,3.6c1.3,0,3.2-0.9,4-2.1C340.7,308.8,365.7,290.5,398.4,281L398.4,281z
			 M462.1,288.7c-3.2,2.9-6.1,4.3-8.6,1c-2.4-3.3-0.3-5.8,2.1-8.1c1.1-1,2.1-2.2,3.1-3.4c-6.1-3.4-11.6-2.8-16.3,1.8
			c-0.4,0.4-0.8,0.8-1.2,1.2c-2.3,1.9-5.1,2.4-6.6-0.1c-1-1.5-0.6-4.6,0.2-6.4c0.8-1.7,3.1-2.7,5-4.2c-6.3-3.9-11.8-3.5-16.4,1.1
			c-0.6,0.6-1.2,1.2-1.8,1.8c-2.2,1.9-4.7,2.3-6.8,0.2c-2.1-2.2-1.8-4.8,0.4-6.8c1.6-1.5,3.6-2.7,5.4-4c-2.7-2-4.3-2.8-5.9-3.4
			c-46.9-18.3-93.7-37.1-140.8-54.9c-42.1-15.9-84.8-30.2-128.8-40.3c-7.5-1.7-15.1-2.9-22.6-4.3c-0.1,0.3-0.1,0.7-0.2,1
			c1.4,0.4,2.9,0.9,4.3,1.3c43.6,12,86.4,26.2,127.1,46.3c19.6,9.7,38.5,20.7,54.7,35.8c1.2,1.1,3.6,1.5,5.4,1.4
			c29-0.4,56,6.8,80.8,21.9c28.5,17.4,49.1,41.8,61.7,72.9c1,2.6,2,5.1,5.7,3.4V288.7L462.1,288.7z M50.6,328
			c4.4,0.2,8.2,0.2,11.9,0.6c2.7,0.3,4-0.6,4.8-3.3c5-14.5,10.3-28.9,15.4-43.3c9-25.2,18.1-50.3,27.4-76.1
			c-2.3,1.5-5.1,2.4-6.8,4.3c-5.6,6.3-11.7,12.4-16,19.6C69.5,260.1,59.9,293.6,50.6,328L50.6,328z M147.6,331.9v-76.2
			c-0.2-0.1-0.4-0.1-0.6-0.2c-10.6,24.8-21.1,49.5-32,75C126.2,331,136.7,331.4,147.6,331.9z M106.6,245.8c-0.3-0.1-0.7-0.1-1-0.2
			c-9.9,27.6-19.8,55.2-30,83.8h28C104.6,301.8,105.6,273.8,106.6,245.8z M223.9,213.1c-8,12.4-15.4,23.7-22.9,35.3
			c10.9,5,21.4,9.8,32.6,14.9C230.3,246.3,227.2,230.3,223.9,213.1z M232.4,208.4c3.3,17.3,6.4,33.3,9.8,50.6
			c7.8-12.2,14.8-23.2,22.2-34.7C253.9,219,243.7,214,232.4,208.4L232.4,208.4z M196.8,237.7c7.9-12.1,15.1-23.2,22.6-34.6
			c-10.1-3.8-19.6-7.4-29.8-11.3C192,207.3,194.3,221.9,196.8,237.7L196.8,237.7z M157.3,238.6V268c7.3,0,14.3,0,21.3-0.1
			c0.8,0,2-0.5,2.4-1.2c2.4-4.6,4.6-9.3,7-14.2C177.5,247.8,167.6,243.3,157.3,238.6L157.3,238.6z M188,242.5
			c-2.4-15.4-4.7-29.8-7.2-45.5c-7.6,11.4-14.5,21.7-21.5,32.3C168.9,233.7,178,237.8,188,242.5z M176.6,187
			c-9.5-3.1-18.5-5.9-28.3-9c2.3,13.9,4.4,26.9,6.7,40.9C162.4,207.9,169.3,197.8,176.6,187z M296.8,246c-8-5.6-16.1-11.3-24.3-17.1
			c-6.7,10.5-13,20.3-19.2,30C267.7,254.5,281.9,250.3,296.8,246L296.8,246z M139.7,183.1c-7.2,9.9-13.6,18.8-20.3,28
			c9.1,4.2,17.7,8.1,26.8,12.3C144,209.9,142,197.2,139.7,183.1z M199.3,258c0.7,10.1,1.4,19.4,2.1,29c9.1-5.4,17.8-10.5,26.9-15.9
			C218.5,266.6,209.3,262.5,199.3,258z M175.7,277.7h-18.4v36.4c0.2,0.1,0.4,0.1,0.7,0.2C163.8,302.3,169.6,290.2,175.7,277.7
			L175.7,277.7z M162.8,331.2c0.3,0.6,0.6,1.3,0.8,1.9c5.1,0,10.1,0.2,15.1-0.1c1.3-0.1,2.8-1.5,3.6-2.6
			c6.1-9.4,11.9-18.9,17.9-28.3c0.8-1.2,1.8-2.3,2.6-3.5c-0.3-0.3-0.7-0.6-1-0.9C188.8,308.8,175.8,320,162.8,331.2L162.8,331.2z
			 M169.3,312.5c7.9-6.4,14.9-12,21.9-17.8c0.7-0.6,1.4-1.9,1.3-2.8c-0.4-7.4-1-14.8-1.6-22.3c-0.3-0.1-0.6-0.1-0.8-0.2
			C183.3,283.6,176.5,297.6,169.3,312.5z M116.6,220.1v16.6c9,0,17.7,0.1,26.4-0.1c1.1,0,2.1-1.4,3.9-2.6
			C136.2,229,126.8,224.7,116.6,220.1L116.6,220.1z M332.1,338.1c0.3,0.6,0.7,1.3,1.1,1.9c3.2-0.5,7.4,0.2,9.4-1.6
			c6.2-5.6,11.5-12.2,17.3-18.4c-1.4-0.8-2.9-1.9-4.6-2.4c-1.2-0.4-3.3-0.7-4,0C344.8,324.2,338.5,331.2,332.1,338.1z M114.5,308.3
			c4.5-10.7,8.7-20.5,13-30.6h-13V308.3z M140.3,246.4h-24.4v6.2c5.7,0,11.3-0.3,16.9,0.1C137.5,253.1,139.9,251.5,140.3,246.4z
			 M353.9,339.4c10.2,4.3,14.8-3.3,21-8.2c-2.1-1.8-4.2-3.5-6.5-5.6C363.5,330.3,358.8,334.8,353.9,339.4z M115.1,268
			c4.3,0,7.9-0.3,11.5,0.1c4.6,0.5,6.7-1.4,7.1-5.8h-18.3C115.3,264.1,115.2,265.8,115.1,268L115.1,268z M425.5,322
			c3.6,8.3,5.7,9.4,15.3,7.8C438,321.7,436.9,321.1,425.5,322z M413.3,305.9c3,8.1,9.3,7.7,16,6
			C423.8,303.3,425.1,303.2,413.3,305.9z M415.1,295.8c-6.7-7.6-8.4-8-17.4-4.4C401.6,295.7,407.4,297.1,415.1,295.8z M393.4,300.8
			c-7.5-6.7-6.2-6.9-15-1.6C382.7,304.3,387.7,305.7,393.4,300.8z M407.4,314.9c-5.7-7.8-4.7-7.6-13.5-3.5
			C399,318.5,399.6,318.6,407.4,314.9z M361.2,309.4c6.6,5.5,6.9,5.5,14.4-0.1C368.6,303.6,368.5,303.6,361.2,309.4z M406,325.6
			c1.8,2.6,3.4,4.8,5.1,7.1c2.7-0.6,5.3-1.3,7.8-1.8C415.7,322.9,415.1,322.6,406,325.6L406,325.6z M376.7,320.1
			c2.4,2,4.5,3.9,6.5,5.7c2.4-1.4,4.7-2.7,7-4.1C383.5,314.7,385.6,314.4,376.7,320.1L376.7,320.1z M389.8,333.1
			c1.8,2.3,3.4,4.3,5.1,6.5c2.5-1.3,4.8-2.4,7.1-3.6C397.1,328.2,397,328.2,389.8,333.1z M435.3,339.3c1.4,4.8,4.4,5.6,12.8,3.9
			C444.6,338.8,439.8,340.4,435.3,339.3z M425.8,343.1c-1.6-4-4.8-4.1-12.5-0.7C417.8,342.7,421.6,342.9,425.8,343.1z"/>
		<path class="svg_base" d="M323.8,406.5c0,6.2,0,12.3,0,18.4c0,3.3-0.6,6.2-4.6,6.2c-4,0-4.7-2.9-4.7-6.2c0-5.8,0-11.6,0-18.2
			c-11,1.4-21.6,2.6-32.5,4v8.8c0,10.8,0,21.6,0,32.4c0,1,0,2,0,3c-0.2,3.1-1.4,5.3-4.8,5.3c-3.4,0-4.5-2.3-4.5-5.5
			c0-12.4,0-24.8,0-37.1c0-1.6,0-3.1,0-5.3c-12,2.1-23.6,4-35.1,6.3c-55.7,10.9-110.5,25-165,40.9c-1.9,0.6-4.3,0.7-6.1,0
			c-1.2-0.5-2.5-3.2-2.1-4.4c0.5-1.7,2.3-3.6,4-4.1c12.8-3.9,25.6-7.5,38.5-11.1c48.5-13.2,97.3-24.9,146.7-33.9
			c34.3-6.3,68.8-9.9,103.6-10.6c34.5-0.7,69-1.4,103.4-2.1c2,0,4,0,5.9,0.1c3,0.1,5,1.4,5,4.6c0,3.3-2.1,4.8-5.2,4.8
			c-5.4,0-10.7-0.1-16.1,0c-40.9,1.1-81.9,2.2-122.8,3.4C326.5,406,325.4,406.2,323.8,406.5L323.8,406.5z"/>
		<path class="svg_base" d="M256.2,366.1c-46.2-1.9-92.5-3.8-138.7-5.7c-23.3-0.9-46.7-1.8-70-2.8c-1.5-0.1-3.5,0.1-4.4-0.8c-1.3-1.1-2.7-3.4-2.3-4.7
			c0.5-1.6,2.6-3.4,4.3-3.7c2.8-0.6,5.9,0,8.8,0.1c39.5,1.6,79,3.2,118.5,4.9c52.3,2.2,104.6,4.3,156.9,6.5
			c38.2,1.6,76.5,3.1,114.7,4.6c7.2,0.3,14.3,0.6,21.5,0.9c3.3,0.1,6.2,1,6,4.9c-0.2,3.9-3.2,4.5-6.4,4.4c-30.5-1.3-61-2.5-91.5-3.7
			c-24.9-1-49.8-2-74.6-3.1c-14.2-0.6-28.4-1.2-42.6-1.8C256.2,366,256.2,366.1,256.2,366.1L256.2,366.1z"/>
		<path class="svg_base" d="M254.8,68.9c13.9-3.4,22.6,1.2,27.8,14.7c5.3,0,10.8,0,16.3,0c3.4,0,6.1,0.9,6.1,4.8c0,3.9-2.9,4.7-6.2,4.6
			c-6.3-0.1-12.7-0.1-19,0c-3.7,0-5.6-1.5-6.1-5.4c-1.2-9.2-9.5-13.2-17.5-8.5c-4.5,2.6-6.6,1.8-8.6-3.3c-3.5-9-11.4-14.5-20.5-14.3
			c-8.7,0.2-16.8,6-19.7,14.3c-0.1,0.4-0.1,0.8-0.1,1c4.4,1.1,8.9,1.7,12.8,3.6c3.7,1.8,6.8,4.9,9.8,7.8c1.6,1.6,2.7,2.6,5.2,2.1
			c10.9-2.2,21.3,5.9,22.6,17.1c1.2,10.9-7.2,21.2-18,21.5c-8,0.3-16.1,0.1-24.1,0.1c-3,0-5-1.3-5.1-4.4c-0.1-3.4,2-4.9,5.1-4.9
			c7.2-0.1,14.4,0,21.5-0.1c1.8,0,3.7-0.2,5.3-0.8c5.1-2.1,7.4-8,5.3-13.1c-2.1-5.2-8-7.7-13.3-5.6c-6.6,2.6-6.5,2.6-10-3.6
			c-3.6-6.3-8.9-9.7-16.3-9.6c-7.2,0.2-12.2,3.7-15.5,10c-2.6,5.1-3.4,5.4-8.9,3.2c-6.6-2.7-12.8,0.9-14.3,8.1
			c-0.4,2-1.5,4.4-3.1,5.4c-3,1.8-6.1-0.9-6.1-5c0-11,10.8-20.5,21.7-18.7c2.4,0.4,3.4-0.4,5.3-1.8c6.6-5.5,10.1-12.6,14-20.2
			c10.7-20.8,39.8-21.1,52.3-1.3C253.8,67.1,254.2,67.9,254.8,68.9L254.8,68.9z"/>
		<path class="svg_base" d="M154.7,396.3c-37-6.1-72.9-12.1-108.8-18.1c-1.8-0.3-3.9-1.3-4.9-2.6c-0.8-1-0.7-3.9,0.1-4.6c1.5-1.2,4-2.2,5.9-1.9
			c8.9,1.2,17.8,2.8,26.6,4.3c31.8,5.3,63.5,10.6,95.3,15.9c0.7,0.1,1.4,0.1,2.1,0.3c2.5,0.5,5.1,1.6,4.7,4.4
			c-0.3,1.8-2,4.1-3.6,4.9c-6.4,3.2-13.1,5.9-19.7,8.8c-33.1,14.5-66.2,29-99.4,43.4c-1.9,0.8-4.3,0.8-6.3,0.4
			c-0.9-0.2-2.2-2.8-1.8-3.8c0.6-1.8,2-3.8,3.7-4.6c17.1-7.6,34.3-15.1,51.4-22.6c17.3-7.6,34.5-15.1,51.8-22.7
			C152.5,397.5,153.2,397.1,154.7,396.3L154.7,396.3z"/>
		<path class="svg_base" d="M362.2,133.9c4.6-7.4,11-12.3,19.5-13.8c11.2-2,20.5,1.8,27.5,10.8c1.7,2.2,3.1,2.7,5.8,2.3c11.6-1.9,22.1,6.5,23.3,18.1
			c1.2,11.7-7.7,22-19.7,22.5c-8,0.3-16,0.1-24.1,0.1c-3.1,0-5.5-1.2-5.5-4.5c-0.1-3.5,2.2-4.9,5.5-4.9c7.6,0.1,15.2,0,22.8,0
			c5.4,0,9.2-2.4,11-6.9c1.7-4.3,0.7-8.9-2.6-12.1c-3.5-3.4-8-4-12.9-1.7c-4.7,2.2-6.2,1.7-8.5-3.2c-3.5-7.5-9.4-11.7-17.6-11.7
			c-8.3,0-14,4.4-17.5,11.9c-2.1,4.4-3.6,4.9-7.9,3c-7.6-3.5-14.7,0.2-16.1,8.5c-0.6,3.3-1.5,6-5.4,5.5c-4-0.5-4.2-3.6-3.8-6.8
			c1.2-11.3,11.9-19.5,23.2-17.8C360.2,133.4,361.1,133.6,362.2,133.9L362.2,133.9z"/>
		<path class="svg_base" d="M371.8,174c-1.7-0.1-3.7,0.3-4.9-0.5c-1.5-1-3.4-3.1-3.3-4.6c0.1-1.5,2.1-3.8,3.7-4.1c2.8-0.7,5.8-0.3,8.8-0.2
			c2.9,0.1,4.8,2,4.3,4.6c-0.3,1.7-2.3,3.5-4,4.5c-1.1,0.7-3,0.1-4.5,0.1C371.8,173.9,371.8,173.9,371.8,174L371.8,174z"/>
		<path class="svg_base" d="M321.1,94c-2.6-1.2-5.4-1.6-6.4-3.2c-0.9-1.3,0.1-5.7,0.6-5.8c3.7-0.6,7.5-0.6,11.2-0.1c0.7,0.1,1.9,4.4,1.1,5.4
			C326.2,92,323.5,92.7,321.1,94L321.1,94z"/>
		<path class="svg_base" d="M208.7,322.4c1-1.9,1.5-3.4,2.5-4.5c6.2-6.9,12.5-13.8,18.9-20.5c2.9-3,6.3-3.2,8-0.7c2.2,3.1,0.6,5.4-1.8,7.7
			c-6.3,6.5-12.2,13.3-18.6,19.7c-1.2,1.3-3.6,2.1-5.4,1.8C211.1,325.7,210,323.7,208.7,322.4L208.7,322.4z"/>
		<path class="svg_base" d="M255.6,289.2c-3.2,2.5-5.2,4.7-7.6,5.9c-1.7,0.8-4.4,1.3-5.7,0.5c-1.2-0.8-2.3-4.7-1.7-5.2c2.7-2.4,5.9-4.5,9.2-5.8
			C250.8,284.2,252.9,287,255.6,289.2z"/>
	</g>
</g>
</svg>
