<?xml version="1.0" encoding="iso-8859-1"?>
<!-- Uploaded to: SVG Repo, www.svgrepo.com, Generator: SVG Repo Mixer Tools -->
<svg version="1.1" id="Capa_1" xmlns="http://www.w3.org/2000/svg" xmlns:xlink="http://www.w3.org/1999/xlink" 
	 viewBox="0 0 512 512" xml:space="preserve">
<g>
	<path d="M360.063,296.323c-13.123,0-23.826,10.56-24.059,23.629c-0.003,0.083-0.004,0.167-0.004,0.25v24.121c0,4.418,3.582,8,8,8
		h32.125c4.418,0,8-3.582,8-8v-23.938C384.125,307.117,373.331,296.323,360.063,296.323z M368.125,336.323H352v-15.938
		c0-4.446,3.617-8.063,8.063-8.063s8.063,3.617,8.063,8.063V336.323z"/>
	<path d="M478.396,365.085c0.079-0.106,0.16-0.209,0.234-0.318c0.081-0.121,0.151-0.246,0.225-0.37c0.059-0.1,0.122-0.198,0.177-0.3
		c0.067-0.126,0.125-0.255,0.185-0.384c0.051-0.108,0.105-0.215,0.151-0.326c0.052-0.125,0.094-0.252,0.139-0.378
		c0.043-0.12,0.089-0.238,0.126-0.361c0.039-0.128,0.067-0.258,0.099-0.387c0.031-0.124,0.066-0.246,0.091-0.373
		c0.03-0.151,0.048-0.303,0.07-0.455c0.015-0.106,0.035-0.211,0.046-0.319c0.026-0.265,0.04-0.531,0.04-0.797v-55.99
		c0-0.266-0.014-0.532-0.04-0.797c-0.01-0.108-0.031-0.212-0.046-0.319c-0.021-0.152-0.04-0.304-0.07-0.455
		c-0.025-0.126-0.06-0.249-0.091-0.373c-0.032-0.129-0.061-0.259-0.099-0.387c-0.037-0.123-0.083-0.241-0.126-0.361
		c-0.045-0.126-0.087-0.254-0.139-0.378c-0.046-0.111-0.1-0.217-0.151-0.326c-0.06-0.129-0.117-0.258-0.185-0.384
		c-0.055-0.103-0.118-0.2-0.177-0.3c-0.074-0.124-0.144-0.249-0.225-0.37c-0.073-0.11-0.155-0.213-0.234-0.318
		c-0.077-0.104-0.149-0.209-0.232-0.31c-0.149-0.181-0.307-0.353-0.47-0.52c-0.02-0.021-0.037-0.043-0.058-0.064l-21.657-21.657
		v-93.02c4.418,0,8-3.582,8-8v-15.667c0-4.418-3.582-8-8-8s-8,3.582-8,8v7.667h-16.083V96.364V63.989c0-4.418-3.582-8-8-8
		s-8,3.582-8,8v24.375h-15.75v-8.811c0-4.418-3.582-8-8-8s-8,3.582-8,8v8.811h-16.083v-8.811c0-4.418-3.582-8-8-8s-8,3.582-8,8
		v8.811h-15.917v-8.811c0-4.418-3.582-8-8-8s-8,3.582-8,8v8.811h-16V63.989c0-4.418-3.582-8-8-8s-8,3.582-8,8v32.375v71.625h-15.5
		v-7.667c0-4.418-3.582-8-8-8s-8,3.582-8,8v15.667c0,4.25,3.316,7.715,7.5,7.975v93.045l-21.657,21.657
		c-0.021,0.021-0.037,0.043-0.058,0.064c-0.164,0.167-0.322,0.339-0.47,0.52c-0.083,0.101-0.155,0.207-0.232,0.31
		c-0.079,0.106-0.16,0.209-0.234,0.318c-0.081,0.121-0.151,0.246-0.225,0.37c-0.059,0.1-0.122,0.198-0.177,0.3
		c-0.067,0.126-0.125,0.255-0.185,0.384c-0.051,0.108-0.105,0.215-0.151,0.326c-0.052,0.125-0.094,0.252-0.139,0.378
		c-0.043,0.12-0.089,0.238-0.126,0.361c-0.039,0.128-0.067,0.258-0.099,0.387c-0.031,0.124-0.066,0.246-0.091,0.373
		c-0.03,0.151-0.048,0.303-0.07,0.455c-0.015,0.106-0.035,0.211-0.046,0.319c-0.026,0.265-0.04,0.531-0.04,0.797v15.661h-15.917
		v-7.667c0-4.418-3.582-8-8-8s-8,3.582-8,8v7.667h-16.083v-7.667c0-4.418-3.582-8-8-8s-8,3.582-8,8v7.667h-16.073v-7.667
		c0-4.418-3.582-8-8-8s-8,3.582-8,8v7.667h-16.083v-7.667c0-4.418-3.582-8-8-8s-8,3.582-8,8v7.667H96.072v-7.667
		c0-4.418-3.582-8-8-8s-8,3.582-8,8v7.667H64v-15.661c0-0.266-0.014-0.532-0.04-0.797c-0.01-0.108-0.031-0.212-0.046-0.319
		c-0.021-0.152-0.04-0.304-0.07-0.455c-0.025-0.126-0.06-0.249-0.091-0.373c-0.032-0.129-0.061-0.259-0.099-0.387
		c-0.037-0.123-0.083-0.241-0.126-0.361c-0.045-0.126-0.087-0.254-0.139-0.378c-0.046-0.111-0.1-0.217-0.151-0.326
		c-0.06-0.129-0.117-0.258-0.185-0.384c-0.055-0.103-0.118-0.2-0.177-0.3c-0.074-0.124-0.144-0.249-0.225-0.37
		c-0.073-0.11-0.155-0.213-0.234-0.318c-0.077-0.104-0.149-0.209-0.232-0.31c-0.149-0.181-0.307-0.353-0.47-0.52
		c-0.02-0.021-0.037-0.043-0.058-0.064l-24-24c-3.125-3.124-8.189-3.124-11.314,0l-24,24c-0.021,0.021-0.037,0.043-0.058,0.064
		c-0.164,0.167-0.322,0.339-0.47,0.52c-0.083,0.101-0.155,0.207-0.232,0.31c-0.079,0.106-0.16,0.209-0.234,0.318
		c-0.081,0.121-0.151,0.246-0.225,0.37c-0.059,0.1-0.122,0.198-0.177,0.3c-0.067,0.126-0.125,0.255-0.185,0.384
		c-0.051,0.108-0.105,0.215-0.151,0.326c-0.052,0.125-0.094,0.252-0.139,0.378c-0.043,0.12-0.089,0.238-0.126,0.361
		c-0.039,0.128-0.067,0.258-0.099,0.387c-0.031,0.124-0.066,0.246-0.091,0.373c-0.03,0.151-0.048,0.303-0.07,0.455
		c-0.015,0.106-0.035,0.211-0.046,0.319C0.014,303.796,0,304.062,0,304.328v55.99c0,0.266,0.014,0.532,0.04,0.797
		c0.01,0.108,0.031,0.212,0.046,0.319c0.021,0.152,0.04,0.304,0.07,0.455c0.025,0.126,0.06,0.249,0.091,0.373
		c0.032,0.129,0.061,0.259,0.099,0.387c0.037,0.123,0.083,0.241,0.126,0.361c0.045,0.126,0.087,0.254,0.139,0.378
		c0.046,0.111,0.1,0.217,0.151,0.326c0.06,0.129,0.117,0.258,0.185,0.384c0.055,0.103,0.118,0.2,0.177,0.3
		c0.074,0.124,0.144,0.249,0.225,0.37c0.073,0.11,0.155,0.213,0.234,0.318c0.077,0.104,0.149,0.209,0.232,0.31
		c0.149,0.181,0.307,0.353,0.47,0.52c0.02,0.021,0.037,0.043,0.058,0.064l21.47,21.47v20.54h-7.792c-4.418,0-8,3.582-8,8
		s3.582,8,8,8h439.458c4.418,0,8-3.582,8-8c0-4.25-3.316-7.715-7.5-7.975v-20.378l21.657-21.657
		c0.021-0.021,0.037-0.043,0.058-0.064c0.164-0.167,0.322-0.339,0.47-0.52C478.246,365.295,478.319,365.189,478.396,365.085z
		 M256.146,312.323h32v40h-32V312.323z M272.146,291.636l4.686,4.687h-9.373L272.146,291.636z M276.832,368.323l-4.686,4.687
		l-4.686-4.687H276.832z M280.146,387.637l21.657-21.657c0.021-0.021,0.037-0.043,0.058-0.064c0.164-0.167,0.322-0.339,0.47-0.52
		c0.083-0.101,0.155-0.207,0.232-0.31c0.079-0.106,0.16-0.209,0.234-0.318c0.081-0.121,0.151-0.246,0.225-0.37
		c0.059-0.1,0.122-0.198,0.177-0.3c0.067-0.126,0.125-0.255,0.185-0.384c0.051-0.108,0.105-0.215,0.151-0.326
		c0.052-0.125,0.094-0.252,0.139-0.378c0.043-0.12,0.089-0.238,0.126-0.361c0.039-0.128,0.067-0.258,0.099-0.387
		c0.031-0.124,0.066-0.246,0.091-0.373c0.03-0.151,0.048-0.303,0.07-0.455c0.015-0.106,0.035-0.211,0.046-0.319
		c0.026-0.265,0.04-0.531,0.04-0.797v-55.99c0-0.266-0.014-0.532-0.04-0.797c-0.01-0.108-0.031-0.212-0.046-0.319
		c-0.021-0.152-0.04-0.304-0.07-0.455c-0.025-0.126-0.06-0.249-0.091-0.373c-0.032-0.129-0.061-0.259-0.099-0.387
		c-0.037-0.123-0.083-0.241-0.126-0.361c-0.045-0.126-0.087-0.254-0.139-0.378c-0.046-0.111-0.1-0.217-0.151-0.326
		c-0.06-0.129-0.117-0.258-0.185-0.384c-0.055-0.103-0.118-0.2-0.177-0.3c-0.074-0.124-0.144-0.249-0.225-0.37
		c-0.073-0.11-0.155-0.213-0.234-0.318c-0.077-0.104-0.149-0.209-0.232-0.31c-0.149-0.181-0.307-0.353-0.47-0.52
		c-0.02-0.021-0.037-0.043-0.058-0.064l-21.657-21.657v-93.02h159.833v93.02l-21.657,21.657c-0.021,0.021-0.037,0.043-0.058,0.064
		c-0.164,0.167-0.322,0.339-0.47,0.52c-0.083,0.101-0.155,0.207-0.232,0.31c-0.079,0.106-0.16,0.209-0.234,0.318
		c-0.081,0.121-0.151,0.246-0.225,0.37c-0.059,0.1-0.122,0.198-0.177,0.3c-0.067,0.126-0.125,0.255-0.185,0.384
		c-0.051,0.108-0.105,0.215-0.151,0.326c-0.052,0.125-0.094,0.252-0.139,0.378c-0.043,0.12-0.089,0.238-0.126,0.361
		c-0.039,0.128-0.067,0.258-0.099,0.387c-0.031,0.124-0.066,0.246-0.091,0.373c-0.03,0.151-0.048,0.303-0.07,0.455
		c-0.015,0.106-0.035,0.211-0.046,0.319c-0.026,0.265-0.04,0.531-0.04,0.797v55.99c0,0.266,0.014,0.532,0.04,0.797
		c0.01,0.108,0.031,0.212,0.046,0.319c0.021,0.152,0.04,0.304,0.07,0.455c0.025,0.126,0.06,0.249,0.091,0.373
		c0.032,0.129,0.061,0.259,0.099,0.387c0.037,0.123,0.083,0.241,0.126,0.361c0.045,0.126,0.087,0.254,0.139,0.378
		c0.046,0.111,0.1,0.217,0.151,0.326c0.06,0.129,0.117,0.258,0.185,0.384c0.055,0.103,0.118,0.2,0.177,0.3
		c0.074,0.124,0.144,0.249,0.225,0.37c0.073,0.11,0.155,0.213,0.234,0.318c0.077,0.104,0.149,0.209,0.232,0.31
		c0.149,0.181,0.307,0.353,0.47,0.52c0.02,0.021,0.037,0.043,0.058,0.064l21.657,21.657v20.353H280.146V387.637z M463.979,352.323
		h-32v-40h32V352.323z M443.292,296.323l4.686-4.687l4.686,4.687H443.292z M447.979,373.009l-4.686-4.687h9.373L447.979,373.009z
		 M304.146,104.364h111.75v63.625h-15.75v-7.667c0-4.418-3.582-8-8-8s-8,3.582-8,8v7.667h-16.083v-7.667c0-4.418-3.582-8-8-8
		s-8,3.582-8,8v7.667h-15.917v-7.667c0-4.418-3.582-8-8-8s-8,3.582-8,8v7.667h-16V104.364z M48,352.323H16v-40h32V352.323z
		 M32,373.009l-4.686-4.687h9.373L32,373.009z M36.686,296.323h-9.373L32,291.636L36.686,296.323z M39.813,387.824l21.845-21.845
		c0.021-0.021,0.037-0.043,0.058-0.064c0.164-0.167,0.322-0.339,0.47-0.52c0.083-0.101,0.155-0.207,0.232-0.31
		c0.079-0.106,0.16-0.209,0.234-0.318c0.081-0.121,0.151-0.246,0.225-0.37c0.059-0.1,0.122-0.198,0.177-0.3
		c0.067-0.126,0.125-0.255,0.185-0.384c0.051-0.108,0.105-0.215,0.151-0.326c0.052-0.125,0.094-0.252,0.139-0.378
		c0.043-0.12,0.089-0.238,0.126-0.361c0.039-0.128,0.067-0.258,0.099-0.387c0.031-0.124,0.066-0.246,0.091-0.373
		c0.03-0.151,0.048-0.303,0.07-0.455c0.015-0.106,0.035-0.211,0.046-0.319c0.026-0.265,0.04-0.531,0.04-0.797v-24.328h176.146
		v24.328c0,0.266,0.014,0.532,0.04,0.797c0.01,0.108,0.031,0.212,0.046,0.319c0.021,0.152,0.04,0.304,0.07,0.455
		c0.025,0.126,0.06,0.249,0.091,0.373c0.032,0.129,0.061,0.259,0.099,0.387c0.037,0.123,0.083,0.241,0.126,0.361
		c0.045,0.126,0.087,0.254,0.139,0.378c0.046,0.111,0.1,0.217,0.151,0.326c0.06,0.129,0.117,0.258,0.185,0.384
		c0.055,0.103,0.118,0.2,0.177,0.3c0.074,0.124,0.144,0.249,0.225,0.37c0.073,0.11,0.155,0.213,0.234,0.318
		c0.077,0.104,0.149,0.209,0.232,0.31c0.149,0.181,0.307,0.353,0.47,0.52c0.02,0.021,0.037,0.043,0.058,0.064l21.657,21.657v20.353
		H39.813V387.824z"/>
	<path d="M344,231.739c4.418,0,8-3.582,8-8v-16.083c0-4.418-3.582-8-8-8s-8,3.582-8,8v16.083
		C336,228.158,339.582,231.739,344,231.739z"/>
	<path d="M376.125,199.656c-4.418,0-8,3.582-8,8v16.083c0,4.418,3.582,8,8,8s8-3.582,8-8v-16.083
		C384.125,203.237,380.543,199.656,376.125,199.656z"/>
	<path d="M344,279.989c4.418,0,8-3.582,8-8v-16.083c0-4.418-3.582-8-8-8s-8,3.582-8,8v16.083
		C336,276.408,339.582,279.989,344,279.989z"/>
	<path d="M376.125,247.906c-4.418,0-8,3.582-8,8v16.083c0,4.418,3.582,8,8,8s8-3.582,8-8v-16.083
		C384.125,251.487,380.543,247.906,376.125,247.906z"/>
	<path d="M80.146,383.989h-7.927c-4.418,0-8,3.582-8,8s3.582,8,8,8h7.927c4.418,0,8-3.582,8-8S84.563,383.989,80.146,383.989z"/>
	<path d="M128.479,383.989h-7.927c-4.418,0-8,3.582-8,8s3.582,8,8,8h7.927c4.418,0,8-3.582,8-8S132.896,383.989,128.479,383.989z"/>
	<path d="M176.219,383.989h-7.928c-4.418,0-8,3.582-8,8s3.582,8,8,8h7.928c4.418,0,8-3.582,8-8S180.637,383.989,176.219,383.989z"/>
	<path d="M224.135,383.989h-7.927c-4.418,0-8,3.582-8,8s3.582,8,8,8h7.927c4.418,0,8-3.582,8-8S228.553,383.989,224.135,383.989z"/>
</g>
</svg>