<?xml version="1.0" encoding="utf-8"?>
<!-- Generator: Adobe Illustrator 27.7.0, SVG Export Plug-In . SVG Version: 6.00 Build 0)  -->
<svg version="1.1" id="Capa_1" xmlns="http://www.w3.org/2000/svg" xmlns:xlink="http://www.w3.org/1999/xlink" x="0px" y="0px"
	 viewBox="0 0 217 217" style="enable-background:new 0 0 217 217;" xml:space="preserve">
<style type="text/css">
	.svg_base{fill:#343434;}
	.svg_accent{fill:#FF5166;}
</style>
<g>
	<g>
		<g>
			<path class="svg_base" d="M61.6,58.6v53.9h86.2V58.6H61.6z M137,80.1H83.1v10.8H137v10.8H72.4V69.3H137V80.1z"/>
			<path class="svg_accent" d="M50.8,112.5v53.9h107.8v-53.9H50.8z M147.8,155.6H61.6v-10.8H137V134H61.6v-10.8h86.2V155.6z"/>
		</g>
		<g>
			<polygon class="svg_accent" points="23.8,74.6 37.1,74.6 29.9,81.8 36.1,88.1 54.9,69.3 36.1,50.6 29.9,56.9 38.2,65.2 23.8,65.2 
				14.4,65.2 14.4,74.6 14.4,134.7 14.4,144.1 23.8,144.1 37.1,144.1 37.1,134.7 23.8,134.7 			"/>
			<polygon class="svg_accent" points="193.2,65.2 168.6,65.2 168.6,74.6 193.2,74.6 193.2,134.7 182.3,134.7 190.1,126.9 183.9,120.7 
				165.1,139.4 183.9,158.1 190.1,151.9 182.3,144.1 193.2,144.1 193.2,144.1 202.6,144.1 202.6,144.1 202.6,134.7 202.6,74.6 
				202.6,65.2 			"/>
		</g>
	</g>
</g>
</svg>
