<?xml version="1.0" encoding="utf-8"?>
<!-- Generator: Adobe Illustrator 27.6.1, SVG Export Plug-In . SVG Version: 6.00 Build 0)  -->
<svg version="1.1" id="Capa_1" xmlns="http://www.w3.org/2000/svg" xmlns:xlink="http://www.w3.org/1999/xlink" x="0px" y="0px"
	 viewBox="0 0 512 512" style="enable-background:new 0 0 512 512;" xml:space="preserve">
<g>
	<path d="M334.8,248.1l-54,54L179.7,200.9l54-54l-80.4-80.4l-88.9,88.9c-9.8,9.8-15.2,22.8-15.2,36.7s5.4,26.9,15.2,36.7
		l229.8,229.8l88.9-88.9c20.2-20.2,20.2-53.2,0-73.4L334.8,248.1z M365.4,352.2l-71.2,71.2L82,211.2c-10.5-10.5-10.5-27.6,0-38.1
		l71.2-71.2l45,45l-54,54l136.5,136.5l54-54l30.6,30.6C375.9,324.6,375.9,341.7,365.4,352.2z"/>
	<path d="M305.2,53.2v129.6H253v25h52.2h43h114.6V53.2H305.2z M437.9,182.8h-89.6h-18V78.2h107.6V182.8z"/>
	<rect x="354.5" y="98.4" width="59.2" height="25"/>
	<rect x="354.5" y="140.7" width="59.2" height="25"/>
</g>
</svg>
