<svg version="1.1" id="Capa_1" xmlns="http://www.w3.org/2000/svg" xmlns:xlink="http://www.w3.org/1999/xlink" x="0px" y="0px"
	 viewBox="0 0 512 512" style="enable-background:new 0 0 512 512;" xml:space="preserve">
<g>
	<path d="M256,422.7l-6.5-4c-1.7-1-42-25.9-82.9-64.6c-24.2-22.9-43.6-46-57.6-68.6C91,256.4,81.8,228,81.8,201
		c0-60.4,49.1-109.5,109.5-109.5c23.4,0,46,7.4,64.7,21.1c18.7-13.7,41.3-21.1,64.7-21.1c60.4,0,109.5,49.1,109.5,109.5
		c0,27-9.1,55.4-27.1,84.5c-14,22.6-33.4,45.6-57.6,68.6c-40.9,38.7-81.2,63.5-82.9,64.6L256,422.7z M191.3,116.5
		c-46.6,0-84.5,37.9-84.5,84.5c0,87.9,119.6,172.6,149.2,192.1c29.5-19.6,149.2-104.3,149.2-192.1c0-46.6-37.9-84.5-84.5-84.5
		c-20.8,0-40.8,7.6-56.3,21.5l-8.3,7.5l-8.3-7.5C232.2,124.1,212.2,116.5,191.3,116.5z"/>
</g>
</svg>
