<svg version="1.1" id="Capa_1" xmlns="http://www.w3.org/2000/svg" xmlns:xlink="http://www.w3.org/1999/xlink" x="0px" y="0px"
	 viewBox="0 0 512 512" style="enable-background:new 0 0 512 512;" xml:space="preserve">
<g>
	<g>
		<polygon points="107.1,458.6 26.1,458.6 26.1,385.8 54.5,385.8 54.5,430.2 78.6,430.2 78.6,391.5 107.1,391.5 		"/>
	</g>
	<g>
		<polygon points="485.9,458.6 404.9,458.6 404.9,385.8 433.4,385.8 433.4,430.2 457.5,430.2 457.5,391.5 485.9,391.5 		"/>
	</g>
	<g>
		<path d="M485.9,328.8H26.1v-26.1c0-50.2,40.8-91,91-91H395c50.2,0,91,40.8,91,91V328.8z M54.6,300.4h402.8
			c-1.2-33.4-28.8-60.1-62.5-60.1H117C83.4,240.2,55.8,267,54.6,300.4z"/>
	</g>
	<g>
		<path d="M485.9,409.1h-28.5V81.8H85.2c-16.9,0-30.7,13.8-30.7,30.7v202H26.1v-202c0-32.6,26.5-59.2,59.2-59.2h400.7V409.1z"/>
	</g>
	<g>
		<path d="M485.9,395.5H26.1v-95.2h459.8V395.5z M54.5,367.1h402.9v-38.3H54.5V367.1z"/>
	</g>
	<g>
		<path d="M270.2,240.2h-171v-45.5c0-27.8,22.6-50.4,50.4-50.4h70.2c27.8,0,50.4,22.6,50.4,50.4V240.2z M127.7,211.8h114.1v-17
			c0-12.1-9.8-21.9-21.9-21.9h-70.2c-12.1,0-21.9,9.8-21.9,21.9V211.8z"/>
	</g>
	<g>
		<path d="M412.7,240.2h-171v-45.5c0-27.8,22.6-50.4,50.4-50.4h70.2c27.8,0,50.4,22.6,50.4,50.4V240.2z M270.2,211.8h114.1v-17
			c0-12.1-9.8-21.9-21.9-21.9h-70.2c-12.1,0-21.9,9.8-21.9,21.9V211.8z"/>
	</g>
</g>
</svg>
