<svg version="1.1" id="Capa_1" xmlns="http://www.w3.org/2000/svg" xmlns:xlink="http://www.w3.org/1999/xlink" x="0px" y="0px"
	 viewBox="0 0 512 512" style="enable-background:new 0 0 512 512;" xml:space="preserve">
<style type="text/css">
</style>
<path class="svg_base" d="M377.6,251.3c0-19.5-15-35.6-34.2-37.3V112.5c0-27.3-22.2-49.5-49.5-49.5H167.6v150.9h-33.2v30.9c0,12,5.7,22.7,14.5,29.6
	c5.4,23.7,18.7,45.1,37.6,60.6c9.6,7.9,20.4,14,31.9,18.2l-6.4,70.8h-30.3v25h149.9v-25h-30.6l-6.6-70.6
	C306,349.2,317,343,326.7,335c16.7-13.8,29.1-32.2,35.4-52.8h15.5V251.3z M192.6,88H294c13.5,0,24.5,11,24.5,24.5v101.4H192.6V88z
	 M159.4,238.9h8.2h172.6c6.9,0,12.4,5.6,12.4,12.4v5.9H171.8c-6.9,0-12.4-5.6-12.4-12.4V238.9z M269.8,360.1l5.9,63.1h-38.6
	l5.8-63.6l6.9,0.2c2.1,0.1,4.1,0.2,6.2,0.2l0.1,0l0.1,0c0.1,0,0.2,0,0.4,0c0.1,0,0.2,0,0.3,0L269.8,360.1z M256.7,335.1l-6.3-0.2
	c-32.4-2.3-60.7-23.1-72.9-52.6h158.1C322.6,313.5,291.6,335,256.7,335.1z"/>
</svg>
