<?xml version="1.0" encoding="utf-8"?>
<!-- Generator: Adobe Illustrator 27.6.1, SVG Export Plug-In . SVG Version: 6.00 Build 0)  -->
<svg version="1.1" id="Capa_1" xmlns="http://www.w3.org/2000/svg" xmlns:xlink="http://www.w3.org/1999/xlink" x="0px" y="0px"
	 viewBox="0 0 512 512" style="enable-background:new 0 0 512 512;" xml:space="preserve">
<g>
	<path d="M331.9,221.6L319,456.2h94.4l-20.7-234.6h-14.2v-72.7c0-51.3-41.8-93.1-93.1-93.1h-5.5c-47.3,0-86.5,35.5-92.4,81.3
		c-49.4,5.8-87.8,48-87.8,98.9v220.3h199.2V236c0-50.3-37.5-92-86.1-98.7c5.5-32.1,33.5-56.5,67.1-56.5h5.5
		c37.6,0,68.1,30.6,68.1,68.1v72.7H331.9z M124.7,431.2V254.6h149.2v176.7H124.7z M273.6,229.6H125c3.3-38.1,35.3-68.2,74.3-68.2
		S270.3,191.4,273.6,229.6z M345.4,431.2l10.1-184.6h14.3l16.3,184.6H345.4z"/>
	<path d="M207.5,275.5l-7.9-7.2l-8.3,6.7c-1.6,1.3-40,32.8-40,82.7c0,26.4,21.5,47.9,47.9,47.9s47.9-21.5,47.9-47.9
		C247,311.9,209.1,277,207.5,275.5z M199.1,380.6c-12.6,0-22.9-10.3-22.9-22.9c0-25,13.4-44.6,22.5-55c9.3,11.1,23.2,31.8,23.2,55
		C222,370.3,211.7,380.6,199.1,380.6z"/>
</g>
</svg>
