<?xml version="1.0" encoding="utf-8"?>
<!-- Generator: Adobe Illustrator 27.6.1, SVG Export Plug-In . SVG Version: 6.00 Build 0)  -->
<svg version="1.1" id="Capa_1" xmlns="http://www.w3.org/2000/svg" xmlns:xlink="http://www.w3.org/1999/xlink" x="0px" y="0px"
	 viewBox="0 0 512 512" style="enable-background:new 0 0 512 512;" xml:space="preserve">
<g>
	<path d="M115.5,94.6c-30.9,0-56,25.1-56,56v123.2h337c30.9,0,56-25.1,56-56V94.6H115.5z M427.5,217.8c0,17.1-13.9,31-31,31h-312
		v-98.2c0-17.1,13.9-31,31-31h312V217.8z"/>
	<rect x="119.8" y="190.1" width="272.4" height="25"/>
	<path d="M231.9,441l22.2,11.5c1.2-2.3,29.4-57.8,29.4-142h-25C258.5,388.2,232.2,440.4,231.9,441z"/>
	<path d="M313.3,417.3l23.9,7.4c13.9-44.8,18.1-71.5,18.1-114.3l-25,0C330.3,350.8,326.5,374.7,313.3,417.3z"/>
	<path d="M163.9,412.4l22.6,10.7c17-36.1,24.2-69.8,24.2-112.7l-25,0C185.7,349.4,179.2,379.9,163.9,412.4z"/>
</g>
</svg>
