<svg version="1.1" id="Capa_1" xmlns="http://www.w3.org/2000/svg" xmlns:xlink="http://www.w3.org/1999/xlink" x="0px" y="0px"
	 viewBox="0 0 512 512" style="enable-background:new 0 0 512 512;" xml:space="preserve">
<style type="text/css">
	.svg_base {fill:#343434;}
	.svg_line{stroke:#343434;}
</style>
<g>
	<rect class="svg_base" x="103.2" y="173" class="st0" width="111.6" height="25"/>
	<rect class="svg_base" x="103.2" y="224.5" class="st0" width="111.6" height="25"/>
	<rect class="svg_base" x="103.2" y="273.9" class="st0" width="111.6" height="25"/>
	<rect class="svg_base" x="103.2" y="322.7" class="st0" width="111.6" height="25"/>
	<rect class="svg_base" x="296.4" y="173" class="st0" width="111.6" height="25"/>
	<rect class="svg_base" x="296.4" y="224.5" class="st0" width="111.6" height="25"/>
	<rect class="svg_base" x="296.4" y="273.9" class="st0" width="111.6" height="25"/>
	<rect class="svg_base" x="296.4" y="322.7" class="st0" width="111.6" height="25"/>
	<path class="svg_base" d="M315.2,113.5c-24.5,0-46.2,12.4-59.2,31.3c-12.9-18.9-34.6-31.3-59.2-31.3H51v228.9
		c0,39.5,32.1,71.7,71.7,71.7h120.8h25h120.8c39.5,0,71.7-32.1,71.7-71.7V113.5H315.2z M243.5,389.1H122.7
		c-25.7,0-46.7-21-46.7-46.7V138.5h120.8c25.7,0,46.7,20.9,46.7,46.7V389.1z M436,342.4c0,25.7-20.9,46.7-46.7,46.7H268.5v-204
		c0-25.7,20.9-46.7,46.7-46.7H436V342.4z"/>
</g>
</svg>
