<svg version="1.1" id="Capa_1" xmlns="http://www.w3.org/2000/svg" xmlns:xlink="http://www.w3.org/1999/xlink" x="0px" y="0px"
	 viewBox="0 0 512 512" style="enable-background:new 0 0 512 512;" xml:space="preserve">
<style type="text/css">
</style>
<g>
	<path class="svg_base" d="M332.6,316h-41.8h-69.6h-41.8c-57.4,0-104,46.7-104,104v39.5h25V420c0-29,15.7-54.4,39.1-68.2l33.3,61.5l70.6-58.3v104.5
		h25V355l70.6,58.3l33.3-61.5c23.4,13.7,39.1,39.2,39.1,68.2v39.5h25V420C436.6,362.7,389.9,316,332.6,316z M180.4,374.7l-17.3-32
		c5.3-1.1,10.8-1.7,16.4-1.7h41.8L180.4,374.7z M331.6,374.7L290.8,341h41.8c5.6,0,11.1,0.6,16.4,1.7L331.6,374.7z"/>
	<rect class="svg_base" x="315.8" y="435.3" width="48.6" height="25"/>
	<path class="svg_base" d="M163.8,220.8c0,41.5,33.7,75.2,75.2,75.2h34c41.5,0,75.2-33.7,75.2-75.2v-77.7l28.1-55.1L256.1,39L131.4,88.3l32.5,55.3
		V220.8z M273,271h-34c-27.7,0-50.2-22.5-50.2-50.2v-52.7c14.6,12.9,36.4,25,67.2,25c30.8,0,52.6-12.1,67.2-25v52.7
		C323.2,248.5,300.7,271,273,271z M200.4,144.7h111.1c-10.7,11.2-28.6,23.5-55.6,23.5S211.1,155.9,200.4,144.7z M255.9,66l85.7,35
		l-9.5,18.7H178.8l-11.1-18.9L255.9,66z"/>
</g>
</svg>
