<?xml version="1.0" encoding="utf-8"?>
<!-- Generator: Adobe Illustrator 27.5.0, SVG Export Plug-In . SVG Version: 6.00 Build 0)  -->
<svg version="1.1" id="Capa_1" xmlns="http://www.w3.org/2000/svg" xmlns:xlink="http://www.w3.org/1999/xlink" x="0px" y="0px"
	 viewBox="0 0 512 512" style="enable-background:new 0 0 512 512;" xml:space="preserve">
<style type="text/css">
	.st0{fill:#00BFB2;}
	.st1{fill:none;}
	.st2{fill:#FFFFFF;}
	.st3{fill-rule:evenodd;clip-rule:evenodd;fill:#00BFB2;}
	.svg-base{stroke:#30363B;stroke-width:0.1828;}
	.st5{fill-rule:evenodd;clip-rule:evenodd;}
	.st6{fill:url(#SVGID_1_);}
	.st7{fill:#FBFBFB;}
</style>
<g>
	<path class="st0" d="M256,128.8c-70.3,0-127.2,57-127.2,127.2c0,70.3,57,127.2,127.2,127.2c70.3,0,127.2-57,127.2-127.2
		C383.2,185.7,326.3,128.8,256,128.8z M314.4,312.3c-2.3,3.8-7.2,4.9-10.9,2.6c-29.9-18.3-67.5-22.4-111.8-12.3
		c-4.3,1-8.5-1.7-9.5-6c-1-4.3,1.7-8.5,6-9.5c48.5-11.1,90-6.3,123.6,14.2C315.5,303.7,316.7,308.5,314.4,312.3z M329.9,277.6
		c-2.9,4.7-9,6.1-13.6,3.3c-34.2-21-86.3-27.1-126.8-14.8c-5.2,1.6-10.8-1.4-12.4-6.6c-1.6-5.2,1.4-10.8,6.6-12.4
		c46.2-14,103.7-7.2,142.9,16.9C331.3,266.9,332.8,273,329.9,277.6z M331.3,241.6c-41-24.4-108.7-26.6-147.8-14.7
		c-6.3,1.9-12.9-1.6-14.8-7.9c-1.9-6.3,1.6-12.9,7.9-14.8c45-13.6,119.7-11,166.9,17c5.6,3.4,7.5,10.7,4.2,16.3
		C344.2,243,336.9,244.9,331.3,241.6z"/>
</g>
</svg>
