<svg version="1.1" id="Capa_1" xmlns="http://www.w3.org/2000/svg" xmlns:xlink="http://www.w3.org/1999/xlink" x="0px" y="0px"
	 viewBox="0 0 512 512" style="enable-background:new 0 0 512 512;" xml:space="preserve">
<style type="text/css">
	.svg_base {fill:#343434;}
	.svg_line{stroke:#343434;}
</style>
<g>
	<path class="svg_base" d="M234.7,164.4c0,9.2-7.5,16.7-16.7,16.7h-5.9V61.3h-25v119.8h-5.9c-9.2,0-16.7-7.5-16.7-16.7V61.3h-25v103.1
		c0,23,18.7,41.7,41.7,41.7h5.9v136.7v46.8c0,26.7-15.7,54.7-15.8,55l10.9,6.2l10.9,6.2c0.8-1.4,19.1-33.9,19.1-67.3v-46.8V206.1
		h5.9c23,0,41.7-18.7,41.7-41.7V61.3h-25V164.4z"/>
	<path class="svg_base" d="M349.2,75.8c-13.2-12.3-28.7-14.9-39.3-14.9h-12.5v389.9h25V87.9c20.3,7.7,25,34.7,25,58v107.8h25V146
		C372.4,113.8,364.6,90.2,349.2,75.8z"/>
</g>
</svg>
