<?xml version="1.0" encoding="utf-8"?>
<!-- Generator: Adobe Illustrator 28.1.0, SVG Export Plug-In . SVG Version: 6.00 Build 0)  -->
<svg version="1.1" xmlns="http://www.w3.org/2000/svg" xmlns:xlink="http://www.w3.org/1999/xlink" x="0px" y="0px"
	 viewBox="0 0 200 200" style="enable-background:new 0 0 200 200;" xml:space="preserve">
<style type="text/css">
	.st0{fill:none;stroke:#000000;stroke-width:8;stroke-miterlimit:10;}
	
		.st1{clip-path:url(#SVGID_00000053514900029619256070000009584371302125961119_);fill:none;stroke:#000000;stroke-width:8;stroke-miterlimit:10;}
	.st2{fill:none;stroke:#000000;stroke-width:8;stroke-linecap:square;stroke-linejoin:bevel;stroke-miterlimit:10;}
	.st3{fill:none;stroke:#000000;stroke-width:8;stroke-linejoin:bevel;stroke-miterlimit:10;}
	.st4{fill:#F4F1EE;stroke:#000000;stroke-width:8;stroke-miterlimit:10;}
	.st5{fill:none;stroke:#000000;stroke-width:8.2467;stroke-miterlimit:10;}
	.st6{display:none;}
	.st7{display:inline;}
	.st8{font-family:'SofiaSansExtraCondensed-Regular';}
	.st9{font-size:15px;}
	.st10{fill:none;stroke:#000000;stroke-width:8.8218;stroke-miterlimit:10;}
	.st11{fill:none;stroke:#000000;stroke-width:7.7311;stroke-miterlimit:10;}
	.st12{fill:none;stroke:#000000;stroke-width:7.4799;stroke-miterlimit:10;}
</style>
<g id="iconos">
	<g>
		<path class="st0" d="M61.6,153.2v-0.5c0-7.9,6.4-14.3,14.3-14.3h0c7.9,0,14.3,6.4,14.3,14.3v0.5"/>
		<path class="st0" d="M53.5,48.8c0,0,8.1,21.3,8.1,40.4v21.3H100"/>
		<line class="st0" x1="75.3" y1="110.6" x2="75.3" y2="138.5"/>
		<path class="st0" d="M67.2,66.2h5.4c3.9,0,7.1,2.9,7.5,6.7l2.7,23.5h21.6c5.5,0,9.9,4.4,10,9.9l0.6,45.3"/>
		<circle class="st0" cx="79.7" cy="42" r="11"/>
		<path class="st0" d="M104.3,68.7h19.2c5.2,0,9.8-3.3,11.6-8.1l9.7-26.7"/>
		<line class="st0" x1="104.3" y1="82.7" x2="146.5" y2="82.7"/>
		<line class="st0" x1="132.9" y1="82.7" x2="132.9" y2="150"/>
	</g>
</g>
<g id="textos" class="st6">
	<text transform="matrix(1 0 0 1 40.3454 190.63)" class="st7 st8 st9">ZONA DE TRABAJO</text>
</g>
<g id="guias">
</g>
</svg>
