<svg version="1.1" xmlns="http://www.w3.org/2000/svg" xmlns:xlink="http://www.w3.org/1999/xlink" x="0px" y="0px"
	 viewBox="0 0 400 400" style="enable-background:new 0 0 200 200;" xml:space="preserve">
<path class="svg_base" d="M136.719 24.661 C 108.698 30.729,94.939 63.597,110.356 87.634 C 130.691 119.337,178.615 110.267,186.438 73.234 C 192.493 44.576,165.687 18.388,136.719 24.661 M316.302 41.221 C 315.841 42.397,314.133 47.051,312.506 51.563 C 288.014 119.485,288.117 119.236,282.800 123.447 C 276.078 128.771,275.094 128.906,242.960 128.906 L 214.063 128.906 214.063 139.844 L 214.063 150.781 243.643 150.781 C 259.913 150.781,275.118 150.432,277.432 150.005 C 288.457 147.971,302.057 138.053,307.345 128.190 C 310.466 122.370,337.656 47.500,336.917 46.761 C 336.590 46.433,332.983 44.950,328.903 43.465 C 324.823 41.980,320.507 40.387,319.313 39.924 C 317.328 39.156,317.069 39.268,316.302 41.221 M155.475 48.633 C 165.807 54.828,168.195 68.978,160.440 78.038 C 148.009 92.561,123.788 82.183,126.025 63.292 C 127.702 49.134,143.335 41.353,155.475 48.633 M72.909 84.272 C 67.677 86.262,63.165 88.125,62.882 88.412 C 62.600 88.699,64.142 94.344,66.311 100.956 C 72.354 119.384,77.590 141.244,81.413 164.004 C 82.934 173.059,83.088 177.514,83.387 220.898 L 83.711 267.969 102.793 267.969 L 121.875 267.969 121.875 296.751 L 121.875 325.534 118.555 326.507 C 101.080 331.628,85.744 351.125,84.560 369.727 L 84.174 375.781 95.212 375.781 L 106.250 375.781 106.250 372.295 C 106.250 362.958,114.933 351.332,124.609 347.714 C 141.769 341.297,160.404 352.306,163.445 370.658 L 164.293 375.781 175.216 375.781 L 186.139 375.781 185.598 370.291 C 183.527 349.274,168.114 330.749,148.518 325.726 L 144.531 324.705 144.531 296.337 L 144.531 267.969 173.438 267.969 L 202.344 267.969 202.344 257.031 L 202.344 246.094 154.297 246.094 L 106.250 246.094 106.243 223.633 C 106.235 199.865,105.233 175.538,103.874 166.179 C 99.745 137.721,90.073 98.042,83.778 83.735 L 82.422 80.653 72.909 84.272 M110.938 132.714 L 110.938 143.553 119.832 143.894 C 135.328 144.487,134.668 143.283,138.623 178.125 C 139.720 187.793,141.316 201.855,142.169 209.375 C 143.022 216.895,143.919 224.189,144.161 225.586 L 144.602 228.125 179.553 228.125 C 222.082 228.125,223.365 228.348,228.933 236.719 C 231.352 240.357,231.716 248.785,232.443 318.164 L 233.006 371.875 240.136 371.868 C 244.057 371.864,249.054 371.647,251.239 371.384 L 255.213 370.906 254.921 349.320 C 253.184 220.979,254.117 229.727,240.807 217.035 C 230.849 207.540,224.723 206.250,189.586 206.250 L 164.236 206.250 163.793 203.711 C 163.549 202.314,162.267 191.504,160.943 179.688 C 156.710 141.885,156.327 140.349,149.205 132.556 C 142.067 124.746,134.307 121.899,120.117 121.884 L 110.938 121.875 110.938 132.714 M214.063 178.906 L 214.063 189.844 248.438 189.844 L 282.813 189.844 282.813 278.516 L 282.813 367.188 294.141 367.188 L 305.469 367.188 305.469 278.516 L 305.469 189.844 318.750 189.844 L 332.031 189.844 332.031 178.906 L 332.031 167.969 273.047 167.969 L 214.063 167.969 214.063 178.906 "></path>
</svg>
