<svg version="1.1" id="Capa_1" xmlns="http://www.w3.org/2000/svg" xmlns:xlink="http://www.w3.org/1999/xlink" x="0px" y="0px"
	 viewBox="0 0 512 512" style="enable-background:new 0 0 512 512;" xml:space="preserve">
<style type="text/css">
</style>
<path class="svg_base" d="M456.9,154.7l-74.1-74.1c-14.1-14.1-36.9-14.1-51,0l-17.9,17.9c-13.8-7.9-31.6-5.9-43.4,5.8l-34.7,34.7l59.8,59.8
	l-96.9,96.9l-34.3-34.3c-14.1-14.1-36.9-14.1-51,0L78.8,296l18.8,18.8l-42.5,42.5l74.1,74.1c7,7,16.3,10.5,25.5,10.5
	s18.5-3.5,25.5-10.5l17.9-17.9c5.4,3.1,11.5,4.8,17.9,4.8c9.6,0,18.7-3.8,25.5-10.6l34.7-34.7l-59.8-59.8l96.9-96.9l34.3,34.3
	c7,7,16.3,10.5,25.5,10.5c9.2,0,18.5-3.5,25.5-10.5l34.7-34.7l-18.8-18.8L456.9,154.7z M146.9,413.8l-56.5-56.5l24.8-24.8l49.4,49.4
	l14.9,14.9l-17,17C158.2,418.1,151.2,418.1,146.9,413.8z M223.8,390.1c-2.1,2.1-4.9,3.2-7.8,3.2c-3,0-5.7-1.1-7.8-3.2L114.1,296
	l17-17c4.3-4.3,11.3-4.3,15.6,0l94.1,94.1L223.8,390.1z M365.1,98.2l56.5,56.5l-24.8,24.8l-64.3-64.3l17-17
	C353.8,93.9,360.8,93.9,365.1,98.2z M397.9,216l-17,17c-4.3,4.3-11.3,4.3-15.6,0l-94.1-94.1l17-17c4.3-4.3,11.3-4.3,15.6,0
	l92.9,92.9l0,0L397.9,216z"/>
</svg>
