<?xml version="1.0" encoding="utf-8"?>
<!-- Generator: Adobe Illustrator 27.6.1, SVG Export Plug-In . SVG Version: 6.00 Build 0)  -->
<svg version="1.1" id="Capa_1" xmlns="http://www.w3.org/2000/svg" xmlns:xlink="http://www.w3.org/1999/xlink" x="0px" y="0px"
	 viewBox="0 0 512 512" style="enable-background:new 0 0 512 512;" xml:space="preserve">
<g>
	<path d="M417.4,412.2c-17-25.6-25.7-53.9-25.7-84.2V47.6h-239v67.7h-25.4c-23,0-41.8,18.7-41.8,41.8v97.6h159.3v-97.6
		c0-23-18.7-41.8-41.8-41.8h-25.4V72.6h189V328c0,85.1,58.9,131.9,61.4,133.8l15.4-19.7C443.5,442,430.3,431.5,417.4,412.2z
		 M219.9,157.1v72.6H110.6v-72.6c0-9.2,7.5-16.8,16.8-16.8h75.7C212.4,140.3,219.9,147.8,219.9,157.1z"/>
	<path d="M85.6,283.2l0,28.9l0,14.9c0,25.8-19.5,53.7-19.7,54l10.2,7.2l10.2,7.2c1-1.4,24.3-34.6,24.3-68.5l0-14.9l0-28.9
		L85.6,283.2z"/>
	<path d="M150.2,283.2l0,49.1l0,17.8c0,25.8-19.5,53.7-19.7,54l10.2,7.2l10.2,7.2c1-1.4,24.3-34.6,24.3-68.5l0-17.8l0-49.1
		L150.2,283.2z"/>
	<path d="M217,283.2l0,28.9l0,14.9c0,25.8-19.5,53.7-19.7,54l10.2,7.2l10.2,7.2c1-1.4,24.3-34.6,24.3-68.5l0-14.9l0-28.9L217,283.2z
		"/>
</g>
</svg>
