<svg version="1.1" id="Capa_1" xmlns="http://www.w3.org/2000/svg" xmlns:xlink="http://www.w3.org/1999/xlink" x="0px" y="0px"
	 viewBox="0 0 512 512" style="enable-background:new 0 0 512 512;" xml:space="preserve">
<style type="text/css">
	.svg_base {fill:#343434;}
	.svg_line{stroke:#343434;}
</style>
<g>
	<path class="svg_base" d="M348.1,96.5h-25c0,67.9-55.3,123.2-123.2,123.2v25c67.9,0,123.2,55.3,123.2,123.2h25c0-67.9,55.3-123.2,123.2-123.2v-25
		C403.4,219.7,348.1,164.4,348.1,96.5z M335.6,308.3c-14.9-33.9-42.2-61.2-76.1-76.1c33.9-14.9,61.2-42.2,76.1-76.1
		c14.9,33.9,42.2,61.2,76.1,76.1C377.9,247.1,350.6,274.4,335.6,308.3z"/>
	<path class="svg_base" d="M182.2,279.8h-25c0,43.5-35.4,79-79,79v25c43.5,0,79,35.4,79,79h25c0-43.5,35.4-79,79-79v-25
		C217.7,358.8,182.2,323.4,182.2,279.8z M169.7,413.4c-9.6-17.8-24.3-32.4-42.1-42.1c17.8-9.6,32.4-24.3,42.1-42.1
		c9.6,17.8,24.3,32.4,42.1,42.1C194,380.9,179.4,395.6,169.7,413.4z"/>
	<path class="svg_base" d="M119.7,232.2h25c0-43.5,35.4-79,79-79v-25c-43.5,0-79-35.4-79-79h-25c0,43.5-35.4,79-79,79v25
		C84.2,153.2,119.7,188.6,119.7,232.2z M132.2,98.6c9.6,17.8,24.3,32.4,42.1,42.1c-17.8,9.6-32.4,24.3-42.1,42.1
		c-9.6-17.8-24.3-32.4-42.1-42.1C107.8,131.1,122.5,116.4,132.2,98.6z"/>
</g>
</svg>
