<svg version="1.1" id="Capa_1" xmlns="http://www.w3.org/2000/svg" xmlns:xlink="http://www.w3.org/1999/xlink" x="0px" y="0px"
	 viewBox="0 0 512 512" style="enable-background:new 0 0 512 512;" xml:space="preserve">
<path d="M409.2,122.8C403.1,80,366.2,47,321.7,47c-33.5,0-62.7,18.7-77.6,46.2H83.9l-28,42.1l28,42.1h45.3l14-6.5l12.1,6.5h88.8
	c15,27.5,44.2,46.2,77.6,46.2c44.5,0,81.4-33,87.5-75.8h31.1v108c0,46.8-38.1,84.9-85,84.9h-55.6v-33c0-32.6-26.6-59.2-59.2-59.2
	H83.1v157.3c0,32.6,26.6,59.2,59.2,59.2h157.3v-99.3h55.6c60.7,0,110-49.3,110-109.9v-133H409.2z M235,152.4h-73.5L144,143
	l-20.4,9.4H97.3l-11.4-17.1l11.4-17.1H235c-1.1,5.5-1.7,11.2-1.7,17.1S233.9,146.8,235,152.4z M321.7,198.6
	c-34.9,0-63.3-28.4-63.3-63.3S286.8,72,321.7,72c34.9,0,63.3,28.4,63.3,63.3S356.6,198.6,321.7,198.6z M274.7,440H142.3
	c-18.9,0-34.2-15.3-34.2-34.2V273.5h132.3c18.9,0,34.2,15.3,34.2,34.2V440z"/>
</svg>
