<svg version="1.1" id="Capa_1" xmlns="http://www.w3.org/2000/svg" xmlns:xlink="http://www.w3.org/1999/xlink" x="0px" y="0px"
	 viewBox="0 0 400 400" style="enable-background:new 0 0 512 512;" xml:space="preserve">
<path class="svg_base" d="M224.444 59.859 C 114.538 62.727,25.914 150.848,21.483 261.667 L 21.194 268.889 30.979 268.889 L 40.765 268.889 41.070 262.111 C 46.710 136.783,166.422 51.660,286.222 87.791 C 313.301 95.958,337.575 110.030,359.702 130.386 L 364.515 134.814 371.443 127.887 L 378.371 120.959 373.563 116.368 C 334.507 79.079,279.965 58.410,224.444 59.859 M218.444 129.382 C 150.798 135.022,94.552 191.861,90.877 258.294 C 90.751 260.577,90.555 263.894,90.441 265.667 L 90.234 268.889 100.228 268.889 L 110.222 268.889 110.222 264.628 C 110.222 240.927,120.422 213.700,136.965 193.246 C 180.871 138.956,262.229 133.383,312.911 181.194 L 315.836 183.953 322.822 176.956 L 329.807 169.960 325.459 165.969 C 296.439 139.335,257.744 126.105,218.444 129.382 M226.444 198.077 C 175.814 201.254,144.502 254.773,166.655 300.269 C 192.295 352.927,267.730 353.270,294.020 300.848 C 314.838 259.340,290.578 209.028,245.173 199.546 C 241.266 198.730,231.638 197.694,229.556 197.865 C 229.067 197.905,227.667 198.001,226.444 198.077 M243.186 219.240 C 285.003 230.281,295.696 284.595,261.122 310.341 C 227.450 335.415,179.111 311.113,179.111 269.111 C 179.111 235.766,211.196 210.794,243.186 219.240 "></path>
</svg>