<?xml version="1.0" encoding="utf-8"?>
<!-- Generator: Adobe Illustrator 27.6.1, SVG Export Plug-In . SVG Version: 6.00 Build 0)  -->
<svg version="1.1" id="Capa_1" xmlns="http://www.w3.org/2000/svg" xmlns:xlink="http://www.w3.org/1999/xlink" x="0px" y="0px"
	 viewBox="0 0 512 512" style="enable-background:new 0 0 512 512;" xml:space="preserve">
<g>
	<path d="M357.2,275.9c20.2-37.6,30.8-76.8,30.8-115.6c0-72.8-59.2-132-132-132c-72.8,0-132,59.2-132,132
		c0,38.8,10.5,78.1,30.8,115.6c-27.5,0.3-52,18.7-59.8,45.1L47,483.8h309.7c27.7,0,52.5-18.6,60.4-45.2L465,275.9H357.2z
		 M431.6,300.9l-19.4,65.9H285c11.4-10.3,25.9-24.8,40.5-43.2c6-7.5,11.5-15.1,16.7-22.8H431.6z M256,53.2c59,0,107,48,107,107
		c0,62.8-30.8,114.7-56.6,147.2c-19.9,25-40,42.8-50.4,51.3c-10.4-8.5-30.5-26.2-50.4-51.3C179.8,275,149,223.1,149,160.3
		C149,101.2,197,53.2,256,53.2z M118.9,328.1c4.7-16,19.7-27.2,36.4-27.2h13.5v-1.5c5.4,8.2,11.3,16.3,17.7,24.3
		c14.6,18.3,29.1,32.8,40.5,43.2H107.5L118.9,328.1z M100.2,391.8h138.5l-17.1,67H80.4L100.2,391.8z M393.1,431.5
		c-4.7,16-19.7,27.2-36.4,27.2H247.4l17.1-67h140.3L393.1,431.5z"/>
	<path d="M328,160.3c0-39.7-32.3-72-72-72c-39.7,0-72,32.3-72,72c0,39.7,32.3,72,72,72C295.7,232.2,328,199.9,328,160.3z M209,160.3
		c0-25.9,21.1-47,47-47s47,21.1,47,47s-21.1,47-47,47S209,186.2,209,160.3z"/>
</g>
</svg>
