<?xml version="1.0" encoding="utf-8"?>
<!-- Generator: Adobe Illustrator 27.5.0, SVG Export Plug-In . SVG Version: 6.00 Build 0)  -->
<svg version="1.1" id="Capa_1" xmlns="http://www.w3.org/2000/svg" xmlns:xlink="http://www.w3.org/1999/xlink" x="0px" y="0px"
	 viewBox="0 0 512 512" style="enable-background:new 0 0 512 512;" xml:space="preserve">
<style type="text/css">
	.st0{fill:#00BFB2;}
	.st1{fill:none;}
	.st2{fill:#FFFFFF;}
	.st3{fill-rule:evenodd;clip-rule:evenodd;fill:#00BFB2;}
	.svg-base{stroke:#30363B;stroke-width:0.1828;}
	.st5{fill-rule:evenodd;clip-rule:evenodd;}
	.st6{fill:url(#SVGID_1_);}
	.st7{fill:#FBFBFB;}
</style>
<path class="st0" d="M429.9,256.4c0-0.1,0-0.1,0-0.2c0-2.9-1-5.7-3.1-7.9L264,80.3c-4.3-4.4-11.3-4.5-15.7-0.2
	c-4.4,4.3-4.5,11.3-0.2,15.7l144.9,149.5H93.2c-6.1,0-11.1,5-11.1,11.1c0,6.1,5,11.1,11.1,11.1h299L248,416.2
	c-4.3,4.4-4.2,11.5,0.2,15.7c2.2,2.1,5,3.1,7.7,3.1c2.9,0,5.8-1.1,8-3.4l161.6-166.8C428.2,262.9,429.9,259.9,429.9,256.4z"/>
</svg>
