<svg version="1.1" id="Capa_1" xmlns="http://www.w3.org/2000/svg" xmlns:xlink="http://www.w3.org/1999/xlink" x="0px" y="0px"
	 viewBox="0 0 512 512" style="enable-background:new 0 0 512 512;" xml:space="preserve">
<style type="text/css">
	.svg_base {fill:#343434;}
	.svg_line{stroke:#343434;}
</style>
<g>
	<path class="svg_base" d="M376.6,292.4c6.6,4,14.2,6,21.8,6c2.8,0,5.6-0.3,8.3-0.8c10.4-2.1,19.5-7.9,25.8-16.4s9.2-19,8.1-29.5
		c-1-10.5-5.9-20.2-13.7-27.3c-7.1-6.4-16-10.2-25.4-10.9v-0.1h-3.1c-9,0-18,3-25.3,8.4c-6.6,4.9-11.6,11.6-14.5,19.3H71v29.8h287.6
		C362,279.9,368.3,287.5,376.6,292.4z M397.8,268.7c-3.2-0.2-6.1-1.5-8.4-3.7c-2.4-2.4-3.7-5.6-3.7-9c0-3.4,1.3-6.6,3.7-9
		c2.4-2.4,5.6-3.7,9-3.7l0,0c3.4,0,6.6,1.3,9,3.7c2.4,2.4,3.7,5.6,3.7,9c0,3.4-1.3,6.6-3.7,9c-2.4,2.4-5.6,3.7-9,3.7H397.8z"/>
	<path class="svg_base" d="M138.9,337c-7.3-5.4-16.2-8.3-25.3-8.4l0,0c-10.6,0-20.7,3.9-28.5,11s-12.7,16.8-13.7,27.3s1.9,21,8.1,29.5
		c6.3,8.5,15.5,14.3,25.8,16.4c2.8,0.6,5.6,0.8,8.3,0.8c7.6,0,15.1-2.1,21.8-6c8.3-5,14.6-12.6,18-21.6H441v-29.8H153.4
		C150.5,348.6,145.4,341.8,138.9,337z M104.6,362.1c2.4-2.4,5.6-3.7,9-3.7l0,0c3.4,0,6.6,1.3,9,3.7c2.4,2.4,3.7,5.6,3.7,9
		s-1.4,6.6-3.7,9c-2.4,2.4-5.6,3.7-9,3.7s-6.6-1.3-9-3.7s-3.7-5.7-3.7-9C100.8,367.7,102.2,364.5,104.6,362.1z"/>
	<path class="svg_base" d="M153.4,126c-3.4-9-9.7-16.6-18-21.6c-9.1-5.4-19.8-7.3-30.1-5.2c-10.4,2.1-19.5,7.9-25.8,16.4s-9.2,19-8.1,29.5
		c1,10.5,5.9,20.2,13.7,27.3c6.9,6.3,15.7,10.1,25,10.9v0.2h3.5c9,0,18-3,25.3-8.4c6.6-4.9,11.6-11.6,14.5-19.3H441V126L153.4,126
		L153.4,126z M122.6,149.9c-2.4,2.4-5.6,3.7-9,3.7l0,0c-3.4,0-6.6-1.3-9-3.7c-2.4-2.4-3.7-5.6-3.7-9s1.3-6.6,3.7-9
		c2.4-2.4,5.6-3.7,9-3.7c3.3,0,6.6,1.4,9,3.7c2.4,2.4,3.7,5.7,3.7,9C126.3,144.3,125,147.5,122.6,149.9z"/>
</g>
</svg>
