<?xml version="1.0" encoding="utf-8"?>
<!-- Generator: Adobe Illustrator 27.6.1, SVG Export Plug-In . SVG Version: 6.00 Build 0)  -->
<svg version="1.1" id="Capa_1" xmlns="http://www.w3.org/2000/svg" xmlns:xlink="http://www.w3.org/1999/xlink" x="0px" y="0px"
	 viewBox="0 0 512 512" style="enable-background:new 0 0 512 512;" xml:space="preserve">
<g>
	<path d="M138.9,338.4H96v-45.9c0-54.1-22-112.8-23-115.2l-23.4,8.9c0.2,0.6,21.3,57,21.3,106.4v175.3h25V363.4h42.9
		c20.7,0,37.5,16.8,37.5,37.5v62.9h25v-62.9C201.4,366.4,173.4,338.4,138.9,338.4z"/>
	<polygon points="379.1,297.9 379.1,272.9 134.4,272.9 134.4,297.9 243.6,297.9 243.6,463.7 268.6,463.7 268.6,297.9 	"/>
	<path d="M438.9,177.2c-0.9,2.5-23,61.2-23,115.2v45.9h-42.9c-34.4,0-62.5,28-62.5,62.5v62.9h25v-62.9c0-20.7,16.8-37.5,37.5-37.5
		H416v104.4h25V292.5c0-49.4,21.1-105.8,21.3-106.4L438.9,177.2z"/>
	<path d="M243.5,246.2h25v-96.3h139l-2.1-14.3c-0.1-1-3.7-24.2-24.4-46.9c-33.5-36.7-85.6-44.4-123.5-44.4
		c-68.4,0-105.5,24-124.6,44.2c-21.4,22.6-25.7,45.7-25.9,46.7l-2.6,14.7h139V246.2z M152.1,104.6c22.6-23.1,59.1-35.3,105.4-35.3
		c80,0,108.5,35.1,118.3,55.6H137.4C140.5,118.8,145.2,111.7,152.1,104.6z"/>
</g>
</svg>
