<svg version="1.1" id="Capa_1" xmlns="http://www.w3.org/2000/svg" xmlns:xlink="http://www.w3.org/1999/xlink" x="0px" y="0px"
	 viewBox="0 0 512 512" style="enable-background:new 0 0 512 512;" xml:space="preserve">
<g>
	<path d="M210.2,240.2h-25v24.8c0,61.8,15.1,103.4,15.7,105.2l23.5-8.6c-0.1-0.4-14.2-39.5-14.2-96.5V240.2z"/>
	<path d="M191,54.5c-31.4,0-56.9,25.5-56.9,56.9v346H321c31.4,0,56.9-25.5,56.9-56.9v-346H191z M191,79.5h161.9v105.8H159.1v-73.9
		C159.1,93.8,173.4,79.5,191,79.5z M321,432.5H159.1V210.4h193.8v190.2C352.9,418.2,338.6,432.5,321,432.5z"/>
</g>
</svg>
