<svg version="1.1" id="Capa_1" xmlns="http://www.w3.org/2000/svg" xmlns:xlink="http://www.w3.org/1999/xlink" x="0px" y="0px"
	 viewBox="0 0 512 512" style="enable-background:new 0 0 512 512;" xml:space="preserve">
<style type="text/css">
	.svg_base {fill:#343434;}
	.svg_line{stroke:#343434;}
</style>
<g>
	<path class="svg_base" d="M261.9,123.5c25.1,0,49.5,7.1,70.6,20.5l13.4-21.1c-25.1-16-54.1-24.4-84-24.4c-30.4,0-59.9,8.7-85.3,25.3l13.6,21
		C211.6,130.9,236.3,123.5,261.9,123.5z"/>
	<path class="svg_base" d="M132.3,278.2l-24.6,4.3c7.8,44.2,34.4,83,72.9,106.5l13-21.4C161.2,348,138.9,315.3,132.3,278.2z"/>
	<path class="svg_base" d="M334.4,365l13.8,20.8c35.1-23.2,59.7-60.2,67.5-101.3l-24.6-4.7C384.7,314.4,364,345.4,334.4,365z"/>
	<path class="svg_base" d="M399.3,123.6c23,0,41.7-18.7,41.7-41.7c0-23-18.7-41.7-41.7-41.7s-41.7,18.7-41.7,41.7
		C357.6,104.9,376.3,123.6,399.3,123.6z M399.3,65.2c9.2,0,16.7,7.5,16.7,16.7c0,9.2-7.5,16.7-16.7,16.7s-16.7-7.5-16.7-16.7
		C382.6,72.7,390.1,65.2,399.3,65.2z"/>
	<path class="svg_base" d="M406.9,135.3h-7.6h-7.6c-26.8,0-48.5,21.8-48.5,48.5v23c0,19.8-11.7,40.8-11.8,41l21.7,12.4c0.6-1.1,15.1-26.8,15.1-53.4
		v-23c0-13,10.6-23.5,23.5-23.5h7.6h7.6c13,0,23.5,10.6,23.5,23.5v71.3h25v-71.3C455.4,157.1,433.7,135.3,406.9,135.3z"/>
	<path class="svg_base" d="M124.5,123.6c23,0,41.7-18.7,41.7-41.7c0-23-18.7-41.7-41.7-41.7c-23,0-41.7,18.7-41.7,41.7
		C82.9,104.9,101.6,123.6,124.5,123.6z M124.5,65.2c9.2,0,16.7,7.5,16.7,16.7c0,9.2-7.5,16.7-16.7,16.7c-9.2,0-16.7-7.5-16.7-16.7
		C107.9,72.7,115.3,65.2,124.5,65.2z"/>
	<path class="svg_base" d="M124.5,160.3h7.6c13,0,23.5,10.6,23.5,23.5v71.3h25v-71.3c0-26.8-21.8-48.5-48.5-48.5h-7.6h-7.6
		c-26.8,0-48.5,21.8-48.5,48.5v23c0,19.8-11.7,40.8-11.8,41l21.7,12.4c0.6-1.1,15.1-26.8,15.1-53.4v-23c0-13,10.6-23.5,23.5-23.5
		H124.5z"/>
	<path class="svg_base" d="M220.2,293.5c0,23,18.7,41.7,41.7,41.7c23,0,41.7-18.7,41.7-41.7c0-23-18.7-41.7-41.7-41.7
		C238.9,251.8,220.2,270.5,220.2,293.5z M278.6,293.5c0,9.2-7.5,16.7-16.7,16.7c-9.2,0-16.7-7.5-16.7-16.7c0-9.2,7.5-16.7,16.7-16.7
		C271.1,276.8,278.6,284.3,278.6,293.5z"/>
	<path class="svg_base" d="M269.5,346.9h-7.6h-7.6c-26.8,0-48.5,21.8-48.5,48.5v23c0,19.8-11.7,40.8-11.8,41l21.7,12.4c0.6-1.1,15.1-26.8,15.1-53.4
		v-23c0-13,10.6-23.5,23.5-23.5h7.6h7.6c13,0,23.5,10.6,23.5,23.5v71.3h25v-71.3C318.1,368.6,296.3,346.9,269.5,346.9z"/>
</g>
</svg>
