<?xml version="1.0" encoding="utf-8"?>
<!-- Generator: Adobe Illustrator 27.6.1, SVG Export Plug-In . SVG Version: 6.00 Build 0)  -->
<svg version="1.1" id="Capa_1" xmlns="http://www.w3.org/2000/svg" xmlns:xlink="http://www.w3.org/1999/xlink" x="0px" y="0px"
	 viewBox="0 0 512 512" style="enable-background:new 0 0 512 512;" xml:space="preserve">
<path d="M438.4,341.9c0-28.8,1-173.8,1-175.4c0-36.1-29.4-65.5-65.5-65.5H271.7v81h-31.3v-81H138.1c-36.1,0-65.5,29.4-65.5,65.6
	c0,1.5,1,146.5,1,175.3c0,20.2-16.7,45.3-23.1,53.3l9.7,7.9l9.7,7.9c1.2-1.4,28.6-35.8,28.6-69c0-28.9-1-174-1-175.4
	c0-22.3,18.2-40.5,40.5-40.5h27.8l-7.3,3.1c-24.3,10.2-40.1,33.9-40.1,60.3V403h25V189.5c0-16.3,9.7-31,24.8-37.3l0.8-0.3l25,45.9
	v33.4c0,32.4,26.3,58.7,58.7,58.7h6.4c32.4,0,58.7-26.3,58.7-58.7v-33.4l25-45.9l0.8,0.3c15.1,6.3,24.8,21,24.8,37.3V403h25V189.5
	c0-26.4-15.7-50.1-40.1-60.3l-7.3-3.1h27.8c22.3,0,40.5,18.2,40.5,40.4c0,1.5-1,146.5-1,175.4c0,33.2,27.5,67.5,28.6,69l19.4-15.7
	C455.1,387.2,438.4,362.1,438.4,341.9z M215.3,132.4v49.7H214l-21.8-40L215.3,132.4z M292.9,231.2c0,18.6-15.1,33.7-33.7,33.7h-6.4
	c-18.6,0-33.7-15.1-33.7-33.7v-24.1h73.8V231.2z M298,182.1h-1.3v-49.7l23.1,9.7L298,182.1z"/>
</svg>
