<svg version="1.1" id="Capa_1" xmlns="http://www.w3.org/2000/svg" xmlns:xlink="http://www.w3.org/1999/xlink" x="0px" y="0px"
	 viewBox="0 0 512 512" style="enable-background:new 0 0 512 512;" xml:space="preserve">
<style type="text/css">
	.st0{fill:none;}
	.svg_base {fill:#343434;}
	.svg_line{stroke:#343434;}
</style>
<g>
	<path class="st0" d="M225.8,298.7l-25.3-157l-19.8,173.8C195.8,309.1,210.8,303.5,225.8,298.7z"/>
	<path class="st0" d="M427.3,368l-21.5-155.8L381.6,340C396.7,348.4,411.9,357.8,427.3,368z"/>
	<path class="st0" d="M312.4,141.8l-25.3,156.9c15,4.7,30,10.3,45.1,16.9L312.4,141.8z"/>
	<path class="st0" d="M131.3,340.1l-24.2-127.9L85.6,368.1C101,357.8,116.2,348.5,131.3,340.1z"/>
	<path class="svg_base" d="M467.9,415.6c0-10.6-4.7-20.8-12.6-27.8l-35.2-254.7l-24.7-0.6l-36.8,194.4L326.9,48.6L302.2,48l-39.3,243.8
		c-1.1-0.3-2.3-0.6-3.4-0.9l-3-0.7l-3,0.7c-1.2,0.3-2.3,0.6-3.5,0.9L210.8,48L186,48.6l-31.7,278.3l-36.8-194.4l-24.7,0.6
		L57.7,387.9c-7.9,7-12.5,17.2-12.5,27.8v48.3h12.5h12.5v-48.3c0-3.9,1.9-7.6,5.1-9.9c62.8-45.5,122.1-74.9,181.3-89.8
		c59.2,14.9,118.5,44.3,181.3,89.8c3.2,2.3,5.1,6,5.1,9.9v48.3h12.5h12.5V415.6z M405.8,212.2L427.3,368
		c-15.4-10.3-30.6-19.6-45.7-28L405.8,212.2z M312.4,141.8l19.8,173.8c-15.1-6.5-30.1-12.1-45.1-16.9L312.4,141.8z M200.5,141.8
		l25.3,157c-15,4.7-30,10.3-45.1,16.9L200.5,141.8z M107.1,212.2l24.2,127.9c-15.1,8.4-30.3,17.7-45.7,28L107.1,212.2z"/>
	<path class="svg_base" d="M325.2,422.1c-13.3-28.9-35.5-49.9-64.3-60.6l-4.4-1.6l-4.4,1.6c-28.8,10.7-51.1,31.7-64.3,60.6
		c-9.9,21.6-11.3,40.1-11.4,40.9l12.2,0.9l12.7,0.9c0,0,0-0.4,0.1-0.9c0.4-3.6,2.4-17,9.4-32.1c9.9-21.2,25.3-36.3,45.6-45.1
		c20.4,8.7,35.7,23.9,45.6,45.1c7.1,15.1,9,28.5,9.4,32.1c0.1,0.6,0.1,0.9,0.1,0.9l12.7-0.9l12.2-0.9
		C336.5,462.2,335.1,443.7,325.2,422.1z"/>
</g>
</svg>