<svg version="1.1" id="Capa_1" xmlns="http://www.w3.org/2000/svg" xmlns:xlink="http://www.w3.org/1999/xlink" x="0px" y="0px"
	 viewBox="0 0 512 512" style="enable-background:new 0 0 512 512;" xml:space="preserve">
<style type="text/css">
</style>
<g>
	<polygon class="svg_base" points="256,78.9 75.9,200.7 88.6,219.3 256,106.2 423.4,219.3 436.1,200.7 	"/>
	<rect class="svg_base" x="112.2" y="230.5" width="22.6" height="188.9"/>
	<rect class="svg_base" x="377.3" y="230.5" width="22.6" height="188.9"/>
	<path class="svg_base" d="M288.1,192.8L288.1,192.8c-7.8-4-16.2-6.4-24.8-7.3c0,0,0,0-0.1,0c-1.2-0.1-2.3-0.2-3.5-0.3c-0.1,0-0.2,0-0.3,0
		c-1.1-0.1-2.3-0.1-3.5-0.1s-2.3,0-3.5,0.1c-0.1,0-0.2,0-0.3,0c-1.2,0.1-2.3,0.2-3.5,0.3c0,0,0,0-0.1,0c-8.7,0.9-17,3.3-24.8,7.3
		l0,0c-23.3,11.8-39.3,35.9-39.3,63.7v162.9h22.6V256.6c0-22.7,15.6-41.8,36.6-47.3c0,0,0.1,0,0.1,0c0.7-0.2,1.4-0.3,2.1-0.5
		c0.2,0,0.3-0.1,0.5-0.1c0.6-0.1,1.2-0.2,1.9-0.3c0.3,0,0.6-0.1,0.9-0.1c0.5-0.1,1.1-0.1,1.6-0.2c0.4,0,0.9-0.1,1.3-0.1
		c0.4,0,0.8-0.1,1.2-0.1c0.9,0,1.8-0.1,2.7-0.1c0.9,0,1.8,0,2.7,0.1c0.4,0,0.8,0.1,1.2,0.1c0.4,0,0.9,0.1,1.3,0.1
		c0.5,0.1,1.1,0.1,1.6,0.2c0.3,0,0.6,0.1,0.9,0.1c0.6,0.1,1.2,0.2,1.8,0.3c0.2,0,0.4,0.1,0.5,0.1c0.7,0.1,1.4,0.3,2.1,0.5
		c0,0,0.1,0,0.1,0c21,5.5,36.6,24.6,36.6,47.3v162.9h22.6V256.6C327.4,228.7,311.4,204.6,288.1,192.8z"/>
</g>
</svg>
