<svg version="1.1" id="Capa_1" xmlns="http://www.w3.org/2000/svg" xmlns:xlink="http://www.w3.org/1999/xlink" x="0px" y="0px"
	 viewBox="0 0 512 512" style="enable-background:new 0 0 512 512;" xml:space="preserve">
<g>
	<path d="M257.7,71.3c-100.8,0-182.9,81.8-183,182.5c0,30.7,8,61.1,23,88.1l-26.5,98.8l99.6-26.5c26.6,14.3,56.6,22,86.9,22
		c101,0,183-81.8,183-182.5S358.6,71.3,257.7,71.3z M257.7,419.2c-27.2,0-54.5-6.9-78.8-20L173,396l-77.7,20.7l20.7-77.1l-3.4-6
		c-13.7-24.5-20.9-52.1-20.9-79.8c0.1-91.2,74.6-165.5,166-165.5c91.5,0,166,74.2,166,165.5S349.3,419.2,257.7,419.2z"/>
	<path d="M325.8,279c-7.5-4.5-17.3-9.6-26.1-5.9c-6.7,2.7-11.1,13.3-15.6,18.9c-2.2,2.7-5,3.2-8.5,1.9
		c-25.5-10.2-45.1-27.1-59.3-50.7c-2.4-3.6-2-6.5,1-9.8c4.2-5,9.6-10.7,10.7-17.4c1.1-6.7-2-14.6-4.7-20.7
		c-3.5-7.7-7.6-18.5-15.3-22.9c-7.1-4-16.4-1.7-22.7,3.4c-11,8.8-16.1,22.7-16.1,36.3c0,4,0.5,7.7,1.5,11.5
		c2.2,9,6.5,17.6,11.1,25.5c3.5,6,7.3,11.9,11.7,17.7c13.6,18.5,30.6,34.6,50.3,46.7c9.8,6,20.4,11.3,31.4,14.9
		c12.3,4,23.3,8.3,36.6,5.9c13.9-2.6,27.6-11.2,33.1-24.5c1.6-4,2.5-8.3,1.6-12.6C344.6,288.5,332.9,283.3,325.8,279z"/>
</g>
</svg>
