<svg version="1.1" id="Capa_1" xmlns="http://www.w3.org/2000/svg" xmlns:xlink="http://www.w3.org/1999/xlink" x="0px" y="0px"
	 viewBox="0 0 512 512" style="enable-background:new 0 0 512 512;" xml:space="preserve">
<style type="text/css">
</style>
<g>
	<path class="svg_base" d="M321.9,161c0-26.6,20.2-55.5,20.4-55.8L332,98l-10.2-7.2c-1,1.4-25,35.5-25,70.2v37.1l25,0V161z"/>
	<path class="svg_base" d="M249.6,198.1l0-38.1l0-16.7c0-26.6,20.2-55.5,20.4-55.8l-10.2-7.2l-10.2-7.2c-1,1.4-25,35.5-25,70.2l0,16.7l0,38.1
		L249.6,198.1z"/>
	<path class="svg_base" d="M177.4,198.1l0-18.3l0-12.6c0-26.6,20.2-55.5,20.4-55.7l-10.2-7.2l-10.2-7.2c-1,1.4-25,35.5-25,70.2l0,12.6l0,18.3
		L177.4,198.1z"/>
	<path class="svg_base" d="M363.7,230.3h-12.5H80.5v111.3c0,30.9,13.8,58.7,35.5,77.5H76.3v25h106.8h78.1H368v-25h-39.8c19.8-17.2,33-41.8,35.2-69.4
		h26.7c32,0,58.1-26.1,58.1-58.1v-61.3H363.7z M338.7,341.6c0,42.8-34.8,77.5-77.5,77.5h-78.1c-42.8,0-77.5-34.8-77.5-77.5v-86.3
		h233.2V341.6z M423.2,291.7c0,18.2-14.8,33.1-33.1,33.1h-26.4v-69.4h59.5V291.7z"/>
</g>
</svg>
