<svg version="1.1" id="Capa_1" xmlns="http://www.w3.org/2000/svg" xmlns:xlink="http://www.w3.org/1999/xlink" x="0px" y="0px"
	 viewBox="0 0 512 512" style="enable-background:new 0 0 512 512;" xml:space="preserve">
<style type="text/css">
</style>
<g>
	<path class="svg_base" d="M470.5,268.5v-25h-70.6c-1-11.1-3.2-21.8-6.5-32l31.7-13.4l-9.7-23l-31.7,13.4c-4.8-9.1-10.6-17.6-17.1-25.4l50-50
		l-17.7-17.7l-50,50c-8.3-7-17.4-13.1-27.2-18.1l12.9-31.9l-23.2-9.4l-12.9,31.9c-9.6-3-19.7-5-30.1-5.9V41.5h-25v70.6
		c-11.1,1-21.8,3.2-32,6.5l-13.4-31.7l-23,9.7l13.4,31.7c-9.1,4.8-17.6,10.6-25.4,17.1l-50-50l-17.7,17.7l50,50
		c-7,8.3-13.1,17.4-18.1,27.2l-31.9-12.9l-9.4,23.2l31.9,12.9c-3,9.6-5,19.7-5.9,30.1H41.5v25h70.6c1,11.1,3.2,21.8,6.5,32
		l-31.7,13.4l9.7,23l31.7-13.4c4.8,9.1,10.6,17.6,17.1,25.4l-50,50l17.7,17.7l50-50c8.3,7,17.4,13.1,27.2,18.1l-12.9,31.9l23.2,9.4
		l12.9-31.9c9.6,3,19.7,5,30.1,5.9v70.6h25v-70.6c11.1-1,21.8-3.2,32-6.5l13.4,31.7l23-9.7l-13.4-31.7c9.1-4.8,17.6-10.6,25.4-17.1
		l50,50l17.7-17.7l-50-50c7-8.3,13.1-17.4,18.1-27.2l31.9,12.9l9.4-23.2l-31.9-12.9c3-9.6,5-19.7,5.9-30.1H470.5z M375.5,256
		c0,65.9-53.6,119.5-119.5,119.5S136.5,321.9,136.5,256S190.1,136.5,256,136.5S375.5,190.1,375.5,256z"/>
</g>
</svg>
