<?xml version="1.0" encoding="utf-8"?>
<!-- Generator: Adobe Illustrator 27.5.0, SVG Export Plug-In . SVG Version: 6.00 Build 0)  -->
<svg version="1.1" id="Capa_1" xmlns="http://www.w3.org/2000/svg" xmlns:xlink="http://www.w3.org/1999/xlink" x="0px" y="0px"
	 viewBox="0 0 512 512" style="enable-background:new 0 0 512 512;" xml:space="preserve">
<style type="text/css">
	.st0{fill:#00BFB2;}
	.st1{fill:none;}
	.st2{fill:#FFFFFF;}
	.st3{fill-rule:evenodd;clip-rule:evenodd;fill:#00BFB2;}
	.svg-base{stroke:#30363B;stroke-width:0.1828;}
	.st5{fill-rule:evenodd;clip-rule:evenodd;}
	.st6{fill:url(#SVGID_1_);}
	.st7{fill:#FBFBFB;}
</style>
<path class="st0" d="M389.8,372.4l-52.1-52.1c17.5-21.3,27.9-48.5,27.9-78.2c0-68.1-55.4-123.6-123.6-123.6S118.5,174,118.5,242.1
	c0,68.1,55.4,123.6,123.6,123.6c29.6,0,56.8-10.5,78.1-27.9l52.1,52.1c2.4,2.4,5.6,3.6,8.7,3.6c3.2,0,6.3-1.2,8.7-3.6
	C394.7,385,394.7,377.2,389.8,372.4z M143.3,242.1c0-54.5,44.3-98.8,98.8-98.8s98.8,44.3,98.8,98.8c0,26.8-10.7,51.1-28.1,68.9
	c-0.3,0.3-0.7,0.6-1,0.9c-0.3,0.3-0.6,0.7-0.9,1c-17.8,17.3-42.1,28-68.9,28C187.6,340.9,143.3,296.6,143.3,242.1z"/>
</svg>
