<svg version="1.1" id="Capa_1" xmlns="http://www.w3.org/2000/svg" xmlns:xlink="http://www.w3.org/1999/xlink" x="0px" y="0px"
	 viewBox="0 0 512 512" style="enable-background:new 0 0 512 512;" xml:space="preserve">
<style type="text/css">
</style>
<g>
		<path class="svg_base" d="M297.7,474.4h-83.4l-11.9-70.7c-0.5-2.7-2.3-5-4.9-6.1l-0.3-0.1c-2.6-1.1-5.5-0.8-7.8,0.8L131,440l-59-59l41.5-58.4
			c1.6-2.3,1.9-5.2,0.8-7.8l-0.1-0.3c-1.1-2.6-3.3-4.4-6.1-4.9l-70.7-11.9v-83.4l70.7-11.9c2.7-0.5,5-2.3,6.1-4.9l0.1-0.3
			c1.1-2.6,0.8-5.5-0.8-7.8L72,131l59-59l58.4,41.6c2.3,1.6,5.2,1.9,7.8,0.8l0.2-0.1c2.6-1.1,4.4-3.3,4.9-6.1l11.9-70.7h83.4
			l11.9,70.7c0.5,2.7,2.3,5,4.9,6.1l-4.7,11.6l4.8-11.5l0.1,0c2.6,1.1,5.5,0.8,7.8-0.8L381,72l59,59l-41.6,58.4
			c-1.6,2.3-1.9,5.2-0.8,7.8l0.1,0.3c1,2.5,3.3,4.3,6,4.8l70.7,11.9v83.4l-70.7,11.9c-2.7,0.5-5,2.3-6.1,4.9l-0.1,0.2
			c-1.1,2.6-0.8,5.5,0.8,7.8L440,381l-59,59l-58.4-41.6c-2.3-1.6-5.2-1.9-7.8-0.8l-0.2,0.1c-2.6,1.1-4.4,3.4-4.9,6.1L297.7,474.4z
			 M235.4,449.4h41.2l8.4-49.8c1.9-11.2,9.3-20.6,19.9-25l0.2-0.1c10.6-4.5,22.6-3.2,32,3.5l41.2,29.3l29.1-29.1L378,337
			c-6.7-9.4-8-21.3-3.5-31.9l0-0.1c4.4-10.6,13.8-18.1,25-20l49.9-8.4v-41.2l-49.9-8.4c-11.2-1.9-20.6-9.3-25-19.9l-0.1-0.1
			c-4.5-10.7-3.2-22.6,3.5-32l29.3-41.2l-29.1-29.1L337,134c-9.4,6.7-21.3,8-31.9,3.5l-0.3-0.1c-10.5-4.4-17.9-13.7-19.8-24.9
			l-8.4-49.9h-41.2l-8.4,49.9c-1.9,11.2-9.3,20.6-19.9,25l-0.2,0.1c-10.6,4.5-22.6,3.2-31.9-3.5l-41.2-29.3l-29.1,29.1L134,175
			c6.7,9.4,8,21.3,3.5,31.9l-0.1,0.2c-4.4,10.6-13.7,18-25,19.9l-49.8,8.4v41.2l49.8,8.4c11.2,1.9,20.6,9.3,25,19.9l0.1,0.2
			c4.5,10.6,3.2,22.6-3.5,31.9l-29.3,41.2l29.1,29.1L175,378c9.4-6.7,21.3-8,31.9-3.5l0.2,0.1c10.5,4.4,18,13.7,19.9,25L235.4,449.4
			z"/>
		<path class="svg_base" d="M256,328.6c-43.5,0-78.8-35.4-78.8-78.8S212.5,171,256,171s78.8,35.4,78.8,78.8S299.5,328.6,256,328.6z M256,196
			c-29.7,0-53.8,24.1-53.8,53.8c0,29.7,24.1,53.8,53.8,53.8c29.7,0,53.8-24.1,53.8-53.8C309.8,220.1,285.7,196,256,196z"/>
</g>
</svg>
