<svg version="1.1" id="Capa_1" xmlns="http://www.w3.org/2000/svg" xmlns:xlink="http://www.w3.org/1999/xlink" x="0px" y="0px"
	 viewBox="0 0 512 512" style="enable-background:new 0 0 512 512;" xml:space="preserve">
<g>
	<g>
		<path d="M322.8,467.8H140.8V285.1c0-26.7,21.7-48.4,48.4-48.4h85.6v-83.6c0-9.6-7.8-17.3-17.3-17.3c-9.6,0-17.3,7.8-17.3,17.3
			v33.4h-99.3v-28.6c0-63.5,51.7-115.2,115.2-115.2c63.5,0,115.2,51.7,115.2,115.2v261.5C371.2,446.1,349.4,467.8,322.8,467.8z
			 M165.8,442.8h156.9c12.9,0,23.4-10.5,23.4-23.4V157.9c0-49.7-40.4-90.2-90.2-90.2c-49.7,0-90.2,40.4-90.2,90.2v3.6h49.3v-8.4
			c0-23.3,19-42.3,42.3-42.3c23.3,0,42.3,19,42.3,42.3v108.6H189.2c-12.9,0-23.4,10.5-23.4,23.4V442.8z"/>
	</g>
	<g>
		<rect x="199" y="309.5" width="105.4" height="25"/>
	</g>
	<g>
		<rect x="199" y="356.7" width="105.4" height="25"/>
	</g>
</g>
</svg>
