<svg version="1.1" id="Capa_1" xmlns="http://www.w3.org/2000/svg" xmlns:xlink="http://www.w3.org/1999/xlink" x="0px" y="0px"
	 viewBox="0 0 512 512" style="enable-background:new 0 0 512 512;" xml:space="preserve">
<style type="text/css">
</style>
<g>
	<path class="svg_base" d="M98.1,89c-29.5,0-53.5,24-53.5,53.5V423h369.3c29.5,0,53.5-24,53.5-53.5V89H98.1z M442.4,369.5c0,15.7-12.8,28.5-28.5,28.5
		H69.6V142.5c0-15.7,12.8-28.5,28.5-28.5h344.3V369.5z"/>
	<path class="svg_base" d="M96.3,371.8h319.4V140.2H96.3V371.8z M121.3,165.2h269.4v181.7H121.3V165.2z"/>
	<polygon class="svg_base" points="249.8,200 207.9,241.9 166,200 148.4,217.7 190.2,259.5 148.4,301.4 166,319.1 207.9,277.2 249.8,319.1 
		267.5,301.4 225.6,259.5 267.5,217.7 	"/>
</g>
</svg>
