<?xml version="1.0" encoding="utf-8"?>
<!-- Generator: Adobe Illustrator 27.6.1, SVG Export Plug-In . SVG Version: 6.00 Build 0)  -->
<svg version="1.1" id="Capa_1" xmlns="http://www.w3.org/2000/svg" xmlns:xlink="http://www.w3.org/1999/xlink" x="0px" y="0px"
	 viewBox="0 0 512 512" style="enable-background:new 0 0 512 512;" xml:space="preserve">
<g>
	<path d="M469.5,429.3c0-28.5-11.2-63-30.1-95.5V82.7l-23.5-5.9l-0.3,0.5l-0.1-0.1L214.2,216.4c-19.1,3.3-37.3,9.3-54.5,18.1
		c-24.6,12.5-46.4,30.4-64.8,52.9c-32.8,40.2-52.4,93.3-52.4,141.9h24.3l0.5,0.3c0,0,0.1-0.1,0.2-0.3h0c0,0,0,0,0,0
		c2-3.2,20.2-31.2,51.1-58.8c42.9-38.3,88.7-57.8,136.2-57.8c47.5,0,93.6,19.5,137,57.8c32.8,29,51.6,58.5,52.1,59.2c0,0,0,0,0,0
		l0.7-0.4c0,0,0,0,0,0H469.5z M409.9,292.5c-16.8-19.5-35.5-35.6-55.6-48l60.1-112v165.4C412.9,296,411.4,294.2,409.9,292.5z
		 M332.4,232.4c-22.5-10.6-46.3-16.9-70.6-18.5l128.1-88.6L332.4,232.4z M408.9,352.3C361.3,310,308,287.7,254.7,287.7
		c-53.3,0-106.3,22.3-153.4,64.6c-10.2,9.1-19,18.2-26.5,26.6c7.7-27.1,21.3-53.6,39.4-75.7c24.1-29.5,67.1-64.7,134.8-64.7
		c90.9,0,156.8,72.8,182.9,136.4C425.3,367.6,417.5,360,408.9,352.3z"/>
	<path d="M250.5,351.6c-41.4,0-75,33.7-75,75h25c0-27.6,22.4-50,50-50s50,22.5,50,50h25C325.6,385.2,291.9,351.6,250.5,351.6z"/>
</g>
</svg>
