<?xml version="1.0" encoding="utf-8"?>
<!-- Generator: Adobe Illustrator 27.5.0, SVG Export Plug-In . SVG Version: 6.00 Build 0)  -->
<svg version="1.1" id="Capa_1" xmlns="http://www.w3.org/2000/svg" xmlns:xlink="http://www.w3.org/1999/xlink" x="0px" y="0px"
	 viewBox="0 0 512 512" style="enable-background:new 0 0 512 512;" xml:space="preserve">
<style type="text/css">
	.st0{fill:#00BFB2;}
	.st1{fill:none;}
	.st2{fill:#FFFFFF;}
	.st3{fill-rule:evenodd;clip-rule:evenodd;fill:#00BFB2;}
	.st4{stroke:#30363B;stroke-width:0.1828;}
	.st5{fill-rule:evenodd;clip-rule:evenodd;}
	.st6{fill:url(#SVGID_1_);}
	.st7{fill:#FBFBFB;}
</style>
<g>
	<path class="st0" d="M419.7,92.3c-10.2-10.2-23.7-15.8-38.1-15.8h-71.8c-9.9,0-17.9,8-17.9,17.9c0,9.9,8,17.9,17.9,17.9h71.8
		c4.8,0,9.3,1.9,12.7,5.2c3.4,3.4,5.3,7.9,5.3,12.7v251.2c0,4.7-1.9,9.3-5.3,12.7c-3.3,3.3-8,5.3-12.7,5.3h-71.8
		c-9.9,0-17.9,8-17.9,17.9s8,17.9,17.9,17.9h71.8c14.4,0,27.9-5.6,38.1-15.8c10.2-10.2,15.8-23.7,15.8-38.1V130.4
		C435.4,116,429.8,102.5,419.7,92.3z"/>
	<path class="st0" d="M323.7,267.3c0.1-0.1,0.1-0.2,0.2-0.3c0.3-0.4,0.6-0.8,0.9-1.2c0.1-0.2,0.2-0.4,0.3-0.5c0.2-0.3,0.4-0.6,0.6-1
		c0.1-0.2,0.2-0.4,0.3-0.6c0.2-0.3,0.3-0.6,0.4-1c0.1-0.2,0.2-0.4,0.2-0.7c0.1-0.3,0.2-0.6,0.3-1c0.1-0.2,0.1-0.5,0.2-0.7
		c0.1-0.3,0.2-0.6,0.2-1c0.1-0.3,0.1-0.6,0.1-0.9c0-0.3,0.1-0.6,0.1-0.8c0.1-1.2,0.1-2.4,0-3.5c0-0.3-0.1-0.6-0.1-0.8
		c0-0.3-0.1-0.6-0.1-0.9c-0.1-0.3-0.2-0.7-0.2-1c-0.1-0.2-0.1-0.5-0.2-0.7c-0.1-0.3-0.2-0.7-0.3-1c-0.1-0.2-0.2-0.4-0.2-0.7
		c-0.1-0.3-0.3-0.6-0.4-1c-0.1-0.2-0.2-0.4-0.3-0.6c-0.2-0.3-0.4-0.7-0.6-1c-0.1-0.2-0.2-0.4-0.3-0.5c-0.3-0.4-0.6-0.8-0.9-1.2
		c-0.1-0.1-0.1-0.2-0.2-0.3c-0.4-0.5-0.8-1-1.3-1.4l-89.7-89.7c-7-7-18.4-7-25.4,0c-7,7-7,18.4,0,25.4l59.1,59.1h-172
		c-9.9,0-17.9,8-17.9,17.9c0,9.9,8,17.9,17.9,17.9h172L207.4,333c-7,7-7,18.4,0,25.4c3.5,3.5,8.1,5.3,12.7,5.3
		c4.6,0,9.2-1.8,12.7-5.3l89.7-89.7C322.9,268.3,323.3,267.8,323.7,267.3z"/>
</g>
</svg>
