<svg version="1.1" id="Capa_1" xmlns="http://www.w3.org/2000/svg" xmlns:xlink="http://www.w3.org/1999/xlink" x="0px" y="0px"
	 viewBox="0 0 512 512" style="enable-background:new 0 0 512 512;" xml:space="preserve">
<style type="text/css">
</style>
<path class="svg_base" d="M437.1,315.3h-40.4V182.4c0-77.6-63.1-140.8-140.8-140.8c-77.6,0-140.8,63.1-140.8,140.8v132.9H74.9v77.2h12
	c-5.6,8-8.8,17.8-8.8,28.2c0,27.4,22.3,49.7,49.7,49.7s49.7-22.3,49.7-49.7c0-10.5-3.3-20.2-8.8-28.2h174.8
	c-5.6,8-8.8,17.8-8.8,28.2c0,27.4,22.3,49.7,49.7,49.7s49.7-22.3,49.7-49.7c0-10.5-3.3-20.2-8.8-28.2h12V315.3z M127.7,445.4
	c-13.6,0-24.7-11.1-24.7-24.7s11.1-24.7,24.7-24.7s24.7,11.1,24.7,24.7S141.4,445.4,127.7,445.4z M384.3,445.4
	c-13.6,0-24.7-11.1-24.7-24.7s11.1-24.7,24.7-24.7S409,407,409,420.7S397.9,445.4,384.3,445.4z M140.2,182.4
	c0-63.8,51.9-115.8,115.8-115.8c63.8,0,115.8,51.9,115.8,115.8v132.9h-28.5V209.5c0-36.2-29.5-65.7-65.7-65.7H168.7v171.4h-28.5
	V182.4z M193.7,315.3V168.9h38.6v146.4H193.7z M257.3,168.9h20.3c22.4,0,40.7,18.2,40.7,40.7v105.7h-60.9V168.9z M99.9,340.3h15.4
	h53.5h174.5h53.5h15.4v27.2H99.9V340.3z"/>
</svg>
