<svg version="1.1" id="Capa_1" xmlns="http://www.w3.org/2000/svg" xmlns:xlink="http://www.w3.org/1999/xlink" x="0px" y="0px"
	 viewBox="0 0 512 512" style="enable-background:new 0 0 512 512;" xml:space="preserve">
<style type="text/css">
</style>
<g>
	<path class="svg_base" d="M356,431.6c-3.4,0-6.9-0.8-10.1-2.5L256,381.8l-89.9,47.3c-7.4,3.9-16.1,3.2-22.8-1.7c-6.7-4.9-10-13-8.6-21.2l17.2-100.1
		l-72.8-70.9c-5.9-5.8-8.1-14.3-5.5-22.2c2.6-7.9,9.3-13.6,17.5-14.7l100.5-14.6l45-91.1c3.7-7.4,11.1-12.1,19.4-12.1c0,0,0,0,0,0
		c8.3,0,15.8,4.6,19.4,12.1l45,91.1l100.5,14.6c8.2,1.2,14.9,6.8,17.5,14.7s0.5,16.4-5.5,22.2l-72.8,70.9l17.2,100.1
		c1.4,8.2-1.9,16.3-8.6,21.2C365,430.2,360.5,431.6,356,431.6z M256,353.5l95.6,50.3l-18.3-106.4l77.3-75.4l-106.9-15.5L256,109.6
		l-47.8,96.8L101.3,222l77.3,75.4l-18.3,106.4L256,353.5z M253,103.6C253,103.6,253,103.6,253,103.6L253,103.6z"/>
</g>
</svg>
