<svg width="299" height="171" viewBox="0 0 299 171" fill="none" xmlns="http://www.w3.org/2000/svg">
<g clip-path="url(#clip0_2495_38865)">
<path class="svg_base" d="M58.7429 96.1328H16.4414V101.384H58.7429V96.1328Z" fill="#30363B"/>
<path class="svg_base" d="M269.456 66.2625C268.935 65.6323 268.161 65.2472 267.334 65.2472H229.043L225.338 50.5077C225.051 49.3349 223.954 48.5121 222.713 48.5121H192.965C192.102 48.5121 191.292 48.9147 190.789 49.5799C190.285 50.2451 190.123 51.1204 190.393 51.9256L198.073 75.7329H190.933L191.58 68.1006C191.652 67.3654 191.382 66.6477 190.879 66.105C190.375 65.5623 189.656 65.2647 188.9 65.2647H188.397V29.3087C188.397 28.556 188.073 27.8558 187.497 27.3481C186.922 26.8405 186.148 26.5954 185.393 26.7004C172.947 28.0658 164.045 31.8295 158.415 35.068C158.109 31.777 156.671 28.9936 154.117 26.823C145.861 19.7683 128.434 21.8689 127.696 21.974C126.347 22.149 125.34 23.2519 125.34 24.5823V50.8403C116.581 53.3086 109.117 56.8972 108.578 57.1597C107.93 57.4748 107.445 58.035 107.211 58.7002C106.995 59.3654 107.049 60.1007 107.391 60.7308L115.466 75.838C92.445 76.7658 84.2797 87.5491 83.92 88.0392C83.5423 88.5644 83.3804 89.1946 83.4344 89.8248L83.9739 94.9713C78.2906 96.6168 72.3194 99.0326 66.5462 102.621C62.5714 105.177 58.183 106.927 53.5428 107.82C47.9314 108.818 40.0358 109.221 34.1546 105.527C33.3273 105.002 32.2661 104.967 31.4029 105.422C30.5396 105.877 30 106.77 30 107.733V146.822C30 148.275 31.205 149.448 32.6978 149.448H113.83C113.83 149.448 113.866 149.448 113.901 149.448H149.638C149.638 149.448 149.656 149.448 149.674 149.448H253.791C254.529 149.448 255.212 149.168 255.734 148.66C256.237 148.153 256.507 147.47 256.489 146.752C255.824 124.31 269.798 69.0984 269.924 68.5382C270.122 67.7505 269.924 66.9277 269.438 66.28L269.456 66.2625ZM208.216 89.6322L205.429 80.9845H214.871V81.1246H220.015V82.7526H211.544V88.0042H220.015V88.1618L211.022 89.6322H208.216ZM225.41 82.7526V81.1246H227.461L227.874 82.7526H225.41ZM223.522 75.873C223.27 75.7855 223 75.7329 222.713 75.7329H209.134C213.198 72.3369 218.486 70.3763 224.062 70.4988H224.799L226.148 75.8555H223.522V75.873ZM220.59 53.7637L223.486 65.2647C215.608 65.3172 208.288 68.5908 203.181 74.0524L196.634 53.7637H220.59ZM198.468 80.9845C198.271 81.4222 198.055 81.8423 197.875 82.2799C197.803 82.4375 197.767 82.6125 197.731 82.7876L186.634 144.161H185.069L190.483 80.9845H198.468ZM94.6392 144.161L89.8191 98.875C97.4989 97.1245 104.333 96.7394 108.632 96.5118C109.531 96.4593 110.376 96.4243 111.15 96.3543V106.14H107.031V111.391H111.15V113.019H100.377V118.271H111.15V119.899H93.722V125.151H111.15V126.779H100.377V132.03H111.15V133.658H107.031V138.91H111.15V144.179H94.6572L94.6392 144.161ZM126.707 85.4834L124.297 80.967H146.976V97.3871H141.491V92.363H130.376L129.513 90.735H132.175V85.4834H126.707ZM153.056 97.3696H152.372V80.9495H153.056V97.3696ZM124.297 92.3455H120.34V97.5971H127.103L127.966 99.2251H116.527V93.0107C116.527 92.0304 115.97 91.1727 115.142 90.735H123.416L124.279 92.363L124.297 92.3455ZM116.527 138.857H128.182V133.606H116.527V131.978H121.527V126.726H116.527V118.218H121.527V112.967H116.527V111.339H128.182V106.087H116.527V104.459H134.836V102.604H146.976V144.126H116.527V138.857ZM152.372 102.604H153.056V144.126H152.372V102.604ZM158.451 129.229H166.58V144.126H158.451V129.229ZM158.451 123.978V122.35H166.58V123.978H158.451ZM158.451 117.098V115.47H166.58V117.098H158.451ZM158.451 110.219V108.591H166.58V110.219H158.451ZM158.451 103.339V102.604H166.58V103.339H158.451ZM158.451 96.4593V94.8313H166.58V96.4593H158.451ZM158.451 89.5797V87.9517H166.58V89.5797H158.451ZM158.451 82.7001V78.3062C158.451 76.8533 157.246 75.6804 155.753 75.6804H152.372V75.4879C152.534 75.5229 152.714 75.5404 152.894 75.5404H166.598V82.7001H158.469H158.451ZM130.736 54.849C135.502 53.7812 140.178 53.3086 143.685 54.1488C144.656 54.8665 146.869 56.337 150.178 57.4924V65.2122H130.736V54.849ZM166.58 65.2122H158.451V59.0853C160.897 59.2254 163.595 59.0853 166.58 58.5602V65.2122ZM171.976 75.5404H185.519V75.6804H171.976V75.5404ZM182.965 65.2122H171.976V55.2692C171.976 54.4464 171.58 53.6762 170.915 53.186C170.753 53.0635 170.573 52.976 170.393 52.8884H181.418V47.6368H160.268V52.8884H167.929C164.332 53.7812 161.167 54.0088 158.451 53.8337V41.2124C162.714 38.359 170.789 34.1052 182.965 32.2671V65.2122ZM130.718 43.6106H148.235V38.359H130.718V34.5778H148.235V29.3262H130.718V26.928C136.167 26.5779 145.951 26.823 150.52 30.7267C152.228 32.1796 153.056 34.0352 153.056 36.4159V38.5691C151.761 39.5669 151.059 40.2496 150.951 40.3721C150.466 40.8623 150.178 41.5275 150.178 42.2102V51.8731C148.02 50.9103 146.851 49.93 146.743 49.8425C146.437 49.5799 146.095 49.3874 145.7 49.2823C141.419 48.057 136.041 48.4421 130.736 49.5099V43.6281L130.718 43.6106ZM125.322 56.2845V67.838C125.322 69.291 126.527 70.4638 128.02 70.4638H146.958V75.6804H121.473L113.452 60.6608C116.509 59.3129 120.772 57.6499 125.322 56.2845ZM88.9019 90.3499C91.0961 88.0917 99.4952 81.0546 118.2 80.9495L120.61 85.4659H111.006V90.7175H112.553C112.409 90.7876 112.247 90.8576 112.121 90.9626C111.33 91.0676 109.747 91.1552 108.308 91.2427C103.92 91.4878 97.0672 91.8729 89.2436 93.5884L88.9019 90.3674V90.3499ZM35.4136 111.969C41.9063 114.385 49.1723 113.93 54.5679 112.967C59.9276 111.934 64.9634 109.921 69.4957 107.015C74.4417 103.934 79.5855 101.798 84.5494 100.293L89.2076 144.179H35.4136V111.969ZM171.994 144.179V129.282H178.774V124.03H171.994V122.402H178.774V117.151H171.994V115.523H178.774V110.271H171.994V108.643H178.774V103.391H171.994V101.763H178.774V96.5118H171.994V94.8838H178.774V89.6322H171.994V88.0042H178.774V82.7526H171.994V80.9845H185.069L179.656 144.161H171.994V144.179ZM192.12 144.179L202.191 88.4943L203.918 93.816C204.278 94.9188 205.321 95.654 206.49 95.654C206.634 95.654 206.796 95.654 206.939 95.619L211.49 94.8838H220.015V96.5118H206.886V101.763H220.015V103.391H205.555V108.643H220.015V110.271H202.893V115.523H220.015V117.151H201.562V122.402H220.015V124.03H201.562V129.282H220.015V144.179H192.12ZM251.093 144.179H225.41V129.282H243.863V124.03H225.41V122.402H243.863V117.151H225.41V115.523H245.194V110.271H225.41V108.643H247.856V103.391H225.41V101.763H249.187V96.5118H225.41V94.8838H250.518V89.6322H234.745C234.889 89.1771 234.925 88.6869 234.799 88.2143L234.745 88.0042H253.845V82.7526H233.432L233.018 81.1246H257.172V75.873H231.705L230.356 70.5163H263.899C260.985 82.385 251.381 123.032 251.093 144.179Z" fill="#30363B"/>
<path class="svg_base" d="M79.7468 124.016H37.4453V129.267H79.7468V124.016Z" fill="#30363B"/>
<path class="svg_base" d="M79.7468 130.891H37.4453V136.142H79.7468V130.891Z" fill="#30363B"/>
<path class="svg_base" d="M181.436 40.7891H160.285V46.0407H181.436V40.7891Z" fill="#2D2D35"/>
<path class="svg_base" d="M200.362 37H179.211V42.2516H200.362V37Z" fill="#2D2D35"/>
</g>
<defs>
<clipPath id="clip0_2495_38865">
<rect width="299" height="170" fill="white" transform="translate(0 0.601562)"/>
</clipPath>
</defs>
</svg>
