<?xml version="1.0" encoding="utf-8"?>
<!-- Generator: Adobe Illustrator 27.4.1, SVG Export Plug-In . SVG Version: 6.00 Build 0)  -->
<svg version="1.1" id="Capa_1" xmlns="http://www.w3.org/2000/svg" xmlns:xlink="http://www.w3.org/1999/xlink" x="0px" y="0px"
	 viewBox="0 0 512 512" style="enable-background:new 0 0 512 512;" xml:space="preserve">
<style type="text/css">
	.st0{fill:#363434;}
	.st1{fill:#00BFB2;}
	.st2{fill:none;}
	.st3{fill:#30363B;}
	.st4{fill-rule:evenodd;clip-rule:evenodd;fill:#00BFB2;}
	.st5{fill:#30363B;stroke:#30363B;stroke-width:0.1828;}
	.st6{fill:#5ABBA7;}
	.st7{fill-rule:evenodd;clip-rule:evenodd;fill:#30363B;}
	.st8{fill:#05C0BD;}
	.st9{fill:#FFFFFF;filter:url(#Adobe_OpacityMaskFilter);}
	.st10{mask:url(#mask0_1235_50707_00000062165600384750918480000002694536003139282600_);}
</style>
<g>
	<path class="st1" d="M176.7,140.6L176.7,140.6c1.7,0,3.4-0.5,4.9-1.5c48.3-32,105.6-48.9,165.9-48.9c37.9,0,74.6,6.7,109.2,19.8
		c4.9,1.9,10.4-0.9,12.1-6.3c1.7-5.4-0.9-11.2-5.8-13.1c-36.6-13.9-75.4-21-115.4-21c-63.7,0-124.5,18-175.8,51.9
		c-4.5,3-5.9,9.3-3.1,14.1C170.4,138.9,173.5,140.6,176.7,140.6z"/>
	<path class="st1" d="M462.6,156.7L462.6,156.7c-31.9-10.4-65.8-15.8-100.7-16.1c-54.8-0.3-108.2,12-154.1,35.9
		c-4.8,2.5-6.5,8.1-3.8,12.6c1.8,3,5.2,4.8,8.7,4.8c1.6,0,3.3-0.4,4.8-1.2c42.2-22,91.2-33.5,141.7-33.5c0.8,0,1.7,0,2.5,0
		c32.8,0.3,64.5,5.3,94.4,15.1c5.2,1.7,10.8-0.9,12.6-5.7C470.5,163.7,467.8,158.4,462.6,156.7z"/>
	<path class="st1" d="M462.7,210.5c-25-10.2-51.6-15.8-79.2-16.6c-42.3-1.1-84.5,9.7-121.9,31.1c-4.8,2.8-6.9,9.7-4.6,15.5
		c1.7,4.2,5.2,6.6,8.8,6.6c1.4,0,2.8-0.4,4.2-1.1c34.7-19.8,73.7-29.8,113.1-28.8c25.5,0.7,50.2,5.9,73.3,15.3
		c5.1,2.1,10.6-1.1,12.3-7.2C470.5,219.2,467.8,212.6,462.7,210.5z"/>
	<path class="st1" d="M315.6,280.3c-4.9,1.9-7.4,7.9-5.6,13.2c1.4,4.2,5,6.8,8.9,6.8c1.1,0,2.2-0.2,3.2-0.6
		c26.4-10.5,54.9-15.4,82.4-14c18.4,0.9,36,4.5,52.5,10.5c5,1.8,10.3-1.1,11.9-6.5c1.6-5.4-1-11.2-5.9-13l0,0
		c-18.1-6.6-37.5-10.5-57.6-11.5C375.2,263.6,344.2,268.9,315.6,280.3z"/>
	<path class="st1" d="M463.1,329.3L463.1,329.3c-27.5-12.2-59.7-14.5-93-6.7c-4.8,1.1-8.1,7.5-7.3,14.3c0.8,6.8,5.4,11.3,10.2,10.2
		c30.6-7.2,59.8-5.2,84.7,5.9c0.9,0.4,1.8,0.6,2.7,0.6c3.8,0,7.3-3.4,8.5-8.7C470.3,338.3,467.8,331.4,463.1,329.3z"/>
	<path class="st5" d="M319.6,328.8L218.5,221.5c-3.7-3.9-9.7-3.9-13.4,0c-3.7,3.9-3.7,10.3,0,14.2L306.2,343c2.7,2.9,2.7,7.6,0,10.4
		l-17,18.1c-2.6,2.8-7.2,2.8-9.8,0l-27.1-28.7L109.5,191.3c-0.4-0.4-0.7-0.9-1-1.4c-0.7-1.2-1-2.5-1-3.9c0-2,0.7-3.8,2-5.2l17-18.1
		c2.6-2.8,7.2-2.8,9.8,0l27.1,28.7c3.7,3.9,9.7,3.9,13.4,0c3.7-3.9,3.7-10.3,0-14.2l-27.1-28.7c-4.9-5.2-11.4-8.1-18.3-8.1
		c-6.9,0-13.4,2.9-18.3,8.1l-17,18.1c-10.1,10.7-10.1,28.2,0,38.9l9.6,10.1v0l15,15.9l4.7,71.6L92,338.5l-17.7,18.8l-28.8,30.5
		c-3.7,3.9-3.7,10.3,0,14.2l35.2,37.3l0.2,0.2c1.8,1.9,4.2,2.8,6.6,2.8c2.4,0,4.9-1,6.7-2.9l79.9-84.7l67.4,5l24.6,26
		c5,5.4,11.7,8,18.3,8c6.6,0,13.3-2.7,18.3-8l17-18.1C329.7,356.9,329.7,339.5,319.6,328.8z M170.9,334.3c-2.8-0.2-5.4,0.9-7.4,2.9
		L87.4,418l-3.7-3.9l-18-19.1L81,378.7l5.9,6.2l5,5.3c1.9,2,4.3,3,6.7,3c2.4,0,4.9-1,6.7-3c3.7-3.9,3.7-10.3,0-14.2l-10.9-11.5
		l47.4-50.3c1.9-2.1,3-4.9,2.8-7.8l-3.5-53l79.8,84.7L170.9,334.3z"/>
</g>
</svg>
