<?xml version="1.0" encoding="utf-8"?>
<!-- Generator: Adobe Illustrator 27.4.1, SVG Export Plug-In . SVG Version: 6.00 Build 0)  -->
<svg version="1.1" id="Capa_1" xmlns="http://www.w3.org/2000/svg" xmlns:xlink="http://www.w3.org/1999/xlink" x="0px" y="0px"
	 viewBox="0 0 512 512" style="enable-background:new 0 0 512 512;" xml:space="preserve">
<style type="text/css">
	.st0{fill:#363434;}
	.st1{fill:#00BFB2;}
	.st2{fill:none;}
	.st3{fill:#30363B;}
	.st4{fill-rule:evenodd;clip-rule:evenodd;fill:#00BFB2;}
	.st5{fill:#30363B;stroke:#30363B;stroke-width:0.1828;}
	.st6{fill:#5ABBA7;}
	.st7{fill-rule:evenodd;clip-rule:evenodd;fill:#30363B;}
	.st8{fill:#05C0BD;}
	.st9{fill:#FFFFFF;filter:url(#Adobe_OpacityMaskFilter);}
	.st10{mask:url(#mask0_1235_50707_00000062165600384750918480000002694536003139282600_);}
</style>
<g>
	<path class="svg_accent" d="M167.9,57.1c0,7.6,6.2,13.8,13.8,13.8h218.2v297.8h-72.4v72.4H112.1V57.1c0-7.6-6.2-13.8-13.8-13.8
		c-7.6,0-13.8,6.2-13.8,13.8v411.7h261.5l81.8-81.4V43.2H181.8C174.1,43.2,167.9,49.4,167.9,57.1z M351.5,424.1v-31.4h31.6
		L351.5,424.1z"/>
	<path class="svg_base" d="M153.9,171.8h204.2c7.6,0,13.8-6.2,13.8-13.8c0-7.6-6.2-13.8-13.8-13.8H153.9c-7.6,0-13.8,6.2-13.8,13.8
		C140.1,165.6,146.3,171.8,153.9,171.8z"/>
	<path class="svg_base" d="M153.9,246h204.2c7.6,0,13.8-6.2,13.8-13.8s-6.2-13.8-13.8-13.8H153.9c-7.6,0-13.8,6.2-13.8,13.8
		S146.3,246,153.9,246z"/>
	<path class="svg_base" d="M153.9,320.3h204.2c7.6,0,13.8-6.2,13.8-13.8c0-7.6-6.2-13.8-13.8-13.8H153.9c-7.6,0-13.8,6.2-13.8,13.8
		C140.1,314.1,146.3,320.3,153.9,320.3z"/>
</g>
</svg>
