<?xml version="1.0" encoding="utf-8"?>
<!-- Generator: Adobe Illustrator 27.4.1, SVG Export Plug-In . SVG Version: 6.00 Build 0)  -->
<svg version="1.1" id="Capa_1" xmlns="http://www.w3.org/2000/svg" xmlns:xlink="http://www.w3.org/1999/xlink" x="0px" y="0px"
	 viewBox="0 0 512 512" style="enable-background:new 0 0 512 512;" xml:space="preserve">
<style type="text/css">
	.st0{fill:#363434;}
	.st1{fill:#00BFB2;}
	.st2{fill:none;}
	.st3{fill:#30363B;}
	.st4{fill-rule:evenodd;clip-rule:evenodd;fill:#00BFB2;}
	.st5{fill:#30363B;stroke:#30363B;stroke-width:0.1828;}
	.st6{fill:#5ABBA7;}
	.st7{fill-rule:evenodd;clip-rule:evenodd;fill:#30363B;}
	.st8{fill:#05C0BD;}
	.st9{fill:#FFFFFF;filter:url(#Adobe_OpacityMaskFilter);}
	.st10{mask:url(#mask0_1235_50707_00000062165600384750918480000002694536003139282600_);}
</style>
<g>
	<g>
		<path class="st3" d="M432.5,176.7c7.5,0,13.6-5.9,13.6-13.2V83.9c0-21.9-18.2-39.7-40.7-39.7H106.6c-22.5,0-40.7,17.8-40.7,39.7
			v344.1c0,21.9,18.3,39.7,40.7,39.7h298.8c22.5,0,40.7-17.8,40.7-39.7V216.2c0-7.3-6.1-13.2-13.6-13.2c-7.5,0-13.6,5.9-13.6,13.2
			v211.8c0,7.3-6.1,13.2-13.6,13.2H106.6c-7.5,0-13.6-5.9-13.6-13.2V176.7H432.5z M93,83.9c0-7.3,6.1-13.2,13.6-13.2h298.8
			c7.5,0,13.6,5.9,13.6,13.2v66.2H93V83.9z"/>
		<path class="st3" d="M188.1,97.2c-7.5,0-13.6,5.9-13.6,13.2c0,7.3,6.1,13.2,13.6,13.2c7.5,0,13.6-5.9,13.6-13.2
			C201.7,103.2,195.6,97.2,188.1,97.2z"/>
		<path class="st3" d="M133.8,97.2c-7.5,0-13.6,5.9-13.6,13.2c0,7.3,6.1,13.2,13.6,13.2c7.5,0,13.6-5.9,13.6-13.2
			C147.4,103.2,141.3,97.2,133.8,97.2z"/>
		<path class="st3" d="M378.2,97.2c-7.5,0-13.6,5.9-13.6,13.2c0,7.3,6.1,13.2,13.6,13.2c7.5,0,13.6-5.9,13.6-13.2
			C391.9,103.2,385.8,97.2,378.2,97.2z"/>
		<path class="st3" d="M323.9,97.2c-7.5,0-13.6,5.9-13.6,13.2c0,7.3,6.1,13.2,13.6,13.2s13.6-5.9,13.6-13.2
			C337.5,103.2,331.4,97.2,323.9,97.2z"/>
		<path class="st3" d="M269.6,97.2h-27.1c-7.5,0-13.6,5.9-13.6,13.2c0,7.3,6.1,13.2,13.6,13.2h27.1c7.5,0,13.6-5.9,13.6-13.2
			C283.2,103.2,277.1,97.2,269.6,97.2z"/>
	</g>
	<path class="svg_base" d="M361.7,192.5H150.3c-20.3,0-36.9,16.5-36.9,36.8v155.1c0,20.3,16.5,36.8,36.9,36.8h211.4
		c20.3,0,36.9-16.5,36.9-36.8V229.3C398.5,209,382,192.5,361.7,192.5z M140.5,229.3c0-5.4,4.4-9.9,9.9-9.9h211.4
		c5.4,0,9.9,4.4,9.9,9.9v155.1c0,5.4-4.4,9.9-9.9,9.9H150.3c-5.4,0-9.9-4.4-9.9-9.9V229.3z"/>
</g>
</svg>
