<?xml version="1.0" encoding="utf-8"?>
<!-- Generator: Adobe Illustrator 27.4.1, SVG Export Plug-In . SVG Version: 6.00 Build 0)  -->
<svg version="1.1" id="Capa_1" xmlns="http://www.w3.org/2000/svg" xmlns:xlink="http://www.w3.org/1999/xlink" x="0px" y="0px"
	 viewBox="0 0 512 512" style="enable-background:new 0 0 512 512;" xml:space="preserve">
<style type="text/css">
	.st0{fill:#363434;}
	.st1{fill:#00BFB2;}
	.st2{fill:none;}
	.st3{fill:#30363B;}
	.st4{fill-rule:evenodd;clip-rule:evenodd;fill:#00BFB2;}
	.st5{fill:#30363B;stroke:#30363B;stroke-width:0.1828;}
	.st6{fill:#5ABBA7;}
	.st7{fill-rule:evenodd;clip-rule:evenodd;fill:#30363B;}
	.st8{fill:#05C0BD;}
	.st9{fill:#FFFFFF;filter:url(#Adobe_OpacityMaskFilter);}
	.st10{mask:url(#mask0_1235_50707_00000062165600384750918480000002694536003139282600_);}
</style>
<g>
	<g>
		<path class="st1" d="M237,162.2c3,2.6,7.7,2.3,10.3-0.7c2.7-3,2.4-7.6-0.7-10.2c-2.7-2.5-4.4-5.9-4.8-9.6c0.3-3.4,2-6.5,4.8-8.6
			c6-4.7,9.6-11.8,9.8-19.4c-0.4-7.8-3.9-15.2-9.8-20.5c-3.1-2.4-7.5-2.1-10.1,0.9c-2.6,2.9-2.4,7.3,0.4,10c2.7,2.5,4.4,5.9,4.8,9.6
			c-0.3,3.4-2,6.5-4.8,8.6c-6,4.7-9.6,11.8-9.8,19.4C227.6,149.6,231.1,156.9,237,162.2z"/>
		<path class="st1" d="M256.5,141.7c0.4,7.8,3.8,15.2,9.5,20.5c2.9,2.6,7.4,2.3,10-0.7c2.6-3,2.3-7.6-0.6-10.2
			c-2.6-2.5-4.3-5.9-4.7-9.6c0.3-3.4,2-6.5,4.7-8.6c5.8-4.7,9.3-11.8,9.5-19.4c-0.4-7.8-3.8-15.2-9.5-20.5c-3-2.4-7.3-2.1-9.8,0.9
			c-2.5,2.9-2.3,7.3,0.4,10c2.6,2.5,4.3,5.9,4.7,9.6c-0.3,3.4-2,6.5-4.7,8.6C260.1,127,256.6,134.1,256.5,141.7z"/>
	</g>
	<path class="st3" d="M315.4,195.7c-1.9-0.2-3.8-0.3-5.7-0.5c0.8,0.1,1.6,0.1,2.3,0.2C313.2,195.5,314.3,195.6,315.4,195.7z"/>
	<path class="st3" d="M312.6,198.1c-0.2,0-0.3,0-0.5,0c-0.4,0-0.7,0.1-1.1,0.1C311.5,198.2,312.1,198.1,312.6,198.1z"/>
	<path class="st3" d="M451,353c-6.3-4.8-15.1-8.8-25.2-12.2c-19.4-6.4-44.3-10.7-67.8-13.5c1.4-6,2.1-12.2,2.1-18.3v-4.6
		c15.4-0.9,29.5-9.5,37.3-23c8.2-14.3,8.2-31.9,0-46.2c-8.2-14.3-23.5-23.1-40-23.1c-5.5,0-10,4.5-10,10c0,5.5,4.5,10,10,10
		c9.4,0,18,5,22.7,13.1c4.7,8.1,4.7,18.1,0,26.2c-4.2,7.3-11.7,12.1-20,13V251c0-5.5-4.5-10-10-10c-5.5,0-10,4.5-10,10V309
		c0,16.6-6.6,32.4-18.3,44.1c-11.7,11.7-27.6,18.3-44.1,18.3h-43.4c-16.6,0-32.4-6.6-44.1-18.3c-11.7-11.7-18.3-27.6-18.3-44.1
		v-11.7h76.9c5.5,0,10-4.5,10-10c0-5.5-4.5-10-10-10h-76.9v-65.5c14.3,3.4,39.6,5.9,84.2,5.9c50.7,0,76.4-3.3,89.5-7.3
		c6.6-2,10.3-4.3,12.4-6.9c2.2-2.7,2.2-5.3,2.2-6.6v0c0-1.4,0-3.9-2.2-6.6c-2.1-2.5-5.9-4.8-12.4-6.9c-13.1-4-38.8-7.3-89.5-7.3
		s-76.4,3.3-89.5,7.3c-6.6,2-10.3,4.3-12.4,6.9c-2.1,2.6-2.2,5.1-2.2,6.5c-0.1,0.9-0.1,1.7,0,2.6c0,0.4,0,0.9,0,1.3V309
		c0,21.9,8.7,42.8,24.1,58.2c15.5,15.4,36.4,24.1,58.3,24.1h43.5c15.5,0,30.6-4.4,43.7-12.6c12.6-7.9,22.7-19,29.5-32.1
		c34.3,3.9,57.2,9.3,71.6,14.3c7.3,2.5,12.3,5,15.4,7c1.6,1,2.6,1.9,3.1,2.5c0.3,0.3,0.4,0.5,0.5,0.6c0,0.1-0.1,0.3-0.3,0.5
		c-0.3,0.4-0.9,1-1.8,1.8c-1.8,1.4-4.6,3-8.6,4.8c-7.9,3.4-19.8,7.1-35.6,10.4c-31.6,6.6-78.5,11.9-139.2,11.9
		s-107.6-5.3-139.2-11.9c-15.8-3.3-27.7-6.9-35.6-10.4c-4-1.7-6.8-3.3-8.6-4.8c-0.9-0.7-1.4-1.3-1.8-1.8c-0.2-0.2-0.2-0.4-0.3-0.5
		c0-0.1,0.1-0.1,0.1-0.2c0.3-0.4,0.8-0.9,1.6-1.6c1.7-1.3,4.4-3,8.4-4.8c8-3.6,20.7-7.8,39.4-11.5l0.2,0c4.8-0.9,8.2-5.1,8.2-9.9
		c0.1-3-1.3-5.9-3.6-7.9c-1.8-1.5-4.1-2.3-6.4-2.3c-0.7,0-1.4,0.1-2.1,0.2c-17.4,3.6-33.6,8.1-45.5,14
		c-11.7,5.8-20.3,13.6-20.3,23.9c0,5.5,2.5,10.4,6.6,14.5c4.1,4.1,9.9,7.7,16.8,10.8c13.9,6.2,32.9,11,53.9,14.5
		c42.1,7.1,93,9.5,128.1,9.5c35.1,0,86-2.5,128.1-9.5c21-3.5,40.1-8.3,53.9-14.5c6.9-3.1,12.7-6.7,16.8-10.8c4.1-4.2,6.6-9,6.6-14.5
		C461.5,363.8,457.3,357.8,451,353z M194.2,195.9c0.8-0.1,1.6-0.1,2.3-0.2c1.1-0.1,2.2-0.2,3.4-0.3c0.8-0.1,1.6-0.1,2.4-0.2
		c0.9-0.1,1.8-0.1,2.7-0.2c1.9-0.2,3.8-0.3,5.8-0.4c0.8-0.1,1.5-0.1,2.3-0.2c2.7-0.2,5.3-0.3,8-0.5c0.2,0,0.4,0,0.6,0
		c2.5-0.1,4.9-0.2,7.4-0.3c0.9,0,1.7-0.1,2.6-0.1c1.8-0.1,3.7-0.1,5.5-0.2c0.9,0,1.9,0,2.8-0.1c1.9,0,3.7-0.1,5.5-0.1
		c0.8,0,1.7,0,2.5,0c2.7,0,5.3,0,8,0c2.7,0,5.3,0,8,0c0.8,0,1.6,0,2.5,0c1.9,0,3.8,0,5.6,0.1l2.8,0.1c1.9,0,3.8,0.1,5.6,0.2
		c0.8,0,1.6,0,2.5,0.1c2.5,0.1,5.1,0.2,7.6,0.3c0.1,0,0.3,0,0.4,0c2.7,0.1,5.4,0.3,8,0.5c0.8,0,1.5,0.1,2.3,0.2
		c1.9,0.1,3.9,0.3,5.8,0.4c0.9,0.1,1.8,0.1,2.7,0.2c0.8,0.1,1.6,0.1,2.3,0.2c1.1,0.1,2.2,0.2,3.4,0.3c0.8,0.1,1.6,0.2,2.4,0.2
		c2.6,0.3,5.3,0.5,7.9,0.8c-2.6,0.3-5.2,0.6-7.9,0.8c-0.8,0.1-1.7,0.2-2.5,0.2c-0.9,0.1-1.8,0.2-2.7,0.3c-0.2,0-0.3,0-0.5,0
		c-0.4,0-0.7,0.1-1.1,0.1c-0.4,0-0.7,0.1-1.1,0.1c-1,0.1-1.9,0.2-2.9,0.2c-1.8,0.1-3.7,0.3-5.5,0.4c-0.9,0.1-1.7,0.1-2.5,0.2
		c-2.6,0.2-5.3,0.3-7.9,0.5c-0.3,0-0.5,0-0.8,0c-2.4,0.1-4.8,0.2-7.2,0.3c-0.9,0-1.7,0.1-2.6,0.1c-1.8,0.1-3.7,0.1-5.5,0.2
		c-0.9,0-1.9,0.1-2.8,0.1c-1.9,0-3.7,0.1-5.6,0.1c-0.8,0-1.7,0-2.5,0c-2.7,0-5.3,0-8,0c-2.7,0-5.3,0-8,0c-0.9,0-1.7,0-2.6,0
		c-1.8,0-3.7,0-5.5-0.1c-1,0-1.9,0-2.9-0.1c-1.8,0-3.6-0.1-5.5-0.1c-0.9,0-1.7-0.1-2.6-0.1c-2.4-0.1-4.8-0.2-7.2-0.3
		c-0.3,0-0.5,0-0.8,0c-2.7-0.1-5.3-0.3-7.9-0.5c-0.8-0.1-1.6-0.1-2.5-0.2c-1.8-0.1-3.7-0.3-5.5-0.4c-1-0.1-1.9-0.2-2.9-0.2
		c-0.8-0.1-1.5-0.1-2.2-0.2c-1.1-0.1-2.2-0.2-3.2-0.3c-0.8-0.1-1.7-0.2-2.5-0.2c-2.6-0.3-5.2-0.5-7.9-0.8
		C189,196.4,191.6,196.2,194.2,195.9z"/>
</g>
</svg>
