<?xml version="1.0" encoding="utf-8"?>
<!-- Generator: Adobe Illustrator 27.4.1, SVG Export Plug-In . SVG Version: 6.00 Build 0)  -->
<svg version="1.1" id="Capa_1" xmlns="http://www.w3.org/2000/svg" xmlns:xlink="http://www.w3.org/1999/xlink" x="0px" y="0px"
	 viewBox="0 0 512 512" style="enable-background:new 0 0 512 512;" xml:space="preserve">
<style type="text/css">
	.st0{fill:#363434;}
	.st1{fill:#00BFB2;}
	.st2{fill:none;}
	.st3{fill:#30363B;}
	.st4{fill-rule:evenodd;clip-rule:evenodd;fill:#00BFB2;}
	.st5{fill:#30363B;stroke:#30363B;stroke-width:0.1828;}
	.st6{fill:#5ABBA7;}
	.st7{fill-rule:evenodd;clip-rule:evenodd;fill:#30363B;}
	.st8{fill:#05C0BD;}
	.st9{fill:#FFFFFF;filter:url(#Adobe_OpacityMaskFilter);}
	.st10{mask:url(#mask0_1235_50707_00000062165600384750918480000002694536003139282600_);}
</style>
<g>
	<g>
		<path class="st0" d="M466,345.1l-101.4-125c-2.1-2.5-5.3-3.7-8.6-3.3l-16.1,2.1c6-14.8,9-28.7,9-42.5c0-49.7-41.2-90.1-92.1-90.5
			l-0.9,0c-51.2,0-92.9,40.6-92.9,90.5c0,46.7,33.6,87.5,63.3,123.5c2.6,3.1,5.1,6.1,7.5,9.1l-52.3,10.4l-32.4-55.3l12.2-1.7
			c2.6-0.1,5.1-1.2,6.8-3.2c1.8-2,2.6-4.8,2.3-7.5c-0.3-2.7-1.8-5.1-4.1-6.7c-2.2-1.5-4.9-2-7.5-1.4L52.1,258.5
			c-3.1,0.4-5.8,2.3-7.2,5.1c-1.4,2.8-1.4,6.1,0.1,8.9l83.4,148.7c1.7,3.1,4.9,4.9,8.3,4.9c0.6,0,1.2-0.1,1.8-0.2l321.7-65.4
			c3.3-0.6,6.1-2.9,7.3-6.1C468.7,351.2,468.1,347.6,466,345.1z M441.3,345l-77.9,15.8l-33-51.8l70.3-14.2L441.3,345z M172.2,340.6
			c0.7,0.6,1.5,1.1,2.4,1.5l50.7,22.6l12.7,21.7l-96.5,19.5l-29.7-53.2L172.2,340.6z M331,269.4c0.4-2.7-0.4-5.4-2-7.4l-7.3-9.3
			c2.7-4,5.6-8.5,8.3-13.1l23.3-3.2l34,41.9l-59.6,12L331,269.4z M255.9,331c3,0,5.9-1.5,7.7-3.9c1.2-1.6,2.5-3.2,3.7-4.8l0.6-0.8
			l42.3-8.4l33,51.8l-85.4,17.3l-17.6-30c-1-1.7-2.6-3.1-4.4-3.8l-31.7-14.1l42.8-8.6c0.4,0.5,0.8,1,1.1,1.3
			C250,329.6,252.9,331,255.9,331z M286.8,298.4c7.9-9.6,15.9-19.4,23.5-29.5l1.2,1.5l-4,23.9L286.8,298.4z M270.7,287.5
			c-4.9,6-9.9,12.2-14.8,18.4c-4.8-6.1-9.9-12.3-14.8-18.4c-29.1-35.8-59.2-72.8-59.2-111c0-39.5,33.2-71.6,73.9-71.6
			s73.9,32.1,73.9,71.6C329.9,214.7,299.8,251.7,270.7,287.5z M161.6,323.4l-59.5,11.9l-33.6-59.9l60.3-8.3L161.6,323.4z"/>
		<path class="st1" d="M255.9,133.5c-25,0-45.3,20.3-45.3,45.2c0,24.9,20.3,45.2,45.3,45.2s45.3-20.3,45.3-45.2
			C301.2,153.8,280.9,133.5,255.9,133.5z M282.2,178.7c0,14.4-11.8,26.2-26.3,26.2c-14.5,0-26.3-11.8-26.3-26.2s11.8-26.2,26.3-26.2
			C270.4,152.5,282.2,164.3,282.2,178.7z"/>
	</g>
</g>
</svg>
