<?xml version="1.0" encoding="utf-8"?>
<!-- Generator: Adobe Illustrator 27.6.1, SVG Export Plug-In . SVG Version: 6.00 Build 0)  -->
<svg version="1.1" id="Capa_1" xmlns="http://www.w3.org/2000/svg" xmlns:xlink="http://www.w3.org/1999/xlink" x="0px" y="0px"
	 viewBox="0 0 512 512" style="enable-background:new 0 0 512 512;" xml:space="preserve">
<g>
	<path d="M323.4,174.2c-8.2,0-14.9,6.7-14.9,14.9s6.7,14.9,14.9,14.9c8.2,0,14.9-6.7,14.9-14.9S331.6,174.2,323.4,174.2z"/>
	<path d="M257.1,193.3c-34.6,0-62.7,28.1-62.7,62.6s28.2,62.6,62.7,62.6s62.7-28.1,62.7-62.6S291.6,193.3,257.1,193.3z M257.1,296.1
		c-22.1,0-40.2-18-40.2-40.1s18-40.1,40.2-40.1s40.2,18,40.2,40.1C297.2,278.1,279.2,296.1,257.1,296.1z"/>
	<path d="M306.8,383.2H205.2c-42.2,0-76.5-34.3-76.5-76.4V205.3c0-42.2,34.3-76.5,76.5-76.5h101.6c42.2,0,76.4,34.3,76.4,76.4v101.6
		C383.2,348.9,348.9,383.2,306.8,383.2L306.8,383.2z M205.2,152.7c-28.9,0-52.5,23.6-52.5,52.5v101.6c0,28.9,23.6,52.5,52.5,52.5
		h101.6c28.9,0,52.5-23.6,52.5-52.5V205.2c0-28.9-23.6-52.5-52.5-52.5H205.2z"/>
</g>
</svg>
