<?xml version="1.0" encoding="utf-8"?>
<!-- Generator: Adobe Illustrator 27.6.1, SVG Export Plug-In . SVG Version: 6.00 Build 0)  -->
<svg version="1.1" id="Capa_1" xmlns="http://www.w3.org/2000/svg" xmlns:xlink="http://www.w3.org/1999/xlink" x="0px" y="0px"
	 viewBox="0 0 512 512" style="enable-background:new 0 0 512 512;" xml:space="preserve">
<g>
	<rect x="111" y="170.1" width="96.1" height="25"/>
	<rect x="111" y="209.1" width="96.1" height="25"/>
	<rect x="111" y="248" width="96.1" height="25"/>
	<rect x="111" y="286.9" width="96.1" height="25"/>
	<rect x="111" y="325.9" width="96.1" height="25"/>
	<path d="M315.2,113.5c-24.5,0-46.2,12.4-59.2,31.3c-12.9-18.9-34.6-31.3-59.2-31.3H51v228.9c0,39.5,32.1,71.7,71.7,71.7h120.8h25
		h120.8c39.5,0,71.7-32.1,71.7-71.7V113.5H315.2z M243.5,389.1H122.7C97,389.1,76,368.1,76,342.4V138.5h120.8
		c25.7,0,46.7,20.9,46.7,46.7V389.1z M436,342.4c0,25.7-20.9,46.7-46.7,46.7H268.5V185.1c0-25.7,20.9-46.7,46.7-46.7H436V342.4z"/>
	<rect x="304.9" y="170.1" width="96.1" height="25"/>
	<rect x="304.9" y="209.1" width="96.1" height="25"/>
	<rect x="304.9" y="248" width="96.1" height="25"/>
	<rect x="304.9" y="286.9" width="96.1" height="25"/>
	<rect x="304.9" y="325.9" width="96.1" height="25"/>
</g>
</svg>
