<?xml version="1.0" encoding="utf-8"?>
<!-- Generator: Adobe Illustrator 27.6.1, SVG Export Plug-In . SVG Version: 6.00 Build 0)  -->
<svg version="1.1" id="Capa_1" xmlns="http://www.w3.org/2000/svg" xmlns:xlink="http://www.w3.org/1999/xlink" x="0px" y="0px"
	 viewBox="0 0 512 512" style="enable-background:new 0 0 512 512;" xml:space="preserve">
<g>
	<path d="M154,57.5c-32.2,0-58.4,26.2-58.4,58.4v46.7v25v266.9H358c32.2,0,58.4-26.2,58.4-58.4V187.6v-25V57.5H154z M391.5,396.1
		c0,18.4-15,33.4-33.4,33.4H120.5V187.6h271V396.1z M120.5,162.6v-46.7c0-18.4,15-33.4,33.4-33.4h237.5v80.2H120.5z"/>
	<path d="M256,387.7c46.6,0,84.6-37.9,84.6-84.6s-37.9-84.6-84.6-84.6c-46.6,0-84.6,37.9-84.6,84.6S209.4,387.7,256,387.7z
		 M256,243.5c32.9,0,59.6,26.7,59.6,59.6s-26.7,59.6-59.6,59.6c-32.9,0-59.6-26.7-59.6-59.6S223.1,243.5,256,243.5z"/>
	<rect x="337.9" y="108.1" width="25" height="29"/>
	<rect x="283.1" y="108.1" width="25" height="29"/>
</g>
</svg>
