<?xml version="1.0" encoding="utf-8"?>
<!-- Generator: Adobe Illustrator 27.6.1, SVG Export Plug-In . SVG Version: 6.00 Build 0)  -->
<svg version="1.1" id="Capa_1" xmlns="http://www.w3.org/2000/svg" xmlns:xlink="http://www.w3.org/1999/xlink" x="0px" y="0px"
	 viewBox="0 0 512 512" style="enable-background:new 0 0 512 512;" xml:space="preserve">
<path d="M150.4,55.1c-31.7,0-57.4,25.8-57.4,57.4v189.5v0.6v11.9v12.5v58.8v8v63.1h77.6v-63.1h171v63.1H419v-47.8v-15.3v-2.3v-64.4
	v-24.4v-0.6v-247H150.4z M150.4,80.1H394v160.7c-14.1-14.6-33.1-24.4-54.3-26.8v-19.3c0-26.8-21.8-48.7-48.7-48.7h-70.2
	c-26.8,0-48.7,21.8-48.7,48.7v19.3c-21.2,2.4-40.2,12.2-54.3,26.8V112.5C118,94.7,132.5,80.1,150.4,80.1z M182.2,238.5h147.6
	c35.2,0,63.9,28.5,64.2,63.6H118C118.3,267,147,238.5,182.2,238.5z M314.8,213.5H197.2v-18.8c0-13,10.6-23.7,23.7-23.7h70.2
	c13,0,23.7,10.6,23.7,23.7V213.5z M145.5,431.9H118v-38.1h27.6V431.9z M394,409.1v22.8h-27.6v-38.1H394V409.1z M394,368.8H118v-41.7
	H394V368.8z"/>
</svg>
