<?xml version="1.0" encoding="UTF-8"?>
<svg id="iconos" xmlns="http://www.w3.org/2000/svg" viewBox="0 0 200 200">
  <defs>
    <style>
      .cls-1 {
        fill: none;
        stroke: #000;
        stroke-miterlimit: 10;
        stroke-width: 7.41px;
      }
    </style>
  </defs>
  <path class="cls-1" d="M134.05,74.82v43.21l-7.51,13.03v21.65h-46.78v-21.87l-11.35-16.72c-1.61-2.36-2.46-5.16-2.46-8.02v-19.66c0-3.31,2.68-5.98,5.98-5.98h29.59c.02,14.47-23.89,15.87-23.89,15.87,0,0,25.97,3.07,25.97,23.25"/>
  <path class="cls-1" d="M80.58,31.63h0c4.41,0,8,3.58,8,8v40.85h-15.99v-40.85c0-4.41,3.58-8,8-8Z"/>
  <rect class="cls-1" x="103.61" y="64.87" width="15.18" height="30.08" rx="7.59" ry="7.59"/>
  <rect class="cls-1" x="118.78" y="64.87" width="15.18" height="30.08" rx="7.59" ry="7.59"/>
  <path class="cls-1" d="M88.58,80.48v-8.02c0-4.19,3.4-7.59,7.59-7.59h0c4.19,0,7.59,3.4,7.59,7.59v14.9c0,4.19-3.4,7.59-7.59,7.59h0c-1.86,0-3.56-.67-4.88-1.77"/>
</svg>