<?xml version="1.0" encoding="UTF-8"?>
<svg id="iconos" xmlns="http://www.w3.org/2000/svg" viewBox="0 0 200 200">
  <defs>
    <style>
      .cls-1 {
        fill: none;
        stroke: #f4f1ee;
        stroke-miterlimit: 10;
        stroke-width: 8px;
      }
    </style>
  </defs>
  <line class="cls-1" x1="83.55" y1="81.35" x2="73.12" y2="62.24"/>
  <path class="cls-1" d="M35.83,149.3s8.43-10.41,8.43-19.92-.32-57.16-.32-57.16c0-9.54,7.73-17.27,17.27-17.27h29.26v26.87"/>
  <path class="cls-1" d="M90.47,54.94l-21.01,8.84c-6.41,2.69-10.57,8.97-10.57,15.92v69.6"/>
  <line class="cls-1" x1="115.75" y1="81.35" x2="126.18" y2="62.24"/>
  <path class="cls-1" d="M163.47,149.3s-8.43-10.41-8.43-19.92c0-9.52.32-57.16.32-57.16,0-9.54-7.73-17.27-17.27-17.27h-29.26s0,26.87,0,26.87"/>
  <path class="cls-1" d="M108.83,54.94l21.01,8.84c6.41,2.69,10.57,8.97,10.57,15.92v69.6"/>
  <path class="cls-1" d="M83.55,81.35h32.21v11.94c0,8.31-6.75,15.06-15.06,15.06h-2.08c-8.31,0-15.06-6.75-15.06-15.06v-11.94h0Z"/>
</svg>