<?xml version="1.0" encoding="UTF-8"?>
<svg id="iconos" xmlns="http://www.w3.org/2000/svg" viewBox="0 0 200 200">
  <defs>
    <style>
      .cls-1 {
        fill: none;
        stroke: #f4f1ee;
        stroke-miterlimit: 10;
        stroke-width: 8.25px;
      }
    </style>
  </defs>
  <line class="cls-1" x1="76.47" y1="152.15" x2="123.89" y2="152.15"/>
  <polygon class="cls-1" points="110.57 151.9 89.69 151.9 92.24 123.73 100.18 124.01 107.96 124.01 110.57 151.9"/>
  <path class="cls-1" d="M65.48,85.66h61.16c4.36,0,7.89,3.54,7.89,7.89v5.83h-61.16c-4.36,0-7.89-3.54-7.89-7.89v-5.83h0Z"/>
  <path class="cls-1" d="M69.83,99.38c2.94,14.07,15.41,24.64,30.35,24.64s27.41-10.57,30.35-24.64h-60.7Z"/>
  <path class="cls-1" d="M75.98,37.92h36.03c6.46,0,11.7,5.24,11.7,11.7v36.03h-47.74v-47.74h0Z"/>
</svg>