<?xml version="1.0" encoding="UTF-8"?>
<svg id="iconos" xmlns="http://www.w3.org/2000/svg" viewBox="0 0 200 200">
  <defs>
    <style>
      .cls-1 {
        fill: none;
        stroke: #f4f1ee;
        stroke-miterlimit: 10;
        stroke-width: 8.05px;
      }
    </style>
  </defs>
  <path class="cls-1" d="M132.19,96.6c0,9.55-3.97,18.16-10.36,24.29-4.63,4.45-7.13,10.68-7.13,17.11v8.49h-32.4v-8.58c0-6.48-2.65-12.66-7.29-17.17-6.63-6.46-10.61-15.62-10.15-25.71.79-17.26,14.79-31.27,32.05-32.07,19.32-.89,35.27,14.51,35.27,33.65Z"/>
  <line class="cls-1" x1="77.79" y1="162.3" x2="118.81" y2="162.3"/>
  <line class="cls-1" x1="98.49" y1="47.83" x2="98.49" y2="28.06"/>
  <line class="cls-1" x1="62.71" y1="62.85" x2="48.73" y2="48.88"/>
  <line class="cls-1" x1="48.03" y1="98.78" x2="28.27" y2="98.78"/>
  <line class="cls-1" x1="63.06" y1="134.56" x2="49.08" y2="148.54"/>
  <line class="cls-1" x1="134.77" y1="134.22" x2="148.75" y2="148.19"/>
  <line class="cls-1" x1="149.45" y1="98.29" x2="169.21" y2="98.29"/>
  <line class="cls-1" x1="134.42" y1="62.51" x2="148.4" y2="48.53"/>
</svg>