<?xml version="1.0" encoding="UTF-8"?>
<svg id="iconos" xmlns="http://www.w3.org/2000/svg" viewBox="0 0 200 200">
  <defs>
    <style>
      .cls-1 {
        fill: none;
        stroke: #000;
        stroke-miterlimit: 10;
        stroke-width: 8.25px;
      }
    </style>
  </defs>
  <line class="cls-1" x1="64.54" y1="135.54" x2="128.81" y2="71.28"/>
  <path class="cls-1" d="M103.38,52.42c12.23-12.23,37.37-17.55,49.6-5.32,12.23,12.23,6.91,37.37-5.32,49.6-12.2-17.12-27.16-32.08-44.28-44.28Z"/>
  <line class="cls-1" x1="91.84" y1="64.23" x2="135.85" y2="108.24"/>
  <line class="cls-1" x1="76.72" y1="73.22" x2="126.87" y2="123.36"/>
  <line class="cls-1" x1="67.74" y1="88.33" x2="111.75" y2="132.35"/>
  <path class="cls-1" d="M78.88,118.79s-24.92-12.05-43.32,1.83c0,0,10.96,10.54,30.07,14.3"/>
  <path class="cls-1" d="M81.29,121.2s12.05,24.92-1.83,43.32c0,0-10.54-10.96-14.3-30.07"/>
</svg>