<?xml version="1.0" encoding="UTF-8"?>
<svg id="iconos" xmlns="http://www.w3.org/2000/svg" viewBox="0 0 200 200">
  <defs>
    <style>
      .cls-1 {
        fill: none;
        stroke: #f4f1ee;
        stroke-miterlimit: 10;
        stroke-width: 8px;
      }
    </style>
  </defs>
  <path class="cls-1" d="M99.75,40.87h60.25v94.03c0,9.91-8.05,17.96-17.96,17.96h-60.25V58.83c0-9.91,8.05-17.96,17.96-17.96Z"/>
  <circle class="cls-1" cx="120.9" cy="64.97" r="10.13"/>
  <circle class="cls-1" cx="120.9" cy="115.64" r="10.13"/>
  <circle class="cls-1" cx="120.9" cy="115.64" r="23.81"/>
  <g>
    <path class="cls-1" d="M69.87,79.06c-4.53,4.33-7.35,10.43-7.35,17.2s2.83,12.86,7.35,17.2"/>
    <path class="cls-1" d="M58.2,69.82c-6.96,6.66-11.31,16.04-11.31,26.44s4.34,19.78,11.31,26.44"/>
    <path class="cls-1" d="M46.53,60.57c-9.4,8.99-15.26,21.65-15.26,35.68s5.86,26.69,15.26,35.68"/>
  </g>
</svg>