<?xml version="1.0" encoding="UTF-8"?>
<svg id="iconos" xmlns="http://www.w3.org/2000/svg" xmlns:xlink="http://www.w3.org/1999/xlink" viewBox="0 0 2620 1369.03">
  <defs>
    <style>
      .cls-1 {
        stroke-linecap: square;
      }

      .cls-1, .cls-2, .cls-3, .cls-4, .cls-5, .cls-6, .cls-7, .cls-8, .cls-9, .cls-10, .cls-11 {
        fill: none;
      }

      .cls-1, .cls-2, .cls-3, .cls-4, .cls-5, .cls-7, .cls-8, .cls-9, .cls-10, .cls-11 {
        stroke: #000;
      }

      .cls-1, .cls-3, .cls-5 {
        stroke-width: 8px;
      }

      .cls-1, .cls-5 {
        stroke-linejoin: bevel;
      }

      .cls-2 {
        stroke-width: 7.41px;
      }

      .cls-2, .cls-3, .cls-4, .cls-7, .cls-8, .cls-9, .cls-10, .cls-11 {
        stroke-miterlimit: 10;
      }

      .cls-4 {
        stroke-width: 8.05px;
      }

      .cls-6 {
        stroke-width: 0px;
      }

      .cls-7 {
        stroke-width: 8.82px;
      }

      .cls-8 {
        stroke-width: 7.42px;
      }

      .cls-9 {
        stroke-width: 7.73px;
      }

      .cls-12 {
        clip-path: url(#clippath);
      }

      .cls-10 {
        stroke-width: 8.25px;
      }

      .cls-11 {
        stroke-width: 7.48px;
      }
    </style>
    <clipPath id="clippath">
      <path class="cls-6" d="M1050.01,140.6c-20.58-7.15-36.62-7.08-47.38-5.73-21.63,2.7-30.62,11.62-52.11,13.27-17.6,1.36-32.29-3.03-41.74-6.79V-.73h144.44l-3.21,141.33Z"/>
    </clipPath>
  </defs>
  <g>
    <path class="cls-3" d="M167.38,99.12v-20.38l-19.73-3.33c-2.28-.38-4.19-1.91-5.08-4.05,0-.02-.02-.05-.03-.07-.9-2.15-.64-4.6.71-6.5l11.6-16.3-14.41-14.41-16.3,11.6c-1.9,1.35-4.35,1.61-6.5.71-.02,0-.05-.02-.07-.03-2.13-.89-3.66-2.8-4.05-5.08l-3.33-19.73h-20.38l-3.33,19.73c-.38,2.28-1.91,4.19-4.05,5.08-.02.01-.05.02-.07.03-2.15.9-4.6.64-6.5-.71l-16.3-11.6-14.41,14.41,11.59,16.29c1.35,1.9,1.61,4.35.71,6.5-.01.03-.02.06-.03.08-.89,2.13-2.8,3.66-5.08,4.04l-19.71,3.33v20.38l19.71,3.33c2.28.38,4.19,1.91,5.08,4.04.01.03.02.06.03.08.9,2.15.64,4.6-.71,6.5l-11.59,16.29,14.41,14.41,16.29-11.59c1.9-1.35,4.35-1.61,6.5-.71.03.01.05.02.08.03,2.13.89,3.66,2.8,4.04,5.08l3.33,19.72h20.38l3.33-19.72c.38-2.28,1.91-4.19,4.04-5.08.03-.01.05-.02.08-.03,2.15-.9,4.6-.64,6.5.71l16.3,11.59,14.41-14.41-11.6-16.3c-1.35-1.9-1.61-4.35-.71-6.5,0-.02.02-.05.03-.07.89-2.13,2.8-3.66,5.08-4.05l19.73-3.33Z"/>
    <circle class="cls-3" cx="100" cy="86.9" r="21.7"/>
  </g>
  <g>
    <circle class="cls-3" cx="306.9" cy="102.03" r="54.28"/>
    <circle class="cls-3" cx="306.9" cy="102.03" r="29.3"/>
    <line class="cls-3" x1="365.7" y1="17.16" x2="365.7" y2="43.55"/>
    <line class="cls-3" x1="348.01" y1="34.92" x2="348.01" y2="61.32"/>
    <line class="cls-3" x1="392.1" y1="43.55" x2="365.7" y2="43.55"/>
    <line class="cls-3" x1="374.41" y1="61.32" x2="348.01" y2="61.32"/>
    <line class="cls-3" x1="306.9" y1="102.03" x2="365.51" y2="43.43"/>
  </g>
  <g>
    <path class="cls-3" d="M582.44,86.34l-50.38,30.55-30.03-30.03,28.63-52.3s13.22,4.4,30.3,21.48c17.07,17.07,21.48,30.3,21.48,30.3Z"/>
    <path class="cls-3" d="M496.26,92.29h25.77v42.86h-26.15c-3.84,0-6.96-3.12-6.96-6.96v-28.57c0-4.05,3.29-7.33,7.33-7.33Z" transform="translate(67.64 390.74) rotate(-45)"/>
    <polyline class="cls-3" points="520.63 128.87 550.96 159.2 566.91 143.25 536.96 113.3"/>
    <line class="cls-3" x1="570.25" y1="46.76" x2="584.57" y2="32.44"/>
    <line class="cls-3" x1="556.26" y1="37.27" x2="564.27" y2="18.67"/>
    <line class="cls-3" x1="579.74" y1="60.74" x2="598.34" y2="52.74"/>
  </g>
  <g>
    <path class="cls-3" d="M760,46.42c-44.19,0-67.38,42.41-67.38,42.41,0,0,23.18,42.41,67.38,42.41s67.38-42.41,67.38-42.41c0,0-23.18-42.41-67.38-42.41Z"/>
    <circle class="cls-3" cx="759.76" cy="88.82" r="22.06"/>
  </g>
  <g>
    <path class="cls-3" d="M908.78,141.35c9.45,3.77,24.14,8.15,41.74,6.79,21.49-1.65,30.48-10.57,52.11-13.27,10.76-1.34,26.81-1.42,47.38,5.73"/>
    <g class="cls-12">
      <rect class="cls-3" x="965.09" y="36.79" width="68.27" height="116.18"/>
      <path class="cls-3" d="M965.74,172.22h-40.31v-89.05c0-6.56,5.32-11.87,11.87-11.87h28.43"/>
    </g>
    <line class="cls-3" x1="982.82" y1="66.03" x2="982.82" y2="51.92"/>
    <line class="cls-3" x1="999.43" y1="66.03" x2="999.43" y2="51.92"/>
    <line class="cls-3" x1="1016.04" y1="66.03" x2="1016.04" y2="51.92"/>
    <line class="cls-3" x1="982.82" y1="90.64" x2="982.82" y2="76.53"/>
    <line class="cls-3" x1="999.43" y1="90.64" x2="999.43" y2="76.53"/>
    <line class="cls-3" x1="1016.04" y1="90.64" x2="1016.04" y2="76.53"/>
    <line class="cls-3" x1="982.82" y1="115.24" x2="982.82" y2="101.13"/>
    <line class="cls-3" x1="999.43" y1="115.24" x2="999.43" y2="101.13"/>
    <line class="cls-3" x1="1016.04" y1="115.24" x2="1016.04" y2="101.13"/>
    <line class="cls-3" x1="962.35" y1="88.96" x2="938.78" y2="88.96"/>
    <line class="cls-3" x1="962.35" y1="106.82" x2="938.78" y2="106.82"/>
    <line class="cls-3" x1="962.35" y1="124.67" x2="938.78" y2="124.67"/>
  </g>
  <g>
    <path class="cls-3" d="M1176.67,51.11c7.34-4.78,16.11-7.55,25.52-7.55,9.24,0,17.86,2.68,25.12,7.3"/>
    <path class="cls-3" d="M1177.87,130.45c-11.28-6.86-19.43-18.36-21.81-31.84"/>
    <path class="cls-3" d="M1248.22,99.19c-2.4,12.63-9.86,23.47-20.21,30.31"/>
    <g>
      <path class="cls-3" d="M1256.33,34.09c0,5.24-4.25,9.49-9.48,9.49s-9.48-4.25-9.48-9.49,4.24-9.49,9.48-9.49,9.48,4.25,9.48,9.49Z"/>
      <path class="cls-3" d="M1261.04,90.4v-23.17c0-6.47-5.24-11.72-11.71-11.72h-2.47"/>
      <path class="cls-3" d="M1246.85,55.51h-2.47c-6.47,0-11.71,5.25-11.71,11.72v7.47c0,7.66-4.38,15.34-4.38,15.34"/>
    </g>
    <g>
      <path class="cls-3" d="M1167.01,34.09c0,5.24-4.25,9.49-9.48,9.49s-9.48-4.25-9.48-9.49,4.24-9.49,9.48-9.49,9.48,4.25,9.48,9.49Z"/>
      <path class="cls-3" d="M1171.72,90.4v-23.17c0-6.47-5.24-11.72-11.71-11.72h-2.47"/>
      <path class="cls-3" d="M1157.53,55.51h-2.47c-6.47,0-11.71,5.25-11.71,11.72v7.47c0,7.66-4.38,15.34-4.38,15.34"/>
    </g>
    <g>
      <path class="cls-3" d="M1211.67,102.86c0,5.24-4.25,9.49-9.48,9.49s-9.48-4.25-9.48-9.49,4.24-9.49,9.48-9.49,9.48,4.25,9.48,9.49Z"/>
      <path class="cls-3" d="M1216.37,159.18v-23.17c0-6.47-5.24-11.72-11.71-11.72h-2.47"/>
      <path class="cls-3" d="M1202.19,124.29h-2.47c-6.47,0-11.71,5.25-11.71,11.72v7.47c0,7.66-4.38,15.34-4.38,15.34"/>
    </g>
  </g>
  <g>
    <path class="cls-3" d="M1406.96,56.77l-20.64-20.64-15.18,15.18-11.18,11.18c-5.07,5.07-5.07,13.28,0,18.35l12.99,12.99,37.57,37.57,22.17,22.17,26.35-26.35c5.07-5.07,5.07-13.28,0-18.35l-12.99-12.99-17.77,17.77-39.11-39.11,17.77-17.77Z"/>
    <rect class="cls-3" x="1440.45" y="30.04" width="43.66" height="42.66"/>
    <line class="cls-3" x1="1450.49" y1="72.7" x2="1419.17" y2="72.7"/>
    <line class="cls-3" x1="1452.54" y1="44.91" x2="1472.01" y2="44.91"/>
    <line class="cls-3" x1="1452.54" y1="58.82" x2="1472.01" y2="58.82"/>
  </g>
  <g>
    <circle class="cls-3" cx="1654.02" cy="125.93" r="24.44"/>
    <g>
      <path class="cls-3" d="M1602.03,125.93c0-28.71,23.28-51.99,51.99-51.99,14.36,0,27.35,5.82,36.76,15.23"/>
      <path class="cls-3" d="M1574.47,125.93c0-43.93,35.61-79.54,79.54-79.54,21.97,0,41.85,8.9,56.25,23.3"/>
    </g>
  </g>
  <g>
    <path class="cls-3" d="M1817.59,37.42h87.72v95.18c0,7.5-6.09,13.59-13.59,13.59h-74.13V37.42h0Z"/>
    <line class="cls-3" x1="1832.91" y1="58.23" x2="1889.97" y2="58.23"/>
    <line class="cls-3" x1="1832.91" y1="75.85" x2="1889.97" y2="75.85"/>
    <line class="cls-3" x1="1832.91" y1="93.47" x2="1889.97" y2="93.47"/>
    <line class="cls-3" x1="1832.91" y1="111.09" x2="1889.97" y2="111.09"/>
  </g>
  <g>
    <path class="cls-3" d="M2023.35,100.46h18.3c9.11,0,16.5,7.39,16.5,16.51v20.76"/>
    <path class="cls-3" d="M2023.35,139.06v-57.9c0-17.3-7.32-36.6-7.32-36.6"/>
    <path class="cls-3" d="M2137.3,100.46h-18.3c-9.11,0-16.5,7.39-16.5,16.51v20.76"/>
    <line class="cls-3" x1="2040.17" y1="78.83" x2="2121" y2="78.83"/>
    <line class="cls-3" x1="2080.34" y1="78.83" x2="2080.34" y2="137.73"/>
    <path class="cls-3" d="M2137.3,139.06v-57.9c0-17.3,7.32-36.6,7.32-36.6"/>
  </g>
  <g>
    <path class="cls-3" d="M86.14,356.96s-4.77-12.97-4.77-32.25v-7.92"/>
    <line class="cls-3" x1="65.02" y1="303.26" x2="134.98" y2="303.26"/>
    <path class="cls-3" d="M120.78,382.29h-55.77v-106.67c0-7.84,6.36-14.2,14.2-14.2h55.77v106.67c0,7.84-6.36,14.2-14.2,14.2Z"/>
  </g>
  <g>
    <line class="cls-3" x1="320" y1="254.48" x2="320" y2="389.23"/>
    <path class="cls-3" d="M374.6,275.17c0,6.38-5.17,11.55-11.55,11.55s-11.55-5.17-11.55-11.55,5.17-11.55,11.55-11.55,11.55,5.17,11.55,11.55Z"/>
    <path class="cls-3" d="M371.89,381.04v-37.28h11.75l-6.64-31.2c-1.4-6.59-7.22-11.3-13.95-11.3"/>
    <path class="cls-3" d="M349.07,381.04s5.34-9.36,5.34-18.69c0-6.45-.2-18.59-.2-18.59h-11.75l6.64-31.2c1.4-6.59,7.22-11.3,13.95-11.3"/>
    <path class="cls-3" d="M287.52,275.17c0,6.38-5.17,11.55-11.55,11.55s-11.55-5.17-11.55-11.55,5.17-11.55,11.55-11.55,11.55,5.17,11.55,11.55Z"/>
    <path class="cls-3" d="M284.81,381.04v-37.28h8.44v-28.22c0-7.88-6.39-14.27-14.27-14.27h-3.01"/>
    <path class="cls-3" d="M261.99,381.04s5.34-9.36,5.34-18.69c0-6.45-.2-18.59-.2-18.59h-8.44v-28.22c0-7.88,6.39-14.27,14.27-14.27h3.01"/>
  </g>
  <g>
    <path class="cls-3" d="M602.16,314.98c-21.65,0-39.17,17.53-39.17,39.17,0-21.65-17.55-39.17-39.17-39.17,21.63,0,39.17-17.55,39.17-39.17,0,21.63,17.53,39.17,39.17,39.17Z"/>
    <path class="cls-3" d="M541.5,355.13c-14.59,0-26.41,11.82-26.41,26.41,0-14.59-11.83-26.41-26.41-26.41,14.58,0,26.41-11.83,26.41-26.41,0,14.58,11.82,26.41,26.41,26.41Z"/>
    <path class="cls-3" d="M530.66,288.57c-14.59,0-26.41,11.82-26.41,26.41,0-14.59-11.83-26.41-26.41-26.41,14.58,0,26.41-11.83,26.41-26.41,0,14.58,11.82,26.41,26.41,26.41Z"/>
  </g>
  <g>
    <line class="cls-3" x1="704.29" y1="263.07" x2="704.29" y2="336.71"/>
    <g>
      <path class="cls-3" d="M704.29,288.64h83.4c8.42,0,15.25,6.83,15.25,15.25v29.18h-25.84v-18.17h-8.14c-3.54,0-7.05.64-10.37,1.89l-4.89,1.85c-6.18,2.34-12.98,2.52-19.27.51l-8.98-2.86c-2.88-.92-5.89-1.39-8.91-1.39h-12.25"/>
      <line class="cls-3" x1="756.29" y1="288.64" x2="756.29" y2="267.01"/>
      <path class="cls-3" d="M789.48,346.59s-10.88,9.59-10.88,24.14c0,6.01,4.87,10.88,10.88,10.88s10.88-4.87,10.88-10.88c0-14.55-10.88-24.14-10.88-24.14Z"/>
      <line class="cls-3" x1="734.96" y1="267.01" x2="778.26" y2="267.01"/>
    </g>
  </g>
  <g>
    <path class="cls-3" d="M1029.51,382.99s-17.67-13.73-17.67-38.69v-83.6h-66.79v21.14"/>
    <path class="cls-3" d="M932.36,281.85h25.39c4.56,0,8.26,3.7,8.26,8.26v27.44h-41.91v-27.44c0-4.56,3.7-8.26,8.26-8.26Z"/>
    <path class="cls-3" d="M917.23,363.1s6.88-9.68,6.88-19.12c0-4.81,0-8.64,0-13.66"/>
    <path class="cls-3" d="M937.37,370.34s6.88-9.68,6.88-19.12c0-4.81,0-15.88,0-20.9"/>
    <path class="cls-3" d="M958.22,363.1s6.88-9.68,6.88-19.12c0-4.81,0-8.64,0-13.66"/>
  </g>
  <g>
    <line class="cls-3" x1="1261.67" y1="296.39" x2="1261.67" y2="330.23"/>
    <path class="cls-3" d="M1143.43,298.78h9.53c9.07,0,16.43,7.36,16.43,16.43v5.3"/>
    <polyline class="cls-3" points="1143.43 319.82 1261.67 319.82 1261.67 365.02"/>
    <line class="cls-3" x1="1143.43" y1="342.3" x2="1261.67" y2="342.3"/>
    <path class="cls-3" d="M1143.43,365.02v-68.67c0-12.92-9.08-25.28-9.08-25.28"/>
  </g>
  <g>
    <g>
      <polyline class="cls-3" points="1396.99 308.97 1396.99 272.64 1360.67 272.64"/>
      <path class="cls-3" d="M1351.35,308.97c10.42-3.61,16.68-7.38,22.28-12.95l23.37-23.38"/>
    </g>
    <polyline class="cls-3" points="1379.34 387.89 1379.34 349.37 1415.65 349.37 1415.65 313.03 1451.97 313.03 1451.97 276.7 1488.29 276.7"/>
  </g>
  <g>
    <g>
      <polyline class="cls-3" points="1613 313.03 1576.67 313.03 1576.67 276.71"/>
      <path class="cls-3" d="M1613,267.39c-3.61,10.42-7.38,16.68-12.95,22.28l-23.38,23.37"/>
    </g>
    <polyline class="cls-3" points="1597.82 387.89 1597.82 349.37 1634.14 349.37 1634.14 313.03 1670.46 313.03 1670.46 276.7 1706.78 276.7"/>
  </g>
  <g>
    <path class="cls-3" d="M1810.61,323.74h42.74c7.83,0,14.19,6.36,14.19,14.19v42.74h-42.74c-7.83,0-14.19-6.36-14.19-14.19v-42.74h0Z"/>
    <path class="cls-3" d="M1867.01,351.15h20.76c16.01,0,28.99-12.97,28.99-28.96v-35.8h-16.41M1900.34,286.39c0,12.44-10.09,22.53-22.54,22.53s-22.54-10.09-22.54-22.53,10.09-22.53,22.54-22.53,22.54,10.09,22.54,22.53ZM1855.26,277.59h-46.16l-5.85,8.79,5.85,8.79h10.64l5.11-2.36,4.39,2.36h26.01"/>
  </g>
  <g>
    <g>
      <path class="cls-3" d="M2243.35,118.11h18.3c9.11,0,16.5,7.39,16.5,16.51v20.76"/>
      <path class="cls-3" d="M2243.35,156.71v-57.9c0-17.3-7.32-36.6-7.32-36.6"/>
      <path class="cls-3" d="M2357.3,118.11h-18.3c-9.11,0-16.5,7.39-16.5,16.51v20.76"/>
      <line class="cls-3" x1="2260.17" y1="96.48" x2="2341" y2="96.48"/>
      <line class="cls-3" x1="2300.34" y1="96.48" x2="2300.34" y2="155.38"/>
      <path class="cls-3" d="M2357.3,156.71v-57.9c0-17.3,7.32-36.6,7.32-36.6"/>
    </g>
    <path class="cls-3" d="M2345.21,47.56h-90.41s4.72-26.62,45.65-26.62,44.77,26.62,44.77,26.62Z"/>
    <line class="cls-3" x1="2300.34" y1="47.56" x2="2300.34" y2="83.51"/>
  </g>
  <g>
    <path class="cls-3" d="M2022.7,293.62h114.6v70.69h-96.75c-9.85,0-17.86-8-17.86-17.86v-52.83h0Z"/>
    <path class="cls-3" d="M2022.7,293.62l43.63,39.46c7.76,7.02,19.58,7.02,27.34,0l43.63-39.46"/>
  </g>
  <g>
    <path class="cls-3" d="M2243.25,388.18s9.08-12.37,9.08-25.28v-87.77h103.38v114.35"/>
    <polyline class="cls-3" points="2274.09 389.47 2274.09 307.03 2332.6 307.03 2332.6 389.47"/>
    <line class="cls-3" x1="2303.35" y1="307.03" x2="2303.35" y2="389.47"/>
    <line class="cls-3" x1="2288.51" y1="295.34" x2="2288.51" y2="287.28"/>
    <line class="cls-3" x1="2318.75" y1="295.34" x2="2318.75" y2="287.28"/>
    <line class="cls-3" x1="2303.53" y1="295.34" x2="2303.53" y2="287.28"/>
  </g>
  <g>
    <path class="cls-3" d="M2483.02,293.01h86.66v29.57c0,6.41-5.2,11.61-11.61,11.61h-86.66v-29.57c0-6.41,5.2-11.61,11.61-11.61Z"/>
    <line class="cls-3" x1="2484.18" y1="318.52" x2="2556.91" y2="318.52"/>
    <g>
      <path class="cls-3" d="M2517.09,383.69s7.47-14.46,7.47-36.39"/>
      <path class="cls-3" d="M2539.04,376.83c3.51-11.33,4.68-18.21,4.68-29.53"/>
      <path class="cls-3" d="M2498.96,375.97c4.15-8.81,6.15-17.35,6.15-28.67"/>
    </g>
  </g>
  <g>
    <path class="cls-3" d="M2478.87,67.57h82.25v61.41c0,7.05-5.72,12.77-12.77,12.77h-69.49v-74.18h0Z"/>
    <path class="cls-3" d="M2491.64,38.35h69.49v29.23h-82.25v-16.46c0-7.05,5.72-12.77,12.77-12.77Z"/>
    <circle class="cls-3" cx="2520" cy="103.14" r="20.04"/>
    <line class="cls-3" x1="2546.23" y1="56.99" x2="2546.23" y2="48.93"/>
    <line class="cls-3" x1="2531.02" y1="56.99" x2="2531.02" y2="48.93"/>
  </g>
  <g>
    <line class="cls-3" x1="81.94" y1="573.77" x2="118.06" y2="537.65"/>
    <path class="cls-3" d="M65.78,553.83h11.51c4.1,0,7.42,3.33,7.42,7.42v45.86h-11.51c-4.1,0-7.42-3.33-7.42-7.42v-45.86h0Z" transform="translate(-388.42 223.22) rotate(-45)"/>
    <path class="cls-3" d="M52.39,575.59h18.94v36.53h-11.51c-4.1,0-7.42-3.33-7.42-7.42v-29.11h0Z" transform="translate(-401.8 217.68) rotate(-45)"/>
    <path class="cls-3" d="M115.29,504.32h11.51c4.1,0,7.42,3.33,7.42,7.42v45.86h-11.51c-4.1,0-7.42-3.33-7.42-7.42v-45.86h0Z" transform="translate(588.42 818.19) rotate(135)"/>
    <path class="cls-3" d="M128.68,499.3h18.94v36.53h-11.51c-4.1,0-7.42-3.33-7.42-7.42v-29.11h0Z" transform="translate(601.8 785.86) rotate(135)"/>
  </g>
  <g>
    <path class="cls-3" d="M355.2,583.76l-10.08,18.58-25.12-20.73h24.23c15.99,0,28.96,12.97,28.96,28.96v12.49"/>
    <path class="cls-3" d="M284.8,583.76l10.08,18.58,25.12-20.73h-24.23c-15.99,0-28.96,12.97-28.96,28.96v12.49"/>
    <line class="cls-3" x1="338.91" y1="619.34" x2="354.28" y2="619.34"/>
    <line class="cls-3" x1="320" y1="581.61" x2="320" y2="623.06"/>
    <path class="cls-3" d="M294.78,519.47h50.43v28.06c0,10.95-8.89,19.84-19.84,19.84h-10.75c-10.95,0-19.84-8.89-19.84-19.84v-28.06h0Z"/>
    <path class="cls-3" d="M294.78,519.47s7.05,15.35,25.22,15.35,25.22-15.35,25.22-15.35"/>
    <polyline class="cls-3" points="345.22 522 352.57 507.56 320 494.26 286.31 507.56 294.78 522"/>
  </g>
  <g>
    <path class="cls-3" d="M517.44,624.94s5.34-9.36,5.34-18.69v-14.29"/>
    <g>
      <g>
        <line class="cls-3" x1="522.78" y1="591.96" x2="522.78" y2="546.36"/>
        <g>
          <line class="cls-3" x1="522.78" y1="505.92" x2="522.78" y2="546.36"/>
          <path class="cls-3" d="M537.31,505.92v31.52c0,4.93-3.99,8.92-8.92,8.92h-11.22c-4.93,0-8.92-3.99-8.92-8.92v-31.52"/>
        </g>
      </g>
      <path class="cls-3" d="M556.47,624.94v-115.34c4.71,0,15.28,2.02,15.28,22.2v32.95"/>
    </g>
  </g>
  <g>
    <polyline class="cls-3" points="766.01 608.31 812.86 561.46 766.03 514.61"/>
    <path class="cls-3" d="M707.14,549.45c18.1,8.78,28.61,11.98,43.01,12.01h62.7"/>
  </g>
  <g>
    <path class="cls-3" d="M1008.81,510.31s-6.88,9.68-6.88,19.12c0,4.81,0,6.24,0,11.26"/>
    <path class="cls-3" d="M986.88,504.95s-6.88,9.68-6.88,19.12c0,4.81,0,11.61,0,16.63"/>
    <path class="cls-3" d="M964.95,512.18s-6.88,9.68-6.88,19.12c0,4.81,0,4.37,0,9.39"/>
    <path class="cls-3" d="M1014.64,554.28h25.63v14.82c0,7.64-6.19,13.84-13.84,13.84h-11.8"/>
    <path class="cls-3" d="M936.27,554.28h78.37v29.98c0,15.08-12.25,27.33-27.33,27.33h-23.71c-15.08,0-27.33-12.25-27.33-27.33v-29.98h0Z"/>
    <line class="cls-3" x1="931.19" y1="611.59" x2="1019.72" y2="611.59"/>
  </g>
  <g>
    <path class="cls-3" d="M1141.46,524.49h104.91c6.72,0,12.17,5.45,12.17,12.17v53.32h-104.91c-6.72,0-12.17-5.45-12.17-12.17v-53.32h0Z"/>
    <line class="cls-3" x1="1200" y1="589.99" x2="1200" y2="607.37"/>
    <line class="cls-3" x1="1169.18" y1="607.37" x2="1230.82" y2="607.37"/>
    <line class="cls-3" x1="1258.54" y1="572.68" x2="1141.46" y2="572.68"/>
  </g>
  <g>
    <path class="cls-3" d="M1381.63,620.11v-.51c0-7.87,6.38-14.26,14.26-14.26h0c7.87,0,14.26,6.38,14.26,14.26v.51"/>
    <path class="cls-3" d="M1373.55,515.68s8.09,21.33,8.09,40.45v21.33h38.37"/>
    <line class="cls-3" x1="1395.3" y1="577.46" x2="1395.3" y2="605.34"/>
    <path class="cls-3" d="M1387.15,533.04h5.38c3.85,0,7.09,2.89,7.52,6.72l2.67,23.48h21.57c5.48,0,9.95,4.4,10.03,9.89l.65,45.27"/>
    <circle class="cls-3" cx="1399.68" cy="508.84" r="11"/>
    <path class="cls-3" d="M1424.26,535.57h19.19c5.2,0,9.84-3.26,11.61-8.14l9.68-26.75"/>
    <line class="cls-3" x1="1424.26" y1="549.61" x2="1466.45" y2="549.61"/>
    <line class="cls-3" x1="1452.94" y1="549.61" x2="1452.94" y2="616.89"/>
  </g>
  <g>
    <path class="cls-3" d="M1680.21,544.52c0-23.57-19.11-42.68-42.68-42.68s-42.68,19.11-42.68,42.68c0,46.1,42.68,76.54,42.68,76.54,0,0,42.68-30.45,42.68-76.54h0Z"/>
    <circle class="cls-3" cx="1637.54" cy="544.52" r="21.24"/>
  </g>
  <g>
    <line class="cls-3" x1="731.25" y1="775.44" x2="792.17" y2="775.44"/>
    <polyline class="cls-3" points="792.17 789.95 792.17 775.44 761.71 751.91 731.25 775.44 731.25 789.95"/>
    <path class="cls-3" d="M750.92,848.38v-31.55c0-5.96,4.83-10.79,10.79-10.79h0c5.96,0,10.79,4.83,10.79,10.79v31.55"/>
    <polyline class="cls-3" points="731.25 848.4 731.25 789.95 792.17 789.95 792.17 848.4"/>
    <path class="cls-3" d="M827.47,846.4s-3.64-8.82-3.64-17.25,0-39.2,0-39.2h-21.97"/>
    <path class="cls-3" d="M695.95,846.4s3.64-8.82,3.64-17.25,0-39.2,0-39.2h21.97"/>
    <line class="cls-3" x1="823.38" y1="791.06" x2="823.38" y2="779.68"/>
    <line class="cls-3" x1="700.04" y1="791.06" x2="700.04" y2="779.68"/>
  </g>
  <g>
    <line class="cls-3" x1="523.55" y1="782.06" x2="513.12" y2="762.96"/>
    <path class="cls-3" d="M475.83,850.02s8.43-10.41,8.43-19.92-.32-57.16-.32-57.16c0-9.54,7.73-17.27,17.27-17.27h29.26v26.87"/>
    <path class="cls-3" d="M530.47,755.66l-21.01,8.84c-6.41,2.69-10.57,8.97-10.57,15.92v69.6"/>
    <line class="cls-3" x1="555.75" y1="782.06" x2="566.18" y2="762.96"/>
    <path class="cls-3" d="M603.47,850.02s-8.43-10.41-8.43-19.92c0-9.52.32-57.16.32-57.16,0-9.54-7.73-17.27-17.27-17.27h-29.26s0,26.87,0,26.87"/>
    <path class="cls-3" d="M548.83,755.66l21.01,8.84c6.41,2.69,10.57,8.97,10.57,15.92v69.6"/>
    <path class="cls-3" d="M523.55,782.06h32.21v11.94c0,8.31-6.75,15.06-15.06,15.06h-2.08c-8.31,0-15.06-6.75-15.06-15.06v-11.94h0Z"/>
  </g>
  <g>
    <line class="cls-3" x1="1031.1" y1="745.39" x2="969.86" y2="787.73"/>
    <g>
      <path class="cls-3" d="M1040.65,846.28s-23.16-36.94-60.03-36.94-59.55,36.94-59.55,36.94"/>
      <path class="cls-3" d="M920.57,848.16c0-25.93,20.32-61.14,58.35-61.14s62.51,39.49,62.51,61.14"/>
    </g>
    <polyline class="cls-5" points="1005.42 794.21 1032.39 743.96 1032.39 821.12"/>
    <path class="cls-3" d="M960.56,847.35c0-10.38,8.42-18.8,18.8-18.8s18.8,8.42,18.8,18.8"/>
  </g>
  <g>
    <g>
      <path class="cls-1" d="M377.44,834.48l-10.74-77.83-12.01,63.47c7.86,4.22,15.44,9.08,22.76,14.35Z"/>
      <path class="cls-1" d="M348.54,817l-9.77-85.74-12.43,77.16c7.64,2.2,15.04,5.11,22.2,8.58Z"/>
      <path class="cls-1" d="M288.08,820.14l-12.01-63.48-10.75,77.84c7.32-5.28,14.9-10.14,22.76-14.36Z"/>
      <path class="cls-1" d="M316.42,808.43l-12.43-77.17-9.78,85.75c7.17-3.47,14.56-6.38,22.21-8.59Z"/>
    </g>
    <path class="cls-3" d="M261.81,855.26v-14.46c0-2.37,1.15-4.6,3.07-5.99,17.3-12.53,36.03-22.73,56.51-27.72,20.48,4.99,39.21,15.19,56.51,27.72,1.92,1.39,3.07,3.61,3.07,5.99v14.46"/>
    <path class="cls-3" d="M341.64,855.26s-1.46-20.17-20.26-27.16c-18.8,6.99-20.26,27.16-20.26,27.16"/>
  </g>
  <g>
    <line class="cls-3" x1="1803.25" y1="569.33" x2="1916.75" y2="569.33"/>
    <line class="cls-3" x1="1808.62" y1="621.67" x2="1911.38" y2="621.67"/>
    <g>
      <path class="cls-3" d="M1821.89,569.33v37.93c0,10.17-5.22,14.41-5.22,14.41"/>
      <path class="cls-3" d="M1841.12,569.33v37.93c0,10.17-5.22,14.41-5.22,14.41"/>
      <path class="cls-3" d="M1860.35,569.33v37.93c0,10.17-5.22,14.41-5.22,14.41"/>
      <path class="cls-3" d="M1879.58,569.33v37.93c0,10.17-5.22,14.41-5.22,14.41"/>
      <path class="cls-3" d="M1899.56,569.33v37.93c0,10.17-5.22,14.41-5.22,14.41"/>
    </g>
    <rect class="cls-3" x="1823.94" y="509.86" width="71.82" height="59.48"/>
    <rect class="cls-3" x="1840.31" y="527.59" width="39.09" height="41.75"/>
  </g>
  <g>
    <path class="cls-3" d="M1434.99,787.21l22.81,22.81,4.64,4.64c3.37,3.37,3.37,8.82,0,12.19h0c-3.37,3.37-8.82,3.37-12.19,0l-4.47-4.47"/>
    <path class="cls-3" d="M1395.23,735.53c0,12.32,7.17,19.1,7.17,19.1,1.8,1.8,4.22,4.22,8.46,8.46"/>
    <path class="cls-3" d="M1445.61,822.21l9.28,9.28c3.37,3.37,3.37,8.82,0,12.19h0c-3.37,3.37-8.82,3.37-12.19,0l-9.11-9.11"/>
    <path class="cls-3" d="M1433.42,834.4l5.26,5.26c3.37,3.37,3.37,8.82,0,12.19h0c-3.37,3.37-8.82,3.37-12.19,0l-5.1-5.1"/>
    <rect class="cls-3" x="1379.55" y="814.46" width="33.53" height="17.24" rx="8.12" ry="8.12" transform="translate(-173.03 1228.42) rotate(-45)"/>
    <rect class="cls-3" x="1368.81" y="805.75" width="23.7" height="17.24" rx="8.12" ry="8.12" transform="translate(-171.46 1214.79) rotate(-45)"/>
    <rect class="cls-3" x="1393.18" y="830.13" width="23.7" height="17.24" rx="8.12" ry="8.12" transform="translate(-181.56 1239.17) rotate(-45)"/>
    <rect class="cls-3" x="1406.24" y="844.42" width="17.76" height="17.24" rx="8.12" ry="8.12" transform="translate(-188.71 1250.49) rotate(-45)"/>
    <path class="cls-3" d="M1448.5,735.53c0,12.32-7.17,19.1-7.17,19.1-1.8,1.8-6.96,7.1-6.96,7.1h-22.15s-28.01,28.01-28.01,28.01c0,0,11.49,10.66,19.42,2.73l9.42-9.42s20.58,10,30.58,0l5.87-5.87"/>
    <line class="cls-3" x1="1487.75" y1="782.72" x2="1459.12" y2="811.35"/>
    <polyline class="cls-3" points="1350.58 779.73 1365.29 794.44 1372.28 810.56"/>
  </g>
  <g>
    <g>
      <path class="cls-3" d="M1658.57,762.89c0,9.63-7.81,17.44-17.43,17.44s-17.43-7.81-17.43-17.44,7.8-17.44,17.43-17.44,17.43,7.81,17.43,17.44Z"/>
      <path class="cls-3" d="M1667.21,860.24v-38.07c0-14.4-11.68-26.08-26.08-26.08h0"/>
      <path class="cls-3" d="M1641.13,796.09h0c-14.4,0-26.07,11.67-26.07,26.07v9.21c0,14.08-8.06,28.21-8.06,28.21"/>
    </g>
    <g>
      <path class="cls-3" d="M1696.79,769.9c0,7.25-5.88,13.13-13.13,13.13s-13.13-5.88-13.13-13.13,5.88-13.13,13.13-13.13,13.13,5.88,13.13,13.13Z"/>
      <path class="cls-3" d="M1703.3,845.13v-28.66c0-10.85-8.79-19.64-19.64-19.64h0"/>
      <path class="cls-3" d="M1683.67,796.83c-8.9,0-12.03,2.3-14.15,4.06"/>
    </g>
    <g>
      <path class="cls-3" d="M1584.79,770.04c0,7.25,5.88,13.13,13.13,13.13s13.13-5.88,13.13-13.13-5.88-13.13-13.13-13.13-13.13,5.88-13.13,13.13Z"/>
      <path class="cls-3" d="M1578.28,845.27v-28.66c0-10.85,8.79-19.64,19.64-19.64h0"/>
      <path class="cls-3" d="M1597.92,796.97c8.9,0,12.03,2.3,14.15,4.06"/>
    </g>
  </g>
  <g>
    <g>
      <path class="cls-3" d="M1898.01,793.39c0,6.48-5.25,11.74-11.73,11.74s-11.73-5.26-11.73-11.74,5.25-11.74,11.73-11.74,11.73,5.26,11.73,11.74Z"/>
      <path class="cls-3" d="M1903.83,858.91v-25.62c0-9.69-7.86-17.55-17.55-17.55h0"/>
      <path class="cls-3" d="M1886.27,815.73h0c-9.69,0-17.55,7.86-17.55,17.55v6.2c0,9.47-5.42,18.98-5.42,18.98"/>
    </g>
    <polyline class="cls-3" points="1795.67 784.18 1857.29 742.52 1918.91 784.18"/>
    <line class="cls-3" x1="1811.79" y1="791.45" x2="1811.79" y2="858.45"/>
    <path class="cls-3" d="M1867.02,781.64c-2.88-1.46-6.15-2.28-9.6-2.28h0c-11.77,0-21.32,9.54-21.32,21.32v57.77"/>
  </g>
  <g>
    <path class="cls-3" d="M2079.75,741.58h60.25v94.03c0,9.91-8.05,17.96-17.96,17.96h-60.25v-94.03c0-9.91,8.05-17.96,17.96-17.96Z"/>
    <circle class="cls-3" cx="2100.9" cy="765.68" r="10.13"/>
    <circle class="cls-3" cx="2100.9" cy="816.36" r="10.13"/>
    <circle class="cls-3" cx="2100.9" cy="816.36" r="23.81"/>
    <g>
      <path class="cls-3" d="M2049.87,779.78c-4.53,4.33-7.35,10.43-7.35,17.2s2.83,12.86,7.35,17.2"/>
      <path class="cls-3" d="M2038.2,770.53c-6.96,6.66-11.31,16.04-11.31,26.44s4.34,19.78,11.31,26.44"/>
      <path class="cls-3" d="M2026.53,761.29c-9.4,8.99-15.26,21.65-15.26,35.68s5.86,26.69,15.26,35.68"/>
    </g>
  </g>
  <g>
    <path class="cls-3" d="M2052.01,519.45h71.38v76.46c0,8.5-6.9,15.4-15.4,15.4h-71.38v-76.46c0-8.5,6.9-15.4,15.4-15.4Z"/>
    <rect class="cls-3" x="2053.06" y="535.05" width="53.87" height="32.01"/>
    <line class="cls-3" x1="2046.61" y1="627.8" x2="2060.48" y2="610.92"/>
    <line class="cls-3" x1="2113.39" y1="627.8" x2="2099.52" y2="610.92"/>
    <circle class="cls-3" cx="2061.54" cy="588.99" r="7.59"/>
    <circle class="cls-3" cx="2098.46" cy="588.99" r="7.59"/>
    <line class="cls-3" x1="2080" y1="517.91" x2="2080" y2="503.73"/>
    <line class="cls-3" x1="2056.33" y1="503.73" x2="2103.67" y2="503.73"/>
  </g>
  <g>
    <path class="cls-3" d="M2270.1,508.36h75.31v86.53c0,8.56-6.95,15.51-15.51,15.51h-75.31v-86.53c0-8.56,6.95-15.51,15.51-15.51Z"/>
    <rect class="cls-3" x="2271.81" y="534.95" width="56.37" height="31.21"/>
    <circle class="cls-3" cx="2280.58" cy="588.05" r="7.94"/>
    <circle class="cls-3" cx="2319.21" cy="588.05" r="7.94"/>
    <polyline class="cls-3" points="2265.41 610.39 2265.41 625.78 2279.22 625.78 2279.22 611.88"/>
    <polyline class="cls-3" points="2319.21 610.39 2319.21 625.78 2333.02 625.78 2333.02 611.88"/>
    <line class="cls-3" x1="2269.19" y1="522.03" x2="2330.42" y2="522.03"/>
  </g>
  <g>
    <circle class="cls-3" cx="49.78" cy="818.11" r="23.9"/>
    <circle class="cls-3" cx="142.84" cy="818.25" r="23.76"/>
    <path class="cls-3" d="M142.84,818.25l-13.26-63.85h14.37c9.4,0,9.55,12.14,9.55,12.14"/>
    <path class="cls-3" d="M132.09,770.2h-64.07l-18.19,47.93c-.02.05.03.11.09.1l44.8-2.91,6.38,14.98"/>
    <polyline class="cls-3" points="133.32 774.88 94.52 813.46 58.45 756.08"/>
    <line class="cls-3" x1="49" y1="754.4" x2="79.86" y2="754.4"/>
    <line class="cls-3" x1="89.97" y1="830.29" x2="110.41" y2="830.29"/>
  </g>
  <g>
    <path class="cls-3" d="M2455.94,528.85h62.15c51.52,0,66.56,29.08,66.56,42.05v28.85h-128.71"/>
    <polyline class="cls-3" points="2455.94 543.98 2511.95 543.98 2516.76 564.3 2455.94 564.3"/>
    <path class="cls-3" d="M2569.46,543.98h-33.84l2.67,11.79c1.13,4.99,5.57,8.53,10.68,8.53h35.38"/>
    <line class="cls-3" x1="2454.84" y1="624.87" x2="2586.8" y2="624.87"/>
    <path class="cls-3" d="M2509.77,603.11c0,8.57-6.95,15.52-15.52,15.52s-15.52-6.95-15.52-15.52"/>
    <path class="cls-3" d="M2540.81,603.11c0,8.57-6.95,15.52-15.52,15.52s-15.52-6.95-15.52-15.52"/>
    <path class="cls-3" d="M2571.84,603.11c0,8.57-6.95,15.52-15.52,15.52s-15.52-6.95-15.52-15.52"/>
    <line class="cls-3" x1="2477.4" y1="543.98" x2="2477.4" y2="564.3"/>
    <line class="cls-3" x1="2503.2" y1="528.85" x2="2503.2" y2="507.45"/>
    <line class="cls-3" x1="2455.94" y1="507.45" x2="2586.8" y2="507.45"/>
  </g>
  <g>
    <g>
      <path class="cls-3" d="M1228.71,770.83c0,8.11-6.57,14.69-14.68,14.69s-14.68-6.58-14.68-14.69,6.57-14.69,14.68-14.69,14.68,6.58,14.68,14.69Z"/>
      <path class="cls-3" d="M1236,849.54v-28.78c0-12.13-9.83-21.97-21.97-21.97h0"/>
      <path class="cls-3" d="M1214.03,798.79h0c-12.13,0-21.96,9.83-21.96,21.96v4.48c0,11.86-6.79,23.75-6.79,23.75"/>
    </g>
    <line class="cls-3" x1="1171" y1="770.83" x2="1171" y2="801.53"/>
    <line class="cls-3" x1="1155.65" y1="786.18" x2="1186.34" y2="786.18"/>
  </g>
  <g>
    <path class="cls-3" d="M2242.37,758.87h40.49c9.91,0,17.96,8.05,17.96,17.96v65.73h-40.49c-9.91,0-17.96-8.05-17.96-17.96v-65.73h0Z" transform="translate(4543.19 1601.43) rotate(180)"/>
    <line class="cls-3" x1="2256.79" y1="776.07" x2="2285.97" y2="776.07"/>
    <line class="cls-3" x1="2256.79" y1="787.9" x2="2285.97" y2="787.9"/>
    <line class="cls-3" x1="2256.79" y1="799.73" x2="2285.97" y2="799.73"/>
    <line class="cls-3" x1="2256.79" y1="811.55" x2="2285.97" y2="811.55"/>
    <line class="cls-3" x1="2256.79" y1="823.38" x2="2285.97" y2="823.38"/>
    <path class="cls-3" d="M2318.79,758.87h40.49v65.73c0,9.91-8.05,17.96-17.96,17.96h-40.49v-65.73c0-9.91,8.05-17.96,17.96-17.96Z"/>
    <line class="cls-3" x1="2344.85" y1="776.07" x2="2315.67" y2="776.07"/>
    <line class="cls-3" x1="2344.85" y1="787.9" x2="2315.67" y2="787.9"/>
    <line class="cls-3" x1="2344.85" y1="799.73" x2="2315.67" y2="799.73"/>
    <line class="cls-3" x1="2344.85" y1="811.55" x2="2315.67" y2="811.55"/>
    <line class="cls-3" x1="2344.85" y1="823.38" x2="2315.67" y2="823.38"/>
  </g>
  <g>
    <g>
      <path class="cls-10" d="M561.67,1042.04h35.64l-13.69,46.47c-2,6.8-8.24,11.47-15.33,11.47h-92.8l13.69-46.47c2-6.8,8.24-11.47,15.33-11.47h4.27"/>
      <line class="cls-10" x1="536.4" y1="1069.36" x2="528.58" y2="1099.98"/>
    </g>
    <line class="cls-10" x1="483.53" y1="1070.84" x2="590.65" y2="1070.84"/>
    <path class="cls-10" d="M574.26,1001.45c0-20.91-16.95-37.86-37.86-37.86s-37.86,16.95-37.86,37.86c0,40.9,37.86,67.91,37.86,67.91,0,0,37.86-27.01,37.86-67.91h0Z"/>
    <circle class="cls-10" cx="536.4" cy="1001.45" r="18.85"/>
  </g>
  <g>
    <polyline class="cls-3" points="1139.35 1071.56 1139.35 1088.02 1154.13 1088.02 1154.13 1073.15"/>
    <polyline class="cls-3" points="1245.87 1071.56 1245.87 1088.02 1260.65 1088.02 1260.65 1073.15"/>
    <path class="cls-3" d="M1160.93,1026.62h78.14c11.91,0,21.58,9.67,21.58,21.58v3.33h-121.29v-3.33c0-11.91,9.67-21.58,21.58-21.58Z"/>
    <path class="cls-3" d="M1139.35,1051.53v-56.81c0-6.98,5.66-12.63,12.63-12.63h108.66v96.01"/>
    <rect class="cls-3" x="1139.35" y="1051.53" width="121.29" height="18.76"/>
    <path class="cls-3" d="M1170.09,1007.66h19.74c5.61,0,10.17,4.56,10.17,10.17v8.79h-40.07v-8.79c0-5.61,4.56-10.17,10.17-10.17Z"/>
    <path class="cls-3" d="M1210.17,1007.66h19.74c5.61,0,10.17,4.56,10.17,10.17v8.79h-40.07v-8.79c0-5.61,4.56-10.17,10.17-10.17Z"/>
  </g>
  <g>
    <g>
      <polyline class="cls-3" points="1377.67 1071.56 1377.67 1088.02 1392.45 1088.02 1392.45 1073.15"/>
      <polyline class="cls-3" points="1447.55 1071.56 1447.55 1088.02 1462.33 1088.02 1462.33 1073.15"/>
      <path class="cls-3" d="M1399.25,1026.62h41.5c11.91,0,21.58,9.67,21.58,21.58v3.33h-84.65v-3.33c0-11.91,9.67-21.58,21.58-21.58Z"/>
      <path class="cls-3" d="M1377.67,1051.53v-56.81c0-6.98,5.66-12.63,12.63-12.63h72.02v96.01"/>
      <rect class="cls-3" x="1377.67" y="1051.53" width="84.65" height="18.76"/>
    </g>
    <path class="cls-3" d="M1410.13,1007.66h19.74c5.61,0,10.17,4.56,10.17,10.17v8.79h-40.07v-8.79c0-5.61,4.56-10.17,10.17-10.17Z"/>
  </g>
  <g>
    <g>
      <polyline class="cls-3" points="2274.31 1051.11 2300 1025.43 2274.32 999.74"/>
      <path class="cls-3" d="M2242.04,1018.84c9.92,4.82,17.01,6.57,24.91,6.59h33.05"/>
    </g>
    <polyline class="cls-3" points="2295.66 980.82 2324.89 980.82 2324.89 1070.03 2295.66 1070.03"/>
  </g>
  <g>
    <line class="cls-3" x1="2503.58" y1="832.06" x2="2498.83" y2="843.74"/>
    <line class="cls-3" x1="2535.34" y1="753.84" x2="2530.6" y2="765.52"/>
    <line class="cls-3" x1="2503.11" y1="765.71" x2="2498.21" y2="754.09"/>
    <line class="cls-3" x1="2535.97" y1="843.48" x2="2531.06" y2="831.87"/>
    <line class="cls-3" x1="2550.16" y1="784.82" x2="2561.78" y2="779.91"/>
    <line class="cls-3" x1="2472.39" y1="817.67" x2="2484.01" y2="812.76"/>
    <line class="cls-3" x1="2550.35" y1="812.3" x2="2562.04" y2="817.04"/>
    <line class="cls-3" x1="2472.13" y1="780.54" x2="2483.82" y2="785.28"/>
    <line class="cls-3" x1="2517.09" y1="762.88" x2="2517.09" y2="740.42"/>
    <line class="cls-3" x1="2517.09" y1="857.15" x2="2517.09" y2="834.69"/>
    <line class="cls-3" x1="2542.47" y1="773.4" x2="2558.36" y2="757.52"/>
    <line class="cls-3" x1="2475.82" y1="840.06" x2="2491.7" y2="824.18"/>
    <line class="cls-3" x1="2552.99" y1="798.79" x2="2575.45" y2="798.79"/>
    <line class="cls-3" x1="2458.72" y1="798.79" x2="2481.18" y2="798.79"/>
    <line class="cls-3" x1="2542.47" y1="824.18" x2="2558.36" y2="840.06"/>
    <line class="cls-3" x1="2475.82" y1="757.52" x2="2491.7" y2="773.4"/>
    <circle class="cls-3" cx="2517.09" cy="798.79" r="35.91"/>
  </g>
  <g>
    <rect class="cls-7" x="43.31" y="1054.77" width="113.37" height="17.54"/>
    <path class="cls-10" d="M100,962.78h0c23.8,0,43.12,19.32,43.12,43.12v48.87H56.88v-48.87c0-23.8,19.32-43.12,43.12-43.12Z"/>
    <g>
      <circle class="cls-7" cx="56.88" cy="1086.01" r="12.51"/>
      <circle class="cls-7" cx="143.12" cy="1086.01" r="12.51"/>
    </g>
    <g>
      <path class="cls-10" d="M74.87,997.16h35.23c8.3,0,15.03,6.74,15.03,15.03v42.58h-50.26v-57.62h0Z"/>
      <line class="cls-10" x1="96.24" y1="997.16" x2="96.24" y2="1054.77"/>
    </g>
  </g>
  <g>
    <path class="cls-3" d="M288.83,999.22v5.11h23.55v-6.62c0-5.22,4.23-9.46,9.46-9.46h0c5.22,0,9.46,4.23,9.46,9.46v30.46h-31.09c-6.28,0-11.38,5.09-11.38,11.38v53.95h53.71c6.28,0,11.38-5.09,11.38-11.38v-82.91c0-17.97-14.57-32.55-32.55-32.55h0c-17.97,0-32.55,14.57-32.55,32.55Z"/>
    <line class="cls-3" x1="303.32" y1="1051.23" x2="336.75" y2="1051.23"/>
    <line class="cls-3" x1="303.32" y1="1066.2" x2="336.75" y2="1066.2"/>
  </g>
  <g>
    <path class="cls-3" d="M720.58,1014.68h82.25v61.41c0,7.05-5.72,12.77-12.77,12.77h-69.49v-74.18h0Z"/>
    <path class="cls-3" d="M733.35,985.46h69.49v29.23h-82.25v-16.46c0-7.05,5.72-12.77,12.77-12.77Z"/>
    <line class="cls-3" x1="787.94" y1="1004.1" x2="787.94" y2="996.04"/>
    <line class="cls-3" x1="772.72" y1="1004.1" x2="772.72" y2="996.04"/>
    <rect class="cls-3" x="738.7" y="1032.94" width="46.01" height="35.69"/>
  </g>
  <g>
    <path class="cls-10" d="M961.59,991.27h0c15.61,0,28.28,12.67,28.28,28.28v67.46h-56.55v-67.46c0-15.61,12.67-28.28,28.28-28.28Z"/>
    <line class="cls-10" x1="933.32" y1="1021.53" x2="989.87" y2="1021.53"/>
    <path class="cls-10" d="M961.59,991.27h0c0-14.46,11.72-26.17,26.17-26.17h1.77c14.46,0,26.17,11.72,26.17,26.17v27.68"/>
    <polygon class="cls-10" points="1026.68 1087.01 1004.75 1087.01 1008.48 1018.95 1020.68 1018.95 1026.68 1087.01"/>
    <path class="cls-10" d="M973.01,1059.08c0,6.34-5.14,11.49-11.49,11.49s-11.49-5.14-11.49-11.49c0-14.44,11.49-23.69,11.49-23.69,0,0,11.49,10.44,11.49,23.69Z"/>
  </g>
  <g>
    <path class="cls-9" d="M1592.59,988.66h107.14v80.47c0,6.8-5.52,12.33-12.33,12.33h-107.14v-80.47c0-6.8,5.52-12.33,12.33-12.33Z"/>
    <rect class="cls-11" x="1595.79" y="1004.02" width="88.42" height="62.06"/>
    <line class="cls-11" x1="1610.33" y1="1020.89" x2="1640.79" y2="1051.34"/>
    <line class="cls-11" x1="1610.33" y1="1051.34" x2="1640.79" y2="1020.89"/>
  </g>
  <g>
    <line class="cls-10" x1="1836.47" y1="1087.21" x2="1883.89" y2="1087.21"/>
    <polygon class="cls-10" points="1870.57 1086.96 1849.69 1086.96 1852.24 1058.78 1860.18 1059.07 1867.96 1059.07 1870.57 1086.96"/>
    <path class="cls-10" d="M1825.48,1020.72h61.16c4.36,0,7.89,3.54,7.89,7.89v5.83h-61.16c-4.36,0-7.89-3.54-7.89-7.89v-5.83h0Z"/>
    <path class="cls-10" d="M1829.83,1034.43c2.94,14.07,15.41,24.64,30.35,24.64s27.41-10.57,30.35-24.64h-60.7Z"/>
    <path class="cls-10" d="M1835.98,972.98h36.03c6.46,0,11.7,5.24,11.7,11.7v36.03h-47.74v-47.74h0Z"/>
  </g>
  <g>
    <circle class="cls-10" cx="2074.54" cy="1022.12" r="37"/>
    <line class="cls-10" x1="2101.94" y1="1049.52" x2="2122.46" y2="1070.03"/>
  </g>
  <polygon class="cls-3" points="2520 965.8 2538.31 1002.89 2579.24 1008.84 2549.62 1037.71 2556.61 1078.48 2520 1059.23 2483.39 1078.48 2490.38 1037.71 2460.76 1008.84 2501.69 1002.89 2520 965.8"/>
  <g>
    <path class="cls-2" d="M134.05,1244.99v43.21l-7.51,13.03v21.65h-46.78v-21.87l-11.35-16.72c-1.61-2.36-2.46-5.16-2.46-8.02v-19.66c0-3.31,2.68-5.98,5.98-5.98h29.59c.02,14.47-23.89,15.87-23.89,15.87,0,0,25.97,3.07,25.97,23.25"/>
    <path class="cls-2" d="M80.58,1201.8h0c4.41,0,8,3.58,8,8v40.85h-15.99v-40.85c0-4.41,3.58-8,8-8Z"/>
    <rect class="cls-2" x="103.61" y="1235.04" width="15.18" height="30.08" rx="7.59" ry="7.59"/>
    <rect class="cls-2" x="118.78" y="1235.04" width="15.18" height="30.08" rx="7.59" ry="7.59"/>
    <path class="cls-2" d="M88.58,1250.65v-8.02c0-4.19,3.4-7.59,7.59-7.59h0c4.19,0,7.59,3.4,7.59,7.59v14.9c0,4.19-3.4,7.59-7.59,7.59h0c-1.86,0-3.56-.67-4.88-1.77"/>
  </g>
  <g>
    <g>
      <path class="cls-2" d="M248.17,1207.89h71.83v103.11c0,10.02-8.14,18.16-18.16,18.16h-53.67v-121.28h0Z" transform="translate(568.17 2537.05) rotate(180)"/>
      <path class="cls-2" d="M320,1207.89h71.83v103.11c0,10.02-8.14,18.16-18.16,18.16h-53.67v-121.28h0Z"/>
    </g>
    <path class="cls-2" d="M344.44,1285.43s-4.02-10.91-4.02-27.13v-6.66"/>
    <path class="cls-2" d="M295.47,1285.43s4.02-10.91,4.02-27.13v-6.66"/>
  </g>
  <g>
    <path class="cls-4" d="M570.48,1330.81h-85.39v-96.84c0-13.5,10.94-24.44,24.44-24.44h85.39v96.84c0,13.5-10.94,24.44-24.44,24.44Z"/>
    <line class="cls-4" x1="540" y1="1213.55" x2="540" y2="1330.81"/>
    <line class="cls-4" x1="481.37" y1="1270.17" x2="598.63" y2="1270.17"/>
  </g>
  <g>
    <path class="cls-4" d="M792.19,1266.77c0,9.55-3.97,18.16-10.36,24.29-4.63,4.45-7.13,10.68-7.13,17.11v8.49h-32.4v-8.58c0-6.48-2.65-12.66-7.29-17.17-6.63-6.46-10.61-15.62-10.15-25.71.79-17.26,14.79-31.27,32.05-32.07,19.32-.89,35.27,14.51,35.27,33.65Z"/>
    <line class="cls-4" x1="737.79" y1="1332.47" x2="778.81" y2="1332.47"/>
    <line class="cls-4" x1="758.49" y1="1218" x2="758.49" y2="1198.23"/>
    <line class="cls-4" x1="722.71" y1="1233.02" x2="708.73" y2="1219.05"/>
    <line class="cls-4" x1="708.03" y1="1268.95" x2="688.27" y2="1268.95"/>
    <line class="cls-4" x1="723.06" y1="1304.73" x2="709.08" y2="1318.71"/>
    <line class="cls-4" x1="794.77" y1="1304.39" x2="808.75" y2="1318.36"/>
    <line class="cls-4" x1="809.45" y1="1268.46" x2="829.21" y2="1268.46"/>
    <line class="cls-4" x1="794.42" y1="1232.68" x2="808.4" y2="1218.7"/>
  </g>
  <g>
    <path class="cls-8" d="M1001.32,1305.53c0,15.93-13.78,28.64-30.08,26.85-12.35-1.36-22.36-11.35-23.75-23.7-1.29-11.44,4.55-21.66,13.65-26.74v-66.24c0-7.27,5.9-13.17,13.17-13.17s13.16,5.89,13.16,13.17v66.24c8.25,4.61,13.85,13.44,13.85,23.59Z"/>
    <line class="cls-8" x1="974.31" y1="1215.15" x2="974.31" y2="1290.52"/>
    <path class="cls-8" d="M987.56,1305.22c0,7.32-5.93,13.25-13.25,13.25s-13.25-5.93-13.25-13.25,5.93-13.25,13.25-13.25,13.25,5.93,13.25,13.25Z"/>
    <line class="cls-8" x1="997.81" y1="1221.59" x2="1016.34" y2="1221.59"/>
    <line class="cls-8" x1="997.81" y1="1236.45" x2="1009.6" y2="1236.45"/>
    <line class="cls-8" x1="997.81" y1="1251.84" x2="1016.34" y2="1251.84"/>
    <line class="cls-8" x1="997.81" y1="1266.7" x2="1009.6" y2="1266.7"/>
  </g>
  <g>
    <path class="cls-10" d="M1248.28,1242.41v85.34h-67.15c-15.1,0-27.34-12.24-27.34-27.34v-91.1h61.37l33.12,33.1Z"/>
    <polyline class="cls-10" points="1215.16 1209.31 1215.16 1241.99 1248.28 1241.99"/>
    <line class="cls-10" x1="1169.71" y1="1257.38" x2="1231.72" y2="1257.38"/>
    <line class="cls-10" x1="1169.71" y1="1241.15" x2="1202" y2="1241.15"/>
    <line class="cls-10" x1="1169.71" y1="1273.29" x2="1231.72" y2="1273.29"/>
    <line class="cls-10" x1="1169.71" y1="1289.2" x2="1231.72" y2="1289.2"/>
  </g>
  <g>
    <rect class="cls-10" x="1395.12" y="1252.14" width="49.77" height="17.33" rx="7.94" ry="7.94"/>
    <rect class="cls-10" x="1395.12" y="1269.47" width="49.77" height="17.33" rx="7.94" ry="7.94"/>
    <path class="cls-10" d="M1444.88,1335.32h-34.29c-8.54,0-15.47-6.93-15.47-15.47v-23.74c0-4.84,3.93-8.77,8.77-8.77h32.22c4.84,0,8.77,3.93,8.77,8.77v39.21Z"/>
    <path class="cls-10" d="M1435.87,1252.14h-31.75c-4.98,0-9.01-4.03-9.01-9.01v-4.97c0-2.63,1.05-5.14,2.93-6.99l10.18-10.03h23.56l10.18,10.03c1.87,1.85,2.93,4.36,2.93,6.99v4.97c0,4.98-4.03,9.01-9.01,9.01Z"/>
    <path class="cls-10" d="M1431.78,1221.14h-23.56v-10.81c0-2.5,2.02-4.52,4.52-4.52h14.51c2.5,0,4.52,2.02,4.52,4.52v10.81Z"/>
  </g>
  <g>
    <path class="cls-10" d="M1668.33,1331.38h-55.07s1.76-21.7,27.53-21.7,27.53,21.7,27.53,21.7Z"/>
    <path class="cls-10" d="M1611.74,1209.53h58.09s28.78,82.35-29.05,82.35-29.05-82.35-29.05-82.35Z"/>
    <line class="cls-10" x1="1640.79" y1="1291.88" x2="1640.79" y2="1309.68"/>
  </g>
  <g>
    <line class="cls-10" x1="1824.54" y1="1305.71" x2="1888.81" y2="1241.45"/>
    <path class="cls-10" d="M1863.38,1222.59c12.23-12.23,37.37-17.55,49.6-5.32,12.23,12.23,6.91,37.37-5.32,49.6-12.2-17.12-27.16-32.08-44.28-44.28Z"/>
    <line class="cls-10" x1="1851.84" y1="1234.4" x2="1895.85" y2="1278.41"/>
    <line class="cls-10" x1="1836.72" y1="1243.39" x2="1886.87" y2="1293.53"/>
    <line class="cls-10" x1="1827.74" y1="1258.5" x2="1871.75" y2="1302.52"/>
    <path class="cls-10" d="M1838.88,1288.96s-24.92-12.05-43.32,1.83c0,0,10.96,10.54,30.07,14.3"/>
    <path class="cls-10" d="M1841.29,1291.37s12.05,24.92-1.83,43.32c0,0-10.54-10.96-14.3-30.07"/>
  </g>
  <g>
    <path class="cls-10" d="M2041.78,1282.56h27.49l-7.08,30.5h-26.31c-8.34,0-15.09-6.75-15.09-15.09v-60.43h58.01l-37.02,45.02Z"/>
    <path class="cls-10" d="M2145.22,1258.98v32.63h-13.63v21.44h-61.63l43.74-48.09h-27.49l3.13-27.42h27.16c8.34,0,15.09,6.75,15.09,15.09v6.35h13.63Z"/>
    <polygon class="cls-10" points="2113.71 1264.96 2069.97 1313.05 2059.52 1324.54 2062.19 1313.05 2069.27 1282.56 2041.78 1282.56 2078.79 1237.54 2091.05 1222.62 2089.35 1237.54 2086.22 1264.96 2113.71 1264.96"/>
  </g>
</svg>