<?xml version="1.0" encoding="UTF-8"?>
<svg id="iconos" xmlns="http://www.w3.org/2000/svg" viewBox="0 0 200 200">
  <defs>
    <style>
      .cls-1 {
        fill: none;
        stroke: #f4f1ee;
        stroke-miterlimit: 10;
        stroke-width: 8.25px;
      }
    </style>
  </defs>
  <rect class="cls-1" x="75.12" y="81.97" width="49.77" height="17.33" rx="7.94" ry="7.94"/>
  <rect class="cls-1" x="75.12" y="99.3" width="49.77" height="17.33" rx="7.94" ry="7.94"/>
  <path class="cls-1" d="M124.88,165.15h-34.29c-8.54,0-15.47-6.93-15.47-15.47v-23.74c0-4.84,3.93-8.77,8.77-8.77h32.22c4.84,0,8.77,3.93,8.77,8.77v39.21Z"/>
  <path class="cls-1" d="M115.87,81.97h-31.75c-4.98,0-9.01-4.03-9.01-9.01v-4.97c0-2.63,1.05-5.14,2.93-6.99l10.18-10.03h23.56l10.18,10.03c1.87,1.85,2.93,4.36,2.93,6.99v4.97c0,4.98-4.03,9.01-9.01,9.01Z"/>
  <path class="cls-1" d="M111.78,50.97h-23.56v-10.81c0-2.5,2.02-4.52,4.52-4.52h14.51c2.5,0,4.52,2.02,4.52,4.52v10.81Z"/>
</svg>