<?xml version="1.0" encoding="UTF-8"?>
<svg id="iconos" xmlns="http://www.w3.org/2000/svg" viewBox="0 0 200 200">
  <defs>
    <style>
      .cls-1 {
        fill: none;
        stroke: #000;
        stroke-miterlimit: 10;
        stroke-width: 8px;
      }
    </style>
  </defs>
  <path class="cls-1" d="M162.16,81.93c-21.65,0-39.17,17.53-39.17,39.17,0-21.65-17.55-39.17-39.17-39.17,21.63,0,39.17-17.55,39.17-39.17,0,21.63,17.53,39.17,39.17,39.17Z"/>
  <path class="cls-1" d="M101.5,122.08c-14.59,0-26.41,11.82-26.41,26.41,0-14.59-11.83-26.41-26.41-26.41,14.58,0,26.41-11.83,26.41-26.41,0,14.58,11.82,26.41,26.41,26.41Z"/>
  <path class="cls-1" d="M90.66,55.53c-14.59,0-26.41,11.82-26.41,26.41,0-14.59-11.83-26.41-26.41-26.41,14.58,0,26.41-11.83,26.41-26.41,0,14.58,11.82,26.41,26.41,26.41Z"/>
</svg>