<?xml version="1.0" encoding="UTF-8"?>
<svg id="iconos" xmlns="http://www.w3.org/2000/svg" viewBox="0 0 200 200">
  <defs>
    <style>
      .cls-1 {
        fill: none;
        stroke: #f4f1ee;
        stroke-miterlimit: 10;
        stroke-width: 7.42px;
      }
    </style>
  </defs>
  <path class="cls-1" d="M121.32,135.36c0,15.93-13.78,28.64-30.08,26.85-12.35-1.36-22.36-11.35-23.75-23.7-1.29-11.44,4.55-21.66,13.65-26.74V45.54c0-7.27,5.9-13.17,13.17-13.17s13.16,5.89,13.16,13.17v66.24c8.25,4.61,13.85,13.44,13.85,23.59Z"/>
  <line class="cls-1" x1="94.31" y1="44.98" x2="94.31" y2="120.35"/>
  <path class="cls-1" d="M107.56,135.05c0,7.32-5.93,13.25-13.25,13.25s-13.25-5.93-13.25-13.25,5.93-13.25,13.25-13.25,13.25,5.93,13.25,13.25Z"/>
  <line class="cls-1" x1="117.81" y1="51.42" x2="136.34" y2="51.42"/>
  <line class="cls-1" x1="117.81" y1="66.28" x2="129.6" y2="66.28"/>
  <line class="cls-1" x1="117.81" y1="81.67" x2="136.34" y2="81.67"/>
  <line class="cls-1" x1="117.81" y1="96.53" x2="129.6" y2="96.53"/>
</svg>