<?xml version="1.0" encoding="UTF-8"?>
<svg id="iconos" xmlns="http://www.w3.org/2000/svg" viewBox="0 0 200 200">
  <defs>
    <style>
      .cls-1 {
        fill: none;
        stroke: #f4f1ee;
        stroke-miterlimit: 10;
        stroke-width: 8px;
      }
    </style>
  </defs>
  <path class="cls-1" d="M135.2,116.87l-10.08,18.58-25.12-20.73h24.23c15.99,0,28.96,12.97,28.96,28.96v12.49"/>
  <path class="cls-1" d="M64.8,116.87l10.08,18.58,25.12-20.73h-24.23c-15.99,0-28.96,12.97-28.96,28.96v12.49"/>
  <line class="cls-1" x1="118.91" y1="152.45" x2="134.28" y2="152.45"/>
  <line class="cls-1" x1="100" y1="114.73" x2="100" y2="156.18"/>
  <path class="cls-1" d="M74.78,52.59h50.43v28.06c0,10.95-8.89,19.84-19.84,19.84h-10.75c-10.95,0-19.84-8.89-19.84-19.84v-28.06h0Z"/>
  <path class="cls-1" d="M74.78,52.59s7.05,15.35,25.22,15.35,25.22-15.35,25.22-15.35"/>
  <polyline class="cls-1" points="125.22 55.12 132.57 40.68 100 27.37 66.31 40.68 74.78 55.12"/>
</svg>