<?xml version="1.0" encoding="UTF-8"?>
<svg id="iconos" xmlns="http://www.w3.org/2000/svg" viewBox="0 0 200 200">
  <defs>
    <style>
      .cls-1 {
        fill: none;
        stroke: #f4f1ee;
        stroke-miterlimit: 10;
        stroke-width: 8px;
      }
    </style>
  </defs>
  <path class="cls-1" d="M114.99,86.49l22.81,22.81,4.64,4.64c3.37,3.37,3.37,8.82,0,12.19h0c-3.37,3.37-8.82,3.37-12.19,0l-4.47-4.47"/>
  <path class="cls-1" d="M75.23,34.81c0,12.32,7.17,19.1,7.17,19.1,1.8,1.8,4.22,4.22,8.46,8.46"/>
  <path class="cls-1" d="M125.61,121.5l9.28,9.28c3.37,3.37,3.37,8.82,0,12.19h0c-3.37,3.37-8.82,3.37-12.19,0l-9.11-9.11"/>
  <path class="cls-1" d="M113.42,133.69l5.26,5.26c3.37,3.37,3.37,8.82,0,12.19h0c-3.37,3.37-8.82,3.37-12.19,0l-5.1-5.1"/>
  <rect class="cls-1" x="59.55" y="113.74" width="33.53" height="17.24" rx="8.12" ry="8.12" transform="translate(-64.17 89.81) rotate(-45)"/>
  <rect class="cls-1" x="48.81" y="105.03" width="23.7" height="17.24" rx="8.12" ry="8.12" transform="translate(-62.6 76.18) rotate(-45)"/>
  <rect class="cls-1" x="73.18" y="129.41" width="23.7" height="17.24" rx="8.12" ry="8.12" transform="translate(-72.7 100.56) rotate(-45)"/>
  <rect class="cls-1" x="86.24" y="143.7" width="17.76" height="17.24" rx="8.12" ry="8.12" transform="translate(-79.85 111.87) rotate(-45)"/>
  <path class="cls-1" d="M128.5,34.81c0,12.32-7.17,19.1-7.17,19.1-1.8,1.8-6.96,7.1-6.96,7.1h-22.15s-28.01,28.01-28.01,28.01c0,0,11.49,10.66,19.42,2.73l9.42-9.42s20.58,10,30.58,0l5.87-5.87"/>
  <line class="cls-1" x1="167.75" y1="82.01" x2="139.12" y2="110.63"/>
  <polyline class="cls-1" points="30.58 79.02 45.29 93.72 52.28 109.84"/>
</svg>