<?xml version="1.0" encoding="UTF-8"?>
<svg id="iconos" xmlns="http://www.w3.org/2000/svg" viewBox="0 0 200 200">
  <defs>
    <style>
      .cls-1 {
        fill: none;
        stroke: #f4f1ee;
        stroke-miterlimit: 10;
        stroke-width: 8px;
      }
    </style>
  </defs>
  <path class="cls-1" d="M76.67,51.11c7.34-4.78,16.11-7.55,25.52-7.55,9.24,0,17.86,2.68,25.12,7.3"/>
  <path class="cls-1" d="M77.87,130.45c-11.28-6.86-19.43-18.36-21.81-31.84"/>
  <path class="cls-1" d="M148.22,99.19c-2.4,12.63-9.86,23.47-20.21,30.31"/>
  <g>
    <path class="cls-1" d="M156.33,34.09c0,5.24-4.25,9.49-9.48,9.49s-9.48-4.25-9.48-9.49,4.24-9.49,9.48-9.49,9.48,4.25,9.48,9.49Z"/>
    <path class="cls-1" d="M161.04,90.4v-23.17c0-6.47-5.24-11.72-11.71-11.72h-2.47"/>
    <path class="cls-1" d="M146.85,55.51h-2.47c-6.47,0-11.71,5.25-11.71,11.72v7.47c0,7.66-4.38,15.34-4.38,15.34"/>
  </g>
  <g>
    <path class="cls-1" d="M67.01,34.09c0,5.24-4.25,9.49-9.48,9.49s-9.48-4.25-9.48-9.49,4.24-9.49,9.48-9.49,9.48,4.25,9.48,9.49Z"/>
    <path class="cls-1" d="M71.72,90.4v-23.17c0-6.47-5.24-11.72-11.71-11.72h-2.47"/>
    <path class="cls-1" d="M57.53,55.51h-2.47c-6.47,0-11.71,5.25-11.71,11.72v7.47c0,7.66-4.38,15.34-4.38,15.34"/>
  </g>
  <g>
    <path class="cls-1" d="M111.67,102.86c0,5.24-4.25,9.49-9.48,9.49s-9.48-4.25-9.48-9.49,4.24-9.49,9.48-9.49,9.48,4.25,9.48,9.49Z"/>
    <path class="cls-1" d="M116.37,159.18v-23.17c0-6.47-5.24-11.72-11.71-11.72h-2.47"/>
    <path class="cls-1" d="M102.19,124.29h-2.47c-6.47,0-11.71,5.25-11.71,11.72v7.47c0,7.66-4.38,15.34-4.38,15.34"/>
  </g>
</svg>