<?xml version="1.0" encoding="UTF-8"?>
<svg id="iconos" xmlns="http://www.w3.org/2000/svg" viewBox="0 0 200 200">
  <defs>
    <style>
      .cls-1 {
        fill: none;
        stroke: #000;
        stroke-miterlimit: 10;
        stroke-width: 8px;
      }
    </style>
  </defs>
  <path class="cls-1" d="M50.61,90.7h42.74c7.83,0,14.19,6.36,14.19,14.19v42.74h-42.74c-7.83,0-14.19-6.36-14.19-14.19v-42.74h0Z"/>
  <path class="cls-1" d="M107.01,118.11h20.76c16.01,0,28.99-12.97,28.99-28.96v-35.8h-16.41M140.34,53.34c0,12.44-10.09,22.53-22.54,22.53s-22.54-10.09-22.54-22.53,10.09-22.53,22.54-22.53,22.54,10.09,22.54,22.53ZM95.26,44.55h-46.16l-5.85,8.79,5.85,8.79h10.64l5.11-2.36,4.39,2.36h26.01"/>
</svg>