<?xml version="1.0" encoding="UTF-8"?>
<svg id="iconos" xmlns="http://www.w3.org/2000/svg" viewBox="0 0 200 200">
  <defs>
    <style>
      .cls-1 {
        fill: none;
        stroke: #f4f1ee;
        stroke-miterlimit: 10;
        stroke-width: 8px;
      }
    </style>
  </defs>
  <line class="cls-1" x1="71.25" y1="74.72" x2="132.17" y2="74.72"/>
  <polyline class="cls-1" points="132.17 89.23 132.17 74.72 101.71 51.19 71.25 74.72 71.25 89.23"/>
  <path class="cls-1" d="M90.92,147.67v-31.55c0-5.96,4.83-10.79,10.79-10.79h0c5.96,0,10.79,4.83,10.79,10.79v31.55"/>
  <polyline class="cls-1" points="71.25 147.69 71.25 89.23 132.17 89.23 132.17 147.69"/>
  <path class="cls-1" d="M167.47,145.69s-3.64-8.82-3.64-17.25,0-39.2,0-39.2h-21.97"/>
  <path class="cls-1" d="M35.95,145.69s3.64-8.82,3.64-17.25,0-39.2,0-39.2h21.97"/>
  <line class="cls-1" x1="163.38" y1="90.35" x2="163.38" y2="78.96"/>
  <line class="cls-1" x1="40.04" y1="90.35" x2="40.04" y2="78.96"/>
</svg>