<?xml version="1.0" encoding="UTF-8"?>
<svg id="iconos" xmlns="http://www.w3.org/2000/svg" viewBox="0 0 200 200">
  <defs>
    <style>
      .cls-1 {
        fill: none;
        stroke: #f4f1ee;
        stroke-miterlimit: 10;
        stroke-width: 8px;
      }
    </style>
  </defs>
  <path class="cls-1" d="M35.94,61.97h62.15c51.52,0,66.56,29.08,66.56,42.05v28.85H35.94"/>
  <polyline class="cls-1" points="35.94 77.1 91.95 77.1 96.76 97.42 35.94 97.42"/>
  <path class="cls-1" d="M149.46,77.1h-33.84l2.67,11.79c1.13,4.99,5.57,8.53,10.68,8.53h35.38"/>
  <line class="cls-1" x1="34.84" y1="157.99" x2="166.8" y2="157.99"/>
  <path class="cls-1" d="M89.77,136.22c0,8.57-6.95,15.52-15.52,15.52s-15.52-6.95-15.52-15.52"/>
  <path class="cls-1" d="M120.81,136.22c0,8.57-6.95,15.52-15.52,15.52s-15.52-6.95-15.52-15.52"/>
  <path class="cls-1" d="M151.84,136.22c0,8.57-6.95,15.52-15.52,15.52s-15.52-6.95-15.52-15.52"/>
  <line class="cls-1" x1="57.4" y1="77.1" x2="57.4" y2="97.42"/>
  <line class="cls-1" x1="83.2" y1="61.97" x2="83.2" y2="40.56"/>
  <line class="cls-1" x1="35.94" y1="40.56" x2="166.8" y2="40.56"/>
</svg>