<?xml version="1.0" encoding="UTF-8"?>
<svg id="iconos" xmlns="http://www.w3.org/2000/svg" viewBox="0 0 200 200">
  <defs>
    <style>
      .cls-1 {
        fill: none;
        stroke: #f4f1ee;
        stroke-miterlimit: 10;
        stroke-width: 8px;
      }
    </style>
  </defs>
  <line class="cls-1" x1="81.94" y1="106.89" x2="118.06" y2="70.77"/>
  <path class="cls-1" d="M65.78,86.94h11.51c4.1,0,7.42,3.33,7.42,7.42v45.86h-11.51c-4.1,0-7.42-3.33-7.42-7.42v-45.86h0Z" transform="translate(-58.28 86.47) rotate(-45)"/>
  <path class="cls-1" d="M52.39,108.71h18.94v36.53h-11.51c-4.1,0-7.42-3.33-7.42-7.42v-29.11h0Z" transform="translate(-71.67 80.93) rotate(-45)"/>
  <path class="cls-1" d="M115.29,37.43h11.51c4.1,0,7.42,3.33,7.42,7.42v45.86h-11.51c-4.1,0-7.42-3.33-7.42-7.42v-45.86h0Z" transform="translate(258.28 21.17) rotate(135)"/>
  <path class="cls-1" d="M128.68,32.42h18.94v36.53h-11.51c-4.1,0-7.42-3.33-7.42-7.42v-29.11h0Z" transform="translate(271.67 -11.16) rotate(135)"/>
</svg>