<?xml version="1.0" encoding="UTF-8"?>
<svg id="iconos" xmlns="http://www.w3.org/2000/svg" viewBox="0 0 200 200">
  <defs>
    <style>
      .cls-1 {
        fill: none;
        stroke: #000;
        stroke-miterlimit: 10;
        stroke-width: 8px;
      }
    </style>
  </defs>
  <path class="cls-1" d="M42.37,58.15h40.49c9.91,0,17.96,8.05,17.96,17.96v65.73h-40.49c-9.91,0-17.96-8.05-17.96-17.96V58.15h0Z" transform="translate(143.19 200) rotate(180)"/>
  <line class="cls-1" x1="56.79" y1="75.36" x2="85.97" y2="75.36"/>
  <line class="cls-1" x1="56.79" y1="87.18" x2="85.97" y2="87.18"/>
  <line class="cls-1" x1="56.79" y1="99.01" x2="85.97" y2="99.01"/>
  <line class="cls-1" x1="56.79" y1="110.83" x2="85.97" y2="110.83"/>
  <line class="cls-1" x1="56.79" y1="122.66" x2="85.97" y2="122.66"/>
  <path class="cls-1" d="M118.79,58.15h40.49v65.73c0,9.91-8.05,17.96-17.96,17.96h-40.49v-65.73c0-9.91,8.05-17.96,17.96-17.96Z"/>
  <line class="cls-1" x1="144.85" y1="75.36" x2="115.67" y2="75.36"/>
  <line class="cls-1" x1="144.85" y1="87.18" x2="115.67" y2="87.18"/>
  <line class="cls-1" x1="144.85" y1="99.01" x2="115.67" y2="99.01"/>
  <line class="cls-1" x1="144.85" y1="110.83" x2="115.67" y2="110.83"/>
  <line class="cls-1" x1="144.85" y1="122.66" x2="115.67" y2="122.66"/>
</svg>