<?xml version="1.0" encoding="UTF-8"?>
<svg id="iconos" xmlns="http://www.w3.org/2000/svg" viewBox="0 0 200 200">
  <defs>
    <style>
      .cls-1 {
        fill: none;
        stroke: #f4f1ee;
        stroke-miterlimit: 10;
        stroke-width: 8px;
      }
    </style>
  </defs>
  <line class="cls-1" x1="83.58" y1="131.34" x2="78.83" y2="143.03"/>
  <line class="cls-1" x1="115.34" y1="53.12" x2="110.6" y2="64.8"/>
  <line class="cls-1" x1="83.11" y1="65" x2="78.21" y2="53.38"/>
  <line class="cls-1" x1="115.97" y1="142.77" x2="111.06" y2="131.15"/>
  <line class="cls-1" x1="130.16" y1="84.1" x2="141.78" y2="79.19"/>
  <line class="cls-1" x1="52.39" y1="116.95" x2="64.01" y2="112.04"/>
  <line class="cls-1" x1="130.35" y1="111.58" x2="142.04" y2="116.33"/>
  <line class="cls-1" x1="52.13" y1="79.82" x2="63.82" y2="84.56"/>
  <line class="cls-1" x1="97.09" y1="62.17" x2="97.09" y2="39.71"/>
  <line class="cls-1" x1="97.09" y1="156.44" x2="97.09" y2="133.98"/>
  <line class="cls-1" x1="122.47" y1="72.68" x2="138.36" y2="56.8"/>
  <line class="cls-1" x1="55.82" y1="139.34" x2="71.7" y2="123.46"/>
  <line class="cls-1" x1="132.99" y1="98.07" x2="155.45" y2="98.07"/>
  <line class="cls-1" x1="38.72" y1="98.07" x2="61.18" y2="98.07"/>
  <line class="cls-1" x1="122.47" y1="123.46" x2="138.36" y2="139.34"/>
  <line class="cls-1" x1="55.82" y1="56.8" x2="71.7" y2="72.68"/>
  <circle class="cls-1" cx="97.09" cy="98.07" r="35.91"/>
</svg>