<?xml version="1.0" encoding="UTF-8"?>
<svg id="iconos" xmlns="http://www.w3.org/2000/svg" viewBox="0 0 200 200">
  <defs>
    <style>
      .cls-1 {
        fill: none;
        stroke: #000;
        stroke-miterlimit: 10;
        stroke-width: 8px;
      }
    </style>
  </defs>
  <line class="cls-1" x1="100" y1="21.43" x2="100" y2="156.18"/>
  <path class="cls-1" d="M154.6,42.12c0,6.38-5.17,11.55-11.55,11.55s-11.55-5.17-11.55-11.55,5.17-11.55,11.55-11.55,11.55,5.17,11.55,11.55Z"/>
  <path class="cls-1" d="M151.89,147.99v-37.28h11.75l-6.64-31.2c-1.4-6.59-7.22-11.3-13.95-11.3"/>
  <path class="cls-1" d="M129.07,147.99s5.34-9.36,5.34-18.69c0-6.45-.2-18.59-.2-18.59h-11.75l6.64-31.2c1.4-6.59,7.22-11.3,13.95-11.3"/>
  <path class="cls-1" d="M67.52,42.12c0,6.38-5.17,11.55-11.55,11.55s-11.55-5.17-11.55-11.55,5.17-11.55,11.55-11.55,11.55,5.17,11.55,11.55Z"/>
  <path class="cls-1" d="M64.81,147.99v-37.28h8.44v-28.22c0-7.88-6.39-14.27-14.27-14.27h-3.01"/>
  <path class="cls-1" d="M41.99,147.99s5.34-9.36,5.34-18.69c0-6.45-.2-18.59-.2-18.59h-8.44v-28.22c0-7.88,6.39-14.27,14.27-14.27h3.01"/>
</svg>