<?xml version="1.0" encoding="UTF-8"?>
<svg id="iconos" xmlns="http://www.w3.org/2000/svg" viewBox="0 0 200 200">
  <defs>
    <style>
      .cls-1 {
        fill: none;
        stroke: #000;
        stroke-miterlimit: 10;
        stroke-width: 8px;
      }
    </style>
  </defs>
  <path class="cls-1" d="M167.38,99.12v-20.38l-19.73-3.33c-2.28-.38-4.19-1.91-5.08-4.05,0-.02-.02-.05-.03-.07-.9-2.15-.64-4.6.71-6.5l11.6-16.3-14.41-14.41-16.3,11.6c-1.9,1.35-4.35,1.61-6.5.71-.02,0-.05-.02-.07-.03-2.13-.89-3.66-2.8-4.05-5.08l-3.33-19.73h-20.38l-3.33,19.73c-.38,2.28-1.91,4.19-4.05,5.08-.02.01-.05.02-.07.03-2.15.9-4.6.64-6.5-.71l-16.3-11.6-14.41,14.41,11.59,16.29c1.35,1.9,1.61,4.35.71,6.5-.01.03-.02.06-.03.08-.89,2.13-2.8,3.66-5.08,4.04l-19.71,3.33v20.38l19.71,3.33c2.28.38,4.19,1.91,5.08,4.04.01.03.02.06.03.08.9,2.15.64,4.6-.71,6.5l-11.59,16.29,14.41,14.41,16.29-11.59c1.9-1.35,4.35-1.61,6.5-.71.03.01.05.02.08.03,2.13.89,3.66,2.8,4.04,5.08l3.33,19.72h20.38l3.33-19.72c.38-2.28,1.91-4.19,4.04-5.08.03-.01.05-.02.08-.03,2.15-.9,4.6-.64,6.5.71l16.3,11.59,14.41-14.41-11.6-16.3c-1.35-1.9-1.61-4.35-.71-6.5,0-.02.02-.05.03-.07.89-2.13,2.8-3.66,5.08-4.05l19.73-3.33Z"/>
  <circle class="cls-1" cx="100" cy="86.9" r="21.7"/>
</svg>