<?xml version="1.0" encoding="UTF-8"?>
<svg id="iconos" xmlns="http://www.w3.org/2000/svg" viewBox="0 0 200 200">
  <defs>
    <style>
      .cls-1 {
        fill: none;
        stroke: #f4f1ee;
        stroke-miterlimit: 10;
        stroke-width: 8px;
      }
    </style>
  </defs>
  <line class="cls-1" x1="43.25" y1="102.45" x2="156.75" y2="102.45"/>
  <line class="cls-1" x1="48.62" y1="154.79" x2="151.38" y2="154.79"/>
  <g>
    <path class="cls-1" d="M61.89,102.45v37.93c0,10.17-5.22,14.41-5.22,14.41"/>
    <path class="cls-1" d="M81.12,102.45v37.93c0,10.17-5.22,14.41-5.22,14.41"/>
    <path class="cls-1" d="M100.35,102.45v37.93c0,10.17-5.22,14.41-5.22,14.41"/>
    <path class="cls-1" d="M119.58,102.45v37.93c0,10.17-5.22,14.41-5.22,14.41"/>
    <path class="cls-1" d="M139.56,102.45v37.93c0,10.17-5.22,14.41-5.22,14.41"/>
  </g>
  <rect class="cls-1" x="63.94" y="42.97" width="71.82" height="59.48"/>
  <rect class="cls-1" x="80.31" y="60.71" width="39.09" height="41.75"/>
</svg>