<?xml version="1.0" encoding="UTF-8"?>
<svg id="iconos" xmlns="http://www.w3.org/2000/svg" viewBox="0 0 200 200">
  <defs>
    <style>
      .cls-1 {
        fill: none;
        stroke: #f4f1ee;
        stroke-miterlimit: 10;
        stroke-width: 8px;
      }
    </style>
  </defs>
  <path class="cls-1" d="M128.81,43.43s-6.88,9.68-6.88,19.12c0,4.81,0,6.24,0,11.26"/>
  <path class="cls-1" d="M106.88,38.06s-6.88,9.68-6.88,19.12c0,4.81,0,11.61,0,16.63"/>
  <path class="cls-1" d="M84.95,45.3s-6.88,9.68-6.88,19.12c0,4.81,0,4.37,0,9.39"/>
  <path class="cls-1" d="M134.64,87.39h25.63v14.82c0,7.64-6.19,13.84-13.84,13.84h-11.8"/>
  <path class="cls-1" d="M56.27,87.39h78.37v29.98c0,15.08-12.25,27.33-27.33,27.33h-23.71c-15.08,0-27.33-12.25-27.33-27.33v-29.98h0Z"/>
  <line class="cls-1" x1="51.19" y1="144.71" x2="139.72" y2="144.71"/>
</svg>