<?xml version="1.0" encoding="UTF-8"?>
<svg id="iconos" xmlns="http://www.w3.org/2000/svg" xmlns:xlink="http://www.w3.org/1999/xlink" viewBox="0 0 200 200">
  <defs>
    <style>
      .cls-1 {
        stroke: #000;
        stroke-miterlimit: 10;
        stroke-width: 8px;
      }

      .cls-1, .cls-2 {
        fill: none;
      }

      .cls-2 {
        stroke-width: 0px;
      }

      .cls-3 {
        clip-path: url(#clippath);
      }
    </style>
    <clipPath id="clippath">
      <path class="cls-2" d="M170.01,140.6c-20.58-7.15-36.62-7.08-47.38-5.73-21.63,2.7-30.62,11.62-52.11,13.27-17.6,1.36-32.29-3.03-41.74-6.79V-.73h144.44l-3.21,141.33Z"/>
    </clipPath>
  </defs>
  <path class="cls-1" d="M28.78,141.35c9.45,3.77,24.14,8.15,41.74,6.79,21.49-1.65,30.48-10.57,52.11-13.27,10.76-1.34,26.81-1.42,47.38,5.73"/>
  <g class="cls-3">
    <rect class="cls-1" x="85.09" y="36.79" width="68.27" height="116.18"/>
    <path class="cls-1" d="M85.74,172.22h-40.31v-89.05c0-6.56,5.32-11.87,11.87-11.87h28.43"/>
  </g>
  <line class="cls-1" x1="102.82" y1="66.03" x2="102.82" y2="51.92"/>
  <line class="cls-1" x1="119.43" y1="66.03" x2="119.43" y2="51.92"/>
  <line class="cls-1" x1="136.04" y1="66.03" x2="136.04" y2="51.92"/>
  <line class="cls-1" x1="102.82" y1="90.64" x2="102.82" y2="76.53"/>
  <line class="cls-1" x1="119.43" y1="90.64" x2="119.43" y2="76.53"/>
  <line class="cls-1" x1="136.04" y1="90.64" x2="136.04" y2="76.53"/>
  <line class="cls-1" x1="102.82" y1="115.24" x2="102.82" y2="101.13"/>
  <line class="cls-1" x1="119.43" y1="115.24" x2="119.43" y2="101.13"/>
  <line class="cls-1" x1="136.04" y1="115.24" x2="136.04" y2="101.13"/>
  <line class="cls-1" x1="82.35" y1="88.96" x2="58.78" y2="88.96"/>
  <line class="cls-1" x1="82.35" y1="106.82" x2="58.78" y2="106.82"/>
  <line class="cls-1" x1="82.35" y1="124.67" x2="58.78" y2="124.67"/>
</svg>