<?xml version="1.0" encoding="UTF-8"?>
<svg id="iconos" xmlns="http://www.w3.org/2000/svg" viewBox="0 0 200 200">
  <defs>
    <style>
      .cls-1 {
        fill: none;
        stroke: #f4f1ee;
        stroke-miterlimit: 10;
        stroke-width: 8px;
      }
    </style>
  </defs>
  <g>
    <path class="cls-1" d="M138.01,92.67c0,6.48-5.25,11.74-11.73,11.74s-11.73-5.26-11.73-11.74,5.25-11.74,11.73-11.74,11.73,5.26,11.73,11.74Z"/>
    <path class="cls-1" d="M143.83,158.19v-25.62c0-9.69-7.86-17.55-17.55-17.55h0"/>
    <path class="cls-1" d="M126.27,115.02h0c-9.69,0-17.55,7.86-17.55,17.55v6.2c0,9.47-5.42,18.98-5.42,18.98"/>
  </g>
  <polyline class="cls-1" points="35.67 83.46 97.29 41.81 158.91 83.46"/>
  <line class="cls-1" x1="51.79" y1="90.73" x2="51.79" y2="157.73"/>
  <path class="cls-1" d="M107.02,80.93c-2.88-1.46-6.15-2.28-9.6-2.28h0c-11.77,0-21.32,9.54-21.32,21.32v57.77"/>
</svg>