<?xml version="1.0" encoding="UTF-8"?>
<svg id="iconos" xmlns="http://www.w3.org/2000/svg" viewBox="0 0 200 200">
  <defs>
    <style>
      .cls-1 {
        fill: none;
        stroke: #f4f1ee;
        stroke-miterlimit: 10;
        stroke-width: 8.25px;
      }
    </style>
  </defs>
  <path class="cls-1" d="M81.59,56.22h0c15.61,0,28.28,12.67,28.28,28.28v67.46h-56.55v-67.46c0-15.61,12.67-28.28,28.28-28.28Z"/>
  <line class="cls-1" x1="53.32" y1="86.48" x2="109.87" y2="86.48"/>
  <path class="cls-1" d="M81.59,56.22h0c0-14.46,11.72-26.17,26.17-26.17h1.77c14.46,0,26.17,11.72,26.17,26.17v27.68"/>
  <polygon class="cls-1" points="146.68 151.96 124.75 151.96 128.48 83.9 140.68 83.9 146.68 151.96"/>
  <path class="cls-1" d="M93.01,124.03c0,6.34-5.14,11.49-11.49,11.49s-11.49-5.14-11.49-11.49c0-14.44,11.49-23.69,11.49-23.69,0,0,11.49,10.44,11.49,23.69Z"/>
</svg>