<?xml version="1.0" encoding="UTF-8"?>
<svg id="iconos" xmlns="http://www.w3.org/2000/svg" viewBox="0 0 200 200">
  <defs>
    <style>
      .cls-1 {
        fill: none;
        stroke: #000;
        stroke-miterlimit: 10;
        stroke-width: 8px;
      }
    </style>
  </defs>
  <g>
    <polyline class="cls-1" points="57.67 136.51 57.67 152.97 72.45 152.97 72.45 138.1"/>
    <polyline class="cls-1" points="127.55 136.51 127.55 152.97 142.33 152.97 142.33 138.1"/>
    <path class="cls-1" d="M79.25,91.56h41.5c11.91,0,21.58,9.67,21.58,21.58v3.33H57.67v-3.33c0-11.91,9.67-21.58,21.58-21.58Z"/>
    <path class="cls-1" d="M57.67,116.47v-56.81c0-6.98,5.66-12.63,12.63-12.63h72.02v96.01"/>
    <rect class="cls-1" x="57.67" y="116.47" width="84.65" height="18.76"/>
  </g>
  <path class="cls-1" d="M90.13,72.6h19.74c5.61,0,10.17,4.56,10.17,10.17v8.79h-40.07v-8.79c0-5.61,4.56-10.17,10.17-10.17Z"/>
</svg>