<?xml version="1.0" encoding="UTF-8"?>
<svg id="iconos" xmlns="http://www.w3.org/2000/svg" viewBox="0 0 200 200">
  <defs>
    <style>
      .cls-1 {
        fill: none;
        stroke: #f4f1ee;
        stroke-miterlimit: 10;
        stroke-width: 8px;
      }
    </style>
  </defs>
  <line class="cls-1" x1="44.29" y1="30.02" x2="44.29" y2="103.66"/>
  <g>
    <path class="cls-1" d="M44.29,55.59h83.4c8.42,0,15.25,6.83,15.25,15.25v29.18h-25.84v-18.17h-8.14c-3.54,0-7.05.64-10.37,1.89l-4.89,1.85c-6.18,2.34-12.98,2.52-19.27.51l-8.98-2.86c-2.88-.92-5.89-1.39-8.91-1.39h-12.25"/>
    <line class="cls-1" x1="96.29" y1="55.59" x2="96.29" y2="33.96"/>
    <path class="cls-1" d="M129.48,113.55s-10.88,9.59-10.88,24.14c0,6.01,4.87,10.88,10.88,10.88s10.88-4.87,10.88-10.88c0-14.55-10.88-24.14-10.88-24.14Z"/>
    <line class="cls-1" x1="74.96" y1="33.96" x2="118.26" y2="33.96"/>
  </g>
</svg>