<?xml version="1.0" encoding="UTF-8"?>
<svg id="iconos" xmlns="http://www.w3.org/2000/svg" viewBox="0 0 200 200">
  <defs>
    <style>
      .cls-1 {
        stroke-linecap: square;
        stroke-linejoin: bevel;
      }

      .cls-1, .cls-2 {
        fill: none;
        stroke: #000;
        stroke-width: 8px;
      }

      .cls-2 {
        stroke-miterlimit: 10;
      }
    </style>
  </defs>
  <g>
    <path class="cls-1" d="M157.44,133.77l-10.74-77.83-12.01,63.47c7.86,4.22,15.44,9.08,22.76,14.35Z"/>
    <path class="cls-1" d="M128.54,116.29l-9.77-85.74-12.43,77.16c7.64,2.2,15.04,5.11,22.2,8.58Z"/>
    <path class="cls-1" d="M68.08,119.42l-12.01-63.48-10.75,77.84c7.32-5.28,14.9-10.14,22.76-14.36Z"/>
    <path class="cls-1" d="M96.42,107.71l-12.43-77.17-9.78,85.75c7.17-3.47,14.56-6.38,22.21-8.59Z"/>
  </g>
  <path class="cls-2" d="M41.81,154.55v-14.46c0-2.37,1.15-4.6,3.07-5.99,17.3-12.53,36.03-22.73,56.51-27.72,20.48,4.99,39.21,15.19,56.51,27.72,1.92,1.39,3.07,3.61,3.07,5.99v14.46"/>
  <path class="cls-2" d="M121.64,154.55s-1.46-20.17-20.26-27.16c-18.8,6.99-20.26,27.16-20.26,27.16"/>
</svg>