<?xml version="1.0" encoding="UTF-8"?>
<svg id="iconos" xmlns="http://www.w3.org/2000/svg" viewBox="0 0 200 200">
  <defs>
    <style>
      .cls-1 {
        fill: none;
        stroke: #000;
        stroke-miterlimit: 10;
        stroke-width: 8px;
      }
    </style>
  </defs>
  <g>
    <path class="cls-1" d="M118.57,62.17c0,9.63-7.81,17.44-17.43,17.44s-17.43-7.81-17.43-17.44,7.8-17.44,17.43-17.44,17.43,7.81,17.43,17.44Z"/>
    <path class="cls-1" d="M127.21,159.52v-38.07c0-14.4-11.68-26.08-26.08-26.08h0"/>
    <path class="cls-1" d="M101.13,95.37h0c-14.4,0-26.07,11.67-26.07,26.07v9.21c0,14.08-8.06,28.21-8.06,28.21"/>
  </g>
  <g>
    <path class="cls-1" d="M156.79,69.18c0,7.25-5.88,13.13-13.13,13.13s-13.13-5.88-13.13-13.13,5.88-13.13,13.13-13.13,13.13,5.88,13.13,13.13Z"/>
    <path class="cls-1" d="M163.3,144.41v-28.66c0-10.85-8.79-19.64-19.64-19.64h0"/>
    <path class="cls-1" d="M143.67,96.11c-8.9,0-12.03,2.3-14.15,4.06"/>
  </g>
  <g>
    <path class="cls-1" d="M44.79,69.33c0,7.25,5.88,13.13,13.13,13.13s13.13-5.88,13.13-13.13-5.88-13.13-13.13-13.13-13.13,5.88-13.13,13.13Z"/>
    <path class="cls-1" d="M38.28,144.55v-28.66c0-10.85,8.79-19.64,19.64-19.64h0"/>
    <path class="cls-1" d="M57.92,96.25c8.9,0,12.03,2.3,14.15,4.06"/>
  </g>
</svg>