<?xml version="1.0" encoding="UTF-8"?>
<svg id="iconos" xmlns="http://www.w3.org/2000/svg" viewBox="0 0 200 200">
  <defs>
    <style>
      .cls-1 {
        fill: none;
        stroke: #000;
        stroke-miterlimit: 10;
        stroke-width: 8px;
      }
    </style>
  </defs>
  <path class="cls-1" d="M61.63,153.23v-.51c0-7.87,6.38-14.26,14.26-14.26h0c7.87,0,14.26,6.38,14.26,14.26v.51"/>
  <path class="cls-1" d="M53.55,48.8s8.09,21.33,8.09,40.45v21.33h38.37"/>
  <line class="cls-1" x1="75.3" y1="110.57" x2="75.3" y2="138.46"/>
  <path class="cls-1" d="M67.15,66.15h5.38c3.85,0,7.09,2.89,7.52,6.72l2.67,23.48h21.57c5.48,0,9.95,4.4,10.03,9.89l.65,45.27"/>
  <circle class="cls-1" cx="79.68" cy="41.95" r="11"/>
  <path class="cls-1" d="M104.26,68.69h19.19c5.2,0,9.84-3.26,11.61-8.14l9.68-26.75"/>
  <line class="cls-1" x1="104.26" y1="82.73" x2="146.45" y2="82.73"/>
  <line class="cls-1" x1="132.94" y1="82.73" x2="132.94" y2="150.01"/>
</svg>