<?xml version="1.0" encoding="utf-8"?>
<!-- Generator: Adobe Illustrator 27.5.0, SVG Export Plug-In . SVG Version: 6.00 Build 0)  -->
<svg version="1.1" id="Capa_1" xmlns="http://www.w3.org/2000/svg" xmlns:xlink="http://www.w3.org/1999/xlink" x="0px" y="0px"
	 viewBox="0 0 512 512" style="enable-background:new 0 0 512 512;" xml:space="preserve">
<style type="text/css">
	.svg_base{fill:#343434;}
	.svg_accent{fill:#FF5166;}
</style>
<g>
	<path class="svg_base" d="M403.3,123H370h-33.2h-33.2v33.2l0,0v33.2h-33.2H237v33.2V256h-33.2h-33.2v33.2v33.2h-33.2h-33.2v33.2V389
		v33.2h33.2h33.2h33.2H237h33.2h33.2h0h33.2H370h33.2h33.2V389v-33.2v-33.2v-33.2V256v-33.2v-33.2v0v-33.2l0,0V123H403.3z
			M403.3,189.5L403.3,189.5v33.2V256v33.2v33.2v33.2V389H370h-33.2h-33.2h0h-33.2H237h-33.2h-33.2h-33.2v-33.2h33.2h33.2v-33.2
		v-33.2H237h33.2V256v-33.2h33.2h0h33.2v-33.2v0v-33.2H370h33.2V189.5z"/>
	<polygon class="svg_accent" points="237,89.8 237,189.5 203.8,189.5 203.8,123 137.3,123 137.3,89.8 			"/>
	<polygon class="svg_accent" points="193,154.3 169.5,177.8 146,201.3 122.5,224.7 99,248.3 75.5,224.7 99,201.3 146,154.3 169.5,130.7"/>
</g>
</svg>
