<?xml version="1.0" encoding="utf-8"?>
<!-- Generator: Adobe Illustrator 27.5.0, SVG Export Plug-In . SVG Version: 6.00 Build 0)  -->
<svg version="1.1" id="Capa_1" xmlns="http://www.w3.org/2000/svg" xmlns:xlink="http://www.w3.org/1999/xlink" x="0px" y="0px"
	 viewBox="0 0 512 512" style="enable-background:new 0 0 512 512;" xml:space="preserve">
<style type="text/css">
	.st0{fill:#FFFFFF;}
	.st1{fill:#1B1B1A;}
	.st2{fill-rule:evenodd;clip-rule:evenodd;fill:#1B1B1A;}
	.st3{fill:#BDBDBD;}
	.st4{fill:url(#SVGID_1_);}
	.st5{fill:#FF5166;}
	.st6{fill:#C5C5C5;}
	.st7{fill:none;}
	.st8{fill-rule:evenodd;clip-rule:evenodd;fill:#FF5166;}
</style>
<g>
	<g>
		<path class="st7" d="M256,63.8C150,63.8,63.8,150,63.8,256S150,448.2,256,448.2S448.2,362,448.2,256S362,63.8,256,63.8z M256,432
			c-97.2,0-176-78.8-176-176S158.8,80,256,80c97.2,0,176,78.8,176,176S353.2,432,256,432z"/>
	</g>
	<path class="st5" d="M256,80c-97.2,0-176,78.8-176,176s78.8,176,176,176c97.2,0,176-78.8,176-176S353.2,80,256,80z M353.5,268.4
		l-135.6,78.3c-9.5,5.5-21.4-1.4-21.4-12.4V177.7c0-11,11.9-17.9,21.4-12.4l135.6,78.3C363.1,249.1,363.1,262.9,353.5,268.4z"/>
	<path class="st5" d="M256,58.1C146.9,58.1,58.1,146.9,58.1,256S146.9,453.9,256,453.9S453.9,365.1,453.9,256S365.1,58.1,256,58.1z
		 M256,448.2C150,448.2,63.8,362,63.8,256S150,63.8,256,63.8S448.2,150,448.2,256S362,448.2,256,448.2z"/>
</g>
</svg>
