<?xml version="1.0" encoding="utf-8"?>
<!-- Generator: Adobe Illustrator 27.5.0, SVG Export Plug-In . SVG Version: 6.00 Build 0)  -->
<svg version="1.1" id="Capa_1" xmlns="http://www.w3.org/2000/svg" xmlns:xlink="http://www.w3.org/1999/xlink" x="0px" y="0px"
	 viewBox="0 0 512 512" style="enable-background:new 0 0 512 512;" xml:space="preserve">
<style type="text/css">
	.svg_base{fill:#343434;}
	.svg_accent{fill:#FF5166;}
</style>
<g>
	<path class="svg_base" d="M372.3,488.6v-66.4l-16.5-33.1l-0.1-0.1l-16.5-33.2l-0.3-0.6l-32.7-65.9l-0.6,0.3v-0.3h-33.2v-33.2h0v-33.2v0
		v-33.2v0v-33.2v-33.1V123V89.9v0V56.6v0V23.4h-33.2v33.2v0v33.2v0V123v0.2v33.1v33.2v0v33.2v0v33.2h0v33.2h-33.2v0.3l-0.6-0.3
		L172.9,355v0.6h-0.3l-16.5,33.2l-0.1,0.1l-16.4,33.1v66.4H372.3z M172.9,429.8l3.7-7.5l16.5-33.2l13-26.2l3.5-7.1l16.5-33.2h59.6
		l16.5,33.2l3.5,7.1l13,26.2l16.5,33.2l3.7,7.5v25.6H172.9V429.8z"/>
	<rect x="206.2" y="389.1" class="svg_accent" width="33.2" height="66.4"/>
	<rect x="272.6" y="389.1" class="svg_accent" width="33.2" height="66.4"/>
</g>
</svg>
