<?xml version="1.0" encoding="utf-8"?>
<!-- Generator: Adobe Illustrator 27.5.0, SVG Export Plug-In . SVG Version: 6.00 Build 0)  -->
<svg version="1.1" id="Capa_1" xmlns="http://www.w3.org/2000/svg" xmlns:xlink="http://www.w3.org/1999/xlink" x="0px" y="0px"
	 viewBox="0 0 512 512" style="enable-background:new 0 0 512 512;" xml:space="preserve">
<g>
	<path  class="svg_base" d="M491.9,218c-1-1.2-2.6-2-4.2-2h-75.6l-7.3-29.1c-0.6-2.3-2.7-3.9-5.2-3.9h-58.7c-1.7,0-3.3,0.8-4.3,2.1
		c-1,1.3-1.3,3-0.8,4.6l15.2,47h-14.1l1.3-15.1c0.1-1.5-0.4-2.9-1.4-3.9c-1-1.1-2.4-1.7-3.9-1.7h-1v-71c0-1.5-0.6-2.9-1.8-3.9
		c-1.1-1-2.7-1.5-4.2-1.3c-24.6,2.7-42.2,10.1-53.3,16.5c-0.6-6.5-3.4-12-8.5-16.3c-16.3-13.9-50.7-9.8-52.2-9.6
		c-2.7,0.3-4.7,2.5-4.7,5.2v51.8c-17.3,4.9-32,12-33.1,12.5c-1.3,0.6-2.2,1.7-2.7,3c-0.4,1.3-0.3,2.8,0.4,4l15.9,29.8
		c-45.5,1.8-61.6,23.1-62.3,24.1c-0.7,1-1.1,2.3-1,3.5l1.1,10.2c-11.2,3.2-23,8-34.4,15.1c-7.8,5-16.5,8.5-25.7,10.3
		c-11.1,2-26.7,2.8-38.3-4.5c-1.6-1-3.7-1.1-5.4-0.2c-1.7,0.9-2.8,2.7-2.8,4.6V377c0,2.9,2.4,5.2,5.3,5.2h160.2c0,0,0.1,0,0.1,0h70.6
		c0,0,0,0,0.1,0h205.6c1.5,0,2.8-0.6,3.8-1.6c1-1,1.5-2.4,1.5-3.8c-1.3-44.3,26.3-153.3,26.5-154.4
		C493.2,220.9,492.8,219.3,491.9,218L491.9,218z M370.9,264.1l-5.5-17.1h18.6v0.3h10.2v3.2h-16.7v10.4h16.7v0.3l-17.8,2.9H370.9z
		M404.9,250.5v-3.2h4l0.8,3.2H404.9z M401.2,236.9c-0.5-0.2-1-0.3-1.6-0.3h-26.8c8-6.7,18.5-10.6,29.5-10.3h1.5l2.7,10.6
		L401.2,236.9L401.2,236.9z M395.4,193.3l5.7,22.7c-15.6,0.1-30,6.6-40.1,17.4l-12.9-40.1H395.4z M351.7,247
		c-0.4,0.9-0.8,1.7-1.2,2.6c-0.1,0.3-0.2,0.7-0.3,1l-21.9,121.2h-3.1L335.9,247H351.7z M146.7,371.8l-9.5-89.4
		c15.2-3.5,28.7-4.2,37.1-4.7c1.8-0.1,3.4-0.2,5-0.3v19.3h-8.1v10.4h8.1v3.2H158v10.4h21.3v3.2h-34.4v10.4h34.4v3.2H158v10.4h21.3
		v3.2h-8.1v10.4h8.1v10.4L146.7,371.8L146.7,371.8z M210,255.9l-4.8-8.9H250v32.4h-10.8v-9.9h-21.9l-1.7-3.2h5.3v-10.4H210z
		M262,279.4h-1.4V247h1.4V279.4z M205.2,269.5h-7.8v10.4h13.4l1.7,3.2h-22.6v-12.3c0-1.9-1.1-3.6-2.7-4.5h16.3L205.2,269.5
		L205.2,269.5z M189.9,361.3h23v-10.4h-23v-3.2h9.9v-10.4h-9.9v-16.8h9.9v-10.4h-9.9V307h23v-10.4h-23v-3.2h36.2v-3.7h24v82h-60.1
		V361.3z M260.7,289.7h1.4v82h-1.4V289.7z M272.7,342.3h16.1v29.4h-16.1V342.3z M272.7,331.9v-3.2h16.1v3.2H272.7z M272.7,318.3v-3.2
		h16.1v3.2H272.7z M272.7,304.8v-3.2h16.1v3.2H272.7z M272.7,291.2v-1.5h16.1v1.5H272.7z M272.7,277.6v-3.2h16.1v3.2H272.7z
		M272.7,264v-3.2h16.1v3.2H272.7z M272.7,250.4v-8.7c0-2.9-2.4-5.2-5.3-5.2h-6.7v-0.4c0.3,0.1,0.7,0.1,1,0.1h27.1v14.1H272.7
		L272.7,250.4z M218,195.4c9.4-2.1,18.6-3,25.6-1.4c1.9,1.4,6.3,4.3,12.8,6.6v15.2H218V195.4z M288.7,215.9h-16.1v-12.1
		c4.8,0.3,10.2,0,16.1-1V215.9z M299.4,236.3h26.7v0.3h-26.7V236.3z M321.1,215.9h-21.7v-19.6c0-1.6-0.8-3.1-2.1-4.1
		c-0.3-0.2-0.7-0.4-1-0.6H318v-10.4h-41.8v10.4h15.1c-7.1,1.8-13.4,2.2-18.7,1.9v-24.9c8.4-5.6,24.4-14,48.4-17.7V215.9z
		M217.9,173.2h34.6v-10.4h-34.6v-7.5h34.6V145h-34.6v-4.7c10.8-0.7,30.1-0.2,39.1,7.5c3.4,2.9,5,6.5,5,11.2v4.3
		c-2.6,2-3.9,3.3-4.2,3.6c-1,1-1.5,2.3-1.5,3.6v19.1c-4.3-1.9-6.6-3.8-6.8-4c-0.6-0.5-1.3-0.9-2.1-1.1c-8.5-2.4-19.1-1.7-29.5,0.4
		L217.9,173.2L217.9,173.2z M207.3,198.3v22.8c0,2.9,2.4,5.2,5.3,5.2H250v10.3h-50.3l-15.8-29.7C189.9,204.2,198.3,201,207.3,198.3z
		M135.4,265.5c4.3-4.5,20.9-18.4,57.8-18.6l4.8,8.9h-19v10.4h3.1c-0.3,0.1-0.6,0.3-0.9,0.5c-1.6,0.2-4.7,0.4-7.5,0.6
		c-8.7,0.5-22.2,1.2-37.6,4.6L135.4,265.5L135.4,265.5z M29.7,308.2c12.8,4.8,27.2,3.9,37.8,2c10.6-2,20.5-6,29.5-11.8
		c9.8-6.1,19.9-10.3,29.7-13.3l9.2,86.7H29.7V308.2z M299.4,371.8v-29.4h13.4V332h-13.4v-3.2h13.4v-10.4h-13.4v-3.2h13.4v-10.4h-13.4
		v-3.2h13.4v-10.4h-13.4v-3.2h13.4v-10.4h-13.4v-3.2h13.4v-10.4h-13.4v-3.2h13.4v-10.4h-13.4V247h25.8l-10.7,124.7L299.4,371.8
		L299.4,371.8z M339.2,371.8l19.9-109.9l3.4,10.5c0.7,2.2,2.8,3.6,5.1,3.6c0.3,0,0.6,0,0.9-0.1l9-1.5h16.8v3.2h-25.9v10.4h25.9v3.2
		h-28.6v10.4h28.6v3.2h-33.8v10.4h33.8v3.2h-36.4v10.4h36.4v3.2h-36.4v10.4h36.4v29.4H339.2z M455.6,371.8h-50.7v-29.4h36.4V332
		h-36.4v-3.2h36.4v-10.4h-36.4v-3.2H444v-10.4h-39.1v-3.2h44.3v-10.4h-44.3v-3.2h46.9v-10.4h-46.9v-3.2h49.6v-10.4h-31.1
		c0.3-0.9,0.4-1.9,0.1-2.8l-0.1-0.4H461v-10.4h-40.3l-0.8-3.2h47.7v-10.4h-50.3l-2.7-10.6h66.2C475.1,249.8,456.2,330.1,455.6,371.8z
		"/>
</g>
</svg>
