<?xml version="1.0" encoding="utf-8"?>
<!-- Generator: Adobe Illustrator 27.5.0, SVG Export Plug-In . SVG Version: 6.00 Build 0)  -->
<svg version="1.1" id="Capa_1" xmlns="http://www.w3.org/2000/svg" xmlns:xlink="http://www.w3.org/1999/xlink" x="0px" y="0px"
	 viewBox="0 0 512 512" style="enable-background:new 0 0 512 512;" xml:space="preserve">
<style type="text/css">
	.st0{fill:#FFFFFF;}
	.st1{fill:#1B1B1A;}
	.st2{fill-rule:evenodd;clip-rule:evenodd;fill:#1B1B1A;}
	.st3{fill:#BDBDBD;}
	.st4{fill:url(#SVGID_1_);}
	.st5{fill:#FF5166;}
	.st6{fill:#C5C5C5;}
	.st7{fill:none;}
	.st8{fill-rule:evenodd;clip-rule:evenodd;fill:#FF5166;}
</style>
<g>
	<g>
		<path class="st1" d="M462.4,64.6H257.7c-7.7,0-14,6.2-14,14v119h-19.2c-7.8,0-14,6.2-14,14v19.2h251.9c7.7,0,14-6.3,14-14V78.6
			C476.4,70.7,470.1,64.6,462.4,64.6z M443.2,197.6H276.9V97.7h166.3V197.6z"/>
	</g>
	<rect x="310.2" y="131" class="st5" width="33.2" height="33.2"/>
	<rect x="376.7" y="131" class="st5" width="33.2" height="33.2"/>
	<path class="st5" d="M372.5,325.8l-50.7-50.7c-5.5-5.5-14.4-5.5-19.9,0l-37.1,37.1l-47-47l-23.4-23.5l-23.5-23.5l37.1-37.1
		c5.5-5.5,5.5-14.3,0-19.8l-13.6-13.7l-23.5-23.5l-13.8-13.6c-5.5-5.4-14.3-5.4-19.7,0l-60.6,60.6l-23.5,23.5l-13.6,13.6
		c-5.5,5.5-5.5,14.4,0,19.9l201.6,201.6l13.7,13.6c5.5,5.6,14.3,5.6,19.7,0l60.6-60.6l23.5-23.4l13.6-13.8
		C377.9,340,377.9,331.2,372.5,325.8z M311.9,359.2l-23.5,23.4l-23.5,23.5l-23.5-23.5l-23.5-23.4l-23.4-23.5L76.8,218.1l23.5-23.5
		l23.5-23.5l23.5-23.5l23.5,23.5l-23.5,23.5l-13.6,13.6c-5.5,5.5-5.5,14.3,0,19.8l60.7,60.7l23.4,23.5l23.5,23.5l13.8,13.6
		c5.5,5.4,14.3,5.4,19.7-0.1l13.6-13.6l23.5-23.5l23.5,23.5L311.9,359.2z"/>
</g>
</svg>
