<?xml version="1.0" encoding="utf-8"?>
<!-- Generator: Adobe Illustrator 27.5.0, SVG Export Plug-In . SVG Version: 6.00 Build 0)  -->
<svg version="1.1" id="Capa_1" xmlns="http://www.w3.org/2000/svg" xmlns:xlink="http://www.w3.org/1999/xlink" x="0px" y="0px"
	 viewBox="0 0 512 512" style="enable-background:new 0 0 512 512;" xml:space="preserve">
<style type="text/css">
	.svg_base{fill:#343434;}
	.svg_accent{fill:#FF5166;}
</style>
<g>
	<path class="svg_base" d="M235.4,244.3l-23.5,23.4l-23.5,23.5l-47,47l-23.5,23.5l-23.4,23.5l23.4,23.4l23.5-23.4l23.5,23.4l-23.5,23.5
		l-13.6,13.7c-5.5,5.5-14.4,5.5-19.8,0l-13.6-13.7l-23.5-23.5l-23.5-23.4l23.5-23.5l23.5-23.5l23.4-23.5l23.5-23.5l23.5-23.5
		l23.5-23.4l23.5-23.5L235.4,244.3z"/>
	<path class="svg_base" d="M282.4,291.2l-47,47l-23.5,23.5l13.6,13.6c5.5,5.5,5.5,14.4,0,19.8l-13.6,13.6l-13.6,13.7
		c-5.5,5.5-14.3,5.5-19.8,0l-13.6-13.7l23.5-23.4l-23.5-23.5l47-47l23.5-23.5l23.5-23.5L282.4,291.2z"/>
	<path class="svg_accent" d="M460.6,187.4L447,173.7l-23.5-23.5l-23.5-23.4l-23.5-23.5L353,79.7l-13.7-13.7c-5.5-5.5-14.3-5.5-19.8,0
		l-13.6,13.7l-23.5,23.5l-23.5,23.5l-23.5,23.4l-23.5,23.5l-13.6,13.7c-5.5,5.5-5.5,14.3,0,19.7l13.6,13.7l23.5,23.5l23.5,23.4
		l23.5,23.5l37.1,37.1c5.5,5.5,14.4,5.5,19.8,0l13.7-13.6l23.4-23.5l23.5-23.5l23.5-23.4l23.5-23.5l13.6-13.7
		C466,201.6,466,192.8,460.6,187.4z M399.9,220.8l-23.5,23.5L353,267.7l-23.5,23.5l-23.5-23.5l-23.5-23.4l-47-47l23.5-23.5
		l23.5-23.5l23.5-23.4l23.5-23.5l23.5,23.5l23.4,23.4l23.5,23.5l23.5,23.5L399.9,220.8z"/>
	<path class="svg_accent" d="M366.5,207.1l-3.7,3.7c-5.5,5.5-14.3,5.5-19.8,0l-13.6-13.6l-13.7-13.6c-5.5-5.5-5.5-14.4,0-19.8l3.7-3.7
		c5.5-5.5,14.4-5.5,19.8,0l13.7,13.6l13.6,13.7C372,192.8,372,201.6,366.5,207.1z"/>
</g>
</svg>
