<?xml version="1.0" encoding="utf-8"?>
<!-- Generator: Adobe Illustrator 27.5.0, SVG Export Plug-In . SVG Version: 6.00 Build 0)  -->
<svg version="1.1" id="Capa_1" xmlns="http://www.w3.org/2000/svg" xmlns:xlink="http://www.w3.org/1999/xlink" x="0px" y="0px"
	 viewBox="0 0 512 512" style="enable-background:new 0 0 512 512;" xml:space="preserve">
<style type="text/css">
	.st0{fill:#FFFFFF;}
	.st1{fill:#1B1B1A;}
	.st2{fill-rule:evenodd;clip-rule:evenodd;fill:#1B1B1A;}
	.st3{fill:#BDBDBD;}
	.st4{fill:url(#SVGID_1_);}
	.st5{fill:#FF5166;}
	.st6{fill:#C5C5C5;}
	.st7{fill:none;}
	.st8{fill-rule:evenodd;clip-rule:evenodd;fill:#FF5166;}
</style>
<g>
	<path class="st6" d="M256.6,256c-0.2,0-0.4,0.1-0.6,0.1c-0.2,0-0.4-0.1-0.6-0.1H256.6z"/>
	<path class="st6" d="M256.6,256c-0.2,0-0.4,0.1-0.6,0.1c-0.2,0-0.4-0.1-0.6-0.1H256.6z"/>
	<path class="st6" d="M256,256c0,0.2-0.1,0.4-0.1,0.6v-1.3C256,255.6,256,255.8,256,256z"/>
	<g>
		<rect x="206.1" y="123" class="st1" width="33.2" height="33.2"/>
		<polygon class="st1" points="372.3,222.8 372.3,455.5 339.2,455.5 339.2,422.2 172.8,422.2 172.8,455.5 139.7,455.5 139.7,222.8 
			172.8,222.8 172.8,389 339.2,389 339.2,222.8 		"/>
		<rect x="206.1" y="256" class="st1" width="33.2" height="33.2"/>
	</g>
	<path class="st5" d="M139.7,56.5v166.3h232.7V56.5H139.7z M339.2,189.5H172.8V89.8h166.3V189.5z"/>
</g>
</svg>
