<?xml version="1.0" encoding="utf-8"?>
<!-- Generator: Adobe Illustrator 27.5.0, SVG Export Plug-In . SVG Version: 6.00 Build 0)  -->
<svg version="1.1" id="Capa_1" xmlns="http://www.w3.org/2000/svg" xmlns:xlink="http://www.w3.org/1999/xlink" x="0px" y="0px"
	 viewBox="0 0 512 512" style="enable-background:new 0 0 512 512;" xml:space="preserve">
<style type="text/css">
	.st0{fill:#FFFFFF;}
	.st1{fill:#1B1B1A;}
	.st2{fill-rule:evenodd;clip-rule:evenodd;fill:#1B1B1A;}
	.st3{fill:#BDBDBD;}
	.st4{fill:url(#SVGID_1_);}
	.st5{fill:#FF5166;}
	.st6{fill:#C5C5C5;}
	.st7{fill:none;}
	.st8{fill-rule:evenodd;clip-rule:evenodd;fill:#FF5166;}
</style>
<g>
	<g>
		<path class="st1" d="M425,206.1H87c-7.6,0-13.9,6.2-13.9,13.9v204.9c0,7.7,6.2,13.9,13.9,13.9h5.5c7.7,0,13.9-6.2,13.9-13.9v-19.3
			h299.2v19.3c0,7.7,6.2,13.9,13.9,13.9h5.5c7.6,0,13.9-6.2,13.9-13.9V220C438.8,212.3,432.6,206.1,425,206.1z M405.6,372.3H106.4
			v-133h299.2V372.3z"/>
		<rect x="272.6" y="272.6" class="st1" width="33.2" height="66.5"/>
		<rect x="139.7" y="272.6" class="st1" width="33.2" height="66.5"/>
		<rect x="206.2" y="272.6" class="st1" width="33.2" height="66.5"/>
		<rect x="339.1" y="272.6" class="st1" width="33.2" height="66.5"/>
	</g>
	<path class="st5" d="M172.9,87V159c0,7.7-6.2,13.9-13.9,13.9h-5.5c-7.7,0-13.9-6.2-13.9-13.9V87c0-7.7,6.2-13.9,13.9-13.9h5.5
		C166.7,73.2,172.9,79.4,172.9,87z"/>
	<path class="st5" d="M272.6,87V159c0,7.7-6.2,13.9-13.9,13.9h-5.5c-7.7,0-13.9-6.2-13.9-13.9V87c0-7.7,6.2-13.9,13.9-13.9h5.5
		C266.4,73.2,272.6,79.4,272.6,87z"/>
	<path class="st5" d="M372.3,87V159c0,7.7-6.2,13.9-13.9,13.9H353c-7.7,0-13.9-6.2-13.9-13.9V87c0-7.7,6.2-13.9,13.9-13.9h5.5
		C366.1,73.2,372.3,79.4,372.3,87z"/>
</g>
</svg>
