<?xml version="1.0" encoding="utf-8"?>
<!-- Generator: Adobe Illustrator 27.5.0, SVG Export Plug-In . SVG Version: 6.00 Build 0)  -->
<svg version="1.1" id="Capa_1" xmlns="http://www.w3.org/2000/svg" xmlns:xlink="http://www.w3.org/1999/xlink" x="0px" y="0px"
	 viewBox="0 0 512 512" style="enable-background:new 0 0 512 512;" xml:space="preserve">
<style type="text/css">
	.st0{fill:#FFFFFF;}
	.st1{fill:#1B1B1A;}
	.st2{fill-rule:evenodd;clip-rule:evenodd;fill:#1B1B1A;}
	.st3{fill:#BDBDBD;}
	.st4{fill:url(#SVGID_1_);}
	.st5{fill:#FF5166;}
	.st6{fill:#C5C5C5;}
	.st7{fill:none;}
	.st8{fill-rule:evenodd;clip-rule:evenodd;fill:#FF5166;}
</style>
<g>
	<g>
		<g>
			<path class="st1" d="M439.9,334.1l-88.7-109.4c-1.8-2.2-4.6-3.2-7.5-2.9l-14.1,1.8c5.2-12.9,7.9-25.1,7.9-37.2
				c0-43.5-36-78.8-80.6-79.2H256c-44.8,0-81.3,35.5-81.3,79.2c0,40.9,29.4,76.6,55.4,108.1c2.3,2.7,4.5,5.3,6.6,8l-45.8,9.1
				l-28.4-48.4l10.7-1.5c2.3-0.1,4.5-1.1,6-2.8c1.6-1.8,2.3-4.2,2-6.6c-0.3-2.4-1.6-4.5-3.6-5.9c-1.9-1.3-4.3-1.8-6.6-1.2
				l-93.5,12.9c-2.7,0.4-5.1,2-6.3,4.5c-1.2,2.4-1.2,5.3,0.1,7.8l73,130.1c1.5,2.7,4.3,4.3,7.3,4.3c0.5,0,1-0.1,1.6-0.2l281.5-57.2
				c2.9-0.5,5.3-2.5,6.4-5.3C442.2,339.4,441.7,336.2,439.9,334.1z M418.3,334l-68.2,13.8l-28.9-45.3l61.5-12.4L418.3,334z
				 M182.9,330.1c0.6,0.5,1.3,1,2.1,1.3l44.4,19.8l11.1,19L156,387.3l-26-46.6L182.9,330.1z M321.7,267.8c0.4-2.4-0.4-4.7-1.8-6.5
				l-6.4-8.1c2.4-3.5,4.9-7.4,7.3-11.5l20.4-2.8l29.8,36.7l-52.1,10.5L321.7,267.8z M256.1,321.7c2.6,0,5.2-1.3,6.7-3.4
				c1-1.4,2.2-2.8,3.2-4.2l0.5-0.7l37-7.4l28.9,45.3l-74.7,15.1l-15.4-26.2c-0.9-1.5-2.3-2.7-3.9-3.3l-27.7-12.3l37.5-7.5
				c0.4,0.4,0.7,0.9,1,1.1C250.9,320.5,253.4,321.7,256.1,321.7z M283.1,293.2c6.9-8.4,13.9-17,20.6-25.8l1,1.3l-3.5,20.9
				L283.1,293.2z M269,283.6c-4.3,5.2-8.7,10.7-13,16.1c-4.2-5.3-8.7-10.8-13-16.1c-25.5-31.3-51.8-63.7-51.8-97.1
				c0-34.6,29-62.6,64.7-62.6s64.7,28.1,64.7,62.6C320.8,219.9,294.4,252.3,269,283.6z M173.5,315.1l-52.1,10.4l-29.4-52.4l52.8-7.3
				L173.5,315.1z"/>
		</g>
	</g>
	<path class="st5" d="M256.1,148.9c-21.9,0-39.6,17.8-39.6,39.6s17.8,39.6,39.6,39.6s39.6-17.8,39.6-39.6
		C295.7,166.7,277.9,148.9,256.1,148.9z M279,188.4c0,12.6-10.3,22.9-23,22.9c-12.7,0-23-10.3-23-22.9s10.3-22.9,23-22.9
		C268.7,165.5,279,175.9,279,188.4z"/>
</g>
</svg>
