<?xml version="1.0" encoding="utf-8"?>
<!-- Generator: Adobe Illustrator 27.5.0, SVG Export Plug-In . SVG Version: 6.00 Build 0)  -->
<svg version="1.1" id="Capa_1" xmlns="http://www.w3.org/2000/svg" xmlns:xlink="http://www.w3.org/1999/xlink" x="0px" y="0px"
	 viewBox="0 0 512 512" style="enable-background:new 0 0 512 512;" xml:space="preserve">
<style type="text/css">
	.st0{fill:#00BFB2;}
	.st1{fill:none;}
	.st2{fill:#FFFFFF;}
	.st3{fill-rule:evenodd;clip-rule:evenodd;fill:#00BFB2;}
	.svg-base{stroke:#30363B;stroke-width:0.1828;}
	.st5{fill-rule:evenodd;clip-rule:evenodd;}
	.st6{fill:url(#SVGID_1_);}
	.st7{fill:#FBFBFB;}
</style>
<linearGradient id="SVGID_1_" gradientUnits="userSpaceOnUse" x1="126.2646" y1="-3761.8882" x2="378.1853" y2="-3957.0369" gradientTransform="matrix(1 0 0 -1 0 -3606.387)">
	<stop  offset="0" style="stop-color:#F1F1F1"/>
	<stop  offset="1" style="stop-color:#F1F1F1;stop-opacity:0"/>
</linearGradient>
<path class="st6" d="M198.3,1.2c0.6-1.2,2.1-1.6,3.2-0.7l62.4,53.9c0.7,0.6,1.7,0.7,2.5,0.1l67-48.1c1.1-0.8,2.7-0.3,3.1,1
	l27.1,77.9c0.3,0.9,1.2,1.4,2.1,1.4l82.1-8.1c1.3-0.1,2.4,1.1,2.2,2.4l-15.5,81c-0.2,0.9,0.3,1.8,1.2,2.2l75.1,34
	c1.2,0.6,1.6,2.1,0.7,3.2l-53.9,62.4c-0.6,0.7-0.7,1.7-0.1,2.5l48.1,67c0.8,1.1,0.3,2.7-1,3.1l-77.9,27.1c-0.9,0.3-1.4,1.2-1.4,2.1
	l8.1,82.1c0.1,1.3-1.1,2.4-2.4,2.2l-81-15.5c-0.9-0.2-1.8,0.3-2.2,1.2l-34,75.1c-0.6,1.2-2.1,1.6-3.2,0.7l-62.4-53.9
	c-0.7-0.6-1.7-0.7-2.5-0.1l-67,48.1c-1.1,0.8-2.7,0.3-3.1-1l-27.1-77.9c-0.3-0.9-1.2-1.4-2.1-1.4l-82.1,8.1
	c-1.3,0.1-2.4-1.1-2.2-2.4l15.5-81c0.2-0.9-0.3-1.8-1.2-2.2l-75.1-34c-1.2-0.6-1.6-2.1-0.7-3.2l53.9-62.4c0.6-0.7,0.7-1.7,0.1-2.5
	l-48.1-67c-0.8-1.1-0.3-2.7,1-3.1l77.9-27.1c0.9-0.3,1.4-1.2,1.4-2.1l-8.1-82.1c-0.1-1.3,1.1-2.4,2.4-2.2l81,15.5
	c0.9,0.2,1.8-0.3,2.2-1.2L198.3,1.2z"/>
</svg>
