<?xml version="1.0" encoding="utf-8"?>
<!-- Generator: Adobe Illustrator 27.5.0, SVG Export Plug-In . SVG Version: 6.00 Build 0)  -->
<svg version="1.1" id="Capa_1" xmlns="http://www.w3.org/2000/svg" xmlns:xlink="http://www.w3.org/1999/xlink" x="0px" y="0px"
	 viewBox="0 0 512 512" style="enable-background:new 0 0 512 512;" xml:space="preserve">
<style type="text/css">
	.st0{fill:#00BFB2;}
	.st1{fill:none;}
	.st2{fill:#FFFFFF;}
	.st3{fill-rule:evenodd;clip-rule:evenodd;fill:#00BFB2;}
	.svg-base{stroke:#30363B;stroke-width:0.1828;}
	.st5{fill-rule:evenodd;clip-rule:evenodd;}
	.st6{fill:url(#SVGID_1_);}
	.st7{fill:#FBFBFB;}
</style>
<path class="st0" d="M173.4,203h0.3c14.8,0,24-10.6,24-23.9c-0.3-13.5-9.2-23.9-23.7-23.9c-14.5,0-24,10.3-24,23.9
	C150,192.4,159.2,203,173.4,203z M150,218.9h47.7v137.9H150V218.9z M362,269.3c0-27.8-22.5-50.4-50.4-50.4
	c-16.2,0-30.6,7.7-39.8,19.5v-19.5h-47.7v137.9h47.7v-79.5c0-11.7,9.5-21.2,21.2-21.2c11.7,0,21.2,9.5,21.2,21.2v79.5H362
	C362,356.7,362,277,362,269.3z"/>
</svg>
