<?xml version="1.0" encoding="utf-8"?>
<!-- Generator: Adobe Illustrator 27.5.0, SVG Export Plug-In . SVG Version: 6.00 Build 0)  -->
<svg version="1.1" id="Capa_1" xmlns="http://www.w3.org/2000/svg" xmlns:xlink="http://www.w3.org/1999/xlink" x="0px" y="0px"
	 viewBox="0 0 512 512" style="enable-background:new 0 0 512 512;" xml:space="preserve">
<style type="text/css">
	.svg_base{fill:#343434;}
	.svg_accent{fill:#00BFB2;}
</style>
<g>
	<path  class="svg_base" d="M347.5,128.9l-10,76.3H174.4l-5.2-39.8c-0.9-7-7.6-12-15-11.2c-7.3,0.9-12.6,7.3-11.7,14.3l5.1,36.6h-24.9
		c-7.3,0-13.3,5.7-13.3,12.7v50.9c0,7,5.9,12.7,13.3,12.7h14.1c4.4,38,28.3,71.4,63.8,89l-9.6,63.6h-15.1
		c-7.3,0-13.3,5.7-13.3,12.7s6,12.7,13.3,12.7h159.8c7.3,0,13.3-5.7,13.3-12.7s-6-12.7-13.3-12.7h-15.1l-9.6-63.6
		c35.5-17.7,59.4-51.1,63.8-89h14.1c7.3,0,13.3-5.7,13.3-12.7v-50.9c0-7-6-12.7-13.3-12.7h-24.6l3.4-25.4h21.6
		c7.3,0,13.3-5.7,13.3-12.7s-5.9-12.7-13.3-12.7h-18.2l3.4-25.4L347.5,128.9z M217.7,434.1l8.1-54.5c19.5,4.9,40.1,4.9,59.7,0
		l8.1,54.5H217.7z M255.7,357.8h-0.1c-46.3,0-85.7-32.5-92.2-76.3H348C341.3,325.2,302,357.8,255.7,357.8z M375.8,256H136.1v-25.4
		h239.7V256z"/>
	<path class="svg_accent" d="M389,52.5H122.7c-7.3,0-13.3,5.7-13.3,12.7v50.9c0,7,5.9,12.7,13.3,12.7h266.4c7.3,0,13.2-5.8,13.2-12.7V65.2
		C402.3,58.2,396.4,52.5,389,52.5z M136.1,78h239.7v25.4H136.1V78z"/>
</g>
</svg>
