<svg width="183" height="308" viewBox="0 0 183 308" fill="none" xmlns="http://www.w3.org/2000/svg">
<style type="text/css">
.fill{fill:#f0f0f0;}
</style>
<path class="svg_base" d="M-2.37763 232.682L-29.8144 274.117L-31.3359 307.351L-22.3067 307.732L-20.885 276.78L-3.52498 250.559L3.03491 263.824L0.740192 307.328L9.76939 307.755L12.1639 262.112L-2.37763 232.682Z" class="fill"/>
<path class="svg_base" d="M-0.17809 143.853L-0.4375 154.191L8.61407 154.398L8.87348 144.06L-0.17809 143.853Z" class="fill"/>
<path class="svg_base" d="M11.0448 143.432L10.793 153.771L19.8198 153.97L20.0716 143.632L11.0448 143.432Z" class="fill"/>
<path class="svg_base" d="M11.5367 123.711L11.2344 135.76L20.2859 135.966L20.5883 123.917L11.5367 123.711Z" class="fill"/>
<path class="svg_base" d="M11.9703 105.714L11.7109 116.052L20.7625 116.258L21.0219 105.92L11.9703 105.714Z" class="fill"/>
<path class="svg_base" d="M179.799 252.128L167.128 245.947C167.178 245.591 167.203 245.211 167.178 244.83L154.133 132.6C154.108 132.362 154.058 132.148 154.008 131.934L130.438 50.9647C134.428 48.9916 137.172 45.0929 137.172 40.5285C137.172 34.0148 131.635 28.7373 124.801 28.7373C117.966 28.7373 112.429 34.0148 112.429 40.5523C112.429 45.5683 115.721 49.8236 120.336 51.5352L114.2 131.649C114.2 131.839 114.2 132.005 114.2 132.196L119.313 222.627L115.622 220.82L110.982 104.762C110.982 104.524 110.932 104.263 110.883 104.025L93.0237 23.7213C96.9148 21.7719 99.6335 17.9683 99.7333 13.5229C99.8829 6.9854 94.4454 1.56525 87.5862 1.44638C80.727 1.32752 75.0401 6.48617 74.9154 13.0236C74.8156 17.9208 77.8337 22.1761 82.2485 24.0779L70.2511 101.79C70.2262 102.028 70.2013 102.266 70.2013 102.504L70.5505 122.449L55.4852 113.106V107.329C55.4852 107.329 55.4852 107.187 55.4852 107.116C55.4353 104.738 53.365 102.86 50.8708 102.908C48.3765 102.955 46.4061 104.928 46.4559 107.306V112.773L31.241 121.522L31.5902 102.29C31.5902 102.052 31.5902 101.814 31.5403 101.6L19.3933 22.9368C23.8081 20.9875 26.7763 16.6608 26.5518 11.7399C26.1776 5.39263 20.7402 0.400391 14.1054 0.400391C7.27117 0.400391 1.73392 5.67791 1.73392 12.1916C1.73392 16.9223 4.67714 20.9637 8.89243 22.8655L-7.39506 103.859C-7.44495 104.049 -7.46989 104.239 -7.46989 104.453L-13.9799 222.032L-17.6465 223.744L-12.5083 131.958C-12.5083 131.768 -12.5083 131.601 -12.5083 131.411L-18.5943 52.0107C-14.6534 50.3228 -11.8847 46.543 -11.8598 42.1451C-11.8598 36.1544 -16.9481 31.3048 -23.2086 31.3048C-29.4692 31.3048 -34.5575 36.1544 -34.5575 42.1213C-34.5575 46.1151 -32.2628 49.5621 -28.8956 51.4401L-51.3937 131.744C-51.4436 131.934 -51.4935 132.148 -51.5185 132.338L-65.4863 244.569C-65.5362 245.044 -65.4863 245.496 -65.4115 245.947L-78.1322 251.867L-81.25 307.281L-72.2208 307.732L-69.4023 257.358L53.6145 200.114L171.119 257.477L173.962 307.899L182.992 307.447L179.899 252.081L179.799 252.128ZM124.776 37.3192C126.621 37.3192 128.093 38.7456 128.118 40.5048C128.118 42.2877 126.621 43.6903 124.776 43.6903C122.93 43.6903 121.433 42.2639 121.433 40.5048C121.433 38.7456 122.93 37.3192 124.776 37.3192ZM123.204 131.934L127.669 73.6913L145.179 133.883L157.675 241.312L128.567 227.096L123.204 131.91V131.934ZM87.5114 10.0758H87.6611C89.4569 10.1234 90.8787 11.5497 90.8787 13.2614C90.8787 14.2836 90.3299 15.1394 89.5567 15.7337C89.1077 15.496 88.6338 15.3296 88.11 15.2583C87.1872 15.1394 86.2892 15.2583 85.4911 15.6386C84.8176 15.0681 84.3437 14.2836 84.3188 13.3802C84.2439 11.6211 85.6906 10.1472 87.5364 10.0758H87.5114ZM88.2098 43.8805L101.903 105.38L106.318 216.232L80.9765 203.846L79.1557 102.623L88.2348 43.8567L88.2098 43.8805ZM31.4156 130.65C32.2387 130.65 33.0368 130.436 33.7352 130.032L50.5715 120.333L65.8363 129.795C67.3079 130.722 69.1537 130.674 70.5754 129.89L71.8225 199.401L54.662 191.033L54.238 190.225L53.6145 190.51L52.941 190.177L52.4921 191.033L29.6696 201.659L30.9417 130.603C31.0913 130.603 31.241 130.65 31.3906 130.65H31.4156ZM13.9308 9.02984H14.0805C14.9036 9.02984 15.7267 9.31511 16.3253 9.86188C17.6972 11.0505 17.772 13.0712 16.5249 14.3549C16.1507 14.7353 15.6768 14.9968 15.178 15.1632C15.1281 15.1632 15.0782 15.1156 15.0034 15.1156C14.3299 14.9968 13.6814 15.0205 13.0579 15.1869C11.8606 14.759 10.9876 13.7606 10.8878 12.5006C10.7382 10.7415 12.0851 9.19625 13.9308 9.05361V9.02984ZM0.212425 128.796L0.0128784 136.237L9.0421 136.451L9.3414 124.398L0.436905 124.184L0.860924 116.529L9.516 116.72L9.76543 106.379L1.40967 106.188L1.45956 105.166L13.5318 45.0929L22.3864 102.432L20.5406 204.583C20.5406 205.011 20.6154 205.391 20.7152 205.796L-4.77609 217.658L0.137596 128.749L0.212425 128.796ZM-23.2585 39.958C-21.9865 39.958 -20.9389 40.9564 -20.9389 42.1688C-20.9389 43.1197 -21.5874 43.928 -22.4853 44.237C-23.059 44.1182 -23.6327 44.1182 -24.1814 44.1895C-25.0045 43.8567 -25.5782 43.0722 -25.5782 42.1688C-25.5782 40.9564 -24.5306 39.958 -23.2585 39.958ZM-44.0606 145.009L-35.1312 145.58L-34.4079 135.262L-42.7886 134.739L-42.6638 133.741L-26.0022 74.2856L-21.6123 131.815L-26.9999 228.118L-56.1079 241.668L-44.0856 145.057L-44.0606 145.009Z" class="fill"/>
<path class="svg_base" d="M145.109 250.225L133.535 273.617L135.331 307.921L144.36 307.493L142.664 275.352L146.256 268.102L157.305 284.79L158.353 307.897L167.407 307.54L166.235 282.127L145.109 250.225Z" class="fill"/>
<path class="svg_base" d="M103.995 232.871L89.4531 262.278L91.8476 307.921L100.852 307.517L98.5821 264.013L105.167 250.748L122.502 276.969L123.924 307.897L132.953 307.541L131.431 274.307L103.995 232.871Z" class="fill"/>
<path class="svg_base" d="M147.51 172.381L138.516 173.137L139.469 183.438L148.463 182.682L147.51 172.381Z" class="fill"/>
<path class="svg_base" d="M145.682 152.705L136.688 153.461L137.798 165.467L146.793 164.711L145.682 152.705Z" class="fill"/>
<path class="svg_base" d="M144.021 134.744L135.027 135.502L135.982 145.803L144.977 145.045L144.021 134.744Z" class="fill"/>
<path class="svg_base" d="M136.435 172.442L127.426 173.014L128.147 183.332L137.156 182.76L136.435 172.442Z" class="fill"/>
<path class="svg_base" d="M135.041 152.793L126.031 153.362L126.865 165.365L135.875 164.796L135.041 152.793Z" class="fill"/>
<path class="svg_base" d="M133.799 134.814L124.789 135.381L125.504 145.699L134.514 145.132L133.799 134.814Z" class="fill"/>
<path class="svg_base" d="M101.765 144.073L92.7383 144.274L92.992 154.613L102.019 154.411L101.765 144.073Z" class="fill"/>
<path class="svg_base" d="M101.277 124.364L92.25 124.568L92.5501 136.618L101.577 136.413L101.277 124.364Z" class="fill"/>
<path class="svg_base" d="M100.824 106.355L91.7969 106.561L92.0563 116.899L101.083 116.693L100.824 106.355Z" class="fill"/>
<path class="svg_base" d="M90.5579 143.606L81.5312 143.809L81.7869 154.147L90.8136 153.944L90.5579 143.606Z" class="fill"/>
<path class="svg_base" d="M90.0423 123.884L81.0156 124.088L81.3158 136.137L90.3424 135.933L90.0423 123.884Z" class="fill"/>
<path class="svg_base" d="M89.6361 105.935L80.6094 106.137L80.8631 116.475L89.8899 116.274L89.6361 105.935Z" class="fill"/>
<path class="svg_base" d="M146.762 192.765L137.844 194.109L139.812 205.967L148.73 204.622L146.762 192.765Z" class="fill"/>
<path class="svg_base" d="M140.896 212.545L131.879 212.992L132.675 227.569L141.692 227.121L140.896 212.545Z" class="fill"/>
<path class="svg_base" d="M57.1515 214.52L54.1584 211.168L51.8138 208.553L51.4147 208.863L50.7911 208.363L47.0996 212.357L45.204 214.449L14.7741 247.422L11.6562 307.329L20.6855 307.756L23.6536 250.869L51.1154 221.058L77.9536 251.011L80.9218 307.923L89.951 307.495L86.8332 247.659L57.1515 214.52Z" class="fill"/>
</svg>
