<svg width="204" height="295" viewBox="0 0 204 295" fill="none" xmlns="http://www.w3.org/2000/svg">
<style type="text/css">
.fill{fill:#f0f0f0;}
</style>
<g clip-path="url(#clip0_117_50041)">
<path d="M202.986 103.06C202.037 101.606 200.628 100.717 199.122 100.717H129.4L122.653 66.7006C122.13 63.9938 120.132 62.095 117.872 62.095H63.7057C62.1337 62.095 60.66 63.0242 59.743 64.5594C58.8261 66.0946 58.5313 68.1146 59.0226 69.9729L73.0063 124.917H60.005L61.184 107.302C61.315 105.606 60.8238 103.949 59.9068 102.697C58.9898 101.444 57.6799 100.758 56.3044 100.758H55.3875V17.7763C55.3875 16.0391 54.798 14.4231 53.75 13.2515C52.7021 12.0799 51.2939 11.5143 49.9184 11.7567C27.2562 14.9079 11.0456 23.5939 0.795197 31.0678C0.238464 23.4727 -2.38144 17.0491 -7.03177 12.0395C-22.0635 -4.24167 -53.7971 0.60632 -55.1398 0.84872C-57.5959 1.25272 -59.4299 3.79791 -59.4299 6.8683V67.4682C-75.3785 73.1645 -88.9693 81.4465 -89.9517 82.0525C-91.1307 82.7797 -92.0149 84.0725 -92.4407 85.6077C-92.8336 87.1429 -92.7354 88.8397 -92.1132 90.2941L-77.409 125.159C-119.327 127.3 -134.195 152.187 -134.85 153.318C-135.538 154.53 -135.833 155.984 -135.735 157.439L-134.752 169.316C-145.101 173.114 -155.973 178.689 -166.486 186.971C-173.723 192.869 -181.714 196.909 -190.163 198.97C-200.381 201.273 -214.757 202.202 -225.466 193.677C-226.973 192.465 -228.905 192.385 -230.477 193.435C-232.049 194.485 -233.031 196.546 -233.031 198.768V288.981C-233.031 292.334 -230.837 295.041 -228.119 295.041H-80.3891C-80.3891 295.041 -80.3236 295.041 -80.2581 295.041H-15.1862C-15.1862 295.041 -15.1535 295.041 -15.1207 295.041H174.462C175.805 295.041 177.049 294.394 177.999 293.223C178.916 292.051 179.407 290.476 179.374 288.819C178.163 237.027 203.608 109.605 203.838 108.312C204.198 106.494 203.838 104.596 202.954 103.101L202.986 103.06ZM91.4767 156.994L86.4006 137.037H103.594V137.36H112.96V141.117H97.5352V153.237H112.96V153.601L96.5854 156.994H91.4767ZM122.784 141.117V137.36H126.518L127.271 141.117H122.784ZM119.346 125.24C118.887 125.038 118.396 124.917 117.872 124.917H93.1468C100.548 117.079 110.176 112.554 120.328 112.837H121.671L124.127 125.2H119.346V125.24ZM114.008 74.2149L119.28 100.758C104.936 100.879 91.6076 108.434 82.307 121.038L70.3864 74.2149H114.008ZM73.7268 137.037C73.3665 138.047 72.9736 139.016 72.6461 140.026C72.5151 140.39 72.4496 140.794 72.3841 141.198L52.1781 282.84H49.3289L59.1863 137.037H73.7268ZM-115.332 282.84L-124.109 178.325C-110.125 174.285 -97.6805 173.397 -89.8535 172.871C-88.2161 172.75 -86.6769 172.669 -85.2687 172.508V195.091H-92.7681V207.211H-85.2687V210.969H-104.885V223.089H-85.2687V226.846H-117.002V238.966H-85.2687V242.723H-104.885V254.843H-85.2687V258.6H-92.7681V270.72H-85.2687V282.88H-115.299L-115.332 282.84ZM-56.9409 147.42L-61.3293 136.996H-20.033V174.891H-30.0214V163.297H-50.2602L-51.8321 159.54H-46.9853V147.42H-56.9409ZM-8.96393 174.851H-10.2084V136.956H-8.96393V174.851ZM-61.3293 163.256H-68.534V175.376H-56.2205L-54.6485 179.133H-75.4768V164.792C-75.4768 162.529 -76.492 160.55 -77.9984 159.54H-62.934L-61.362 163.297L-61.3293 163.256ZM-75.4768 270.599H-54.2555V258.479H-75.4768V254.722H-66.3726V242.602H-75.4768V222.967H-66.3726V210.847H-75.4768V207.09H-54.2555V194.97H-75.4768V191.213H-42.1385V186.931H-20.033V282.759H-75.4768V270.599ZM-10.2084 186.931H-8.96393V282.759H-10.2084V186.931ZM0.860718 248.379H15.6632V282.759H0.860718V248.379ZM0.860718 236.259V232.502H15.6632V236.259H0.860718ZM0.860718 220.382V216.625H15.6632V220.382H0.860718ZM0.860718 204.505V200.747H15.6632V204.505H0.860718ZM0.860718 188.627V186.931H15.6632V188.627H0.860718ZM0.860718 172.75V168.993H15.6632V172.75H0.860718ZM0.860718 156.873V153.116H15.6632V156.873H0.860718ZM0.860718 140.996V130.856C0.860718 127.502 -1.33347 124.796 -4.05161 124.796H-10.2084V124.351C-9.91367 124.432 -9.58617 124.472 -9.25868 124.472H15.6959V140.996H0.893448H0.860718ZM-49.6052 76.7197C-40.9268 74.2553 -32.4121 73.1645 -26.0261 75.1037C-24.2576 76.7601 -20.2295 80.1537 -14.2038 82.8201V100.636H-49.6052V76.7197ZM15.6632 100.636H0.860718V86.4965C5.31454 86.8197 10.2269 86.4965 15.6632 85.2845V100.636ZM25.4878 124.472H50.1476V124.796H25.4878V124.472ZM45.4973 100.636H25.4878V77.6893C25.4878 75.7905 24.7673 74.0129 23.5556 72.8817C23.2609 72.5989 22.9334 72.3969 22.6059 72.1949H42.6809V60.075H4.16832V72.1949H18.1193C11.5696 74.2553 5.80579 74.7805 0.860718 74.3765V45.2482C8.62218 38.663 23.3264 28.8458 45.4973 24.6039V100.636ZM-49.638 50.783H-17.7406V38.663H-49.638V29.9366H-17.7406V17.8167H-49.638V12.2819C-39.7151 11.4739 -21.8997 12.0395 -13.5815 21.0487C-10.4704 24.4019 -8.96393 28.6843 -8.96393 34.1786V39.1478C-11.3218 41.4506 -12.5991 43.0262 -12.7956 43.309C-13.6798 44.4402 -14.2038 45.9754 -14.2038 47.551V69.8518C-18.1336 67.6298 -20.2623 65.3674 -20.4588 65.1654C-21.0155 64.5594 -21.6377 64.115 -22.3582 63.8726C-30.1524 61.0446 -39.9443 61.9334 -49.6052 64.3978V50.8234L-49.638 50.783ZM-59.4626 80.0325V106.696C-59.4626 110.05 -57.2684 112.756 -54.5503 112.756H-20.0658V124.796H-66.4709L-81.0768 90.1325C-75.5095 87.0217 -67.748 83.1837 -59.4626 80.0325ZM-125.779 158.651C-121.784 153.439 -106.49 137.198 -72.4311 136.956L-68.0428 147.379H-85.5307V159.499H-82.7143C-82.9762 159.661 -83.271 159.822 -83.5002 160.065C-84.9412 160.307 -87.8231 160.509 -90.443 160.711C-98.4337 161.277 -110.911 162.166 -125.157 166.125L-125.779 158.691V158.651ZM-223.174 208.545C-211.352 214.12 -198.121 213.069 -188.296 210.847C-178.537 208.464 -169.368 203.818 -161.115 197.111C-152.109 190.001 -142.743 185.072 -133.704 181.598L-125.222 282.88H-223.174V208.545ZM25.5206 282.88V248.5H37.8669V236.38H25.5206V232.623H37.8669V220.503H25.5206V216.746H37.8669V204.626H25.5206V200.869H37.8669V188.749H25.5206V184.991H37.8669V172.871H25.5206V169.114H37.8669V156.994H25.5206V153.237H37.8669V141.117H25.5206V137.037H49.3289L39.4715 282.84H25.5206V282.88ZM62.1664 282.88L80.5058 154.368L83.6497 166.65C84.3047 169.195 86.2041 170.892 88.3328 170.892C88.5948 170.892 88.8895 170.892 89.1515 170.811L97.4369 169.114H112.96V172.871H89.0532V184.991H112.96V188.749H86.6298V200.869H112.96V204.626H81.783V216.746H112.96V220.503H79.3596V232.623H112.96V236.38H79.3596V248.5H112.96V282.88H62.1664ZM169.55 282.88H122.784V248.5H156.385V236.38H122.784V232.623H156.385V220.503H122.784V216.746H158.808V204.626H122.784V200.869H163.655V188.749H122.784V184.991H166.078V172.871H122.784V169.114H168.502V156.994H139.781C140.043 155.944 140.109 154.813 139.879 153.722L139.781 153.237H174.56V141.117H137.39L136.637 137.36H180.619V125.24H134.247L131.79 112.878H192.867C187.562 140.269 170.074 234.077 169.55 282.88Z" class="fill"/>
<path d="M42.7157 44.2783H4.20312V56.3983H42.7157V44.2783Z" class="fill"/>
<path d="M115.415 83.9902H76.9023V96.1102H115.415V83.9902Z" class="fill"/>
</g>
<defs>
<clipPath id="clip0_117_50041">
<rect width="437" height="295" fill="white" transform="translate(-233)"/>
</clipPath>
</defs>
</svg>
