<svg width="372" height="503" viewBox="0 0 372 503" fill="none" xmlns="http://www.w3.org/2000/svg">
<path d="M195.706 -1.76132C196.257 -2.97864 197.824 -3.32308 198.835 -2.44917L260.393 50.7601C261.092 51.3646 262.115 51.4111 262.866 50.8726L329.001 3.47188C330.087 2.69336 331.616 3.17868 332.055 4.44102L358.761 81.3006C359.064 82.1737 359.926 82.7252 360.846 82.6345L441.821 74.6516C443.151 74.5204 444.233 75.7055 443.981 77.018L428.68 156.933C428.506 157.841 428.977 158.75 429.819 159.131L503.936 192.705C505.153 193.257 505.498 194.824 504.624 195.835L451.415 257.393C450.81 258.092 450.764 259.115 451.302 259.866L498.703 326C499.481 327.087 498.996 328.616 497.734 329.055L420.874 355.761C420.001 356.064 419.45 356.926 419.54 357.846L427.523 438.821C427.655 440.151 426.469 441.233 425.157 440.981L345.242 425.68C344.334 425.506 343.425 425.977 343.044 426.819L309.47 500.936C308.919 502.154 307.351 502.498 306.34 501.624L244.783 448.415C244.083 447.81 243.061 447.764 242.31 448.302L176.175 495.703C175.089 496.482 173.559 495.996 173.121 494.734L146.415 417.874C146.111 417.001 145.249 416.45 144.329 416.54L63.3549 424.523C62.025 424.655 60.943 423.47 61.1944 422.157L76.4959 342.242C76.6698 341.334 76.1988 340.425 75.3569 340.044L1.23948 306.47C0.0221666 305.918 -0.32228 304.351 0.551629 303.34L53.7608 241.782C54.3653 241.083 54.4118 240.06 53.8733 239.309L6.47267 173.175C5.69415 172.088 6.17947 170.559 7.44182 170.12L84.3012 143.414C85.1744 143.111 85.7258 142.249 85.6352 141.329L77.6522 60.3542C77.5211 59.0243 78.7061 57.9423 80.0187 58.1937L159.934 73.4953C160.842 73.6691 161.75 73.1982 162.132 72.3562L195.706 -1.76132Z" fill="url(#paint0_linear_1210_65310)"/>
<path d="M182.404 272.518C182.955 271.3 184.522 270.956 185.533 271.83L197.504 282.178C198.204 282.782 199.226 282.828 199.977 282.29L212.839 273.072C213.925 272.293 215.454 272.779 215.893 274.041L221.086 288.988C221.39 289.861 222.252 290.413 223.172 290.322L238.919 288.77C240.249 288.638 241.331 289.823 241.08 291.136L238.104 306.677C237.93 307.585 238.401 308.494 239.243 308.875L253.657 315.404C254.874 315.956 255.218 317.523 254.344 318.534L243.997 330.505C243.392 331.204 243.346 332.227 243.884 332.978L253.102 345.839C253.881 346.926 253.396 348.455 252.133 348.894L237.186 354.087C236.313 354.391 235.762 355.253 235.852 356.173L237.405 371.92C237.536 373.25 236.351 374.332 235.038 374.08L219.497 371.105C218.589 370.931 217.681 371.402 217.299 372.244L210.77 386.657C210.219 387.875 208.652 388.219 207.64 387.345L195.669 376.998C194.97 376.393 193.948 376.347 193.196 376.885L180.335 386.103C179.249 386.882 177.719 386.396 177.281 385.134L172.087 370.187C171.784 369.314 170.922 368.762 170.002 368.853L154.255 370.406C152.925 370.537 151.843 369.352 152.094 368.039L155.07 352.498C155.244 351.59 154.773 350.681 153.931 350.3L139.517 343.771C138.3 343.219 137.955 341.652 138.829 340.641L149.177 328.67C149.781 327.971 149.828 326.948 149.289 326.197L140.071 313.336C139.293 312.25 139.778 310.72 141.041 310.281L155.987 305.088C156.861 304.785 157.412 303.922 157.321 303.003L155.769 287.255C155.638 285.925 156.823 284.843 158.135 285.095L173.677 288.07C174.584 288.244 175.493 287.773 175.874 286.931L182.404 272.518Z" fill="#30363B"/>
<path d="M218.808 330.209L210.053 325.767L201.165 343.285L183.65 334.398L179.208 343.153L205.479 356.481L218.808 330.209Z" fill="#FF5166"/>
<path d="M214.599 317.328L188.329 304L174.999 330.272L183.754 334.714L192.642 317.197L210.157 326.083L214.599 317.328Z" fill="white"/>
<defs>
<linearGradient id="paint0_linear_1210_65310" x1="47.5005" y1="250" x2="296.001" y2="442.5" gradientUnits="userSpaceOnUse">
<stop stop-color="#F4F4F4"/>
<stop offset="1" stop-color="#F4F4F4" stop-opacity="0"/>
</linearGradient>
</defs>
</svg>
