<svg width="147" height="144" viewBox="0 0 147 144" fill="none" xmlns="http://www.w3.org/2000/svg">
<path d="M56.9364 53.7288H63.3358C64.2957 53.7288 64.9363 53.0892 64.9363 52.1283V40.9286C64.9363 39.9688 64.2968 39.3281 63.3358 39.3281H56.9364C55.9766 39.3281 55.3359 39.9676 55.3359 40.9286V52.1283C55.3359 53.0881 55.9766 53.7288 56.9364 53.7288ZM58.5369 42.5279H61.7366V50.5279H58.5369V42.5279Z" fill="black"/>
<path d="M71.3348 53.7288H77.7343C78.6941 53.7288 79.3347 53.0892 79.3347 52.1283V40.9286C79.3347 39.9688 78.6952 39.3281 77.7343 39.3281H71.3348C70.375 39.3281 69.7344 39.9676 69.7344 40.9286V52.1283C69.7355 53.0881 70.375 53.7288 71.3348 53.7288ZM72.9353 42.5279H76.135V50.5279H72.9353V42.5279Z" fill="black"/>
<path d="M108.136 72.9286C108.136 71.9688 107.496 71.3281 106.535 71.3281H100.136C99.1758 71.3281 98.5352 71.9676 98.5352 72.9286V84.1283C98.5352 85.0881 99.1747 85.7288 100.136 85.7288H106.535C107.495 85.7288 108.136 85.0892 108.136 84.1283V72.9286ZM104.936 82.528H101.736V74.528H104.936V82.528Z" fill="black"/>
<path d="M114.534 71.3281C113.574 71.3281 112.934 71.9676 112.934 72.9286V84.1283C112.934 85.0881 113.573 85.7288 114.534 85.7288H120.933C121.893 85.7288 122.534 85.0892 122.534 84.1283V72.9286C122.534 71.9688 121.894 71.3281 120.933 71.3281H114.534ZM119.333 82.5278H116.133V74.5278H119.333V82.5278Z" fill="black"/>
<path d="M108.136 93.7255C108.136 92.7656 107.496 92.125 106.535 92.125H100.136C99.1758 92.125 98.5352 92.7645 98.5352 93.7255V104.925C98.5352 105.885 99.1747 106.526 100.136 106.526H106.535C107.495 106.526 108.136 105.886 108.136 104.925V93.7255ZM104.936 103.325H101.736V95.3249H104.936V103.325Z" fill="black"/>
<path d="M106.535 112.926H100.136C99.1758 112.926 98.5352 113.565 98.5352 114.526V125.726C98.5352 126.686 99.1747 127.326 100.136 127.326H106.535C107.495 127.326 108.136 126.687 108.136 125.726V114.526C108.134 113.565 107.495 112.926 106.535 112.926ZM104.935 124.125H101.735V116.125H104.935V124.125Z" fill="black"/>
<path d="M23.3358 50.5234H16.9364C15.9766 50.5234 15.3359 51.163 15.3359 52.1239V63.3236C15.3359 64.2834 15.9755 64.9241 16.9364 64.9241H23.3358C24.2957 64.9241 24.9363 64.2846 24.9363 63.3236V52.1239C24.9363 51.1641 24.2968 50.5234 23.3358 50.5234ZM21.7365 61.7243H18.5368V53.7243H21.7365V61.7243Z" fill="black"/>
<path d="M37.7343 50.5234H31.3348C30.375 50.5234 29.7344 51.163 29.7344 52.1239V63.3236C29.7344 64.2834 30.3739 64.9241 31.3348 64.9241H37.7343C38.6941 64.9241 39.3347 64.2846 39.3347 63.3236V52.1239C39.3336 51.1641 38.6941 50.5234 37.7343 50.5234ZM36.1338 61.7243H32.9341V53.7243H36.1338V61.7243Z" fill="black"/>
<path d="M23.3358 71.3281H16.9364C15.9766 71.3281 15.3359 71.9676 15.3359 72.9286V84.1283C15.3359 85.0881 15.9755 85.7288 16.9364 85.7288H23.3358C24.2957 85.7288 24.9363 85.0892 24.9363 84.1283V72.9286C24.9363 71.9688 24.2968 71.3281 23.3358 71.3281ZM21.7365 82.5278H18.5368V74.5278H21.7365V82.5278Z" fill="black"/>
<path d="M37.7343 71.3281H31.3348C30.375 71.3281 29.7344 71.9676 29.7344 72.9286V84.1283C29.7344 85.0881 30.3739 85.7288 31.3348 85.7288H37.7343C38.6941 85.7288 39.3347 85.0892 39.3347 84.1283V72.9286C39.3336 71.9688 38.6941 71.3281 37.7343 71.3281ZM36.1338 82.5278H32.9341V74.5278H36.1338V82.5278Z" fill="black"/>
<path d="M23.3358 92.125H16.9364C15.9766 92.125 15.3359 92.7645 15.3359 93.7255V104.925C15.3359 105.885 15.9755 106.526 16.9364 106.526H23.3358C24.2957 106.526 24.9363 105.886 24.9363 104.925V93.7255C24.9363 92.7645 24.2968 92.125 23.3358 92.125ZM21.7365 103.325H18.5368V95.3247H21.7365V103.325Z" fill="black"/>
<path d="M37.7343 92.125H31.3348C30.375 92.125 29.7344 92.7645 29.7344 93.7255V104.925C29.7344 105.885 30.3739 106.526 31.3348 106.526H37.7343C38.6941 106.526 39.3347 105.886 39.3347 104.925V93.7255C39.3336 92.7645 38.6941 92.125 37.7343 92.125ZM36.1338 103.325H32.9341V95.3247H36.1338V103.325Z" fill="black"/>
<path d="M23.3358 112.926H16.9364C15.9766 112.926 15.3359 113.565 15.3359 114.526V125.726C15.3359 126.686 15.9755 127.326 16.9364 127.326H23.3358C24.2957 127.326 24.9363 126.687 24.9363 125.726V114.526C24.9363 113.565 24.2968 112.926 23.3358 112.926ZM21.7365 124.125H18.5368V116.125H21.7365V124.125Z" fill="black"/>
<path d="M37.7343 112.926H31.3348C30.375 112.926 29.7344 113.565 29.7344 114.526V125.726C29.7344 126.686 30.3739 127.326 31.3348 127.326H37.7343C38.6941 127.326 39.3347 126.687 39.3347 125.726V114.526C39.3336 113.565 38.6941 112.926 37.7343 112.926ZM36.1338 124.125H32.9341V116.125H36.1338V124.125Z" fill="black"/>
<path d="M56.9364 74.5256H63.3358C64.2957 74.5256 64.9363 73.8861 64.9363 72.9252V61.7255C64.9363 60.7656 64.2968 60.125 63.3358 60.125H56.9364C55.9766 60.125 55.3359 60.7645 55.3359 61.7255V72.9252C55.3359 73.8861 55.9766 74.5256 56.9364 74.5256ZM58.5369 63.3259H61.7366V71.3259H58.5369V63.3259Z" fill="black"/>
<path d="M71.3348 74.5256H77.7343C78.6941 74.5256 79.3347 73.8861 79.3347 72.9252V61.7255C79.3347 60.7656 78.6952 60.125 77.7343 60.125H71.3348C70.375 60.125 69.7344 60.7645 69.7344 61.7255V72.9252C69.7355 73.8861 70.375 74.5256 71.3348 74.5256ZM72.9353 63.3259H76.135V71.3259H72.9353V63.3259Z" fill="black"/>
<path d="M56.9364 95.3264H63.3358C64.2957 95.3264 64.9363 94.6869 64.9363 93.726V82.5262C64.9363 81.5664 64.2968 80.9258 63.3358 80.9258H56.9364C55.9766 80.9258 55.3359 81.5653 55.3359 82.5262V93.726C55.3359 94.6869 55.9766 95.3264 56.9364 95.3264ZM58.5369 84.1267H61.7366V92.1267H58.5369V84.1267Z" fill="black"/>
<path d="M71.3348 95.3264H77.7343C78.6941 95.3264 79.3347 94.6869 79.3347 93.726V82.5262C79.3347 81.5664 78.6952 80.9258 77.7343 80.9258H71.3348C70.375 80.9258 69.7344 81.5653 69.7344 82.5262V93.726C69.7355 94.6869 70.375 95.3264 71.3348 95.3264ZM72.9353 84.1267H76.135V92.1267H72.9353V84.1267Z" fill="black"/>
<path d="M85.7372 53.7288H92.1366C93.0964 53.7288 93.7371 53.0892 93.7371 52.1283V40.9286C93.7371 39.9688 93.0976 39.3281 92.1366 39.3281H85.7372C84.7773 39.3281 84.1367 39.9676 84.1367 40.9286V52.1283C84.1367 53.0881 84.7773 53.7288 85.7372 53.7288ZM87.3365 42.5279H90.5362V50.5279H87.3365V42.5279Z" fill="black"/>
<path d="M56.9364 32.9241H63.3358C64.2957 32.9241 64.9363 32.2846 64.9363 31.3236V20.1239C64.9363 19.1641 64.2968 18.5234 63.3358 18.5234H56.9364C55.9766 18.5234 55.3359 19.163 55.3359 20.1239V31.3236C55.3359 32.2834 55.9766 32.9241 56.9364 32.9241ZM58.5369 21.7244H61.7366V29.7244H58.5369V21.7244Z" fill="black"/>
<path d="M71.3348 32.9241H77.7343C78.6941 32.9241 79.3347 32.2846 79.3347 31.3236V20.1239C79.3347 19.1641 78.6952 18.5234 77.7343 18.5234H71.3348C70.375 18.5234 69.7344 19.163 69.7344 20.1239V31.3236C69.7355 32.2834 70.375 32.9241 71.3348 32.9241ZM72.9353 21.7244H76.135V29.7244H72.9353V21.7244Z" fill="black"/>
<path d="M85.7372 32.9241H92.1366C93.0964 32.9241 93.7371 32.2846 93.7371 31.3236V20.1239C93.7371 19.1641 93.0976 18.5234 92.1366 18.5234H85.7372C84.7773 18.5234 84.1367 19.163 84.1367 20.1239V31.3236C84.1367 32.2834 84.7773 32.9241 85.7372 32.9241ZM87.3365 21.7244H90.5362V29.7244H87.3365V21.7244Z" fill="black"/>
<path d="M146.216 110.526C146.216 101.405 138.855 94.0457 129.736 94.0457C120.615 94.0457 113.256 101.406 113.256 110.526C113.256 119.006 119.816 126.046 128.135 126.846V133.727H92.1351V63.3266H128.935V88.9272C128.935 89.887 129.575 90.5276 130.536 90.5276C131.495 90.5276 132.136 89.8881 132.136 88.9272L132.135 61.7274C132.135 60.7676 131.495 60.127 130.534 60.127H104.935V8.92698C104.935 7.96715 104.296 7.32652 103.335 7.32652H100.135V2.52624C100.135 1.56641 99.4953 0.925781 98.5344 0.925781L50.5343 0.926897C49.5745 0.926897 48.9339 1.56641 48.9339 2.52735V7.32764H45.7342C44.7743 7.32764 44.1337 7.96715 44.1337 8.9281V40.9281L8.93366 40.927C7.97383 40.927 7.3332 41.5665 7.3332 42.5274V133.727H2.53405C1.57422 133.727 0.933594 134.367 0.933594 135.328V141.727C0.933594 142.687 1.57311 143.328 2.53405 143.328H136.934C137.894 143.328 138.535 142.688 138.535 141.727V135.328C138.535 134.368 137.895 133.727 136.934 133.727H131.334V126.848C139.654 126.047 146.214 119.007 146.214 110.527L146.216 110.526ZM116.456 110.526C116.456 103.165 122.375 97.2457 129.736 97.2457C137.096 97.2457 143.016 103.165 143.016 110.526C143.016 117.886 137.096 123.806 129.736 123.806C122.375 123.806 116.456 117.886 116.456 110.526ZM52.1356 4.12572H96.9357V7.32544H52.1356V4.12572ZM47.3353 10.5252H101.735V60.1252H90.5357C89.5758 60.1252 88.9352 60.7647 88.9352 61.7256V133.726H79.3346L79.3357 106.525C79.3357 105.565 78.6962 104.924 77.7353 104.924L56.9361 104.925C55.9763 104.925 55.3357 105.565 55.3357 106.526V133.726H47.3356L47.3353 10.5252ZM76.1354 133.725H58.5359V108.125H76.1365L76.1354 133.725ZM10.5353 44.1252H44.1353V133.725H10.5353V44.1252ZM135.335 140.125H4.13528V136.925H135.335V140.125Z" fill="black"/>
</svg>
