<svg width="203" height="153" viewBox="0 0 203 153" fill="none" xmlns="http://www.w3.org/2000/svg">
<path class="svg_base" d="M172.447 67.2983C176.064 62.0872 178.711 56.1011 178.711 49.2139C178.711 31.7597 164.938 17.4561 148.119 17.4561C131.3 17.4561 117.528 31.7597 117.528 49.2139C117.528 56.1074 120.18 62.0872 123.798 67.2983C105.88 77.8654 93.7344 98.7915 93.7344 123.316C93.7344 127.21 96.7814 130.373 100.532 130.373H195.706C199.463 130.373 202.504 127.21 202.504 123.316C202.504 98.7915 190.364 77.8654 172.447 67.2983ZM108.29 116.258C110.651 96.7815 121.825 81.2428 136.544 76.0065C138.966 75.1495 140.72 72.9441 141.072 70.3166C141.43 67.6827 140.338 65.0677 138.238 63.5428C133.922 60.3229 131.124 55.137 131.124 49.2076C131.124 39.3841 138.65 31.5644 148.119 31.5644C157.588 31.5644 165.114 39.3841 165.114 49.2076C165.114 55.137 162.316 60.3229 157.995 63.5428C155.901 65.0677 154.802 67.6827 155.16 70.3166C155.518 72.9441 157.272 75.1432 159.694 76.0065C174.407 81.2365 185.588 96.7752 187.949 116.258H108.284H108.29Z" fill="#FF5166"/>
<path class="svg_base" d="M79.2162 67.2983C82.8337 62.0872 85.4801 56.1011 85.4801 49.2139C85.4801 31.7597 71.7079 17.4561 54.8887 17.4561C38.0695 17.4561 24.2973 31.7597 24.2973 49.2139C24.2973 56.1074 26.9497 62.0872 30.5673 67.2983C12.6494 77.8654 0.503906 98.7915 0.503906 123.316C0.503906 127.21 3.55092 130.373 7.30201 130.373H102.475C106.233 130.373 109.273 127.21 109.273 123.316C109.273 98.7915 97.134 77.8654 79.2162 67.2983ZM15.0591 116.258C17.4203 96.7815 28.5946 81.2428 43.3137 76.0065C45.7355 75.1495 47.4897 72.9441 47.8417 70.3166C48.1998 67.6827 47.1073 65.0677 45.0072 63.5428C40.6916 60.3229 37.8935 55.137 37.8935 49.2076C37.8935 39.3841 45.4199 31.5644 54.8887 31.5644C64.3575 31.5644 71.8839 39.3841 71.8839 49.2076C71.8839 55.137 69.0858 60.3229 64.7641 63.5428C62.6701 65.0677 61.5715 67.6827 61.9296 70.3166C62.2877 72.9441 64.0419 75.1432 66.4637 76.0065C81.1767 81.2365 92.3571 96.7752 94.7183 116.258H15.0531H15.0591Z" fill="#121212"/>
</svg>
