<svg width="153" height="129" viewBox="0 0 153 129" fill="none" xmlns="http://www.w3.org/2000/svg">
<path d="M104.294 58.2578C108.352 52.5814 111.32 46.0608 111.32 38.5586C111.32 19.5458 95.8729 3.96484 77.0078 3.96484C58.1427 3.96484 42.6953 19.5458 42.6953 38.5586C42.6953 46.0676 45.6704 52.5814 49.728 58.2578C29.6307 69.7685 16.0078 92.5633 16.0078 119.277C16.0078 123.519 19.4255 126.965 23.6328 126.965H130.383C134.597 126.965 138.008 123.519 138.008 119.277C138.008 92.5633 124.392 69.7685 104.294 58.2578ZM32.3335 111.59C34.9818 90.3737 47.5154 73.4475 64.0249 67.7436C66.7413 66.8102 68.7088 64.4078 69.1037 61.5456C69.5053 58.6765 68.2799 55.828 65.9243 54.167C61.0838 50.6595 57.9453 45.0106 57.9453 38.5517C57.9453 27.851 66.3873 19.333 77.0078 19.333C87.6283 19.333 96.0703 27.851 96.0703 38.5517C96.0703 45.0106 92.9318 50.6595 88.0845 54.167C85.7357 55.828 84.5035 58.6765 84.9051 61.5456C85.3068 64.4078 87.2743 66.8033 89.9907 67.7436C106.493 73.4406 119.034 90.3669 121.682 111.59H32.3267H32.3335Z" fill="#121212"/>
</svg>
