<svg width="153" height="129" viewBox="0 0 153 129" fill="none" xmlns="http://www.w3.org/2000/svg">
<g clip-path="url(#clip0_314_13831)">
<path class="svg_base" d="M54.1123 12.9593C60.8872 9.40803 68.5893 7.37209 76.7735 7.37209C84.9578 7.37209 92.6629 9.40803 99.4347 12.9593C101.138 13.8425 103.233 13.1762 104.114 11.4688C104.995 9.7613 104.33 7.66028 102.627 6.77711C94.8975 2.72381 86.0951 0.430664 76.7766 0.430664C67.4581 0.430664 58.6557 2.72071 50.9227 6.77401C49.2197 7.65718 48.5552 9.7582 49.4361 11.4657C50.3169 13.1731 52.4094 13.8394 54.1154 12.9562L54.1123 12.9593Z" fill="#FF5166"/>
<path class="svg_base" d="M56.0068 55.961C56.0068 43.9003 49.8223 33.6091 40.6985 28.4123C42.5406 25.8495 43.8912 22.9056 43.8912 19.5186C43.8912 10.9348 36.8753 3.90039 28.314 3.90039C19.7527 3.90039 12.7367 10.9348 12.7367 19.5186C12.7367 22.9087 14.0843 25.8495 15.9264 28.4123C6.80254 33.6091 0.621094 43.9003 0.621094 55.961C0.621094 57.8761 2.16955 59.4318 4.0827 59.4318H52.5452C54.4553 59.4318 56.0068 57.8761 56.0068 55.961ZM8.02955 52.4903C9.23185 42.9118 14.925 35.27 22.4169 32.6949C23.6501 32.2735 24.5433 31.1889 24.7256 29.8966C24.908 28.6013 24.3517 27.3153 23.2823 26.5654C21.0817 24.9819 19.6569 22.4315 19.6569 19.5155C19.6569 14.6844 23.4893 10.8387 28.3109 10.8387C33.1324 10.8387 36.9649 14.6844 36.9649 19.5155C36.9649 22.4315 35.5401 24.9819 33.3426 26.5654C32.2732 27.3153 31.7169 28.6013 31.8992 29.8966C32.0816 31.1889 32.9748 32.2704 34.2049 32.6949C41.6999 35.2669 47.3899 42.9087 48.5922 52.4903H8.02955Z" fill="#121212"/>
<path class="svg_base" d="M137.623 28.4123C139.466 25.8495 140.813 22.9056 140.813 19.5186C140.813 10.9348 133.8 3.90039 125.236 3.90039C116.671 3.90039 109.659 10.9348 109.659 19.5186C109.659 22.9087 111.009 25.8495 112.851 28.4123C103.728 33.6091 97.543 43.9003 97.543 55.961C97.543 57.8761 99.0945 59.4318 101.005 59.4318H149.467C151.38 59.4318 152.929 57.8761 152.929 55.961C152.929 43.9003 146.747 33.6091 137.623 28.4123ZM104.955 52.4903C106.157 42.9118 111.847 35.27 119.342 32.6949C120.575 32.2735 121.468 31.1889 121.648 29.8966C121.83 28.6013 121.274 27.3153 120.204 26.5654C118.007 24.9819 116.582 22.4315 116.582 19.5155C116.582 14.6844 120.414 10.8387 125.236 10.8387C130.057 10.8387 133.89 14.6844 133.89 19.5155C133.89 22.4315 132.465 24.9819 130.264 26.5654C129.198 27.3153 128.639 28.6013 128.821 29.8966C129.003 31.1889 129.897 32.2704 131.13 32.6949C138.622 35.2669 144.315 42.9087 145.517 52.4903H104.951H104.955Z" fill="#121212"/>
<path class="svg_base" d="M50.1681 101.948C50.6843 101.186 50.879 100.25 50.7059 99.3421C50.5328 98.4372 50.0105 97.6377 49.2502 97.1202C39.1652 90.2407 31.8031 79.7046 29.0214 67.4022C28.6783 65.7443 27.1948 64.5761 25.5042 64.6349C24.4657 64.6721 23.4952 65.1741 22.8647 66.0046C22.2342 66.8351 22.0117 67.9073 22.2589 68.9207C25.4331 82.9708 33.8429 95.0192 45.3528 102.869C46.1131 103.386 47.0465 103.581 47.9521 103.408C48.8546 103.237 49.652 102.711 50.1681 101.948Z" fill="#FF5166"/>
<path class="svg_base" d="M127.62 64.6375C126.096 64.7739 124.841 65.8988 124.535 67.4048C121.754 79.7072 114.392 90.2433 104.306 97.1228C103.546 97.6403 103.021 98.4398 102.851 99.3447C102.678 100.25 102.872 101.188 103.389 101.951C103.905 102.713 104.702 103.24 105.605 103.41C106.507 103.584 107.444 103.389 108.204 102.871C119.714 95.0218 128.124 82.9734 131.298 68.9233C131.564 67.8325 131.292 66.6828 130.559 65.8306C129.83 64.9784 128.732 64.5353 127.62 64.6375Z" fill="#FF5166"/>
<path class="svg_base" d="M89.1578 97.8263C90.9999 95.2636 92.3474 92.3197 92.3474 88.9327C92.3474 80.3488 85.3315 73.3145 76.7702 73.3145C68.2089 73.3145 61.1929 80.3488 61.1929 88.9327C61.1929 92.3228 62.5405 95.2636 64.3826 97.8263C55.2588 103.023 49.0742 113.314 49.0742 125.375C49.0742 127.29 50.6258 128.846 52.5358 128.846H100.998C102.912 128.846 104.46 127.29 104.46 125.375C104.46 113.314 98.2754 103.023 89.1516 97.8263H89.1578ZM56.4889 121.904C57.6912 112.326 63.3843 104.684 70.8762 102.109C72.1094 101.688 73.0026 100.603 73.1819 99.3107C73.3642 98.0154 72.8079 96.7294 71.7416 95.9794C69.541 94.3959 68.1162 91.8456 68.1162 88.9296C68.1162 84.0984 71.9487 80.2528 76.7702 80.2528C81.5917 80.2528 85.4242 84.0984 85.4242 88.9296C85.4242 91.8456 83.9994 94.3959 81.7988 95.9794C80.7325 96.7294 80.1731 98.0154 80.3585 99.3107C80.5409 100.603 81.4341 101.684 82.6642 102.109C90.1561 104.681 95.8492 112.326 97.0515 121.904H56.4858H56.4889Z" fill="#121212"/>
</g>
<defs>
<clipPath id="clip0_314_13831">
<rect width="152.308" height="128.416" fill="white" transform="translate(0.621094 0.430664)"/>
</clipPath>
</defs>
</svg>
