<svg width="119" height="135" viewBox="0 0 119 135" fill="none" xmlns="http://www.w3.org/2000/svg">
<rect x="2.40973" y="3.05426" width="55.6762" height="129.584" stroke="#30363B" stroke-width="4.37415"/>
<rect x="60.1519" y="44.6246" width="55.6762" height="88.011" stroke="#30363B" stroke-width="4.37415"/>
<rect x="74.0074" y="63.109" width="9.48362" height="9.48362" stroke="#30363B" stroke-width="4.37415"/>
<rect x="74.0074" y="83.898" width="9.48362" height="9.48362" stroke="#30363B" stroke-width="4.37415"/>
<rect x="74.0074" y="104.679" width="9.48362" height="9.48362" stroke="#30363B" stroke-width="4.37415"/>
<rect x="94.7925" y="63.109" width="9.48362" height="9.48362" stroke="#30363B" stroke-width="4.37415"/>
<rect x="94.7925" y="83.898" width="9.48362" height="9.48362" stroke="#30363B" stroke-width="4.37415"/>
<rect x="94.7925" y="104.679" width="9.48362" height="9.48362" stroke="#30363B" stroke-width="4.37415"/>
<rect x="13.9605" y="21.5308" width="9.48362" height="9.48362" stroke="#30363B" stroke-width="4.37415"/>
<rect x="13.9605" y="42.3199" width="9.48362" height="9.48362" stroke="#30363B" stroke-width="4.37415"/>
<rect x="13.9605" y="63.1011" width="9.48362" height="9.48362" stroke="#30363B" stroke-width="4.37415"/>
<rect x="34.7457" y="21.5308" width="9.48362" height="9.48362" stroke="#30363B" stroke-width="4.37415"/>
<rect x="34.7457" y="42.3199" width="9.48362" height="9.48362" stroke="#30363B" stroke-width="4.37415"/>
<rect x="34.7457" y="63.1011" width="9.48362" height="9.48362" stroke="#30363B" stroke-width="4.37415"/>
<rect x="13.9605" y="81.5855" width="9.48362" height="9.48362" stroke="#30363B" stroke-width="4.37415"/>
<rect x="13.9605" y="102.375" width="9.48362" height="9.48362" stroke="#30363B" stroke-width="4.37415"/>
<rect x="34.7457" y="81.5855" width="9.48362" height="9.48362" stroke="#30363B" stroke-width="4.37415"/>
<rect x="34.7457" y="102.375" width="9.48362" height="9.48362" stroke="#30363B" stroke-width="4.37415"/>
</svg>
