<svg width="201" height="200" viewBox="0 0 201 200" fill="none" xmlns="http://www.w3.org/2000/svg">
<path class="svg_base" d="M52.1702 109.99H65.5039C65.9459 109.99 66.37 109.815 66.6825 109.503C66.995 109.19 67.1702 108.766 67.1702 108.324V94.9905C67.1702 94.5485 66.995 94.1244 66.6825 93.8119C66.37 93.4994 65.9459 93.3242 65.5039 93.3242H52.1702C51.2505 93.3242 50.5039 94.0698 50.5039 94.9905V108.324C50.5039 108.766 50.6791 109.19 50.9916 109.503C51.3041 109.815 51.7282 109.99 52.1702 109.99ZM63.8376 106.657H60.5039V96.6568H63.8376V106.657ZM53.8376 96.6568H57.1713V106.657H53.8376V96.6568Z" fill="#121212"/>
<path class="svg_base" d="M67.1702 131.658C67.1702 131.217 66.995 130.792 66.6825 130.48C66.37 130.167 65.9459 129.992 65.5039 129.992H52.1702C51.2505 129.992 50.5039 130.739 50.5039 131.658V144.992C50.5039 145.434 50.6791 145.858 50.9916 146.171C51.3041 146.483 51.7282 146.658 52.1702 146.658H65.5039C65.9459 146.658 66.37 146.483 66.6825 146.171C66.995 145.858 67.1702 145.434 67.1702 144.992V131.658ZM53.8376 143.326V133.326H57.1713V143.326H53.8376ZM63.8376 143.326H60.5039V133.326H63.8376V143.326Z" fill="#121212"/>
<path class="svg_base" d="M168.839 153.325H163.839V151.325C166.275 150.501 170.505 147.575 170.505 137.072C169.92 123.758 167.656 110.573 163.765 97.8289C163.49 97.1938 162.863 96.7831 162.171 96.7831C161.479 96.7831 160.853 97.1938 160.579 97.8289C160.446 98.2686 158.802 103.629 157.173 111.012L157.171 83.3258H158.839C159.281 83.3258 159.705 83.1494 160.017 82.8369C160.33 82.5244 160.505 82.1003 160.505 81.6584V74.9921C160.505 74.5501 160.33 74.126 160.017 73.8135C159.705 73.501 159.281 73.3258 158.839 73.3258H157.171V43.3258H163.839C164.281 43.3258 164.705 43.1495 165.017 42.837C165.33 42.5245 165.505 42.1004 165.505 41.6584V38.3247V38.3258C165.505 37.8839 165.33 37.4598 165.017 37.1473C164.705 36.8348 164.281 36.6584 163.839 36.6584C161.997 36.6584 160.505 35.1662 160.505 33.3259V31.6585C160.505 31.2165 160.33 30.7924 160.017 30.4799C159.705 30.1674 159.281 29.9922 158.839 29.9922H42.1702C41.2506 29.9922 40.504 30.7388 40.504 31.6585V33.3259C40.504 34.2098 40.1524 35.0569 39.5274 35.683C38.9024 36.308 38.0542 36.6585 37.1702 36.6585C36.2506 36.6585 35.504 37.4051 35.504 38.3259V41.6596V41.6585C35.504 42.1004 35.6792 42.5245 35.9917 42.837C36.3042 43.1495 36.7283 43.3259 37.1702 43.3259H43.8377V73.3258H42.1703C41.2506 73.3258 40.504 74.0714 40.504 74.9921V81.6584C40.504 82.1004 40.6792 82.5244 40.9917 82.837C41.3042 83.1495 41.7283 83.3258 42.1703 83.3258H43.8377V111.015C42.2082 103.633 40.5642 98.2721 40.4314 97.8323H40.4303C40.1557 97.1973 39.5296 96.7866 38.8376 96.7866C38.1457 96.7866 37.5196 97.1973 37.2439 97.8323C33.3533 110.577 31.0888 123.762 30.5039 137.075C30.5039 147.579 34.7339 150.505 37.1702 151.329V153.325H32.1702C31.2505 153.325 30.5039 154.071 30.5039 154.992V168.325C30.5039 168.767 30.6791 169.191 30.9916 169.504C31.3041 169.816 31.7282 169.992 32.1702 169.992H168.839C169.281 169.992 169.705 169.816 170.017 169.504C170.33 169.191 170.505 168.767 170.505 168.325V154.992C170.505 154.55 170.33 154.125 170.017 153.813C169.705 153.5 169.281 153.325 168.839 153.325ZM157.171 153.325V149.048C158.06 150.092 159.211 150.879 160.505 151.328V153.325L157.171 153.325ZM120.506 153.325V151.658C120.506 150.738 121.252 149.991 122.172 149.991H128.839C129.281 149.991 129.706 150.167 130.018 150.479C130.331 150.792 130.506 151.216 130.506 151.658V153.325H120.506ZM47.1715 153.325V126.658H70.5052V146.941C70.4683 146.941 70.4416 146.981 70.4081 146.995C69.9962 147.152 69.6067 147.361 69.2485 147.617C69.1782 147.671 69.1157 147.731 69.0453 147.787V147.788C68.7351 148.039 68.4561 148.326 68.2116 148.641C68.1715 148.694 68.1246 148.738 68.0855 148.794V148.795C67.8333 149.159 67.6313 149.556 67.4851 149.975C67.4482 150.072 67.4214 150.168 67.3947 150.265C67.254 150.716 67.1793 151.186 67.1714 151.658V153.325L47.1715 153.325ZM63.8377 81.6595L63.8389 76.6583H137.17V83.3246L63.8389 83.3257L63.8377 81.6595ZM80.5052 66.6583V53.3258H83.8389V64.8895L80.9449 66.6585L80.5052 66.6583ZM93.8389 58.7789L87.1726 62.8526L87.1715 53.3258H93.8378L93.8389 58.7789ZM86.3757 67.2489L91.2497 64.2689L100.505 58.6126L109.762 64.2789L114.636 67.2589L124.582 73.3258H76.428L86.3757 67.2489ZM120.504 53.3261V66.6598H120.065L117.171 64.8886V53.326L120.504 53.3261ZM113.838 62.8529L107.172 58.7792L107.171 53.3261H113.837L113.838 62.8529ZM154.921 123.327H130.505V119.993H155.434C155.251 121.091 155.082 122.203 154.921 123.327ZM123.838 146.66V93.3283H127.172L127.171 146.66H123.838ZM117.172 151.66L117.171 153.327H113.838V129.993H115.504C116.425 129.993 117.171 129.247 117.171 128.327C117.171 127.406 116.425 126.66 115.504 126.66H113.365C112.387 122.821 109.747 119.619 106.163 117.93C102.579 116.241 98.4297 116.241 94.846 117.93C91.2623 119.619 88.6217 122.821 87.644 126.66H85.5044C84.5837 126.66 83.8382 127.406 83.8382 128.327C83.8382 129.247 84.5837 129.993 85.5044 129.993H87.1707V153.327H83.8382V151.66C83.8337 150.63 83.5112 149.626 82.9141 148.786C82.3181 147.945 81.4754 147.31 80.5044 146.966V93.0208C81.4754 92.6771 82.3181 92.042 82.9141 91.2016C83.5111 90.3612 83.8337 89.3579 83.8382 88.3276V86.6602H117.17V88.3276C117.174 89.3578 117.497 90.3611 118.094 91.2016C118.69 92.042 119.532 92.6771 120.503 93.0208V146.966C119.532 147.31 118.69 147.945 118.094 148.786C117.497 149.626 117.174 150.629 117.17 151.66H117.172ZM90.5043 153.327V129.993H98.838V153.327H90.5043ZM109.891 126.661L102.171 126.66V120.163C103.919 120.462 105.557 121.221 106.914 122.363C108.271 123.505 109.298 124.989 109.891 126.66V126.661ZM98.838 126.66H91.118C91.7107 124.989 92.7375 123.505 94.0946 122.363C95.4517 121.221 97.0889 120.462 98.838 120.163V126.66ZM102.172 129.993H110.504V153.327H102.171L102.172 129.993ZM73.838 124.993V93.3277H77.1717L77.1706 146.659H73.8381L73.838 124.993ZM130.504 88.3278C130.504 88.7697 130.329 89.1938 130.016 89.5063C129.704 89.8188 129.279 89.994 128.837 89.994H122.17C121.25 89.994 120.504 89.2474 120.504 88.3278V86.6604H130.504V88.3278ZM80.5037 86.6604V88.3278C80.5037 88.7697 80.3285 89.1938 80.016 89.5063C79.7035 89.8188 79.2794 89.994 78.8375 89.994H72.17C71.2504 89.994 70.5037 89.2474 70.5037 88.3278V86.6604H80.5037ZM70.5037 123.329H46.0875C45.9279 122.205 45.7537 121.092 45.5741 119.995H70.5038L70.5037 123.329ZM70.5037 151.663V151.661C70.5037 150.742 71.2504 149.995 72.17 149.995H78.8375C79.2794 149.995 79.7035 150.17 80.016 150.483C80.3285 150.795 80.5037 151.219 80.5037 151.661V153.329H70.5037V151.663ZM83.8375 156.661H117.169V159.995H83.8375V156.661ZM133.837 151.661C133.83 151.189 133.755 150.719 133.614 150.269C133.587 150.171 133.561 150.075 133.524 149.978C133.378 149.56 133.176 149.163 132.923 148.799C132.883 148.742 132.836 148.698 132.797 148.646V148.645C132.553 148.33 132.274 148.043 131.964 147.792C131.893 147.735 131.831 147.675 131.76 147.622V147.621C131.402 147.365 131.013 147.156 130.601 146.998C130.567 146.998 130.541 146.958 130.504 146.945V126.662H153.837V153.328L133.837 153.329L133.837 151.661ZM162.171 104.541L162.17 104.543C165.09 115.159 166.767 126.077 167.17 137.08C167.17 143.883 165.284 146.573 163.836 147.637L163.837 138.33C163.837 137.409 163.091 136.662 162.17 136.662C161.25 136.662 160.504 137.409 160.504 138.33V147.62C159.041 146.55 157.17 143.857 157.17 137.08C157.21 132.996 157.519 128.919 158.094 124.875C158.368 122.829 158.681 120.805 159.031 118.842C160.02 113.276 161.224 108.189 162.17 104.543L162.171 104.541ZM153.837 116.662H130.504V93.0461C130.541 93.0461 130.567 93.0059 130.601 92.9925C131.013 92.8351 131.402 92.6264 131.76 92.3697C131.831 92.3162 131.893 92.2559 131.964 92.2001V92.199C132.274 91.9478 132.553 91.661 132.797 91.3463C132.837 91.2927 132.884 91.2492 132.923 91.1934V91.1923C133.176 90.8284 133.378 90.4311 133.524 90.0126C133.561 89.9155 133.587 89.8195 133.614 89.7224C133.755 89.2715 133.83 88.8016 133.837 88.3295V86.6621H138.837C139.279 86.6621 139.704 86.4869 140.016 86.1744C140.329 85.8619 140.504 85.4378 140.504 84.9959V83.3296H153.837L153.837 116.662ZM157.171 79.9964H140.504V76.6627H157.17L157.171 79.9964ZM38.8369 39.7878C40.2666 39.4151 41.5322 38.5802 42.4375 37.4117C43.3426 36.2432 43.8337 34.809 43.837 33.3314H157.168C157.172 34.8091 157.663 36.2431 158.568 37.4117C159.473 38.5802 160.739 39.4151 162.169 39.7878V39.9977H38.8371L38.8369 39.7878ZM47.1695 43.3313H153.838V73.3312H130.974L123.724 68.9015V68.9004C123.795 68.7185 123.833 68.5254 123.838 68.3312V51.6638C123.838 51.2218 123.662 50.7977 123.349 50.4852C123.037 50.1727 122.613 49.9975 122.171 49.9975H105.504C104.584 49.9975 103.838 50.7442 103.838 51.6638V56.7475L101.375 55.2408C100.84 54.9138 100.169 54.9138 99.6339 55.2408L97.1708 56.7475V51.6638C97.1708 51.2218 96.9955 50.7977 96.683 50.4852C96.3705 50.1727 95.9464 49.9975 95.5045 49.9975H78.8382C77.9174 49.9975 77.1708 50.7442 77.1708 51.6638V68.3312C77.1764 68.5254 77.2143 68.7185 77.2846 68.9004L70.0346 73.3313H47.1709L47.1695 43.3313ZM43.8369 76.6627H60.5032V79.9964H43.8369V76.6627ZM60.5032 83.3289V84.9963C60.5032 85.4383 60.6784 85.8624 60.9909 86.1749C61.3034 86.4874 61.7275 86.6626 62.1695 86.6626H67.1695V88.33C67.1773 88.8021 67.252 89.272 67.3927 89.7229C67.4195 89.82 67.4462 89.916 67.4831 90.013C67.6293 90.4316 67.8313 90.8289 68.0835 91.1927C68.1237 91.2496 68.1706 91.2932 68.2096 91.3456V91.3467C68.4541 91.6615 68.7331 91.9483 69.0434 92.1994C69.1137 92.2563 69.1762 92.3166 69.2465 92.3691V92.3702C69.6047 92.6269 69.9943 92.8356 70.4061 92.993C70.4396 92.993 70.4664 93.0331 70.5032 93.0465V116.663H47.1695V83.3311L60.5032 83.3289ZM33.8369 137.08C34.2409 126.078 35.9184 115.159 38.8369 104.543C39.7833 108.183 40.9831 113.263 41.9732 118.823C42.327 120.8 42.6395 122.823 42.9129 124.893V124.892C43.4877 128.93 43.7969 133.002 43.837 137.08C43.837 143.883 41.9509 146.573 40.5033 147.637V138.33C40.5033 137.409 39.7567 136.662 38.837 136.662C37.9163 136.662 37.1696 137.409 37.1696 138.33V147.62C35.7065 146.55 33.8371 143.857 33.8371 137.08L33.8369 137.08ZM40.5032 151.33C41.7978 150.881 42.9485 150.094 43.8369 149.05V153.33H40.5032V151.33ZM33.8369 156.663H80.5026V159.997H75.5026C74.5818 159.997 73.8363 160.743 73.8363 161.663V166.663H33.8363L33.8369 156.663ZM77.1712 166.663L77.1701 163.33H123.839V166.664L77.1712 166.663ZM167.171 166.663H127.171V161.663C127.171 161.221 126.996 160.797 126.683 160.484C126.371 160.172 125.947 159.997 125.505 159.997H120.505V156.663H167.171L167.171 166.663Z" fill="#121212"/>
<path class="svg_base" d="M133.836 94.9905V108.324C133.836 108.766 134.011 109.19 134.324 109.503C134.636 109.815 135.06 109.99 135.502 109.99H148.836C149.278 109.99 149.702 109.815 150.015 109.503C150.327 109.19 150.502 108.766 150.502 108.324V94.9905C150.502 94.5485 150.327 94.1244 150.015 93.8119C149.702 93.4994 149.278 93.3242 148.836 93.3242H135.502C134.581 93.3242 133.836 94.0698 133.836 94.9905ZM147.17 96.6568V106.657H143.836V96.6568H147.17ZM137.17 96.6568H140.503V106.657H137.169L137.17 96.6568Z" fill="#121212"/>
<path class="svg_base" d="M70.5039 68.3259V51.6585C70.5039 51.2165 70.3287 50.7924 70.0162 50.4799C69.7037 50.1674 69.2796 49.9922 68.8376 49.9922H52.1702C51.2505 49.9922 50.5039 50.7388 50.5039 51.6585V68.3259C50.5039 68.7679 50.6791 69.1919 50.9916 69.5045C51.3041 69.817 51.7282 69.9922 52.1702 69.9922H68.8376C69.2796 69.9922 69.7037 69.8169 70.0162 69.5045C70.3287 69.192 70.5039 68.7679 70.5039 68.3259ZM53.8376 53.3259H57.1713V66.6596L53.8376 66.6585V53.3259ZM67.1713 66.6596L60.5039 66.6585V53.3259H67.1702L67.1713 66.6596Z" fill="#121212"/>
<path class="svg_base" d="M132.17 69.9922H148.838C149.28 69.9922 149.704 69.8169 150.016 69.5045C150.329 69.192 150.504 68.7679 150.504 68.3259V51.6585C150.504 51.2165 150.329 50.7924 150.016 50.4799C149.704 50.1674 149.28 49.9922 148.838 49.9922H132.17C131.251 49.9922 130.504 50.7388 130.504 51.6585V68.3259C130.504 68.7679 130.679 69.1919 130.992 69.5045C131.304 69.817 131.728 69.9922 132.17 69.9922ZM147.17 66.6585H143.838V53.3259H147.171L147.17 66.6585ZM133.836 53.3248H140.503V66.6585H133.838L133.836 53.3248Z" fill="#121212"/>
<path class="svg_base" d="M148.836 129.992H135.502C134.581 129.992 133.836 130.739 133.836 131.658V144.992C133.836 145.434 134.011 145.858 134.324 146.171C134.636 146.483 135.06 146.658 135.502 146.658H148.836C149.278 146.658 149.702 146.483 150.015 146.171C150.327 145.858 150.502 145.434 150.502 144.992V131.658C150.502 131.217 150.327 130.792 150.015 130.48C149.702 130.167 149.278 129.992 148.836 129.992ZM137.169 133.326H140.502V143.326H137.169V133.326ZM147.169 143.326H143.836V133.326H147.17L147.169 143.326Z" fill="#121212"/>
<path class="svg_base" d="M100.506 91.6602C98.2958 91.6602 96.1764 92.5385 94.6127 94.101C93.0502 95.6646 92.1719 97.7841 92.1719 99.9939C92.1719 102.204 93.0502 104.323 94.6127 105.887C96.1764 107.449 98.2959 108.328 100.506 108.328C102.715 108.328 104.835 107.449 106.398 105.887C107.961 104.323 108.839 102.204 108.839 99.9939C108.839 97.7841 107.961 95.6647 106.398 94.101C104.835 92.5385 102.715 91.6602 100.506 91.6602ZM100.506 104.994C99.1797 104.994 97.9074 104.467 96.9699 103.53C96.0324 102.592 95.5056 101.32 95.5056 99.9939C95.5056 98.668 96.0324 97.3956 96.9699 96.4581C97.9074 95.5207 99.1797 94.9939 100.506 94.9939C101.831 94.9939 103.104 95.5207 104.041 96.4581C104.979 97.3956 105.506 98.668 105.506 99.9939C105.506 101.32 104.979 102.592 104.041 103.53C103.104 104.467 101.831 104.994 100.506 104.994Z" fill="#121212"/>
</svg>
