<svg width="196" height="321" viewBox="0 0 196 321" fill="none" xmlns="http://www.w3.org/2000/svg">
<path d="M121.463 96.1082C127.724 94.4418 133.552 92.748 139.434 91.382C142.605 90.6444 143.824 88.9506 143.824 85.7543C143.852 76.8209 143.743 76.4384 134.961 77.258C118.888 78.7333 103.303 82.7492 87.8264 87.1202C44.1067 99.4412 1.55249 115.15 -40.6765 131.787C-73.2833 144.627 -105.619 158.205 -138.063 171.482C-143.809 173.831 -143.782 173.886 -143.782 180.005C-143.782 197.134 -143.782 214.236 -143.782 231.365C-143.782 236.638 -142.644 237.758 -137.575 237.539C-81.5773 235.299 -25.5792 233.059 30.4189 230.819C69.4495 229.262 108.48 227.705 147.511 226.147C162.147 225.546 176.784 224.945 191.42 224.29C195.188 224.126 196.651 222.487 195.757 218.962C188.71 190.824 180.416 163.177 166.077 137.77C161.795 130.148 156.78 123.045 149.625 117.772C145.478 114.713 140.897 112.991 135.666 113.155C134.826 113.183 133.66 112.746 133.172 112.117C129.296 106.981 125.529 101.736 121.463 96.1355V96.1082ZM-86.3206 180.115C-56.0448 160.035 -24.1969 154.462 9.8194 164.625C40.0952 173.667 62.1855 193.091 77.2827 221.476C67.6606 221.858 58.689 222.213 49.7445 222.569C25.3503 223.525 0.983307 224.536 -23.4108 225.382C-24.4679 225.41 -25.9587 224.645 -26.5279 223.771C-40.8391 201.97 -60.4899 187.6 -86.2935 180.115H-86.3206ZM-136.545 186.179C-134.052 188.474 -131.775 189.594 -129.796 186.944C-127.872 184.349 -129.58 182.382 -131.45 180.579C-132.29 179.759 -133.076 178.858 -133.916 177.929C-129.074 175.27 -124.791 175.753 -121.069 179.377C-120.743 179.678 -120.445 180.033 -120.12 180.306C-118.331 181.781 -116.109 182.164 -114.889 180.224C-114.13 179.022 -114.401 176.618 -115.079 175.197C-115.729 173.831 -117.545 173.066 -119.009 171.892C-114.003 168.85 -109.694 169.141 -106.08 172.766C-105.619 173.23 -105.158 173.722 -104.643 174.186C-102.909 175.716 -100.93 176.017 -99.2766 174.35C-97.6232 172.656 -97.8672 170.608 -99.5747 168.996C-100.849 167.794 -102.421 166.892 -103.857 165.854C-101.743 164.242 -100.469 163.641 -99.1682 163.149C-62.1704 148.725 -25.3082 133.945 11.8522 120.012C45.0825 107.528 78.7193 96.2448 113.386 88.3223C119.268 86.9836 125.258 86.0548 131.167 84.9347C131.221 85.2079 131.275 85.4811 131.329 85.7543C130.191 86.0821 129.052 86.4373 127.914 86.7378C93.5184 96.1355 59.7731 107.336 27.6813 123.127C12.2046 130.749 -2.64871 139.436 -15.4692 151.238C-16.4449 152.112 -18.2881 152.386 -19.6975 152.358C-42.5467 152.058 -63.8509 157.713 -83.3933 169.597C-105.89 183.256 -122.072 202.434 -132.073 226.912C-132.886 228.934 -133.618 230.956 -136.545 229.59V186.207V186.179ZM187.897 217.05C184.427 217.214 181.446 217.241 178.491 217.542C176.377 217.76 175.374 217.05 174.67 214.974C170.712 203.582 166.565 192.272 162.5 180.934C155.371 161.155 148.215 141.349 140.897 121.133C142.74 122.28 144.936 123.018 146.291 124.547C150.709 129.52 155.534 134.328 158.895 139.983C172.989 163.723 180.578 190.004 187.924 217.05H187.897ZM111.435 220.137V160.254C111.597 160.199 111.733 160.144 111.895 160.09C120.216 179.568 128.565 199.019 137.13 219.072C128.321 219.454 120.054 219.782 111.435 220.137ZM143.77 152.44C144.014 152.386 144.285 152.358 144.529 152.304C152.308 174.022 160.114 195.741 168.164 218.17H146.101C145.342 196.451 144.556 174.46 143.77 152.44ZM51.2623 126.706C57.6048 136.431 63.4052 145.337 69.3411 154.462C60.7218 158.396 52.482 162.139 43.6459 166.155C46.2209 152.877 48.6603 140.256 51.2623 126.706ZM44.5404 123.045C41.9112 136.677 39.4718 149.244 36.8427 162.794C30.717 153.233 25.1606 144.572 19.3331 135.502C27.6542 131.377 35.6772 127.416 44.5404 123.018V123.045ZM72.6207 146.102C66.3867 136.568 60.7218 127.88 54.8401 118.865C62.7818 115.86 70.2626 113.019 78.3398 109.959C76.4154 122.171 74.5994 133.617 72.6478 146.102H72.6207ZM103.791 146.813V169.925C98.0448 169.925 92.5155 169.952 86.9862 169.87C86.3356 169.87 85.387 169.46 85.1159 168.941C83.2186 165.335 81.4839 161.647 79.5866 157.768C87.8264 154.025 95.6596 150.473 103.791 146.785V146.813ZM79.5595 149.845C81.4568 137.77 83.2728 126.405 85.1973 114.084C91.1603 123.045 96.6083 131.159 102.165 139.464C94.6297 142.933 87.5012 146.184 79.5595 149.845ZM88.5853 106.216C96.0662 103.812 103.195 101.545 110.865 99.1133C109.076 110.041 107.396 120.286 105.607 131.295C99.7524 122.662 94.3315 114.685 88.5853 106.216ZM-6.19942 152.577C0.0888519 148.151 6.45844 143.698 12.9906 139.109C18.276 147.386 23.2091 155.063 28.115 162.712C16.7039 159.325 5.50978 156.019 -6.1723 152.577H-6.19942ZM117.696 103.184C123.388 110.997 128.456 117.964 133.687 125.176C126.532 128.454 119.756 131.541 112.519 134.819C114.253 124.22 115.88 114.248 117.696 103.184ZM70.6963 162.029C70.1271 170.007 69.6121 177.301 69.07 184.814C61.8873 180.579 55.0298 176.536 47.8742 172.301C55.5448 168.832 62.8089 165.581 70.6963 162.029ZM89.2901 177.547H103.764V206.177C103.574 206.232 103.412 206.259 103.222 206.314C98.6411 196.861 94.0605 187.382 89.2629 177.547H89.2901ZM99.4814 219.618C99.2645 220.11 99.0477 220.602 98.8309 221.093C94.8465 221.093 90.8621 221.23 86.9048 220.984C85.902 220.929 84.7094 219.837 84.086 218.908C79.3156 211.532 74.6807 204.074 69.9916 196.643C69.3953 195.687 68.6092 194.812 67.9316 193.911C68.1756 193.665 68.4466 193.419 68.6906 193.173C78.9361 201.997 89.1816 210.794 99.4543 219.618H99.4814ZM94.3315 204.92C88.0975 199.894 82.5681 195.468 77.093 190.96C76.5238 190.496 75.9817 189.485 76.0359 188.775C76.3883 182.928 76.849 177.11 77.3098 171.263C77.5267 171.209 77.7435 171.181 77.9603 171.127C83.2999 182.136 88.6395 193.173 94.3315 204.92ZM135.856 132.224V145.283C128.754 145.283 121.897 145.337 115.039 145.201C114.172 145.201 113.359 144.108 111.977 143.124C120.406 139.272 127.86 135.885 135.883 132.224H135.856ZM-34.0087 225C-34.2798 225.492 -34.5779 225.983 -34.849 226.475C-37.3697 226.12 -40.7036 226.666 -42.2756 225.246C-47.1545 220.847 -51.3557 215.684 -55.9363 210.739C-54.8522 210.138 -53.6596 209.264 -52.3314 208.827C-51.3557 208.499 -49.7023 208.281 -49.1602 208.827C-44.0103 214.127 -39.0502 219.591 -34.0087 225ZM137.563 201.56C133.986 193.173 130.679 185.469 127.291 177.519H137.563V201.56ZM117.181 152.905H136.452V157.768C131.926 157.768 127.508 157.494 123.144 157.849C119.43 158.15 117.506 156.921 117.181 152.905ZM-51.2201 226.065C-59.2431 229.453 -62.9022 223.47 -67.781 219.645C-66.1006 218.198 -64.5014 216.859 -62.6312 215.247C-58.7823 218.88 -55.069 222.405 -51.2201 226.065ZM137.075 169.925C133.714 169.925 130.841 169.679 127.995 169.979C124.39 170.362 122.683 168.914 122.412 165.39H136.832C136.913 166.865 136.967 168.149 137.048 169.925H137.075ZM-107.706 212.379C-110.579 218.935 -112.233 219.755 -119.741 218.525C-117.518 212.133 -116.624 211.668 -107.706 212.379ZM-98.0298 199.675C-100.415 206.04 -105.348 205.713 -110.633 204.401C-106.324 197.681 -107.327 197.544 -98.0298 199.675ZM-99.4392 191.753C-94.1809 185.77 -92.8528 185.442 -85.7243 188.31C-88.8142 191.662 -93.3859 192.809 -99.4392 191.753ZM-82.3904 195.659C-76.4545 190.359 -77.5387 190.25 -70.5457 194.375C-73.9609 198.473 -77.864 199.539 -82.3904 195.659ZM-93.422 206.805C-88.8955 200.659 -89.7087 200.795 -82.797 204.073C-86.7814 209.619 -87.2422 209.729 -93.422 206.805ZM-56.9663 202.462C-62.1975 206.778 -62.4143 206.778 -68.3231 202.407C-62.7938 197.872 -62.7125 197.872 -56.9663 202.462ZM-92.2836 215.192C-93.7202 217.214 -94.994 218.99 -96.2951 220.766C-98.4363 220.274 -100.469 219.782 -102.475 219.318C-99.9813 213.061 -99.4392 212.816 -92.2836 215.165V215.192ZM-69.2176 210.876C-71.0878 212.488 -72.7412 213.908 -74.3675 215.329C-76.2919 214.209 -78.0537 213.171 -79.8968 212.078C-74.5301 206.614 -76.1835 206.423 -69.1905 210.849L-69.2176 210.876ZM-79.5173 221.066C-80.9268 222.869 -82.2007 224.481 -83.5017 226.147C-85.4803 225.137 -87.2693 224.235 -89.0853 223.306C-85.3177 217.269 -85.2093 217.241 -79.5173 221.066ZM-115.377 225.983C-116.488 229.726 -118.846 230.382 -125.432 229.071C-122.722 225.601 -118.982 226.803 -115.377 225.983ZM-107.896 228.989C-106.622 225.847 -104.101 225.738 -98.0298 228.469C-101.635 228.661 -104.589 228.825 -107.896 228.989Z" fill="#FFF5F7"/>
<path d="M-27.4761 278.792C-27.4761 283.682 -27.4761 288.463 -27.4761 293.244C-27.4761 295.839 -27.0424 298.134 -23.8712 298.134C-20.7542 298.134 -20.1578 295.866 -20.1578 293.271C-20.1578 288.709 -20.1578 284.147 -20.1578 278.983C-11.4573 280.049 -3.16327 281.059 5.48309 282.098V288.982C5.48309 297.478 5.48309 306.002 5.48309 314.498C5.48309 315.29 5.48309 316.055 5.48309 316.848C5.61861 319.252 6.56728 321.027 9.25063 321C11.9611 320.973 12.8013 319.17 12.8013 316.711C12.8013 306.985 12.8013 297.232 12.8013 287.507C12.8013 286.277 12.8013 285.075 12.8013 283.354C22.2337 285.021 31.3951 286.523 40.4751 288.299C84.3575 296.85 127.616 307.941 170.55 320.426C172.041 320.863 173.965 321 175.32 320.399C176.269 319.989 177.272 317.858 176.974 316.902C176.567 315.591 175.131 314.061 173.803 313.679C163.72 310.619 153.583 307.75 143.418 304.964C105.201 294.555 66.7395 285.349 27.7631 278.273C0.739792 273.355 -26.4732 270.487 -53.9302 269.941C-81.1161 269.421 -108.302 268.875 -135.488 268.329C-137.033 268.301 -138.605 268.356 -140.15 268.383C-142.481 268.438 -144.08 269.503 -144.08 271.962C-144.08 274.558 -142.427 275.732 -139.96 275.76C-135.732 275.787 -131.531 275.678 -127.302 275.76C-95.0207 276.606 -62.7392 277.508 -30.4576 278.41C-29.5902 278.41 -28.7229 278.601 -27.5303 278.737L-27.4761 278.792Z" fill="#FFF5F7"/>
<path d="M25.8105 247.074C62.2662 245.572 98.749 244.069 135.205 242.594C153.609 241.856 172.013 241.146 190.417 240.381C191.609 240.326 193.154 240.436 193.913 239.753C194.916 238.851 196.055 237.048 195.756 236.037C195.377 234.808 193.724 233.36 192.395 233.114C190.173 232.677 187.76 233.114 185.43 233.196C154.286 234.48 123.143 235.737 92 237.021C50.7739 238.715 9.52068 240.408 -31.7054 242.102C-61.8457 243.332 -92.0131 244.534 -122.153 245.736C-127.818 245.954 -133.456 246.227 -139.121 246.419C-141.723 246.501 -144 247.211 -143.864 250.271C-143.729 253.358 -141.371 253.822 -138.796 253.713C-114.754 252.729 -90.685 251.773 -66.6432 250.79C-47.0195 249.997 -27.3958 249.178 -7.79916 248.386C3.39503 247.921 14.5892 247.457 25.7834 246.992C25.7834 246.992 25.7834 247.02 25.7834 247.047L25.8105 247.074Z" fill="#FFF5F7"/>
<path d="M26.9467 13.3314C16.0236 10.6542 9.13902 14.2603 4.99202 24.8601C0.79081 24.8601 -3.51881 24.8874 -7.82844 24.8601C-10.4847 24.8328 -12.6531 25.5704 -12.626 28.6302C-12.5989 31.7172 -10.3492 32.2909 -7.74713 32.2636C-2.75989 32.209 2.25446 32.209 7.24171 32.2636C10.169 32.2909 11.6598 31.0616 12.0663 28.0018C13.015 20.7349 19.5743 17.5932 25.8626 21.2813C29.3862 23.3576 31.0395 22.7019 32.6387 18.6587C35.4034 11.583 41.6103 7.26659 48.793 7.40318C55.6776 7.53978 62.0201 12.1294 64.2969 18.6314C64.4053 18.9319 64.4053 19.2597 64.4053 19.3963C60.963 20.2978 57.3852 20.7076 54.3224 22.2102C51.4222 23.6308 48.9286 26.0348 46.5976 28.357C45.3237 29.641 44.4834 30.3786 42.4777 29.9961C33.9126 28.3023 25.6728 34.6677 24.6971 43.4645C23.7484 52.07 30.3619 60.1018 38.927 60.4023C45.2423 60.6482 51.5848 60.457 57.9002 60.4843C60.2583 60.4843 61.8303 59.5008 61.9117 57.0148C62.0201 54.3375 60.3125 53.1628 57.9002 53.1354C52.2353 53.0535 46.5705 53.1354 40.9327 53.0535C39.5233 53.0535 38.0054 52.9169 36.7315 52.3978C32.6929 50.7313 30.8769 46.0871 32.5303 42.0712C34.2108 37.946 38.8186 36.0063 43.0198 37.6728C48.2239 39.7217 48.1696 39.6944 50.9072 34.8589C53.7261 29.9142 57.9273 27.2096 63.7277 27.3462C69.3654 27.4828 73.3498 30.2693 75.9518 35.2141C78.0389 39.23 78.6352 39.4485 82.9448 37.7274C88.176 35.6239 93.0006 38.465 94.1932 44.0655C94.5185 45.6227 95.4129 47.5623 96.6598 48.3273C99.0179 49.7752 101.484 47.617 101.484 44.4206C101.484 35.7605 92.9735 28.3297 84.4085 29.7229C82.5112 30.0234 81.698 29.4224 80.2615 28.275C75.0303 23.9859 72.3198 18.3582 69.257 12.4299C60.8275 -3.93426 37.8428 -4.18014 28.0309 11.4191C27.6786 11.9655 27.3533 12.5665 26.9467 13.2768V13.3314Z" fill="#FFF5F7"/>
<path d="M105.853 270.787C134.991 265.951 163.315 261.28 191.612 256.526C193.022 256.28 194.648 255.515 195.488 254.45C196.084 253.685 196.03 251.363 195.407 250.844C194.187 249.86 192.263 249.095 190.772 249.314C183.752 250.243 176.759 251.527 169.766 252.701C144.721 256.854 119.704 261.007 94.659 265.186C94.1169 265.268 93.5477 265.296 93.0056 265.432C91.0541 265.842 88.9671 266.662 89.2923 268.929C89.5092 270.377 90.8373 272.153 92.1383 272.808C97.2069 275.322 102.438 277.453 107.642 279.72C133.771 291.14 159.873 302.559 186.029 313.869C187.492 314.497 189.444 314.525 190.989 314.17C191.693 314.006 192.696 311.984 192.425 311.219C191.937 309.826 190.826 308.214 189.525 307.64C176.054 301.63 162.502 295.784 148.977 289.883C135.343 283.927 121.737 277.972 108.13 272.016C107.561 271.77 107.019 271.415 105.799 270.787H105.853Z" fill="#FFF5F7"/>
<path d="M63.2969 212.652C62.5108 211.177 62.1314 209.948 61.3453 209.101C56.4394 203.664 51.5064 198.255 46.4107 192.983C44.1068 190.606 41.4235 190.497 40.0682 192.409C38.3607 194.868 39.6346 196.643 41.4506 198.501C46.3836 203.61 51.0998 208.937 56.0871 213.964C57.0628 214.947 58.9601 215.576 60.3425 215.412C61.3724 215.302 62.2398 213.691 63.2969 212.625V212.652Z" fill="#FFF5F7"/>
<path d="M26.2726 186.589C28.7662 188.583 30.3382 190.25 32.2356 191.233C33.5366 191.889 35.6778 192.244 36.762 191.589C37.7378 190.987 38.5509 187.928 38.0902 187.518C35.9489 185.633 33.4553 183.966 30.799 182.956C30.0401 182.655 28.3867 184.841 26.2726 186.589Z" fill="#FFF5F7"/>
</svg>
