<svg width="112" height="56" viewBox="0 0 112 56" fill="none" xmlns="http://www.w3.org/2000/svg">
<path d="M21.9976 38.8023H19.1373L16.0459 17.3892H19.0049L20.6168 32.5663L22.4244 17.3892H25.1531L21.9976 38.8023Z" fill="white"/>
<path d="M29.7986 32.0517L28.9425 22.8551L28.0027 31.0632L27.8891 32.0517L27.561 34.6574L27.0652 38.8038H24.4375L27.3612 17.3906H30.5184L33.446 38.8038H30.4871L30.0955 34.6574L29.7986 32.0517Z" fill="white"/>
<path d="M41.3493 38.8023L38.2611 28.5422L37.3729 25.3615V38.8023H34.7773V17.3892H37.4732L40.2301 27.6806L41.0501 30.8918V17.3907H43.6144V38.8023H41.3493Z" fill="white"/>
<path d="M52.4381 38.8019L51.9784 37.6122C51.4826 38.6101 50.466 39.1223 49.2818 39.1223C47.1099 39.1223 45.498 37.5151 45.498 34.8146V21.3746C45.498 18.9646 47.2423 17.0669 49.7423 17.0669C52.2423 17.0669 53.7861 18.9333 53.7861 21.3746V24.816H51.1231V21.1193C51.1231 20.3799 50.6626 19.8011 49.7431 19.8011C48.887 19.8011 48.3952 20.412 48.3952 21.1514V35.1357C48.3952 35.9416 48.887 36.5518 49.7752 36.5518C50.6947 36.5518 51.1552 35.9416 51.1552 35.1357V30.539H49.8747V28.2285H53.9826V38.8019H52.4381Z" fill="white"/>
<path d="M60.1527 39.1241C57.7842 39.1241 55.9766 37.423 55.9766 34.8806V17.3906H58.8745V35.013C58.8745 35.9129 59.3342 36.4291 60.155 36.4291C61.0424 36.4291 61.5029 35.9129 61.5029 35.013V17.3906H64.263V34.8806C64.2606 37.423 62.5203 39.1241 60.1527 39.1241Z" fill="white"/>
<path d="M81.8448 38.9016C80.793 38.9016 80.3653 37.614 80.3653 36.0695V30.9605C80.3653 30.2212 79.9737 29.6416 79.2171 29.6416H77.9326V38.8052H75.041V17.3921H79.4803C81.353 17.3921 83.0964 18.3899 83.0964 21.1868V25.6887C83.0964 26.9724 82.5372 27.9068 81.4172 28.4198C82.5372 28.9359 83.1606 29.8985 83.1606 31.154V35.9105C83.1606 36.8762 83.3251 37.5497 83.6533 38.0972V38.9031L81.8448 38.9016ZM80.2369 21.2165C80.2369 20.3824 79.9408 19.9955 79.3127 19.9955H77.9326V27.1972H79.1858C79.8735 27.1972 80.2377 26.7789 80.2377 25.879L80.2369 21.2165Z" fill="white"/>
<path d="M89.7294 38.8023H85.3896V17.3892H89.7294C92.1934 17.3892 93.7411 18.8679 93.7411 21.8598V34.3975C93.7442 37.4231 92.1966 38.8023 89.7294 38.8023ZM90.8455 21.7626C90.8455 20.6043 90.4852 20.0568 89.565 20.0568H88.2813V36.166H89.565C90.4852 36.166 90.8455 35.6178 90.8455 34.4602V21.7626Z" fill="white"/>
<path d="M70.4275 32.0517L69.5715 22.8551L68.6316 31.0632L68.5188 32.0517L68.1906 34.6574L67.6949 38.8038H65.0664L67.9909 17.3906H71.1473L74.0749 38.8038H71.1152L70.7189 34.6574L70.4275 32.0517Z" fill="white"/>
<path d="M18.6919 12.0615V14.7409H13.3308V20.1012H10.6514V12.0615H18.6919Z" fill="white"/>
<path d="M99.104 36.1367V44.1764H91.0635V41.4971H96.4246V36.1367H99.104Z" fill="#FF5166"/>
</svg>
