<svg width="133" height="50" viewBox="0 0 133 50" fill="none" xmlns="http://www.w3.org/2000/svg">
<path d="M17.0586 40.2085H12.7577L8.10938 8.01074H12.5587L14.9823 30.8318L17.7004 8.01074H21.8034L17.0586 40.2085Z" fill="#FF5166"/>
<path d="M28.7878 30.0577L27.5005 16.2294L26.0873 28.5714L25.9166 30.0577L25.4231 33.9758L24.6777 40.2104H20.7266L25.1228 8.0127H29.8701L34.2722 40.2104H29.823L29.2341 33.9758L28.7878 30.0577Z" fill="#FF5166"/>
<path d="M46.1593 40.2085L41.5157 24.7809L40.1802 19.9983V40.2085H36.2773V8.01074H40.3309L44.4764 23.4854L45.7094 28.3139V8.0131H49.5651V40.2085H46.1593Z" fill="#FF5166"/>
<path d="M62.83 40.2081L62.1386 38.4193C61.3932 39.9196 59.8646 40.6898 58.0839 40.6898C54.8182 40.6898 52.3945 38.2732 52.3945 34.2126V14.0036C52.3945 10.3799 55.0172 7.52637 58.7764 7.52637C62.5355 7.52637 64.8567 10.3328 64.8567 14.0036V19.1783H60.8526V13.6197C60.8526 12.5079 60.1601 11.6376 58.7775 11.6376C57.4903 11.6376 56.7508 12.5562 56.7508 13.668V34.6954C56.7508 35.9072 57.4904 36.8247 58.8258 36.8247C60.2084 36.8247 60.9009 35.9072 60.9009 34.6954V27.7836H58.9754V24.3095H65.1523V40.2081H62.83Z" fill="#FF5166"/>
<path d="M74.4317 40.6921C70.8704 40.6921 68.1523 38.1342 68.1523 34.3115V8.0127H72.5098V34.5105C72.5098 35.8636 73.201 36.6397 74.4352 36.6397C75.7696 36.6397 76.4621 35.8636 76.4621 34.5105V8.0127H80.6122V34.3115C80.6087 38.1342 77.9919 40.6921 74.4317 40.6921Z" fill="#FF5166"/>
<path d="M107.047 40.3582C105.465 40.3582 104.822 38.4221 104.822 36.0997V28.4177C104.822 27.306 104.233 26.4345 103.096 26.4345H101.164V40.2134H96.8164V8.01562H103.491C106.307 8.01562 108.929 9.51598 108.929 13.7215V20.4908C108.929 22.421 108.088 23.826 106.404 24.5973C108.088 25.3734 109.025 26.8208 109.025 28.7086V35.8607C109.025 37.3127 109.273 38.3256 109.766 39.1488V40.3606L107.047 40.3582ZM104.629 13.7662C104.629 12.512 104.184 11.9302 103.239 11.9302H101.164V22.759H103.049C104.083 22.759 104.63 22.1301 104.63 20.777L104.629 13.7662Z" fill="#FF5166"/>
<path d="M118.904 40.2085H112.379V8.01074H118.904C122.609 8.01074 124.936 10.2342 124.936 14.7329V33.5852C124.941 38.1346 122.614 40.2085 118.904 40.2085ZM120.583 14.5869C120.583 12.8451 120.041 12.0219 118.657 12.0219H116.727V36.2444H118.657C120.041 36.2444 120.583 35.4201 120.583 33.6794V14.5869Z" fill="#FF5166"/>
<path d="M89.8815 30.0577L88.5943 16.2294L87.1811 28.5714L87.0115 30.0577L86.5181 33.9758L85.7726 40.2104H81.8203L86.2177 8.0127H90.9638L95.366 40.2104H90.9155L90.3196 33.9758L89.8815 30.0577Z" fill="#FF5166"/>
<path d="M72.3644 47.9865C72.3288 47.9738 72.2977 47.9508 72.2753 47.9204C72.2528 47.89 72.24 47.8535 72.2384 47.8157C72.2376 47.7912 72.2417 47.7668 72.2505 47.7439C72.2593 47.721 72.2726 47.7001 72.2896 47.6824C72.3067 47.6647 72.327 47.6506 72.3496 47.641C72.3721 47.6313 72.3964 47.6263 72.4209 47.6261C72.4589 47.6288 72.4958 47.6397 72.5293 47.6579C72.8137 47.8147 73.1337 47.8958 73.4585 47.8934C74.065 47.8934 74.4253 47.5767 74.4253 47.0691C74.4253 46.5073 73.9637 46.2671 73.4526 46.0092C72.7754 45.6735 72.2749 45.3025 72.2749 44.7066C72.2749 44.0742 72.7047 43.6373 73.5644 43.6373C73.8886 43.6294 74.2098 43.7014 74.4995 43.8469C74.5301 43.862 74.5558 43.8853 74.5737 43.9142C74.5916 43.9432 74.601 43.9766 74.6008 44.0106C74.6008 44.0344 74.5961 44.0579 74.5868 44.0798C74.5776 44.1017 74.5641 44.1215 74.5471 44.1381C74.5301 44.1546 74.5099 44.1677 74.4878 44.1763C74.4656 44.185 74.442 44.1891 74.4183 44.1885C74.3806 44.1889 74.3433 44.18 74.3099 44.1626C74.0753 44.0485 73.8182 43.9882 73.5574 43.9859C73.0074 43.9859 72.6859 44.2002 72.6859 44.6807C72.6859 45.1612 73.0651 45.3709 73.5774 45.63C74.1333 45.9138 74.8411 46.2423 74.8411 47.0432C74.8411 47.7769 74.2404 48.2385 73.4502 48.2385C73.0733 48.2426 72.701 48.1562 72.3644 47.9865Z" fill="#121212"/>
<path d="M75.8616 47.3671V45.3898H75.4259C75.3772 45.3898 75.3305 45.3704 75.296 45.336C75.2616 45.3015 75.2422 45.2548 75.2422 45.2061C75.2422 45.1573 75.2616 45.1106 75.296 45.0762C75.3305 45.0417 75.3772 45.0224 75.4259 45.0224H75.8616V44.238C75.8611 44.2099 75.8664 44.182 75.8771 44.156C75.8879 44.13 75.9039 44.1065 75.9241 44.0869C75.9443 44.0674 75.9683 44.0522 75.9947 44.0423C76.021 44.0325 76.0491 44.0281 76.0772 44.0296C76.1048 44.0288 76.1322 44.0336 76.1579 44.0438C76.1835 44.054 76.2068 44.0693 76.2264 44.0888C76.2459 44.1083 76.2612 44.1316 76.2714 44.1573C76.2816 44.183 76.2864 44.2104 76.2856 44.238V45.0224H77.0758C77.1246 45.0224 77.1713 45.0417 77.2057 45.0762C77.2402 45.1106 77.2596 45.1573 77.2596 45.2061C77.2596 45.2548 77.2402 45.3015 77.2057 45.336C77.1713 45.3704 77.1246 45.3898 77.0758 45.3898H76.2856V47.3624C76.2856 47.678 76.4128 47.8747 76.7414 47.8747C76.8618 47.8724 76.981 47.8509 77.0947 47.8111C77.1207 47.8025 77.1484 47.8002 77.1755 47.8045C77.2026 47.8087 77.2283 47.8193 77.2505 47.8354C77.2727 47.8515 77.2908 47.8726 77.3032 47.8971C77.3156 47.9215 77.322 47.9486 77.322 47.976C77.3221 48.0134 77.3098 48.0498 77.287 48.0794C77.2642 48.1091 77.2322 48.1303 77.196 48.1397C77.0423 48.1973 76.8796 48.2272 76.7155 48.228C76.1219 48.2268 75.8616 47.8983 75.8616 47.3671Z" fill="#121212"/>
<path d="M79.9765 47.6455C79.8116 48.0058 79.5054 48.2272 78.9967 48.2272C78.3077 48.2272 77.9533 47.7032 77.9533 46.9059V45.1806C77.9523 45.1529 77.957 45.1253 77.9671 45.0995C77.9772 45.0737 77.9925 45.0502 78.012 45.0306C78.0316 45.0109 78.0549 44.9955 78.0807 44.9853C78.1064 44.975 78.134 44.9701 78.1617 44.9709C78.1895 44.9696 78.2173 44.9741 78.2433 44.9842C78.2693 44.9942 78.2929 45.0096 78.3125 45.0294C78.3322 45.0492 78.3475 45.0728 78.3574 45.0989C78.3673 45.1249 78.3717 45.1527 78.3702 45.1806V46.8741C78.3702 47.4876 78.5916 47.861 79.1097 47.861C79.2793 47.8654 79.447 47.824 79.595 47.7411C79.743 47.6582 79.8658 47.5368 79.9506 47.3899V45.1841C79.9498 45.1564 79.9546 45.1287 79.9649 45.1029C79.9751 45.0771 79.9905 45.0537 80.0102 45.0341C80.0298 45.0144 80.0533 44.999 80.0791 44.9888C80.1049 44.9785 80.1325 44.9737 80.1602 44.9745C80.1881 44.9731 80.2159 44.9776 80.2418 44.9877C80.2678 44.9978 80.2914 45.0132 80.3111 45.0329C80.3307 45.0527 80.346 45.0764 80.3559 45.1024C80.3658 45.1285 80.3702 45.1563 80.3687 45.1841V48.0105C80.3708 48.0376 80.3673 48.0647 80.3584 48.0903C80.3494 48.1159 80.3353 48.1394 80.3169 48.1593C80.2985 48.1792 80.2762 48.1951 80.2513 48.2059C80.2265 48.2168 80.1997 48.2224 80.1726 48.2224C80.1455 48.2224 80.1187 48.2168 80.0938 48.2059C80.069 48.1951 80.0467 48.1792 80.0282 48.1593C80.0098 48.1394 79.9957 48.1159 79.9868 48.0903C79.9779 48.0647 79.9744 48.0376 79.9765 48.0105V47.6455Z" fill="#121212"/>
<path d="M81.2031 46.5901C81.2031 45.7175 81.62 44.952 82.4868 44.952C82.6791 44.9502 82.8684 44.9989 83.036 45.0931C83.2036 45.1873 83.3435 45.3238 83.4419 45.489V43.6306C83.4404 43.6029 83.4447 43.5751 83.4547 43.5491C83.4646 43.5231 83.4799 43.4995 83.4995 43.4798C83.5192 43.4602 83.5428 43.4448 83.5688 43.4349C83.5948 43.425 83.6226 43.4206 83.6503 43.4222C83.6779 43.4214 83.7054 43.4262 83.7311 43.4364C83.7567 43.4466 83.78 43.4619 83.7996 43.4814C83.8191 43.5009 83.8344 43.5242 83.8446 43.5499C83.8548 43.5756 83.8596 43.603 83.8588 43.6306V47.9998C83.8588 48.0535 83.8375 48.1051 83.7995 48.143C83.7615 48.181 83.71 48.2024 83.6562 48.2024C83.6025 48.2024 83.551 48.181 83.513 48.143C83.475 48.1051 83.4537 48.0535 83.4537 47.9998V47.6712C83.3563 47.8413 83.2155 47.9825 83.0455 48.0801C82.8756 48.1778 82.6828 48.2285 82.4868 48.2271C81.62 48.2271 81.2031 47.4628 81.2031 46.5901ZM83.4407 47.3544V45.8235C83.2252 45.5137 82.9473 45.3053 82.5422 45.3053C81.8662 45.3053 81.6188 45.9377 81.6188 46.589C81.6188 47.2402 81.8662 47.8726 82.5422 47.8726C82.9485 47.8738 83.2264 47.6642 83.4419 47.3544H83.4407Z" fill="#121212"/>
<path d="M86.1725 48.2271C85.0537 48.2271 84.6992 47.431 84.6992 46.5784C84.6992 45.668 85.1479 44.9414 86.0842 44.9414C86.9439 44.9414 87.3113 45.6174 87.3113 46.3641V46.5089C87.3143 46.5345 87.3115 46.5605 87.3031 46.5849C87.2946 46.6093 87.2807 46.6314 87.2625 46.6497C87.2442 46.6679 87.2221 46.6818 87.1977 46.6903C87.1733 46.6987 87.1473 46.7015 87.1217 46.6985H85.1102C85.1232 47.3757 85.3952 47.888 86.1913 47.888C86.4642 47.8946 86.7342 47.8314 86.9757 47.7043C87.0017 47.6876 87.0318 47.6783 87.0627 47.6772C87.0937 47.6762 87.1243 47.6834 87.1515 47.6982C87.1786 47.713 87.2013 47.7348 87.2172 47.7613C87.2331 47.7879 87.2416 47.8182 87.2418 47.8491C87.2428 47.8835 87.2338 47.9174 87.2158 47.9466C87.1978 47.9759 87.1716 47.9993 87.1405 48.014C86.8376 48.1556 86.507 48.2284 86.1725 48.2271ZM85.1126 46.3746H86.9345C86.9345 45.7552 86.6683 45.2559 86.0865 45.2559C85.4329 45.25 85.1291 45.7929 85.1102 46.3746H85.1126Z" fill="#121212"/>
<path d="M90.1671 47.9941V46.2994C90.1671 45.68 89.9457 45.3067 89.4016 45.3067C89.2301 45.3021 89.0606 45.3444 88.9114 45.4291C88.7622 45.5137 88.6389 45.6376 88.5549 45.7872V47.9941C88.5562 48.022 88.5517 48.0498 88.5417 48.0758C88.5316 48.1017 88.5162 48.1253 88.4964 48.145C88.4767 48.1646 88.453 48.1799 88.427 48.1898C88.4009 48.1997 88.3731 48.2041 88.3453 48.2026C88.3177 48.2034 88.2902 48.1986 88.2645 48.1884C88.2389 48.1782 88.2156 48.1629 88.196 48.1433C88.1765 48.1238 88.1612 48.1005 88.151 48.0748C88.1408 48.0492 88.136 48.0217 88.1368 47.9941V45.1677C88.1361 45.1412 88.1409 45.1148 88.151 45.0902C88.161 45.0657 88.1759 45.0434 88.195 45.025C88.214 45.0065 88.2367 44.9921 88.2615 44.9829C88.2864 44.9736 88.3129 44.9695 88.3394 44.971C88.3654 44.97 88.3914 44.9744 88.4156 44.984C88.4399 44.9935 88.4619 45.008 88.4802 45.0265C88.4986 45.045 88.513 45.067 88.5224 45.0914C88.5318 45.1157 88.536 45.1417 88.5348 45.1677V45.5092C88.7127 45.1559 89.0153 44.9463 89.5088 44.9463C90.2236 44.9463 90.584 45.4645 90.584 46.2676V47.9941C90.5854 48.0219 90.5809 48.0496 90.5709 48.0755C90.5609 48.1014 90.5456 48.1249 90.526 48.1445C90.5063 48.1641 90.4828 48.1795 90.4569 48.1894C90.431 48.1994 90.4033 48.2039 90.3756 48.2026C90.348 48.2034 90.3205 48.1986 90.2948 48.1884C90.2692 48.1782 90.2459 48.1629 90.2264 48.1433C90.2068 48.1238 90.1915 48.1005 90.1813 48.0748C90.1711 48.0492 90.1663 48.0217 90.1671 47.9941Z" fill="#121212"/>
<path d="M91.8081 47.3673V45.39H91.3712C91.3225 45.39 91.2758 45.3706 91.2413 45.3361C91.2069 45.3017 91.1875 45.255 91.1875 45.2062C91.1875 45.1575 91.2069 45.1108 91.2413 45.0763C91.2758 45.0419 91.3225 45.0225 91.3712 45.0225H91.8081V44.2382C91.8121 44.1848 91.8361 44.135 91.8753 44.0986C91.9145 44.0622 91.9661 44.042 92.0196 44.042C92.073 44.042 92.1245 44.0622 92.1637 44.0986C92.2029 44.135 92.227 44.1848 92.2309 44.2382V45.0225H93.0212C93.0699 45.0225 93.1166 45.0419 93.1511 45.0763C93.1855 45.1108 93.2049 45.1575 93.2049 45.2062C93.2049 45.255 93.1855 45.3017 93.1511 45.3361C93.1166 45.3706 93.0699 45.39 93.0212 45.39H92.2309V47.3626C92.2309 47.6782 92.3581 47.8749 92.6867 47.8749C92.8071 47.8727 92.9264 47.8512 93.04 47.8113C93.066 47.8027 93.0937 47.8004 93.1208 47.8046C93.1479 47.8089 93.1736 47.8195 93.1958 47.8356C93.218 47.8517 93.2361 47.8728 93.2485 47.8972C93.2609 47.9217 93.2674 47.9487 93.2673 47.9761C93.2677 48.0136 93.2554 48.0501 93.2326 48.0798C93.2097 48.1095 93.1776 48.1306 93.1413 48.1398C92.9876 48.1975 92.8249 48.2274 92.6608 48.2282C92.0672 48.227 91.8081 47.8984 91.8081 47.3673Z" fill="#121212"/>
<path d="M95.3561 47.9865V43.8894C95.3547 43.8609 95.3593 43.8324 95.3696 43.8058C95.3799 43.7792 95.3956 43.755 95.4158 43.7348C95.436 43.7147 95.4602 43.6989 95.4868 43.6886C95.5134 43.6783 95.5419 43.6737 95.5704 43.675C95.5987 43.6738 95.6268 43.6786 95.6531 43.689C95.6794 43.6994 95.7033 43.7152 95.723 43.7354C95.7428 43.7556 95.7581 43.7798 95.7679 43.8063C95.7777 43.8329 95.7818 43.8612 95.78 43.8894V45.7101H98.3273V43.8894C98.3262 43.8608 98.3309 43.8323 98.3414 43.8057C98.3518 43.7791 98.3676 43.7549 98.3879 43.7348C98.4082 43.7146 98.4324 43.6989 98.4591 43.6886C98.4858 43.6783 98.5143 43.6737 98.5429 43.675C98.5711 43.6738 98.5992 43.6785 98.6255 43.689C98.6517 43.6994 98.6754 43.7152 98.6951 43.7355C98.7148 43.7557 98.73 43.7799 98.7397 43.8064C98.7493 43.8329 98.7533 43.8612 98.7513 43.8894V47.9865C98.7533 48.0147 98.7493 48.0431 98.7397 48.0696C98.73 48.0962 98.7148 48.1205 98.6952 48.1408C98.6755 48.1611 98.6518 48.1771 98.6255 48.1876C98.5993 48.1982 98.5711 48.2031 98.5429 48.202C98.5142 48.2034 98.4856 48.1987 98.4588 48.1884C98.4321 48.178 98.4077 48.1622 98.3875 48.1419C98.3672 48.1216 98.3513 48.0973 98.341 48.0706C98.3306 48.0438 98.326 48.0152 98.3273 47.9865V46.0963H95.78V47.9924C95.782 48.0207 95.778 48.0491 95.7683 48.0758C95.7586 48.1025 95.7433 48.1268 95.7235 48.1472C95.7037 48.1675 95.6798 48.1834 95.6534 48.1939C95.627 48.2044 95.5988 48.2092 95.5704 48.2079C95.5413 48.2092 95.5123 48.2042 95.4852 48.1935C95.4582 48.1827 95.4337 48.1663 95.4135 48.1454C95.3932 48.1244 95.3777 48.0995 95.3678 48.0721C95.3579 48.0447 95.3539 48.0156 95.3561 47.9865Z" fill="#121212"/>
<path d="M99.6172 46.5833C99.6172 45.7236 100.073 44.9463 101.053 44.9463C102.033 44.9463 102.488 45.7236 102.488 46.5833C102.488 47.443 102.033 48.232 101.053 48.232C100.073 48.232 99.6172 47.45 99.6172 46.5833ZM102.07 46.5833C102.07 45.9509 101.798 45.2878 101.053 45.2878C100.307 45.2878 100.034 45.945 100.034 46.5833C100.034 47.2216 100.306 47.8787 101.053 47.8787C101.799 47.8787 102.07 47.2227 102.07 46.5833Z" fill="#121212"/>
<path d="M105.316 47.6455C105.151 48.0058 104.845 48.2272 104.337 48.2272C103.646 48.2272 103.293 47.7032 103.293 46.9059V45.1806C103.292 45.1529 103.297 45.1253 103.307 45.0995C103.317 45.0737 103.332 45.0502 103.352 45.0306C103.371 45.0109 103.395 44.9955 103.421 44.9853C103.446 44.975 103.474 44.9701 103.502 44.9709C103.529 44.9696 103.557 44.9741 103.583 44.9842C103.609 44.9942 103.633 45.0096 103.652 45.0294C103.672 45.0492 103.687 45.0728 103.697 45.0989C103.707 45.1249 103.712 45.1527 103.71 45.1806V46.8741C103.71 47.4876 103.931 47.861 104.45 47.861C104.619 47.8654 104.787 47.824 104.935 47.7411C105.083 47.6582 105.206 47.5368 105.29 47.3899V45.1841C105.289 45.1563 105.294 45.1286 105.304 45.1027C105.315 45.0769 105.33 45.0533 105.35 45.0337C105.369 45.014 105.393 44.9986 105.419 44.9884C105.445 44.9782 105.472 44.9735 105.5 44.9745C105.528 44.9731 105.556 44.9776 105.582 44.9877C105.608 44.9978 105.631 45.0132 105.651 45.0329C105.671 45.0527 105.686 45.0764 105.696 45.1024C105.706 45.1285 105.71 45.1563 105.709 45.1841V48.0105C105.711 48.0376 105.707 48.0647 105.698 48.0903C105.689 48.1159 105.675 48.1394 105.657 48.1593C105.638 48.1792 105.616 48.1951 105.591 48.2059C105.566 48.2168 105.54 48.2224 105.512 48.2224C105.485 48.2224 105.459 48.2168 105.434 48.2059C105.409 48.1951 105.387 48.1792 105.368 48.1593C105.35 48.1394 105.336 48.1159 105.327 48.0903C105.318 48.0647 105.314 48.0376 105.316 48.0105V47.6455Z" fill="#121212"/>
<path d="M106.625 48.0318C106.59 48.016 106.561 47.9887 106.543 47.9544C106.525 47.9202 106.519 47.8809 106.526 47.8429C106.534 47.805 106.553 47.7705 106.583 47.7452C106.612 47.7198 106.649 47.7051 106.687 47.7033C106.722 47.7046 106.757 47.713 106.789 47.728C107.011 47.8373 107.255 47.8956 107.503 47.8988C107.92 47.8988 108.186 47.715 108.186 47.3488C108.186 46.9825 107.864 46.8624 107.472 46.6846C106.972 46.4573 106.561 46.1982 106.561 45.7306C106.561 45.2372 106.935 44.9463 107.541 44.9463C107.805 44.9452 108.066 45.001 108.307 45.11C108.338 45.123 108.364 45.1452 108.382 45.1736C108.4 45.202 108.409 45.2353 108.408 45.269C108.409 45.3125 108.392 45.3545 108.363 45.3864C108.333 45.4182 108.292 45.4373 108.249 45.4398C108.216 45.4371 108.184 45.4283 108.155 45.4138C107.961 45.3274 107.753 45.2802 107.541 45.2749C107.162 45.2749 106.959 45.4138 106.959 45.7106C106.959 46.0333 107.263 46.1723 107.624 46.3372C108.066 46.5397 108.585 46.7611 108.585 47.317C108.585 47.9058 108.098 48.2273 107.503 48.2273C107.2 48.2258 106.9 48.1591 106.625 48.0318Z" fill="#121212"/>
<path d="M109.305 43.9662C109.303 43.9278 109.31 43.8896 109.324 43.8539C109.338 43.8182 109.36 43.7859 109.387 43.7591C109.415 43.7322 109.447 43.7114 109.483 43.698C109.519 43.6846 109.558 43.6788 109.596 43.6812C109.634 43.6794 109.672 43.6855 109.708 43.6991C109.744 43.7127 109.776 43.7335 109.803 43.7603C109.831 43.787 109.852 43.8191 109.867 43.8545C109.881 43.89 109.888 43.928 109.887 43.9662C109.888 44.0047 109.881 44.043 109.867 44.0788C109.853 44.1146 109.831 44.1472 109.804 44.1744C109.777 44.2016 109.744 44.223 109.708 44.2372C109.673 44.2515 109.634 44.2582 109.596 44.2571C109.557 44.2587 109.519 44.2523 109.483 44.2383C109.447 44.2243 109.414 44.2029 109.386 44.1756C109.359 44.1482 109.338 44.1155 109.324 44.0794C109.31 44.0434 109.303 44.0048 109.305 43.9662ZM109.387 47.9938V45.1804C109.386 45.1525 109.39 45.1247 109.4 45.0987C109.41 45.0726 109.425 45.049 109.445 45.0292C109.465 45.0094 109.488 44.994 109.514 44.9839C109.54 44.9739 109.568 44.9694 109.596 44.9707C109.624 44.9699 109.651 44.9748 109.677 44.985C109.703 44.9953 109.726 45.0107 109.745 45.0304C109.765 45.05 109.78 45.0735 109.79 45.0993C109.801 45.1251 109.805 45.1527 109.804 45.1804V47.9938C109.805 48.0214 109.8 48.0489 109.79 48.0746C109.78 48.1002 109.765 48.1235 109.745 48.143C109.726 48.1626 109.702 48.1779 109.677 48.1881C109.651 48.1983 109.623 48.2031 109.596 48.2023C109.568 48.2036 109.54 48.1992 109.514 48.1892C109.489 48.1792 109.465 48.1639 109.445 48.1442C109.426 48.1246 109.411 48.1011 109.401 48.0752C109.391 48.0493 109.386 48.0216 109.387 47.9938Z" fill="#121212"/>
<path d="M112.909 47.9941V46.2994C112.909 45.68 112.688 45.3067 112.144 45.3067C111.972 45.3018 111.802 45.3441 111.653 45.4287C111.503 45.5134 111.38 45.6374 111.296 45.7872V47.9941C111.297 48.0219 111.293 48.0497 111.283 48.0757C111.273 48.1017 111.258 48.1253 111.238 48.1449C111.219 48.1646 111.195 48.1799 111.169 48.1898C111.143 48.1998 111.115 48.2041 111.087 48.2026C111.06 48.2034 111.032 48.1986 111.007 48.1884C110.981 48.1782 110.958 48.1629 110.938 48.1433C110.919 48.1238 110.903 48.1005 110.893 48.0748C110.883 48.0492 110.878 48.0217 110.879 47.9941V45.1677C110.878 45.1412 110.883 45.1148 110.893 45.0902C110.903 45.0657 110.918 45.0434 110.937 45.025C110.956 45.0065 110.979 44.9921 111.004 44.9829C111.029 44.9736 111.055 44.9695 111.082 44.971C111.108 44.97 111.134 44.9744 111.158 44.984C111.182 44.9935 111.204 45.008 111.222 45.0265C111.241 45.045 111.255 45.067 111.265 45.0914C111.274 45.1157 111.278 45.1417 111.277 45.1677V45.5092C111.455 45.1559 111.758 44.9463 112.251 44.9463C112.966 44.9463 113.326 45.4645 113.326 46.2676V47.9941C113.328 48.0219 113.323 48.0496 113.313 48.0755C113.303 48.1014 113.288 48.1249 113.268 48.1445C113.249 48.1641 113.225 48.1795 113.199 48.1894C113.173 48.1994 113.145 48.2039 113.118 48.2026C113.09 48.2034 113.063 48.1986 113.037 48.1884C113.011 48.1782 112.988 48.1629 112.969 48.1433C112.949 48.1238 112.934 48.1005 112.924 48.0748C112.913 48.0492 112.908 48.0217 112.909 47.9941Z" fill="#121212"/>
<path d="M114.503 49.3592C114.464 49.3523 114.428 49.331 114.404 49.2995C114.379 49.2679 114.367 49.2284 114.37 49.1885C114.37 49.1571 114.378 49.1261 114.393 49.0986C114.408 49.0711 114.43 49.048 114.457 49.0315C114.484 49.0151 114.514 49.0058 114.546 49.0046C114.577 49.0034 114.608 49.0104 114.636 49.0248C114.904 49.1445 115.195 49.207 115.489 49.2085C116.109 49.2085 116.374 48.8917 116.374 48.3288V47.5892C116.275 47.7543 116.135 47.891 115.968 47.9863C115.801 48.0816 115.612 48.1322 115.419 48.1333C114.559 48.1333 114.137 47.4055 114.137 46.5399C114.137 45.6743 114.554 44.9465 115.413 44.9465C115.608 44.9429 115.801 44.9907 115.972 45.0849C116.143 45.1791 116.286 45.3166 116.387 45.4835V45.1738C116.385 45.146 116.389 45.118 116.398 45.0916C116.407 45.0653 116.422 45.0411 116.441 45.0207C116.46 45.0002 116.483 44.9839 116.508 44.9727C116.534 44.9615 116.561 44.9558 116.589 44.9558C116.617 44.9558 116.645 44.9615 116.67 44.9727C116.696 44.9839 116.719 45.0002 116.738 45.0207C116.757 45.0411 116.771 45.0653 116.78 45.0916C116.79 45.118 116.793 45.146 116.791 45.1738V48.3347C116.791 49.1308 116.273 49.5547 115.489 49.5547C115.151 49.5519 114.816 49.4856 114.503 49.3592ZM116.374 47.2736V45.8121C116.16 45.5153 115.881 45.2939 115.496 45.2939C114.807 45.2939 114.547 45.9016 114.547 46.5399C114.547 47.1782 114.807 47.7847 115.502 47.7847C115.875 47.7847 116.166 47.5703 116.374 47.2747V47.2736Z" fill="#121212"/>
<path d="M12.0901 0V4.02885H4.02885V12.0889H0V0H12.0901Z" fill="#FF5166"/>
<path d="M133 36.2012V48.2901H120.91V44.2612H128.971V36.2012H133Z" fill="#121212"/>
</svg>
