<?xml version="1.0" encoding="utf-8"?>
<!-- Generator: Adobe Illustrator 27.5.0, SVG Export Plug-In . SVG Version: 6.00 Build 0)  -->
<svg version="1.1" id="Capa_1" xmlns="http://www.w3.org/2000/svg" xmlns:xlink="http://www.w3.org/1999/xlink" x="0px" y="0px"
	 viewBox="0 0 512 512" style="enable-background:new 0 0 512 512;" xml:space="preserve">
<style type="text/css">
	.st0{fill:#FF5166;}
	.st1{fill:#FFFFFF;}
	.st2{fill:none;}
	.st3{fill:#C5C5C5;}
	.st4{fill:#C5C4C4;}
	.st5{fill:#C3C3C3;}
	.st6{fill:#131313;}
	.st7{fill:#EA555D;}
	.st8{fill-rule:evenodd;clip-rule:evenodd;fill:#131313;}
	.st9{fill-rule:evenodd;clip-rule:evenodd;fill:#FF5166;}
</style>
<g>
	<g>
		<polygon points="310.9,274.3 310.9,310.9 274.3,310.9 274.3,493.7 237.7,493.7 237.7,310.9 201.1,310.9 201.1,274.3 		"/>
	</g>
	<path class="st0" d="M310.9,18.3L310.9,18.3h-36.6h0h-36.6l0,0h-36.6l0,0h-36.6v36.6v0v36.6v0V128v0v36.6v0v36.6v0v36.6v0v36.6
		h36.6l0,0h36.6l0,0h36.6h0h36.6l0,0h36.6v-36.6v0v-36.6v0v-36.6v0V128v0V91.4v0V54.9v0V18.3H310.9z M237.7,237.7h-36.6v-36.6v0
		v-5.4c4.9,20.8,21.2,37.1,42,42H237.7L237.7,237.7z M224.1,182.9c0-17.6,14.3-31.9,31.9-31.9c17.6,0,31.9,14.3,31.9,31.9
		c0,17.6-14.3,31.9-31.9,31.9C238.4,214.8,224.1,200.5,224.1,182.9z M310.9,201.1v36.6h-36.6h0h-5.4c20.8-4.9,37.1-21.2,42-42V201.1
		L310.9,201.1z M310.9,91.4V128v0v36.6v0v5.4c-5.8-24.9-28.2-43.5-54.9-43.5c-26.6,0-49,18.6-54.9,43.5v-5.4v0V128v0V91.4v0V54.9
		h36.6l0,0h36.6h0h36.6V91.4L310.9,91.4z"/>
</g>
</svg>
