<?xml version="1.0" encoding="utf-8"?>
<!-- Generator: Adobe Illustrator 27.5.0, SVG Export Plug-In . SVG Version: 6.00 Build 0)  -->
<svg version="1.1" id="Capa_1" xmlns="http://www.w3.org/2000/svg" xmlns:xlink="http://www.w3.org/1999/xlink" x="0px" y="0px"
	 viewBox="0 0 512 512" style="enable-background:new 0 0 512 512;" xml:space="preserve">
<style type="text/css">
	.st0{fill:#FF5166;}
	.st1{fill:#FFFFFF;}
	.st2{fill:none;}
	.st3{fill:#C5C5C5;}
	.st4{fill:#C5C4C4;}
	.st5{fill:#C3C3C3;}
</style>
<g>
	<g>
		<path class="st0" d="M189.5,139.7c-6.8-19.3-25.3-33.2-46.9-33.2c-27.5,0-49.8,22.3-49.8,49.8s22.3,49.8,49.8,49.8
			c21.7,0,40.1-13.8,47-33.2h229.6v-33.2H189.5z M142.6,182.8c-14.6,0-26.5-11.9-26.5-26.5c0-14.6,11.9-26.5,26.5-26.5
			c14.6,0,26.5,11.9,26.5,26.5C169.2,170.9,157.3,182.8,142.6,182.8z"/>
	</g>
	<g>
		<path d="M189.5,339c-6.8-19.2-25.3-33.1-46.9-33.1c-27.5,0-49.8,22.3-49.8,49.8s22.3,49.8,49.8,49.8c21.7,0,40.2-13.9,47-33.2
			h229.6V339H189.5z M142.6,382.3c-14.6,0-26.5-11.9-26.5-26.5c0-14.7,11.9-26.5,26.5-26.5c14.6,0,26.5,11.8,26.5,26.5
			C169.2,370.4,157.3,382.3,142.6,382.3z"/>
	</g>
	<g>
		<path d="M369.4,206.2c-21.6,0-40.1,13.9-46.9,33.1H92.8v33.2h229.7c6.8,19.4,25.3,33.2,47,33.2c27.5,0,49.8-22.3,49.8-49.8
			S396.9,206.2,369.4,206.2z M369.4,282.6c-14.7,0-26.5-11.9-26.5-26.5c0-14.7,11.8-26.5,26.5-26.5c14.6,0,26.5,11.8,26.5,26.5
			C396,270.7,384.1,282.6,369.4,282.6z"/>
	</g>
</g>
</svg>
