<?xml version="1.0" encoding="utf-8"?>
<!-- Generator: Adobe Illustrator 27.5.0, SVG Export Plug-In . SVG Version: 6.00 Build 0)  -->
<svg version="1.1" id="Capa_1" xmlns="http://www.w3.org/2000/svg" xmlns:xlink="http://www.w3.org/1999/xlink" x="0px" y="0px"
	 viewBox="0 0 512 512" style="enable-background:new 0 0 512 512;" xml:space="preserve">
<style type="text/css">
	.st0{fill:#FF5166;}
	.st1{fill:#FFFFFF;}
	.st2{fill:none;}
	.st3{fill:#C5C5C5;}
	.st4{fill:#C5C4C4;}
	.st5{fill:#C3C3C3;}
</style>
<g>
	<polygon class="st0" points="372.3,66.2 372.3,265.7 339.1,265.7 339.1,99.4 172.9,99.4 172.9,265.7 139.7,265.7 139.7,66.2 	"/>
	<polygon points="372.3,265.7 372.3,465.1 339.1,465.1 339.1,431.9 172.9,431.9 172.9,465.1 139.7,465.1 139.7,265.7 172.9,265.7 
		172.9,398.7 339.1,398.7 339.1,265.7 	"/>
	<g>
		<path class="st0" d="M337.5,221.7l-5.4-5.4l-9.4-9.4l-9.4-9.4l-9.4-9.4l-9.4-9.3l-5.4-5.4c-2.1-2.2-5.7-2.2-7.8,0l-5.4,5.4
			l-9.4,9.3L233,221.7c-2.1,2.2-2.1,5.7,0,7.9l5.4,5.4l9.4,9.4l9.4,9.3l24.2,24.2c2.1,2.2,5.7,2.2,7.8,0l5.4-5.4l9.4-9.4l9.4-9.4
			l9.4-9.3l14.8-14.8c1.1-1.1,1.6-2.5,1.6-4S338.6,222.8,337.5,221.7z M304,244.4l-9.4,9.3l-9.3,9.4l-9.4-9.4l-9.4-9.3l-9.4-9.4
			l-9.4-9.4l37.5-37.5l9.3,9.4l9.4,9.4l9.4,9.4l9.4,9.4L304,244.4z"/>
		<path class="st0" d="M300,229.6l-1.5,1.5c-2.1,2.2-5.7,2.2-7.8,0l-10.8-10.8c-2.2-2.2-2.2-5.7,0-7.9l1.5-1.5
			c2.1-2.2,5.7-2.2,7.8,0l5.4,5.4l5.4,5.4C302.2,223.9,302.2,227.4,300,229.6z"/>
		<path d="M247.8,244.4l-9.4,9.3l-9.4,9.4l-9.3,9.4l-28.1,28.1l9.4,9.4l9.4-9.4l9.4,9.4l-9.4,9.3l-5.4,5.4c-2.2,2.2-5.7,2.2-7.9,0
			l-5.4-5.4l-9.4-9.3l-9.4-9.4l65.5-65.5L247.8,244.4z"/>
		<path d="M266.5,263.1l-9.4,9.4l-9.4,9.4l-9.4,9.4l5.4,5.4c2.2,2.2,2.2,5.7,0,7.8l-5.4,5.5l-5.4,5.4c-2.1,2.1-5.7,2.1-7.8,0
			l-5.4-5.4l9.3-9.4l-9.3-9.4l9.3-9.4l9.4-9.4l9.4-9.4l9.4-9.4L266.5,263.1z"/>
	</g>
</g>
</svg>
