<?xml version="1.0" encoding="utf-8"?>
<!-- Generator: Adobe Illustrator 27.5.0, SVG Export Plug-In . SVG Version: 6.00 Build 0)  -->
<svg version="1.1" id="Capa_1" xmlns="http://www.w3.org/2000/svg" xmlns:xlink="http://www.w3.org/1999/xlink" x="0px" y="0px"
	 viewBox="0 0 512 512" style="enable-background:new 0 0 512 512;" xml:space="preserve">
<style type="text/css">
	.st0{fill:#FF5166;}
	.st1{fill:#FFFFFF;}
	.st2{fill:none;}
	.st3{fill:#C5C5C5;}
	.st4{fill:#C5C4C4;}
	.st5{fill:#C3C3C3;}
</style>
<g>
	<g>
		<polygon class="st0" points="415.7,200.9 415.7,201 406.9,192.2 		"/>
	</g>
	<polygon class="st0" points="319.9,279.2 256.1,343 256,342.9 319.8,279.1 	"/>
	<path class="st0" d="M415.7,201l-8.8-8.8L351.8,137l-32-31.9L287.9,137L256,169l-32-32l-32-31.9L160.1,137l-63.9,63.9l0.1,0.1
		l-23.1,23.2L224,375l31.9,31.9l0.1-0.1l0.1,0.1l182.8-182.8L415.7,201z M319.9,279.2L256.1,343l-0.1-0.1l-0.1,0.1l-63.8-63.8
		L137,224.1l55-55.1l63.9,63.9l63.9-63.9l55.2,55.2L319.9,279.2z"/>
	
		<rect x="224" y="265.9" transform="matrix(0.7071 -0.7071 0.7071 0.7071 -154.3279 249.5297)" class="st0" width="0.1" height="90.3"/>
</g>
</svg>
