<?xml version="1.0" encoding="utf-8"?>
<!-- Generator: Adobe Illustrator 27.5.0, SVG Export Plug-In . SVG Version: 6.00 Build 0)  -->
<svg version="1.1" id="Capa_1" xmlns="http://www.w3.org/2000/svg" xmlns:xlink="http://www.w3.org/1999/xlink" x="0px" y="0px"
	 viewBox="0 0 512 512" style="enable-background:new 0 0 512 512;" xml:space="preserve">
<style type="text/css">
	.st0{fill:#FF5166;}
	.st1{fill:#FFFFFF;}
	.st2{fill:none;}
	.st3{fill:#C5C5C5;}
	.st4{fill:#C5C4C4;}
	.st5{fill:#C3C3C3;}
</style>
<g>
	<path d="M438.8,39.9h-33.2h-33.2h-33.2h-33.2h-33.2h-33.2h0h-33.2h-33.2h-33.2h-33.2h0H73.2H39.9v33.2v33.2v33.2v0v33.2v0v33.2v0
		v33.2v33.2v0v33.2v0v33.2v0v33.2v33.2v0v33.2v0v33.2h33.2h33.2h0h33.2h33.2h33.2h33.2h0h33.2h33.2h33.2h33.2h33.2h33.2h33.2v-33.2
		v0v-33.2v0v-33.2v-33.2v0v-33.2v0v-33.2v0v-33.2v-33.2v0v-33.2v0v-33.2v0v-33.2V73.2V39.9H438.8z M206.1,438.8h-33.2h-33.2v-33.2v0
		v-33.2v-33.2v0v-33.2v-33.2v0v-33.2v-33.2h33.2h33.2h33.2v33.2v33.2v0v33.2v0v33.2v0v33.2v33.2v0v33.2H206.1z M339.1,438.8h-33.2
		h-33.2v-33.2v0v-33.2v-33.2v0v-33.2v0v-33.2v0v-33.2v-33.2h33.2h33.2h33.2v33.2v33.2v0v33.2v0v33.2v0v33.2v33.2v0v33.2H339.1z
		 M438.8,106.4v33.2v0v33.2v0v33.2v0v33.2v33.2v0v33.2v0v33.2v0v33.2v33.2v0v33.2h-33.2v-33.2v0v-33.2v-33.2v0v-33.2v0v-33.2v0
		v-33.2v-33.2v0v-33.2h-33.2h-33.2h-33.2h-33.2h-33.2h0h-33.2h-33.2h-33.2h-33.2v33.2v0v33.2v33.2v0v33.2v33.2v0v33.2v33.2v0v33.2
		H73.2v-33.2v0v-33.2v-33.2v0v-33.2v0v-33.2v0v-33.2v-33.2v0v-33.2v0v-33.2v0v-33.2V73.2h33.2h0h33.2h33.2h33.2h33.2h0h33.2h33.2
		h33.2h33.2h33.2h33.2V106.4z"/>
	<rect x="172.9" y="106.4" class="st0" width="33.2" height="33.2"/>
	<rect x="239.4" y="106.4" class="st0" width="33.2" height="33.2"/>
	<rect x="305.9" y="106.4" class="st0" width="33.2" height="33.2"/>
</g>
</svg>
