<?xml version="1.0" encoding="utf-8"?>
<!-- Generator: Adobe Illustrator 27.5.0, SVG Export Plug-In . SVG Version: 6.00 Build 0)  -->
<svg version="1.1" id="Capa_1" xmlns="http://www.w3.org/2000/svg" xmlns:xlink="http://www.w3.org/1999/xlink" x="0px" y="0px"
	 viewBox="0 0 512 512" style="enable-background:new 0 0 512 512;" xml:space="preserve">
<style type="text/css">
	.st0{fill:#FF5166;}
	.st1{fill:#FFFFFF;}
	.st2{fill:none;}
	.st3{fill:#C5C5C5;}
	.st4{fill:#C5C4C4;}
	.st5{fill:#C3C3C3;}
</style>
<path class="st0" d="M305.9,301.5v-24.3v0V244v0v-33.2v0v-33.2v-33.2v0V111v0V77.8c0-18.4-14.9-33.2-33.2-33.2h-33.2h0
	c-18.4,0-33.2,14.9-33.2,33.2V111v0v33.2v0v33.2v33.2v0V244v0v33.2v0v24.3c-24.5,16.2-40.7,44-40.7,75.5c0,49.9,40.6,90.5,90.5,90.5
	c49.9,0,90.5-40.6,90.5-90.5C346.5,345.5,330.3,317.7,305.9,301.5z M256,435.7c-32.4,0-58.8-26.4-58.8-58.8
	c0-26.6,17.8-49.2,42.1-56.3V288v-10.8v0v-20V244v0v-33.2v0v-33.2v-33.2v0V111v0V77.8h33.2V111v0v33.2v0v33.2v33.2v0V244v0v13.2v20
	v0V288v32.6c24.3,7.2,42.1,29.7,42.1,56.3C314.8,409.4,288.4,435.7,256,435.7z"/>
</svg>
