<?xml version="1.0" encoding="utf-8"?>
<!-- Generator: Adobe Illustrator 27.4.1, SVG Export Plug-In . SVG Version: 6.00 Build 0)  -->
<svg version="1.1" id="Capa_1" xmlns="http://www.w3.org/2000/svg" xmlns:xlink="http://www.w3.org/1999/xlink" x="0px" y="0px"
	 viewBox="0 0 512 512" style="enable-background:new 0 0 512 512;" xml:space="preserve">
<style type="text/css">
	.svg_base{fill:#363434;}
	.svg_accent{fill:#00BFB2;}
	.st2{fill:none;}
	.st3{fill:#30363B;}
	.st4{fill-rule:evenodd;clip-rule:evenodd;fill:#00BFB2;}
	.st5{fill:#30363B;stroke:#30363B;stroke-width:0.1828;}
	.st6{fill:#5ABBA7;}
	.st7{fill-rule:evenodd;clip-rule:evenodd;fill:#30363B;}
	.st8{fill:#05C0BD;}
	.st9{fill:#FFFFFF;filter:url(#Adobe_OpacityMaskFilter);}
	.svg_accent0{mask:url(#mask0_1235_50707_00000062165600384750918480000002694536003139282600_);}
</style>
<rect x="97.5" y="399.4" class="svg_accent" width="26.5" height="26"/>
<rect x="388.3" y="399.4" class="svg_accent" width="26.5" height="26"/>
<path class="svg_base" d="M84.1,86.5h26.5V127c0,4.2,2,8.1,5.5,10.5c5.9,4.2,14.2,2.9,18.4-2.9c46.4-63.8,196.7-63.7,243.1,0
	c2.5,3.4,6.5,5.4,10.6,5.4c7.3,0,13.3-5.8,13.3-13V86.5H428v156.4c10.2,0,19.4,3.8,26.4,10V73.6c0-7.2-5.9-13.1-13.2-13.1h-52.9
	c-7.3,0-13.2,5.9-13.2,13.1v21.9c-62.4-46.7-175.8-46.5-238,0V73.6c0-7.2-5.9-13.1-13.2-13.1H70.9c-7.2,0-13.2,5.9-13.2,13.1V253
	c7-6.2,16.3-10,26.5-10V86.5z"/>
<path class="svg_base" d="M137,230.1c0-7.2,5.9-13.1,13.2-13.1h52.9c7.3,0,13.2,5.9,13.2,13.1v13h26.4v-13c0-21.6-17.7-39.1-39.6-39.1
	h-52.9c-21.8,0-39.6,17.5-39.6,39.1v13H137V230.1z"/>
<path class="svg_base" d="M295.6,230.1c0-7.2,5.9-13.1,13.2-13.1h52.9c7.3,0,13.2,5.9,13.2,13.1v13h26.4v-13c0-21.6-17.7-39.1-39.6-39.1
	h-52.9c-21.8,0-39.6,17.5-39.6,39.1v13h26.4V230.1z"/>
<path class="svg_base" d="M467.5,332.1c-1-6.2-6.5-10.9-13.1-10.9h-13.3H70.9H57.7c-7.3,0-13.2,5.8-13.2,13v52.2
	c0,7.2,5.9,13.1,13.2,13.1H71v26c0,14.4,11.9,26,26.5,26H124c14.6,0,26.5-11.6,26.5-26v-39.1c0-7.2-5.9-13.1-13.2-13.1H70.9v-26H441
	v26H189.9c-7.3,0-13.2,5.9-13.2,13.1c0,7.2,5.9,13.1,13.2,13.1h171.9v26c0,14.4,11.9,26,26.5,26h26.5c14.6,0,26.5-11.6,26.5-26v-26
	h13.2c7.3,0,13.2-5.9,13.2-13.1v-52.1C467.7,333.5,467.6,332.8,467.5,332.1z M97.5,399.4H124v26H97.5V399.4z M414.8,425.4h-26.5v-26
	h26.5V425.4z"/>
<path class="svg_accent" d="M57.7,321.2h13.2V282c0-6.7,5.1-12.2,11.7-13c0.5-0.1,1-0.1,1.5-0.1h38.1h108.9h49.8h108.9h38.1
	c0.5,0,1,0,1.5,0.1c6.6,0.7,11.7,6.3,11.7,13v39.1h13.3c6.6,0,12,4.7,13.1,10.9v-50c0-11.6-5.1-22-13.1-29.1c-7-6.2-16.2-10-26.4-10
	v0.1h-26.6H375h-79.4h-26.4h-26.5h-26.4H137h-26.4H84.2l-0.1-0.1c-10.2,0-19.5,3.8-26.5,10c-8.1,7.2-13.2,17.5-13.2,29.1v52.1
	C44.6,327,50.5,321.2,57.7,321.2z"/>
</svg>
