<?xml version="1.0" encoding="utf-8"?>
<!-- Generator: Adobe Illustrator 27.4.1, SVG Export Plug-In . SVG Version: 6.00 Build 0)  -->
<svg version="1.1" id="Capa_1" xmlns="http://www.w3.org/2000/svg" xmlns:xlink="http://www.w3.org/1999/xlink" x="0px" y="0px"
	 viewBox="0 0 512 512" style="enable-background:new 0 0 512 512;" xml:space="preserve">
<style type="text/css">
	.svg_base{fill:#363434;}
	.svg_accent{fill:#00BFB2;}
	.st2{fill:none;}
	.st3{fill:#30363B;}
	.st4{fill-rule:evenodd;clip-rule:evenodd;fill:#00BFB2;}
	.st5{fill:#30363B;stroke:#30363B;stroke-width:0.1828;}
	.st6{fill:#5ABBA7;}
	.st7{fill-rule:evenodd;clip-rule:evenodd;fill:#30363B;}
	.st8{fill:#05C0BD;}
	.st9{fill:#FFFFFF;filter:url(#Adobe_OpacityMaskFilter);}
	.svg_accent0{mask:url(#mask0_1235_50707_00000062165600384750918480000002694536003139282600_);}
</style>
<g>
	<defs>
		<filter id="Adobe_OpacityMaskFilter" filterUnits="userSpaceOnUse" x="42.3" y="50.1" width="427.4" height="411.9">
			<feColorMatrix  type="matrix" values="1 0 0 0 0  0 1 0 0 0  0 0 1 0 0  0 0 0 1 0"/>
		</filter>
	</defs>
	
		<mask maskUnits="userSpaceOnUse" x="42.3" y="50.1" width="427.4" height="411.9" id="mask0_1235_50707_00000062165600384750918480000002694536003139282600_">
		<path class="st9" d="M469.7,50.1H42.3v411.9h427.4V50.1z"/>
	</mask>
	<g class="svg_accent0">
		<path class="svg_accent" d="M175.9,127.3c-7.4,0-13.3-5.8-13.3-12.9c0-7.1,6-12.9,13.3-12.9c7.4,0,13.3,5.8,13.3,12.9
			C189.2,121.5,183.3,127.3,175.9,127.3z"/>
		<path class="svg_accent" d="M229.3,127.3c-7.4,0-13.3-5.8-13.3-12.9c0-7.1,6-12.9,13.3-12.9c7.4,0,13.3,5.8,13.3,12.9
			C242.6,121.5,236.6,127.3,229.3,127.3z"/>
		<path class="svg_accent" d="M282.6,127.3c-7.4,0-13.3-5.8-13.3-12.9c0-7.1,6-12.9,13.3-12.9c7.4,0,13.3,5.8,13.3,12.9
			C296,121.5,290,127.3,282.6,127.3z"/>
		<path class="svg_accent" d="M336.1,127.3c-7.4,0-13.3-5.8-13.3-12.9c0-7.1,6-12.9,13.3-12.9c7.4,0,13.3,5.8,13.3,12.9
			C349.4,121.5,343.5,127.3,336.1,127.3z"/>
		<path class="svg_base" d="M429.5,50.1H82.4c-22.2,0-40.1,17.3-40.1,38.6v51.5c0,7.1,6,12.9,13.3,12.9c7.4,0,13.3-5.8,13.3-12.9V88.7
			c0-7.1,6-12.9,13.3-12.9h347.2c7.4,0,13.3,5.8,13.3,12.9v347.5H416V165.9c0-7.1-6-12.9-13.3-12.9H109.1c-7.4,0-13.3,5.8-13.3,12.9
			v270.3H69.1V191.6c0-7.1-6-12.9-13.3-12.9c-7.4,0-13.3,5.8-13.3,12.9v257.4c0,7.1,6,12.9,13.3,12.9h400.6
			c7.4,0,13.3-5.8,13.3-12.9V88.7C469.7,67.3,451.7,50.1,429.5,50.1z M122.4,178.8h120.2v257.4H122.4V178.8z M269.3,178.8h120.2
			v257.4H269.3V178.8z"/>
	</g>
</g>
</svg>
