<?xml version="1.0" encoding="utf-8"?>
<!-- Generator: Adobe Illustrator 27.4.1, SVG Export Plug-In . SVG Version: 6.00 Build 0)  -->
<svg version="1.1" id="Capa_1" xmlns="http://www.w3.org/2000/svg" xmlns:xlink="http://www.w3.org/1999/xlink" x="0px" y="0px"
	 viewBox="0 0 512 512" style="enable-background:new 0 0 512 512;" xml:space="preserve">
<style type="text/css">
	.svg_base{fill:#363434;}
	.svg_accent{fill:#00BFB2;}
	.st2{fill:none;}
	.st3{fill:#30363B;}
	.st4{fill-rule:evenodd;clip-rule:evenodd;fill:#00BFB2;}
	.st5{fill:#30363B;stroke:#30363B;stroke-width:0.1828;}
	.st6{fill:#5ABBA7;}
	.st7{fill-rule:evenodd;clip-rule:evenodd;fill:#30363B;}
	.st8{fill:#05C0BD;}
	.st9{fill:#FFFFFF;filter:url(#Adobe_OpacityMaskFilter);}
	.svg_accent0{mask:url(#mask0_1235_50707_00000062165600384750918480000002694536003139282600_);}
</style>
<g>
	<path class="svg_base" d="M376.6,292.5c6.6,4,14.2,6,21.8,6c2.8,0,5.6-0.3,8.3-0.8c10.4-2.1,19.5-7.9,25.8-16.4c6.3-8.5,9.2-19,8.1-29.5
		c-1-10.5-5.9-20.2-13.7-27.3c-7.1-6.4-16-10.2-25.4-10.9l0-0.1l-3.1,0c-9,0-18,3-25.3,8.4c-6.6,4.9-11.6,11.6-14.5,19.3H71.1v29.8
		h287.6C362,279.9,368.3,287.5,376.6,292.5z M397.8,268.7c-3.2-0.2-6.1-1.5-8.4-3.7c-2.4-2.4-3.7-5.6-3.7-9c0-3.4,1.3-6.6,3.7-9
		c2.4-2.4,5.6-3.7,9-3.7c0,0,0,0,0,0c3.4,0,6.6,1.3,9,3.7c2.4,2.4,3.7,5.6,3.7,9c0,3.4-1.3,6.6-3.7,9c-2.4,2.4-5.6,3.7-9,3.7H397.8z
		"/>
	<path class="svg_base" d="M138.8,337c-7.3-5.4-16.2-8.3-25.3-8.4h0c-10.6,0-20.7,3.9-28.5,11c-7.8,7.1-12.7,16.8-13.7,27.3
		c-1,10.5,1.9,21,8.1,29.5c6.3,8.5,15.5,14.3,25.8,16.4c2.8,0.6,5.6,0.8,8.3,0.8c7.6,0,15.1-2.1,21.8-6c8.3-5,14.6-12.6,18-21.6
		h287.6v-29.8H153.4C150.5,348.6,145.4,341.8,138.8,337z M104.5,362.1c2.4-2.4,5.6-3.7,9-3.7c0,0,0,0,0,0c3.4,0,6.6,1.3,9,3.7
		c2.4,2.4,3.7,5.6,3.7,9c0,3.4-1.4,6.6-3.7,9c-2.4,2.4-5.6,3.7-9,3.7c-3.4,0-6.6-1.3-9-3.7c-2.4-2.4-3.7-5.7-3.7-9
		C100.8,367.7,102.1,364.5,104.5,362.1z"/>
	<path class="svg_base" d="M153.4,126c-3.4-9-9.7-16.6-18-21.6c-9.1-5.4-19.8-7.3-30.1-5.2c-10.4,2.1-19.5,7.9-25.8,16.4
		c-6.3,8.5-9.2,19-8.1,29.5c1,10.5,5.9,20.2,13.7,27.3c6.9,6.3,15.7,10.1,25,10.9v0.2l3.5,0c9,0,18-3,25.3-8.4
		c6.6-4.9,11.6-11.6,14.5-19.3h287.6V126H153.4z M122.6,149.9c-2.4,2.4-5.6,3.7-9,3.7c0,0,0,0,0,0c-3.4,0-6.6-1.3-9-3.7
		c-2.4-2.4-3.7-5.6-3.7-9c0-3.4,1.3-6.6,3.7-9c2.4-2.4,5.6-3.7,9-3.7c3.3,0,6.6,1.4,9,3.7c2.4,2.4,3.7,5.7,3.7,9
		C126.3,144.3,125,147.5,122.6,149.9z"/>
</g>
</svg>
