<?xml version="1.0" encoding="utf-8"?>
<!-- Generator: Adobe Illustrator 27.4.1, SVG Export Plug-In . SVG Version: 6.00 Build 0)  -->
<svg version="1.1" id="Capa_1" xmlns="http://www.w3.org/2000/svg" xmlns:xlink="http://www.w3.org/1999/xlink" x="0px" y="0px"
	 viewBox="0 0 512 512" style="enable-background:new 0 0 512 512;" xml:space="preserve">
<style type="text/css">
	.svg_base{fill:#363434;}
	.svg_accent{fill:#00BFB2;}
	.st2{fill:none;}
	.st3{fill:#30363B;}
	.st4{fill-rule:evenodd;clip-rule:evenodd;fill:#00BFB2;}
	.st5{fill:#30363B;stroke:#30363B;stroke-width:0.1828;}
	.st6{fill:#5ABBA7;}
	.st7{fill-rule:evenodd;clip-rule:evenodd;fill:#30363B;}
	.st8{fill:#05C0BD;}
	.st9{fill:#FFFFFF;filter:url(#Adobe_OpacityMaskFilter);}
	.svg_accent0{mask:url(#mask0_1235_50707_00000062165600384750918480000002694536003139282600_);}
</style>
<g>
	<path class="svg_base" d="M376.6,179.1c7.4,0,13.4-5.7,13.4-12.8V76.6c0-14.1-12-25.6-26.8-25.6H148.8C134,51,122,62.5,122,76.6v333.1
		c0,14.1,12,25.6,26.8,25.6v12.8c0,7.1,6,12.8,13.4,12.8s13.4-5.7,13.4-12.8v-12.8h160.8v12.8c0,7.1,6,12.8,13.4,12.8
		c7.4,0,13.4-5.7,13.4-12.8v-12.8c14.8,0,26.8-11.5,26.8-25.6V217.5c0-7.1-6-12.8-13.4-12.8H148.8V76.6h214.4v89.7
		C363.2,173.4,369.2,179.1,376.6,179.1z M363.2,409.8H148.8V230.3h214.4V409.8z"/>
	<path class="svg_accent" d="M189,166.3c-7.4,0-13.4-5.7-13.4-12.8v-38.4c0-7.1,6-12.8,13.4-12.8s13.4,5.7,13.4,12.8v38.4
		C202.4,160.6,196.4,166.3,189,166.3z"/>
	<path class="svg_accent" d="M189,358.5c-7.4,0-13.4-5.7-13.4-12.8v-76.9c0-7.1,6-12.8,13.4-12.8s13.4,5.7,13.4,12.8v76.9
		C202.4,352.8,196.4,358.5,189,358.5z"/>
</g>
</svg>
