<?xml version="1.0" encoding="utf-8"?>
<!-- Generator: Adobe Illustrator 27.4.1, SVG Export Plug-In . SVG Version: 6.00 Build 0)  -->
<svg version="1.1" id="Capa_1" xmlns="http://www.w3.org/2000/svg" xmlns:xlink="http://www.w3.org/1999/xlink" x="0px" y="0px"
	 viewBox="0 0 512 512" style="enable-background:new 0 0 512 512;" xml:space="preserve">
<style type="text/css">
	.svg_base{fill:#363434;}
	.svg_accent{fill:#00BFB2;}
	.st2{fill:none;}
	.st3{fill:#30363B;}
	.st4{fill-rule:evenodd;clip-rule:evenodd;fill:#00BFB2;}
	.st5{fill:#30363B;stroke:#30363B;stroke-width:0.1828;}
	.st6{fill:#5ABBA7;}
	.st7{fill-rule:evenodd;clip-rule:evenodd;fill:#30363B;}
	.st8{fill:#05C0BD;}
	.st9{fill:#FFFFFF;filter:url(#Adobe_OpacityMaskFilter);}
	.svg_accent0{mask:url(#mask0_1235_50707_00000062165600384750918480000002694536003139282600_);}
</style>
<g>
	<path class="svg_accent" d="M74,277.9v24.7H57.4c-11.5,0-20.8-9.3-20.8-20.8v-51.5c0-5.5,2.2-10.8,6.1-14.7c3.9-3.9,9.1-6.1,14.7-6.1
		c0,0,0,0,0,0l16.5,0v24.6H61.3v43.7L74,277.9z"/>
	<polygon class="svg_accent" points="302.9,209.4 302.9,234.1 203.2,234.1 203.2,209.5 	"/>
	<path class="svg_base" d="M164.7,121.5c-18.5,0-34.1,13.2-37.7,30.7c-4.6-1.9-9.6-2.9-14.6-2.9c-21.2,0-38.5,17.3-38.5,38.5v46.4l0,43.8
		v46.5c0,21.2,17.3,38.5,38.5,38.5c5.1,0,10-1,14.6-2.9c3.6,17.5,19.1,30.6,37.6,30.6c20.9,0,38.2-17,38.5-38V159.7
		C203,138.6,185.8,121.5,164.7,121.5z M126.2,324.3c0,7.6-6.2,13.8-13.8,13.8c-7.6,0-13.8-6.2-13.8-13.8V187.7
		c0-0.9,0.1-1.9,0.3-2.8c0-0.1,0.1-0.3,0.1-0.4c0.1-0.4,0.2-0.8,0.4-1.2c0.2-0.6,0.5-1.2,0.8-1.8c0.1-0.1,0.1-0.3,0.2-0.4
		c0.6-1.1,1.3-2,2.1-2.9c0.1-0.1,0.2-0.2,0.3-0.3c0.1-0.1,0.2-0.2,0.3-0.3c0.9-0.8,1.8-1.6,2.9-2.1c1.1-0.6,2.2-1,3.4-1.3
		c0.1,0,0.2-0.1,0.4-0.1c0.9-0.2,1.8-0.3,2.8-0.3c7.6,0,13.8,6.2,13.8,13.8V324.3z M178.5,352c0,7.6-6.2,13.8-13.8,13.8
		c-7.6,0-13.8-6.2-13.8-13.8V159.9c0-7.6,6.2-13.8,13.8-13.8c7.6,0,13.8,6.2,13.8,13.8V352z"/>
	<path class="svg_accent" d="M302.9,277.9v24.7h-99.7V352c0,0.1,0,0.3,0,0.4v-74.6H302.9z"/>
	<path class="svg_base" d="M393.6,149.2c-5.1,0-10,1-14.6,2.9c-3.6-17.5-19.1-30.6-37.7-30.6c-21.2,0-38.5,17.2-38.5,38.5v74.2l0,43.8
		V352c0,21.2,17.3,38.5,38.5,38.5c18.5,0,34-13.2,37.7-30.6c4.6,1.9,9.5,2.9,14.6,2.9c20.9,0,38.2-17,38.5-38V187.3
		C431.9,166.3,414.7,149.2,393.6,149.2z M355.2,352c0,7.6-6.2,13.8-13.8,13.8c-7.6,0-13.8-6.2-13.8-13.8l0-192.1
		c0-1,0.1-1.9,0.3-2.8c1.3-6.3,6.9-11,13.5-11c7.6,0,13.8,6.2,13.8,13.8V352z M407.4,324.3c0,7.6-6.2,13.8-13.8,13.8
		c-7.6,0-13.8-6.2-13.8-13.8V187.7c0-7.6,6.2-13.8,13.8-13.8c7.6,0,13.8,6.2,13.8,13.8V324.3z"/>
	<path class="svg_accent" d="M469.4,230.2v51.5c0,11.4-9.3,20.8-20.8,20.8h-16.5v21.8c0,0.2,0,0.3,0,0.4v-46.9h12.7v-43.7h-12.7v-24.7h16.6
		C460.1,209.5,469.4,218.8,469.4,230.2z"/>
</g>
</svg>
