<svg width="36" height="44" viewBox="0 0 36 44" fill="none" xmlns="http://www.w3.org/2000/svg">
<path fill-rule="evenodd" clip-rule="evenodd" d="M17.795 0C12.722 0 8.69835 4.25902 8.69835 9.40162C8.69835 14.5442 12.722 18.8032 17.795 18.8032C22.868 18.8032 26.8916 14.5442 26.8916 9.40162C26.8916 4.25902 22.868 0 17.795 0ZM10.8849 9.40162C10.8849 5.35563 14.0277 2.16582 17.795 2.16582C21.5623 2.16582 24.7051 5.35563 24.7051 9.40162C24.7051 13.4476 21.5623 16.6374 17.795 16.6374C14.0277 16.6374 10.8849 13.4476 10.8849 9.40162Z" fill="#30363B"/>
<path d="M9.79196 24.9561C7.36191 24.9561 5.0427 25.96 3.34126 27.7285C1.64153 29.4952 0.695312 31.8807 0.695312 34.3577V38.5171C0.695312 39.1152 1.1848 39.6 1.7886 39.6C2.39241 39.6 2.8819 39.1152 2.8819 38.5171V34.3577C2.8819 32.4223 3.62209 30.576 4.9242 29.2226C6.2246 27.871 7.97676 27.1219 9.79196 27.1219H25.7987C27.6139 27.1219 29.366 27.871 30.6664 29.2226C31.9685 30.576 32.7087 32.4223 32.7087 34.3577V38.5171C32.7087 39.1152 33.1982 39.6 33.802 39.6C34.4058 39.6 34.8953 39.1152 34.8953 38.5171V34.3577C34.8953 31.8807 33.9491 29.4952 32.2494 27.7285C30.5479 25.96 28.2287 24.9561 25.7987 24.9561H9.79196Z" fill="#30363B"/>
</svg>
