<svg width="48" height="44" viewBox="0 0 48 44" fill="none" xmlns="http://www.w3.org/2000/svg">
<g clip-path="url(#clip0_229_29164)">
<path d="M42.577 8.42407C41.3214 2.595 35.8424 -1.04686 30.3253 0.271743C27.5953 0.931046 25.2363 2.74151 23.8 5.28453C23.5622 5.76593 23.0961 6.07988 22.5824 6.10081H16.4851C15.6765 6.10081 15.0202 6.79151 15.0202 7.64965C15.0202 8.50779 15.6765 9.19849 16.4851 9.19849H22.5253C24.0758 9.16709 25.5026 8.27756 26.2731 6.84384C28.2897 3.14965 32.7604 1.88337 36.2609 4.01825C39.7614 6.15314 40.96 10.8834 38.9339 14.5776C36.9173 18.2717 32.4465 19.538 28.9461 17.4031C27.8331 16.7229 26.9104 15.7497 26.2731 14.5776C25.5122 13.1648 24.0853 12.2962 22.5443 12.2857H15.0297C14.2212 12.2857 14.0214 12.7043 12.1095 14.745L10.2261 12.7357C9.65532 12.1287 8.73264 12.1287 8.16191 12.7357L6.4402 14.5776L3.82435 10.8834L5.4224 9.19849H10.6731C11.4817 9.19849 12.138 8.50779 12.138 7.64965C12.138 6.79151 11.4817 6.10081 10.6731 6.10081H4.82313C4.03362 6.10081 3.98605 6.33105 0.856542 9.63802C0.342884 10.1822 0.285811 11.0508 0.723372 11.6578L5.10849 17.8427C5.59362 18.5229 6.50679 18.6694 7.15362 18.1566C7.21069 18.1148 7.26776 18.0624 7.31532 18.0101L9.19874 16.0008L11.0822 18.0101C11.6529 18.6171 12.5756 18.6171 13.1463 18.0101L15.629 15.3624H22.5443C23.039 15.3938 23.4861 15.6973 23.7334 16.1473C26.5775 21.3066 32.8461 23.0543 37.7353 20.0403C41.5592 17.6857 43.5187 12.9869 42.5865 8.4136L42.577 8.42407Z" fill="#30363B"/>
<path d="M26.7202 24.6562H15.0202C10.1785 24.6562 6.25 28.8109 6.25 33.9283C6.25 39.0458 10.1785 43.2004 15.0202 43.2004H26.7202C31.562 43.2004 35.4905 39.0458 35.4905 33.9283C35.4905 28.8109 31.562 24.6562 26.7202 24.6562ZM26.7202 40.1132H15.0202C11.7861 40.1132 9.17024 37.34 9.17024 33.9283C9.17024 30.5167 11.7861 27.7435 15.0202 27.7435H26.7202C29.9544 27.7435 32.5702 30.5062 32.5702 33.9283C32.5702 37.3504 29.9544 40.1132 26.7202 40.1132Z" fill="#30363B"/>
<path d="M35.5023 7.64844C37.1193 7.64844 38.4225 9.02983 38.4225 10.7356C38.4225 12.4415 37.1098 13.8229 35.5023 13.8229C33.8947 13.8229 32.582 12.4415 32.582 10.7356C32.582 9.02983 33.8947 7.64844 35.5023 7.64844Z" fill="#363434"/>
<path d="M38.4165 35.4759H31.1016C30.2931 35.4759 29.6367 34.7852 29.6367 33.927C29.6367 33.0689 30.2931 32.3782 31.1016 32.3782H38.4165C41.6506 32.3782 44.2665 29.6049 44.2665 26.1933V18.4701C44.2665 15.0584 41.6506 12.2852 38.4165 12.2852H36.9516C36.1431 12.2852 35.4867 11.5945 35.4867 10.7363C35.4867 9.8782 36.1431 9.1875 36.9516 9.1875H38.4165C43.2582 9.1875 47.1867 13.3422 47.1867 18.4596V26.1828C47.1867 31.3003 43.2582 35.4549 38.4165 35.4549" fill="#FF5166"/>
</g>
<defs>
<clipPath id="clip0_229_29164">
<rect width="46.8" height="43.2" fill="white" transform="translate(0.601562)"/>
</clipPath>
</defs>
</svg>
