<?xml version="1.0" encoding="utf-8"?>
<!-- Generator: Adobe Illustrator 27.4.1, SVG Export Plug-In . SVG Version: 6.00 Build 0)  -->
<svg version="1.1" id="Capa_1" xmlns="http://www.w3.org/2000/svg" xmlns:xlink="http://www.w3.org/1999/xlink" x="0px" y="0px"
	 viewBox="0 0 512 512" style="enable-background:new 0 0 512 512;" xml:space="preserve">
<style type="text/css">
	.svg_base{fill:#363434;}
	.svg_accent{fill:#00BFB2;}
	.st2{fill:none;}
	.st3{fill:#30363B;}
	.st4{fill-rule:evenodd;clip-rule:evenodd;fill:#00BFB2;}
	.st5{fill:#30363B;stroke:#30363B;stroke-width:0.1828;}
	.st6{fill:#5ABBA7;}
	.st7{fill-rule:evenodd;clip-rule:evenodd;fill:#30363B;}
	.st8{fill:#05C0BD;}
	.st9{fill:#FFFFFF;filter:url(#Adobe_OpacityMaskFilter);}
	.svg_accent0{mask:url(#mask0_1235_50707_00000062165600384750918480000002694536003139282600_);}
</style>
<path class="svg_base" d="M286.3,223.6c-2.6,0-5.7-0.9-7.4-3c-25.7-26.5-10-56.1,1.7-68.3l90.5-90.5c3.9-3.9,10.9-3.9,14.8,0
	c3.9,3.9,3.9,10.9,0,14.8l-90.5,90.9c-3,3.5-18.7,20.9-1.7,38.7c3.9,4.4,3.9,10.9,0,14.8C291.5,222.7,288.9,223.5,286.3,223.6
	L286.3,223.6z"/>
<path class="svg_base" d="M121.8,436.7c-8.3,0-16.5-3-23.1-11.3c-13.5-17-6.1-35.2,2.6-43.1l143.1-150.5L215.8,204c-3-2.6-3.9-7-2.6-10.9
	c0.4-1.3,10.4-34.8-25.2-72.6c-19.1-20.4-56.1-50.9-87.9-22.2c-7.4,6.5-11.7,17.4-12.2,29.6c-0.4,13.9,4.4,36.1,30,61.8
	c38.7,38.7,67,24.4,68.3,23.5c3.9-2.2,9.1-1.7,12.6,1.7l16.7,15.8c4.4,3.9,4.4,10.9,0.4,14.8c-3.9,4.4-10.9,4.4-14.8,0.4l-12.4-11.5
	c-14.4,4.4-47.4,8.3-85.7-30.4c-30.9-30.9-36.5-58.7-36.1-77c0.4-17.8,7.4-33.9,19.1-44.4c32.2-29.1,76.1-20,117,23.5
	c34.8,37,33.9,72.6,31.3,87l31.8,30.9c3.9,3.9,4.4,10.4,0.4,14.8L115.7,397.1c-2.6,2.6-6.1,8.3-0.9,15.2s15.2,1.3,17.8-0.4
	l171-178.8c3.5-3.9,9.1-4.4,13.5-1.3c9.1,6.1,26.5-3.9,32.6-8.3l89.8-89.8c2.7-2.7,6.6-4.1,10.4-3.3c8.6,1.7,10.3,12.2,5.1,17.4
	L367,236.8c-1.9,1.9-3.9,3.5-6.1,5c-8.4,5.4-29.4,17.2-46.7,11.8l-166.6,174c-0.4,0.4-0.9,0.9-1.7,1.3
	C140.5,432.4,131.4,436.7,121.8,436.7L121.8,436.7z"/>
<path class="svg_base" d="M406.8,445h-1.3c-13.5-0.4-23.1-11.3-25.2-13.5L278.5,325.9c-3.9-4.4-3.9-10.9,0.4-14.8
	c4.4-3.9,10.9-3.9,14.8,0.4l102.1,105.6l0.4,0.4c1.7,1.7,6.5,6.1,10.4,6.1c0.9,0,2.6,0,5.7-3c7.4-7.4,3-14.8,0.9-17.4L308.1,292.4
	c-3.9-4.4-3.9-10.9,0.4-14.8c4.4-3.9,10.9-3.9,14.8,0.4l105.2,111.7c8.7,10,14.8,30-1.7,46.5C419.8,443.2,412.4,445,406.8,445
	L406.8,445z"/>
<path class="svg_accent" d="M321.5,180.1c-1.7,0-3.5-0.9-5.2-2.2c-2.6-2.6-2.6-7.4,0-10l84.4-81.8c2.6-2.6,7.4-2.6,10,0
	c2.6,2.6,2.6,7.4,0,10l-84.4,82.2C325,179.6,323.2,180.1,321.5,180.1L321.5,180.1z"/>
<path class="svg_accent" d="M343.2,202.2c-1.7,0-3.5-0.9-5.2-2.2c-2.6-2.6-2.6-7.4,0-10l85.3-81.8c2.6-2.6,7.4-2.6,10,0
	c2.6,2.6,2.6,7.4,0,10l-84.8,81.8C347.2,201.8,345,202.2,343.2,202.2L343.2,202.2z"/>
<path class="svg_accent" d="M165.3,206.2c-23.1,0-43.1-25.7-44.4-27c-2.2-3-1.7-7.4,1.3-10c3-2.2,7.4-1.7,10,1.3
	c0.4,0.4,24.4,30.9,42.2,18.7c3-2.2,7.4-1.3,9.6,1.7c2.2,3,1.3,7.4-1.7,9.6C176.6,204.4,171,206.2,165.3,206.2L165.3,206.2z"/>
</svg>
