<?xml version="1.0" encoding="UTF-8"?>
<svg width="51.302362px" height="39.6px" viewBox="0 0 51.302362 39.6" version="1.1" xmlns="http://www.w3.org/2000/svg" xmlns:xlink="http://www.w3.org/1999/xlink">
    <title>shared-room</title>
    <g id="Page-1" stroke="none" stroke-width="1" fill="none" fill-rule="evenodd">
        <g id="shared-room">
            <path d="M38.264162,7.20312 C34.396262,7.20312 31.328362,10.3974 31.328362,14.2543 C31.328362,18.1113 34.396262,21.3055 38.264162,21.3055 C42.132062,21.3055 45.199962,18.1113 45.199962,14.2543 C45.199962,10.3974 42.132062,7.20312 38.264162,7.20312 Z M32.995562,14.2543 C32.995562,11.2198 35.391762,8.82749 38.264162,8.82749 C41.136562,8.82749 43.532762,11.2198 43.532762,14.2543 C43.532762,17.2888 41.136562,19.6812 38.264162,19.6812 C35.391762,19.6812 32.995562,17.2888 32.995562,14.2543 Z" id="Shape" fill="#FF5166"></path>
            <path d="M32.162162,25.9202 C30.309362,25.9202 29.785362,25.6882 28.488062,27.0145 C27.192062,28.3395 28.451162,25.6868 28.451162,27.5446 L28.450762,27.0145 C28.450762,27.4631 27.990762,27.5446 28.451162,27.5446 C28.911462,27.5446 29.572462,28.448 29.572462,27.9995 C29.572462,27.9995 29.793662,29.2393 29.793662,27.7877 C29.793662,26.3361 28.579662,29.0145 29.572462,27.9995 C30.563962,26.9857 30.778162,27.5446 32.162162,27.5446 L44.366562,27.5446 C45.750562,27.5446 47.086562,28.1063 48.077962,29.1201 C49.070762,30.1351 49.635162,31.5199 49.635162,32.9714 L49.635162,36.0909 C49.635162,36.5395 50.008362,36.9031 50.468762,36.9031 C50.929162,36.9031 51.302362,36.5395 51.302362,36.0909 L51.302362,32.9714 C51.302362,31.1136 50.580862,29.3245 49.284962,27.9995 C47.987662,26.6731 46.219362,25.9202 44.366562,25.9202 L32.162162,25.9202 Z" id="Path" fill="#FF5166" fill-rule="nonzero"></path>
            <path d="M17.099662,0 C12.026662,0 8.003042,4.25902 8.003042,9.40162 C8.003042,14.5442 12.026662,18.8032 17.099662,18.8032 C22.172662,18.8032 26.196362,14.5442 26.196362,9.40162 C26.196362,4.25902 22.172662,0 17.099662,0 Z M10.189662,9.40162 C10.189662,5.35563 13.332462,2.16582 17.099662,2.16582 C20.866962,2.16582 24.009762,5.35563 24.009762,9.40162 C24.009762,13.4476 20.866962,16.6374 17.099662,16.6374 C13.332462,16.6374 10.189662,13.4476 10.189662,9.40162 Z" id="Shape" fill="#30363B"></path>
            <path d="M9.096642,24.9561 C6.666602,24.9561 4.347392,25.96 2.645952,27.7285 C0.946222,29.4952 0,31.8807 0,34.3577 L0,38.5171 C0,39.1152 0.489483,39.6 1.093292,39.6 C1.697102,39.6 2.186582,39.1152 2.186582,38.5171 L2.186582,34.3577 C2.186582,32.4223 2.926782,30.576 4.228892,29.2226 C5.529292,27.871 7.281452,27.1219 9.096642,27.1219 L25.103362,27.1219 C26.918562,27.1219 28.670662,27.871 29.971062,29.2226 C31.273262,30.576 32.013462,32.4223 32.013462,34.3577 L32.013462,38.5171 C32.013462,39.1152 32.502862,39.6 33.106662,39.6 C33.710562,39.6 34.199962,39.1152 34.199962,38.5171 L34.199962,34.3577 C34.199962,31.8807 33.253762,29.4952 31.554062,27.7285 C29.852562,25.96 27.533362,24.9561 25.103362,24.9561 L9.096642,24.9561 Z" id="Path" fill="#30363B" fill-rule="nonzero"></path>
        </g>
    </g>
</svg>