<?xml version="1.0" encoding="utf-8"?>
<!-- Generator: Adobe Illustrator 27.4.1, SVG Export Plug-In . SVG Version: 6.00 Build 0)  -->
<svg version="1.1" id="Capa_1" xmlns="http://www.w3.org/2000/svg" xmlns:xlink="http://www.w3.org/1999/xlink" x="0px" y="0px"
	 viewBox="0 0 512 512" style="enable-background:new 0 0 512 512;" xml:space="preserve">
<style type="text/css">
	.svg_base{fill:#363434;}
	.svg_accent{fill:#00BFB2;}
	.st2{fill:none;}
	.st3{fill:#30363B;}
	.st4{fill-rule:evenodd;clip-rule:evenodd;fill:#00BFB2;}
	.st5{fill:#30363B;stroke:#30363B;stroke-width:0.1828;}
	.st6{fill:#5ABBA7;}
	.st7{fill-rule:evenodd;clip-rule:evenodd;fill:#30363B;}
	.st8{fill:#05C0BD;}
	.st9{fill:#FFFFFF;filter:url(#Adobe_OpacityMaskFilter);}
	.svg_accent0{mask:url(#mask0_1235_50707_00000062165600384750918480000002694536003139282600_);}
</style>
<g>
	<path class="svg_base" d="M394.1,189.9c7.7,0,13.8-5.9,13.8-13.2V84.1c0-21.9-18.5-39.6-41.5-39.6h-221c-22.9,0-41.5,17.8-41.5,39.6
		v343.7c0,21.9,18.5,39.6,41.5,39.6h221.1c22.8,0,41.5-17.8,41.5-39.6V229.5c0-7.3-6.2-13.2-13.8-13.2c-7.6,0-13.8,5.9-13.8,13.2
		v198.3c0,7.3-6.2,13.2-13.8,13.2H145.5c-7.6,0-13.8-5.9-13.8-13.2v-238H394.1L394.1,189.9z M145.5,70.9h221.1
		c7.7,0,13.8,5.9,13.8,13.2v79.3H131.7V84.1C131.7,76.8,137.9,70.9,145.5,70.9z"/>
	<path class="svg_base" d="M252,132.3l4-3.8l4,3.8c5.4,5.2,14.1,5.2,19.5,0c5.3-5.1,5.3-13.5,0-18.6l-13.8-13.2c-5.4-5.2-14.1-5.2-19.5,0
		l-13.8,13.2c-5.3,5.1-5.3,13.5,0,18.6C237.9,137.5,246.6,137.5,252,132.3z"/>
	<path class="svg_accent" d="M269.8,310.7v-81.2c0-7.3-6.2-13.2-13.8-13.2h-27.7c-7.6,0-13.8,5.9-13.8,13.2c0,7.3,6.2,13.2,13.8,13.2h13.8
		v26.4h-13.8c-7.6,0-13.8,5.9-13.8,13.2s6.2,13.2,13.8,13.2h13.8v15.1c-29.5,7.3-47.4,36.1-39.7,64.4s37.8,45.3,67.4,38
		c29.5-7.3,47.4-36.1,39.7-64.4C304.5,330,289.3,315.5,269.8,310.7z M256,388.1c-15.3,0-27.7-11.8-27.7-26.4
		c0-14.6,12.4-26.4,27.7-26.4c15.3,0,27.7,11.8,27.7,26.4C283.7,376.3,271.3,388.1,256,388.1z"/>
</g>
</svg>
