<?xml version="1.0" encoding="utf-8"?>
<!-- Generator: Adobe Illustrator 27.4.1, SVG Export Plug-In . SVG Version: 6.00 Build 0)  -->
<svg version="1.1" id="Capa_1" xmlns="http://www.w3.org/2000/svg" xmlns:xlink="http://www.w3.org/1999/xlink" x="0px" y="0px"
	 viewBox="0 0 512 512" style="enable-background:new 0 0 512 512;" xml:space="preserve">
<style type="text/css">
	.svg_base{fill:#363434;}
	.svg_accent{fill:#00BFB2;}
	.st2{fill:none;}
	.st3{fill:#30363B;}
	.st4{fill-rule:evenodd;clip-rule:evenodd;fill:#00BFB2;}
	.st5{fill:#30363B;stroke:#30363B;stroke-width:0.1828;}
	.st6{fill:#5ABBA7;}
	.st7{fill-rule:evenodd;clip-rule:evenodd;fill:#30363B;}
	.st8{fill:#05C0BD;}
	.st9{fill:#FFFFFF;filter:url(#Adobe_OpacityMaskFilter);}
	.svg_accent0{mask:url(#mask0_1235_50707_00000062165600384750918480000002694536003139282600_);}
</style>
<g>
	<path class="svg_accent" d="M464.1,207c-11.2-64.3-56-96.9-91.6-113c-50-22.6-101.5-22.9-116.2-22.4h-0.5c-3.8-0.1-8-0.1-11.5,0h-1.6l0,0
		c-21.8,0.5-62.8,4.2-103.1,22.4c-35.6,16.1-80.4,48.8-91.6,113.1c-0.7,3.8,0.4,7.7,2.8,10.6c2.4,3,6,4.7,9.9,4.7h182.6v68.4
		c0,3.5,1.3,6.8,3.7,9.3c2.4,2.5,5.7,3.9,9.2,3.9c3.4,0,6.8-1.4,9.2-3.9c2.4-2.5,3.7-5.9,3.7-9.3v-68.5h141.4c0.1,0,0.1,0,0.2,0
		c3.4,0,6.7-1.4,9.1-3.8c2.5-2.5,3.8-5.8,3.8-9.3c0-3.5-1.4-6.8-3.8-9.3c-2.4-2.5-5.8-3.8-9.2-3.8H77.2c10.5-35,34.9-61.4,72.7-78.5
		c36-16.3,78.2-21.1,105.7-20.2l0.1,0l0.8,0c27.5-0.9,69.7,3.9,105.7,20.2c20.2,9.1,36.7,20.8,49,34.8c14.3,16.2,23.6,36,27.6,58.9
		c0.5,3.5,2.3,6.6,5.1,8.7c2.8,2.1,6.4,3,9.8,2.3c3.4-0.6,6.5-2.6,8.5-5.6C464.1,214.1,464.8,210.5,464.1,207z"/>
	<g>
		<path class="svg_base" d="M151.1,380.8h2.5c3.4,0,6.8-1.3,9.2-3.8c2.4-2.4,3.8-5.8,3.8-9.3c0-3.5-1.4-6.8-3.8-9.3
			c-2.4-2.5-5.8-3.9-9.2-3.8l-74.1,0c-3.3-0.1-4-0.9-4.5-1.4c-0.9-1-1.5-2.9-1.7-5.4v-71.1c0.1-3.7-1.4-7.3-4.1-9.9
			c-2.7-2.6-6.4-3.8-10.1-3.4L56,264v0.4c-5,1.9-8.4,6.8-8.3,12.4v71.9l0,0.6c0.5,8.9,3.5,16.6,8.7,22.1c2.3,2.4,4.9,4.4,8,5.9
			l-15.9,44.8c-1.4,3.3-1.5,7-0.1,10.3c1.4,3.4,4.1,6,7.5,7.3c3.4,1.2,7.2,1,10.4-0.8c3.1-1.7,5.4-4.6,6.4-8.1l17.7-50.1h33.4
			l17.7,50.1c0.9,3.5,3.2,6.4,6.4,8.1c1.9,1,4,1.5,6.1,1.5c1.5,0,2.9-0.3,4.3-0.8c3.4-1.2,6.1-3.9,7.5-7.3c1.3-3.3,1.3-7.1-0.1-10.3
			L151.1,380.8z"/>
		<path class="svg_base" d="M463.4,422.2l-15.9-44.9c3.1-1.5,5.8-3.5,8-5.9c5.2-5.5,8.2-13.2,8.7-22.1l0-72.4c0.1-3.7-1.4-7.3-4.1-9.9
			c-1.8-1.6-3.9-2.7-6.2-3.2v-0.6l-3.9,0.4c-6.7,0.7-11.6,6.4-11.4,13.2V348c-0.2,3.2-1,4.7-1.7,5.4c-0.5,0.5-1.2,1.3-4.4,1.4h-74.1
			c-3.4,0-6.8,1.3-9.2,3.8c-2.4,2.4-3.8,5.8-3.8,9.3c0,3.5,1.4,6.8,3.8,9.3c2.4,2.5,5.8,3.9,9.2,3.8h2.6l-14.6,41.3
			c-1.4,3.3-1.5,7-0.1,10.3c1.4,3.4,4.1,6,7.5,7.3c1.4,0.5,2.9,0.8,4.3,0.8c2.1,0,4.2-0.5,6.1-1.5c3.1-1.7,5.4-4.6,6.4-8.1
			l17.7-50.1h33.4l17.7,50.1c0.9,3.5,3.2,6.4,6.4,8.1c3.2,1.7,7,2,10.4,0.8c3.4-1.2,6.1-3.9,7.5-7.3
			C464.9,429.2,464.9,425.4,463.4,422.2z"/>
	</g>
	<path class="svg_base" d="M344.3,315.8c-2.5-2.5-5.7-3.8-9.2-3.8H177c-0.4,0-0.8,0-1.2,0l-5.4,0.3l0.5,1c-1.5,0.7-2.9,1.8-4,3
		c-2.3,2.6-3.5,5.9-3.3,9.4c0.2,3.4,1.7,6.7,4.2,9c2.5,2.3,5.8,3.6,9.2,3.4h66.2v75.6h-13.1c-0.4,0-0.9,0-1.3,0
		c-3.4,0.2-6.6,1.7-8.9,4.3c-2.2,2.5-3.4,6-3.2,9.4c0.2,3.4,1.7,6.7,4.2,9c2.4,2.2,5.5,3.4,8.6,3.4c0.2,0,0.4,0,0.6,0H282
		c0.1,0,0.1,0,0.2,0c3.4,0,6.7-1.4,9.1-3.8c2.4-2.4,3.8-5.8,3.8-9.3c0-3.5-1.4-6.8-3.8-9.3c-2.5-2.5-5.7-3.8-9.2-3.8h-13.2v-75.6
		H335c3.4,0.1,6.8-1.3,9.2-3.8c2.5-2.5,3.8-5.8,3.8-9.3C348.1,321.5,346.7,318.2,344.3,315.8z"/>
</g>
</svg>
