<?xml version="1.0" encoding="utf-8"?>
<!-- Generator: Adobe Illustrator 27.4.1, SVG Export Plug-In . SVG Version: 6.00 Build 0)  -->
<svg version="1.1" id="Capa_1" xmlns="http://www.w3.org/2000/svg" xmlns:xlink="http://www.w3.org/1999/xlink" x="0px" y="0px"
	 viewBox="0 0 512 512" style="enable-background:new 0 0 512 512;" xml:space="preserve">
<style type="text/css">
	.svg_base{fill:#363434;}
	.svg_accent{fill:#00BFB2;}
	.st2{fill:none;}
	.st3{fill:#30363B;}
	.st4{fill-rule:evenodd;clip-rule:evenodd;fill:#00BFB2;}
	.st5{fill:#30363B;stroke:#30363B;stroke-width:0.1828;}
	.st6{fill:#5ABBA7;}
	.st7{fill-rule:evenodd;clip-rule:evenodd;fill:#30363B;}
	.st8{fill:#05C0BD;}
	.st9{fill:#FFFFFF;filter:url(#Adobe_OpacityMaskFilter);}
	.svg_accent0{mask:url(#mask0_1235_50707_00000062165600384750918480000002694536003139282600_);}
</style>
<g>
	<path class="svg_accent" d="M399.4,251.4c-4,4.3-12.7,2.6-19.6-3.9L305.6,177c-6.8-6.5-9.2-15.2-5.2-19.6c4-4.3,12.7-2.6,19.6,3.9
		l74.3,70.5C401.1,238.3,403.4,247,399.4,251.4z"/>
	<path class="svg_accent" d="M404.2,207.1c-4,4.3-10.5,4.7-14.6,0.8L345.5,166c-4.1-3.9-4.2-10.5-0.2-14.8c4-4.3,10.5-4.7,14.6-0.8
		l44.2,41.9C408.1,196.2,408.2,202.8,404.2,207.1z"/>
	<g>
		<path class="svg_base" d="M439.4,89.5H72.6c-17.1,0-31,14-31,31.1v222c0,17.2,13.9,31.1,31,31.1h366.8c17.1,0,31-14,31-31.1v-222
			C470.4,103.4,456.5,89.5,439.4,89.5z M67,120.6c0-3.1,2.5-5.7,5.6-5.7h366.8c3.1,0,5.6,2.5,5.6,5.7v222c0,3.1-2.5,5.7-5.6,5.7
			H72.6c-3.1,0-5.6-2.5-5.6-5.7V120.6z"/>
		<path class="svg_base" d="M379.6,397.1H132.4c-7,0-12.7,5.7-12.7,12.7s5.7,12.7,12.7,12.7h247.2c7,0,12.7-5.7,12.7-12.7
			S386.6,397.1,379.6,397.1z"/>
	</g>
</g>
</svg>
