<?xml version="1.0" encoding="utf-8"?>
<!-- Generator: Adobe Illustrator 27.5.0, SVG Export Plug-In . SVG Version: 6.00 Build 0)  -->
<svg version="1.1" id="Capa_1" xmlns="http://www.w3.org/2000/svg" xmlns:xlink="http://www.w3.org/1999/xlink" x="0px" y="0px"
	 viewBox="0 0 512 512" style="enable-background:new 0 0 512 512;" xml:space="preserve">
<style type="text/css">
	.st0{fill:#FFFFFF;}
	.st1{fill:#1B1B1A;}
	.st2{fill-rule:evenodd;clip-rule:evenodd;fill:#1B1B1A;}
	.st3{fill:#BDBDBD;}
	.st4{fill:url(#SVGID_1_);}
	.st5{fill:#FF5166;}
	.st6{fill:#C5C5C5;}
	.st7{fill:none;}
	.st8{fill-rule:evenodd;clip-rule:evenodd;fill:#FF5166;}
</style>
<g>
	<g>
		<path class="st1" d="M405.6,119.2h-33.2h-33.2h-33.2v33.2l0,0v33.2h-33.2h-33.2v33.2v33.2h-33.2h-33.2v33.2v33.2h-33.2h-33.2v33.2
			v33.2v33.2h33.2h33.2h33.2h33.2h33.2h33.2h0h33.2h33.2h33.2h33.2v-33.2v-33.2v-33.2v-33.2v-33.2v-33.2v-33.2v0v-33.2l0,0v-33.2
			H405.6z M405.6,185.6L405.6,185.6v33.2v33.2v33.2v33.2v33.2v33.2h-33.2h-33.2h-33.2h0h-33.2h-33.2h-33.2h-33.2h-33.2v-33.2h33.2
			h33.2v-33.2v-33.2h33.2h33.2v-33.2v-33.2h33.2h0h33.2v-33.2v0v-33.2h33.2h33.2V185.6z"/>
	</g>
	<g>
		<g>
			<polygon class="st5" points="172.8,218.9 172.8,252.2 73.2,252.2 73.2,152.4 106.4,152.4 106.4,218.9 			"/>
		</g>
		<g>
			<polygon class="st5" points="234.6,117.2 211.2,140.7 187.7,164.2 164.2,187.7 140.6,211.2 117.1,187.7 164.2,140.7 187.7,117.2 
				211.2,93.6 			"/>
		</g>
	</g>
</g>
</svg>
