<?xml version="1.0" encoding="utf-8"?>
<!-- Generator: Adobe Illustrator 27.5.0, SVG Export Plug-In . SVG Version: 6.00 Build 0)  -->
<svg version="1.1" id="Capa_1" xmlns="http://www.w3.org/2000/svg" xmlns:xlink="http://www.w3.org/1999/xlink" x="0px" y="0px"
	 viewBox="0 0 512 512" style="enable-background:new 0 0 512 512;" xml:space="preserve">
<style type="text/css">
	.st0{fill:#FFFFFF;}
	.st1{fill:#1B1B1A;}
	.st2{fill-rule:evenodd;clip-rule:evenodd;fill:#1B1B1A;}
	.st3{fill:#BDBDBD;}
	.st4{fill:url(#SVGID_1_);}
	.st5{fill:#FF5166;}
	.st6{fill:#C5C5C5;}
	.st7{fill:none;}
	.st8{fill-rule:evenodd;clip-rule:evenodd;fill:#FF5166;}
</style>
<g>
	<g>
		<path class="st1" d="M422.2,89.8H389h-33.2h-33.2h0h-33.2H256v0h-33.2v0h-33.2h-33.2H123H89.8h0H70.4c-7.7,0-13.9,6.2-13.9,13.9
			V123v33.2v0v33.2v33.2v0v19.4c0,7.7,6.2,13.9,13.9,13.9h19.4h0H123h33.2h33.2h33.2H256h33.2h33.2h0h33.2H389h33.2h19.4
			c7.7,0,13.9-6.2,13.9-13.9v-19.4v0v-33.2v-33.2v0V123v-19.4c0-7.7-6.2-13.9-13.9-13.9H422.2z M422.2,156.3L422.2,156.3v33.2v33.2
			H389h-33.2h-33.2h0h-33.2H256h-33.2h-33.2h-33.2H123H89.8v-33.2v-33.2v0V123H123h33.2h33.2h33.2v0H256v0h33.2h33.2h0h33.2H389
			h33.2V156.3z"/>
	</g>
	<polygon class="st5" points="289.2,156.3 289.2,156.3 256,156.3 222.8,156.3 189.5,156.3 189.5,189.5 222.8,189.5 256,189.5 
		289.2,189.5 289.2,189.5 322.5,189.5 322.5,156.3 	"/>
	<path class="st5" d="M208.9,289.2c7.7,0,13.9,6.2,13.9,13.9v105.3c0,7.6-6.2,13.9-13.9,13.9h-72c-7.6,0-13.9-6.2-13.9-13.9v-38.7
		c0-7.7,6.2-13.9,13.9-13.9h5.5c7.6,0,13.9,6.2,13.9,13.9V389h33.2v-85.9c0-7.7,6.2-13.9,13.9-13.9H208.9z"/>
	<path class="st5" d="M289.3,303.1v38.7c0,7.7-6.2,13.9-13.9,13.9h-5.5c-7.7,0-13.9-6.2-13.9-13.9v-38.7c0-7.7,6.2-13.9,13.9-13.9
		h5.5C283.1,289.2,289.3,295.4,289.3,303.1z"/>
	<path class="st5" d="M336.3,289.2c-7.7,0-13.9,6.2-13.9,13.9v105.3c0,7.6,6.2,13.9,13.9,13.9h72c7.6,0,13.9-6.2,13.9-13.9v-38.7
		c0-7.7-6.2-13.9-13.9-13.9h-5.5c-7.6,0-13.9,6.2-13.9,13.9V389h-33.2v-85.9c0-7.7-6.2-13.9-13.9-13.9H336.3z"/>
</g>
</svg>
