<?xml version="1.0" encoding="utf-8"?>
<!-- Generator: Adobe Illustrator 27.4.1, SVG Export Plug-In . SVG Version: 6.00 Build 0)  -->
<svg version="1.1" id="Capa_1" xmlns="http://www.w3.org/2000/svg" xmlns:xlink="http://www.w3.org/1999/xlink" x="0px" y="0px"
	 viewBox="0 0 512 512" style="enable-background:new 0 0 512 512;" xml:space="preserve">
<style type="text/css">
	.svg_base{fill:#363434;}
	.svg_accent{fill:#00BFB2;}
	.st2{fill:none;}
	.st3{fill:#30363B;}
	.st4{fill-rule:evenodd;clip-rule:evenodd;fill:#00BFB2;}
	.st5{fill:#30363B;stroke:#30363B;stroke-width:0.1828;}
	.st6{fill:#5ABBA7;}
	.st7{fill-rule:evenodd;clip-rule:evenodd;fill:#30363B;}
	.st8{fill:#05C0BD;}
	.st9{fill:#FFFFFF;filter:url(#Adobe_OpacityMaskFilter);}
	.svg_accent0{mask:url(#mask0_1235_50707_00000062165600384750918480000002694536003139282600_);}
</style>
<g>
	<path class="svg_base" d="M429.9,176.3c7.4,0,13.4-5.9,13.4-13.3V83.1c0-22-17.9-39.9-40.1-39.9H108.8c-22.1,0-40.1,17.8-40.1,39.9
		v345.8c0,22,18,39.9,40.1,39.9h294.4c22.1,0,40.1-17.8,40.1-39.9V216c0-7.3-6-13.3-13.4-13.3c-7.4,0-13.4,5.9-13.4,13.3v212.9
		c0,7.3-6,13.3-13.4,13.3H108.8c-7.4,0-13.4-5.9-13.4-13.3V176.3H429.9z M95.4,83.1c0-7.3,6-13.3,13.4-13.3h294.4
		c7.4,0,13.4,5.9,13.4,13.3v66.5H95.4V83.1z"/>
	<path class="svg_base" d="M189.1,96.5c-7.4,0-13.4,5.9-13.4,13.3c0,7.3,6,13.3,13.4,13.3c7.4,0,13.4-5.9,13.4-13.3
		C202.5,102.4,196.5,96.5,189.1,96.5z"/>
	<path class="svg_base" d="M135.6,96.5c-7.4,0-13.4,5.9-13.4,13.3c0,7.3,6,13.3,13.4,13.3c7.4,0,13.4-5.9,13.4-13.3
		C149,102.4,143,96.5,135.6,96.5z"/>
	<path class="svg_base" d="M376.4,96.5c-7.4,0-13.4,5.9-13.4,13.3c0,7.3,6,13.3,13.4,13.3c7.4,0,13.4-5.9,13.4-13.3
		C389.9,102.4,383.9,96.5,376.4,96.5z"/>
	<path class="svg_base" d="M322.9,96.5c-7.4,0-13.4,5.9-13.4,13.3c0,7.3,6,13.3,13.4,13.3s13.4-5.9,13.4-13.3
		C336.3,102.4,330.3,96.5,322.9,96.5z"/>
	<path class="svg_base" d="M269.4,96.5h-26.7c-7.4,0-13.4,5.9-13.4,13.3c0,7.3,6,13.3,13.4,13.3h26.7c7.4,0,13.4-5.9,13.4-13.3
		C282.8,102.4,276.8,96.5,269.4,96.5z"/>
	<path class="svg_accent" d="M389.8,309.2c0-24.2-16.6-45.3-40.1-51.4c-28.5-51.5-93.6-70.2-145.4-41.8c-51.8,28.4-70.6,93.1-42.2,144.6
		c28.5,51.5,93.6,70.2,145.4,41.8c17.7-9.7,32.3-24.2,42.2-41.8C373.1,354.6,389.7,333.4,389.8,309.2z M175.7,309.2
		c0.2-44.1,36.3-79.6,80.7-79.4c24,0.1,46.8,10.9,62,29.5c-27.7,10.2-41.9,40.9-31.5,68.4c5.4,14.5,16.9,26,31.5,31.3
		c-27.9,34.2-78.5,39.5-112.9,11.7C186.7,355.7,175.8,333.1,175.7,309.2z M336.3,335.8c-14.8,0-26.7-11.9-26.7-26.6
		c0-14.7,12-26.6,26.7-26.6c14.7,0,26.7,11.9,26.7,26.6C363,323.9,351,335.8,336.3,335.8z"/>
	<path class="svg_base" d="M135.6,415.7c-7.4,0-13.4-5.9-13.4-13.3c0-7.3,6-13.3,13.4-13.3c7.4,0,13.4,5.9,13.4,13.3
		C149,409.8,143,415.7,135.6,415.7z"/>
</g>
</svg>
