<?xml version="1.0" encoding="utf-8"?>
<!-- Generator: Adobe Illustrator 27.5.0, SVG Export Plug-In . SVG Version: 6.00 Build 0)  -->
<svg version="1.1" id="Capa_1" xmlns="http://www.w3.org/2000/svg" xmlns:xlink="http://www.w3.org/1999/xlink" x="0px" y="0px"
	 viewBox="0 0 512 512" style="enable-background:new 0 0 512 512;" xml:space="preserve">
<style type="text/css">
	.svg_base{fill:#343434;}
	.svg_accent{fill:#FF5166;}
</style>
<g>
	<path class="svg_accent" d="M256,79.1c-45.3,0-81.3,38.1-81.3,84c0,46,36,84,81.3,84s81.3-38.1,81.3-84C337.3,117.1,301.3,79.1,256,79.1z
		 M194.2,163.1c0-36.2,28.1-64.7,61.7-64.7s61.7,28.5,61.7,64.7c0,36.2-28.1,64.7-61.7,64.7S194.2,199.2,194.2,163.1z"/>
	<path class="svg_base" d="M184.5,302.1c-21.7,0-42.4,9-57.6,24.8c-15.2,15.8-23.6,37.1-23.6,59.2v37.2c0,5.3,4.4,9.7,9.8,9.7
		s9.8-4.3,9.8-9.7v-37.2c0-17.3,6.6-33.8,18.2-45.9c11.6-12.1,27.3-18.8,43.5-18.8h143c16.2,0,31.9,6.7,43.5,18.8
		c11.6,12.1,18.2,28.6,18.2,45.9v37.2c0,5.3,4.4,9.7,9.8,9.7c5.4,0,9.8-4.3,9.8-9.7v-37.2c0-22.1-8.5-43.5-23.6-59.2
		c-15.2-15.8-35.9-24.8-57.6-24.8H184.5z"/>
</g>
</svg>
