<?xml version="1.0" encoding="utf-8"?>
<!-- Generator: Adobe Illustrator 27.4.1, SVG Export Plug-In . SVG Version: 6.00 Build 0)  -->
<svg version="1.1" id="Capa_1" xmlns="http://www.w3.org/2000/svg" xmlns:xlink="http://www.w3.org/1999/xlink" x="0px" y="0px"
	 viewBox="0 0 512 512" style="enable-background:new 0 0 512 512;" xml:space="preserve">
<style type="text/css">
	.st0{fill:#363434;}
	.st1{fill:#00BFB2;}
	.st2{fill:none;}
	.st3{fill:#30363B;}
	.st4{fill-rule:evenodd;clip-rule:evenodd;fill:#00BFB2;}
	.st5{fill:#30363B;stroke:#30363B;stroke-width:0.1828;}
	.st6{fill:#5ABBA7;}
	.st7{fill-rule:evenodd;clip-rule:evenodd;fill:#30363B;}
	.st8{fill:#05C0BD;}
	.st9{fill:#FFFFFF;filter:url(#Adobe_OpacityMaskFilter);}
	.st10{mask:url(#mask0_1235_50707_00000062165600384750918480000002694536003139282600_);}
</style>
<g>
	<path class="st0" d="M347.5,128.9l-10,76.3H174.4l-5.2-39.8c-0.9-7-7.6-12-15-11.2c-7.3,0.9-12.6,7.3-11.7,14.3l5.1,36.6h-24.9
		c-7.3,0-13.3,5.7-13.3,12.7v50.9c0,7,6,12.7,13.3,12.7h14.1c4.4,38,28.3,71.4,63.8,89l-9.6,63.6h-15.1c-7.3,0-13.3,5.7-13.3,12.7
		c0,7,6,12.7,13.3,12.7h159.8c7.3,0,13.3-5.7,13.3-12.7c0-7-6-12.7-13.3-12.7h-15.1l-9.6-63.6c35.5-17.7,59.4-51.1,63.8-89h14.1
		c7.3,0,13.3-5.7,13.3-12.7v-50.9c0-7-6-12.7-13.3-12.7h-24.6l3.4-25.4h21.6c7.3,0,13.3-5.7,13.3-12.7s-5.9-12.7-13.3-12.7H371
		l3.5-25.4L347.5,128.9z M217.8,434.1l8.1-54.5c19.5,4.9,40.1,4.9,59.7,0l8.1,54.5H217.8z M255.8,357.7L255.8,357.7
		c-46.4,0-85.8-32.5-92.3-76.3H348C341.4,325.2,302.1,357.7,255.8,357.7z M375.9,256H136.1v-25.4h239.7V256z"/>
	<path class="st1" d="M389.1,52.5H122.7c-7.3,0-13.3,5.7-13.3,12.7v50.9c0,7,6,12.7,13.3,12.7h266.4c7.3,0,13.2-5.8,13.2-12.7V65.2
		C402.4,58.2,396.4,52.5,389.1,52.5z M136.1,77.9h239.7v25.4H136.1V77.9z"/>
</g>
</svg>
