<?xml version="1.0" encoding="utf-8"?>
<!-- Generator: Adobe Illustrator 27.4.1, SVG Export Plug-In . SVG Version: 6.00 Build 0)  -->
<svg version="1.1" id="Capa_1" xmlns="http://www.w3.org/2000/svg" xmlns:xlink="http://www.w3.org/1999/xlink" x="0px" y="0px"
	 viewBox="0 0 512 512" style="enable-background:new 0 0 512 512;" xml:space="preserve">
<style type="text/css">
	.st0{fill:#363434;}
	.st1{fill:#00BFB2;}
	.st2{fill:none;}
	.st3{fill:#30363B;}
	.st4{fill-rule:evenodd;clip-rule:evenodd;fill:#00BFB2;}
	.st5{fill:#30363B;stroke:#30363B;stroke-width:0.1828;}
	.st6{fill:#5ABBA7;}
	.st7{fill-rule:evenodd;clip-rule:evenodd;fill:#30363B;}
	.st8{fill:#05C0BD;}
	.st9{fill:#FFFFFF;filter:url(#Adobe_OpacityMaskFilter);}
	.st10{mask:url(#mask0_1235_50707_00000062165600384750918480000002694536003139282600_);}
</style>
<g>
	<path class="st3" d="M456.8,453.8H55.2c-7.4,0-13.3-5.6-13.3-12.4v-61.8c0-13.6,12-24.7,26.8-24.7h53.5v-49.4
		c0-13.6,12-24.7,26.8-24.7h53.5v-49.4c0-13.6,12-24.7,26.8-24.7h53.5v-49.4c0-13.6,12-24.7,26.8-24.7H363V82.9
		c0-13.7,12-24.7,26.8-24.7h66.9c7.4,0,13.3,5.6,13.3,12.4v247.2c0,6.8-6,12.4-13.3,12.4c-7.4,0-13.3-5.6-13.3-12.4V82.9h-53.5v61.8
		c0,6.8-6,12.4-13.3,12.4h-66.9v61.8c0,6.8-6,12.4-13.3,12.4h-66.9v61.8c0,6.8-6,12.4-13.3,12.4h-66.9v61.8c0,6.8-6,12.4-13.3,12.4
		h-67v49.4h374.7v-61.8c0-6.8,6-12.4,13.3-12.4c7.4,0,13.3,5.6,13.3,12.4v74.2C470.1,448.2,464.1,453.8,456.8,453.8z"/>
	<path class="svg_base" d="M254.9,90.6c-2.1-4.6-6.9-7.7-12.4-7.7h-53.5c-7.4,0-13.3,5.6-13.3,12.4c0,6.8,6,12.4,13.3,12.4h21.3
		L72.5,234.8c-5.3,4.9-5.3,12.7,0,17.5c5.3,4.9,13.7,4.9,19,0L229.3,125v19.6c0,6.8,6,12.4,13.3,12.4c7.4,0,13.3-5.6,13.3-12.4
		C256,91.3,256,93.7,254.9,90.6"/>
</g>
</svg>
