<?xml version="1.0" encoding="utf-8"?>
<!-- Generator: Adobe Illustrator 27.5.0, SVG Export Plug-In . SVG Version: 6.00 Build 0)  -->
<svg version="1.1" id="Capa_1" xmlns="http://www.w3.org/2000/svg" xmlns:xlink="http://www.w3.org/1999/xlink" x="0px" y="0px"
	 viewBox="0 0 512 512" style="enable-background:new 0 0 512 512;" xml:space="preserve">
<style type="text/css">
	.svg_base{fill:#343434;}
	.svg_accent{fill:#FF5166;}
</style>
<g>
	<polygon class="svg_base" points="156.3,356.8 156.3,456.5 123,456.5 123,390 56.5,390 56.5,456.5 23.3,456.5 23.3,223.8 56.5,223.8 
		56.5,356.8 		"/>
	<polygon class="svg_base" points="389,290.3 389,323.5 289.3,323.5 289.3,456.5 222.8,456.5 222.8,323.5 123,323.5 123,290.3 		"/>
	<polygon class="svg_base" points="488.7,223.8 488.7,456.5 455.5,456.5 455.5,390 389,390 389,456.5 355.7,456.5 355.7,356.8 
		455.5,356.8 455.5,223.8 		"/>
	<path class="svg_accent" d="M426.7,193.8c-9-65.6-45.4-99-74.4-115.4c-31.3-17.7-62.9-21.8-80.6-22.7V56c-8.8-0.7-15.5-0.6-19.2-0.5
		c-3.1-0.1-6.5-0.1-9.2,0h-1.4c-17,0.5-50.5,4.1-83.4,22.8c-29,16.4-65.4,49.8-74.4,115.4c-0.6,4.6,0.4,9.4,2.7,13
		c2.6,4,6.5,6.3,10.8,6.3H239v64.7c0,0.4,0,0.8,0.1,1.2h32.8v-65.9h141.3c4.3,0,8.3-2.3,10.8-6.3
		C426.4,203.2,427.4,198.4,426.7,193.8z M115.4,179.9c8.7-31.9,27.1-56,54.9-71.8c27.9-15.9,60.6-20.7,82.2-19.7h0.8
		c5.5-0.2,11.7-0.1,18.4,0.6v-0.4c20.5,1.2,46.1,6.7,68.7,19.5c27.9,15.8,46.3,40,55,71.8H115.4z"/>
</g>
</svg>
