<?xml version="1.0" encoding="utf-8"?>
<!-- Generator: Adobe Illustrator 27.5.0, SVG Export Plug-In . SVG Version: 6.00 Build 0)  -->
<svg version="1.1" id="Capa_1" xmlns="http://www.w3.org/2000/svg" xmlns:xlink="http://www.w3.org/1999/xlink" x="0px" y="0px"
	 viewBox="0 0 512 512" style="enable-background:new 0 0 512 512;" xml:space="preserve">
<style type="text/css">
	.svg_base{fill:#343434;}
	.svg_accent{fill:#FF5166;}
</style>
<g>
	<path class="svg_base" d="M311.7,344.6c6.2-10.9,9.2-23.5,8.5-36.1c-0.6-9.6-3.3-19.3-8.5-28.2c-5.1-8.9-12.1-16.1-20.1-21.4
		c-10.6-7-23-10.8-35.6-10.8c-11,0-22.1,2.7-32.2,8.6c-1.2,0.7-2.4,1.5-3.6,2.2c-17.2,11.5-27.2,30.1-28.4,49.6
		c-0.8,12.2,1.9,24.8,8.5,36.2c6.6,11.4,16.1,20,27.1,25.5c17.5,8.7,38.6,9.3,57.1,0.2c1.2-0.6,2.5-1.3,3.7-2
		C298.4,362.4,306.3,354.1,311.7,344.6z M223.6,331c-10.3-17.9-4.2-40.8,13.6-51.1c17.8-10.2,40.7-4.1,51,13.8
		c10.3,17.9,4.2,40.8-13.6,51.1C256.9,355,233.9,348.9,223.6,331z"/>
	<path class="svg_accent" d="M227.8,370.9l-171,98.7c-10.5,6.1-24,2.5-30.1-8.1l-14.6-25.2c-6.1-10.5-2.5-24,8.1-30.1l171-98.7l0.5,0.8
		c-0.8,12.2,1.9,24.8,8.5,36.2c6.6,11.4,16.1,20,27.1,25.5L227.8,370.9z"/>
	<path class="svg_accent" d="M455.1,469.6l-12.6-7.3l-31.7-18.3l-31.7-18.3l-31.7-18.3l-31.7-18.3l-31.7-18.3l0.4-0.6
		c1.2-0.6,2.5-1.3,3.7-2c10.1-5.9,18.1-14.2,23.5-23.7c6.2-10.9,9.2-23.5,8.5-36.1l0.5-0.9l31.7,18.3l31.7,18.3l31.7,18.3
		l31.7,18.3l31.7,18.3l12.6,7.3c10.5,6.1,14.1,19.5,8.1,30l-7.3,12.6l-7.3,12.6C479.1,472.1,465.6,475.7,455.1,469.6z"/>
	<path class="svg_accent" d="M292.6,258.8l-1,0c-10.6-7-23-10.8-35.6-10.8c-11,0-22.1,2.7-32.2,8.6c-1.2,0.7-2.4,1.5-3.6,2.2l-0.7,0
		l0-36.6l0-36.6l0-36.6l0,0l0-36.6l0-36.6l0-14.6c0-12.1,9.8-22,22-22l14.6,0l14.6,0c12.2,0,22,9.9,22,22l0,14.6l0,36.6l0,0l0,36.6
		l0,36.6l0,36.6L292.6,258.8z"/>
</g>
</svg>
