<?xml version="1.0" encoding="utf-8"?>
<!-- Generator: Adobe Illustrator 27.5.0, SVG Export Plug-In . SVG Version: 6.00 Build 0)  -->
<svg version="1.1" id="Capa_1" xmlns="http://www.w3.org/2000/svg" xmlns:xlink="http://www.w3.org/1999/xlink" x="0px" y="0px"
	 viewBox="0 0 512 512" style="enable-background:new 0 0 512 512;" xml:space="preserve">
<style type="text/css">
	.st0{fill:#FF5166;}
	.st1{fill:#FFFFFF;}
	.st2{fill:none;}
	.st3{fill:#C5C5C5;}
	.st4{fill:#C5C4C4;}
	.st5{fill:#C3C3C3;}
</style>
<g>
	<path d="M372.4,293.5h-66.5v-29.3c29.5-15.8,49.6-45.2,49.6-78.8v-33.2h16.7c9.1,0,16.7-7.4,16.7-16.7s-7.6-16.7-16.7-16.7h-16.7
		V52.4H156v133h0.1c0,33.9,20.2,63.6,50.1,79.2v28.8h-66.5c-9.2,0-17.5,3.8-23.5,9.7c-6,6-9.8,14.3-9.8,23.5v133h299.2v-133
		C405.6,308.3,390.8,293.5,372.4,293.5z M189.3,85.7h133v33.2h-133V85.7z M189.3,185.4v-33.2h133v33.2c0,31.9-30.4,58-66.8,58
		S189.3,217.3,189.3,185.4z M272.7,275.4v18.1h-33.3v-17.9c5.2,0.8,10.6,1.3,16.1,1.3C261.4,276.8,267.1,276.4,272.7,275.4z
		 M139.7,426.3v-99.7h33.2v99.7H139.7z M372.4,426.3H206.2v-99.7h166.2V426.3z"/>
	<rect x="272.7" y="359.8" class="st0" width="66.4" height="33.3"/>
</g>
</svg>
