<?xml version="1.0" encoding="utf-8"?>
<!-- Generator: Adobe Illustrator 27.5.0, SVG Export Plug-In . SVG Version: 6.00 Build 0)  -->
<svg version="1.1" id="Capa_1" xmlns="http://www.w3.org/2000/svg" xmlns:xlink="http://www.w3.org/1999/xlink" x="0px" y="0px"
	 viewBox="0 0 512 512" style="enable-background:new 0 0 512 512;" xml:space="preserve">
<style type="text/css">
	.st0{fill:#FF5166;}
	.st1{fill:#FFFFFF;}
	.st2{fill:none;}
	.st3{fill:#C5C5C5;}
	.st4{fill:#C5C4C4;}
	.st5{fill:#C3C3C3;}
	.st6{fill:#131313;}
	.st7{fill:#EA555D;}
	.st8{fill-rule:evenodd;clip-rule:evenodd;fill:#131313;}
	.st9{fill-rule:evenodd;clip-rule:evenodd;fill:#FF5166;}
</style>
<g>
	<path class="st6" d="M112.5,285.7h39.6c1.3,0,2.6-0.5,3.5-1.4c0.9-0.9,1.4-2.2,1.4-3.5v-39.6c0-1.3-0.5-2.6-1.4-3.5
		c-0.9-0.9-2.2-1.4-3.5-1.4h-39.6c-2.7,0-4.9,2.2-4.9,4.9v39.6c0,1.3,0.5,2.6,1.4,3.5C110,285.2,111.2,285.7,112.5,285.7z
		 M147.2,275.8h-9.9v-29.7h9.9V275.8z M117.5,246.1h9.9v29.7h-9.9V246.1z"/>
	<path class="st6" d="M157.1,350c0-1.3-0.5-2.6-1.4-3.5c-0.9-0.9-2.2-1.4-3.5-1.4h-39.6c-2.7,0-4.9,2.2-4.9,4.9v39.6
		c0,1.3,0.5,2.6,1.4,3.5c0.9,0.9,2.2,1.4,3.5,1.4h39.6c1.3,0,2.6-0.5,3.5-1.4c0.9-0.9,1.4-2.2,1.4-3.5V350z M117.5,384.6v-29.7h9.9
		v29.7H117.5z M147.2,384.6h-9.9v-29.7h9.9V384.6z"/>
	<path class="st6" d="M458.8,414.3H444v-5.9c7.2-2.4,19.8-11.1,19.8-42.3c-1.7-39.5-8.5-78.7-20-116.5c-0.8-1.9-2.7-3.1-4.7-3.1
		s-3.9,1.2-4.7,3.1c-0.4,1.3-5.3,17.2-10.1,39.1l0-82.2h5c1.3,0,2.6-0.5,3.5-1.5c0.9-0.9,1.4-2.2,1.4-3.5v-19.8
		c0-1.3-0.5-2.6-1.4-3.5c-0.9-0.9-2.2-1.4-3.5-1.4h-5v-89H444c1.3,0,2.6-0.5,3.5-1.5c0.9-0.9,1.4-2.2,1.4-3.5V73v0
		c0-1.3-0.5-2.6-1.4-3.5c-0.9-0.9-2.2-1.5-3.5-1.5c-5.5,0-9.9-4.4-9.9-9.9v-4.9c0-1.3-0.5-2.6-1.4-3.5c-0.9-0.9-2.2-1.4-3.5-1.4
		H82.9c-2.7,0-4.9,2.2-4.9,4.9v4.9c0,2.6-1,5.1-2.9,7C73.2,67,70.6,68,68,68c-2.7,0-4.9,2.2-4.9,4.9v9.9v0c0,1.3,0.5,2.6,1.4,3.5
		c0.9,0.9,2.2,1.5,3.5,1.5h19.8v89h-4.9c-2.7,0-4.9,2.2-4.9,4.9v19.8c0,1.3,0.5,2.6,1.4,3.5c0.9,0.9,2.2,1.5,3.5,1.5h4.9v82.2
		c-4.8-21.9-9.7-37.8-10.1-39.1h0c-0.8-1.9-2.7-3.1-4.7-3.1c-2.1,0-3.9,1.2-4.7,3.1c-11.5,37.8-18.3,77-20,116.5
		c0,31.2,12.6,39.9,19.8,42.3v5.9H53.2c-2.7,0-4.9,2.2-4.9,4.9v39.6c0,1.3,0.5,2.6,1.4,3.5c0.9,0.9,2.2,1.4,3.5,1.4h405.7
		c1.3,0,2.6-0.5,3.5-1.4c0.9-0.9,1.4-2.2,1.4-3.5v-39.6c0-1.3-0.5-2.6-1.4-3.5C461.4,414.8,460.1,414.3,458.8,414.3z M424.2,414.3
		v-12.7c2.6,3.1,6.1,5.4,9.9,6.8v5.9H424.2z M315.4,414.3v-4.9c0-2.7,2.2-4.9,4.9-4.9h19.8c1.3,0,2.6,0.5,3.5,1.4
		c0.9,0.9,1.4,2.2,1.4,3.5v4.9H315.4z M97.7,414.3v-79.2H167v60.2c-0.1,0-0.2,0.1-0.3,0.2c-1.2,0.5-2.4,1.1-3.4,1.8
		c-0.2,0.2-0.4,0.3-0.6,0.5v0c-0.9,0.7-1.7,1.6-2.5,2.5c-0.1,0.2-0.3,0.3-0.4,0.5v0c-0.7,1.1-1.3,2.3-1.8,3.5
		c-0.1,0.3-0.2,0.6-0.3,0.9c-0.4,1.3-0.6,2.7-0.7,4.1v5H97.7z M147.2,201.6l0-14.8h217.7v19.8l-217.7,0L147.2,201.6z M196.6,157.1
		v-39.6h9.9v34.3l-8.6,5.3L196.6,157.1z M236.2,133.7l-19.8,12.1l0-28.3h19.8L236.2,133.7z M214.1,158.8l14.5-8.8l27.5-16.8
		l27.5,16.8l14.5,8.8l29.5,18H184.5L214.1,158.8z M315.4,117.5v39.6h-1.3l-8.6-5.3v-34.3L315.4,117.5z M295.6,145.8l-19.8-12.1
		l0-16.2h19.8L295.6,145.8z M417.5,325.3H345v-9.9h74C418.5,318.6,418,321.9,417.5,325.3z M325.3,394.5V236.2h9.9l0,158.3H325.3z
		 M305.5,409.4l0,4.9h-9.9V345h4.9c2.7,0,4.9-2.2,4.9-4.9c0-2.7-2.2-4.9-4.9-4.9h-6.4c-2.9-11.4-10.7-20.9-21.4-25.9
		c-10.6-5-23-5-33.6,0c-10.6,5-18.5,14.5-21.4,25.9h-6.4c-2.7,0-4.9,2.2-4.9,4.9c0,2.7,2.2,4.9,4.9,4.9h4.9v69.3h-9.9v-4.9
		c0-3.1-1-6-2.7-8.5c-1.8-2.5-4.3-4.4-7.2-5.4V235.3c2.9-1,5.4-2.9,7.2-5.4c1.8-2.5,2.7-5.5,2.7-8.5v-4.9h98.9v4.9
		c0,3.1,1,6,2.7,8.5c1.8,2.5,4.3,4.4,7.2,5.4v160.1c-2.9,1-5.4,2.9-7.2,5.4C306.4,403.3,305.5,406.3,305.5,409.4L305.5,409.4z
		 M226.3,414.3V345h24.7v69.3H226.3z M283.9,335.2l-22.9,0v-19.3c5.2,0.9,10.1,3.1,14.1,6.5C279.1,325.8,282.1,330.2,283.9,335.2
		L283.9,335.2z M251.1,335.2h-22.9c1.8-5,4.8-9.4,8.8-12.8c4-3.4,8.9-5.6,14.1-6.5V335.2z M260.9,345h24.7v69.3h-24.7L260.9,345z
		 M176.8,330.2v-94h9.9l0,158.3h-9.9V330.2z M345,221.4c0,1.3-0.5,2.6-1.4,3.5c-0.9,0.9-2.2,1.4-3.5,1.4h-19.8
		c-2.7,0-4.9-2.2-4.9-4.9v-4.9H345V221.4z M196.6,216.4v4.9c0,1.3-0.5,2.6-1.4,3.5c-0.9,0.9-2.2,1.4-3.5,1.4h-19.8
		c-2.7,0-4.9-2.2-4.9-4.9v-4.9H196.6z M167,325.3H94.5c-0.5-3.3-1-6.6-1.5-9.9h74L167,325.3z M167,409.4L167,409.4
		c0-2.7,2.2-4.9,4.9-4.9h19.8c1.3,0,2.6,0.5,3.5,1.4c0.9,0.9,1.4,2.2,1.4,3.5v5H167V409.4z M206.5,424.2h98.9v9.9h-98.9V424.2z
		 M354.9,409.4c0-1.4-0.2-2.8-0.7-4.1c-0.1-0.3-0.2-0.6-0.3-0.9c-0.4-1.2-1-2.4-1.8-3.5c-0.1-0.2-0.3-0.3-0.4-0.5v0
		c-0.7-0.9-1.6-1.8-2.5-2.5c-0.2-0.2-0.4-0.3-0.6-0.5v0c-1.1-0.8-2.2-1.4-3.4-1.8c-0.1,0-0.2-0.1-0.3-0.2v-60.2h69.3v79.2l-59.4,0
		V409.4z M439,269.5L439,269.5c8.7,31.5,13.6,63.9,14.8,96.6c0,20.2-5.6,28.2-9.9,31.3l0-27.6c0-2.7-2.2-5-5-5c-2.7,0-4.9,2.2-4.9,5
		v27.6c-4.3-3.2-9.9-11.2-9.9-31.3c0.1-12.1,1-24.2,2.7-36.2c0.8-6.1,1.7-12.1,2.8-17.9C432.7,295.4,436.2,280.3,439,269.5
		L439,269.5z M414.3,305.5H345v-70.1c0.1,0,0.2-0.1,0.3-0.2c1.2-0.5,2.4-1.1,3.4-1.8c0.2-0.2,0.4-0.3,0.6-0.5v0
		c0.9-0.7,1.7-1.6,2.5-2.5c0.1-0.2,0.3-0.3,0.4-0.5v0c0.8-1.1,1.4-2.3,1.8-3.5c0.1-0.3,0.2-0.6,0.3-0.9c0.4-1.3,0.6-2.7,0.7-4.1
		v-4.9h14.8c1.3,0,2.6-0.5,3.5-1.4c0.9-0.9,1.4-2.2,1.4-3.5v-4.9h39.6V305.5z M424.2,196.7h-49.5v-9.9h49.5L424.2,196.7z M73,77.3
		c4.2-1.1,8-3.6,10.7-7.1c2.7-3.5,4.1-7.7,4.2-12.1h336.4c0,4.4,1.5,8.6,4.2,12.1c2.7,3.5,6.4,5.9,10.7,7.1v0.6H73L73,77.3z
		 M97.7,87.8h316.6v89h-67.9l-21.5-13.1v0c0.2-0.5,0.3-1.1,0.3-1.7v-49.5c0-1.3-0.5-2.6-1.5-3.5c-0.9-0.9-2.2-1.4-3.5-1.4h-49.5
		c-2.7,0-4.9,2.2-4.9,4.9v15.1l-7.3-4.5c-1.6-1-3.6-1-5.2,0l-7.3,4.5v-15.1c0-1.3-0.5-2.6-1.4-3.5c-0.9-0.9-2.2-1.4-3.5-1.4h-49.5
		c-2.7,0-4.9,2.2-4.9,4.9V162c0,0.6,0.1,1.1,0.3,1.7l-21.5,13.2H97.7L97.7,87.8z M87.8,186.8h49.5v9.9H87.8V186.8z M137.3,206.5v4.9
		c0,1.3,0.5,2.6,1.4,3.5c0.9,0.9,2.2,1.4,3.5,1.4h14.8v4.9c0,1.4,0.2,2.8,0.7,4.1c0.1,0.3,0.2,0.6,0.3,0.9c0.4,1.2,1,2.4,1.8,3.5
		c0.1,0.2,0.3,0.3,0.4,0.5v0c0.7,0.9,1.6,1.8,2.5,2.5c0.2,0.2,0.4,0.3,0.6,0.5v0c1.1,0.8,2.2,1.4,3.4,1.8c0.1,0,0.2,0.1,0.3,0.2
		v70.1H97.7v-98.9L137.3,206.5z M58.1,366.1c1.2-32.7,6.2-65.1,14.8-96.6c2.8,10.8,6.4,25.9,9.3,42.4c1.1,5.9,2,11.9,2.8,18v0
		c1.7,12,2.6,24.1,2.7,36.2c0,20.2-5.6,28.2-9.9,31.3v-27.6c0-2.7-2.2-5-4.9-5c-2.7,0-4.9,2.2-4.9,5v27.6
		C63.7,394.2,58.1,386.2,58.1,366.1L58.1,366.1z M77.9,408.4c3.8-1.3,7.3-3.7,9.9-6.8v12.7h-9.9V408.4z M58.1,424.2h138.5v9.9h-14.8
		c-2.7,0-4.9,2.2-4.9,4.9v14.8H58.1L58.1,424.2z M186.7,453.9l0-9.9h138.5v9.9L186.7,453.9z M453.9,453.9H335.2v-14.8
		c0-1.3-0.5-2.6-1.4-3.5c-0.9-0.9-2.2-1.4-3.5-1.4h-14.8v-9.9h138.5V453.9z"/>
	<path class="st6" d="M354.9,241.2v39.6c0,1.3,0.5,2.6,1.4,3.5c0.9,0.9,2.2,1.4,3.5,1.4h39.6c1.3,0,2.6-0.5,3.5-1.4
		c0.9-0.9,1.4-2.2,1.4-3.5v-39.6c0-1.3-0.5-2.6-1.4-3.5c-0.9-0.9-2.2-1.4-3.5-1.4h-39.6C357.2,236.2,354.9,238.4,354.9,241.2z
		 M394.5,246.1v29.7h-9.9v-29.7H394.5z M364.8,246.1h9.9v29.7h-9.9L364.8,246.1z"/>
	<path class="st6" d="M167,162v-49.5c0-1.3-0.5-2.6-1.4-3.5c-0.9-0.9-2.2-1.4-3.5-1.4h-49.5c-2.7,0-4.9,2.2-4.9,4.9V162
		c0,1.3,0.5,2.6,1.4,3.5c0.9,0.9,2.2,1.4,3.5,1.4H162c1.3,0,2.6-0.5,3.5-1.4C166.4,164.6,167,163.3,167,162z M117.5,117.5h9.9v39.6
		l-9.9,0V117.5z M157.1,157.1l-19.8,0v-39.6h19.8L157.1,157.1z"/>
	<path class="st6" d="M350,167h49.5c1.3,0,2.6-0.5,3.5-1.4c0.9-0.9,1.4-2.2,1.4-3.5v-49.5c0-1.3-0.5-2.6-1.4-3.5
		c-0.9-0.9-2.2-1.4-3.5-1.4H350c-2.7,0-4.9,2.2-4.9,4.9V162c0,1.3,0.5,2.6,1.4,3.5C347.4,166.4,348.7,167,350,167z M394.5,157.1
		h-9.9v-39.6h9.9L394.5,157.1z M354.9,117.5h19.8v39.6h-19.8L354.9,117.5z"/>
	<path class="st6" d="M399.5,345h-39.6c-2.7,0-4.9,2.2-4.9,4.9v39.6c0,1.3,0.5,2.6,1.4,3.5c0.9,0.9,2.2,1.4,3.5,1.4h39.6
		c1.3,0,2.6-0.5,3.5-1.4c0.9-0.9,1.4-2.2,1.4-3.5V350c0-1.3-0.5-2.6-1.4-3.5C402,345.6,400.8,345,399.5,345z M364.8,354.9h9.9v29.7
		h-9.9V354.9z M394.5,384.6h-9.9v-29.7h9.9L394.5,384.6z"/>
	<path class="st6" d="M256,231.3c-6.6,0-12.8,2.6-17.5,7.2c-4.6,4.6-7.2,10.9-7.2,17.5c0,6.6,2.6,12.8,7.2,17.5
		c4.6,4.6,10.9,7.2,17.5,7.2c6.6,0,12.8-2.6,17.5-7.2c4.6-4.6,7.2-10.9,7.2-17.5c0-6.6-2.6-12.8-7.2-17.5
		C268.9,233.9,262.6,231.3,256,231.3z M256,270.8c-3.9,0-7.7-1.6-10.5-4.3c-2.8-2.8-4.3-6.6-4.3-10.5s1.6-7.7,4.3-10.5
		c2.8-2.8,6.6-4.3,10.5-4.3s7.7,1.6,10.5,4.3c2.8,2.8,4.3,6.6,4.3,10.5s-1.6,7.7-4.3,10.5C263.7,269.3,259.9,270.8,256,270.8z"/>
</g>
</svg>
