<?xml version="1.0" encoding="utf-8"?>
<!-- Generator: Adobe Illustrator 27.5.0, SVG Export Plug-In . SVG Version: 6.00 Build 0)  -->
<svg version="1.1" id="Capa_1" xmlns="http://www.w3.org/2000/svg" xmlns:xlink="http://www.w3.org/1999/xlink" x="0px" y="0px"
	 viewBox="0 0 512 512" style="enable-background:new 0 0 512 512;" xml:space="preserve">
<style type="text/css">
	.st0{fill:#FF5166;}
	.st1{fill:#FFFFFF;}
	.st2{fill:none;}
	.st3{fill:#C5C5C5;}
	.st4{fill:#C5C4C4;}
	.st5{fill:#C3C3C3;}
</style>
<g>
	<path d="M405.6,119.2h-33.2h-33.2h-33.2v33.2l0,0v33.2h-33.2h-33.2v33.2v33.2h-33.2h-33.2v33.2v33.2h-33.2h-33.2v33.2v33.2v33.2
		h33.2h33.2h33.2h33.2h33.2h33.2h0h33.2h33.2h33.2h33.2v-33.2v-33.2v-33.2v-33.2v-33.2v-33.2v-33.2v0v-33.2l0,0v-33.2H405.6z
		 M405.6,185.6L405.6,185.6v33.2v33.2v33.2v33.2v33.2v33.2h-33.2h-33.2h-33.2h0h-33.2h-33.2h-33.2h-33.2h-33.2v-33.2h33.2h33.2
		v-33.2v-33.2h33.2h33.2v-33.2v-33.2h33.2h0h33.2v-33.2v0v-33.2h33.2h33.2V185.6z"/>
	<g>
		<g>
			<polygon class="st0" points="172.8,218.9 172.8,252.2 73.2,252.2 73.2,152.4 106.4,152.4 106.4,218.9 			"/>
		</g>
		<g>
			<polygon class="st0" points="234.6,117.2 211.2,140.7 187.7,164.2 164.2,187.7 140.6,211.2 117.1,187.7 164.2,140.7 187.7,117.2 
				211.2,93.6 			"/>
		</g>
	</g>
</g>
</svg>
