<?xml version="1.0" encoding="utf-8"?>
<!-- Generator: Adobe Illustrator 27.5.0, SVG Export Plug-In . SVG Version: 6.00 Build 0)  -->
<svg version="1.1" id="Capa_1" xmlns="http://www.w3.org/2000/svg" xmlns:xlink="http://www.w3.org/1999/xlink" x="0px" y="0px"
	 viewBox="0 0 512 512" style="enable-background:new 0 0 512 512;" xml:space="preserve">
<style type="text/css">
	.st0{fill:#FF5166;}
	.st1{fill:#FFFFFF;}
	.st2{fill:none;}
	.st3{fill:#C5C5C5;}
	.st4{fill:#C5C4C4;}
	.st5{fill:#C3C3C3;}
</style>
<g>
	<g>
		<path d="M293.7,387.6h-26h-26h-26h-13c-7.2,0-13,5.8-13,13v0c0,7.2,5.8,13,13,13h13h26h26h26h13c7.2,0,13-5.8,13-13v0
			c0-7.2-5.8-13-13-13H293.7z"/>
		<path d="M267.8,424.5h-26v0h-26v0h-13c-7.2,0-13,5.8-13,13v0c0,7.2,5.8,13,13,13h13v0h26v0h26h26h13c7.2,0,13-5.8,13-13v0
			c0-7.2-5.8-13-13-13h-13H267.8z"/>
	</g>
	<path class="st0" d="M256.1,61.6c-7.2,0-13,5.8-13,13v13v0v13c0,7.2,5.8,13,13,13h0c7.2,0,13-5.8,13-13v-13v0v-13
		C269.1,67.4,263.3,61.6,256.1,61.6L256.1,61.6z"/>
	<path class="st0" d="M127.5,114.7c-5.1,5.1-5.1,13.3,0,18.4l9.2,9.2l0,0l9.2,9.2c5.1,5.1,13.3,5.1,18.4,0l0,0
		c5.1-5.1,5.1-13.3,0-18.4l-9.2-9.2l0,0l-9.2-9.2C140.8,109.6,132.6,109.6,127.5,114.7L127.5,114.7z"/>
	<path class="st0" d="M74.2,243.2c0,7.2,5.8,13,13,13h13h0h13c7.2,0,13-5.8,13-13v0c0-7.2-5.8-13-13-13h-13h0h-13
		C80,230.2,74.2,236,74.2,243.2L74.2,243.2z"/>
	<path class="st0" d="M437.8,243.5c0-7.2-5.8-13-13-13h-13h0h-13c-7.2,0-13,5.8-13,13v0c0,7.2,5.8,13,13,13h13h0h13
		C432,256.5,437.8,250.6,437.8,243.5L437.8,243.5z"/>
	<path class="st0" d="M384.6,114.9c-5.1-5.1-13.3-5.1-18.4,0l-9.2,9.2l0,0l-9.2,9.2c-5.1,5.1-5.1,13.3,0,18.4l0,0
		c5.1,5.1,13.3,5.1,18.4,0l9.2-9.2l0,0l9.2-9.2C389.7,128.2,389.7,120,384.6,114.9L384.6,114.9z"/>
	<g>
		<path class="st0" d="M254.8,379.2c-71.1,0-77.1-38.1-77.1-77.1c0-1.1-0.2-3-1.3-4.3c-17.4-20.5-26-46.6-24.2-73.5
			c3.4-51.3,46.3-93.4,97.6-95.8c28.5-1.4,55.4,8.7,76,28.3c20.6,19.6,31.9,46,31.9,74.4c0,24.4-8.7,48.1-24.6,66.7
			c-0.8,0.9-1.2,2.4-1.2,4.1C331.9,341.2,326,379.2,254.8,379.2z M254.8,152.6c-1.3,0-2.6,0-3.9,0.1c-39.3,1.9-72.1,34-74.7,73.3
			c-1.4,20.6,5.2,40.6,18.5,56.3c4.5,5.3,7,12.4,7,19.9c0,34.9,2.4,53,53,53c50.5,0,53-19.1,53-53c0-7.5,2.5-14.6,7-19.8
			c12.1-14.2,18.8-32.3,18.8-51c0-21.7-8.7-42-24.4-57C294.3,160.2,275.2,152.6,254.8,152.6z"/>
	</g>
</g>
</svg>
