<?xml version="1.0" encoding="utf-8"?>
<!-- Generator: Adobe Illustrator 27.5.0, SVG Export Plug-In . SVG Version: 6.00 Build 0)  -->
<svg version="1.1" id="Capa_1" xmlns="http://www.w3.org/2000/svg" xmlns:xlink="http://www.w3.org/1999/xlink" x="0px" y="0px"
	 viewBox="0 0 512 512" style="enable-background:new 0 0 512 512;" xml:space="preserve">
<style type="text/css">
	.st0{fill:#FF5166;}
	.st1{fill:#FFFFFF;}
	.st2{fill:none;}
	.st3{fill:#C5C5C5;}
	.st4{fill:#C5C4C4;}
	.st5{fill:#C3C3C3;}
</style>
<g>
	<polygon class="st0" points="253.5,224 368.6,224 368.6,108.9 330.2,108.9 330.2,151.5 269.2,90.6 187.8,172 215,199.1 
		269.2,144.9 310,185.6 253.5,185.6 	"/>
	<polygon points="432.9,248.9 394.5,248.9 394.5,325.7 336.9,325.7 376.8,285.8 349.7,258.6 268.3,340 349.7,421.4 376.9,394.3 
		346.7,364.1 432.9,364.1 	"/>
	<polygon class="st0" points="174.8,268.1 214.7,308.1 241.9,280.9 160.5,199.6 79.1,281 106.2,308.1 136.4,278 136.4,364.2 
		251.6,364.2 251.6,325.8 174.8,325.8 	"/>
</g>
</svg>
