<?xml version="1.0" encoding="utf-8"?>
<!-- Generator: Adobe Illustrator 27.5.0, SVG Export Plug-In . SVG Version: 6.00 Build 0)  -->
<svg version="1.1" id="Capa_1" xmlns="http://www.w3.org/2000/svg" xmlns:xlink="http://www.w3.org/1999/xlink" x="0px" y="0px"
	 viewBox="0 0 512 512" style="enable-background:new 0 0 512 512;" xml:space="preserve">
<style type="text/css">
	.st0{fill:#FF5166;}
	.st1{fill:#FFFFFF;}
	.st2{fill:none;}
	.st3{fill:#C5C5C5;}
	.st4{fill:#C5C4C4;}
	.st5{fill:#C3C3C3;}
</style>
<g>
	<path d="M408.2,113.1h-119V93.8c0-7.7-6.2-14-14-14h-38.4c-7.8,0-14,6.3-14,14v19.3h-119c-7.8,0-14,6.3-14,14v304.4
		c0,7.8,6.2,14,14,14H137c-7.7,0-14,6.3-14,14v5.3c0,7.7,6.3,14,14,14h5.3c7.7,0,14-6.3,14-14v-5.3c0-7.7-6.3-14-14-14h227.4
		c-7.7,0-14,6.3-14,14v5.3c0,7.7,6.3,14,14,14h5.3c7.7,0,14-6.3,14-14v-5.3c0-7.7-6.3-14-14-14h33.2c7.8,0,14-6.2,14-14V127.1
		C422.2,119.4,416,113.1,408.2,113.1z M389,412.3H123v-33.2h266V412.3z M389,345.8H123V146.3h266V345.8z"/>
	<polygon class="st0" points="355.7,246.1 355.7,345.8 322.5,345.8 322.5,279.3 256,279.3 256,345.8 222.8,345.8 222.8,212.8 
		189.5,212.8 189.5,345.8 156.3,345.8 156.3,179.6 256,179.6 256,246.1 	"/>
</g>
</svg>
