<?xml version="1.0" encoding="utf-8"?>
<!-- Generator: Adobe Illustrator 27.5.0, SVG Export Plug-In . SVG Version: 6.00 Build 0)  -->
<svg version="1.1" id="Capa_1" xmlns="http://www.w3.org/2000/svg" xmlns:xlink="http://www.w3.org/1999/xlink" x="0px" y="0px"
	 viewBox="0 0 512 512" style="enable-background:new 0 0 512 512;" xml:space="preserve">
<style type="text/css">
	.st0{fill:#FF5166;}
	.st1{fill:#FFFFFF;}
	.st2{fill:none;}
	.st3{fill:#C5C5C5;}
	.st4{fill:#C5C4C4;}
	.st5{fill:#C3C3C3;}
</style>
<g>
	<path class="st0" d="M372.4,56.5h-33.2h-33.2h-33.2h-33.2h0h-33.2h-33.2h-33.2h-33.2v33.2v0V123v0v33.2v0v33.2v33.2v0V256v0v33.2
		h33.2h33.2h33.2h33.2h0h33.2h33.2h33.2h33.2h33.2V256v0v-33.2v0v-33.2v-33.2v0V123v0V89.8v0V56.5H372.4z M206.1,256h-33.2h-33.2
		v-33.2v0v-33.2v-33.2v0V123v0V89.8h33.2h33.2h33.2V123v0v33.2v0v33.2v33.2v0V256H206.1z M372.4,123L372.4,123v33.2v0v33.2v33.2v0
		V256h-33.2h-33.2h-33.2v-33.2v0v-33.2v-33.2v0V123v0V89.8h33.2h33.2h33.2V123z"/>
	<polygon points="372.4,289.2 372.4,322.5 372.4,355.7 372.4,389 372.4,389 372.4,422.2 339.1,422.2 305.9,422.2 272.6,422.2 
		272.6,389 272.6,389 272.6,355.7 272.6,322.5 272.6,289.2 239.4,289.2 239.4,322.5 239.4,355.7 239.4,389 239.4,389 239.4,422.2 
		206.1,422.2 172.9,422.2 139.6,422.2 139.6,389 139.6,389 139.6,355.7 139.6,322.5 139.6,289.2 106.4,289.2 106.4,322.5 
		106.4,355.7 106.4,389 106.4,389 106.4,422.2 106.4,422.2 106.4,455.5 139.6,455.5 172.9,455.5 206.1,455.5 239.4,455.5 
		239.4,455.5 272.6,455.5 305.9,455.5 339.1,455.5 372.4,455.5 405.6,455.5 405.6,422.2 405.6,422.2 405.6,389 405.6,389 
		405.6,355.7 405.6,322.5 405.6,289.2 	"/>
</g>
</svg>
