<?xml version="1.0" encoding="utf-8"?>
<!-- Generator: Adobe Illustrator 27.5.0, SVG Export Plug-In . SVG Version: 6.00 Build 0)  -->
<svg version="1.1" id="Capa_1" xmlns="http://www.w3.org/2000/svg" xmlns:xlink="http://www.w3.org/1999/xlink" x="0px" y="0px"
	 viewBox="0 0 512 512" style="enable-background:new 0 0 512 512;" xml:space="preserve">
<style type="text/css">
	.st0{fill:#FF5166;}
	.st1{fill:#FFFFFF;}
	.st2{fill:none;}
	.st3{fill:#C5C5C5;}
	.st4{fill:#C5C4C4;}
	.st5{fill:#C3C3C3;}
</style>
<g>
	<path class="st0" d="M73.2,123v166.2h33.2V181.7l8.5,8.5l23.5,23.5l23.5,23.5l23.5,23.5l23.4,23.5l23.5,23.5l15.2,15.2
		c4.6,4.6,12.1,4.6,16.7,0l38.7-38.7l23.5-23.5l23.5-23.5l23.5-23.5l23.5-23.5l8.5-8.5v107.5h33.2V123H73.2z M279.5,260.7L256,284.2
		l-23.5-23.5L209,237.2l-23.4-23.5L162,190.2l-23.5-23.5L128,156.2H384L279.5,260.7z"/>
	<polygon points="438.8,289.2 438.8,389 73.2,389 73.2,289.2 106.4,289.2 106.4,355.7 405.6,355.7 405.6,289.2 	"/>
</g>
</svg>
