<?xml version="1.0" encoding="utf-8"?>
<!-- Generator: Adobe Illustrator 27.5.0, SVG Export Plug-In . SVG Version: 6.00 Build 0)  -->
<svg version="1.1" id="Capa_1" xmlns="http://www.w3.org/2000/svg" xmlns:xlink="http://www.w3.org/1999/xlink" x="0px" y="0px"
	 viewBox="0 0 512 512" style="enable-background:new 0 0 512 512;" xml:space="preserve">
<style type="text/css">
	.st0{fill:#FF5166;}
	.st1{fill:#FFFFFF;}
	.st2{fill:none;}
	.st3{fill:#C5C5C5;}
	.st4{fill:#C5C4C4;}
	.st5{fill:#C3C3C3;}
</style>
<g>
	<path d="M56.5,289.3v132.9h33.3V389h332.4v33.2h33.3V289.3H56.5z M89.8,355.8v-33.3h332.4v33.3H89.8z"/>
	<g>
		<path class="st0" d="M243.3,236.8v52.5h-33.2V256h-66.5v33.3h-33.3v-52.5c0-7.8,6.3-14,14-14h105
			C237.1,222.8,243.3,229,243.3,236.8z"/>
	</g>
	<g>
		<path class="st0" d="M401,236.8v52.5h-33.2V256h-66.5v33.3H268v-52.5c0-7.8,6.3-14,14-14h105C394.7,222.8,401,229,401,236.8z"/>
	</g>
	<path class="st0" d="M455.5,103.8v185.5h-33.3v-133H89.8v133H56.5V103.8c0-7.7,6.3-14,14-14h5.3c7.7,0,14,6.3,14,14V123h332.4
		v-19.2c0-7.7,6.3-14,14-14h5.3C449.2,89.8,455.5,96.1,455.5,103.8z"/>
</g>
</svg>
