<?xml version="1.0" encoding="utf-8"?>
<!-- Generator: Adobe Illustrator 27.5.0, SVG Export Plug-In . SVG Version: 6.00 Build 0)  -->
<svg version="1.1" id="Capa_1" xmlns="http://www.w3.org/2000/svg" xmlns:xlink="http://www.w3.org/1999/xlink" x="0px" y="0px"
	 viewBox="0 0 512 512" style="enable-background:new 0 0 512 512;" xml:space="preserve">
<style type="text/css">
	.st0{fill:#FF5166;}
	.st1{fill:#FFFFFF;}
	.st2{fill:none;}
	.st3{fill:#C5C5C5;}
	.st4{fill:#C5C4C4;}
	.st5{fill:#C3C3C3;}
</style>
<g>
	<g>
		<path class="st0" d="M256,188.3c-37.4,0-67.7,30.3-67.7,67.7s30.3,67.7,67.7,67.7c37.4,0,67.7-30.3,67.7-67.7
			S293.4,188.3,256,188.3z M256,292c-19.9,0-36-16.1-36-36s16.1-36,36-36c19.9,0,36,16.1,36,36S275.9,292,256,292z"/>
	</g>
	<g>
		<path d="M257.2,442.4c-11.3,0-22.4-4.5-30.5-12.6c-8-8-12.6-19.1-12.6-30.4V398c-0.1-3-1-5.9-2.8-8.3c-1.8-2.5-4.2-4.4-7.1-5.4
			c-0.3-0.1-0.4-0.2-0.7-0.3c-2.8-1.2-5.8-1.6-8.8-1.1c-3,0.5-5.7,1.9-7.9,4l-0.9,0.9c-3.9,4-8.7,7.1-13.9,9.4
			c-5.2,2.2-10.8,3.2-16.4,3.2s-11.3-1.1-16.5-3.2c-5.2-2.2-10-5.3-13.9-9.4c-4-4-7.2-8.7-9.4-13.9s-3.2-10.8-3.2-16.4
			c0-5.7,1.1-11.3,3.2-16.4c2.2-5.2,5.3-10,9.4-13.9l0.9-0.9c2.1-2.2,3.5-4.9,4-7.9s0.2-6-1.1-8.8v-0.1c-1.1-2.7-3.1-5-5.5-6.6
			c-2.5-1.6-5.3-2.4-8.3-2.5h-2.7c-11.3,0-22.4-4.6-30.5-12.6c-8-8.1-12.6-19.1-12.6-30.5c0-11.5,4.5-22.3,12.6-30.4
			c8-8.1,19.1-12.6,30.4-12.6h1.3c3-0.1,5.9-1.1,8.3-2.8c2.5-1.8,4.3-4.2,5.3-7.1c0.1-0.3,0.2-0.4,0.3-0.6c1.2-2.8,1.6-5.9,1.1-8.8
			c-0.5-3-1.9-5.7-4-7.8l-0.9-0.9c-4-4-7.2-8.7-9.4-13.9s-3.2-10.8-3.2-16.4s1.1-11.3,3.2-16.4c2.2-5.2,5.3-10,9.4-13.9
			c4-4,8.8-7.2,14-9.4s10.8-3.3,16.5-3.3s11.2,1.1,16.4,3.3s10,5.3,14,9.4l0.9,0.9c2.2,2.1,4.9,3.5,7.9,4s6,0.2,8.8-1.1
			c1-0.4,1.9-0.7,3-0.9c2-1.1,3.8-2.8,5.1-4.7c1.7-2.4,2.5-5.3,2.5-8.3v-2.7c0-11.5,4.5-22.3,12.6-30.4c8.1-8.1,19.1-12.6,30.4-12.6
			c11.5,0,22.3,4.5,30.4,12.6c8.1,8.1,12.6,18.9,12.6,30.4v1.4c0,2.9,0.9,5.8,2.5,8.2c1.7,2.4,3.9,4.4,6.7,5.6h0.1
			c2.8,1.2,5.9,1.6,8.8,1.1c3-0.5,5.7-1.9,7.8-4l0.9-0.9c4-4,8.8-7.2,14-9.4s10.8-3.3,16.4-3.3s11.2,1.1,16.5,3.3s10,5.3,14,9.4
			c4,4,7.2,8.8,9.3,13.9c2.2,5.2,3.2,10.8,3.2,16.4s-1.1,11.2-3.3,16.4c-2.1,5.2-5.2,9.9-9.4,13.9l-0.9,0.9c-2.1,2.2-3.5,4.9-4,7.9
			c-0.5,3-0.2,6,1.1,8.8c0.4,1,0.7,1.9,0.9,3c1.1,2,2.8,3.8,4.7,5.1c2.4,1.7,5.3,2.5,8.3,2.5h2.7c11.5,0,22.3,4.5,30.4,12.6
			c8.1,8.1,12.6,18.9,12.6,30.4c0,11.5-4.5,22.3-12.6,30.4c-8.1,8.1-18.9,12.6-30.4,12.6h-1.4c-2.9,0-5.8,0.9-8.2,2.5
			c-2.5,1.7-4.4,3.9-5.5,6.6v0.1c-1.2,2.8-1.6,5.9-1,8.8c0.5,3,1.9,5.7,4,7.9l0.9,0.9c4,4,7.2,8.8,9.4,14s3.2,10.8,3.2,16.4
			s-1.1,11.2-3.3,16.5c-2.1,5.2-5.2,9.9-9.4,13.9c-3.9,4-8.7,7.1-13.9,9.4c-5.2,2.2-10.8,3.2-16.4,3.2s-11.3-1.1-16.5-3.2
			c-5.2-2.2-10-5.3-13.9-9.4l-0.9-0.9c-2.1-2.1-4.8-3.5-7.8-4c-3-0.5-6-0.2-8.8,1h-0.1c-2.7,1.1-5,3.1-6.6,5.5s-2.5,5.3-2.5,8.3v2.6
			c0,11.5-4.5,22.3-12.6,30.5C279.4,437.9,268.6,442.4,257.2,442.4z M212.3,363.5c6.9,2.6,12.9,7.2,17.2,13.2
			c4.4,6.1,6.8,13.4,7,20.9c0,0.1,0,0.2,0,0.3v1.4c0,5.4,2.2,10.8,6,14.6c3.9,3.9,9.2,6,14.6,6c5.5,0,10.7-2.2,14.6-6
			c3.9-3.9,6-9.1,6-14.6v-2.7c0.1-7.3,2.2-14.4,6.2-20.6c4-6,9.7-10.8,16.4-13.7c6.8-3,14.4-3.9,21.7-2.5
			c7.4,1.3,14.2,4.8,19.5,10.1l0.1,0.1l1,1c1.9,1.9,4.2,3.4,6.7,4.5c2.5,1.1,5.2,1.6,7.9,1.6c2.7,0,5.4-0.5,7.9-1.6
			c2.5-1,4.8-2.5,6.7-4.5c2-2,3.5-4.2,4.5-6.7c1-2.5,1.6-5.2,1.6-8c0-2.7-0.5-5.4-1.6-7.9c-1.1-2.5-2.5-4.8-4.5-6.7l-1-1l-0.1-0.1
			c-5.2-5.3-8.8-12.1-10.1-19.4s-0.4-14.9,2.5-21.8c2.9-6.7,7.6-12.4,13.7-16.4c6.1-4,13.2-6.2,20.6-6.2h1.5c5.5,0,10.7-2.2,14.6-6
			c3.9-3.9,6-9.1,6-14.6s-2.2-10.8-6-14.6c-3.9-3.9-9.1-6-14.6-6h-2.7c-7.3,0-14.4-2.2-20.6-6.2c-6.1-4-10.8-9.7-13.7-16.4
			c-0.4-1.1-0.8-2.3-0.9-3.4c-2.3-6.3-2.9-12.9-1.7-19.5c1.3-7.3,4.8-14.1,10.1-19.5l0.1-0.1l1-1c1.9-1.9,3.5-4.2,4.5-6.7
			c1.1-2.5,1.6-5.2,1.6-8c0-2.7-0.5-5.4-1.6-7.9c-1.1-2.5-2.5-4.8-4.5-6.7c-1.9-1.9-4.2-3.4-6.7-4.5c-5.2-2.1-10.8-2.1-15.8,0
			c-2.5,1.1-4.8,2.5-6.7,4.5l-1,1l-0.1,0.1c-5.3,5.2-12.1,8.8-19.5,10.1c-7.4,1.3-14.9,0.4-21.8-2.5c-6.7-2.9-12.4-7.6-16.4-13.7
			c-4-6-6.2-13.1-6.2-20.5v-1.5c0-5.5-2.2-10.8-6-14.6c-3.9-3.9-9.1-6-14.6-6c-5.4,0-10.8,2.2-14.6,6c-3.9,3.9-6,9.1-6,14.6v2.7
			c0,7.4-2.2,14.4-6.2,20.6s-9.7,10.9-16.4,13.7c-1.1,0.4-2.3,0.8-3.4,0.9c-6.2,2.3-12.9,2.9-19.5,1.7c-7.3-1.3-14.1-4.8-19.5-10.1
			l-0.1-0.1l-1-1c-1.9-1.9-4.2-3.4-6.7-4.5c-5.2-2.1-10.8-2.1-15.8,0c-2.5,1.1-4.8,2.5-6.7,4.5c-1.9,1.9-3.4,4.2-4.5,6.7
			c-1.1,2.5-1.6,5.2-1.6,7.9s0.5,5.4,1.6,7.9c1,2.5,2.5,4.8,4.5,6.7l1,1l0.1,0.1c5.2,5.3,8.8,12.1,10.1,19.5
			c1.3,7.3,0.4,14.7-2.5,21.4c-2.6,6.9-7.2,12.9-13.2,17.2c-6.1,4.4-13.4,6.8-20.9,7c-0.1,0-0.2,0-0.3,0h-1.4
			c-5.4,0-10.8,2.2-14.6,6c-3.9,3.9-6,9.1-6,14.6c0,5.4,2.2,10.8,6,14.6c3.9,3.9,9.2,6,14.6,6h2.7c7.3,0,14.4,2.2,20.6,6.2
			c6.1,4,10.8,9.7,13.7,16.5c3,6.8,3.9,14.3,2.5,21.7c-1.3,7.4-4.8,14.2-10.1,19.5L142,342l-1,1c-1.9,1.9-3.4,4.2-4.5,6.7
			c-1.1,2.5-1.6,5.2-1.6,7.9c0,2.7,0.5,5.4,1.6,7.9c1.1,2.5,2.5,4.8,4.5,6.7c1.9,1.9,4.2,3.4,6.7,4.5c2.4,1.1,5.2,1.6,7.9,1.6
			s5.4-0.5,7.9-1.6c2.5-1,4.8-2.5,6.7-4.5l1-1l0.1-0.1c5.3-5.2,12.1-8.8,19.5-10.1C198.1,359.8,205.5,360.6,212.3,363.5z
			 M373.7,303.9L373.7,303.9L373.7,303.9z"/>
	</g>
</g>
</svg>
