<?xml version="1.0" encoding="utf-8"?>
<!-- Generator: Adobe Illustrator 27.5.0, SVG Export Plug-In . SVG Version: 6.00 Build 0)  -->
<svg version="1.1" id="Capa_1" xmlns="http://www.w3.org/2000/svg" xmlns:xlink="http://www.w3.org/1999/xlink" x="0px" y="0px"
	 viewBox="0 0 512 512" style="enable-background:new 0 0 512 512;" xml:space="preserve">
<style type="text/css">
	.st0{fill:#FF5166;}
	.st1{fill:#FFFFFF;}
	.st2{fill:none;}
	.st3{fill:#C5C5C5;}
	.st4{fill:#C5C4C4;}
	.st5{fill:#C3C3C3;}
</style>
<g>
	<path class="st0" d="M256.2,43.9c-8.4,0-15.1,6.8-15.1,15.1v15.1v0v15.1c0,8.4,6.8,15.1,15.1,15.1h0c8.4,0,15.1-6.8,15.1-15.1V74.2
		v0V59.1C271.3,50.7,264.5,43.9,256.2,43.9L256.2,43.9z"/>
	<path class="st0" d="M106.2,105.9c-5.9,5.9-5.9,15.5,0,21.4l10.7,10.7l0,0l10.7,10.7c5.9,5.9,15.5,5.9,21.4,0l0,0
		c5.9-5.9,5.9-15.5,0-21.4l-10.7-10.7l0,0l-10.7-10.7C121.7,100,112.1,100,106.2,105.9L106.2,105.9z"/>
	<path class="st0" d="M43.9,255.8c0,8.4,6.8,15.1,15.1,15.1h15.1h0h15.1c8.4,0,15.1-6.8,15.1-15.1v0c0-8.4-6.8-15.1-15.1-15.1H74.2
		h0H59.1C50.7,240.7,43.9,247.5,43.9,255.8L43.9,255.8z"/>
	<path class="st0" d="M105.9,405.8c5.9,5.9,15.5,5.9,21.4,0l10.7-10.7l0,0l10.7-10.7c5.9-5.9,5.9-15.5,0-21.4l0,0
		c-5.9-5.9-15.5-5.9-21.4,0l-10.7,10.7l0,0l-10.7,10.7C100,390.3,100,399.9,105.9,405.8L105.9,405.8z"/>
	<path class="st0" d="M255.8,468.1c8.4,0,15.1-6.8,15.1-15.1v-15.1v0v-15.1c0-8.4-6.8-15.1-15.1-15.1h0c-8.4,0-15.1,6.8-15.1,15.1
		v15.1v0v15.1C240.7,461.3,247.5,468.1,255.8,468.1L255.8,468.1z"/>
	<path class="st0" d="M405.8,406.1c5.9-5.9,5.9-15.5,0-21.4l-10.7-10.7l0,0l-10.7-10.7c-5.9-5.9-15.5-5.9-21.4,0h0
		c-5.9,5.9-5.9,15.5,0,21.4l10.7,10.7l0,0l10.7,10.7C390.3,412,399.9,412,405.8,406.1L405.8,406.1z"/>
	<path class="st0" d="M468.1,256.2c0-8.4-6.8-15.1-15.1-15.1h-15.1h0h-15.1c-8.4,0-15.1,6.8-15.1,15.1v0c0,8.4,6.8,15.1,15.1,15.1
		h15.1h0h15.1C461.3,271.3,468.1,264.5,468.1,256.2L468.1,256.2z"/>
	<path class="st0" d="M406.1,106.2c-5.9-5.9-15.5-5.9-21.4,0l-10.7,10.7l0,0l-10.7,10.7c-5.9,5.9-5.9,15.5,0,21.4v0
		c5.9,5.9,15.5,5.9,21.4,0l10.7-10.7l0,0l10.7-10.7C412,121.7,412,112.1,406.1,106.2L406.1,106.2z"/>
	<g>
		<path class="st0" d="M256,376c-66.2,0-120-53.8-120-120s53.8-120,120-120s120,53.8,120,120S322.2,376,256,376z M256,164.2
			c-50.6,0-91.8,41.2-91.8,91.8s41.2,91.8,91.8,91.8c50.6,0,91.8-41.2,91.8-91.8S306.6,164.2,256,164.2z"/>
	</g>
</g>
</svg>
