<?xml version="1.0" encoding="utf-8"?>
<!-- Generator: Adobe Illustrator 27.5.0, SVG Export Plug-In . SVG Version: 6.00 Build 0)  -->
<svg version="1.1" id="Capa_1" xmlns="http://www.w3.org/2000/svg" xmlns:xlink="http://www.w3.org/1999/xlink" x="0px" y="0px"
	 viewBox="0 0 512 512" style="enable-background:new 0 0 512 512;" xml:space="preserve">
<style type="text/css">
	.st0{fill:#FF5166;}
	.st1{fill:#FFFFFF;}
	.st2{fill:none;}
	.st3{fill:#C5C5C5;}
	.st4{fill:#C5C4C4;}
	.st5{fill:#C3C3C3;}
</style>
<g>
	<path class="st0" d="M358.4,89.8H353c-7.6,0-13.9,6.2-13.9,13.9V123H172.9v-19.6c-0.2-7.5-6.4-13.6-13.9-13.6h-5.3
		c-7.6,0-13.8,6.2-14,13.7v185.8h33.2v-133h166.2v133h33.2v-133v-12.6v-40C372.4,95.9,366.1,89.8,358.4,89.8z"/>
	<path d="M139.6,289.3v132.9h33.2V389h166.3v33.2h33.2V289.3H139.6z M339.1,355.8H172.9v-0.1h-0.1v-33.2h166.3V355.8z"/>
	<path class="st0" d="M322.5,236.8v52.4h-33.2V256h-66.5v33.2h-33.3v-52.4c0-7.4,5.7-13.2,12.8-13.9c0.4-0.1,0.8-0.1,1.2-0.1h105
		C316.3,222.8,322.5,228.9,322.5,236.8z"/>
</g>
</svg>
