<?xml version="1.0" encoding="utf-8"?>
<!-- Generator: Adobe Illustrator 27.5.0, SVG Export Plug-In . SVG Version: 6.00 Build 0)  -->
<svg version="1.1" id="Capa_1" xmlns="http://www.w3.org/2000/svg" xmlns:xlink="http://www.w3.org/1999/xlink" x="0px" y="0px"
	 viewBox="0 0 512 512" style="enable-background:new 0 0 512 512;" xml:space="preserve">
<style type="text/css">
	.st0{fill:#FF5166;}
	.st1{fill:#FFFFFF;}
	.st2{fill:none;}
	.st3{fill:#C5C5C5;}
	.st4{fill:#C5C4C4;}
	.st5{fill:#C3C3C3;}
</style>
<g>
	<g>
		<path class="st0" d="M289.3,103.6v85.9c0,9.2-3.7,17.5-9.7,23.5c-6,6-14.3,9.7-23.5,9.7h-33.2v185.6c0,7.6-6.2,13.9-13.9,13.9
			h-5.5c-7.6,0-13.9-6.2-13.9-13.9V222.8h-33.2c-18.4,0-33.2-14.9-33.2-33.2v-85.9c0-7.6,6.2-13.9,13.9-13.9h5.5
			c7.6,0,13.9,6.2,13.9,13.9v72c0,7.7,6.2,13.9,13.9,13.9h5.5c7.7,0,13.9-6.2,13.9-13.9v-72c0-7.6,6.2-13.9,13.9-13.9h5.5
			c7.6,0,13.9,6.2,13.9,13.9v72c0,7.7,6.2,13.9,13.9,13.9h5.5c7.7,0,13.9-6.2,13.9-13.9v-72c0-7.6,6.2-13.9,13.9-13.9h5.5
			C283,89.8,289.3,96,289.3,103.6z"/>
	</g>
	<path d="M375.1,89.8h-19.4h-33.2V123v33.2v33.2v33.2v0V256v0v33.2v0v33.2v33.2V389v0v19.4c0,7.7,6.2,13.9,13.9,13.9h5.5
		c7.7,0,13.9-6.2,13.9-13.9V389v0v-33.2v-33.2v-33.2h19.4c7.7,0,13.9-6.2,13.9-13.9V256v0v-33.2v0v-33.2v-33.2V123v-19.4
		C389,96,382.8,89.8,375.1,89.8z"/>
</g>
</svg>
