<?xml version="1.0" encoding="utf-8"?>
<!-- Generator: Adobe Illustrator 27.5.0, SVG Export Plug-In . SVG Version: 6.00 Build 0)  -->
<svg version="1.1" id="Capa_1" xmlns="http://www.w3.org/2000/svg" xmlns:xlink="http://www.w3.org/1999/xlink" x="0px" y="0px"
	 viewBox="0 0 512 512" style="enable-background:new 0 0 512 512;" xml:space="preserve">
<style type="text/css">
	.st0{fill:#FF5166;}
	.st1{fill:#FFFFFF;}
	.st2{fill:none;}
	.st3{fill:#C5C5C5;}
	.st4{fill:#C5C4C4;}
	.st5{fill:#C3C3C3;}
	.st6{fill:#131313;}
	.st7{fill:#EA555D;}
	.st8{fill-rule:evenodd;clip-rule:evenodd;fill:#131313;}
	.st9{fill-rule:evenodd;clip-rule:evenodd;fill:#FF5166;}
</style>
<g>
	<path class="st6" d="M32,274.6v29.6h41.6v-29.6H32z M65.1,295.7H40.5v-12.6h24.6V295.7z"/>
	<path class="st6" d="M500.1,240.3h1.1l15.9-13.7l-19.6-0.3v-2h0v-19.7c0-6.1-4.9-11-11-11.1h0c-6.1,0-11,5-11,11.1v11.1h-41.9
		v-11.1c0-6.1-5-11.1-11.1-11.1c-6.1,0-11,5-11,11.1v11.1h-62.9v-9.3l-15.1-15.1v-16.5h7.8v0h0v-9.9l0,0v-3.4h-2.7
		c-6.3-7.3-28.7-29.7-67.1-34.8c-1.5-7.1-7.8-12.5-15.4-12.5c-7.6,0-13.9,5.4-15.4,12.5c-38.4,5-60.8,27.5-67.1,34.8h-2.7v3.4v9.9v0
		h7.8v16.5l-15.1,15.1v9.3h-62.9v-11.1c0-6.1-4.9-11.1-11-11.1c-6.1,0-11.1,5-11.1,11.1v11.1H36.6v-11.1c0-6.1-4.9-11-11-11.1
		c0,0,0,0,0,0c-6.1,0-11,5-11,11.1v11.1v7.4H-2.1l12.3,17.1h1.7v9.2H8.2v17.4h3.7v98.6h-1.8v32h23.6v-32H32v-40.6h41.6v40.6h-1.8v32
		h23.6v-32h-1.7v-98.6h3.7v-4.5h22.8v7.9c-13.3,4.3-22.9,16.8-22.9,31.5v91.5h8.5v-91.5c0-13.6,11-24.6,24.6-24.6
		c13.6,0,24.6,11,24.6,24.6v91.5h8.2v4.2h15.3h8.3h7h8.3h15.3v-32h-1.7v-98.6h1.9v-4.5h28.8v7.4c-15.7,3.8-27.2,16.7-27.2,32v91.5
		h8.5v-91.5c0-13.6,12.7-24.6,28.3-24.6c15.6,0,28.3,11,28.3,24.6v91.5h8.5v-91.5c0-14.8-10.9-27.4-25.9-31.6v-7.8h27.4v4.4h1.9
		v98.7h-1.7v32h15.3h8.3h7h8.3h15.3v-4.2h8.2v-91.5c0-13.6,11-24.6,24.6-24.6c13.6,0,24.6,11,24.6,24.6v91.5h8.5v-91.5
		c0-14.7-9.6-27.1-22.8-31.5v-7.9h22.8v4.4h3.7v98.7h-1.7v32h23.6v-32h-1.8v-40.6H480v40.6h-1.7v32h23.6v-32h-1.8v-98.7h3.7v-17.4
		h-3.7V240.3z M495.3,258.4h-10.5V258h10.5V258.4z M488.5,249.5v-9.2h3.1v9.2H488.5z M480,249.5h-3.7v4.4h-34.2v-4.4h-3.7v-9.2H480
		V249.5z M426.7,240.3h3.1v9.2h-3.1V240.3z M433.6,258v0.4h-10.5V258H433.6z M483.9,204.7c0-1.4,1.1-2.5,2.5-2.6
		c1.4,0,2.5,1.2,2.5,2.6v11.1h-5.1V204.7z M419.9,204.7c0-1.4,1.1-2.6,2.5-2.6c1.4,0,2.6,1.1,2.6,2.6v11.1h-5.1V204.7z M340,210
		v14.3h71.4v0h22.1v0h41.9v0h13.5v1.9l-157.4-2v-22.6L340,210z M193.8,174.9v24.7h-3.1v-24.7H193.8z M209.1,199.7H206v-24.7h3.1
		V199.7z M188.9,208.2h6.6v15h-6.6V208.2z M204.2,223.2v-15h6.6v15H204.2z M217.6,199.7v-24.7h76.7v24.7h-1.7v24l-36.6-0.5h-36.7
		v-23.5H217.6z M321.3,174.9v24.7h-3.1v-24.7H321.3z M316.4,208.2h6.6v15h-6.6V208.2z M306,174.9v24.7h-3.1v-24.7H306z M307.7,208.2
		v15h-6.6v-15H307.7z M323.2,249.5h-3.1v-9.2h3.1V249.5z M302.9,258H340v0.4h-37.2V258z M304.7,240.3h3.1v9.2h-3.1V240.3z
		 M320.1,365.5v-98.6h3.1v98.6H320.1z M338.5,365.5h-3.1v-98.6h3.1V365.5z M338.5,249.5h-3.1v-9.2h3.1V249.5z M257.7,161.7l2-3.3
		c2.3-3.9,8.6-15,11.1-22.9c27.6,3.8,46.4,17.6,55.8,26.3H257.7z M256,122.9c4,0,7.3,3.3,7.3,7.2c0,2.5-3.3,9.9-7.3,17.3
		c-3.9-7.4-7.2-14.8-7.2-17.3C248.7,126.2,252,122.9,256,122.9z M241.2,135.4c2.5,7.9,8.8,19.1,11.1,22.9l2,3.3h-68.8
		C194.8,153,213.6,139.2,241.2,135.4z M180.4,201.6v21.6l-8.5,0V210L180.4,201.6z M87,204.7c0-1.4,1.1-2.6,2.6-2.6
		c1.4,0,2.5,1.1,2.5,2.6v11.1H87V204.7z M23.1,204.7c0-1.4,1.1-2.5,2.5-2.6c1.4,0,2.5,1.2,2.5,2.6v11.1h-5.1V204.7z M180.4,231.7
		L180.4,231.7l15.3,0h8.3h15.3v0H256l10,0.1h-50.2v0h-15.3h-4.8h-10.5h-4.8H165v0H93.7v0H73.6v0H32v0H14.6l-0.1-0.1H180.4z
		 M173.5,365.5v-98.6h3.1v98.6H173.5z M173.5,240.3h3.1v9.2h-3.1V240.3z M191.9,240.3v9.2h-3.1v-9.2H191.9z M188.8,365.5v-98.6h3.1
		v98.6H188.8z M200.4,258.4h-4.8h-10.5h-4.8H172V258h37.2v0.3H200.4z M204.1,249.5v-9.2h3.1v9.2H204.1z M78.4,258.4V258h10.5v0.3
		H78.4z M82.1,249.5v-9.2h3.1v9.2H82.1z M23.5,240.3v9.2h-3.1v-9.2H23.5z M32,240.3h41.6v9.2h-3.7v4.4H35.7v-4.4H32V240.3z
		 M27.2,258v0.3H16.7V258H27.2z M18.6,389v-15h6.6v15H18.6z M20.4,365.5v-98.6h3.1v98.6H20.4z M32,316.4v-49.5h3.7v-4.5h34.2v4.5
		h3.7v49.5H32z M80.4,389v-15h6.6v15H80.4z M85.2,365.5h-3.1v-98.6h3.1V365.5z M97.4,254v-4.4h-3.7v-9.2H165v9.2h-1.5v4.4h-22.8
		h-20.5H97.4z M132.2,262.5v4.3h-3.5v-4.3H132.2z M140.7,270.3v-7.9h22.8v4.5h1.5v98.6h-1.4v-63.7
		C163.6,287.1,154,274.7,140.7,270.3z M171.7,389v-15h6.6v15H171.7z M187.1,389v-15h6.6v15H187.1z M202.4,389v-15h6.6v15H202.4z
		 M207.2,365.5h-3.1v-98.6h3.1V365.5z M258.4,266.8h-3.5v-4.3h3.5V266.8z M266.9,254h-20.5h-28.8v-4.4h-1.9v-9.2h80.5v9.2h-1.9v4.4
		H266.9z M304.7,266.9h3.1v98.6h-3.1V266.9z M303,389.1v-15h6.6v15H303z M318.3,389.1v-15h6.6v15H318.3z M333.6,389.1v-15h6.6v15
		H333.6z M379.8,266.8v-4.3h3.5v4.3H379.8z M371.3,270.3c-13.3,4.3-22.9,16.8-22.9,31.5v63.7H347v-98.7h1.6v-4.4h22.8V270.3z
		 M348.5,254v-4.4H347v-9.2h71.3v9.2h-3.7v4.4H348.5z M425,389.1v-15h6.6v15H425z M426.7,365.5v-98.6h3.1v98.6H426.7z M486.8,389.1
		v-15h6.6v15H486.8z M488.5,365.5v-98.6h3.1v98.6H488.5z M480,316.4h-41.6v-49.5h3.7v-4.4h34.2v4.4h3.7V316.4z"/>
	<path class="st6" d="M285.2,179.2h-58.5v29h58.5V179.2z M276.7,199.7h-41.5v-12h41.5V199.7z"/>
	<path class="st6" d="M438.4,304.2H480v-29.6h-41.6V304.2z M446.9,283.1h24.6v12.6h-24.6V283.1z"/>
</g>
</svg>
