<?xml version="1.0" encoding="utf-8"?>
<!-- Generator: Adobe Illustrator 27.5.0, SVG Export Plug-In . SVG Version: 6.00 Build 0)  -->
<svg version="1.1" id="Capa_1" xmlns="http://www.w3.org/2000/svg" xmlns:xlink="http://www.w3.org/1999/xlink" x="0px" y="0px"
	 viewBox="0 0 512 512" style="enable-background:new 0 0 512 512;" xml:space="preserve">
<style type="text/css">
	.st0{fill:#FF5166;}
	.st1{fill:#FFFFFF;}
	.st2{fill:none;}
	.st3{fill:#C5C5C5;}
	.st4{fill:#C5C4C4;}
	.st5{fill:#C3C3C3;}
	.st6{fill:#131313;}
	.st7{fill:#EA555D;}
	.st8{fill-rule:evenodd;clip-rule:evenodd;fill:#131313;}
	.st9{fill-rule:evenodd;clip-rule:evenodd;fill:#FF5166;}
</style>
<g>
	<path class="st7" d="M193.7,114c18.6-9.8,39.8-15.4,62.3-15.4c22.5,0,43.7,5.6,62.3,15.4c4.7,2.4,10.4,0.6,12.9-4.1
		c2.4-4.7,0.6-10.5-4.1-12.9c-21.2-11.1-45.4-17.4-71-17.4c-25.6,0-49.8,6.3-71,17.4c-4.7,2.4-6.5,8.2-4.1,12.9
		C183.3,114.6,189,116.4,193.7,114L193.7,114z"/>
	<path class="st6" d="M198.9,232.2c0-33.1-17-61.4-42.1-75.7c5.1-7,8.8-15.1,8.8-24.4c0-23.6-19.3-42.9-42.8-42.9S80,108.4,80,132
		c0,9.3,3.7,17.4,8.8,24.4c-25.1,14.3-42.1,42.6-42.1,75.7c0,5.3,4.3,9.5,9.5,9.5h133.2C194.7,241.7,198.9,237.4,198.9,232.2z
		 M67.1,222.6c3.3-26.3,18.9-47.3,39.5-54.4c3.4-1.2,5.8-4.1,6.3-7.7c0.5-3.6-1-7.1-4-9.2c-6-4.4-10-11.4-10-19.4
		c0-13.3,10.5-23.8,23.8-23.8s23.8,10.6,23.8,23.8c0,8-3.9,15-10,19.4c-2.9,2.1-4.5,5.6-4,9.2c0.5,3.6,3,6.5,6.3,7.7
		c20.6,7.1,36.2,28.1,39.5,54.4H67.1z"/>
	<path class="st6" d="M423.2,156.5c5.1-7,8.8-15.1,8.8-24.4c0-23.6-19.3-42.9-42.8-42.9c-23.5,0-42.8,19.3-42.8,42.9
		c0,9.3,3.7,17.4,8.8,24.4c-25.1,14.3-42.1,42.6-42.1,75.7c0,5.3,4.3,9.5,9.5,9.5h133.2c5.3,0,9.5-4.3,9.5-9.5
		C465.2,199,448.3,170.7,423.2,156.5z M333.4,222.6c3.3-26.3,18.9-47.3,39.5-54.4c3.4-1.2,5.8-4.1,6.3-7.7c0.5-3.6-1-7.1-4-9.2
		c-6-4.4-10-11.4-10-19.4c0-13.3,10.5-23.8,23.8-23.8c13.2,0,23.8,10.6,23.8,23.8c0,8-3.9,15-10,19.4c-2.9,2.1-4.5,5.6-4,9.2
		c0.5,3.6,3,6.5,6.3,7.7c20.6,7.1,36.2,28.1,39.5,54.4H333.4L333.4,222.6z"/>
	<path class="st7" d="M182.9,358.5c1.4-2.1,2-4.7,1.5-7.2c-0.5-2.5-1.9-4.7-4-6.1c-27.7-18.9-47.9-47.8-55.6-81.7
		c-0.9-4.6-5-7.8-9.7-7.6c-2.9,0.1-5.5,1.5-7.3,3.8c-1.7,2.3-2.3,5.2-1.7,8c8.7,38.6,31.8,71.7,63.5,93.3c2.1,1.4,4.7,2,7.1,1.5
		C179.3,362.1,181.5,360.6,182.9,358.5z"/>
	<path class="st7" d="M395.7,256c-4.2,0.4-7.6,3.5-8.5,7.6c-7.6,33.8-27.9,62.8-55.6,81.7c-2.1,1.4-3.5,3.6-4,6.1
		c-0.5,2.5,0.1,5.1,1.5,7.2c1.4,2.1,3.6,3.5,6.1,4c2.5,0.5,5.1-0.1,7.1-1.5c31.6-21.6,54.7-54.7,63.5-93.3c0.7-3,0-6.2-2-8.5
		C401.8,256.9,398.8,255.7,395.7,256z"/>
	<path class="st6" d="M290,347.2c5.1-7,8.8-15.1,8.8-24.4c0-23.6-19.3-42.9-42.8-42.9c-23.5,0-42.8,19.3-42.8,42.9
		c0,9.3,3.7,17.4,8.8,24.4c-25.1,14.3-42.1,42.6-42.1,75.7c0,5.3,4.3,9.5,9.5,9.5h133.2c5.3,0,9.5-4.3,9.5-9.5
		C332.1,389.7,315.1,361.5,290,347.2L290,347.2z M200.3,413.3c3.3-26.3,18.9-47.3,39.5-54.4c3.4-1.2,5.8-4.1,6.3-7.7
		c0.5-3.6-1-7.1-4-9.2c-6-4.4-10-11.4-10-19.4c0-13.3,10.5-23.8,23.8-23.8c13.2,0,23.8,10.6,23.8,23.8c0,8-3.9,15-10,19.4
		c-2.9,2.1-4.5,5.6-4,9.2c0.5,3.5,3,6.5,6.3,7.7c20.6,7.1,36.2,28.1,39.5,54.4H200.3L200.3,413.3z"/>
</g>
</svg>
