<svg width="139" height="170" viewBox="0 0 139 170" fill="none" xmlns="http://www.w3.org/2000/svg">
<path class="svg_base" d="M9.03607 155.624L8.42188 169.671L13.1525 169.882L13.7144 157.096L19.4904 147.884L21.3722 151.892L20.4966 169.658L25.2272 169.895L26.1681 150.933L20.0915 137.989L9.03607 155.624Z" fill="#121212"/>
<path class="svg_base" d="M41.6406 128.396L27.2659 151.3L26.4688 169.67L31.1993 169.88L31.9442 152.771L41.0395 138.277L44.4764 145.61L43.2741 169.657L48.0047 169.894L49.2592 144.664L41.6406 128.396Z" fill="#121212"/>
<path class="svg_base" d="M18.7595 94.9956L18.3828 100.699L23.103 101.014L23.4797 95.3109L18.7595 94.9956Z" fill="#121212"/>
<path class="svg_base" d="M19.4798 84.1217L19.043 90.7695L23.7633 91.0831L24.2001 84.4353L19.4798 84.1217Z" fill="#121212"/>
<path class="svg_base" d="M24.6443 94.9887L24.2695 100.692L28.9898 101.006L29.3646 95.3023L24.6443 94.9887Z" fill="#121212"/>
<path class="svg_base" d="M25.3598 84.1355L24.9219 90.7832L29.6421 91.0976L30.0801 84.4499L25.3598 84.1355Z" fill="#121212"/>
<path class="svg_base" d="M26.0193 74.1986L25.6445 79.9023L30.3648 80.2159L30.7396 74.5122L26.0193 74.1986Z" fill="#121212"/>
<path class="svg_base" d="M42.7922 79.2943L42.6562 85.0088L47.3986 85.1228L47.5345 79.4083L42.7922 79.2943Z" fill="#121212"/>
<path class="svg_base" d="M48.6788 79.0617L48.5469 84.7764L53.2762 84.8868L53.4081 79.1722L48.6788 79.0617Z" fill="#121212"/>
<path class="svg_base" d="M48.9318 68.1599L48.7734 74.8203L53.5157 74.9344L53.6741 68.274L48.9318 68.1599Z" fill="#121212"/>
<path class="svg_base" d="M49.1633 58.2122L49.0273 63.9268L53.7696 64.0408L53.9056 58.3263L49.1633 58.2122Z" fill="#121212"/>
<path class="svg_base" d="M18.4101 105.337L17.4141 112.481L22.0988 113.142L23.0948 105.997L18.4101 105.337Z" fill="#121212"/>
<path class="svg_base" d="M21.6425 117.63L21.1016 125.127L25.8197 125.471L26.3607 117.974L21.6425 117.63Z" fill="#121212"/>
<path class="svg_base" d="M137.089 139.145L130.451 135.728C130.477 135.531 130.49 135.321 130.477 135.111L123.642 73.0739C123.629 72.9425 123.603 72.8243 123.577 72.706L111.228 27.9491C113.319 26.8584 114.756 24.7034 114.756 22.1804C114.756 18.5798 111.855 15.6626 108.274 15.6626C104.694 15.6626 101.793 18.5798 101.793 22.1935C101.793 24.9662 103.518 27.3183 105.935 28.2645L102.721 72.5483C102.721 72.6534 102.721 72.7454 102.721 72.8505L105.4 122.837L103.465 121.839L101.035 57.6863C101.035 57.5549 101.009 57.4103 100.983 57.2789L91.6259 12.89C93.6645 11.8124 95.0889 9.70993 95.1412 7.25264C95.2196 3.63897 92.3708 0.642913 88.7771 0.57721C85.1834 0.511507 82.204 3.36302 82.1386 6.97668C82.0863 9.68365 83.6676 12.0358 85.9806 13.0871L79.6949 56.0437C79.6818 56.1751 79.6688 56.3065 79.6688 56.4379L79.8517 67.4629L71.9587 62.2986V59.1055C71.9587 59.1055 71.9587 59.0266 71.9587 58.9872C71.9326 57.6731 70.8479 56.635 69.5411 56.6613C68.2343 56.6876 67.202 57.7783 67.2281 59.0923V62.1147L59.2567 66.9504L59.4396 56.3197C59.4396 56.1882 59.4396 56.0568 59.4135 55.9386L53.0494 12.4563C55.3624 11.3788 56.9175 8.9872 56.7999 6.26709C56.6039 2.75855 53.7551 -0.000976562 50.279 -0.000976562C46.6984 -0.000976562 43.7973 2.91624 43.7973 6.51676C43.7973 9.13174 45.3393 11.3656 47.5478 12.4169L39.0145 57.1869C38.9883 57.2921 38.9753 57.3972 38.9753 57.5154L35.5645 122.509L33.6435 123.455L36.3355 72.7191C36.3355 72.614 36.3355 72.522 36.3355 72.4169L33.1469 28.5273C35.2117 27.5943 36.6622 25.5049 36.6753 23.0739C36.6753 19.7625 34.0094 17.0818 30.7294 17.0818C27.4493 17.0818 24.7835 19.7625 24.7835 23.0608C24.7835 25.2684 25.9857 27.1738 27.7499 28.2119L15.9626 72.6009C15.9365 72.706 15.9104 72.8243 15.8973 72.9294L8.57924 134.966C8.55311 135.229 8.57924 135.479 8.61845 135.728L1.9538 139L0.320312 169.631L5.0509 169.881L6.52758 142.036L70.9786 110.393L132.542 142.102L134.031 169.973L138.762 169.723L137.142 139.119L137.089 139.145ZM108.261 20.4064C109.228 20.4064 109.999 21.1948 110.013 22.1672C110.013 23.1528 109.228 23.9281 108.261 23.9281C107.294 23.9281 106.51 23.1396 106.51 22.1672C106.51 21.1948 107.294 20.4064 108.261 20.4064ZM107.438 72.706L109.777 40.5115L118.951 73.7835L125.498 133.166L110.248 125.308L107.438 72.6928V72.706ZM88.7379 5.34725H88.8163C89.7572 5.37353 90.5021 6.16197 90.5021 7.10809C90.5021 7.67314 90.2146 8.1462 89.8095 8.47471C89.5743 8.34331 89.326 8.25132 89.0516 8.2119C88.568 8.1462 88.0976 8.2119 87.6794 8.42215C87.3266 8.10678 87.0783 7.67314 87.0652 7.17379C87.026 6.20139 87.784 5.38667 88.751 5.34725H88.7379ZM89.1038 24.0332L96.2781 58.0279L98.5911 119.303L85.3141 112.456L84.3602 56.5036L89.1169 24.0201L89.1038 24.0332ZM59.3481 71.9964C59.7794 71.9964 60.1976 71.8781 60.5635 71.6547L69.3843 66.2934L77.3819 71.5233C78.1529 72.0358 79.1199 72.0095 79.8648 71.5759L80.5182 109.999L71.5275 105.374L71.3053 104.927L70.9786 105.084L70.6258 104.9L70.3905 105.374L58.4334 111.247L59.0999 71.9701C59.1783 71.9701 59.2567 71.9964 59.3351 71.9964H59.3481ZM50.1875 4.76906H50.2659C50.6972 4.76906 51.1284 4.92675 51.4421 5.22898C52.1608 5.88601 52.2 7.00297 51.5466 7.71256C51.3506 7.92281 51.1023 8.06735 50.8409 8.15934C50.8148 8.15934 50.7887 8.13306 50.7495 8.13306C50.3966 8.06735 50.0569 8.08049 49.7302 8.17248C49.1029 7.93595 48.6455 7.38404 48.5932 6.68759C48.5148 5.71519 49.2205 4.86105 50.1875 4.7822V4.76906ZM43.0002 70.9714L42.8956 75.0844L47.6262 75.2027L47.783 68.5404L43.1178 68.4221L43.3399 64.1909L47.8745 64.296L48.0052 58.5798L43.6274 58.4747L43.6536 57.9097L49.9784 24.7034L54.6176 56.3985L53.6505 112.864C53.6505 113.1 53.6897 113.31 53.742 113.534L40.3866 120.091L42.961 70.9452L43.0002 70.9714ZM30.7032 21.865C31.3697 21.865 31.9186 22.4169 31.9186 23.0871C31.9186 23.6127 31.5788 24.0595 31.1084 24.2303C30.8078 24.1646 30.5072 24.1646 30.2197 24.204C29.7885 24.02 29.4879 23.5864 29.4879 23.0871C29.4879 22.4169 30.0368 21.865 30.7032 21.865ZM19.8046 79.9333L24.4829 80.2487L24.8619 74.5457L20.4711 74.2566L20.5364 73.7047L29.2658 40.84L31.5657 72.6403L28.7431 125.873L13.4928 133.363L19.7915 79.9596L19.8046 79.9333Z" fill="#121212"/>
<path class="svg_base" d="M118.915 138.093L112.852 151.023L113.792 169.985L118.523 169.748L117.634 151.982L119.516 147.975L125.305 157.199L125.854 169.972L130.598 169.775L129.984 155.727L118.915 138.093Z" fill="#121212"/>
<path class="svg_base" d="M97.3764 128.5L89.7578 144.755L91.0123 169.985L95.7299 169.762L94.5407 145.714L97.9906 138.382L107.073 152.876L107.818 169.972L112.548 169.775L111.751 151.404L97.3764 128.5Z" fill="#121212"/>
<path class="svg_base" d="M120.173 95.0635L115.461 95.4814L115.96 101.176L120.673 100.758L120.173 95.0635Z" fill="#121212"/>
<path class="svg_base" d="M119.216 84.1876L114.504 84.6055L115.086 91.242L119.798 90.8241L119.216 84.1876Z" fill="#121212"/>
<path class="svg_base" d="M118.345 74.259L113.633 74.6777L114.133 80.3717L118.845 79.953L118.345 74.259Z" fill="#121212"/>
<path class="svg_base" d="M114.369 95.097L109.648 95.4131L110.026 101.117L114.746 100.801L114.369 95.097Z" fill="#121212"/>
<path class="svg_base" d="M113.638 84.2364L108.918 84.5508L109.355 91.1854L114.075 90.871L113.638 84.2364Z" fill="#121212"/>
<path class="svg_base" d="M112.986 74.2977L108.266 74.6113L108.64 80.3151L113.361 80.0015L112.986 74.2977Z" fill="#121212"/>
<path class="svg_base" d="M96.2059 79.4161L91.4766 79.5273L91.6095 85.2419L96.3388 85.1307L96.2059 79.4161Z" fill="#121212"/>
<path class="svg_base" d="M95.948 68.5219L91.2188 68.6348L91.376 75.2952L96.1053 75.1823L95.948 68.5219Z" fill="#121212"/>
<path class="svg_base" d="M95.7136 58.5669L90.9844 58.6807L91.1203 64.3952L95.8495 64.2815L95.7136 58.5669Z" fill="#121212"/>
<path class="svg_base" d="M90.3347 79.1575L85.6055 79.2695L85.7394 84.9841L90.4687 84.872L90.3347 79.1575Z" fill="#121212"/>
<path class="svg_base" d="M90.0652 68.2562L85.3359 68.3691L85.4932 75.0295L90.2224 74.9166L90.0652 68.2562Z" fill="#121212"/>
<path class="svg_base" d="M89.8504 58.335L85.1211 58.4463L85.254 64.1609L89.9833 64.0496L89.8504 58.335Z" fill="#121212"/>
<path class="svg_base" d="M119.782 106.331L115.109 107.074L116.141 113.629L120.813 112.885L119.782 106.331Z" fill="#121212"/>
<path class="svg_base" d="M116.709 117.264L111.984 117.512L112.402 125.569L117.126 125.322L116.709 117.264Z" fill="#121212"/>
<path class="svg_base" d="M72.832 118.357L71.2638 116.504L70.0355 115.058L69.8264 115.229L69.4997 114.953L67.5656 117.161L66.5725 118.317L50.6296 136.543L48.9961 169.657L53.7267 169.894L55.2818 138.449L69.6696 121.97L83.7306 138.527L85.2857 169.986L90.0163 169.749L88.3828 136.675L72.832 118.357Z" fill="#121212"/>
</svg>
