<svg width="180" height="171" viewBox="0 0 180 171" fill="none" xmlns="http://www.w3.org/2000/svg">
<path d="M39.3697 51.5247C36.0635 50.6423 32.9863 49.7455 29.8804 49.0222C28.2058 48.6316 27.5617 47.7348 27.5617 46.0424C27.5474 41.3123 27.6047 41.1098 32.242 41.5438C40.7295 42.3249 48.9593 44.4513 57.1319 46.7657C80.2184 53.2894 102.689 61.6068 124.989 70.416C142.207 77.2145 159.282 84.4036 176.414 91.4336C179.449 92.6776 179.434 92.7066 179.434 95.9467C179.434 105.016 179.434 114.071 179.434 123.141C179.434 125.933 178.833 126.526 176.157 126.41C146.587 125.224 117.016 124.038 87.4463 122.852C66.8359 122.027 46.2256 121.203 25.6152 120.378C17.8863 120.06 10.1574 119.742 2.42851 119.395C0.439037 119.308 -0.333852 118.44 0.138469 116.574C3.85979 101.675 8.23949 87.0363 15.8109 73.5838C18.0724 69.5481 20.7202 65.7872 24.4988 62.9954C26.6886 61.3753 29.1075 60.464 31.8699 60.5508C32.3136 60.5653 32.929 60.3338 33.1866 60.0012C35.2334 57.2817 37.2228 54.5044 39.3697 51.5391V51.5247ZM149.091 96.0046C133.104 85.3728 116.287 82.4219 98.324 87.8029C82.3367 92.5908 70.6718 102.875 62.6995 117.905C67.7806 118.107 72.5181 118.295 77.2413 118.483C90.1228 118.99 102.99 119.525 115.871 119.973C116.43 119.988 117.217 119.583 117.517 119.12C125.075 107.577 135.451 99.968 149.077 96.0046H149.091ZM175.613 99.2158C174.296 100.431 173.094 101.024 172.049 99.6208C171.033 98.2467 171.935 97.2052 172.922 96.2505C173.366 95.8165 173.781 95.3392 174.225 94.8474C171.667 93.4395 169.406 93.695 167.44 95.614C167.269 95.7732 167.111 95.9612 166.939 96.1058C165.995 96.887 164.821 97.0895 164.177 96.0625C163.776 95.426 163.919 94.1531 164.277 93.4009C164.621 92.6776 165.58 92.2726 166.353 91.6506C163.709 90.0402 161.434 90.1945 159.525 92.1135C159.282 92.3594 159.039 92.6198 158.767 92.8657C157.851 93.6757 156.806 93.8348 155.933 92.9525C155.06 92.0556 155.189 90.9708 156.09 90.1173C156.763 89.4809 157.593 89.0035 158.352 88.4538C157.235 87.6004 156.563 87.2822 155.876 87.0218C136.339 79.3843 116.873 71.5587 97.2505 64.1815C79.7031 57.571 61.941 51.597 43.6349 47.4021C40.5291 46.6933 37.366 46.2015 34.2458 45.6085C34.2172 45.7531 34.1885 45.8978 34.1599 46.0424C34.761 46.216 35.3622 46.404 35.9633 46.5631C54.1262 51.5391 71.9456 57.4698 88.8919 65.8306C97.0645 69.8663 104.908 74.4662 111.678 80.7151C112.193 81.1779 113.166 81.3226 113.911 81.3081C125.976 81.149 137.226 84.1433 147.546 90.4356C159.425 97.6681 167.97 107.823 173.251 120.783C173.681 121.854 174.067 122.924 175.613 122.201V99.2303V99.2158ZM4.28917 115.561C6.1212 115.648 7.69561 115.663 9.2557 115.822C10.3721 115.937 10.9017 115.561 11.2738 114.462C13.3635 108.43 15.5533 102.442 17.7002 96.4385C21.4645 85.9659 25.2431 75.4787 29.1075 64.7746C28.1342 65.3821 26.9749 65.7727 26.2593 66.5827C23.9263 69.2154 21.3786 71.7612 19.6038 74.7555C12.1612 87.3256 8.15362 101.241 4.27486 115.561H4.28917ZM44.6655 117.196V85.4885C44.5796 85.4596 44.508 85.4307 44.4222 85.4017C40.0281 95.7153 35.6198 106.014 31.097 116.632C35.7486 116.834 40.114 117.008 44.6655 117.196ZM27.5903 81.3515C27.4615 81.3226 27.3184 81.3081 27.1896 81.2792C23.0818 92.7789 18.9598 104.279 14.7089 116.154H26.3594C26.7602 104.655 27.1753 93.0103 27.5903 81.3515ZM76.4398 67.7255C73.0906 72.875 70.0277 77.5906 66.8932 82.4219C71.4446 84.5049 75.7957 86.4866 80.4617 88.613C79.102 81.583 77.8138 74.9001 76.4398 67.7255ZM79.9894 65.7872C81.3777 73.0052 82.6658 79.6591 84.0542 86.8338C87.2889 81.771 90.223 77.1856 93.3002 72.3832C88.9062 70.199 84.6696 68.1016 79.9894 65.7727V65.7872ZM65.1613 77.9956C68.4533 72.9473 71.4446 68.3475 74.5505 63.574C70.3569 61.9829 66.4066 60.4785 62.1413 58.8584C63.1576 65.3243 64.1165 71.3851 65.147 77.9956H65.1613ZM48.7017 78.3717V90.6091C51.736 90.6091 54.6558 90.6236 57.5756 90.5802C57.9191 90.5802 58.42 90.3632 58.5632 90.0884C59.5651 88.179 60.4811 86.2262 61.483 84.1722C57.1319 82.1905 52.9955 80.31 48.7017 78.3573V78.3717ZM61.4973 79.9773C60.4954 73.5838 59.5364 67.5664 58.5202 61.0426C55.3714 65.7872 52.4945 70.0833 49.5604 74.4806C53.5394 76.3177 57.3036 78.039 61.4973 79.9773ZM56.7311 56.8767C52.7808 55.6038 49.0165 54.4032 44.966 53.1158C45.9107 58.9018 46.7981 64.3262 47.7427 70.1556C50.8343 65.5847 53.6968 61.3609 56.7311 56.8767ZM106.783 81.4238C103.462 79.0805 100.099 76.7227 96.6494 74.2926C93.8584 78.6755 91.2535 82.7402 88.6629 86.7904C94.6886 84.9967 100.6 83.2464 106.769 81.4238H106.783ZM41.3592 55.2711C38.3535 59.4081 35.6771 63.0967 32.9147 66.9154C36.6933 68.6512 40.2715 70.2858 44.093 72.0216C43.1769 66.4092 42.3182 61.1294 41.3592 55.2711ZM66.1776 86.4287C66.4781 90.6525 66.7501 94.5147 67.0363 98.4926C70.8292 96.2505 74.4503 94.1097 78.2289 91.8676C74.1784 90.0305 70.3426 88.3092 66.1776 86.4287ZM56.359 94.6449H48.716V109.804C48.8162 109.833 48.902 109.848 49.0022 109.877C51.4211 104.872 53.84 99.8523 56.3733 94.6449H56.359ZM50.9774 116.921C51.0919 117.181 51.2064 117.442 51.3209 117.702C53.4249 117.702 55.5289 117.774 57.6185 117.644C58.1481 117.615 58.7779 117.037 59.107 116.545C61.6261 112.639 64.0736 108.69 66.5497 104.756C66.8646 104.25 67.2796 103.787 67.6375 103.309C67.5086 103.179 67.3655 103.049 67.2367 102.919C61.8265 107.591 56.4162 112.249 50.9917 116.921H50.9774ZM53.6968 109.139C56.9888 106.477 59.9086 104.134 62.7997 101.747C63.1003 101.501 63.3866 100.966 63.3579 100.59C63.1719 97.4945 62.9286 94.4134 62.6852 91.3179C62.5707 91.289 62.4562 91.2745 62.3417 91.2456C59.5221 97.075 56.7025 102.919 53.6968 109.139ZM31.7697 70.6474V77.5617C35.5196 77.5617 39.1407 77.5906 42.7619 77.5183C43.2199 77.5183 43.6493 76.9397 44.3792 76.4189C39.9279 74.3794 35.9919 72.5857 31.7554 70.6474H31.7697ZM121.468 119.771C121.611 120.031 121.768 120.291 121.911 120.552C123.243 120.364 125.003 120.653 125.833 119.901C128.409 117.572 130.628 114.838 133.047 112.22C132.474 111.902 131.844 111.439 131.143 111.207C130.628 111.034 129.755 110.918 129.469 111.207C126.749 114.014 124.13 116.907 121.468 119.771ZM30.868 107.36C32.7573 102.919 34.5034 98.8397 36.2925 94.6304H30.868V107.36ZM41.6312 81.5974H31.4548V84.1722C33.845 84.1722 36.178 84.0275 38.4824 84.2156C40.4432 84.3747 41.4594 83.7238 41.6312 81.5974ZM130.556 120.335C134.793 122.128 136.725 118.961 139.301 116.935C138.414 116.169 137.57 115.46 136.582 114.607C134.55 116.53 132.589 118.396 130.556 120.335ZM31.1256 90.6091C32.9004 90.6091 34.4175 90.479 35.9204 90.6381C37.824 90.8406 38.7257 90.0739 38.8688 88.2079H31.2544C31.2115 88.9891 31.1828 89.6689 31.1399 90.6091H31.1256ZM160.384 113.088C161.901 116.559 162.774 116.993 166.739 116.342C165.565 112.958 165.093 112.712 160.384 113.088ZM155.274 106.362C156.534 109.732 159.139 109.558 161.93 108.864C159.654 105.306 160.184 105.233 155.274 106.362ZM156.019 102.167C153.242 98.9989 152.541 98.8253 148.776 100.344C150.408 102.118 152.822 102.726 156.019 102.167ZM147.016 104.235C143.882 101.429 144.454 101.371 140.761 103.555C142.565 105.725 144.626 106.289 147.016 104.235ZM152.841 110.137C150.451 106.882 150.88 106.955 147.231 108.69C149.335 111.627 149.578 111.685 152.841 110.137ZM133.591 107.837C136.353 110.122 136.468 110.122 139.588 107.808C136.668 105.407 136.625 105.407 133.591 107.837ZM152.24 114.578C152.999 115.648 153.671 116.588 154.358 117.529C155.489 117.268 156.563 117.008 157.622 116.762C156.305 113.449 156.019 113.319 152.24 114.563V114.578ZM140.06 112.292C141.048 113.146 141.921 113.898 142.779 114.65C143.796 114.057 144.726 113.507 145.699 112.929C142.865 110.036 143.738 109.934 140.046 112.278L140.06 112.292ZM145.499 117.688C146.243 118.642 146.916 119.496 147.603 120.378C148.648 119.843 149.592 119.366 150.551 118.874C148.562 115.677 148.505 115.663 145.499 117.688ZM164.435 120.291C165.021 122.273 166.267 122.62 169.745 121.926C168.313 120.089 166.338 120.725 164.435 120.291ZM160.484 121.883C159.812 120.219 158.481 120.161 155.274 121.608C157.178 121.709 158.738 121.796 160.484 121.883Z" fill="#121212"/>
<path d="M118.017 148.253C118.017 150.842 118.017 153.374 118.017 155.905C118.017 157.279 117.788 158.494 116.113 158.494C114.467 158.494 114.152 157.294 114.152 155.919C114.152 153.504 114.152 151.088 114.152 148.354C109.558 148.918 105.178 149.454 100.612 150.003V153.648C100.612 158.147 100.612 162.66 100.612 167.159C100.612 167.578 100.612 167.983 100.612 168.403C100.541 169.676 100.04 170.616 98.623 170.601C97.1917 170.587 96.748 169.632 96.748 168.33C96.748 163.181 96.748 158.017 96.748 152.867C96.748 152.216 96.748 151.58 96.748 150.669C91.7671 151.551 86.9294 152.347 82.1347 153.287C58.9623 157.814 36.1191 163.687 13.4477 170.298C12.6605 170.529 11.6443 170.601 10.9287 170.283C10.4277 170.066 9.89815 168.938 10.0556 168.432C10.2703 167.737 11.0289 166.927 11.7302 166.725C17.0545 165.105 22.4075 163.586 27.7748 162.111C47.9558 156.599 68.2656 151.725 88.8473 147.978C103.117 145.374 117.487 143.856 131.986 143.566C146.342 143.292 160.697 143.002 175.053 142.713C175.869 142.698 176.699 142.727 177.515 142.742C178.746 142.771 179.59 143.335 179.59 144.637C179.59 146.011 178.717 146.633 177.415 146.647C175.182 146.662 172.963 146.604 170.731 146.647C153.684 147.096 136.638 147.573 119.591 148.051C119.133 148.051 118.675 148.152 118.045 148.224L118.017 148.253Z" fill="#121212"/>
<path d="M89.8798 131.458C70.6292 130.662 51.3642 129.867 32.1135 129.086C22.3952 128.695 12.6768 128.319 2.95842 127.914C2.32866 127.885 1.51283 127.943 1.11207 127.581C0.582501 127.104 -0.0186348 126.149 0.138806 125.614C0.339184 124.963 1.21226 124.196 1.91359 124.066C3.08723 123.835 4.36107 124.066 5.59197 124.11C22.0373 124.789 38.4827 125.455 54.9281 126.135C76.6978 127.031 98.4818 127.928 120.252 128.825C136.167 129.476 152.097 130.113 168.013 130.749C171.005 130.865 173.982 131.009 176.973 131.111C178.347 131.154 179.549 131.53 179.478 133.15C179.406 134.785 178.161 135.031 176.801 134.973C164.106 134.452 151.396 133.946 138.701 133.425C128.338 133.006 117.976 132.572 107.628 132.152C101.716 131.906 95.8053 131.66 89.8941 131.414C89.8941 131.414 89.8941 131.429 89.8941 131.443L89.8798 131.458Z" fill="#121212"/>
<path d="M89.282 7.69549C95.05 6.27792 98.6855 8.1873 100.875 13.7997C103.094 13.7997 105.37 13.8142 107.645 13.7997C109.048 13.7853 110.193 14.1758 110.179 15.7959C110.164 17.4305 108.976 17.7342 107.602 17.7198C104.969 17.6908 102.321 17.6908 99.6873 17.7198C98.1416 17.7342 97.3544 17.0833 97.1397 15.4632C96.6387 11.6155 93.175 9.95204 89.8545 11.9048C87.9938 13.0042 87.1207 12.657 86.2763 10.5162C84.8164 6.76973 81.5388 4.48426 77.7459 4.55658C74.1104 4.62891 70.7613 7.05903 69.559 10.5017C69.5017 10.6608 69.5017 10.8344 69.5017 10.9067C71.3195 11.3841 73.2087 11.601 74.8261 12.3966C76.3575 13.1488 77.6743 14.4217 78.9052 15.6513C79.5779 16.3311 80.0216 16.7217 81.0808 16.5192C85.6036 15.6223 89.9547 18.9927 90.4699 23.6504C90.9709 28.2069 87.4786 32.4596 82.9557 32.6187C79.6209 32.7489 76.2717 32.6477 72.9368 32.6621C71.6916 32.6621 70.8614 32.1414 70.8185 30.8251C70.7613 29.4075 71.663 28.7855 72.9368 28.771C75.9282 28.7276 78.9195 28.771 81.8966 28.7276C82.6408 28.7276 83.4424 28.6553 84.1151 28.3805C86.2477 27.4981 87.2066 25.0391 86.3335 22.9127C85.4462 20.7285 83.013 19.7015 80.7945 20.5838C78.0464 21.6687 78.0751 21.6542 76.6295 19.0939C75.141 16.4758 72.9225 15.0437 69.8596 15.116C66.8825 15.1884 64.7785 16.6638 63.4045 19.282C62.3024 21.4083 61.9875 21.5241 59.7118 20.6128C56.9494 19.499 54.4018 21.0033 53.772 23.9686C53.6003 24.7931 53.1279 25.8202 52.4696 26.2252C51.2243 26.9918 49.9219 25.8491 49.9219 24.1567C49.9219 19.5713 54.4161 15.6368 58.9389 16.3745C59.9408 16.5336 60.3702 16.2154 61.1288 15.6079C63.8911 13.3369 65.3224 10.3571 66.9397 7.21815C71.391 -1.4464 83.5282 -1.57659 88.7095 6.68294C88.8955 6.97224 89.0673 7.29047 89.282 7.66656V7.69549Z" fill="#121212"/>
<path d="M47.6156 144.013C32.2294 141.453 17.2725 138.98 2.33003 136.463C1.58576 136.332 0.726999 135.927 0.283303 135.363C-0.0315775 134.958 -0.00295199 133.729 0.326241 133.454C0.970316 132.933 1.98652 132.528 2.77372 132.644C6.48073 133.136 10.1734 133.816 13.8661 134.438C27.0911 136.636 40.3018 138.835 53.5268 141.048C53.813 141.091 54.1136 141.106 54.3998 141.178C55.4304 141.395 56.5324 141.829 56.3607 143.03C56.2462 143.796 55.5449 144.737 54.8579 145.084C52.1814 146.415 49.419 147.543 46.671 148.743C32.8735 154.79 19.0903 160.836 5.27846 166.825C4.50557 167.157 3.47505 167.172 2.65922 166.984C2.28709 166.897 1.75752 165.827 1.90065 165.422C2.15827 164.684 2.7451 163.83 3.43211 163.527C10.5456 160.344 17.7019 157.249 24.844 154.124C32.0433 150.971 39.2283 147.818 46.4133 144.664C46.7139 144.534 47.0002 144.346 47.6442 144.013H47.6156Z" fill="#121212"/>
<path d="M134.017 34.7583C135.935 31.6772 138.597 29.6521 142.132 29.0301C146.812 28.2056 150.677 29.7678 153.596 33.5143C154.312 34.44 154.87 34.657 156.015 34.469C160.839 33.6878 165.204 37.1595 165.705 42.0052C166.206 46.8655 162.499 51.1761 157.49 51.3786C154.155 51.5088 150.82 51.4075 147.471 51.4075C146.197 51.4075 145.195 50.9157 145.166 49.527C145.123 48.0661 146.068 47.473 147.471 47.4875C150.634 47.5164 153.797 47.4875 156.96 47.4875C159.207 47.4875 160.81 46.5039 161.554 44.6089C162.256 42.8008 161.855 40.8914 160.467 39.5606C159.007 38.1575 157.117 37.9116 155.099 38.8663C153.138 39.7921 152.537 39.5606 151.564 37.5355C150.09 34.4256 147.657 32.6464 144.222 32.6753C140.787 32.6898 138.396 34.5124 136.922 37.6223C136.063 39.4449 135.434 39.6764 133.63 38.8519C130.481 37.3909 127.504 38.9387 126.946 42.3958C126.717 43.77 126.316 44.8982 124.685 44.6957C123.024 44.4788 122.953 43.2058 123.096 41.875C123.611 37.1595 128.063 33.7457 132.757 34.4834C133.158 34.5413 133.544 34.657 133.988 34.7583H134.017Z" fill="#121212"/>
<path d="M138.015 51.466C137.314 51.4082 136.484 51.5818 135.969 51.2491C135.339 50.8441 134.566 49.9761 134.595 49.3542C134.623 48.7322 135.482 47.7919 136.14 47.6328C137.3 47.3435 138.573 47.5026 139.804 47.5316C141.007 47.5605 141.794 48.3561 141.593 49.4409C141.45 50.1642 140.62 50.9019 139.919 51.3214C139.447 51.6107 138.674 51.3793 138.03 51.3793C138.03 51.4082 138.03 51.4371 138.03 51.4516L138.015 51.466Z" fill="#121212"/>
<path d="M116.916 18.1395C115.842 17.6477 114.683 17.4597 114.239 16.7943C113.881 16.2591 114.268 14.4365 114.497 14.3931C116.028 14.1617 117.631 14.1327 119.177 14.3497C119.463 14.3931 119.964 16.1868 119.635 16.5773C119.034 17.315 117.903 17.6188 116.901 18.1395H116.916Z" fill="#121212"/>
<path d="M70.0859 113.231C70.501 112.45 70.7014 111.799 71.1165 111.351C73.7071 108.472 76.312 105.608 79.0028 102.817C80.2194 101.558 81.6363 101.5 82.352 102.513C83.2537 103.815 82.581 104.755 81.622 105.738C79.0171 108.443 76.5267 111.264 73.8931 113.926C73.3779 114.446 72.376 114.779 71.646 114.692C71.1021 114.634 70.6441 113.781 70.0859 113.217V113.231Z" fill="#121212"/>
<path d="M89.6385 99.4328C88.3217 100.489 87.4915 101.371 86.4896 101.892C85.8026 102.239 84.6719 102.427 84.0994 102.08C83.5842 101.762 83.1548 100.142 83.3981 99.9246C84.5288 98.9265 85.8456 98.0441 87.2482 97.5089C87.649 97.3498 88.5221 98.507 89.6385 99.4328Z" fill="#121212"/>
</svg>
