<svg width="269" height="149" viewBox="0 0 269 149" fill="none" xmlns="http://www.w3.org/2000/svg">
<path d="M27.7827 128.086H20.6719V139.165H27.7827V128.086Z" stroke="#30363B" stroke-width="3.5" stroke-linecap="round" stroke-linejoin="round"/>
<path d="M26.9674 77.625H21.5V128.092H26.9674V77.625Z" stroke="#30363B" stroke-width="3.5" stroke-linecap="round" stroke-linejoin="round"/>
<path d="M28.708 73.4609H19.7422V77.6421H28.708V73.4609Z" stroke="#30363B" stroke-width="3.5" stroke-linecap="round" stroke-linejoin="round"/>
<path d="M26.9674 65.1094H21.5V73.4392H26.9674V65.1094Z" stroke="#30363B" stroke-width="3.5" stroke-linecap="round" stroke-linejoin="round"/>
<path d="M56.8608 128.086H49.75V139.165H56.8608V128.086Z" stroke="#30363B" stroke-width="3.5" stroke-linecap="round" stroke-linejoin="round"/>
<path d="M56.0455 77.625H50.5781V128.092H56.0455V77.625Z" stroke="#30363B" stroke-width="3.5" stroke-linecap="round" stroke-linejoin="round"/>
<path d="M57.7861 73.4609H48.8203V77.6421H57.7861V73.4609Z" stroke="#30363B" stroke-width="3.5" stroke-linecap="round" stroke-linejoin="round"/>
<path d="M56.0455 65.1094H50.5781V73.4392H56.0455V65.1094Z" stroke="#30363B" stroke-width="3.5" stroke-linecap="round" stroke-linejoin="round"/>
<path d="M99.9155 128.086H92.8047V139.165H99.9155V128.086Z" stroke="#30363B" stroke-width="3.5" stroke-linecap="round" stroke-linejoin="round"/>
<path d="M99.1002 77.625H93.6328V128.092H99.1002V77.625Z" stroke="#30363B" stroke-width="3.5" stroke-linecap="round" stroke-linejoin="round"/>
<path d="M114.429 73.4609H92.918V77.6421H114.429V73.4609Z" stroke="#30363B" stroke-width="3.5" stroke-linecap="round" stroke-linejoin="round"/>
<path d="M99.1002 65.1094H93.6328V73.4392H99.1002V65.1094Z" stroke="#30363B" stroke-width="3.5" stroke-linecap="round" stroke-linejoin="round"/>
<path d="M107.138 128.086H100.027V139.165H107.138V128.086Z" stroke="#30363B" stroke-width="3.5" stroke-linecap="round" stroke-linejoin="round"/>
<path d="M106.327 77.625H100.859V128.092H106.327V77.625Z" stroke="#30363B" stroke-width="3.5" stroke-linecap="round" stroke-linejoin="round"/>
<path d="M108.017 49.9688H100.906V61.0481H108.017V49.9688Z" stroke="#30363B" stroke-width="3.5" stroke-linecap="round" stroke-linejoin="round"/>
<path d="M107.206 34.2969H101.738V49.9642H107.206V34.2969Z" stroke="#30363B" stroke-width="3.5" stroke-linecap="round" stroke-linejoin="round"/>
<path d="M115.228 49.9688H108.117V61.0481H115.228V49.9688Z" stroke="#30363B" stroke-width="3.5" stroke-linecap="round" stroke-linejoin="round"/>
<path d="M114.413 34.2969H108.945V49.9642H114.413V34.2969Z" stroke="#30363B" stroke-width="3.5" stroke-linecap="round" stroke-linejoin="round"/>
<path d="M106.327 65.1094H100.859V73.4392H106.327V65.1094Z" stroke="#30363B" stroke-width="3.5" stroke-linecap="round" stroke-linejoin="round"/>
<path d="M114.349 128.086H107.238V139.165H114.349V128.086Z" stroke="#30363B" stroke-width="3.5" stroke-linecap="round" stroke-linejoin="round"/>
<path d="M113.534 77.625H108.066V128.092H113.534V77.625Z" stroke="#30363B" stroke-width="3.5" stroke-linecap="round" stroke-linejoin="round"/>
<path d="M113.534 65.1094H108.066V73.4392H113.534V65.1094Z" stroke="#30363B" stroke-width="3.5" stroke-linecap="round" stroke-linejoin="round"/>
<path d="M28.707 104.969H48.8191" stroke="#30363B" stroke-width="3.5" stroke-linecap="round" stroke-linejoin="round"/>
<path d="M61.7578 139.191V96.0933C61.7578 88.5932 67.8435 82.4922 75.3611 82.4922C82.8624 82.4922 88.9644 88.5769 88.9644 96.0933V139.191" stroke="#30363B" stroke-width="3.5" stroke-linecap="round" stroke-linejoin="round"/>
<path d="M119.164 139.191V96.0933C119.164 88.5932 126.031 82.4922 134.508 82.4922" stroke="#30363B" stroke-width="3.5" stroke-linecap="round" stroke-linejoin="round"/>
<path d="M28.707 75.5391H48.8191" stroke="#30363B" stroke-width="3.5" stroke-linecap="round" stroke-linejoin="round"/>
<path d="M57.8047 75.5391H92.9194" stroke="#30363B" stroke-width="3.5" stroke-linecap="round" stroke-linejoin="round"/>
<path d="M78.19 75.5391H72.5273V81.5912H78.19V75.5391Z" stroke="#30363B" stroke-width="3.5" stroke-linecap="round" stroke-linejoin="round"/>
<path d="M137.651 75.5391H131.988V81.5912H137.651V75.5391Z" stroke="#30363B" stroke-width="3.5" stroke-linecap="round" stroke-linejoin="round"/>
<path d="M22.7539 61.0435V57.5456H92.9183V51.9978L100.029 44.8882V34.2969H101.738" stroke="#30363B" stroke-width="3.5" stroke-linecap="round" stroke-linejoin="round"/>
<path d="M139.911 15.2302C139.911 18.2237 134.493 27.4809 134.493 27.4809C134.493 27.4809 129.074 18.2237 129.074 15.2302C129.074 12.2366 131.499 9.8125 134.493 9.8125C137.487 9.8125 139.911 12.2366 139.911 15.2302Z" stroke="#30363B" stroke-width="3.5" stroke-linecap="round" stroke-linejoin="round"/>
<path d="M100.028 34.2994H96.3672V32.3309C96.3672 32.3309 107.432 17.6723 129.09 15.4922" stroke="#30363B" stroke-width="3.5" stroke-linecap="round" stroke-linejoin="round"/>
<path d="M46.5605 85.2656H30.9883V95.2061H46.5605V85.2656Z" stroke="#30363B" stroke-width="3.5" stroke-linecap="round" stroke-linejoin="round"/>
<path d="M56.0923 47.1094C54.3186 47.1094 52.8867 48.5411 52.8867 50.3144V57.5705H59.2816V50.3144C59.2816 48.5411 57.8496 47.1094 56.0923 47.1094Z" stroke="#30363B" stroke-width="3.5" stroke-linecap="round" stroke-linejoin="round"/>
<path d="M25.9595 47.1094C24.1858 47.1094 22.7539 48.5411 22.7539 50.3144V57.5705H29.1488V50.3144C29.1488 48.5411 27.7168 47.1094 25.9432 47.1094H25.9595Z" stroke="#30363B" stroke-width="3.5" stroke-linecap="round" stroke-linejoin="round"/>
<path d="M241.221 139.188H248.332V128.108H241.221V139.188Z" stroke="#30363B" stroke-width="3.5" stroke-linecap="round" stroke-linejoin="round"/>
<path d="M242.033 128.109H247.5V77.6422H242.033V128.109Z" stroke="#30363B" stroke-width="3.5" stroke-linecap="round" stroke-linejoin="round"/>
<path d="M240.292 77.625H249.258V73.4438H240.292V77.625Z" stroke="#30363B" stroke-width="3.5" stroke-linecap="round" stroke-linejoin="round"/>
<path d="M242.033 73.4453H247.5V65.1155H242.033V73.4453Z" stroke="#30363B" stroke-width="3.5" stroke-linecap="round" stroke-linejoin="round"/>
<path d="M212.127 139.188H219.238V128.108H212.127V139.188Z" stroke="#30363B" stroke-width="3.5" stroke-linecap="round" stroke-linejoin="round"/>
<path d="M212.939 128.109H218.406V77.6422H212.939V128.109Z" stroke="#30363B" stroke-width="3.5" stroke-linecap="round" stroke-linejoin="round"/>
<path d="M211.198 77.625H220.164V73.4438H211.198V77.625Z" stroke="#30363B" stroke-width="3.5" stroke-linecap="round" stroke-linejoin="round"/>
<path d="M212.939 73.4453H218.406V65.1155H212.939V73.4453Z" stroke="#30363B" stroke-width="3.5" stroke-linecap="round" stroke-linejoin="round"/>
<path d="M169.069 139.188H176.18V128.108H169.069V139.188Z" stroke="#30363B" stroke-width="3.5" stroke-linecap="round" stroke-linejoin="round"/>
<path d="M169.884 128.109H175.352V77.6422H169.884V128.109Z" stroke="#30363B" stroke-width="3.5" stroke-linecap="round" stroke-linejoin="round"/>
<path d="M154.571 77.625H176.082V73.4438H154.571V77.625Z" stroke="#30363B" stroke-width="3.5" stroke-linecap="round" stroke-linejoin="round"/>
<path d="M169.884 73.4453H175.352V65.1155H169.884V73.4453Z" stroke="#30363B" stroke-width="3.5" stroke-linecap="round" stroke-linejoin="round"/>
<path d="M161.862 139.188H168.973V128.108H161.862V139.188Z" stroke="#30363B" stroke-width="3.5" stroke-linecap="round" stroke-linejoin="round"/>
<path d="M162.673 128.109H168.141V77.6422H162.673V128.109Z" stroke="#30363B" stroke-width="3.5" stroke-linecap="round" stroke-linejoin="round"/>
<path d="M160.967 61.0391H168.078V49.9597H160.967V61.0391Z" stroke="#30363B" stroke-width="3.5" stroke-linecap="round" stroke-linejoin="round"/>
<path d="M161.794 49.9688H167.262V34.3015H161.794V49.9688Z" stroke="#30363B" stroke-width="3.5" stroke-linecap="round" stroke-linejoin="round"/>
<path d="M153.756 61.0391H160.867V49.9597H153.756V61.0391Z" stroke="#30363B" stroke-width="3.5" stroke-linecap="round" stroke-linejoin="round"/>
<path d="M154.572 49.9688H160.039V34.3015H154.572V49.9688Z" stroke="#30363B" stroke-width="3.5" stroke-linecap="round" stroke-linejoin="round"/>
<path d="M162.673 73.4453H168.141V65.1155H162.673V73.4453Z" stroke="#30363B" stroke-width="3.5" stroke-linecap="round" stroke-linejoin="round"/>
<path d="M154.635 139.188H161.746V128.108H154.635V139.188Z" stroke="#30363B" stroke-width="3.5" stroke-linecap="round" stroke-linejoin="round"/>
<path d="M155.451 128.109H160.918V77.6422H155.451V128.109Z" stroke="#30363B" stroke-width="3.5" stroke-linecap="round" stroke-linejoin="round"/>
<path d="M155.451 73.4453H160.918V65.1155H155.451V73.4453Z" stroke="#30363B" stroke-width="3.5" stroke-linecap="round" stroke-linejoin="round"/>
<path d="M134.491 61.0391H16.8125L19.7414 65.1064H134.491H249.256L252.185 62.5684L134.491 61.0391Z" stroke="#30363B" stroke-width="3.5" stroke-linecap="round" stroke-linejoin="round"/>
<path d="M240.276 104.969H220.164" stroke="#30363B" stroke-width="3.5" stroke-linecap="round" stroke-linejoin="round"/>
<path d="M207.226 139.191V96.0933C207.226 88.5932 201.14 82.4922 193.623 82.4922C186.121 82.4922 180.02 88.5769 180.02 96.0933V139.191" stroke="#30363B" stroke-width="3.5" stroke-linecap="round" stroke-linejoin="round"/>
<path d="M149.837 139.191V96.0933C149.837 88.5932 142.97 82.4922 134.492 82.4922" stroke="#30363B" stroke-width="3.5" stroke-linecap="round" stroke-linejoin="round"/>
<path d="M240.276 75.5391H220.164" stroke="#30363B" stroke-width="3.5" stroke-linecap="round" stroke-linejoin="round"/>
<path d="M211.197 75.5391H176.082" stroke="#30363B" stroke-width="3.5" stroke-linecap="round" stroke-linejoin="round"/>
<path d="M190.81 81.5938H196.473V75.5416H190.81V81.5938Z" stroke="#30363B" stroke-width="3.5" stroke-linecap="round" stroke-linejoin="round"/>
<path d="M154.573 75.5391H114.414" stroke="#30363B" stroke-width="3.5" stroke-linecap="round" stroke-linejoin="round"/>
<path d="M246.229 61.0435V57.5456H176.081V51.9978L168.97 44.8882V34.2969H167.262" stroke="#30363B" stroke-width="3.5" stroke-linecap="round" stroke-linejoin="round"/>
<path d="M168.972 34.2994H172.633V32.3309C172.633 32.3309 161.568 17.6723 139.91 15.4922" stroke="#30363B" stroke-width="3.5" stroke-linecap="round" stroke-linejoin="round"/>
<path d="M134.492 32.0703H96.3672V34.2992H134.492H172.634V32.0703H134.492Z" stroke="#30363B" stroke-width="3.5" stroke-linecap="round" stroke-linejoin="round"/>
<path d="M134.491 40.2969H122.727V49.9608H134.491H146.272V40.2969H134.491Z" stroke="#30363B" stroke-width="3.5" stroke-linecap="round" stroke-linejoin="round"/>
<path d="M222.443 95.2109H238.016V85.2704H222.443V95.2109Z" stroke="#30363B" stroke-width="3.5" stroke-linecap="round" stroke-linejoin="round"/>
<path d="M212.904 47.1094C214.678 47.1094 216.11 48.5411 216.11 50.3144V57.5705H209.715V50.3144C209.715 48.5411 211.147 47.1094 212.904 47.1094Z" stroke="#30363B" stroke-width="3.5" stroke-linecap="round" stroke-linejoin="round"/>
<path d="M243.041 47.1094C244.814 47.1094 246.246 48.5411 246.246 50.3144V57.5705H239.852V50.3144C239.852 48.5411 241.283 47.1094 243.057 47.1094H243.041Z" stroke="#30363B" stroke-width="3.5" stroke-linecap="round" stroke-linejoin="round"/>
</svg>
