<?xml version="1.0" encoding="utf-8"?>
<!-- Generator: Adobe Illustrator 27.5.0, SVG Export Plug-In . SVG Version: 6.00 Build 0)  -->
<svg version="1.1" id="Capa_1" xmlns="http://www.w3.org/2000/svg" xmlns:xlink="http://www.w3.org/1999/xlink" x="0px" y="0px"
	 viewBox="0 0 512 512" style="enable-background:new 0 0 512 512;" xml:space="preserve">
<style type="text/css">
	.st0{fill:#00BFB2;}
	.st1{fill:none;}
	.st2{fill:#FFFFFF;}
	.st3{fill-rule:evenodd;clip-rule:evenodd;fill:#00BFB2;}
	.st4{stroke:#30363B;stroke-width:0.1828;}
	.st5{fill-rule:evenodd;clip-rule:evenodd;}
	.st6{fill:url(#SVGID_1_);}
	.st7{fill:#FBFBFB;}
</style>
<g>
	<path class="st0" d="M256,411.3c-3.4,0-6.6-1-9.4-2.9c-8.1-5.5-50.4-34.9-90.6-72.8c-22.8-21.5-40.9-42-53.8-60.9
		c-15.8-23.2-23.9-44.1-23.9-62.1c0-54,41.9-111.9,104.4-111.9c29.4,0,54.8,11.7,73.3,34l0,0c18.5-22.2,43.8-34,73.3-34
		c62.4,0,104.4,57.8,104.4,111.9c0,18-8,38.9-23.9,62.1c-12.9,18.9-31,39.4-53.8,60.9c-40,37.8-82.5,67.3-90.6,72.8
		C262.6,410.3,259.4,411.3,256,411.3z M251.5,388C251.4,388,251.4,388,251.5,388C251.4,388,251.4,388,251.5,388z M182.7,125.4
		c-47.7,0-79.7,45.1-79.7,87.2c0,12.8,6.8,29.5,19.6,48.2c11.9,17.4,28.8,36.5,50.4,56.8c33.9,32,69.3,57.7,83,67.2
		c13.8-9.6,49.3-35.4,83-67.2c21.5-20.3,38.5-39.4,50.4-56.8c12.8-18.7,19.6-35.4,19.6-48.2c0-42.1-32-87.2-79.7-87.2
		c-22.2,0-40.4,8.4-54.3,25.1l-19,22.8l-19-22.8C223.2,133.8,204.9,125.4,182.7,125.4z"/>
</g>
</svg>
