<?xml version="1.0" encoding="utf-8"?>
<!-- Generator: Adobe Illustrator 27.5.0, SVG Export Plug-In . SVG Version: 6.00 Build 0)  -->
<svg version="1.1" id="Capa_1" xmlns="http://www.w3.org/2000/svg" xmlns:xlink="http://www.w3.org/1999/xlink" x="0px" y="0px"
	 viewBox="0 0 512 512" style="enable-background:new 0 0 512 512;" xml:space="preserve">
<style type="text/css">
	.svg_base{fill:#343434;}
	.svg_accent{fill:#00BFB2;}
</style>
<g>
	<path class="svg_accent" d="M309.8,362.8c-22.2,0-40.3-17.9-40.3-40c0-19,23.7-42.9,31-49.8c5.2-4.9,13.3-4.9,18.6,0
		c7.3,6.9,31,30.8,31,49.8C350.1,344.9,332.1,362.8,309.8,362.8z M309.8,302c-5.9,5.8-10.5,12.9-13.4,20.7c0,7.4,6,13.3,13.4,13.3
		s13.4-5.9,13.4-13.3C320.3,314.8,315.7,307.8,309.8,302z"/>
	<path  class="svg_base" d="M393.6,109c6.1-1.5,10.4-7.1,10.2-13.3v-40c-0.1-7.4-6-13.3-13.5-13.3h-80.6c-22.2,0-40.3,17.9-40.3,40c0,0.2,0,0.5,0,0.7
		c-76,6.9-134.3,70.3-134.3,146.2v80.1c-14.8,0-26.9,12-26.9,26.7v93.5c0,7.4,6,13.3,13.4,13.3h53.7c7.4,0,13.4-5.9,13.4-13.3
		v-93.5c0-14.7-12.1-26.7-26.9-26.7v-66.7h53.7v186.9c0,22.1,18,40,40.3,40h107.4c22.2,0,40.3-17.9,40.3-40v-26.7
		c0-7.4-6-13.3-13.4-13.3H242.4V242.7h134.3v106.9c0,7.4,6,13.3,13.4,13.3s13.4-5.9,13.4-13.3V215.9c0-36.1-21-68.8-53.7-84.2
		v-12.2l43.5-10.4L393.6,109z M162.2,416.2h-26.9V336h26.9V416.2z M377,416.2v13.3c0,7.4-6,13.3-13.4,13.3H256.2
		c-7.4,0-13.4-5.9-13.4-13.3v-13.3H377L377,416.2z M377,85.3L350.1,92c0.8-7.7,0-15.5-2.4-22.9H377V85.3L377,85.3z M163,215.9
		c6.3-55.8,50.5-99.7,106.6-106.1v21.7c-32.7,15.4-53.6,48.2-53.7,84.2L163,215.9L163,215.9z M377,215.9H242.7
		c0-36.9,30-66.7,67.1-66.7C346.8,149.2,376.9,179,377,215.9 M296.3,123.5V82.4c0.1-7.4,6.2-13.2,13.6-13.1c3.5,0,6.9,1.5,9.4,4
		c5.3,4.9,3.9,6.3,3.9,50.3C314.3,122,305.2,122,296.3,123.5z"/>
</g>
</svg>
