<?xml version="1.0" encoding="utf-8"?>
<!-- Generator: Adobe Illustrator 27.5.0, SVG Export Plug-In . SVG Version: 6.00 Build 0)  -->
<svg version="1.1" id="Capa_1" xmlns="http://www.w3.org/2000/svg" xmlns:xlink="http://www.w3.org/1999/xlink" x="0px" y="0px"
	 viewBox="0 0 512 512" style="enable-background:new 0 0 512 512;" xml:space="preserve">
<style type="text/css">
	.st0{fill:#00BFB2;}
	.st1{fill:none;}
	.st2{fill:#FFFFFF;}
	.st3{fill-rule:evenodd;clip-rule:evenodd;fill:#00BFB2;}
	.svg-base{stroke:#30363B;stroke-width:0.1828;}
	.st5{fill-rule:evenodd;clip-rule:evenodd;}
	.st6{fill:url(#SVGID_1_);}
	.st7{fill:#FBFBFB;}
</style>
<g>
	<path class="st0" d="M107.6,404.4l21.3-79.4c-12.1-21.7-18.5-46.1-18.5-70.8c0.1-80.9,66-146.6,147-146.6c81,0,147,65.7,147,146.6
		c0,80.9-65.9,146.6-147,146.6c-24.3,0-48.4-6.2-69.8-17.7L107.6,404.4L107.6,404.4z M191.6,353.2l5,3c18.5,11,39.5,16.8,60.8,16.8
		c65.7,0,119.2-53.3,119.2-118.9c0-65.6-53.5-118.9-119.2-118.9c-65.7,0-119.2,53.3-119.2,118.9c0,21.7,6,43,17.5,61.6l3.1,5.1
		l-11.9,44.3L191.6,353.2L191.6,353.2z"/>
	<path class="st3" d="M312.1,274.5c-6-3.6-13.9-7.7-21-4.7c-5.4,2.2-8.9,10.7-12.5,15.2c-1.8,2.2-4,2.6-6.8,1.5
		c-20.5-8.2-36.2-21.8-47.6-40.7c-1.9-2.9-1.6-5.2,0.8-7.9c3.4-4,7.7-8.6,8.6-14c0.9-5.4-1.6-11.7-3.8-16.6
		c-2.8-6.2-6.1-14.9-12.3-18.4c-5.7-3.2-13.2-1.4-18.2,2.7c-8.8,7.1-12.9,18.2-12.9,29.2c0,3.2,0.4,6.2,1.2,9.2
		c1.8,7.2,5.2,14.1,8.9,20.5c2.8,4.8,5.9,9.6,9.4,14.2c10.9,14.9,24.6,27.8,40.4,37.5c7.9,4.8,16.4,9.1,25.2,12
		c9.9,3.2,18.7,6.7,29.4,4.7c11.2-2.1,22.2-9,26.6-19.7c1.3-3.2,2-6.7,1.3-10.1C327.2,282.1,317.8,277.9,312.1,274.5L312.1,274.5z"
		/>
</g>
</svg>
