<?xml version="1.0" encoding="utf-8"?>
<!-- Generator: Adobe Illustrator 27.5.0, SVG Export Plug-In . SVG Version: 6.00 Build 0)  -->
<svg version="1.1" id="Capa_1" xmlns="http://www.w3.org/2000/svg" xmlns:xlink="http://www.w3.org/1999/xlink" x="0px" y="0px"
	 viewBox="0 0 512 512" style="enable-background:new 0 0 512 512;" xml:space="preserve">
<style type="text/css">
	.st0{fill:#00BFB2;}
	.st1{fill:none;}
	.st2{fill:#FFFFFF;}
	.st3{fill-rule:evenodd;clip-rule:evenodd;fill:#00BFB2;}
	.svg-base{stroke:#30363B;stroke-width:0.1828;}
	.st5{fill-rule:evenodd;clip-rule:evenodd;}
	.st6{fill:url(#SVGID_1_);}
	.st7{fill:#FBFBFB;}
</style>
<g>
	<path class="st0" d="M390.1,247.2c0,80.1-137.4,162.5-137.4,162.5s-130.9-82.5-130.9-162.5c0-80.1,51.4-145,130.9-145
		C332.2,102.2,390.1,167.1,390.1,247.2z"/>
	<g>
		<path d="M288.6,293.7c0,14.4-3.6,25.5-10.7,33.3c-7.1,7.7-17.5,11.6-31.1,11.6c-13.6,0-24-3.9-31.1-11.6
			c-7.1-7.7-10.7-18.8-10.7-33.3v-92.8c0-14.4,3.6-25.5,10.7-33.3c7.1-7.7,17.5-11.6,31.1-11.6c13.6,0,24,3.9,31.1,11.6
			c7.1,7.7,10.7,18.8,10.7,33.3v17.3h-26.5v-19.1c0-11.7-4.8-17.6-14.5-17.6c-9.7,0-14.5,5.9-14.5,17.6v96.4
			c0,11.6,4.8,17.3,14.5,17.3c9.7,0,14.5-5.8,14.5-17.3V270h26.5V293.7z"/>
		<path d="M322.7,336.6h-27v-27h27V336.6z"/>
	</g>
</g>
</svg>
