<?xml version="1.0" encoding="utf-8"?>
<!-- Generator: Adobe Illustrator 27.5.0, SVG Export Plug-In . SVG Version: 6.00 Build 0)  -->
<svg version="1.1" id="Capa_1" xmlns="http://www.w3.org/2000/svg" xmlns:xlink="http://www.w3.org/1999/xlink" x="0px" y="0px"
	 viewBox="0 0 512 512" style="enable-background:new 0 0 512 512;" xml:space="preserve">
<style type="text/css">
	.st0{fill:#00BFB2;}
	.st1{fill:none;}
	.st2{fill:#FFFFFF;}
	.st3{fill-rule:evenodd;clip-rule:evenodd;fill:#00BFB2;}
	.st4{stroke:#30363B;stroke-width:0.1828;}
	.st5{fill-rule:evenodd;clip-rule:evenodd;}
	.st6{font-family:'MyriadPro-Regular';}
	.st7{font-size:181.3991px;}
	.st8{fill:url(#SVGID_1_);}
	.st9{fill:#FBFBFB;}
</style>
<text transform="matrix(1 0 0 1 15.156 -35.6103)" class="st2 st6 st7">OTROS</text>
<g>
	<path d="M219.9,110.6c1.4-3.1,5.4-4,8-1.8l30.5,26.4c1.8,1.5,4.4,1.7,6.3,0.3l32.8-23.5c2.8-2,6.7-0.7,7.8,2.5l13.2,38.1
		c0.8,2.2,3,3.6,5.3,3.4l40.1-4c3.4-0.3,6.1,2.7,5.5,6l-7.6,39.6c-0.4,2.3,0.8,4.6,2.9,5.6l36.7,16.6c3.1,1.4,4,5.4,1.8,8
		l-26.4,30.5c-1.5,1.8-1.7,4.4-0.3,6.3l23.5,32.8c2,2.8,0.7,6.7-2.5,7.8l-38.1,13.2c-2.2,0.8-3.6,3-3.4,5.3l4,40.1
		c0.3,3.4-2.7,6.1-6,5.5l-39.6-7.6c-2.3-0.4-4.6,0.8-5.6,2.9l-16.6,36.7c-1.4,3.1-5.4,4-8,1.8l-30.5-26.4c-1.8-1.5-4.4-1.7-6.3-0.3
		L214.6,400c-2.8,2-6.7,0.7-7.8-2.5l-13.2-38.1c-0.8-2.2-3-3.6-5.3-3.4l-40.1,4c-3.4,0.3-6.1-2.7-5.5-6l7.6-39.6
		c0.4-2.3-0.8-4.6-2.9-5.6l-36.7-16.6c-3.1-1.4-4-5.4-1.8-8l26.4-30.5c1.5-1.8,1.7-4.4,0.3-6.3L112,214.6c-2-2.8-0.7-6.7,2.5-7.8
		l38.1-13.2c2.2-0.8,3.6-3,3.4-5.3l-4-40.1c-0.3-3.4,2.7-6.1,6-5.5l39.6,7.6c2.3,0.4,4.6-0.8,5.6-2.9L219.9,110.6z"/>
	<path class="st0" d="M283.6,271.5l4.5,18.4c2.7,11.2,2.1,20.5-2,28c-4,7.3-11.3,12.2-22,14.8c-10.7,2.6-19.5,1.6-26.5-3
		c-6.9-4.8-11.7-12.7-14.4-24l-17.5-72.1c-2.7-11.2-2.1-20.5,1.9-27.7c4.1-7.4,11.5-12.4,22.1-15c10.7-2.6,19.5-1.5,26.4,3.2
		c7,4.6,11.9,12.5,14.6,23.7l3.3,13.5l-20.6,5l-3.6-14.9c-1.2-5-3.1-8.3-5.7-9.7c-2.5-1.6-5.5-2-8.9-1.2c-3.4,0.8-5.9,2.6-7.5,5.2
		c-1.5,2.5-1.6,6.2-0.4,11.2l18.2,74.9c1.2,5,3.1,8.3,5.5,9.8c2.6,1.5,5.6,1.8,9,0.9c3.4-0.8,5.9-2.5,7.4-4.9
		c1.6-2.5,1.8-6.3,0.6-11.3l-4.8-19.8L283.6,271.5z"/>
	<path class="st9" d="M325.3,293.9l5.1,21l-21,5.1l-5.1-21L325.3,293.9z"/>
</g>
</svg>
