<?xml version="1.0" encoding="utf-8"?>
<!-- Generator: Adobe Illustrator 27.5.0, SVG Export Plug-In . SVG Version: 6.00 Build 0)  -->
<svg version="1.1" id="Capa_1" xmlns="http://www.w3.org/2000/svg" xmlns:xlink="http://www.w3.org/1999/xlink" x="0px" y="0px"
	 viewBox="0 0 512 512" style="enable-background:new 0 0 512 512;" xml:space="preserve">
<style type="text/css">
	.st0{fill:#FFFFFF;}
	.st1{fill:#1B1B1A;}
	.st2{fill-rule:evenodd;clip-rule:evenodd;fill:#1B1B1A;}
	.st3{fill:#BDBDBD;}
	.svg-base{fill:url(#SVGID_1_);}
	.st5{fill:#FF5166;}
	.st6{fill:#C5C5C5;}
	.st7{fill:none;}
	.st8{fill-rule:evenodd;clip-rule:evenodd;fill:#FF5166;}
</style>
<path class="st8" d="M270.4,109.2l38.4,84.1c0.8,1.8,2.5,3.1,4.5,3.3l91.9,10.6v0c4.1,0.4,7.8,2.4,10.4,5.6
	c2.6,3.1,3.9,7.1,3.6,11.2c-0.3,4.1-2.1,7.9-5.1,10.6L346,297.1c-1.5,1.3-2.2,3.4-1.7,5.3l18.3,90.6c0.8,4,0.1,8.1-2.1,11.6
	c-2.2,3.5-5.6,5.9-9.5,6.9c-4,1-8.1,0.4-11.7-1.6l-80.5-45.4c-1.7-1-3.9-1-5.6,0L172.7,410h0c-3.5,2-7.7,2.6-11.7,1.6
	c-4-1-7.4-3.5-9.5-6.9c-2.2-3.5-2.9-7.6-2.1-11.6l18.3-90.6v0c0.4-2-0.2-4-1.7-5.3l-68.1-62.5c-3-2.7-4.9-6.5-5.1-10.6
	c-0.3-4.1,1-8.1,3.6-11.2c2.6-3.1,6.3-5.1,10.4-5.6l91.9-10.6c2-0.2,3.7-1.4,4.5-3.3l38.4-84.1c1.7-3.7,4.7-6.6,8.5-8.2
	c3.8-1.5,8-1.5,11.8,0C265.7,102.6,268.7,105.5,270.4,109.2L270.4,109.2z"/>
</svg>
