<?xml version="1.0" encoding="utf-8"?>
<!-- Generator: Adobe Illustrator 27.5.0, SVG Export Plug-In . SVG Version: 6.00 Build 0)  -->
<svg version="1.1" id="Capa_1" xmlns="http://www.w3.org/2000/svg" xmlns:xlink="http://www.w3.org/1999/xlink" x="0px" y="0px"
	 viewBox="0 0 512 512" style="enable-background:new 0 0 512 512;" xml:space="preserve">
<style type="text/css">
	.st0{fill:#00BFB2;}
	.st1{fill:#3C434A;}
	.st2{fill:none;}
	.st3{fill:#FFFFFF;}
	.st4{fill-rule:evenodd;clip-rule:evenodd;fill:#00BFB2;}
	.st5{fill:#3C434A;stroke:#30363B;stroke-width:0.1828;}
	.st6{fill-rule:evenodd;clip-rule:evenodd;fill:#3C434A;}
	.st7{fill-rule:evenodd;clip-rule:evenodd;fill:#FFFFFF;}
	.st8{fill:#FFFFFF;stroke:#30363B;stroke-width:0.1828;}
</style>
<g>
	<path class="st0" d="M296.1,296.2h-53.4c-7.4,0-13.3-6-13.3-13.4s6-13.4,13.3-13.4h53.4c7.4,0,13.3,6,13.3,13.4
		C309.4,290.1,303.4,296.2,296.1,296.2z"/>
	<path class="st0" d="M296.1,349.7H216c-7.4,0-13.3-6-13.3-13.4s6-13.4,13.3-13.4h80.1c7.4,0,13.3,6,13.3,13.4
		S303.4,349.7,296.1,349.7z"/>
	<path class="st0" d="M269.4,403.3H216c-7.4,0-13.3-6-13.3-13.4s6-13.4,13.3-13.4h53.4c7.4,0,13.3,6,13.3,13.4
		C282.8,397.2,276.6,403.3,269.4,403.3z"/>
	<g>
		<path class="st1" d="M322.9,470.2H189.2c-22.2,0-40.1-18-40.1-40.2V259.2c0-15.3,8.5-29.2,22.2-36l104.1-52.1
			c4.5-2.3,7.4-7,7.3-12v-23.6c0-7.4-6-13.4-13.3-13.4h-26.7c-7.4,0-13.3,6-13.3,13.4c0,22.2-17.9,40.2-40.1,40.2
			s-40.1-18-40.1-40.2c0-51.8,41.9-93.7,93.5-93.7h26.7c51.6,0,93.4,41.9,93.4,93.7v214.2c0,7.4-6,13.4-13.3,13.4
			c-7.3,0-13.3-6-13.3-13.4V135.5c0-36.9-29.9-66.9-66.8-66.9h-26.7c-36.9,0-66.8,30-66.8,66.9c0,7.4,6,13.4,13.3,13.4
			s13.3-6,13.3-13.4c0-22.2,17.9-40.2,40.1-40.2h26.7c22.2,0,40.1,18,40.1,40.2v23.6c0,15.3-8.5,29.2-22.2,36l-104.1,52.1
			c-4.5,2.3-7.4,7-7.3,12V430c0,7.4,6,13.4,13.3,13.4h133.7c7.4,0,13.3-6,13.3-13.4v-26.8c0-7.4,6-13.4,13.3-13.4
			c7.3,0,13.3,6,13.3,13.4V430C362.9,452.2,344.9,470.2,322.9,470.2"/>
	</g>
</g>
</svg>
