<?xml version="1.0" encoding="utf-8"?>
<!-- Generator: Adobe Illustrator 27.5.0, SVG Export Plug-In . SVG Version: 6.00 Build 0)  -->
<svg version="1.1" id="Capa_1" xmlns="http://www.w3.org/2000/svg" xmlns:xlink="http://www.w3.org/1999/xlink" x="0px" y="0px"
	 viewBox="0 0 512 512" style="enable-background:new 0 0 512 512;" xml:space="preserve">
<style type="text/css">
	.st0{fill:#00BFB2;}
	.st1{fill:#3C434A;}
	.st2{fill:none;}
	.st3{fill:#FFFFFF;}
	.st4{fill-rule:evenodd;clip-rule:evenodd;fill:#00BFB2;}
	.st5{fill:#3C434A;stroke:#30363B;stroke-width:0.1828;}
	.st6{fill-rule:evenodd;clip-rule:evenodd;fill:#3C434A;}
	.st7{fill-rule:evenodd;clip-rule:evenodd;fill:#FFFFFF;}
	.st8{fill:#FFFFFF;stroke:#30363B;stroke-width:0.1828;}
</style>
<g>
	<path class="st0" d="M77,277.7v24.7H60.4c-11.5,0-20.8-9.3-20.8-20.8v-51.5c0-5.5,2.2-10.8,6.1-14.7c3.9-3.9,9.1-6.1,14.7-6.1l0,0
		h16.5v24.6H64.2v43.7L77,277.7z"/>
	<polygon class="st0" points="305.8,209.3 305.8,234 206.1,234 206.1,209.3 	"/>
	<path class="st0" d="M305.9,277.7v24.7h-99.7v49.5c0,0.1,0,0.3,0,0.4v-74.6H305.9z"/>
	<path class="st0" d="M472.4,230.1v51.5c0,11.4-9.3,20.8-20.8,20.8h-16.5v21.8c0,0.2,0,0.3,0,0.4v-46.9h12.7V234h-12.7v-24.7h16.6
		C463.1,209.3,472.4,218.6,472.4,230.1z"/>
	<g>
		<path class="st1" d="M167.7,121.4c-18.5,0-34.1,13.2-37.7,30.7c-4.6-1.9-9.6-2.9-14.6-2.9c-21.2,0-38.5,17.3-38.5,38.5v46.4v43.8
			v46.5c0,21.2,17.3,38.5,38.5,38.5c5.1,0,10-1,14.6-2.9c3.6,17.5,19.1,30.6,37.6,30.6c20.9,0,38.2-17,38.5-38V159.8
			C206,138.5,188.7,121.4,167.7,121.4z M129.2,324.2c0,7.6-6.2,13.8-13.8,13.8s-13.8-6.2-13.8-13.8V187.5c0-0.9,0.1-1.9,0.3-2.8
			c0-0.1,0.1-0.3,0.1-0.4c0.1-0.4,0.2-0.8,0.4-1.2c0.2-0.6,0.5-1.2,0.8-1.8c0.1-0.1,0.1-0.3,0.2-0.4c0.6-1.1,1.3-2,2.1-2.9
			c0.1-0.1,0.2-0.2,0.3-0.3c0.1-0.1,0.2-0.2,0.3-0.3c0.9-0.8,1.8-1.6,2.9-2.1c1.1-0.6,2.2-1,3.4-1.3c0.1,0,0.2-0.1,0.4-0.1
			c0.9-0.2,1.8-0.3,2.8-0.3c7.6,0,13.8,6.2,13.8,13.8v136.8H129.2z M181.5,351.9c0,7.6-6.2,13.8-13.8,13.8s-13.8-6.2-13.8-13.8
			V159.8c0-7.6,6.2-13.8,13.8-13.8s13.8,6.2,13.8,13.8V351.9z"/>
		<path class="st1" d="M396.6,149.1c-5.1,0-10,1-14.6,2.9c-3.6-17.5-19.1-30.6-37.7-30.6c-21.2,0-38.5,17.2-38.5,38.5v74.2v43.8
			v74.2c0,21.2,17.3,38.5,38.5,38.5c18.5,0,34-13.2,37.7-30.6c4.6,1.9,9.5,2.9,14.6,2.9c20.9,0,38.2-17,38.5-38V187.5
			C434.9,166.2,417.6,149.1,396.6,149.1z M358.1,351.9c0,7.6-6.2,13.8-13.8,13.8s-13.8-6.2-13.8-13.8V159.8c0-1,0.1-1.9,0.3-2.8
			c1.3-6.3,6.9-11,13.5-11c7.6,0,13.8,6.2,13.8,13.8V351.9z M410.4,324.2c0,7.6-6.2,13.8-13.8,13.8s-13.8-6.2-13.8-13.8V187.5
			c0-7.6,6.2-13.8,13.8-13.8s13.8,6.2,13.8,13.8V324.2z"/>
	</g>
</g>
</svg>
