<?xml version="1.0" encoding="utf-8"?>
<!-- Generator: Adobe Illustrator 27.5.0, SVG Export Plug-In . SVG Version: 6.00 Build 0)  -->
<svg version="1.1" id="Capa_1" xmlns="http://www.w3.org/2000/svg" xmlns:xlink="http://www.w3.org/1999/xlink" x="0px" y="0px"
	 viewBox="0 0 512 512" style="enable-background:new 0 0 512 512;" xml:space="preserve">
<style type="text/css">
	.st0{fill:#00BFB2;}
	.st1{fill:#3C434A;}
	.st2{fill:none;}
	.st3{fill:#FFFFFF;}
	.st4{fill-rule:evenodd;clip-rule:evenodd;fill:#00BFB2;}
	.st5{fill:#3C434A;stroke:#30363B;stroke-width:0.1828;}
	.st6{fill-rule:evenodd;clip-rule:evenodd;fill:#3C434A;}
	.st7{fill-rule:evenodd;clip-rule:evenodd;fill:#FFFFFF;}
	.st8{fill:#FFFFFF;stroke:#30363B;stroke-width:0.1828;}
</style>
<g>
	<path class="st0" d="M189,166.3c-7.4,0-13.4-5.7-13.4-12.8v-38.4c0-7.1,6-12.8,13.4-12.8s13.4,5.7,13.4,12.8v38.4
		C202.4,160.5,196.5,166.3,189,166.3z"/>
	<path class="st0" d="M189,358.5c-7.4,0-13.4-5.7-13.4-12.8v-76.9c0-7.1,6-12.8,13.4-12.8s13.4,5.7,13.4,12.8v76.9
		C202.4,352.8,196.5,358.5,189,358.5z"/>
	<g>
		<path class="st1" d="M376.6,179.1c7.4,0,13.4-5.7,13.4-12.8V76.6c0-14.1-12-25.6-26.8-25.6H148.8C134,51.1,122,62.6,122,76.6
			v333.1c0,14.1,12,25.6,26.8,25.6v12.8c0,7.1,6,12.8,13.4,12.8s13.4-5.7,13.4-12.8v-12.8h160.8v12.8c0,7.1,6,12.8,13.4,12.8
			s13.4-5.7,13.4-12.8v-12.8c14.8,0,26.8-11.5,26.8-25.6V217.6c0-7.1-6-12.8-13.4-12.8H148.8V76.7h214.4v89.7
			C363.2,173.3,369.2,179.1,376.6,179.1z M363.2,409.7H148.8V230.3h214.4V409.7L363.2,409.7z"/>
	</g>
</g>
</svg>
