<?xml version="1.0" encoding="utf-8"?>
<!-- Generator: Adobe Illustrator 27.5.0, SVG Export Plug-In . SVG Version: 6.00 Build 0)  -->
<svg version="1.1" id="Capa_1" xmlns="http://www.w3.org/2000/svg" xmlns:xlink="http://www.w3.org/1999/xlink" x="0px" y="0px"
	 viewBox="0 0 512 512" style="enable-background:new 0 0 512 512;" xml:space="preserve">
<style type="text/css">
	.st0{fill:#00BFB2;}
	.st1{fill:none;}
	.st2{fill:#FFFFFF;}
	.st3{fill-rule:evenodd;clip-rule:evenodd;fill:#00BFB2;}
	.st4{stroke:#30363B;stroke-width:0.1828;}
	.st5{fill-rule:evenodd;clip-rule:evenodd;}
	.st6{fill-rule:evenodd;clip-rule:evenodd;fill:#FFFFFF;}
	.st7{fill:#FFFFFF;stroke:#30363B;stroke-width:0.1828;}
</style>
<g>
	<path class="st0" d="M452.4,348.3c0-45.8-23.5-85-58.2-104.7c7-9.7,12.1-20.9,12.1-33.8c0-32.6-26.7-59.4-59.2-59.4
		S288,177.2,288,209.8c0,12.9,5.1,24.1,12.1,33.8c-34.7,19.8-58.2,58.9-58.2,104.7c0,7.3,5.9,13.2,13.2,13.2h184.2
		C446.5,361.5,452.4,355.6,452.4,348.3z M270.1,335.1c4.6-36.4,26.2-65.4,54.7-75.2c4.7-1.6,8.1-5.7,8.8-10.6
		c0.7-4.9-1.4-9.8-5.5-12.7c-8.4-6-13.8-15.7-13.8-26.8c0-18.4,14.6-33,32.9-33c18.3,0,32.9,14.6,32.9,33c0,11.1-5.4,20.8-13.8,26.8
		c-4.1,2.9-6.2,7.7-5.5,12.7c0.7,4.9,4.1,9,8.8,10.6c28.5,9.8,50.1,38.8,54.7,75.2H270.1z"/>
	<path d="M270.1,348.3c0-45.8-23.5-85-58.2-104.7c7-9.7,12.1-20.9,12.1-33.8c0-32.6-26.7-59.4-59.2-59.4s-59.2,26.7-59.2,59.4
		c0,12.9,5.1,24.1,12.1,33.8c-34.7,19.8-58.2,58.9-58.2,104.7c0,7.3,5.9,13.2,13.2,13.2h184.2C264.2,361.5,270.1,355.6,270.1,348.3z
		 M87.7,335.1c4.6-36.4,26.2-65.4,54.7-75.2c4.7-1.6,8.1-5.7,8.8-10.6c0.7-4.9-1.4-9.8-5.5-12.7c-8.4-6-13.8-15.7-13.8-26.8
		c0-18.4,14.6-33,32.9-33s32.9,14.6,32.9,33c0,11.1-5.4,20.8-13.8,26.8c-4.1,2.9-6.2,7.7-5.5,12.7c0.7,4.9,4.1,9,8.8,10.6
		c28.5,9.8,50.1,38.8,54.7,75.2H87.7z"/>
</g>
</svg>
