<?xml version="1.0" encoding="utf-8"?>
<!-- Generator: Adobe Illustrator 27.5.0, SVG Export Plug-In . SVG Version: 6.00 Build 0)  -->
<svg version="1.1" id="Capa_1" xmlns="http://www.w3.org/2000/svg" xmlns:xlink="http://www.w3.org/1999/xlink" x="0px" y="0px"
	 viewBox="0 0 512 512" style="enable-background:new 0 0 512 512;" xml:space="preserve">
<style type="text/css">
	.st0{fill:#00BFB2;}
	.st1{fill:#3C434A;}
	.st2{fill:none;}
	.st3{fill:#FFFFFF;}
	.st4{fill-rule:evenodd;clip-rule:evenodd;fill:#00BFB2;}
	.st5{fill:#3C434A;stroke:#30363B;stroke-width:0.1828;}
	.st6{fill-rule:evenodd;clip-rule:evenodd;fill:#3C434A;}
	.st7{fill-rule:evenodd;clip-rule:evenodd;fill:#FFFFFF;}
	.st8{fill:#FFFFFF;stroke:#30363B;stroke-width:0.1828;}
</style>
<g>
	<g>
		<g>
			<path class="st1" d="M439.4,89.5H72.6c-17.1,0-31,14-31,31.1v222c0,17.2,13.9,31.1,31,31.1h366.8c17.1,0,31-14,31-31.1v-222
				C470.4,103.5,456.5,89.5,439.4,89.5z M67,120.7c0-3.1,2.5-5.7,5.6-5.7h366.8c3.1,0,5.6,2.5,5.6,5.7v222c0,3.1-2.5,5.7-5.6,5.7
				H72.6c-3.1,0-5.6-2.5-5.6-5.7V120.7z"/>
			<path class="st1" d="M379.6,397.1H132.4c-7,0-12.7,5.7-12.7,12.7s5.7,12.7,12.7,12.7h247.2c7,0,12.7-5.7,12.7-12.7
				S386.6,397.1,379.6,397.1z"/>
		</g>
	</g>
	<path class="st0" d="M399.4,251.5c-4,4.3-12.7,2.6-19.6-3.9l-74.3-70.5c-6.8-6.5-9.2-15.2-5.2-19.6c4-4.3,12.7-2.6,19.6,3.9
		l74.3,70.5C401.1,238.4,403.4,247.1,399.4,251.5z"/>
	<path class="st0" d="M404.2,207.2c-4,4.3-10.5,4.7-14.6,0.8l-44.2-41.9c-4.1-3.9-4.2-10.5-0.2-14.8s10.5-4.7,14.6-0.8l44.2,41.9
		C408.1,196.3,408.2,202.9,404.2,207.2z"/>
</g>
</svg>
