<svg version="1.1" id="Capa_1" xmlns="http://www.w3.org/2000/svg" xmlns:xlink="http://www.w3.org/1999/xlink" x="0px" y="0px"
	 viewBox="0 0 512 512" style="enable-background:new 0 0 512 512;" xml:space="preserve">
<style type="text/css">
	.svg_base{fill:#343434;}
	.svg_accent{fill:#FF5166;}
</style>
<g>
	<path class="svg_base" d="M425,106.4h-19.4h-33.2h-33.2h-33.2h0h-33.2h-33.2v0h-33.2v0h-33.2h-33.2h-33.2H87c-7.7,0-13.9,6.2-13.9,13.9
		v19.4v33.2v0v33.2v33.2v33.2v0v33.2v0v33.2v0v33.2v19.4c0,7.7,6.2,13.9,13.9,13.9h19.4h33.2h33.2h33.2h33.2h33.2h33.2h0h33.2h33.2
		h33.2H425c7.7,0,13.9-6.2,13.9-13.9v-19.4v-33.2v0v-33.2v0v-33.2v0v-33.2v-33.2v-33.2v0v-33.2v-19.4
		C438.8,112.6,432.6,106.4,425,106.4z M206.1,372.4h-33.2h-33.2h-33.2v-33.2v0v-33.2v0v-33.2v0v-33.2v-33.2v-33.2v0v-33.2h33.2
		h33.2h33.2v0h33.2v33.2v0v33.2v33.2v33.2v0v33.2v0v33.2v0v33.2H206.1z M405.6,172.9L405.6,172.9v33.2v33.2v33.2v0v33.2v0v33.2v0
		v33.2h-33.2h-33.2h-33.2h0h-33.2v-33.2v0v-33.2v0v-33.2v0v-33.2v-33.2v-33.2v0v-33.2h33.2h0h33.2h33.2h33.2V172.9z"/>
	<polygon class="svg_accent" points="305.9,172.9 305.9,206.1 339.1,206.1 372.4,206.1 372.4,172.9 339.1,172.9 	"/>
	<polygon class="svg_accent" points="139.6,172.9 139.6,206.1 172.9,206.1 206.1,206.1 206.1,172.9 172.9,172.9 	"/>
	<polygon class="svg_accent" points="139.6,239.4 139.6,272.6 172.9,272.6 206.1,272.6 206.1,239.4 172.9,239.4 	"/>
	<polygon class="svg_accent" points="305.9,239.4 305.9,272.6 339.1,272.6 372.4,272.6 372.4,239.4 339.1,239.4 	"/>
	<polygon class="svg_accent" points="139.6,305.9 139.6,339.1 172.9,339.1 206.1,339.1 206.1,305.9 172.9,305.9 	"/>
	<polygon class="svg_accent" points="305.9,305.9 305.9,339.1 339.1,339.1 372.4,339.1 372.4,305.9 339.1,305.9 	"/>
</g>
</svg>
