<?xml version="1.0" encoding="utf-8"?>
<!-- Generator: Adobe Illustrator 28.3.0, SVG Export Plug-In . SVG Version: 6.00 Build 0)  -->
<svg version="1.1" xmlns="http://www.w3.org/2000/svg" xmlns:xlink="http://www.w3.org/1999/xlink" x="0px" y="0px"
	 viewBox="0 0 88 88" style="enable-background:new 0 0 88 88;" xml:space="preserve">
<style type="text/css">
	.svg_base{fill:#343434;}
	.svg_accent{fill:#FF5166;}
	.st4{fill:none;}
</style>
<g id="Capa_2" class="st0">
</g>
<g id="Capa_1">
	<polygon class="st4" points="52.4,44.6 52.4,59.9 60.5,59.9 60.5,61.3 65,61.3 65,59.9 73.2,59.9 73.2,44.6 	"/>
	<polygon class="st4" points="14.8,44.6 14.8,59.9 23,59.9 23,61.3 27.5,61.3 27.5,59.9 35.6,59.9 35.6,44.6 	"/>
	<polygon class="svg_accent" points="49.6,33.4 44,27.8 38.4,33.4 40.7,35.8 44,32.5 47.3,35.8 	"/>
	<polygon class="svg_base" points="35.1,30.1 37.4,32.5 44,25.9 50.6,32.5 52.9,30.1 44,21.2 	"/>
	<polygon class="svg_accent" points="44,19.4 53.8,29.2 56.2,26.8 44,14.7 31.8,26.8 34.2,29.2 	"/>
	<path class="svg_base" d="M14.8,44.6h20.8v15.4h3.7V42.5c0-0.9-0.7-1.6-1.6-1.6h-25c-0.9,0-1.6,0.7-1.6,1.6v17.4h3.7V44.6z"/>
	<path class="svg_accent" d="M40.4,59.9h-1.1h-3.7h-8.2v1.4H23v-1.4h-8.2h-3.7H10c-0.9,0-1.6,0.7-1.6,1.6v5.9c0,0.9,0.7,1.7,1.6,1.7h30.4
		c0.9,0,1.7-0.7,1.7-1.7v-5.9C42.1,60.7,41.3,59.9,40.4,59.9z M39.5,66H11.1v-2.9h28.4V66z"/>
	<path class="svg_base" d="M52.4,44.6h20.8v15.4h3.7V42.5c0-0.9-0.7-1.6-1.7-1.6h-25c-0.9,0-1.6,0.7-1.6,1.6v17.4h3.7V44.6z"/>
	<path class="svg_accent" d="M78,59.9h-1.1h-3.7H65v1.4h-4.5v-1.4h-8.2h-3.7h-1.1c-0.9,0-1.7,0.7-1.7,1.6v5.9c0,0.9,0.7,1.7,1.7,1.7H78
		c0.9,0,1.7-0.7,1.7-1.7v-5.9C79.6,60.7,78.9,59.9,78,59.9z M77.1,66H48.6v-2.9h28.4V66z"/>
</g>
</svg>
