<?xml version="1.0" encoding="utf-8"?>
<!-- Generator: Adobe Illustrator 28.3.0, SVG Export Plug-In . SVG Version: 6.00 Build 0)  -->
<svg version="1.1" xmlns="http://www.w3.org/2000/svg" xmlns:xlink="http://www.w3.org/1999/xlink" x="0px" y="0px"
	 viewBox="0 0 88 88" style="enable-background:new 0 0 88 88;" xml:space="preserve">
<style type="text/css">
	.svg_base{fill:#343434;}
	.svg_accent{fill:#FF5166;}
	.st4{fill:none;}
</style>
<g id="Capa_2" class="st0">
</g>
<g id="Capa_1">
	<g>
		<g>
			<path class="svg_base" d="M43.9,72.8v-2.1H23.7V50.5h20.3v-3.4H23.7v-3.4h20.3v-3.4H21.7c-0.1,0-0.1,0-0.1,0c-0.7,0.1-1.3,0.7-1.3,1.4v30.9
				c0,0.8,0.6,1.4,1.4,1.4h23.5C44.5,74.1,43.9,73.5,43.9,72.8z"/>
			<path class="svg_accent" d="M23.7,50.5v20.2h20.2V50.5H23.7z M40.6,67.4H27.1V57.2h13.5V67.4z"/>
			<rect x="27.1" y="43.7" class="svg_accent" width="3.4" height="3.4"/>
			<rect x="37.2" y="43.7" class="svg_accent" width="3.4" height="3.4"/>
		</g>
		<g>
			<rect x="47.3" y="74.1" class="st4" width="17" height="0"/>
			<rect x="50.7" y="28.3" class="svg_accent" width="3.4" height="3.4"/>
			<path class="svg_base" d="M67.7,38.4v34.4c0,0.7-0.6,1.3-1.3,1.3h-2.1v0h-17v0h-2.1c-0.7,0-1.3-0.6-1.3-1.3V38.4h3.4v32.3h17V38.4H67.7z"/>
			<path class="svg_accent" d="M66.4,21.5H45.2c-0.7,0-1.3,0.6-1.3,1.3v15.7h23.8V22.8C67.7,22,67.1,21.5,66.4,21.5z M64.3,35h-17V24.9h17
				V35z"/>
			<rect x="50.7" y="42" class="svg_accent" width="3.4" height="3.4"/>
		</g>
		<g>
			<path class="svg_base" d="M42.6,32.8H23.3c-0.9,0-1.6-1-1.2-1.8l3.4-7.3v-8.4c0-0.7,0.6-1.3,1.3-1.3h12.2c0.7,0,1.3,0.6,1.3,1.3v8.4l3.4,7.3
				C44.2,31.8,43.6,32.8,42.6,32.8z M26.5,29.5h13l-2.4-5.2v-7.1h-8.2v7.1L26.5,29.5z"/>
		</g>
	</g>
</g>
</svg>
