<svg version="1.1" id="Capa_1" xmlns="http://www.w3.org/2000/svg" xmlns:xlink="http://www.w3.org/1999/xlink" x="0px" y="0px"
	 viewBox="0 0 512 512" style="enable-background:new 0 0 512 512;" xml:space="preserve">
<style type="text/css">
	.svg_base{fill:#343434;}
	.svg_accent{fill:#FF5166;}
</style>
<g>
	<rect x="150.9" y="106.4" class="svg_base" width="33.2" height="66.5"/>
	<rect x="217.4" y="106.4" class="svg_base" width="33.2" height="66.5"/>
	<rect x="283.9" y="106.4" class="svg_base" width="33.2" height="66.5"/>
	<path class="svg_accent" d="M376.4,239.4c-1.7-6.8-5-13-9.5-18.1c-8-9.3-19.9-15.2-33.2-15.2H148.1c-7.7,0-13.9,6.2-13.9,13.9v85.9
		c0,0,1.1,13.9,5.8,33.2c2.4,10,5.9,21.5,10.8,33.2c0,0,7.1,15.9,12.3,25.8c2.4,4.6,7.1,7.4,12.3,7.4l117.1,0
		c5.2,0,9.9-2.9,12.3-7.5c5.1-10,12.2-25.8,12.2-25.8c4.9-11.8,8.4-23.2,10.8-33.2c4.8-19.2,5.7-33.2,5.7-33.2v-11.6
		c13.3,0,25.3-5.9,33.2-15.2c1.8-2,3.4-4.2,4.8-6.5c3.9-6.5,6.2-14.2,6.2-22.4C377.8,246.5,377.3,242.8,376.4,239.4z M294.6,339.1
		c-2.4,10-5.9,21.5-10.8,33.2H184c-4.9-11.8-8.4-23.2-10.8-33.2c-2.7-11-4.2-20.3-5-26.2c-0.5-4.1-0.8-8.2-0.8-12.3v-61.2h133v61.7
		c0,3.8-0.2,7.5-0.7,11.3C299,318.3,297.4,327.8,294.6,339.1z M340.8,272.7c-2.2,0.7-4.7,1.1-7.2,1.1v-47c9.1,0,16.9,5.2,20.9,12.7
		c1.8,3.2,2.7,6.9,2.7,10.8C357.2,260.8,350.3,269.6,340.8,272.7z"/>
</g>
</svg>
