<svg version="1.1" id="Capa_1" xmlns="http://www.w3.org/2000/svg" xmlns:xlink="http://www.w3.org/1999/xlink" x="0px" y="0px"
	 viewBox="0 0 512 512" style="enable-background:new 0 0 512 512;" xml:space="preserve">
<style type="text/css">
	.st0{fill:#FFFFFF;}
	.st1{fill:#1B1B1A;}
	.st2{fill-rule:evenodd;clip-rule:evenodd;fill:#1B1B1A;}
	.st3{fill:#BDBDBD;}
	.svg-base{font-family:'MyriadPro-Regular';}
	.st5{font-size:181.3991px;}
	.st6{fill:url(#SVGID_1_);}
	.st7{fill:#FF5166;}
	.st8{fill:#C5C5C5;}
	.st9{fill:none;}
	.st10{fill-rule:evenodd;clip-rule:evenodd;fill:#FF5166;}
</style>
<text transform="matrix(1 0 0 1 -3.8297 -38.6122)" class="st0 svg-base st5">OTROS</text>
<g>
	<g>
		<path class="st1" d="M219.9,110.6c1.4-3.1,5.4-4,8-1.8l30.5,26.4c1.8,1.5,4.4,1.7,6.3,0.3l32.8-23.5c2.8-2,6.7-0.7,7.8,2.5
			l13.2,38.1c0.8,2.2,3,3.6,5.3,3.4l40.1-4c3.4-0.3,6.1,2.7,5.5,6l-7.6,39.6c-0.4,2.3,0.8,4.6,2.9,5.6l36.7,16.6
			c3.1,1.4,4,5.4,1.8,8l-26.4,30.5c-1.5,1.8-1.7,4.4-0.3,6.3l23.5,32.8c2,2.8,0.7,6.7-2.5,7.8l-38.1,13.2c-2.2,0.8-3.6,3-3.4,5.3
			l4,40.1c0.3,3.4-2.7,6.1-6,5.5l-39.6-7.6c-2.3-0.4-4.6,0.8-5.6,2.9l-16.6,36.7c-1.4,3.1-5.4,4-8,1.8l-30.5-26.4
			c-1.8-1.5-4.4-1.7-6.3-0.3L214.6,400c-2.8,2-6.7,0.7-7.8-2.5l-13.2-38.1c-0.8-2.2-3-3.6-5.3-3.4l-40.1,4c-3.4,0.3-6.1-2.7-5.5-6
			l7.6-39.6c0.4-2.3-0.8-4.6-2.9-5.6l-36.7-16.6c-3.1-1.4-4-5.4-1.8-8l26.4-30.5c1.5-1.8,1.7-4.4,0.3-6.3L112,214.6
			c-2-2.8-0.7-6.7,2.5-7.8l38.1-13.2c2.2-0.8,3.6-3,3.4-5.3l-4-40.1c-0.3-3.4,2.7-6.1,6-5.5l39.6,7.6c2.3,0.4,4.6-0.8,5.6-2.9
			L219.9,110.6z"/>
		<path class="st0" d="M301.9,224.8l-66.9-34l-34,66.9l22.3,11.3l22.6-44.6l44.6,22.6L301.9,224.8z"/>
	</g>
	<path class="st7" d="M312.6,257.6l-22.3-11.3l-22.6,44.6L223,268.3l-11.3,22.3l66.9,34L312.6,257.6z"/>
</g>
</svg>
