<svg version="1.1" id="Capa_1" xmlns="http://www.w3.org/2000/svg" xmlns:xlink="http://www.w3.org/1999/xlink" x="0px" y="0px"
	 viewBox="0 0 512 512" style="enable-background:new 0 0 512 512;" xml:space="preserve">
<style type="text/css">
	.svg_base{fill:#343434;}
	.svg_accent{fill:#FF5166;}
</style>
<g>
	<path class="svg_base" d="M405.6,119.2h-33.2h-33.2h-33.2v33.2l0,0v33.2h-33.2h-33.2v33.2v33.2h-33.2h-33.2v33.2v33.2h-33.2h-33.2v33.2
		v33.2v33.2h33.2h33.2h33.2h33.2h33.2h33.2h0h33.2h33.2h33.2h33.2v-33.2v-33.2v-33.2v-33.2v-33.2v-33.2v-33.2v0v-33.2l0,0v-33.2
		H405.6z M405.6,185.6L405.6,185.6v33.2v33.2v33.2v33.2v33.2v33.2h-33.2h-33.2h-33.2h0h-33.2h-33.2h-33.2h-33.2h-33.2v-33.2h33.2
		h33.2v-33.2v-33.2h33.2h33.2v-33.2v-33.2h33.2h0h33.2v-33.2v0v-33.2h33.2h33.2V185.6z"/>
	<polygon class="svg_accent" points="172.8,218.9 172.8,252.2 73.2,252.2 73.2,152.4 106.4,152.4 106.4,218.9 			"/>
	<polygon class="svg_accent" points="234.6,117.2 211.2,140.7 187.7,164.2 164.2,187.7 140.6,211.2 117.1,187.7 164.2,140.7 187.7,117.2 
		211.2,93.6"/>
</g>
</svg>
