<svg version="1.1" id="Capa_1" xmlns="http://www.w3.org/2000/svg" xmlns:xlink="http://www.w3.org/1999/xlink" x="0px" y="0px"
	 viewBox="0 0 512 512" style="enable-background:new 0 0 512 512;" xml:space="preserve">
<style type="text/css">
	.svg_base{fill:#343434;}
	.svg_accent{fill:#FF5166;}
</style>
<g>
	<polygon class="svg_base" points="326.5,279.5 303,256 303,256 279.5,232.5 279.5,232.5 256,209 232.5,232.5 209,256 185.5,279.5 
		162,303 138.5,326.5 162,350 185.5,326.5 209,303 232.5,279.5 256,256 279.5,279.5 279.5,279.5 303,303 303,303 326.5,326.5 
		326.5,326.5 350,350 373.5,326.5 350,303 		"/>
	<polygon class="svg_accent" points="279.5,326.5 256,303 232.5,326.5 209,350 209,350 185.5,373.5 209,397 232.5,373.5 256,350 
		279.5,373.5 279.5,373.5 303,397 326.5,373.5 303,350 	"/>
	<polygon class="svg_accent" points="397,256 373.5,232.5 350,209 350,209 326.5,185.5 326.5,185.5 303,162 303,162 279.5,138.5 
		279.5,138.5 256,115 232.5,138.5 232.5,138.5 209,162 185.5,185.5 185.5,185.5 162,209 138.5,232.5 138.5,232.5 115,256 
		91.4,279.5 115,303 138.5,279.5 138.5,279.5 162,256 185.5,232.5 209,209 232.5,185.5 256,162 279.5,185.5 303,209 326.5,232.5 
		326.5,232.5 350,256 350,256 373.5,279.5 373.5,279.5 397,303 420.6,279.5 	"/>
</g>
</svg>
