<svg version="1.1" id="Capa_1" xmlns="http://www.w3.org/2000/svg" xmlns:xlink="http://www.w3.org/1999/xlink" x="0px" y="0px"
	 viewBox="0 0 512 512" style="enable-background:new 0 0 512 512;" xml:space="preserve">
<style type="text/css">
	.svg_base{fill:#343434;}
	.svg_accent{fill:#FF5166;}
</style>
<g>
	<path class="svg_base" d="M438.8,39.9h-33.2h-33.2h-33.2h-33.2h-33.2h-33.2h0h-33.2h-33.2h-33.2h-33.2h0H73.2H39.9v33.2v33.2v33.2v0
		v33.2v0v33.2v0v33.2v33.2v0v33.2v0v33.2v0v33.2v33.2v0v33.2v0v33.2h33.2h33.2h0h33.2h33.2h33.2h33.2h0h33.2h33.2h33.2h33.2h33.2
		h33.2h33.2v-33.2v0v-33.2v0v-33.2v-33.2v0v-33.2v0v-33.2v0v-33.2v-33.2v0v-33.2v0v-33.2v0v-33.2V73.2V39.9H438.8z M206.1,438.8
		h-33.2h-33.2v-33.2v0v-33.2v-33.2v0v-33.2v-33.2v0v-33.2v-33.2h33.2h33.2h33.2v33.2v33.2v0v33.2v0v33.2v0v33.2v33.2v0v33.2H206.1z
		 M339.1,438.8h-33.2h-33.2v-33.2v0v-33.2v-33.2v0v-33.2v0v-33.2v0v-33.2v-33.2h33.2h33.2h33.2v33.2v33.2v0v33.2v0v33.2v0v33.2v33.2
		v0v33.2H339.1z M438.8,106.4v33.2v0v33.2v0v33.2v0v33.2v33.2v0v33.2v0v33.2v0v33.2v33.2v0v33.2h-33.2v-33.2v0v-33.2v-33.2v0v-33.2
		v0v-33.2v0v-33.2v-33.2v0v-33.2h-33.2h-33.2h-33.2h-33.2h-33.2h0h-33.2h-33.2h-33.2h-33.2v33.2v0v33.2v33.2v0v33.2v33.2v0v33.2
		v33.2v0v33.2H73.2v-33.2v0v-33.2v-33.2v0v-33.2v0v-33.2v0v-33.2v-33.2v0v-33.2v0v-33.2v0v-33.2V73.2h33.2h0h33.2h33.2h33.2h33.2h0
		h33.2h33.2h33.2h33.2h33.2h33.2V106.4z"/>
</g>
<rect x="172.9" y="106.4" class="svg_accent" width="33.2" height="33.2"/>
<rect x="239.4" y="106.4" class="svg_accent" width="33.2" height="33.2"/>
<rect x="305.9" y="106.4" class="svg_accent" width="33.2" height="33.2"/>
</svg>
