<svg version="1.1" id="Capa_1" xmlns="http://www.w3.org/2000/svg" xmlns:xlink="http://www.w3.org/1999/xlink" x="0px" y="0px"
	 viewBox="0 0 512 512" style="enable-background:new 0 0 512 512;" xml:space="preserve">
<style type="text/css">
	.st0{fill:#FFFFFF;}
	.st1{fill:#1B1B1A;}
	.st2{fill-rule:evenodd;clip-rule:evenodd;fill:#1B1B1A;}
	.st3{fill:#BDBDBD;}
	.svg-base{fill:url(#SVGID_1_);}
	.st5{fill:#FF5166;}
	.st6{fill:#C5C5C5;}
	.st7{fill:none;}
	.st8{fill-rule:evenodd;clip-rule:evenodd;fill:#FF5166;}
</style>
<g>
	<circle class="st5" cx="256" cy="256" r="172.1"/>
	<g>
		<g>
			<path class="st0" d="M159.6,314h144.9c2,0,3.9,0.9,5.2,2.4l37.5,42.9c4.2,4.8,12.1,1.8,12.1-4.5V173.4c0-3.8-3.1-6.9-6.9-6.9
				H159.6c-3.8,0-6.9,3.1-6.9,6.9v133.8C152.7,310.9,155.8,314,159.6,314z"/>
		</g>
	</g>
	<path class="st5" d="M187.2,207.8h110.2c3.8,0,6.9,3.1,6.9,6.9l0,0c0,3.8-3.1,6.9-6.9,6.9H187.2c-3.8,0-6.9-3.1-6.9-6.9l0,0
		C180.3,210.9,183.4,207.8,187.2,207.8z"/>
	<path class="st5" d="M187.2,235.3h137.7c3.8,0,6.9,3.1,6.9,6.9l0,0c0,3.8-3.1,6.9-6.9,6.9H187.2c-3.8,0-6.9-3.1-6.9-6.9l0,0
		C180.3,238.4,183.4,235.3,187.2,235.3z"/>
	<path class="st5" d="M187.2,262.9h110.2c3.8,0,6.9,3.1,6.9,6.9l0,0c0,3.8-3.1,6.9-6.9,6.9H187.2c-3.8,0-6.9-3.1-6.9-6.9l0,0
		C180.3,266,183.4,262.9,187.2,262.9z"/>
</g>
</svg>
