<?xml version="1.0" encoding="utf-8"?>
<!-- Generator: Adobe Illustrator 27.5.0, SVG Export Plug-In . SVG Version: 6.00 Build 0)  -->
<svg version="1.1" id="Capa_1" xmlns="http://www.w3.org/2000/svg" xmlns:xlink="http://www.w3.org/1999/xlink" x="0px" y="0px"
	 viewBox="0 0 512 512" style="enable-background:new 0 0 512 512;" xml:space="preserve">
<style type="text/css">
	.st0{fill:#FFFFFF;}
	.st1{fill:#1B1B1A;}
	.st2{fill-rule:evenodd;clip-rule:evenodd;fill:#1B1B1A;}
	.st3{fill:#BDBDBD;}
	.st4{fill:url(#SVGID_1_);}
	.st5{fill:#FF5166;}
	.st6{fill:#C5C5C5;}
	.st7{fill:none;}
	.st8{fill-rule:evenodd;clip-rule:evenodd;fill:#FF5166;}
</style>
<g>
	<path class="st5" d="M358.9,286.7L263,206.9c-3.9-3.2-10.2-3.2-14.1,0l-95.8,79.8c-3.9,3.2-7,10-7,15v91.6c0,5,4.1,9.2,9.2,9.2
		h64.1v-91.6c0-10.1,8.2-18.3,18.3-18.3h36.6c10.1,0,18.3,8.2,18.3,18.3l0,91.6h64.1c5,0,9.2-4.1,9.2-9.2v-91.6
		C365.9,296.7,362.7,289.9,358.9,286.7L358.9,286.7z"/>
	<path class="st5" d="M347.6,180.7v-43.8c0-5-4.1-9.2-9.2-9.2h-18.3c-5,0-9.2,4.1-9.2,9.2v12.4l-40-34.3c-8.6-7.3-21.2-7.3-29.8,0
		L112.9,224.9l29.8,34.8l106.5-91.3c0,0,2.8-2.8,6.8-2.8c4,0,6.9,3,6.9,3l106.4,91.2l29.8-34.8L347.6,180.7z"/>
</g>
</svg>
