<svg width="372" height="503" viewBox="0 0 372 503" fill="none" xmlns="http://www.w3.org/2000/svg">
<path d="M195.706 -1.76132C196.257 -2.97864 197.824 -3.32308 198.835 -2.44917L260.393 50.7601C261.092 51.3646 262.115 51.4111 262.866 50.8726L329.001 3.47188C330.087 2.69336 331.616 3.17868 332.055 4.44102L358.761 81.3006C359.064 82.1737 359.926 82.7252 360.846 82.6345L441.821 74.6516C443.151 74.5204 444.233 75.7055 443.981 77.018L428.68 156.933C428.506 157.841 428.977 158.75 429.819 159.131L503.936 192.705C505.153 193.257 505.498 194.824 504.624 195.835L451.415 257.393C450.81 258.092 450.764 259.115 451.302 259.866L498.703 326C499.481 327.087 498.996 328.616 497.734 329.055L420.874 355.761C420.001 356.064 419.45 356.926 419.54 357.846L427.523 438.821C427.655 440.151 426.469 441.233 425.157 440.981L345.242 425.68C344.334 425.506 343.425 425.977 343.044 426.819L309.47 500.936C308.919 502.154 307.351 502.498 306.34 501.624L244.783 448.415C244.083 447.81 243.061 447.764 242.31 448.302L176.175 495.703C175.089 496.482 173.559 495.996 173.121 494.734L146.415 417.874C146.111 417.001 145.249 416.45 144.329 416.54L63.3549 424.523C62.025 424.655 60.943 423.47 61.1944 422.157L76.4959 342.242C76.6698 341.334 76.1988 340.425 75.3569 340.044L1.23948 306.47C0.0221666 305.918 -0.32228 304.351 0.551629 303.34L53.7608 241.782C54.3653 241.083 54.4118 240.06 53.8733 239.309L6.47267 173.175C5.69415 172.088 6.17947 170.559 7.44182 170.12L84.3012 143.414C85.1744 143.111 85.7258 142.249 85.6352 141.329L77.6522 60.3542C77.5211 59.0243 78.7061 57.9423 80.0187 58.1937L159.934 73.4953C160.842 73.6691 161.75 73.1982 162.132 72.3562L195.706 -1.76132Z" fill="url(#paint0_linear_17_1041)"/>
<path d="M182.404 272.516C182.955 271.298 184.522 270.954 185.533 271.828L197.504 282.176C198.204 282.78 199.226 282.827 199.977 282.288L212.839 273.07C213.925 272.292 215.454 272.777 215.893 274.039L221.086 288.986C221.39 289.859 222.252 290.411 223.172 290.32L238.919 288.768C240.249 288.636 241.331 289.821 241.08 291.134L238.104 306.675C237.93 307.583 238.401 308.492 239.243 308.873L253.657 315.402C254.874 315.954 255.218 317.521 254.344 318.532L243.997 330.503C243.392 331.202 243.346 332.225 243.884 332.976L253.102 345.837C253.881 346.924 253.396 348.453 252.133 348.892L237.186 354.085C236.313 354.389 235.762 355.251 235.852 356.171L237.405 371.918C237.536 373.248 236.351 374.33 235.038 374.078L219.497 371.103C218.589 370.929 217.681 371.4 217.299 372.242L210.77 386.655C210.219 387.873 208.652 388.217 207.64 387.343L195.669 376.996C194.97 376.391 193.948 376.345 193.196 376.883L180.335 386.101C179.249 386.88 177.719 386.394 177.281 385.132L172.087 370.185C171.784 369.312 170.922 368.761 170.002 368.851L154.255 370.404C152.925 370.535 151.843 369.35 152.094 368.037L155.07 352.496C155.244 351.588 154.773 350.679 153.931 350.298L139.517 343.769C138.3 343.218 137.955 341.65 138.829 340.639L149.177 328.668C149.781 327.969 149.828 326.946 149.289 326.195L140.071 313.334C139.293 312.248 139.778 310.718 141.041 310.28L155.987 305.086C156.861 304.783 157.412 303.92 157.321 303.001L155.769 287.253C155.638 285.923 156.823 284.842 158.135 285.093L173.677 288.069C174.584 288.242 175.493 287.771 175.874 286.929L182.404 272.516Z" fill="#30363B"/>
<path d="M207.432 335.686L209.19 342.916C210.261 347.321 209.998 350.98 208.4 353.893C206.843 356.741 203.965 358.676 199.767 359.696C195.569 360.717 192.099 360.325 189.355 358.522C186.651 356.655 184.763 353.519 183.692 349.114L176.814 320.818C175.743 316.413 175.987 312.786 177.545 309.937C179.142 307.024 182.039 305.058 186.237 304.037C190.435 303.017 193.886 303.44 196.59 305.308C199.333 307.111 201.241 310.215 202.311 314.62L203.596 319.906L195.512 321.871L194.095 316.041C193.616 314.071 192.867 312.799 191.849 312.223C190.87 311.583 189.707 311.427 188.36 311.754C187.012 312.082 186.025 312.761 185.397 313.792C184.809 314.758 184.754 316.226 185.233 318.195L192.376 347.579C192.854 349.549 193.577 350.827 194.543 351.416C195.561 351.992 196.744 352.116 198.092 351.788C199.439 351.461 200.407 350.814 200.995 349.847C201.636 348.868 201.716 347.394 201.238 345.425L199.348 337.651L207.432 335.686Z" fill="#00BFB2"/>
<path d="M223.79 344.471L225.793 352.711L217.553 354.714L215.55 346.474L223.79 344.471Z" fill="#FCFCFC"/>
<defs>
<linearGradient id="paint0_linear_17_1041" x1="47.5005" y1="250" x2="296.001" y2="442.5" gradientUnits="userSpaceOnUse">
<stop stop-color="#F4F4F4"/>
<stop offset="1" stop-color="#F4F4F4" stop-opacity="0"/>
</linearGradient>
</defs>
</svg>
    