<svg version="1.1" id="Capa_1" xmlns="http://www.w3.org/2000/svg" xmlns:xlink="http://www.w3.org/1999/xlink" x="0px" y="0px"
	 viewBox="0 0 512 512" style="enable-background:new 0 0 512 512;" xml:space="preserve">
<style type="text/css">
	.st0{fill:none;}
</style>
<g>
	<path class="st0" d="M246.1,399.6c23.7-8.6,48.2-17.5,82.4-21.8c28.1-3.5,57-3,86.6,1.4V91.3H223.4v316.3
		C231,405.1,238.5,402.4,246.1,399.6z M360.1,126.9h25v44.8h-25V126.9z M360.1,205h25v44.8h-25V205z M360.1,283.1h25v44.8h-25V283.1
		z M307.4,126.9h25v44.8h-25V126.9z M307.4,205h25v44.8h-25V205z M307.4,283.1h25v44.8h-25V283.1z M254.6,126.9h25v44.8h-25V126.9z
		 M254.6,205h25v44.8h-25V205z M254.6,283.1h25v44.8h-25V283.1z"/>
	<path class="st0" d="M163.6,419.9c12.8-1,24.2-2.8,34.7-5.2v-44.3h-71v-25h71v-31.7h-71v-25h71V257h-71v-25h71v-31.1h-75.7
		c-13.9,0-25.2,11.3-25.2,25.2v190.5C119.7,420.5,141.8,421.6,163.6,419.9z"/>
	<path d="M440.1,383.9V66.3H198.4v109.6h-75.7c-27.7,0-50.2,22.5-50.2,50.2v185c-11.9-3.2-23.8-7.1-35.7-11.9l-9.3,23.2
		c38.8,15.5,77.8,23.3,116.3,23.3c7.3,0,14.5-0.3,21.8-0.8c37.3-2.9,63.6-12.4,89-21.7c22.4-8.1,45.5-16.6,77-20.5
		c45.9-5.7,94.6,0.2,144.8,17.6l8.2-23.6C469.6,391.4,454.8,387.2,440.1,383.9z M415.1,91.3v287.9c-29.6-4.4-58.5-4.9-86.6-1.4
		c-34.2,4.3-58.7,13.2-82.4,21.8c-7.6,2.8-15,5.5-22.7,8V91.3H415.1z M97.4,226.1c0-13.9,11.3-25.2,25.2-25.2h75.7V232h-71v25h71
		v31.7h-71v25h71v31.7h-71v25h71v44.3c-10.5,2.4-21.9,4.3-34.7,5.2c-21.8,1.7-44,0.6-66.2-3.3V226.1z"/>
	<rect x="254.6" y="126.9" width="25" height="44.8"/>
	<rect x="307.4" y="126.9" width="25" height="44.8"/>
	<rect x="360.1" y="126.9" width="25" height="44.8"/>
	<rect x="254.6" y="205" width="25" height="44.8"/>
	<rect x="307.4" y="205" width="25" height="44.8"/>
	<rect x="360.1" y="205" width="25" height="44.8"/>
	<rect x="254.6" y="283.1" width="25" height="44.8"/>
	<rect x="307.4" y="283.1" width="25" height="44.8"/>
	<rect x="360.1" y="283.1" width="25" height="44.8"/>
</g>
</svg>
