<svg version="1.1" id="Capa_1" xmlns="http://www.w3.org/2000/svg" xmlns:xlink="http://www.w3.org/1999/xlink" x="0px" y="0px"
	 viewBox="0 0 512 512" style="enable-background:new 0 0 512 512;" xml:space="preserve">
<g>
	<path d="M265,198.8c36.7,0,66.5-29.8,66.5-66.5c0-36.7-29.8-66.5-66.5-66.5s-66.5,29.8-66.5,66.5
		C198.5,168.9,228.3,198.8,265,198.8z M265,90.7c22.9,0,41.5,18.6,41.5,41.5c0,22.9-18.6,41.5-41.5,41.5s-41.5-18.6-41.5-41.5
		C223.5,109.3,242.1,90.7,265,90.7z"/>
	<path d="M265,222.6v25c37.7,0,68.3,30.6,68.3,68.3v117.9h25V315.9C358.3,264.4,316.4,222.6,265,222.6z"/>
	<path d="M171.7,315.9v28.5c0,39.7-23.1,80.8-23.3,81.2l21.7,12.4c1.1-1.9,26.6-47.2,26.6-93.6v-28.5c0-37.6,30.6-68.3,68.3-68.3h0
		l0-25C213.5,222.6,171.7,264.4,171.7,315.9z"/>
	<path d="M396.8,207.1c29.3,0,53.2-23.9,53.2-53.2c0-29.3-23.9-53.2-53.2-53.2s-53.2,23.9-53.2,53.2
		C343.6,183.3,367.5,207.1,396.8,207.1z M396.8,125.8c15.5,0,28.2,12.6,28.2,28.2c0,15.5-12.6,28.2-28.2,28.2s-28.2-12.6-28.2-28.2
		C368.6,138.4,381.2,125.8,396.8,125.8z"/>
	<path d="M396.8,224.9c-33.2,0-45.3,10.1-51.8,15.5l16,19.2c4.6-3.9,11.6-9.7,35.9-9.7c26.7,0,48.3,21.7,48.3,48.3V387h25v-88.8
		C470.1,257.8,437.2,224.9,396.8,224.9z"/>
	<polygon points="175.4,182.9 175.4,157.9 127.4,157.9 127.4,109.9 102.4,109.9 102.4,157.9 54.4,157.9 54.4,182.9 102.4,182.9 
		102.4,230.9 127.4,230.9 127.4,182.9 	"/>
</g>
</svg>
