<?xml version="1.0" encoding="utf-8"?>
<!-- Generator: Adobe Illustrator 28.2.0, SVG Export Plug-In . SVG Version: 6.00 Build 0)  -->
<svg version="1.1" id="Capa_1" xmlns="http://www.w3.org/2000/svg" xmlns:xlink="http://www.w3.org/1999/xlink" x="0px" y="0px"
	 viewBox="0 0 383 382" style="enable-background:new 0 0 383 382;" xml:space="preserve">
<g>
	<g>
		<path d="M37.1,122.2c-0.6,1.2-1.4,1.9-2.6,2.4c-1.1,0.4-2.3,0.3-3.5-0.3c-1.3-0.6-2.1-1.5-2.4-2.6c-0.4-1.2-0.3-2.3,0.3-3.5
			c0.6-1.2,1.4-1.9,2.5-2.3c1.1-0.4,2.3-0.3,3.6,0.3c1.2,0.6,2,1.5,2.4,2.6C37.7,119.9,37.6,121.1,37.1,122.2z"/>
		<path d="M76.6,91.2c-1.9,2.3-4,4.1-6.4,5.3c-2.3,1.3-4.8,2.1-7.4,2.3c-2.6,0.3-5.1,0-7.6-0.7c-2.5-0.7-4.8-2-7.1-3.9
			c-2.2-1.9-3.9-3.9-5.1-6.3c-1.2-2.3-1.8-4.8-2-7.4c-0.2-2.6,0.2-5.1,1-7.7c0.9-2.5,2.2-4.9,4.1-7.2c2-2.4,4.3-4.3,6.8-5.6
			c2.5-1.3,5.1-2,7.9-2l0.4,6.3c-2.1,0.1-3.9,0.6-5.6,1.5c-1.7,0.8-3.2,2-4.4,3.5c-1.3,1.5-2.2,3.2-2.8,4.9
			c-0.6,1.7-0.8,3.4-0.6,5.1c0.1,1.7,0.6,3.4,1.4,5c0.8,1.6,2,3,3.5,4.3c1.5,1.3,3.1,2.2,4.8,2.7c1.7,0.5,3.4,0.7,5.1,0.5
			c1.7-0.2,3.4-0.7,4.9-1.5c1.6-0.9,3-2.1,4.3-3.6c1.3-1.5,2.2-3.2,2.7-5c0.5-1.8,0.7-3.7,0.4-5.8l6.3-0.8c0.5,2.7,0.3,5.5-0.5,8.2
			C80.1,86.2,78.7,88.8,76.6,91.2z"/>
		<path d="M112.7,60.9c-2.5,1.5-5.2,2.5-7.8,3c-2.7,0.5-5.3,0.4-7.8-0.1c-2.5-0.6-4.9-1.6-7-3.1c-2.1-1.5-3.9-3.5-5.4-5.9
			c-1.5-2.4-2.4-5-2.8-7.5c-0.4-2.6-0.2-5.1,0.5-7.6s1.8-4.8,3.5-7c1.7-2.2,3.8-4,6.3-5.6c2.5-1.5,5.1-2.5,7.8-3
			c2.7-0.5,5.2-0.4,7.7,0.1c2.5,0.6,4.8,1.6,7,3.1c2.1,1.5,3.9,3.5,5.4,6c1.5,2.4,2.4,5,2.8,7.5c0.4,2.6,0.2,5.1-0.4,7.6
			c-0.7,2.5-1.8,4.8-3.5,7C117.3,57.5,115.2,59.4,112.7,60.9z M109.4,55.5c1.7-1,3-2.2,4.1-3.6c1.1-1.4,1.8-2.9,2.2-4.6
			c0.4-1.7,0.5-3.4,0.2-5.1c-0.3-1.8-0.9-3.5-2-5.2c-1-1.7-2.2-3.1-3.7-4.1c-1.4-1.1-3-1.8-4.6-2.2c-1.7-0.4-3.4-0.5-5.1-0.2
			c-1.7,0.3-3.4,0.9-5.1,1.9c-1.7,1-3,2.2-4.1,3.7c-1.1,1.4-1.8,3-2.2,4.7c-0.4,1.7-0.5,3.4-0.2,5.1c0.3,1.8,0.9,3.5,1.9,5.2
			c1,1.7,2.2,3,3.7,4.1c1.5,1,3,1.8,4.7,2.2s3.4,0.5,5.2,0.2C106.1,57.2,107.8,56.5,109.4,55.5z"/>
		<path d="M152.7,43.4l-7.4-31.6l-12.4,2.9l-1.4-5.9l31.8-7.5l1.4,5.9l-12.4,2.9l7.4,31.6L152.7,43.4z"/>
		<path d="M203.4,39.5c-3-0.2-5.7-0.9-8.1-2.1c-2.5-1.2-4.6-2.8-6.3-4.7c-1.7-1.9-3-4.1-3.8-6.6c-0.8-2.5-1.1-5.1-0.9-7.9
			c0.2-2.8,0.9-5.4,2.2-7.7c1.2-2.3,2.8-4.3,4.8-5.9c2-1.6,4.3-2.8,6.9-3.6c2.6-0.8,5.4-1.1,8.4-0.8c3,0.2,5.7,0.9,8.1,2.1
			c2.4,1.2,4.5,2.7,6.2,4.6c1.7,1.9,3,4.1,3.8,6.6c0.8,2.5,1.1,5.2,0.9,8s-0.9,5.4-2.2,7.7c-1.2,2.3-2.8,4.3-4.8,5.9
			c-2,1.6-4.3,2.8-6.9,3.6C209.2,39.5,206.4,39.8,203.4,39.5z M203.9,33.3c1.9,0.2,3.7,0,5.4-0.6c1.7-0.5,3.2-1.3,4.5-2.5
			c1.3-1.1,2.4-2.5,3.2-4s1.3-3.4,1.4-5.3c0.2-2,0-3.8-0.6-5.5c-0.5-1.7-1.4-3.2-2.5-4.5c-1.1-1.3-2.5-2.3-4-3.1
			c-1.6-0.8-3.3-1.3-5.3-1.4c-1.9-0.2-3.8,0-5.5,0.6s-3.2,1.4-4.5,2.5c-1.3,1.1-2.4,2.5-3.2,4c-0.8,1.6-1.3,3.3-1.5,5.3
			c-0.2,1.9,0.1,3.8,0.6,5.5c0.6,1.7,1.4,3.2,2.5,4.5c1.1,1.3,2.5,2.4,4.1,3.2C200.2,32.7,202,33.1,203.9,33.3z"/>
		<path d="M245.8,47.6l6.4-40l6.6,3.4l-5.9,36.1l-3.3-1.7l26.5-25.5l5.9,3l-5.8,36.2l-3.2-1.6l26.4-25.5l6,3.1l-29,28.3l-6.7-3.5
			l5.1-32.7l1.8,0.9l-23.9,23L245.8,47.6z"/>
		<path d="M296.6,79.6l29.4-24.8l3.8,4.5l-7.2,37.6l-1.9-2.2l22.7-19.1L348,81l-29.4,24.8l-3.8-4.5l7.2-37.5l1.9,2.2l-22.7,19.1
			L296.6,79.6z"/>
		<path d="M341.3,123.7c-0.5-1.2-0.6-2.3-0.2-3.5c0.4-1.2,1.2-2,2.4-2.6c1.3-0.6,2.5-0.7,3.6-0.2c1.1,0.4,2,1.2,2.5,2.4
			c0.5,1.2,0.6,2.3,0.2,3.4c-0.4,1.1-1.2,2-2.5,2.6c-1.2,0.6-2.4,0.7-3.5,0.3C342.7,125.7,341.9,124.9,341.3,123.7z"/>
	</g>
	<g>
		<path d="M3.7,153l1.2-7l37.9,6.5l-4.7,27.7l-6-1l3.5-20.6L3.7,153z M24.3,156L21,174.9l-5.8-1l3.2-18.9L24.3,156z"/>
		<path d="M6.9,208.3l2.8,21.5l-6,0.8L0,202l38.2-4.9l3.6,27.9l-6,0.8L33.1,205L6.9,208.3z M23.1,205.7l2.4,19l-5.8,0.7l-2.4-19
			L23.1,205.7z"/>
		<path d="M20.7,262.9l9.2,19.7l-5.5,2.5L12.2,259l34.9-16.2L59,268.2l-5.5,2.5l-8.8-19L20.7,262.9z M35.4,255.5l8.1,17.3l-5.3,2.5
			l-8.1-17.3L35.4,255.5z"/>
		<path d="M41,309.1l28.7-25.6l4.8,5.3l-24.2,21.6l13.4,15l-4.5,4L41,309.1z"/>
		<path d="M79.2,345.3l22-31.6l5.9,4.1l-22,31.6L79.2,345.3z"/>
		<path d="M111.9,365.2l12.7-36.3l5.6,1.9l13,36l-2.7-1l9.8-28l6.6,2.3l-12.7,36.3l-5.6-1.9l-12.9-36l2.8,1l-9.8,28L111.9,365.2z"/>
		<path d="M194.4,382c-3,0-5.8-0.5-8.3-1.5c-2.5-1-4.7-2.4-6.6-4.1c-1.9-1.8-3.3-3.9-4.3-6.3c-1-2.4-1.5-5-1.5-7.9
			c0-2.9,0.5-5.5,1.5-7.9c1-2.4,2.5-4.5,4.4-6.3c1.9-1.8,4.1-3.2,6.6-4.2c2.5-1,5.3-1.5,8.4-1.5c3.2,0,6.1,0.5,8.8,1.6
			c2.6,1.1,4.8,2.6,6.6,4.7l-4.5,4.4c-1.5-1.5-3.1-2.6-4.9-3.3c-1.7-0.7-3.7-1.1-5.7-1.1c-2.1,0-3.9,0.3-5.6,1
			c-1.7,0.7-3.2,1.6-4.4,2.8c-1.2,1.2-2.2,2.6-2.9,4.3c-0.7,1.7-1,3.5-1,5.4c0,1.9,0.3,3.7,1,5.4c0.7,1.7,1.7,3.1,2.9,4.3
			c1.2,1.2,2.7,2.1,4.4,2.8c1.7,0.7,3.6,1,5.6,1c1.9,0,3.7-0.3,5.5-0.9c1.8-0.6,3.5-1.6,5.1-3l4,5.3c-2,1.6-4.3,2.8-6.9,3.7
			C199.8,381.6,197.1,382,194.4,382z M202.7,376.2l0-14.3l6.7,0l0,15.3L202.7,376.2z"/>
		<path d="M271.8,364l-18.3-33.9l6.3-3.4l15.4,28.5l17.7-9.6l2.9,5.3L271.8,364z"/>
		<path d="M330.1,322.2c-2,2.2-4.3,3.8-6.8,5c-2.5,1.2-5,1.8-7.6,1.9c-2.6,0.1-5.1-0.3-7.5-1.2c-2.4-0.9-4.7-2.3-6.7-4.3
			c-2.1-2-3.6-4.1-4.7-6.5c-1-2.4-1.6-4.9-1.6-7.5c0-2.6,0.5-5.1,1.5-7.6c1-2.5,2.6-4.9,4.6-7c2-2.2,4.3-3.8,6.7-5
			c2.4-1.2,4.9-1.8,7.5-1.9c2.6-0.1,5.1,0.3,7.5,1.2c2.5,0.9,4.7,2.4,6.8,4.3c2.1,2,3.6,4.1,4.7,6.5c1,2.4,1.6,4.9,1.6,7.5
			c0,2.6-0.5,5.1-1.5,7.6C333.6,317.7,332.1,320.1,330.1,322.2z M325.5,317.9c1.3-1.4,2.3-2.9,3-4.6c0.6-1.6,0.9-3.3,0.9-5
			c0-1.7-0.4-3.4-1.2-5c-0.7-1.6-1.8-3.1-3.3-4.5c-1.4-1.4-3-2.4-4.6-3s-3.3-1-5.1-0.9c-1.7,0.1-3.4,0.5-5,1.2
			c-1.6,0.7-3.1,1.8-4.4,3.2c-1.3,1.4-2.3,2.9-3,4.6c-0.7,1.7-1,3.4-0.9,5.1c0.1,1.7,0.4,3.4,1.1,5c0.7,1.6,1.8,3.1,3.2,4.5
			c1.4,1.3,3,2.3,4.6,2.9c1.7,0.6,3.4,0.9,5.1,0.9c1.7,0,3.4-0.4,5-1.2C322.7,320.4,324.2,319.3,325.5,317.9z"/>
		<path d="M367.4,265.2c-1.2,2.7-2.7,5-4.6,6.9c-1.9,1.9-4,3.3-6.4,4.3c-2.4,1-4.9,1.4-7.5,1.4c-2.6,0-5.2-0.6-7.9-1.8
			c-2.6-1.2-4.9-2.7-6.6-4.6c-1.8-1.9-3.1-4.1-4-6.5c-0.9-2.4-1.3-5-1.1-7.7c0.1-2.7,0.8-5.4,2-8.1c1.3-2.9,2.9-5.3,5-7.2
			c2-1.9,4.4-3.3,7.1-4.1l2.1,6c-2,0.7-3.6,1.7-5,3c-1.4,1.3-2.5,2.8-3.3,4.6c-0.8,1.8-1.3,3.7-1.3,5.5c-0.1,1.8,0.2,3.5,0.8,5.1
			c0.6,1.6,1.5,3.1,2.8,4.4c1.2,1.3,2.7,2.4,4.6,3.2c1.8,0.8,3.6,1.2,5.4,1.2c1.8,0,3.5-0.3,5.1-0.9c1.6-0.6,3-1.6,4.3-2.8
			c1.3-1.3,2.3-2.8,3.1-4.7c0.8-1.8,1.2-3.7,1.2-5.5c0-1.9-0.4-3.8-1.2-5.7l5.8-2.5c1.2,2.5,1.8,5.2,1.8,8
			C369.4,259.4,368.7,262.3,367.4,265.2z"/>
		<path d="M379.2,229.2l-36.7-20.8l0.6-7l39.9-13.7l-0.7,7.5l-35.9,11.6l0.3-2.8l33.2,18L379.2,229.2z M371.1,220.4l-5.4-2.5
			l1.9-20.6l5.8-1.4L371.1,220.4z"/>
		<path d="M380,161.2l-37.6,8.1l-1.5-7l31.7-6.8l-4.2-19.7l5.9-1.3L380,161.2z"/>
	</g>
</g>
</svg>
