<svg width="29" height="24" viewBox="0 0 29 24" fill="none" xmlns="http://www.w3.org/2000/svg">
<g id="Icon / llaves" clip-path="url(#clip0_1319_67100)">
<path id="Vector" d="M26.0105 4.67993C25.2324 1.44156 21.8373 -0.581698 18.4186 0.15086C16.727 0.517139 15.2652 1.52295 14.3751 2.93574C14.2278 3.20319 13.939 3.3776 13.6207 3.38923H9.84241C9.34139 3.38923 8.93468 3.77295 8.93468 4.2497C8.93468 4.72644 9.34139 5.11016 9.84241 5.11016H13.5853C14.5461 5.09272 15.4302 4.59853 15.9077 3.80202C17.1572 1.7497 19.9276 1.04621 22.0967 2.23226C24.2658 3.4183 25.0085 6.04621 23.753 8.09853C22.5034 10.1509 19.7331 10.8543 17.564 9.6683C16.8743 9.29039 16.3026 8.7497 15.9077 8.09853C15.4361 7.31365 14.552 6.83109 13.5971 6.82528H8.94058C8.43956 6.82528 8.31578 7.05784 7.13103 8.19156L5.96395 7.07528C5.61029 6.73807 5.03855 6.73807 4.68489 7.07528L3.61802 8.09853L1.99708 6.04621L2.98733 5.11016H6.24099C6.742 5.11016 7.14871 4.72644 7.14871 4.2497C7.14871 3.77295 6.742 3.38923 6.24099 3.38923H2.61599C2.12676 3.38923 2.09729 3.51714 0.158059 5.35435C-0.160234 5.65667 -0.1956 6.13923 0.0755385 6.47644L2.79281 9.91249C3.09342 10.2904 3.65928 10.3718 4.06009 10.0869C4.09546 10.0637 4.13082 10.0346 4.16029 10.0055L5.32737 8.88923L6.49444 10.0055C6.8481 10.3427 7.41985 10.3427 7.77351 10.0055L9.31192 8.53458H13.5971C13.9036 8.55202 14.1806 8.72063 14.3339 8.97063C16.0963 11.8369 19.9806 12.8078 23.0103 11.1334C25.3798 9.82528 26.594 7.21481 26.0164 4.67412L26.0105 4.67993Z" fill="#FF5166"/>
<path id="Vector_2" d="M16.1846 13.6973H8.93455C5.93435 13.6973 3.5 16.0054 3.5 18.8484C3.5 21.6915 5.93435 23.9996 8.93455 23.9996H16.1846C19.1848 23.9996 21.6191 21.6915 21.6191 18.8484C21.6191 16.0054 19.1848 13.6973 16.1846 13.6973ZM16.1846 22.2845H8.93455C6.93049 22.2845 5.30955 20.7438 5.30955 18.8484C5.30955 16.9531 6.93049 15.4124 8.93455 15.4124H16.1846C18.1886 15.4124 19.8096 16.9473 19.8096 18.8484C19.8096 20.7496 18.1886 22.2845 16.1846 22.2845Z" fill="#FF5166"/>
<path id="Vector_3" d="M21.6264 4.25C22.6285 4.25 23.436 5.01744 23.436 5.96512C23.436 6.91279 22.6226 7.68023 21.6264 7.68023C20.6303 7.68023 19.8169 6.91279 19.8169 5.96512C19.8169 5.01744 20.6303 4.25 21.6264 4.25Z" fill="#FF5166"/>
<path id="Vector_4" d="M23.4324 19.7091H18.8997C18.3987 19.7091 17.9919 19.3254 17.9919 18.8487C17.9919 18.3719 18.3987 17.9882 18.8997 17.9882H23.4324C25.4365 17.9882 27.0574 16.4475 27.0574 14.5522V10.2615C27.0574 8.36612 25.4365 6.82542 23.4324 6.82542H22.5247C22.0237 6.82542 21.6169 6.4417 21.6169 5.96496C21.6169 5.48821 22.0237 5.10449 22.5247 5.10449H23.4324C26.4326 5.10449 28.8669 7.41263 28.8669 10.2557V14.5464C28.8669 17.3894 26.4326 19.6975 23.4324 19.6975" fill="#FF5166"/>
</g>
<defs>
<clipPath id="clip0_1319_67100">
<rect width="29" height="24" fill="white"/>
</clipPath>
</defs>
</svg>
