<svg version="1.1" id="Capa_1" xmlns="http://www.w3.org/2000/svg" xmlns:xlink="http://www.w3.org/1999/xlink" x="0px" y="0px"
	 viewBox="0 0 512 512" style="enable-background:new 0 0 512 512;" xml:space="preserve">
<style type="text/css">
	.svg_base{fill:#343434;}
	.svg_accent{fill:#FF5166;}
</style>
<g>
	<path class="svg_base" d="M391.6,176.7h9.7c-4.6,7.8-13.2,13.1-23,13.1c-14.6,0-26.6-11.8-26.6-26.3s12-26.3,26.6-26.3
		c9.8,0,18.4,5.3,23,13.1h-9.8c-7.4,0-13.3,5.9-13.3,13.2C378.3,170.8,384.3,176.7,391.6,176.7z"/>
	<path class="svg_base" d="M440.8,190.4c-6.8,21.5-21.4,40.5-42.1,52.4c-44.5,25.7-101.6,10.8-127.5-33.2c-2.2-3.8-6.3-6.4-10.8-6.7h-63
		l-22.6,22.5c-5.2,5.2-13.6,5.2-18.8,0l-17.1-17.1l-17.2,17.1c-0.4,0.5-0.9,0.9-1.5,1.2c-5.9,4.4-14.2,3.1-18.6-2.7l-39.9-52.7
		c-4-5.2-3.5-12.6,1.2-17.2c28.5-28.2,28.9-30.1,36.1-30.1h53.2c7.4,0,13.3,5.9,13.3,13.2s-6,13.2-13.3,13.2h-47.8l-14.5,14.4
		l23.8,31.5l15.7-15.7c5.2-5.2,13.6-5.2,18.8,0l17.1,17.1c17.4-17.4,19.2-21,26.6-21h68.4c14,0.1,27,7.5,33.9,19.5
		c5.8,10,14.2,18.3,24.3,24.1c31.9,18.2,72.6,7.4,90.9-24.1c3.4-5.8,5.8-12,7.3-18.2C426,180,434.1,184.4,440.8,190.4z"/>
	<path class="svg_base" d="M444.9,160.9c-8.3-4.8-17.6-8.1-27.5-9.7c-3.4-18.3-14.6-35-32.2-45c-31.9-18.2-72.6-7.4-90.9,24.1
		c-7,12.2-20,19.8-34.1,20.1h-55c-7.4,0-13.3-5.9-13.3-13.2s6-13.2,13.3-13.2h55.5c4.7-0.2,8.9-2.9,11.1-7
		c13.1-21.7,34.5-37.1,59.4-42.7c50.2-11.2,100.1,19.8,111.5,69.4l0.1-0.1C444.1,149.4,444.8,155.2,444.9,160.9z"/>
	<path class="svg_base" d="M298.5,413.7H192c-29.4,0-53.3-23.6-53.3-52.7s23.8-52.7,53.3-52.7h106.5c24.8,0,45.7,16.8,51.6,39.5h27.1
		c-6.4-37.3-39.2-65.8-78.7-65.8H192c-44.1,0-79.8,35.4-79.8,79s35.8,79,79.8,79h106.5c39.5,0,72.4-28.5,78.7-65.8h-27.1
		C344.1,396.9,323.3,413.7,298.5,413.7z"/>
	<path class="svg_accent" d="M484.8,229.3V295c0,43.6-35.8,79-79.8,79v0.2h-66.6c-7.4,0-13.3-5.9-13.3-13.2c0-7.3,6-13.2,13.3-13.2H405
		c29.4,0,53.2-23.6,53.2-52.7v-65.8c0-15.4-6.7-29.3-17.4-39c-6.6-6-14.8-10.3-23.9-12.4c-3.9-0.9-7.9-1.3-12-1.3h-13.3
		c-7.4,0-13.3-5.9-13.3-13.2s6-13.2,13.3-13.2h13.3c4.3,0,8.4,0.3,12.5,1c9.9,1.5,19.1,4.9,27.5,9.7
		C468.8,174.6,484.8,200.1,484.8,229.3z"/>
</g>
</svg>
