<svg version="1.1" id="Capa_1" xmlns="http://www.w3.org/2000/svg" xmlns:xlink="http://www.w3.org/1999/xlink" x="0px" y="0px"
	 viewBox="0 0 512 512" style="enable-background:new 0 0 512 512;" xml:space="preserve">
<style type="text/css">
	.svg_base{fill:#343434;}
	.svg_accent{fill:#FF5166;}
</style>
<g>
	<path class="svg_accent" d="M461.9,361.7v25c0,3.6-3,6.5-6.7,6.5c-3.7,0-6.7-2.9-6.7-6.5v-25c0-11.6-4.5-22.8-12.5-30.9
		c-7.9-8.1-18.7-12.6-29.8-12.6h-98c-2.9,0-5.1-0.3-7-0.6c-4.2-4.1-8.9-7.6-13.9-10.5c5.6-2.8,10.8-2,20.9-2h98
		c14.9,0,29.1,6.1,39.5,16.7C456.1,332.4,461.9,346.8,461.9,361.7z"/>
	<path class="svg_base" d="M187.4,248c40.7,0,73-34.2,73-75.5c0-41.3-32.3-75.5-73-75.5s-73,34.2-73,75.5
		C114.4,213.8,146.6,248,187.4,248z M187.4,114.5c30.2,0,55.5,25.6,55.5,58.1c0,32.5-25.2,58.1-55.5,58.1
		c-30.2,0-55.5-25.6-55.5-58.1C131.9,140.1,157.1,114.5,187.4,114.5z"/>
	<path class="svg_base" d="M303.4,319.6c-0.7-0.7-1.4-1.4-2.1-2.1c-4.2-4.1-8.9-7.6-13.9-10.5c-10.8-6.3-23.1-9.7-35.8-9.7H123.1
		c-19.5,0-38.1,8.1-51.8,22.2c-13.6,14.2-21.2,33.3-21.2,53.2v33.4c0,4.8,3.9,8.7,8.8,8.7c4.9,0,8.8-3.9,8.8-8.7v-33.4
		c0-15.5,5.9-30.4,16.4-41.2c10.4-10.9,24.5-16.9,39.1-16.9h128.5c14.6,0,28.6,6,39.1,16.9c10.4,10.9,16.4,25.7,16.4,41.2v33.4
		c0,4.8,3.9,8.7,8.8,8.7c4.9,0,8.8-3.9,8.8-8.7v-33.4C324.6,353,317,333.8,303.4,319.6z"/>
	<path class="svg_accent" d="M357.2,154.9c-31,0-55.7,25.6-55.7,56.6c0,31,24.6,56.6,55.7,56.6s55.7-25.6,55.7-56.6
		C412.9,180.5,388.3,154.9,357.2,154.9z M315,211.5c0-24.4,19.2-43.6,42.3-43.6c23.1,0,42.3,19.2,42.3,43.6
		c0,24.4-19.2,43.6-42.3,43.6C334.2,255,315,235.8,315,211.5z"/>
</g>
</svg>
