<svg width="374" height="150" viewBox="0 0 374 150" fill="none" xmlns="http://www.w3.org/2000/svg">
<path class="svg_base" d="M47.974 121.71H35.8797L22.8086 24.248H35.3201L42.1355 93.3269L49.7788 24.248H61.3167L47.974 121.71Z" fill="white"/>
<path class="svg_base" d="M80.9574 90.9846L77.3377 49.1266L73.3637 86.4857L72.8835 90.9846L71.496 102.845L69.3996 121.717H58.2891L70.6515 24.2549H84.0008L96.3798 121.717H83.8684L82.2126 102.845L80.9574 90.9846Z" fill="white"/>
<path class="svg_base" d="M129.796 121.71L116.738 75.0109L112.983 60.5342V121.71H102.008V24.248H113.407L125.064 71.0896L128.531 85.7054V24.2552H139.373V121.71H129.796Z" fill="white"/>
<path class="svg_base" d="M176.685 121.71L174.741 116.295C172.644 120.836 168.346 123.168 163.339 123.168C154.155 123.168 147.34 115.853 147.34 103.561V42.3892C147.34 31.4202 154.715 22.7827 165.286 22.7827C175.857 22.7827 182.384 31.2777 182.384 42.3892V58.0529H171.124V41.227C171.124 37.8618 169.177 35.2275 165.289 35.2275C161.669 35.2275 159.59 38.008 159.59 41.3732V105.023C159.59 108.691 161.669 111.468 165.425 111.468C169.313 111.468 171.26 108.691 171.26 105.023V84.101H165.845V73.5848H183.215V121.71H176.685Z" fill="white"/>
<path class="svg_base" d="M209.302 123.175C199.288 123.175 191.645 115.432 191.645 103.861V24.2549H203.898V104.463C203.898 108.559 205.842 110.908 209.312 110.908C213.064 110.908 215.012 108.559 215.012 104.463V24.2549H226.682V103.861C226.672 115.432 219.314 123.175 209.302 123.175Z" fill="white"/>
<path class="svg_base" d="M301.026 122.163C296.579 122.163 294.771 116.302 294.771 109.272V86.0189C294.771 82.6538 293.115 80.0158 289.916 80.0158H284.484V121.724H272.258V24.2622H291.028C298.947 24.2622 306.318 28.8038 306.318 41.5337V62.0242C306.318 67.8669 303.954 72.1197 299.218 74.4547C303.954 76.8039 306.59 81.185 306.59 86.8994V108.549C306.59 112.944 307.285 116.01 308.673 118.501V122.17L301.026 122.163ZM294.227 41.6691C294.227 37.8726 292.976 36.1116 290.32 36.1116H284.484V68.89H289.783C292.691 68.89 294.231 66.9864 294.231 62.8905L294.227 41.6691Z" fill="white"/>
<path class="svg_base" d="M334.362 121.71H316.012V24.248H334.362C344.78 24.248 351.324 30.9784 351.324 44.596V101.661C351.337 115.432 344.793 121.71 334.362 121.71ZM339.081 44.1539C339.081 38.8816 337.557 36.3898 333.666 36.3898H328.238V109.711H333.666C337.557 109.711 339.081 107.215 339.081 101.947V44.1539Z" fill="white"/>
<path class="svg_base" d="M252.75 90.9846L249.131 49.1266L245.157 86.4857L244.68 90.9846L243.292 102.845L241.196 121.717H230.082L242.448 24.2549H255.794L268.173 121.717H255.658L253.982 102.845L252.75 90.9846Z" fill="white"/>
<path class="svg_base" d="M203.487 145.255C203.387 145.217 203.3 145.147 203.237 145.055C203.174 144.963 203.138 144.852 203.133 144.738C203.131 144.664 203.143 144.59 203.167 144.521C203.192 144.451 203.229 144.388 203.277 144.335C203.325 144.281 203.382 144.238 203.446 144.209C203.509 144.18 203.577 144.165 203.646 144.164C203.753 144.172 203.857 144.205 203.951 144.26C204.751 144.735 205.651 144.981 206.564 144.973C208.27 144.973 209.283 144.014 209.283 142.478C209.283 140.778 207.985 140.05 206.547 139.27C204.643 138.254 203.236 137.131 203.236 135.327C203.236 133.413 204.445 132.09 206.862 132.09C207.774 132.066 208.677 132.284 209.491 132.725C209.577 132.77 209.65 132.841 209.7 132.928C209.75 133.016 209.777 133.117 209.776 133.22C209.776 133.292 209.763 133.363 209.737 133.43C209.711 133.496 209.673 133.556 209.625 133.606C209.577 133.656 209.521 133.696 209.458 133.722C209.396 133.748 209.33 133.76 209.263 133.759C209.157 133.76 209.052 133.733 208.958 133.68C208.299 133.335 207.576 133.152 206.842 133.145C205.296 133.145 204.392 133.794 204.392 135.249C204.392 136.703 205.458 137.338 206.898 138.122C208.462 138.981 210.452 139.976 210.452 142.4C210.452 144.62 208.763 146.018 206.541 146.018C205.481 146.03 204.434 145.769 203.487 145.255Z" fill="#FF5166"/>
<path class="svg_base" d="M213.32 143.38V137.395H212.095C211.958 137.395 211.826 137.336 211.729 137.232C211.633 137.128 211.578 136.986 211.578 136.839C211.578 136.691 211.633 136.55 211.729 136.446C211.826 136.341 211.958 136.283 212.095 136.283H213.32V133.909C213.319 133.824 213.333 133.739 213.364 133.66C213.394 133.582 213.439 133.511 213.496 133.451C213.552 133.392 213.62 133.346 213.694 133.316C213.768 133.286 213.847 133.273 213.926 133.278C214.004 133.275 214.081 133.29 214.153 133.321C214.225 133.352 214.291 133.398 214.346 133.457C214.401 133.516 214.444 133.587 214.472 133.664C214.501 133.742 214.515 133.825 214.512 133.909V136.283H216.734C216.871 136.283 217.003 136.341 217.1 136.446C217.197 136.55 217.251 136.691 217.251 136.839C217.251 136.986 217.197 137.128 217.1 137.232C217.003 137.336 216.871 137.395 216.734 137.395H214.512V143.366C214.512 144.321 214.87 144.917 215.794 144.917C216.132 144.91 216.468 144.845 216.787 144.724C216.861 144.698 216.939 144.691 217.015 144.704C217.091 144.717 217.163 144.749 217.226 144.798C217.288 144.847 217.339 144.911 217.374 144.985C217.409 145.059 217.427 145.14 217.427 145.223C217.427 145.337 217.392 145.447 217.328 145.537C217.264 145.626 217.174 145.69 217.072 145.719C216.64 145.893 216.183 145.984 215.721 145.986C214.052 145.983 213.32 144.988 213.32 143.38Z" fill="#FF5166"/>
<path class="svg_base" d="M224.901 144.221C224.437 145.312 223.576 145.982 222.145 145.982C220.208 145.982 219.211 144.396 219.211 141.983V136.76C219.209 136.676 219.222 136.593 219.25 136.515C219.279 136.437 219.322 136.366 219.377 136.306C219.432 136.247 219.497 136.2 219.57 136.169C219.642 136.138 219.72 136.123 219.797 136.126C219.876 136.122 219.954 136.135 220.027 136.166C220.1 136.196 220.166 136.243 220.222 136.303C220.277 136.363 220.32 136.434 220.348 136.513C220.376 136.592 220.388 136.676 220.384 136.76V141.886C220.384 143.744 221.006 144.874 222.463 144.874C222.94 144.887 223.412 144.762 223.828 144.511C224.244 144.26 224.59 143.893 224.828 143.448V136.771C224.826 136.687 224.839 136.603 224.868 136.525C224.897 136.447 224.94 136.376 224.995 136.317C225.051 136.257 225.117 136.211 225.189 136.18C225.262 136.149 225.339 136.134 225.417 136.136C225.496 136.132 225.574 136.146 225.647 136.176C225.72 136.207 225.786 136.254 225.842 136.313C225.897 136.373 225.94 136.445 225.968 136.524C225.996 136.602 226.008 136.687 226.004 136.771V145.327C226.009 145.408 226 145.491 225.975 145.568C225.949 145.646 225.91 145.717 225.858 145.777C225.806 145.837 225.743 145.885 225.674 145.918C225.604 145.951 225.528 145.968 225.452 145.968C225.376 145.968 225.301 145.951 225.231 145.918C225.161 145.885 225.098 145.837 225.046 145.777C224.994 145.717 224.955 145.646 224.93 145.568C224.905 145.491 224.895 145.408 224.901 145.327V144.221Z" fill="#FF5166"/>
<path class="svg_base" d="M228.352 141.027C228.352 138.386 229.524 136.069 231.961 136.069C232.502 136.063 233.034 136.211 233.506 136.496C233.977 136.781 234.37 137.194 234.647 137.694V132.069C234.643 131.985 234.655 131.901 234.683 131.822C234.711 131.743 234.754 131.672 234.809 131.612C234.864 131.553 234.931 131.507 235.004 131.476C235.077 131.446 235.155 131.433 235.233 131.438C235.311 131.435 235.388 131.45 235.46 131.481C235.532 131.512 235.598 131.558 235.653 131.617C235.708 131.676 235.751 131.747 235.779 131.825C235.808 131.902 235.822 131.985 235.819 132.069V145.294C235.819 145.457 235.759 145.613 235.653 145.728C235.546 145.843 235.401 145.907 235.25 145.907C235.099 145.907 234.954 145.843 234.847 145.728C234.74 145.613 234.68 145.457 234.68 145.294V144.3C234.406 144.815 234.01 145.242 233.533 145.537C233.055 145.833 232.512 145.987 231.961 145.982C229.524 145.982 228.352 143.669 228.352 141.027ZM234.644 143.341V138.707C234.038 137.769 233.256 137.138 232.117 137.138C230.216 137.138 229.521 139.052 229.521 141.024C229.521 142.995 230.216 144.909 232.117 144.909C233.259 144.913 234.041 144.278 234.647 143.341H234.644Z" fill="#FF5166"/>
<path class="svg_base" d="M242.326 145.982C239.18 145.982 238.184 143.573 238.184 140.992C238.184 138.236 239.445 136.037 242.078 136.037C244.496 136.037 245.529 138.083 245.529 140.343V140.781C245.537 140.859 245.529 140.938 245.506 141.011C245.482 141.085 245.443 141.152 245.391 141.208C245.34 141.263 245.278 141.305 245.209 141.33C245.141 141.356 245.068 141.364 244.996 141.355H239.339C239.376 143.405 240.141 144.956 242.379 144.956C243.147 144.976 243.906 144.785 244.585 144.4C244.658 144.349 244.743 144.321 244.83 144.318C244.917 144.315 245.003 144.337 245.079 144.381C245.156 144.426 245.22 144.492 245.264 144.572C245.309 144.653 245.333 144.745 245.333 144.838C245.336 144.942 245.311 145.045 245.26 145.133C245.21 145.222 245.136 145.293 245.049 145.337C244.197 145.766 243.267 145.986 242.326 145.982ZM239.346 140.375H244.469C244.469 138.5 243.721 136.988 242.085 136.988C240.247 136.971 239.392 138.614 239.339 140.375H239.346Z" fill="#FF5166"/>
<path class="svg_base" d="M253.557 145.277V140.147C253.557 138.272 252.935 137.142 251.405 137.142C250.922 137.128 250.446 137.256 250.026 137.512C249.606 137.768 249.26 138.143 249.024 138.596V145.277C249.027 145.361 249.015 145.445 248.986 145.524C248.958 145.602 248.915 145.674 248.859 145.733C248.804 145.793 248.737 145.839 248.664 145.869C248.591 145.899 248.512 145.912 248.434 145.907C248.356 145.91 248.279 145.895 248.207 145.864C248.135 145.834 248.069 145.787 248.014 145.728C247.96 145.669 247.916 145.599 247.888 145.521C247.859 145.443 247.846 145.36 247.848 145.277V136.721C247.846 136.641 247.86 136.561 247.888 136.487C247.916 136.412 247.958 136.345 248.011 136.289C248.065 136.233 248.129 136.19 248.199 136.161C248.269 136.133 248.343 136.121 248.418 136.126C248.491 136.123 248.564 136.136 248.632 136.165C248.7 136.194 248.762 136.238 248.814 136.294C248.865 136.349 248.906 136.416 248.932 136.49C248.959 136.563 248.97 136.642 248.967 136.721V137.755C249.467 136.685 250.318 136.051 251.706 136.051C253.716 136.051 254.73 137.619 254.73 140.05V145.277C254.733 145.36 254.721 145.444 254.693 145.523C254.664 145.601 254.622 145.672 254.566 145.732C254.511 145.791 254.445 145.837 254.372 145.868C254.299 145.898 254.221 145.912 254.143 145.907C254.066 145.91 253.989 145.895 253.916 145.864C253.844 145.834 253.779 145.787 253.724 145.728C253.669 145.669 253.626 145.599 253.597 145.521C253.569 145.443 253.555 145.36 253.557 145.277Z" fill="#FF5166"/>
<path class="svg_base" d="M258.171 143.38V137.395H256.942C256.805 137.395 256.674 137.336 256.577 137.232C256.48 137.128 256.426 136.986 256.426 136.839C256.426 136.691 256.48 136.55 256.577 136.445C256.674 136.341 256.805 136.282 256.942 136.282H258.171V133.908C258.182 133.747 258.25 133.596 258.36 133.486C258.47 133.376 258.615 133.314 258.766 133.314C258.916 133.314 259.061 133.376 259.171 133.486C259.281 133.596 259.349 133.747 259.36 133.908V136.282H261.582C261.719 136.282 261.85 136.341 261.947 136.445C262.044 136.55 262.099 136.691 262.099 136.839C262.099 136.986 262.044 137.128 261.947 137.232C261.85 137.336 261.719 137.395 261.582 137.395H259.36V143.366C259.36 144.321 259.718 144.916 260.642 144.916C260.98 144.91 261.316 144.845 261.635 144.724C261.708 144.698 261.786 144.691 261.862 144.704C261.939 144.717 262.011 144.749 262.073 144.797C262.136 144.846 262.186 144.91 262.221 144.984C262.256 145.058 262.274 145.14 262.274 145.223C262.275 145.336 262.241 145.447 262.177 145.537C262.112 145.627 262.022 145.691 261.92 145.719C261.488 145.893 261.03 145.984 260.569 145.986C258.9 145.982 258.171 144.988 258.171 143.38Z" fill="#FF5166"/>
<path class="svg_base" d="M268.146 145.255V132.853C268.142 132.767 268.155 132.681 268.184 132.6C268.213 132.52 268.258 132.446 268.314 132.385C268.371 132.324 268.439 132.277 268.514 132.245C268.589 132.214 268.669 132.2 268.749 132.204C268.828 132.201 268.908 132.215 268.982 132.247C269.056 132.278 269.123 132.326 269.178 132.387C269.234 132.448 269.277 132.521 269.304 132.602C269.332 132.682 269.344 132.768 269.338 132.853V138.364H276.502V132.853C276.498 132.767 276.512 132.68 276.541 132.6C276.57 132.519 276.615 132.446 276.672 132.385C276.729 132.324 276.797 132.277 276.872 132.245C276.947 132.214 277.027 132.2 277.108 132.204C277.187 132.201 277.266 132.215 277.34 132.246C277.414 132.278 277.48 132.326 277.536 132.387C277.591 132.449 277.634 132.522 277.661 132.602C277.688 132.682 277.699 132.768 277.694 132.853V145.255C277.699 145.341 277.688 145.426 277.661 145.507C277.634 145.587 277.591 145.661 277.536 145.722C277.481 145.784 277.414 145.832 277.34 145.864C277.266 145.896 277.187 145.911 277.108 145.907C277.027 145.912 276.946 145.897 276.871 145.866C276.796 145.835 276.728 145.787 276.671 145.725C276.614 145.664 276.569 145.59 276.54 145.509C276.511 145.428 276.498 145.342 276.502 145.255V139.534H269.338V145.273C269.344 145.359 269.333 145.445 269.305 145.525C269.278 145.606 269.235 145.68 269.179 145.741C269.124 145.803 269.057 145.851 268.982 145.883C268.908 145.915 268.829 145.929 268.749 145.925C268.667 145.929 268.585 145.914 268.509 145.881C268.433 145.849 268.365 145.799 268.308 145.736C268.251 145.673 268.207 145.597 268.179 145.514C268.151 145.431 268.14 145.343 268.146 145.255Z" fill="#FF5166"/>
<path class="svg_base" d="M280.129 141.006C280.129 138.404 281.411 136.051 284.166 136.051C286.921 136.051 288.203 138.404 288.203 141.006C288.203 143.608 286.921 145.997 284.166 145.997C281.411 145.997 280.129 143.63 280.129 141.006ZM287.027 141.006C287.027 139.092 286.262 137.085 284.166 137.085C282.07 137.085 281.301 139.074 281.301 141.006C281.301 142.938 282.066 144.927 284.166 144.927C286.265 144.927 287.027 142.942 287.027 141.006Z" fill="#FF5166"/>
<path class="svg_base" d="M296.155 144.221C295.691 145.312 294.83 145.982 293.399 145.982C291.459 145.982 290.465 144.396 290.465 141.983V136.76C290.462 136.676 290.476 136.593 290.504 136.515C290.533 136.437 290.576 136.366 290.631 136.306C290.685 136.247 290.751 136.2 290.824 136.169C290.896 136.138 290.973 136.123 291.051 136.126C291.13 136.122 291.208 136.135 291.281 136.166C291.354 136.196 291.42 136.243 291.476 136.303C291.531 136.363 291.574 136.434 291.602 136.513C291.63 136.592 291.642 136.676 291.638 136.76V141.886C291.638 143.744 292.26 144.874 293.717 144.874C294.194 144.887 294.666 144.762 295.082 144.511C295.498 144.26 295.843 143.893 296.082 143.448V136.771C296.079 136.687 296.092 136.603 296.121 136.525C296.15 136.446 296.193 136.375 296.248 136.316C296.304 136.256 296.37 136.209 296.442 136.179C296.515 136.148 296.593 136.133 296.671 136.136C296.75 136.132 296.828 136.146 296.901 136.176C296.974 136.207 297.04 136.254 297.095 136.313C297.151 136.373 297.194 136.445 297.222 136.524C297.25 136.602 297.262 136.687 297.257 136.771V145.327C297.263 145.408 297.253 145.491 297.228 145.568C297.203 145.646 297.164 145.717 297.112 145.777C297.06 145.837 296.997 145.885 296.928 145.918C296.858 145.951 296.782 145.968 296.706 145.968C296.63 145.968 296.554 145.951 296.485 145.918C296.415 145.885 296.352 145.837 296.3 145.777C296.248 145.717 296.209 145.646 296.184 145.568C296.159 145.491 296.149 145.408 296.155 145.327V144.221Z" fill="#FF5166"/>
<path class="svg_base" d="M299.836 145.391C299.737 145.343 299.656 145.26 299.606 145.156C299.555 145.053 299.539 144.934 299.559 144.819C299.58 144.704 299.635 144.6 299.717 144.523C299.799 144.446 299.903 144.402 300.012 144.396C300.11 144.4 300.207 144.426 300.296 144.471C300.922 144.802 301.609 144.978 302.307 144.988C303.479 144.988 304.227 144.432 304.227 143.323C304.227 142.214 303.32 141.851 302.217 141.312C300.813 140.624 299.657 139.84 299.657 138.425C299.657 136.931 300.707 136.051 302.413 136.051C303.155 136.048 303.889 136.217 304.565 136.546C304.653 136.586 304.727 136.653 304.778 136.739C304.829 136.825 304.854 136.926 304.85 137.028C304.852 137.159 304.806 137.287 304.723 137.383C304.64 137.479 304.525 137.537 304.403 137.545C304.311 137.536 304.221 137.51 304.138 137.466C303.594 137.204 303.008 137.061 302.413 137.045C301.346 137.045 300.777 137.466 300.777 138.364C300.777 139.341 301.631 139.762 302.644 140.261C303.89 140.874 305.347 141.544 305.347 143.227C305.347 145.009 303.979 145.982 302.307 145.982C301.453 145.978 300.611 145.776 299.836 145.391Z" fill="#FF5166"/>
<path class="svg_base" d="M307.372 133.085C307.367 132.969 307.386 132.853 307.426 132.745C307.465 132.637 307.526 132.539 307.603 132.458C307.68 132.377 307.772 132.314 307.873 132.273C307.974 132.233 308.082 132.215 308.19 132.222C308.297 132.217 308.404 132.235 308.505 132.276C308.605 132.318 308.697 132.381 308.773 132.462C308.85 132.543 308.911 132.64 308.951 132.747C308.991 132.854 309.011 132.969 309.008 133.085C309.011 133.202 308.992 133.318 308.952 133.426C308.912 133.534 308.852 133.633 308.775 133.715C308.699 133.798 308.607 133.862 308.507 133.905C308.406 133.948 308.298 133.969 308.19 133.965C308.081 133.97 307.973 133.951 307.871 133.909C307.77 133.866 307.678 133.802 307.601 133.719C307.524 133.636 307.464 133.537 307.425 133.428C307.385 133.319 307.367 133.202 307.372 133.085ZM307.604 145.277V136.76C307.599 136.676 307.612 136.592 307.64 136.513C307.667 136.434 307.71 136.362 307.766 136.303C307.821 136.243 307.887 136.196 307.96 136.166C308.033 136.135 308.112 136.122 308.19 136.126C308.268 136.123 308.345 136.138 308.418 136.169C308.49 136.2 308.556 136.247 308.611 136.306C308.666 136.366 308.709 136.437 308.737 136.515C308.765 136.593 308.779 136.676 308.776 136.76V145.277C308.778 145.36 308.765 145.443 308.736 145.521C308.707 145.599 308.664 145.669 308.609 145.728C308.555 145.787 308.489 145.834 308.417 145.865C308.345 145.895 308.267 145.91 308.19 145.908C308.112 145.912 308.034 145.898 307.961 145.868C307.888 145.838 307.822 145.791 307.767 145.732C307.712 145.672 307.669 145.601 307.641 145.523C307.612 145.444 307.6 145.361 307.604 145.277Z" fill="#FF5166"/>
<path class="svg_base" d="M317.51 145.277V140.147C317.51 138.272 316.888 137.142 315.358 137.142C314.875 137.127 314.397 137.255 313.977 137.511C313.557 137.768 313.21 138.143 312.973 138.596V145.277C312.978 145.361 312.965 145.445 312.937 145.523C312.91 145.602 312.866 145.673 312.811 145.733C312.756 145.793 312.69 145.839 312.616 145.869C312.543 145.899 312.465 145.912 312.387 145.907C312.31 145.91 312.232 145.895 312.16 145.864C312.088 145.834 312.022 145.787 311.968 145.728C311.913 145.669 311.87 145.599 311.841 145.521C311.812 145.443 311.799 145.36 311.801 145.277V136.721C311.799 136.641 311.813 136.561 311.841 136.487C311.869 136.412 311.911 136.345 311.965 136.289C312.018 136.233 312.082 136.19 312.152 136.161C312.222 136.133 312.296 136.121 312.371 136.126C312.444 136.123 312.517 136.136 312.585 136.165C312.653 136.194 312.715 136.238 312.767 136.294C312.818 136.349 312.859 136.416 312.885 136.49C312.912 136.563 312.924 136.642 312.92 136.721V137.755C313.42 136.685 314.272 136.051 315.659 136.051C317.669 136.051 318.683 137.619 318.683 140.05V145.277C318.686 145.36 318.674 145.444 318.646 145.523C318.618 145.601 318.575 145.672 318.519 145.732C318.464 145.791 318.398 145.837 318.325 145.868C318.252 145.898 318.174 145.912 318.096 145.907C318.019 145.91 317.942 145.895 317.869 145.864C317.797 145.834 317.732 145.787 317.677 145.728C317.622 145.669 317.579 145.599 317.55 145.521C317.522 145.443 317.508 145.36 317.51 145.277Z" fill="#FF5166"/>
<path class="svg_base" d="M321.991 149.408C321.88 149.387 321.78 149.323 321.711 149.227C321.642 149.132 321.608 149.012 321.617 148.891C321.616 148.796 321.638 148.702 321.681 148.619C321.724 148.536 321.786 148.466 321.861 148.416C321.936 148.366 322.022 148.338 322.111 148.335C322.199 148.331 322.287 148.352 322.365 148.396C323.12 148.758 323.936 148.947 324.763 148.952C326.508 148.952 327.253 147.993 327.253 146.289V144.05C326.974 144.55 326.581 144.964 326.111 145.252C325.64 145.541 325.109 145.694 324.567 145.697C322.15 145.697 320.961 143.494 320.961 140.874C320.961 138.254 322.133 136.051 324.551 136.051C325.1 136.04 325.641 136.185 326.122 136.47C326.602 136.755 327.005 137.171 327.289 137.676V136.739C327.284 136.655 327.294 136.57 327.32 136.49C327.345 136.411 327.386 136.337 327.44 136.275C327.493 136.213 327.558 136.164 327.629 136.13C327.701 136.096 327.779 136.079 327.857 136.079C327.936 136.079 328.014 136.096 328.085 136.13C328.157 136.164 328.222 136.213 328.275 136.275C328.329 136.337 328.369 136.411 328.395 136.49C328.421 136.57 328.431 136.655 328.425 136.739V146.307C328.425 148.717 326.968 150 324.763 150C323.812 149.991 322.872 149.791 321.991 149.408ZM327.253 143.095V138.671C326.65 137.773 325.866 137.102 324.783 137.102C322.845 137.102 322.113 138.942 322.113 140.874C322.113 142.806 322.845 144.642 324.799 144.642C325.849 144.642 326.667 143.993 327.253 143.098V143.095Z" fill="#FF5166"/>
<path class="svg_base" d="M33.9976 0V12.1952H11.3292V36.5928H0V0H33.9976Z" fill="white"/>
<path class="svg_base" d="M374.001 109.579V146.171H340.004V133.976H362.672V109.579H374.001Z" fill="#FF5166"/>
</svg>
